G04 Layer_Color=255*
%FSTAX24Y24*%
%MOIN*%
G70*
G01*
G75*
%ADD10R,0.0180X0.0770*%
%ADD11O,0.0180X0.0770*%
%ADD12O,0.0177X0.0551*%
%ADD13R,0.0299X0.0500*%
%ADD14R,0.0650X0.0600*%
%ADD15R,0.0300X0.0800*%
G04:AMPARAMS|DCode=16|XSize=30mil|YSize=80mil|CornerRadius=7.5mil|HoleSize=0mil|Usage=FLASHONLY|Rotation=180.000|XOffset=0mil|YOffset=0mil|HoleType=Round|Shape=RoundedRectangle|*
%AMROUNDEDRECTD16*
21,1,0.0300,0.0650,0,0,180.0*
21,1,0.0150,0.0800,0,0,180.0*
1,1,0.0150,-0.0075,0.0325*
1,1,0.0150,0.0075,0.0325*
1,1,0.0150,0.0075,-0.0325*
1,1,0.0150,-0.0075,-0.0325*
%
%ADD16ROUNDEDRECTD16*%
%ADD17R,0.0315X0.0472*%
G04:AMPARAMS|DCode=18|XSize=37.4mil|YSize=19.7mil|CornerRadius=2.5mil|HoleSize=0mil|Usage=FLASHONLY|Rotation=90.000|XOffset=0mil|YOffset=0mil|HoleType=Round|Shape=RoundedRectangle|*
%AMROUNDEDRECTD18*
21,1,0.0374,0.0148,0,0,90.0*
21,1,0.0325,0.0197,0,0,90.0*
1,1,0.0049,0.0074,0.0162*
1,1,0.0049,0.0074,-0.0162*
1,1,0.0049,-0.0074,-0.0162*
1,1,0.0049,-0.0074,0.0162*
%
%ADD18ROUNDEDRECTD18*%
%ADD19R,0.0550X0.0500*%
%ADD20R,0.0236X0.0787*%
%ADD21R,0.0500X0.0500*%
%ADD22R,0.0945X0.1299*%
%ADD23R,0.0945X0.0394*%
G04:AMPARAMS|DCode=24|XSize=67mil|YSize=36mil|CornerRadius=4mil|HoleSize=0mil|Usage=FLASHONLY|Rotation=180.000|XOffset=0mil|YOffset=0mil|HoleType=Round|Shape=RoundedRectangle|*
%AMROUNDEDRECTD24*
21,1,0.0670,0.0281,0,0,180.0*
21,1,0.0591,0.0360,0,0,180.0*
1,1,0.0079,-0.0295,0.0140*
1,1,0.0079,0.0295,0.0140*
1,1,0.0079,0.0295,-0.0140*
1,1,0.0079,-0.0295,-0.0140*
%
%ADD24ROUNDEDRECTD24*%
G04:AMPARAMS|DCode=25|XSize=67mil|YSize=36mil|CornerRadius=4mil|HoleSize=0mil|Usage=FLASHONLY|Rotation=90.000|XOffset=0mil|YOffset=0mil|HoleType=Round|Shape=RoundedRectangle|*
%AMROUNDEDRECTD25*
21,1,0.0670,0.0281,0,0,90.0*
21,1,0.0591,0.0360,0,0,90.0*
1,1,0.0079,0.0140,0.0295*
1,1,0.0079,0.0140,-0.0295*
1,1,0.0079,-0.0140,-0.0295*
1,1,0.0079,-0.0140,0.0295*
%
%ADD25ROUNDEDRECTD25*%
%ADD26R,0.1580X0.1580*%
%ADD27R,0.0600X0.0394*%
%ADD28R,0.0600X0.0394*%
%ADD29R,0.0906X0.0906*%
%ADD30R,0.0630X0.1378*%
G04:AMPARAMS|DCode=31|XSize=70.9mil|YSize=47.2mil|CornerRadius=5.9mil|HoleSize=0mil|Usage=FLASHONLY|Rotation=0.000|XOffset=0mil|YOffset=0mil|HoleType=Round|Shape=RoundedRectangle|*
%AMROUNDEDRECTD31*
21,1,0.0709,0.0354,0,0,0.0*
21,1,0.0591,0.0472,0,0,0.0*
1,1,0.0118,0.0295,-0.0177*
1,1,0.0118,-0.0295,-0.0177*
1,1,0.0118,-0.0295,0.0177*
1,1,0.0118,0.0295,0.0177*
%
%ADD31ROUNDEDRECTD31*%
%ADD32R,0.0748X0.1654*%
G04:AMPARAMS|DCode=33|XSize=118.1mil|YSize=196.9mil|CornerRadius=0mil|HoleSize=0mil|Usage=FLASHONLY|Rotation=315.000|XOffset=0mil|YOffset=0mil|HoleType=Round|Shape=Rectangle|*
%AMROTATEDRECTD33*
4,1,4,-0.1114,-0.0278,0.0278,0.1114,0.1114,0.0278,-0.0278,-0.1114,-0.1114,-0.0278,0.0*
%
%ADD33ROTATEDRECTD33*%

%ADD34R,0.0500X0.0550*%
%ADD35R,0.0500X0.0500*%
%ADD36R,0.0591X0.0315*%
%ADD37R,0.0787X0.0571*%
%ADD46R,0.0787X0.0984*%
%ADD47O,0.0750X0.0650*%
%ADD48R,0.0559X0.0559*%
%ADD49C,0.0559*%
%ADD50C,0.1358*%
%ADD51O,0.1516X0.1142*%
%ADD52C,0.0472*%
%ADD53O,0.0591X0.0787*%
%ADD54C,0.0750*%
%ADD55O,0.0860X0.0600*%
%ADD56O,0.0787X0.0591*%
%ADD57R,0.0787X0.0591*%
%ADD58P,0.1492X8X22.5*%
%ADD59P,0.1492X8X22.5*%
%ADD60O,0.1500X0.1200*%
%ADD61O,0.1200X0.1500*%
%ADD62R,0.0630X0.0630*%
%ADD63C,0.0630*%
%ADD64O,0.0650X0.0750*%
D10*
X213223Y161963D02*
D03*
D11*
X213478D02*
D03*
X213734D02*
D03*
X21399D02*
D03*
X214246D02*
D03*
X214502D02*
D03*
X214758D02*
D03*
X215014D02*
D03*
X21527D02*
D03*
X215526D02*
D03*
X215782D02*
D03*
X216037D02*
D03*
X213223Y164797D02*
D03*
X213478D02*
D03*
X213734D02*
D03*
X21399D02*
D03*
X214246D02*
D03*
X214502D02*
D03*
X214758D02*
D03*
X215014D02*
D03*
X21527Y164797D02*
D03*
X215526Y164797D02*
D03*
X215782Y164797D02*
D03*
X216037Y164797D02*
D03*
D12*
X250862Y173711D02*
D03*
X250606D02*
D03*
X25035D02*
D03*
X250094D02*
D03*
X249838D02*
D03*
X249582D02*
D03*
X249326D02*
D03*
X24907D02*
D03*
X248814D02*
D03*
X248558D02*
D03*
X250862Y171389D02*
D03*
X250606D02*
D03*
X25035D02*
D03*
X250094D02*
D03*
X249838D02*
D03*
X249582D02*
D03*
X249326D02*
D03*
X24907D02*
D03*
X248814D02*
D03*
X248558D02*
D03*
D13*
X24699Y17098D02*
D03*
X24649D02*
D03*
X24599D02*
D03*
X24549D02*
D03*
X24399D02*
D03*
X24349D02*
D03*
X24449D02*
D03*
X24499D02*
D03*
X24399Y17398D02*
D03*
X24349D02*
D03*
X24449D02*
D03*
X24699D02*
D03*
X24649D02*
D03*
X24599D02*
D03*
X24549D02*
D03*
X24499D02*
D03*
D14*
X22954Y18077D02*
D03*
Y17947D02*
D03*
X20202Y18077D02*
D03*
Y17947D02*
D03*
X205951Y18077D02*
D03*
Y17947D02*
D03*
X209883Y18077D02*
D03*
Y17947D02*
D03*
X213814Y18077D02*
D03*
Y17947D02*
D03*
X217746Y18077D02*
D03*
Y17947D02*
D03*
X221677Y18077D02*
D03*
Y17947D02*
D03*
X225609Y18077D02*
D03*
Y17947D02*
D03*
D15*
X23882Y17053D02*
D03*
D16*
X23932D02*
D03*
X23982D02*
D03*
X24032Y17053D02*
D03*
X24082Y17053D02*
D03*
X24132D02*
D03*
X24182D02*
D03*
X24232D02*
D03*
X23882Y17425D02*
D03*
X23932D02*
D03*
X23982D02*
D03*
X24032Y17425D02*
D03*
X24082Y17425D02*
D03*
X24132D02*
D03*
X24182D02*
D03*
X24232D02*
D03*
D17*
X23039Y166868D02*
D03*
Y164112D02*
D03*
D18*
X237622Y170416D02*
D03*
X237307D02*
D03*
X236993D02*
D03*
X236678D02*
D03*
Y171124D02*
D03*
X236993D02*
D03*
X237307D02*
D03*
X237622Y171124D02*
D03*
X221858Y167214D02*
D03*
X222173D02*
D03*
X222487D02*
D03*
X222802D02*
D03*
Y166506D02*
D03*
X222487D02*
D03*
X222173D02*
D03*
X221858D02*
D03*
X206198Y166994D02*
D03*
X206513D02*
D03*
X206827D02*
D03*
X207142D02*
D03*
Y166286D02*
D03*
X206827D02*
D03*
X206513D02*
D03*
X206198D02*
D03*
D19*
X22955Y15805D02*
D03*
Y15715D02*
D03*
X23304Y16617D02*
D03*
Y16527D02*
D03*
X2295Y16866D02*
D03*
Y16956D02*
D03*
X23979Y17654D02*
D03*
Y17744D02*
D03*
X24217Y17743D02*
D03*
Y17653D02*
D03*
X24058Y17654D02*
D03*
Y17744D02*
D03*
X24138Y17743D02*
D03*
Y17653D02*
D03*
X23042Y16864D02*
D03*
Y16954D02*
D03*
X23044Y15715D02*
D03*
Y15805D02*
D03*
D20*
X22436Y17095D02*
D03*
X22386D02*
D03*
X22336D02*
D03*
X22286D02*
D03*
X22236D02*
D03*
X22186D02*
D03*
X22136D02*
D03*
X22086D02*
D03*
X22436Y16851D02*
D03*
X22386D02*
D03*
X22336D02*
D03*
X22286D02*
D03*
X22236D02*
D03*
X22186D02*
D03*
X22136D02*
D03*
X22086D02*
D03*
X20867Y17073D02*
D03*
X20817D02*
D03*
X20767D02*
D03*
X20717D02*
D03*
X20667D02*
D03*
X20617D02*
D03*
X20567D02*
D03*
X20517D02*
D03*
X20867Y16829D02*
D03*
X20817D02*
D03*
X20767D02*
D03*
X20717D02*
D03*
X20667D02*
D03*
X20617D02*
D03*
X20567D02*
D03*
X20517D02*
D03*
D21*
X22824Y17789D02*
D03*
X22914D02*
D03*
X20058D02*
D03*
X20148D02*
D03*
X204531D02*
D03*
X205431D02*
D03*
X208483D02*
D03*
X209383D02*
D03*
X212434D02*
D03*
X213334D02*
D03*
X216386D02*
D03*
X217286D02*
D03*
X220337D02*
D03*
X221237D02*
D03*
X224289D02*
D03*
X225189D02*
D03*
X24997Y15183D02*
D03*
X24907Y15183D02*
D03*
D22*
X242042Y15079D02*
D03*
D23*
X239758Y149884D02*
D03*
Y15079D02*
D03*
X239758Y151696D02*
D03*
D24*
X24155Y16576D02*
D03*
Y16526D02*
D03*
Y16476D02*
D03*
Y16426D02*
D03*
X24155Y16376D02*
D03*
X24155Y16326D02*
D03*
Y16276D02*
D03*
Y16226D02*
D03*
Y16176D02*
D03*
X24155Y16126D02*
D03*
X24155Y16076D02*
D03*
Y16026D02*
D03*
Y15976D02*
D03*
Y15926D02*
D03*
X234457D02*
D03*
X234457Y15976D02*
D03*
Y16026D02*
D03*
Y16076D02*
D03*
Y16126D02*
D03*
X234457Y16176D02*
D03*
X234457Y16226D02*
D03*
Y16276D02*
D03*
X234457Y16326D02*
D03*
X234457Y16376D02*
D03*
Y16426D02*
D03*
Y16476D02*
D03*
Y16526D02*
D03*
X234457Y16576D02*
D03*
D25*
X24025Y158669D02*
D03*
X23975D02*
D03*
X23925D02*
D03*
X23875D02*
D03*
X23825D02*
D03*
X23775D02*
D03*
X23725D02*
D03*
X23675D02*
D03*
X23625D02*
D03*
X23575D02*
D03*
D26*
X237724Y16285D02*
D03*
D27*
X22866Y17946D02*
D03*
X20109D02*
D03*
X205029D02*
D03*
X208967D02*
D03*
X212906D02*
D03*
X216844D02*
D03*
X220783D02*
D03*
X224721D02*
D03*
D28*
X22866Y18072D02*
D03*
X20109D02*
D03*
X205029D02*
D03*
X208967D02*
D03*
X212906D02*
D03*
X216844D02*
D03*
X220783D02*
D03*
X224721D02*
D03*
D29*
X231816Y14974D02*
D03*
X230044D02*
D03*
X238236Y14974D02*
D03*
X236464D02*
D03*
D30*
X24449Y149638D02*
D03*
Y151842D02*
D03*
X23421Y149678D02*
D03*
Y151882D02*
D03*
D31*
X246858Y14969D02*
D03*
X247882D02*
D03*
D32*
X22747Y152188D02*
D03*
X22747Y149432D02*
D03*
D33*
X23217Y171934D02*
D03*
X236958Y176722D02*
D03*
D34*
X24996Y14971D02*
D03*
X24906D02*
D03*
X24717Y15948D02*
D03*
X24807D02*
D03*
X24717Y1585D02*
D03*
X24807D02*
D03*
X24775Y15184D02*
D03*
X24685Y15184D02*
D03*
X23093Y15194D02*
D03*
X23003D02*
D03*
X23647Y15191D02*
D03*
X23737D02*
D03*
D35*
X2304Y16288D02*
D03*
Y16198D02*
D03*
D36*
X252203Y179099D02*
D03*
Y178666D02*
D03*
Y178233D02*
D03*
Y1778D02*
D03*
Y177367D02*
D03*
Y176934D02*
D03*
Y176501D02*
D03*
Y176068D02*
D03*
D37*
X249939Y175103D02*
D03*
Y180517D02*
D03*
X253226Y175103D02*
D03*
Y180517D02*
D03*
D46*
X207713Y151147D02*
D03*
X207713Y149178D02*
D03*
X205745D02*
D03*
X205745Y151147D02*
D03*
X203776D02*
D03*
X203776Y149178D02*
D03*
X209682D02*
D03*
X209682Y151147D02*
D03*
X217556D02*
D03*
X217556Y149178D02*
D03*
X21165D02*
D03*
Y151147D02*
D03*
X213619Y151147D02*
D03*
Y149178D02*
D03*
X215587Y149178D02*
D03*
Y151147D02*
D03*
X202035Y184523D02*
D03*
X202035Y186492D02*
D03*
X204003D02*
D03*
Y184523D02*
D03*
X205972Y184523D02*
D03*
Y186492D02*
D03*
X200066Y186492D02*
D03*
X200066Y184523D02*
D03*
X217783Y184523D02*
D03*
Y186492D02*
D03*
X219751Y186492D02*
D03*
Y184523D02*
D03*
X22172Y184523D02*
D03*
Y186492D02*
D03*
X215814D02*
D03*
X215814Y184523D02*
D03*
X223688D02*
D03*
X223688Y186492D02*
D03*
X229594D02*
D03*
X229594Y184523D02*
D03*
X227625D02*
D03*
X227625Y186492D02*
D03*
X225657D02*
D03*
X225657Y184523D02*
D03*
X20794Y184523D02*
D03*
Y186492D02*
D03*
X213846D02*
D03*
X213846Y184523D02*
D03*
X211877D02*
D03*
X211877Y186492D02*
D03*
X209909D02*
D03*
X209909Y184523D02*
D03*
X198495Y149178D02*
D03*
X198495Y151147D02*
D03*
X196526D02*
D03*
X196526Y149178D02*
D03*
X195415Y186512D02*
D03*
X195415Y184543D02*
D03*
X197384D02*
D03*
X197384Y186512D02*
D03*
X223375Y149178D02*
D03*
Y151147D02*
D03*
X221406D02*
D03*
Y149178D02*
D03*
D47*
X22764Y17957D02*
D03*
Y18058D02*
D03*
X223701Y17957D02*
D03*
Y18058D02*
D03*
X219763Y17957D02*
D03*
Y18058D02*
D03*
X215824Y17957D02*
D03*
Y18058D02*
D03*
X211886Y17957D02*
D03*
Y18058D02*
D03*
X207947Y17957D02*
D03*
Y18058D02*
D03*
X204009Y17957D02*
D03*
Y18058D02*
D03*
X20007Y17955D02*
D03*
Y18056D02*
D03*
X25463Y17127D02*
D03*
Y17225D02*
D03*
Y17326D02*
D03*
D48*
X242378Y182111D02*
D03*
X242378Y183142D02*
D03*
D49*
X239622Y182111D02*
D03*
X240606D02*
D03*
X241394D02*
D03*
X240606Y183142D02*
D03*
X241394D02*
D03*
X239622D02*
D03*
D50*
X243587Y181973D02*
D03*
X238413D02*
D03*
Y184209D02*
D03*
X243587D02*
D03*
D51*
X252374Y182044D02*
D03*
X246826D02*
D03*
Y18428D02*
D03*
X252374D02*
D03*
D52*
X250978Y183493D02*
D03*
X248222D02*
D03*
X249994D02*
D03*
X249206D02*
D03*
X248025Y182902D02*
D03*
X251175D02*
D03*
X248813D02*
D03*
X2496D02*
D03*
X250387D02*
D03*
X250978Y182233D02*
D03*
X248222D02*
D03*
X249994D02*
D03*
X249206D02*
D03*
X248025Y181642D02*
D03*
X251175D02*
D03*
X248813D02*
D03*
X2496Y181642D02*
D03*
X250387Y181642D02*
D03*
D53*
X23587Y185D02*
D03*
X233D02*
D03*
D54*
X23528Y18603D02*
D03*
X23355D02*
D03*
D55*
X19562Y17847D02*
D03*
X19562Y17947D02*
D03*
Y17747D02*
D03*
X19662Y17946D02*
D03*
X19662Y17847D02*
D03*
X19662Y17747D02*
D03*
D56*
X2513Y15928D02*
D03*
Y16028D02*
D03*
Y16128D02*
D03*
Y16228D02*
D03*
Y16328D02*
D03*
Y16428D02*
D03*
Y16528D02*
D03*
Y16628D02*
D03*
Y16728D02*
D03*
Y16828D02*
D03*
X2503Y16728D02*
D03*
Y16628D02*
D03*
Y16528D02*
D03*
Y16428D02*
D03*
Y16328D02*
D03*
Y16228D02*
D03*
Y16128D02*
D03*
Y16028D02*
D03*
Y15928D02*
D03*
D57*
Y16828D02*
D03*
D58*
X254482Y186055D02*
D03*
Y149705D02*
D03*
X192707Y149735D02*
D03*
X192797Y186075D02*
D03*
D59*
X22627Y171786D02*
D03*
Y158006D02*
D03*
X197333D02*
D03*
X197333Y171786D02*
D03*
D60*
X226939Y167219D02*
D03*
Y162534D02*
D03*
Y164093D02*
D03*
Y165652D02*
D03*
D61*
X196427Y162967D02*
D03*
Y166116D02*
D03*
D62*
X25029Y15548D02*
D03*
D63*
Y15648D02*
D03*
X25129Y15548D02*
D03*
Y15648D02*
D03*
D64*
X24111Y15458D02*
D03*
X24209D02*
D03*
X2431D02*
D03*
M02*
