G04 Layer_Color=16711935*
%FSTAX24Y24*%
%MOIN*%
G70*
G01*
G75*
%ADD71C,0.0079*%
%ADD73C,0.0059*%
%ADD75C,0.0050*%
%ADD148C,0.0039*%
%ADD149C,0.0020*%
D71*
X23789Y188256D02*
X24411D01*
X24411Y181504D02*
X24411Y188256D01*
X23789Y181504D02*
X24411D01*
X23789Y188256D02*
X23789Y181504D01*
X246531Y181162D02*
Y188918D01*
Y181162D02*
X252669D01*
Y188918D01*
X246531D02*
X252669D01*
X24747Y170819D02*
X24747Y174141D01*
X24301Y174141D02*
X24747Y174141D01*
X24301Y170819D02*
Y174141D01*
Y170819D02*
X24747D01*
X229104Y149176D02*
Y152444D01*
X225836Y149176D02*
X229104D01*
X225836D02*
Y152444D01*
X229104Y152444D01*
D73*
X245789Y149441D02*
Y152039D01*
X243191Y149441D02*
X245789D01*
X243191D02*
X243191Y152039D01*
X245789D01*
X235509Y149481D02*
Y152079D01*
X232911Y149481D02*
X235509D01*
X232911D02*
Y152079D01*
X235509D01*
D75*
X248443Y174985D02*
X253837Y174985D01*
X248443Y174985D02*
Y180694D01*
X253837D01*
Y174985D02*
Y180694D01*
D148*
X213508Y162691D02*
G03*
X213508Y162691I-000197J0D01*
G01*
X248962Y172019D02*
G03*
X248962Y172019I-000197J0D01*
G01*
X239094Y171268D02*
G03*
X239094Y171268I-000197J0D01*
G01*
X224401Y170143D02*
G03*
X224401Y170143I-000197J0D01*
G01*
X208711Y169923D02*
G03*
X208711Y169923I-000197J0D01*
G01*
X212957Y162337D02*
X216303Y162337D01*
X212957Y164423D02*
X216303D01*
X212957Y162337D02*
Y164423D01*
X216303Y162337D02*
Y164423D01*
X251009Y171664D02*
Y173436D01*
X248411Y171664D02*
Y173436D01*
X251009D01*
X248411Y171664D02*
X251009D01*
X242598Y173866D02*
X242598Y170914D01*
X238542Y170914D02*
X242598Y170914D01*
X238542Y173866D02*
X242598Y173866D01*
X238542Y170914D02*
Y173866D01*
X220661Y170498D02*
X224559D01*
X220661Y168962D02*
X224559D01*
Y170498D01*
X220661Y168962D02*
Y170498D01*
X204971Y170278D02*
X208869D01*
X204971Y168742D02*
X208869D01*
Y170278D01*
X204971Y168742D02*
Y170278D01*
D149*
X236495Y170977D02*
X237805Y170977D01*
Y170563D02*
Y170977D01*
X236495Y170563D02*
X237805D01*
X236495D02*
Y170977D01*
X237524Y171114D02*
X237524Y170977D01*
X237524Y171114D02*
X2378D01*
Y170977D02*
Y171114D01*
X237406Y170426D02*
X237406Y170563D01*
X237209Y170426D02*
X237406D01*
X237209D02*
Y170563D01*
X237406Y170977D02*
Y171114D01*
X237209Y170977D02*
Y171114D01*
X237406D01*
X237524Y170426D02*
X2378Y170426D01*
X237524Y170426D02*
X237524Y170563D01*
X2378Y170426D02*
Y170563D01*
X237091Y170977D02*
Y171114D01*
X236894D02*
X236894Y170977D01*
X236894Y171114D02*
X237091D01*
X2365Y170426D02*
Y170563D01*
X236776Y170426D02*
Y170563D01*
X2365Y170426D02*
X236776Y170426D01*
Y170977D02*
Y171114D01*
X2365Y170977D02*
X2365Y171114D01*
X236776D01*
X236894Y170426D02*
Y170563D01*
X237091Y170426D02*
Y170563D01*
X236894Y170426D02*
X237091D01*
X2378Y171075D02*
X237809D01*
Y170465D02*
Y171075D01*
X2378Y170465D02*
X237809D01*
X236889D02*
X236894Y170465D01*
X236889Y170465D02*
X236889Y170558D01*
X236781D02*
X236889D01*
X236781Y170465D02*
X236781Y170558D01*
X236776Y170465D02*
X236781D01*
X237204Y170558D02*
X237204Y170465D01*
X237096Y170558D02*
X237204D01*
X237096Y170465D02*
X237096Y170558D01*
X237091Y170465D02*
X237096D01*
X237204D02*
X237209Y170465D01*
X236776Y171075D02*
X236781D01*
X236781Y170982D02*
X236889D01*
X236889Y171075D02*
X236889Y170982D01*
X236781Y171075D02*
X236781Y170982D01*
X236889Y171075D02*
X236894Y171075D01*
X236491Y170465D02*
X2365Y170465D01*
X236491Y170465D02*
Y171075D01*
X2365Y171075D01*
X237406D02*
X237411D01*
Y170982D02*
X237519D01*
Y171075D01*
X237524D01*
X237411Y170982D02*
Y171075D01*
X237096D02*
X237096Y170982D01*
X237204Y170982D01*
Y171075D02*
X237209Y171075D01*
X237204Y170982D02*
Y171075D01*
X237091D02*
X237096D01*
X237519Y170465D02*
X237524D01*
X237519Y170558D02*
X237519Y170465D01*
X237406D02*
X237411D01*
X237411Y170558D02*
X237411Y170465D01*
X237411Y170558D02*
X237519D01*
X246779Y149375D02*
X246804Y1494D01*
X247936D01*
X247961Y149375D01*
X246779D02*
X247961D01*
X246804Y1494D02*
Y14998D01*
X247936Y14998D01*
X247001Y1494D02*
Y14998D01*
X247936Y1494D02*
Y14998D01*
X246779Y149375D02*
Y150005D01*
X246804Y14998D01*
X247936Y14998D02*
X247961Y150005D01*
Y149375D02*
Y150005D01*
X246779Y150005D02*
X247961Y150005D01*
X24796Y149548D02*
X248D01*
X24796Y149454D02*
X248Y149454D01*
X24796Y149926D02*
X248Y149926D01*
Y149454D02*
Y149926D01*
X24796Y149832D02*
X248D01*
X24674D02*
X24678D01*
X24674Y149926D02*
X24678Y149926D01*
X24674Y149454D02*
X24678Y149454D01*
X24674Y149454D02*
Y149926D01*
X24674Y149548D02*
X24678D01*
X221675Y166653D02*
X222985Y166653D01*
X221675Y166653D02*
Y167067D01*
X222985Y167067D01*
Y166653D02*
Y167067D01*
X221956Y166653D02*
X221956Y166516D01*
X22168D02*
X221956D01*
X22168D02*
Y166653D01*
X222074Y167067D02*
Y167204D01*
X222271D01*
Y167067D02*
Y167204D01*
X222074Y166516D02*
Y166653D01*
X222271Y166516D02*
Y166653D01*
X222074Y166516D02*
X222271D01*
X22168Y167204D02*
X221956D01*
X221956Y167067D02*
X221956Y167204D01*
X22168Y167067D02*
Y167204D01*
X222389Y166516D02*
Y166653D01*
X222586Y166516D02*
X222586Y166653D01*
X222389Y166516D02*
X222586D01*
X22298Y167067D02*
Y167204D01*
X222704Y167067D02*
Y167204D01*
X22298D01*
X222704Y166516D02*
Y166653D01*
X22298Y166516D02*
Y166653D01*
X222704Y166516D02*
X22298D01*
X222586Y167067D02*
Y167204D01*
X222389Y167067D02*
Y167204D01*
X222586D01*
X221671Y166555D02*
X22168D01*
X221671D02*
Y167165D01*
X22168D01*
X222586D02*
X222591D01*
X222591Y167072D02*
X222591Y167165D01*
X222591Y167072D02*
X222699D01*
X222699Y167165D01*
X222704D01*
X222276D02*
X222276Y167072D01*
X222384D01*
X222384Y167165D01*
X222389D01*
X222271D02*
X222276D01*
X222699Y166555D02*
X222704D01*
X222591Y166648D02*
X222699D01*
X222591D02*
X222591Y166555D01*
X222699Y166648D02*
X222699Y166555D01*
X222586D02*
X222591D01*
X22298Y167165D02*
X222989D01*
Y166555D02*
Y167165D01*
X22298Y166555D02*
X222989D01*
X222069D02*
X222074D01*
X221961Y166648D02*
X222069D01*
X221961Y166555D02*
X221961Y166648D01*
X221956Y166555D02*
X221961Y166555D01*
X222069Y166555D02*
X222069Y166648D01*
X222384D02*
X222384Y166555D01*
X222276Y166648D02*
X222384D01*
X222271Y166555D02*
X222276D01*
X222276Y166648D01*
X222384Y166555D02*
X222389D01*
X221956Y167165D02*
X221961D01*
Y167072D02*
Y167165D01*
X222069D02*
X222074Y167165D01*
X222069Y167165D02*
X222069Y167072D01*
X221961D02*
X222069D01*
X206015Y166433D02*
X207325D01*
X206015D02*
Y166847D01*
X207325D01*
Y166433D02*
Y166847D01*
X206296Y166296D02*
Y166433D01*
X20602Y166296D02*
X206296D01*
X20602D02*
Y166433D01*
X206414Y166847D02*
Y166984D01*
X206611D01*
Y166847D02*
Y166984D01*
X206414Y166296D02*
Y166433D01*
X206611Y166296D02*
Y166433D01*
X206414Y166296D02*
X206611D01*
X20602Y166984D02*
X206296D01*
Y166847D02*
Y166984D01*
X20602Y166847D02*
Y166984D01*
X206729Y166296D02*
Y166433D01*
X206926Y166296D02*
Y166433D01*
X206729Y166296D02*
X206926D01*
X20732Y166847D02*
Y166984D01*
X207044Y166847D02*
Y166984D01*
X20732D01*
X207044Y166296D02*
Y166433D01*
X20732Y166296D02*
Y166433D01*
X207044Y166296D02*
X20732D01*
X206926Y166847D02*
Y166984D01*
X206729Y166847D02*
Y166984D01*
X206926D01*
X206011Y166335D02*
X20602D01*
X206011D02*
Y166945D01*
X20602D01*
X206926D02*
X206931D01*
X206931Y166852D02*
X206931Y166945D01*
X206931Y166852D02*
X207039D01*
X207039Y166945D01*
X207044D01*
X206616D02*
X206616Y166852D01*
X206724D01*
X206724Y166945D01*
X206729D01*
X206611D02*
X206616D01*
X207039Y166335D02*
X207044D01*
X206931Y166428D02*
X207039D01*
X206931D02*
X206931Y166335D01*
X207039Y166428D02*
X207039Y166335D01*
X206926D02*
X206931D01*
X20732Y166945D02*
X207329D01*
Y166335D02*
Y166945D01*
X20732Y166335D02*
X207329D01*
X206409D02*
X206414D01*
X206301Y166428D02*
X206409D01*
X206301Y166335D02*
X206301Y166428D01*
X206296Y166335D02*
X206301D01*
X206409D02*
X206409Y166428D01*
X206724D02*
X206724Y166335D01*
X206616Y166428D02*
X206724D01*
X206611Y166335D02*
X206616D01*
X206616Y166428D01*
X206724Y166335D02*
X206729D01*
X206296Y166945D02*
X206301D01*
X206301Y166852D01*
X206409Y166945D02*
X206414D01*
X206409D02*
X206409Y166852D01*
X206301D02*
X206409D01*
M02*
