G04 Layer_Color=2752767*
%FSTAX24Y24*%
%MOIN*%
G70*
G01*
G75*
%ADD75C,0.0050*%
%ADD77C,0.0040*%
%ADD168C,0.0067*%
D75*
X207513Y150947D02*
Y151347D01*
X207913D01*
Y150947D01*
X207513D01*
X207513Y148978D02*
Y149378D01*
X207913D01*
Y148978D01*
X207513D01*
X205545D02*
Y149378D01*
X205945D01*
Y148978D01*
X205545D01*
X205545Y150947D02*
Y151347D01*
X205945D01*
Y150947D01*
X205545D01*
X203576D02*
Y151347D01*
X203976D01*
Y150947D01*
X203576D01*
X203576Y148978D02*
Y149378D01*
X203976D01*
Y148978D01*
X203576D01*
X209482D02*
Y149378D01*
X209882D01*
Y148978D01*
X209482D01*
X209482Y150947D02*
Y151347D01*
X209882D01*
Y150947D01*
X209482D01*
X217356D02*
Y151347D01*
X217756D01*
Y150947D01*
X217356D01*
X217356Y148978D02*
Y149378D01*
X217756D01*
Y148978D01*
X217356D01*
X21145D02*
Y149378D01*
X21185D01*
Y148978D01*
X21145D01*
Y150947D02*
Y151347D01*
X21185D01*
Y150947D01*
X21145D01*
X213419Y150947D02*
Y151347D01*
X213819D01*
Y150947D01*
X213419D01*
Y148978D02*
Y149378D01*
X213819D01*
Y148978D01*
X213419D01*
X215387Y148978D02*
Y149378D01*
X215787D01*
Y148978D01*
X215387D01*
Y150947D02*
Y151347D01*
X215787D01*
Y150947D01*
X215387D01*
X242378Y181911D02*
X242178Y182311D01*
X242578D01*
X242378Y181911D01*
X239622D02*
X239422Y182311D01*
X239822D01*
X239622Y181911D01*
X240606D02*
X240406Y182311D01*
X240806D01*
X240606Y181911D01*
X241394D02*
X241194Y182311D01*
X241594D01*
X241394Y181911D01*
X240606Y182942D02*
X240406Y183342D01*
X240806D01*
X240606Y182942D01*
X241394D02*
X241194Y183342D01*
X241594D01*
X241394Y182942D01*
X239622D02*
X239422Y183342D01*
X239822D01*
X239622Y182942D01*
X242378D02*
X242178Y183342D01*
X242578D01*
X242378Y182942D01*
X243587Y181773D02*
X243687Y181873D01*
X243787D01*
X243687Y181973D01*
X243787Y182073D01*
X243687D01*
X243587Y182173D01*
X243487Y182073D01*
X243387D01*
X243487Y181973D01*
X243387Y181873D01*
X243487D01*
X243587Y181773D01*
X238413D02*
X238513Y181873D01*
X238613D01*
X238513Y181973D01*
X238613Y182073D01*
X238513D01*
X238413Y182173D01*
X238313Y182073D01*
X238213D01*
X238313Y181973D01*
X238213Y181873D01*
X238313D01*
X238413Y181773D01*
Y184009D02*
X238513Y184109D01*
X238613D01*
X238513Y184209D01*
X238613Y184309D01*
X238513D01*
X238413Y184409D01*
X238313Y184309D01*
X238213D01*
X238313Y184209D01*
X238213Y184109D01*
X238313D01*
X238413Y184009D01*
X243587D02*
X243687Y184109D01*
X243787D01*
X243687Y184209D01*
X243787Y184309D01*
X243687D01*
X243587Y184409D01*
X243487Y184309D01*
X243387D01*
X243487Y184209D01*
X243387Y184109D01*
X243487D01*
X243587Y184009D01*
X252187Y181844D02*
X252287Y181944D01*
X252387D01*
X252287Y182044D01*
X252387Y182144D01*
X252287D01*
X252187Y182244D01*
X252087Y182144D01*
X251987D01*
X252087Y182044D01*
X251987Y181944D01*
X252087D01*
X252187Y181844D01*
X247013D02*
X247113Y181944D01*
X247213D01*
X247113Y182044D01*
X247213Y182144D01*
X247113D01*
X247013Y182244D01*
X246913Y182144D01*
X246813D01*
X246913Y182044D01*
X246813Y181944D01*
X246913D01*
X247013Y181844D01*
Y18408D02*
X247113Y18418D01*
X247213D01*
X247113Y18428D01*
X247213Y18438D01*
X247113D01*
X247013Y18448D01*
X246913Y18438D01*
X246813D01*
X246913Y18428D01*
X246813Y18418D01*
X246913D01*
X247013Y18408D01*
X252187D02*
X252287Y18418D01*
X252387D01*
X252287Y18428D01*
X252387Y18438D01*
X252287D01*
X252187Y18448D01*
X252087Y18438D01*
X251987D01*
X252087Y18428D01*
X251987Y18418D01*
X252087D01*
X252187Y18408D01*
X250778Y183293D02*
X250878Y183493D01*
X250778Y183693D01*
X250978Y183593D01*
X251178Y183693D01*
X251078Y183493D01*
X251178Y183293D01*
X250978Y183393D01*
X250778Y183293D01*
X248022D02*
X248122Y183493D01*
X248022Y183693D01*
X248222Y183593D01*
X248422Y183693D01*
X248322Y183493D01*
X248422Y183293D01*
X248222Y183393D01*
X248022Y183293D01*
X249794D02*
X249894Y183493D01*
X249794Y183693D01*
X249994Y183593D01*
X250194Y183693D01*
X250094Y183493D01*
X250194Y183293D01*
X249994Y183393D01*
X249794Y183293D01*
X249006D02*
X249106Y183493D01*
X249006Y183693D01*
X249206Y183593D01*
X249406Y183693D01*
X249306Y183493D01*
X249406Y183293D01*
X249206Y183393D01*
X249006Y183293D01*
X247825Y182702D02*
X247925Y182902D01*
X247825Y183102D01*
X248025Y183002D01*
X248225Y183102D01*
X248125Y182902D01*
X248225Y182702D01*
X248025Y182802D01*
X247825Y182702D01*
X250975D02*
X251075Y182902D01*
X250975Y183102D01*
X251175Y183002D01*
X251375Y183102D01*
X251275Y182902D01*
X251375Y182702D01*
X251175Y182802D01*
X250975Y182702D01*
X248613D02*
X248713Y182902D01*
X248613Y183102D01*
X248813Y183002D01*
X249013Y183102D01*
X248913Y182902D01*
X249013Y182702D01*
X248813Y182802D01*
X248613Y182702D01*
X2494D02*
X2495Y182902D01*
X2494Y183102D01*
X2496Y183002D01*
X2498Y183102D01*
X2497Y182902D01*
X2498Y182702D01*
X2496Y182802D01*
X2494Y182702D01*
X250187D02*
X250287Y182902D01*
X250187Y183102D01*
X250387Y183002D01*
X250587Y183102D01*
X250487Y182902D01*
X250587Y182702D01*
X250387Y182802D01*
X250187Y182702D01*
X250778Y182033D02*
X250878Y182233D01*
X250778Y182433D01*
X250978Y182333D01*
X251178Y182433D01*
X251078Y182233D01*
X251178Y182033D01*
X250978Y182133D01*
X250778Y182033D01*
X248022D02*
X248122Y182233D01*
X248022Y182433D01*
X248222Y182333D01*
X248422Y182433D01*
X248322Y182233D01*
X248422Y182033D01*
X248222Y182133D01*
X248022Y182033D01*
X249794D02*
X249894Y182233D01*
X249794Y182433D01*
X249994Y182333D01*
X250194Y182433D01*
X250094Y182233D01*
X250194Y182033D01*
X249994Y182133D01*
X249794Y182033D01*
X249006D02*
X249106Y182233D01*
X249006Y182433D01*
X249206Y182333D01*
X249406Y182433D01*
X249306Y182233D01*
X249406Y182033D01*
X249206Y182133D01*
X249006Y182033D01*
X247825Y181442D02*
X247925Y181642D01*
X247825Y181842D01*
X248025Y181742D01*
X248225Y181842D01*
X248125Y181642D01*
X248225Y181442D01*
X248025Y181542D01*
X247825Y181442D01*
X250975D02*
X251075Y181642D01*
X250975Y181842D01*
X251175Y181742D01*
X251375Y181842D01*
X251275Y181642D01*
X251375Y181442D01*
X251175Y181542D01*
X250975Y181442D01*
X248613D02*
X248713Y181642D01*
X248613Y181842D01*
X248813Y181742D01*
X249013Y181842D01*
X248913Y181642D01*
X249013Y181442D01*
X248813Y181542D01*
X248613Y181442D01*
X2494Y181442D02*
X2495Y181642D01*
X2494Y181842D01*
X2496Y181742D01*
X2498Y181842D01*
X2497Y181642D01*
X2498Y181442D01*
X2496Y181542D01*
X2494Y181442D01*
X250187Y181442D02*
X250287Y181642D01*
X250187Y181842D01*
X250387Y181742D01*
X250587Y181842D01*
X250487Y181642D01*
X250587Y181442D01*
X250387Y181542D01*
X250187Y181442D01*
X23577Y1849D02*
Y1848D01*
X23597D01*
Y1849D01*
X23607D01*
Y1851D01*
X23597D01*
Y1852D01*
X23577D01*
Y1851D01*
X23567D01*
Y1849D01*
X23577D01*
X2329D02*
Y1848D01*
X2331D01*
Y1849D01*
X2332D01*
Y1851D01*
X2331D01*
Y1852D01*
X2329D01*
Y1851D01*
X2328D01*
Y1849D01*
X2329D01*
X23508Y18583D02*
X23518D01*
X23528Y18593D01*
X23538Y18583D01*
X23548D01*
Y18593D01*
X23538Y18603D01*
X23548Y18613D01*
Y18623D01*
X23538D01*
X23528Y18613D01*
X23518Y18623D01*
X23508D01*
Y18613D01*
X23518Y18603D01*
X23508Y18593D01*
Y18583D01*
X23335D02*
X23345D01*
X23355Y18593D01*
X23365Y18583D01*
X23375D01*
Y18593D01*
X23365Y18603D01*
X23375Y18613D01*
Y18623D01*
X23365D01*
X23355Y18613D01*
X23345Y18623D01*
X23335D01*
Y18613D01*
X23345Y18603D01*
X23335Y18593D01*
Y18583D01*
X201835Y184323D02*
Y184723D01*
X202235D01*
Y184323D01*
X201835D01*
X201835Y186292D02*
Y186692D01*
X202235D01*
Y186292D01*
X201835D01*
X203803D02*
Y186692D01*
X204203D01*
Y186292D01*
X203803D01*
Y184323D02*
Y184723D01*
X204203D01*
Y184323D01*
X203803D01*
X205772Y184323D02*
Y184723D01*
X206172D01*
Y184323D01*
X205772D01*
Y186292D02*
Y186692D01*
X206172D01*
Y186292D01*
X205772D01*
X199866Y186292D02*
Y186692D01*
X200266D01*
Y186292D01*
X199866D01*
X199866Y184323D02*
Y184723D01*
X200266D01*
Y184323D01*
X199866D01*
X217583Y184323D02*
Y184723D01*
X217983D01*
Y184323D01*
X217583D01*
Y186292D02*
Y186692D01*
X217983D01*
Y186292D01*
X217583D01*
X219551Y186292D02*
Y186692D01*
X219951D01*
Y186292D01*
X219551D01*
Y184323D02*
Y184723D01*
X219951D01*
Y184323D01*
X219551D01*
X22152Y184323D02*
Y184723D01*
X22192D01*
Y184323D01*
X22152D01*
Y186292D02*
Y186692D01*
X22192D01*
Y186292D01*
X22152D01*
X215614D02*
Y186692D01*
X216014D01*
Y186292D01*
X215614D01*
X215614Y184323D02*
Y184723D01*
X216014D01*
Y184323D01*
X215614D01*
X223488D02*
Y184723D01*
X223888D01*
Y184323D01*
X223488D01*
X223488Y186292D02*
Y186692D01*
X223888D01*
Y186292D01*
X223488D01*
X229394D02*
Y186692D01*
X229794D01*
Y186292D01*
X229394D01*
X229394Y184323D02*
Y184723D01*
X229794D01*
Y184323D01*
X229394D01*
X227425D02*
Y184723D01*
X227825D01*
Y184323D01*
X227425D01*
X227425Y186292D02*
Y186692D01*
X227825D01*
Y186292D01*
X227425D01*
X225457D02*
Y186692D01*
X225857D01*
Y186292D01*
X225457D01*
X225457Y184323D02*
Y184723D01*
X225857D01*
Y184323D01*
X225457D01*
X20774Y184323D02*
Y184723D01*
X20814D01*
Y184323D01*
X20774D01*
Y186292D02*
Y186692D01*
X20814D01*
Y186292D01*
X20774D01*
X213646D02*
Y186692D01*
X214046D01*
Y186292D01*
X213646D01*
X213646Y184323D02*
Y184723D01*
X214046D01*
Y184323D01*
X213646D01*
X211677D02*
Y184723D01*
X212077D01*
Y184323D01*
X211677D01*
X211677Y186292D02*
Y186692D01*
X212077D01*
Y186292D01*
X211677D01*
X209709D02*
Y186692D01*
X210109D01*
Y186292D01*
X209709D01*
X209709Y184323D02*
Y184723D01*
X210109D01*
Y184323D01*
X209709D01*
X198295Y148978D02*
Y149378D01*
X198695D01*
Y148978D01*
X198295D01*
X198295Y150947D02*
Y151347D01*
X198695D01*
Y150947D01*
X198295D01*
X196326D02*
Y151347D01*
X196726D01*
Y150947D01*
X196326D01*
X196326Y148978D02*
Y149378D01*
X196726D01*
Y148978D01*
X196326D01*
X2511Y15928D02*
X2513Y15948D01*
X2515Y15928D01*
X2513Y15908D01*
X2511Y15928D01*
Y16028D02*
X2513Y16048D01*
X2515Y16028D01*
X2513Y16008D01*
X2511Y16028D01*
Y16128D02*
X2513Y16148D01*
X2515Y16128D01*
X2513Y16108D01*
X2511Y16128D01*
Y16228D02*
X2513Y16248D01*
X2515Y16228D01*
X2513Y16208D01*
X2511Y16228D01*
Y16328D02*
X2513Y16348D01*
X2515Y16328D01*
X2513Y16308D01*
X2511Y16328D01*
Y16428D02*
X2513Y16448D01*
X2515Y16428D01*
X2513Y16408D01*
X2511Y16428D01*
Y16528D02*
X2513Y16548D01*
X2515Y16528D01*
X2513Y16508D01*
X2511Y16528D01*
Y16628D02*
X2513Y16648D01*
X2515Y16628D01*
X2513Y16608D01*
X2511Y16628D01*
Y16728D02*
X2513Y16748D01*
X2515Y16728D01*
X2513Y16708D01*
X2511Y16728D01*
Y16828D02*
X2513Y16848D01*
X2515Y16828D01*
X2513Y16808D01*
X2511Y16828D01*
X2501D02*
X2503Y16848D01*
X2505Y16828D01*
X2503Y16808D01*
X2501Y16828D01*
Y16728D02*
X2503Y16748D01*
X2505Y16728D01*
X2503Y16708D01*
X2501Y16728D01*
Y16628D02*
X2503Y16648D01*
X2505Y16628D01*
X2503Y16608D01*
X2501Y16628D01*
Y16528D02*
X2503Y16548D01*
X2505Y16528D01*
X2503Y16508D01*
X2501Y16528D01*
Y16428D02*
X2503Y16448D01*
X2505Y16428D01*
X2503Y16408D01*
X2501Y16428D01*
Y16328D02*
X2503Y16348D01*
X2505Y16328D01*
X2503Y16308D01*
X2501Y16328D01*
Y16228D02*
X2503Y16248D01*
X2505Y16228D01*
X2503Y16208D01*
X2501Y16228D01*
Y16128D02*
X2503Y16148D01*
X2505Y16128D01*
X2503Y16108D01*
X2501Y16128D01*
Y16028D02*
X2503Y16048D01*
X2505Y16028D01*
X2503Y16008D01*
X2501Y16028D01*
Y15928D02*
X2503Y15948D01*
X2505Y15928D01*
X2503Y15908D01*
X2501Y15928D01*
X254282Y185855D02*
Y186255D01*
X254682D01*
Y185855D01*
X254282D01*
X254362Y185935D02*
Y186175D01*
X254602D01*
Y185935D01*
X254362D01*
X254282Y149505D02*
Y149905D01*
X254682D01*
Y149505D01*
X254282D01*
X254362Y149585D02*
Y149825D01*
X254602D01*
Y149585D01*
X254362D01*
X192507Y149535D02*
Y149935D01*
X192907D01*
Y149535D01*
X192507D01*
X192587Y149615D02*
Y149855D01*
X192827D01*
Y149615D01*
X192587D01*
X195215Y186312D02*
Y186712D01*
X195615D01*
Y186312D01*
X195215D01*
X195215Y184343D02*
Y184743D01*
X195615D01*
Y184343D01*
X195215D01*
X197184D02*
Y184743D01*
X197584D01*
Y184343D01*
X197184D01*
X197184Y186312D02*
Y186712D01*
X197584D01*
Y186312D01*
X197184D01*
X223175Y148978D02*
Y149378D01*
X223575D01*
Y148978D01*
X223175D01*
Y150947D02*
Y151347D01*
X223575D01*
Y150947D01*
X223175D01*
X221206D02*
Y151347D01*
X221606D01*
Y150947D01*
X221206D01*
Y148978D02*
Y149378D01*
X221606D01*
Y148978D01*
X221206D01*
X22607Y171586D02*
Y171986D01*
X22647D01*
Y171586D01*
X22607D01*
X22615Y171666D02*
Y171906D01*
X22639D01*
Y171666D01*
X22615D01*
X22607Y157806D02*
Y158206D01*
X22647D01*
Y157806D01*
X22607D01*
X22615Y157886D02*
Y158126D01*
X22639D01*
Y157886D01*
X22615D01*
X197133Y157806D02*
Y158206D01*
X197533D01*
Y157806D01*
X197133D01*
X197213Y157886D02*
Y158126D01*
X197453D01*
Y157886D01*
X197213D01*
X197133Y171586D02*
Y171986D01*
X197533D01*
Y171586D01*
X197133D01*
X197213Y171666D02*
Y171906D01*
X197453D01*
Y171666D01*
X197213D01*
X25029Y15528D02*
X25009Y15568D01*
X25049D01*
X25029Y15528D01*
Y15536D02*
X25017Y1556D01*
X25041D01*
X25029Y15536D01*
Y15628D02*
X25009Y15668D01*
X25049D01*
X25029Y15628D01*
Y15636D02*
X25017Y1566D01*
X25041D01*
X25029Y15636D01*
X25129Y15528D02*
X25109Y15568D01*
X25149D01*
X25129Y15528D01*
Y15536D02*
X25117Y1556D01*
X25141D01*
X25129Y15536D01*
Y15628D02*
X25109Y15668D01*
X25149D01*
X25129Y15628D01*
Y15636D02*
X25117Y1566D01*
X25141D01*
X25129Y15636D01*
X192597Y185875D02*
Y186275D01*
X192997D01*
Y185875D01*
X192597D01*
X192677Y185955D02*
Y186195D01*
X192917D01*
Y185955D01*
X192677D01*
X23357Y16308D02*
X23367Y16318D01*
X23377D01*
X23367Y16328D01*
X23377Y16338D01*
X23367D01*
X23357Y16348D01*
X23347Y16338D01*
X23337D01*
X23347Y16328D01*
X23337Y16318D01*
X23347D01*
X23357Y16308D01*
Y16316D02*
X23363Y16322D01*
X23369D01*
X23363Y16328D01*
X23369Y16334D01*
X23363D01*
X23357Y1634D01*
X23351Y16334D01*
X23345D01*
X23351Y16328D01*
X23345Y16322D01*
X23351D01*
X23357Y16316D01*
X2329Y16397D02*
X233Y16407D01*
X2331D01*
X233Y16417D01*
X2331Y16427D01*
X233D01*
X2329Y16437D01*
X2328Y16427D01*
X2327D01*
X2328Y16417D01*
X2327Y16407D01*
X2328D01*
X2329Y16397D01*
Y16405D02*
X23296Y16411D01*
X23302D01*
X23296Y16417D01*
X23302Y16423D01*
X23296D01*
X2329Y16429D01*
X23284Y16423D01*
X23278D01*
X23284Y16417D01*
X23278Y16411D01*
X23284D01*
X2329Y16405D01*
X22051Y16578D02*
X22061Y16588D01*
X22071D01*
X22061Y16598D01*
X22071Y16608D01*
X22061D01*
X22051Y16618D01*
X22041Y16608D01*
X22031D01*
X22041Y16598D01*
X22031Y16588D01*
X22041D01*
X22051Y16578D01*
Y16586D02*
X22057Y16592D01*
X22063D01*
X22057Y16598D01*
X22063Y16604D01*
X22057D01*
X22051Y1661D01*
X22045Y16604D01*
X22039D01*
X22045Y16598D01*
X22039Y16592D01*
X22045D01*
X22051Y16586D01*
X22092Y16264D02*
X22102Y16274D01*
X22112D01*
X22102Y16284D01*
X22112Y16294D01*
X22102D01*
X22092Y16304D01*
X22082Y16294D01*
X22072D01*
X22082Y16284D01*
X22072Y16274D01*
X22082D01*
X22092Y16264D01*
Y16272D02*
X22098Y16278D01*
X22104D01*
X22098Y16284D01*
X22104Y1629D01*
X22098D01*
X22092Y16296D01*
X22086Y1629D01*
X2208D01*
X22086Y16284D01*
X2208Y16278D01*
X22086D01*
X22092Y16272D01*
X22055Y16263D02*
X22065Y16273D01*
X22075D01*
X22065Y16283D01*
X22075Y16293D01*
X22065D01*
X22055Y16303D01*
X22045Y16293D01*
X22035D01*
X22045Y16283D01*
X22035Y16273D01*
X22045D01*
X22055Y16263D01*
Y16271D02*
X22061Y16277D01*
X22067D01*
X22061Y16283D01*
X22067Y16289D01*
X22061D01*
X22055Y16295D01*
X22049Y16289D01*
X22043D01*
X22049Y16283D01*
X22043Y16277D01*
X22049D01*
X22055Y16271D01*
X22124Y16266D02*
X22134Y16276D01*
X22144D01*
X22134Y16286D01*
X22144Y16296D01*
X22134D01*
X22124Y16306D01*
X22114Y16296D01*
X22104D01*
X22114Y16286D01*
X22104Y16276D01*
X22114D01*
X22124Y16266D01*
Y16274D02*
X2213Y1628D01*
X22136D01*
X2213Y16286D01*
X22136Y16292D01*
X2213D01*
X22124Y16298D01*
X22118Y16292D01*
X22112D01*
X22118Y16286D01*
X22112Y1628D01*
X22118D01*
X22124Y16274D01*
X22051Y1664D02*
X22061Y1665D01*
X22071D01*
X22061Y1666D01*
X22071Y1667D01*
X22061D01*
X22051Y1668D01*
X22041Y1667D01*
X22031D01*
X22041Y1666D01*
X22031Y1665D01*
X22041D01*
X22051Y1664D01*
Y16648D02*
X22057Y16654D01*
X22063D01*
X22057Y1666D01*
X22063Y16666D01*
X22057D01*
X22051Y16672D01*
X22045Y16666D01*
X22039D01*
X22045Y1666D01*
X22039Y16654D01*
X22045D01*
X22051Y16648D01*
X21953Y167D02*
X21963Y1671D01*
X21973D01*
X21963Y1672D01*
X21973Y1673D01*
X21963D01*
X21953Y1674D01*
X21943Y1673D01*
X21933D01*
X21943Y1672D01*
X21933Y1671D01*
X21943D01*
X21953Y167D01*
Y16708D02*
X21959Y16714D01*
X21965D01*
X21959Y1672D01*
X21965Y16726D01*
X21959D01*
X21953Y16732D01*
X21947Y16726D01*
X21941D01*
X21947Y1672D01*
X21941Y16714D01*
X21947D01*
X21953Y16708D01*
X22979Y16382D02*
X22989Y16392D01*
X22999D01*
X22989Y16402D01*
X22999Y16412D01*
X22989D01*
X22979Y16422D01*
X22969Y16412D01*
X22959D01*
X22969Y16402D01*
X22959Y16392D01*
X22969D01*
X22979Y16382D01*
Y1639D02*
X22985Y16396D01*
X22991D01*
X22985Y16402D01*
X22991Y16408D01*
X22985D01*
X22979Y16414D01*
X22973Y16408D01*
X22967D01*
X22973Y16402D01*
X22967Y16396D01*
X22973D01*
X22979Y1639D01*
X22572Y16386D02*
X22582Y16396D01*
X22592D01*
X22582Y16406D01*
X22592Y16416D01*
X22582D01*
X22572Y16426D01*
X22562Y16416D01*
X22552D01*
X22562Y16406D01*
X22552Y16396D01*
X22562D01*
X22572Y16386D01*
Y16394D02*
X22578Y164D01*
X22584D01*
X22578Y16406D01*
X22584Y16412D01*
X22578D01*
X22572Y16418D01*
X22566Y16412D01*
X2256D01*
X22566Y16406D01*
X2256Y164D01*
X22566D01*
X22572Y16394D01*
X22536Y163893D02*
X22546Y163993D01*
X22556D01*
X22546Y164093D01*
X22556Y164193D01*
X22546D01*
X22536Y164293D01*
X22526Y164193D01*
X22516D01*
X22526Y164093D01*
X22516Y163993D01*
X22526D01*
X22536Y163893D01*
Y163973D02*
X22542Y164033D01*
X22548D01*
X22542Y164093D01*
X22548Y164153D01*
X22542D01*
X22536Y164213D01*
X2253Y164153D01*
X22524D01*
X2253Y164093D01*
X22524Y164033D01*
X2253D01*
X22536Y163973D01*
X23325Y14945D02*
X23335Y14955D01*
X23345D01*
X23335Y14965D01*
X23345Y14975D01*
X23335D01*
X23325Y14985D01*
X23315Y14975D01*
X23305D01*
X23315Y14965D01*
X23305Y14955D01*
X23315D01*
X23325Y14945D01*
Y14953D02*
X23331Y14959D01*
X23337D01*
X23331Y14965D01*
X23337Y14971D01*
X23331D01*
X23325Y14977D01*
X23319Y14971D01*
X23313D01*
X23319Y14965D01*
X23313Y14959D01*
X23319D01*
X23325Y14953D01*
X23377Y14946D02*
X23387Y14956D01*
X23397D01*
X23387Y14966D01*
X23397Y14976D01*
X23387D01*
X23377Y14986D01*
X23367Y14976D01*
X23357D01*
X23367Y14966D01*
X23357Y14956D01*
X23367D01*
X23377Y14946D01*
Y14954D02*
X23383Y1496D01*
X23389D01*
X23383Y14966D01*
X23389Y14972D01*
X23383D01*
X23377Y14978D01*
X23371Y14972D01*
X23365D01*
X23371Y14966D01*
X23365Y1496D01*
X23371D01*
X23377Y14954D01*
X22951Y15571D02*
X22961Y15581D01*
X22971D01*
X22961Y15591D01*
X22971Y15601D01*
X22961D01*
X22951Y15611D01*
X22941Y15601D01*
X22931D01*
X22941Y15591D01*
X22931Y15581D01*
X22941D01*
X22951Y15571D01*
Y15579D02*
X22957Y15585D01*
X22963D01*
X22957Y15591D01*
X22963Y15597D01*
X22957D01*
X22951Y15603D01*
X22945Y15597D01*
X22939D01*
X22945Y15591D01*
X22939Y15585D01*
X22945D01*
X22951Y15579D01*
Y15636D02*
X22961Y15646D01*
X22971D01*
X22961Y15656D01*
X22971Y15666D01*
X22961D01*
X22951Y15676D01*
X22941Y15666D01*
X22931D01*
X22941Y15656D01*
X22931Y15646D01*
X22941D01*
X22951Y15636D01*
Y15644D02*
X22957Y1565D01*
X22963D01*
X22957Y15656D01*
X22963Y15662D01*
X22957D01*
X22951Y15668D01*
X22945Y15662D01*
X22939D01*
X22945Y15656D01*
X22939Y1565D01*
X22945D01*
X22951Y15644D01*
X23353Y149478D02*
X23363Y149578D01*
X23373D01*
X23363Y149678D01*
X23373Y149778D01*
X23363D01*
X23353Y149878D01*
X23343Y149778D01*
X23333D01*
X23343Y149678D01*
X23333Y149578D01*
X23343D01*
X23353Y149478D01*
Y149558D02*
X23359Y149618D01*
X23365D01*
X23359Y149678D01*
X23365Y149738D01*
X23359D01*
X23353Y149798D01*
X23347Y149738D01*
X23341D01*
X23347Y149678D01*
X23341Y149618D01*
X23347D01*
X23353Y149558D01*
X2221Y16383D02*
X2222Y16393D01*
X2223D01*
X2222Y16403D01*
X2223Y16413D01*
X2222D01*
X2221Y16423D01*
X222Y16413D01*
X2219D01*
X222Y16403D01*
X2219Y16393D01*
X222D01*
X2221Y16383D01*
Y16391D02*
X22216Y16397D01*
X22222D01*
X22216Y16403D01*
X22222Y16409D01*
X22216D01*
X2221Y16415D01*
X22204Y16409D01*
X22198D01*
X22204Y16403D01*
X22198Y16397D01*
X22204D01*
X2221Y16391D01*
X23773Y16275D02*
X23783Y16285D01*
X23793D01*
X23783Y16295D01*
X23793Y16305D01*
X23783D01*
X23773Y16315D01*
X23763Y16305D01*
X23753D01*
X23763Y16295D01*
X23753Y16285D01*
X23763D01*
X23773Y16275D01*
Y16283D02*
X23779Y16289D01*
X23785D01*
X23779Y16295D01*
X23785Y16301D01*
X23779D01*
X23773Y16307D01*
X23767Y16301D01*
X23761D01*
X23767Y16295D01*
X23761Y16289D01*
X23767D01*
X23773Y16283D01*
Y1621D02*
X23783Y1622D01*
X23793D01*
X23783Y1623D01*
X23793Y1624D01*
X23783D01*
X23773Y1625D01*
X23763Y1624D01*
X23753D01*
X23763Y1623D01*
X23753Y1622D01*
X23763D01*
X23773Y1621D01*
Y16218D02*
X23779Y16224D01*
X23785D01*
X23779Y1623D01*
X23785Y16236D01*
X23779D01*
X23773Y16242D01*
X23767Y16236D01*
X23761D01*
X23767Y1623D01*
X23761Y16224D01*
X23767D01*
X23773Y16218D01*
X23262Y1621D02*
X23272Y1622D01*
X23282D01*
X23272Y1623D01*
X23282Y1624D01*
X23272D01*
X23262Y1625D01*
X23252Y1624D01*
X23242D01*
X23252Y1623D01*
X23242Y1622D01*
X23252D01*
X23262Y1621D01*
Y16218D02*
X23268Y16224D01*
X23274D01*
X23268Y1623D01*
X23274Y16236D01*
X23268D01*
X23262Y16242D01*
X23256Y16236D01*
X2325D01*
X23256Y1623D01*
X2325Y16224D01*
X23256D01*
X23262Y16218D01*
X23378Y16254D02*
X23388Y16264D01*
X23398D01*
X23388Y16274D01*
X23398Y16284D01*
X23388D01*
X23378Y16294D01*
X23368Y16284D01*
X23358D01*
X23368Y16274D01*
X23358Y16264D01*
X23368D01*
X23378Y16254D01*
Y16262D02*
X23384Y16268D01*
X2339D01*
X23384Y16274D01*
X2339Y1628D01*
X23384D01*
X23378Y16286D01*
X23372Y1628D01*
X23366D01*
X23372Y16274D01*
X23366Y16268D01*
X23372D01*
X23378Y16262D01*
X243Y16731D02*
X2431Y16741D01*
X2432D01*
X2431Y16751D01*
X2432Y16761D01*
X2431D01*
X243Y16771D01*
X2429Y16761D01*
X2428D01*
X2429Y16751D01*
X2428Y16741D01*
X2429D01*
X243Y16731D01*
Y16739D02*
X24306Y16745D01*
X24312D01*
X24306Y16751D01*
X24312Y16757D01*
X24306D01*
X243Y16763D01*
X24294Y16757D01*
X24288D01*
X24294Y16751D01*
X24288Y16745D01*
X24294D01*
X243Y16739D01*
X24301Y16788D02*
X24311Y16798D01*
X24321D01*
X24311Y16808D01*
X24321Y16818D01*
X24311D01*
X24301Y16828D01*
X24291Y16818D01*
X24281D01*
X24291Y16808D01*
X24281Y16798D01*
X24291D01*
X24301Y16788D01*
Y16796D02*
X24307Y16802D01*
X24313D01*
X24307Y16808D01*
X24313Y16814D01*
X24307D01*
X24301Y1682D01*
X24295Y16814D01*
X24289D01*
X24295Y16808D01*
X24289Y16802D01*
X24295D01*
X24301Y16796D01*
X243Y16833D02*
X2431Y16843D01*
X2432D01*
X2431Y16853D01*
X2432Y16863D01*
X2431D01*
X243Y16873D01*
X2429Y16863D01*
X2428D01*
X2429Y16853D01*
X2428Y16843D01*
X2429D01*
X243Y16833D01*
Y16841D02*
X24306Y16847D01*
X24312D01*
X24306Y16853D01*
X24312Y16859D01*
X24306D01*
X243Y16865D01*
X24294Y16859D01*
X24288D01*
X24294Y16853D01*
X24288Y16847D01*
X24294D01*
X243Y16841D01*
X24551Y1853D02*
X24561Y1854D01*
X24571D01*
X24561Y1855D01*
X24571Y1856D01*
X24561D01*
X24551Y1857D01*
X24541Y1856D01*
X24531D01*
X24541Y1855D01*
X24531Y1854D01*
X24541D01*
X24551Y1853D01*
Y18538D02*
X24557Y18544D01*
X24563D01*
X24557Y1855D01*
X24563Y18556D01*
X24557D01*
X24551Y18562D01*
X24545Y18556D01*
X24539D01*
X24545Y1855D01*
X24539Y18544D01*
X24545D01*
X24551Y18538D01*
X245Y18623D02*
X2451Y18633D01*
X2452D01*
X2451Y18643D01*
X2452Y18653D01*
X2451D01*
X245Y18663D01*
X2449Y18653D01*
X2448D01*
X2449Y18643D01*
X2448Y18633D01*
X2449D01*
X245Y18623D01*
Y18631D02*
X24506Y18637D01*
X24512D01*
X24506Y18643D01*
X24512Y18649D01*
X24506D01*
X245Y18655D01*
X24494Y18649D01*
X24488D01*
X24494Y18643D01*
X24488Y18637D01*
X24494D01*
X245Y18631D01*
X233055Y172875D02*
X233155Y173075D01*
X233055Y173275D01*
X233255Y173175D01*
X233455Y173275D01*
X233355Y173075D01*
X233455Y172875D01*
X233255Y172975D01*
X233055Y172875D01*
X233135Y172955D02*
X233195Y173075D01*
X233135Y173195D01*
X233255Y173135D01*
X233375Y173195D01*
X233315Y173075D01*
X233375Y172955D01*
X233255Y173015D01*
X233135Y172955D01*
X235282Y175102D02*
X235382Y175302D01*
X235282Y175502D01*
X235482Y175402D01*
X235682Y175502D01*
X235582Y175302D01*
X235682Y175102D01*
X235482Y175202D01*
X235282Y175102D01*
X235362Y175182D02*
X235422Y175302D01*
X235362Y175422D01*
X235482Y175362D01*
X235602Y175422D01*
X235542Y175302D01*
X235602Y175182D01*
X235482Y175242D01*
X235362Y175182D01*
X2234Y16161D02*
X2235Y16171D01*
X2236D01*
X2235Y16181D01*
X2236Y16191D01*
X2235D01*
X2234Y16201D01*
X2233Y16191D01*
X2232D01*
X2233Y16181D01*
X2232Y16171D01*
X2233D01*
X2234Y16161D01*
Y16169D02*
X22346Y16175D01*
X22352D01*
X22346Y16181D01*
X22352Y16187D01*
X22346D01*
X2234Y16193D01*
X22334Y16187D01*
X22328D01*
X22334Y16181D01*
X22328Y16175D01*
X22334D01*
X2234Y16169D01*
X20712Y16733D02*
X20722Y16743D01*
X20732D01*
X20722Y16753D01*
X20732Y16763D01*
X20722D01*
X20712Y16773D01*
X20702Y16763D01*
X20692D01*
X20702Y16753D01*
X20692Y16743D01*
X20702D01*
X20712Y16733D01*
Y16741D02*
X20718Y16747D01*
X20724D01*
X20718Y16753D01*
X20724Y16759D01*
X20718D01*
X20712Y16765D01*
X20706Y16759D01*
X207D01*
X20706Y16753D01*
X207Y16747D01*
X20706D01*
X20712Y16741D01*
X24647Y16531D02*
X24657Y16541D01*
X24667D01*
X24657Y16551D01*
X24667Y16561D01*
X24657D01*
X24647Y16571D01*
X24637Y16561D01*
X24627D01*
X24637Y16551D01*
X24627Y16541D01*
X24637D01*
X24647Y16531D01*
Y16539D02*
X24653Y16545D01*
X24659D01*
X24653Y16551D01*
X24659Y16557D01*
X24653D01*
X24647Y16563D01*
X24641Y16557D01*
X24635D01*
X24641Y16551D01*
X24635Y16545D01*
X24641D01*
X24647Y16539D01*
Y16629D02*
X24657Y16639D01*
X24667D01*
X24657Y16649D01*
X24667Y16659D01*
X24657D01*
X24647Y16669D01*
X24637Y16659D01*
X24627D01*
X24637Y16649D01*
X24627Y16639D01*
X24637D01*
X24647Y16629D01*
Y16637D02*
X24653Y16643D01*
X24659D01*
X24653Y16649D01*
X24659Y16655D01*
X24653D01*
X24647Y16661D01*
X24641Y16655D01*
X24635D01*
X24641Y16649D01*
X24635Y16643D01*
X24641D01*
X24647Y16637D01*
X24227Y15827D02*
X24237Y15837D01*
X24247D01*
X24237Y15847D01*
X24247Y15857D01*
X24237D01*
X24227Y15867D01*
X24217Y15857D01*
X24207D01*
X24217Y15847D01*
X24207Y15837D01*
X24217D01*
X24227Y15827D01*
Y15835D02*
X24233Y15841D01*
X24239D01*
X24233Y15847D01*
X24239Y15853D01*
X24233D01*
X24227Y15859D01*
X24221Y15853D01*
X24215D01*
X24221Y15847D01*
X24215Y15841D01*
X24221D01*
X24227Y15835D01*
X2423Y16406D02*
X2424Y16416D01*
X2425D01*
X2424Y16426D01*
X2425Y16436D01*
X2424D01*
X2423Y16446D01*
X2422Y16436D01*
X2421D01*
X2422Y16426D01*
X2421Y16416D01*
X2422D01*
X2423Y16406D01*
Y16414D02*
X24236Y1642D01*
X24242D01*
X24236Y16426D01*
X24242Y16432D01*
X24236D01*
X2423Y16438D01*
X24224Y16432D01*
X24218D01*
X24224Y16426D01*
X24218Y1642D01*
X24224D01*
X2423Y16414D01*
X24287Y16357D02*
X24297Y16367D01*
X24307D01*
X24297Y16377D01*
X24307Y16387D01*
X24297D01*
X24287Y16397D01*
X24277Y16387D01*
X24267D01*
X24277Y16377D01*
X24267Y16367D01*
X24277D01*
X24287Y16357D01*
Y16365D02*
X24293Y16371D01*
X24299D01*
X24293Y16377D01*
X24299Y16383D01*
X24293D01*
X24287Y16389D01*
X24281Y16383D01*
X24275D01*
X24281Y16377D01*
X24275Y16371D01*
X24281D01*
X24287Y16365D01*
X24282Y15895D02*
X24292Y15905D01*
X24302D01*
X24292Y15915D01*
X24302Y15925D01*
X24292D01*
X24282Y15935D01*
X24272Y15925D01*
X24262D01*
X24272Y15915D01*
X24262Y15905D01*
X24272D01*
X24282Y15895D01*
Y15903D02*
X24288Y15909D01*
X24294D01*
X24288Y15915D01*
X24294Y15921D01*
X24288D01*
X24282Y15927D01*
X24276Y15921D01*
X2427D01*
X24276Y15915D01*
X2427Y15909D01*
X24276D01*
X24282Y15903D01*
X24343Y16458D02*
X24353Y16468D01*
X24363D01*
X24353Y16478D01*
X24363Y16488D01*
X24353D01*
X24343Y16498D01*
X24333Y16488D01*
X24323D01*
X24333Y16478D01*
X24323Y16468D01*
X24333D01*
X24343Y16458D01*
Y16466D02*
X24349Y16472D01*
X24355D01*
X24349Y16478D01*
X24355Y16484D01*
X24349D01*
X24343Y1649D01*
X24337Y16484D01*
X24331D01*
X24337Y16478D01*
X24331Y16472D01*
X24337D01*
X24343Y16466D01*
X244Y16306D02*
X2441Y16316D01*
X2442D01*
X2441Y16326D01*
X2442Y16336D01*
X2441D01*
X244Y16346D01*
X2439Y16336D01*
X2438D01*
X2439Y16326D01*
X2438Y16316D01*
X2439D01*
X244Y16306D01*
Y16314D02*
X24406Y1632D01*
X24412D01*
X24406Y16326D01*
X24412Y16332D01*
X24406D01*
X244Y16338D01*
X24394Y16332D01*
X24388D01*
X24394Y16326D01*
X24388Y1632D01*
X24394D01*
X244Y16314D01*
X24448Y17505D02*
X24458Y17515D01*
X24468D01*
X24458Y17525D01*
X24468Y17535D01*
X24458D01*
X24448Y17545D01*
X24438Y17535D01*
X24428D01*
X24438Y17525D01*
X24428Y17515D01*
X24438D01*
X24448Y17505D01*
Y17513D02*
X24454Y17519D01*
X2446D01*
X24454Y17525D01*
X2446Y17531D01*
X24454D01*
X24448Y17537D01*
X24442Y17531D01*
X24436D01*
X24442Y17525D01*
X24436Y17519D01*
X24442D01*
X24448Y17513D01*
X24499Y17505D02*
X24509Y17515D01*
X24519D01*
X24509Y17525D01*
X24519Y17535D01*
X24509D01*
X24499Y17545D01*
X24489Y17535D01*
X24479D01*
X24489Y17525D01*
X24479Y17515D01*
X24489D01*
X24499Y17505D01*
Y17513D02*
X24505Y17519D01*
X24511D01*
X24505Y17525D01*
X24511Y17531D01*
X24505D01*
X24499Y17537D01*
X24493Y17531D01*
X24487D01*
X24493Y17525D01*
X24487Y17519D01*
X24493D01*
X24499Y17513D01*
X24549Y17506D02*
X24559Y17516D01*
X24569D01*
X24559Y17526D01*
X24569Y17536D01*
X24559D01*
X24549Y17546D01*
X24539Y17536D01*
X24529D01*
X24539Y17526D01*
X24529Y17516D01*
X24539D01*
X24549Y17506D01*
Y17514D02*
X24555Y1752D01*
X24561D01*
X24555Y17526D01*
X24561Y17532D01*
X24555D01*
X24549Y17538D01*
X24543Y17532D01*
X24537D01*
X24543Y17526D01*
X24537Y1752D01*
X24543D01*
X24549Y17514D01*
X24599Y17508D02*
X24609Y17518D01*
X24619D01*
X24609Y17528D01*
X24619Y17538D01*
X24609D01*
X24599Y17548D01*
X24589Y17538D01*
X24579D01*
X24589Y17528D01*
X24579Y17518D01*
X24589D01*
X24599Y17508D01*
Y17516D02*
X24605Y17522D01*
X24611D01*
X24605Y17528D01*
X24611Y17534D01*
X24605D01*
X24599Y1754D01*
X24593Y17534D01*
X24587D01*
X24593Y17528D01*
X24587Y17522D01*
X24593D01*
X24599Y17516D01*
X24699Y17442D02*
X24709Y17452D01*
X24719D01*
X24709Y17462D01*
X24719Y17472D01*
X24709D01*
X24699Y17482D01*
X24689Y17472D01*
X24679D01*
X24689Y17462D01*
X24679Y17452D01*
X24689D01*
X24699Y17442D01*
Y1745D02*
X24705Y17456D01*
X24711D01*
X24705Y17462D01*
X24711Y17468D01*
X24705D01*
X24699Y17474D01*
X24693Y17468D01*
X24687D01*
X24693Y17462D01*
X24687Y17456D01*
X24693D01*
X24699Y1745D01*
X24801Y17507D02*
X24811Y17517D01*
X24821D01*
X24811Y17527D01*
X24821Y17537D01*
X24811D01*
X24801Y17547D01*
X24791Y17537D01*
X24781D01*
X24791Y17527D01*
X24781Y17517D01*
X24791D01*
X24801Y17507D01*
Y17515D02*
X24807Y17521D01*
X24813D01*
X24807Y17527D01*
X24813Y17533D01*
X24807D01*
X24801Y17539D01*
X24795Y17533D01*
X24789D01*
X24795Y17527D01*
X24789Y17521D01*
X24795D01*
X24801Y17515D01*
X25048Y18229D02*
X25058Y18239D01*
X25068D01*
X25058Y18249D01*
X25068Y18259D01*
X25058D01*
X25048Y18269D01*
X25038Y18259D01*
X25028D01*
X25038Y18249D01*
X25028Y18239D01*
X25038D01*
X25048Y18229D01*
Y18237D02*
X25054Y18243D01*
X2506D01*
X25054Y18249D01*
X2506Y18255D01*
X25054D01*
X25048Y18261D01*
X25042Y18255D01*
X25036D01*
X25042Y18249D01*
X25036Y18243D01*
X25042D01*
X25048Y18237D01*
X24873Y1823D02*
X24883Y1824D01*
X24893D01*
X24883Y1825D01*
X24893Y1826D01*
X24883D01*
X24873Y1827D01*
X24863Y1826D01*
X24853D01*
X24863Y1825D01*
X24853Y1824D01*
X24863D01*
X24873Y1823D01*
Y18238D02*
X24879Y18244D01*
X24885D01*
X24879Y1825D01*
X24885Y18256D01*
X24879D01*
X24873Y18262D01*
X24867Y18256D01*
X24861D01*
X24867Y1825D01*
X24861Y18244D01*
X24867D01*
X24873Y18238D01*
X24753Y18082D02*
X24763Y18092D01*
X24773D01*
X24763Y18102D01*
X24773Y18112D01*
X24763D01*
X24753Y18122D01*
X24743Y18112D01*
X24733D01*
X24743Y18102D01*
X24733Y18092D01*
X24743D01*
X24753Y18082D01*
Y1809D02*
X24759Y18096D01*
X24765D01*
X24759Y18102D01*
X24765Y18108D01*
X24759D01*
X24753Y18114D01*
X24747Y18108D01*
X24741D01*
X24747Y18102D01*
X24741Y18096D01*
X24747D01*
X24753Y1809D01*
X24647Y17506D02*
X24657Y17516D01*
X24667D01*
X24657Y17526D01*
X24667Y17536D01*
X24657D01*
X24647Y17546D01*
X24637Y17536D01*
X24627D01*
X24637Y17526D01*
X24627Y17516D01*
X24637D01*
X24647Y17506D01*
Y17514D02*
X24653Y1752D01*
X24659D01*
X24653Y17526D01*
X24659Y17532D01*
X24653D01*
X24647Y17538D01*
X24641Y17532D01*
X24635D01*
X24641Y17526D01*
X24635Y1752D01*
X24641D01*
X24647Y17514D01*
X24399Y17596D02*
X24409Y17606D01*
X24419D01*
X24409Y17616D01*
X24419Y17626D01*
X24409D01*
X24399Y17636D01*
X24389Y17626D01*
X24379D01*
X24389Y17616D01*
X24379Y17606D01*
X24389D01*
X24399Y17596D01*
Y17604D02*
X24405Y1761D01*
X24411D01*
X24405Y17616D01*
X24411Y17622D01*
X24405D01*
X24399Y17628D01*
X24393Y17622D01*
X24387D01*
X24393Y17616D01*
X24387Y1761D01*
X24393D01*
X24399Y17604D01*
X24191Y18133D02*
X24201Y18143D01*
X24211D01*
X24201Y18153D01*
X24211Y18163D01*
X24201D01*
X24191Y18173D01*
X24181Y18163D01*
X24171D01*
X24181Y18153D01*
X24171Y18143D01*
X24181D01*
X24191Y18133D01*
Y18141D02*
X24197Y18147D01*
X24203D01*
X24197Y18153D01*
X24203Y18159D01*
X24197D01*
X24191Y18165D01*
X24185Y18159D01*
X24179D01*
X24185Y18153D01*
X24179Y18147D01*
X24185D01*
X24191Y18141D01*
X24011Y18133D02*
X24021Y18143D01*
X24031D01*
X24021Y18153D01*
X24031Y18163D01*
X24021D01*
X24011Y18173D01*
X24001Y18163D01*
X23991D01*
X24001Y18153D01*
X23991Y18143D01*
X24001D01*
X24011Y18133D01*
Y18141D02*
X24017Y18147D01*
X24023D01*
X24017Y18153D01*
X24023Y18159D01*
X24017D01*
X24011Y18165D01*
X24005Y18159D01*
X23999D01*
X24005Y18153D01*
X23999Y18147D01*
X24005D01*
X24011Y18141D01*
X2414Y18132D02*
X2415Y18142D01*
X2416D01*
X2415Y18152D01*
X2416Y18162D01*
X2415D01*
X2414Y18172D01*
X2413Y18162D01*
X2412D01*
X2413Y18152D01*
X2412Y18142D01*
X2413D01*
X2414Y18132D01*
Y1814D02*
X24146Y18146D01*
X24152D01*
X24146Y18152D01*
X24152Y18158D01*
X24146D01*
X2414Y18164D01*
X24134Y18158D01*
X24128D01*
X24134Y18152D01*
X24128Y18146D01*
X24134D01*
X2414Y1814D01*
X2482Y15929D02*
X2483Y15939D01*
X2484D01*
X2483Y15949D01*
X2484Y15959D01*
X2483D01*
X2482Y15969D01*
X2481Y15959D01*
X248D01*
X2481Y15949D01*
X248Y15939D01*
X2481D01*
X2482Y15929D01*
Y15937D02*
X24826Y15943D01*
X24832D01*
X24826Y15949D01*
X24832Y15955D01*
X24826D01*
X2482Y15961D01*
X24814Y15955D01*
X24808D01*
X24814Y15949D01*
X24808Y15943D01*
X24814D01*
X2482Y15937D01*
Y15831D02*
X2483Y15841D01*
X2484D01*
X2483Y15851D01*
X2484Y15861D01*
X2483D01*
X2482Y15871D01*
X2481Y15861D01*
X248D01*
X2481Y15851D01*
X248Y15841D01*
X2481D01*
X2482Y15831D01*
Y15839D02*
X24826Y15845D01*
X24832D01*
X24826Y15851D01*
X24832Y15857D01*
X24826D01*
X2482Y15863D01*
X24814Y15857D01*
X24808D01*
X24814Y15851D01*
X24808Y15845D01*
X24814D01*
X2482Y15839D01*
X24702Y16728D02*
X24712Y16738D01*
X24722D01*
X24712Y16748D01*
X24722Y16758D01*
X24712D01*
X24702Y16768D01*
X24692Y16758D01*
X24682D01*
X24692Y16748D01*
X24682Y16738D01*
X24692D01*
X24702Y16728D01*
Y16736D02*
X24708Y16742D01*
X24714D01*
X24708Y16748D01*
X24714Y16754D01*
X24708D01*
X24702Y1676D01*
X24696Y16754D01*
X2469D01*
X24696Y16748D01*
X2469Y16742D01*
X24696D01*
X24702Y16736D01*
X23522Y16355D02*
X23532Y16365D01*
X23542D01*
X23532Y16375D01*
X23542Y16385D01*
X23532D01*
X23522Y16395D01*
X23512Y16385D01*
X23502D01*
X23512Y16375D01*
X23502Y16365D01*
X23512D01*
X23522Y16355D01*
Y16363D02*
X23528Y16369D01*
X23534D01*
X23528Y16375D01*
X23534Y16381D01*
X23528D01*
X23522Y16387D01*
X23516Y16381D01*
X2351D01*
X23516Y16375D01*
X2351Y16369D01*
X23516D01*
X23522Y16363D01*
X24185Y16206D02*
X24195Y16216D01*
X24205D01*
X24195Y16226D01*
X24205Y16236D01*
X24195D01*
X24185Y16246D01*
X24175Y16236D01*
X24165D01*
X24175Y16226D01*
X24165Y16216D01*
X24175D01*
X24185Y16206D01*
Y16214D02*
X24191Y1622D01*
X24197D01*
X24191Y16226D01*
X24197Y16232D01*
X24191D01*
X24185Y16238D01*
X24179Y16232D01*
X24173D01*
X24179Y16226D01*
X24173Y1622D01*
X24179D01*
X24185Y16214D01*
X24346Y15956D02*
X24356Y15966D01*
X24366D01*
X24356Y15976D01*
X24366Y15986D01*
X24356D01*
X24346Y15996D01*
X24336Y15986D01*
X24326D01*
X24336Y15976D01*
X24326Y15966D01*
X24336D01*
X24346Y15956D01*
Y15964D02*
X24352Y1597D01*
X24358D01*
X24352Y15976D01*
X24358Y15982D01*
X24352D01*
X24346Y15988D01*
X2434Y15982D01*
X24334D01*
X2434Y15976D01*
X24334Y1597D01*
X2434D01*
X24346Y15964D01*
X23982Y17496D02*
X23992Y17506D01*
X24002D01*
X23992Y17516D01*
X24002Y17526D01*
X23992D01*
X23982Y17536D01*
X23972Y17526D01*
X23962D01*
X23972Y17516D01*
X23962Y17506D01*
X23972D01*
X23982Y17496D01*
Y17504D02*
X23988Y1751D01*
X23994D01*
X23988Y17516D01*
X23994Y17522D01*
X23988D01*
X23982Y17528D01*
X23976Y17522D01*
X2397D01*
X23976Y17516D01*
X2397Y1751D01*
X23976D01*
X23982Y17504D01*
X2381Y17499D02*
X2382Y17509D01*
X2383D01*
X2382Y17519D01*
X2383Y17529D01*
X2382D01*
X2381Y17539D01*
X238Y17529D01*
X2379D01*
X238Y17519D01*
X2379Y17509D01*
X238D01*
X2381Y17499D01*
Y17507D02*
X23816Y17513D01*
X23822D01*
X23816Y17519D01*
X23822Y17525D01*
X23816D01*
X2381Y17531D01*
X23804Y17525D01*
X23798D01*
X23804Y17519D01*
X23798Y17513D01*
X23804D01*
X2381Y17507D01*
X23565Y15967D02*
X23575Y15977D01*
X23585D01*
X23575Y15987D01*
X23585Y15997D01*
X23575D01*
X23565Y16007D01*
X23555Y15997D01*
X23545D01*
X23555Y15987D01*
X23545Y15977D01*
X23555D01*
X23565Y15967D01*
Y15975D02*
X23571Y15981D01*
X23577D01*
X23571Y15987D01*
X23577Y15993D01*
X23571D01*
X23565Y15999D01*
X23559Y15993D01*
X23553D01*
X23559Y15987D01*
X23553Y15981D01*
X23559D01*
X23565Y15975D01*
X23356Y16206D02*
X23366Y16216D01*
X23376D01*
X23366Y16226D01*
X23376Y16236D01*
X23366D01*
X23356Y16246D01*
X23346Y16236D01*
X23336D01*
X23346Y16226D01*
X23336Y16216D01*
X23346D01*
X23356Y16206D01*
Y16214D02*
X23362Y1622D01*
X23368D01*
X23362Y16226D01*
X23368Y16232D01*
X23362D01*
X23356Y16238D01*
X2335Y16232D01*
X23344D01*
X2335Y16226D01*
X23344Y1622D01*
X2335D01*
X23356Y16214D01*
X24948Y16762D02*
X24958Y16772D01*
X24968D01*
X24958Y16782D01*
X24968Y16792D01*
X24958D01*
X24948Y16802D01*
X24938Y16792D01*
X24928D01*
X24938Y16782D01*
X24928Y16772D01*
X24938D01*
X24948Y16762D01*
Y1677D02*
X24954Y16776D01*
X2496D01*
X24954Y16782D01*
X2496Y16788D01*
X24954D01*
X24948Y16794D01*
X24942Y16788D01*
X24936D01*
X24942Y16782D01*
X24936Y16776D01*
X24942D01*
X24948Y1677D01*
X24764Y16656D02*
X24774Y16666D01*
X24784D01*
X24774Y16676D01*
X24784Y16686D01*
X24774D01*
X24764Y16696D01*
X24754Y16686D01*
X24744D01*
X24754Y16676D01*
X24744Y16666D01*
X24754D01*
X24764Y16656D01*
Y16664D02*
X2477Y1667D01*
X24776D01*
X2477Y16676D01*
X24776Y16682D01*
X2477D01*
X24764Y16688D01*
X24758Y16682D01*
X24752D01*
X24758Y16676D01*
X24752Y1667D01*
X24758D01*
X24764Y16664D01*
X24888Y16553D02*
X24898Y16563D01*
X24908D01*
X24898Y16573D01*
X24908Y16583D01*
X24898D01*
X24888Y16593D01*
X24878Y16583D01*
X24868D01*
X24878Y16573D01*
X24868Y16563D01*
X24878D01*
X24888Y16553D01*
Y16561D02*
X24894Y16567D01*
X249D01*
X24894Y16573D01*
X249Y16579D01*
X24894D01*
X24888Y16585D01*
X24882Y16579D01*
X24876D01*
X24882Y16573D01*
X24876Y16567D01*
X24882D01*
X24888Y16561D01*
X24697Y16471D02*
X24707Y16481D01*
X24717D01*
X24707Y16491D01*
X24717Y16501D01*
X24707D01*
X24697Y16511D01*
X24687Y16501D01*
X24677D01*
X24687Y16491D01*
X24677Y16481D01*
X24687D01*
X24697Y16471D01*
Y16479D02*
X24703Y16485D01*
X24709D01*
X24703Y16491D01*
X24709Y16497D01*
X24703D01*
X24697Y16503D01*
X24691Y16497D01*
X24685D01*
X24691Y16491D01*
X24685Y16485D01*
X24691D01*
X24697Y16479D01*
X24764Y16407D02*
X24774Y16417D01*
X24784D01*
X24774Y16427D01*
X24784Y16437D01*
X24774D01*
X24764Y16447D01*
X24754Y16437D01*
X24744D01*
X24754Y16427D01*
X24744Y16417D01*
X24754D01*
X24764Y16407D01*
Y16415D02*
X2477Y16421D01*
X24776D01*
X2477Y16427D01*
X24776Y16433D01*
X2477D01*
X24764Y16439D01*
X24758Y16433D01*
X24752D01*
X24758Y16427D01*
X24752Y16421D01*
X24758D01*
X24764Y16415D01*
X24699Y16307D02*
X24709Y16317D01*
X24719D01*
X24709Y16327D01*
X24719Y16337D01*
X24709D01*
X24699Y16347D01*
X24689Y16337D01*
X24679D01*
X24689Y16327D01*
X24679Y16317D01*
X24689D01*
X24699Y16307D01*
Y16315D02*
X24705Y16321D01*
X24711D01*
X24705Y16327D01*
X24711Y16333D01*
X24705D01*
X24699Y16339D01*
X24693Y16333D01*
X24687D01*
X24693Y16327D01*
X24687Y16321D01*
X24693D01*
X24699Y16315D01*
X23879Y1717D02*
X23889Y1718D01*
X23899D01*
X23889Y1719D01*
X23899Y172D01*
X23889D01*
X23879Y1721D01*
X23869Y172D01*
X23859D01*
X23869Y1719D01*
X23859Y1718D01*
X23869D01*
X23879Y1717D01*
Y17178D02*
X23885Y17184D01*
X23891D01*
X23885Y1719D01*
X23891Y17196D01*
X23885D01*
X23879Y17202D01*
X23873Y17196D01*
X23867D01*
X23873Y1719D01*
X23867Y17184D01*
X23873D01*
X23879Y17178D01*
X20517Y16839D02*
X20527Y16849D01*
X20537D01*
X20527Y16859D01*
X20537Y16869D01*
X20527D01*
X20517Y16879D01*
X20507Y16869D01*
X20497D01*
X20507Y16859D01*
X20497Y16849D01*
X20507D01*
X20517Y16839D01*
Y16847D02*
X20523Y16853D01*
X20529D01*
X20523Y16859D01*
X20529Y16865D01*
X20523D01*
X20517Y16871D01*
X20511Y16865D01*
X20505D01*
X20511Y16859D01*
X20505Y16853D01*
X20511D01*
X20517Y16847D01*
X20618Y16782D02*
X20628Y16792D01*
X20638D01*
X20628Y16802D01*
X20638Y16812D01*
X20628D01*
X20618Y16822D01*
X20608Y16812D01*
X20598D01*
X20608Y16802D01*
X20598Y16792D01*
X20608D01*
X20618Y16782D01*
Y1679D02*
X20624Y16796D01*
X2063D01*
X20624Y16802D01*
X2063Y16808D01*
X20624D01*
X20618Y16814D01*
X20612Y16808D01*
X20606D01*
X20612Y16802D01*
X20606Y16796D01*
X20612D01*
X20618Y1679D01*
X214246Y165304D02*
X214346Y165404D01*
X214446D01*
X214346Y165504D01*
X214446Y165604D01*
X214346D01*
X214246Y165704D01*
X214146Y165604D01*
X214046D01*
X214146Y165504D01*
X214046Y165404D01*
X214146D01*
X214246Y165304D01*
Y165384D02*
X214306Y165444D01*
X214366D01*
X214306Y165504D01*
X214366Y165564D01*
X214306D01*
X214246Y165624D01*
X214186Y165564D01*
X214126D01*
X214186Y165504D01*
X214126Y165444D01*
X214186D01*
X214246Y165384D01*
X21399Y1658D02*
X21409Y1659D01*
X21419D01*
X21409Y166D01*
X21419Y1661D01*
X21409D01*
X21399Y1662D01*
X21389Y1661D01*
X21379D01*
X21389Y166D01*
X21379Y1659D01*
X21389D01*
X21399Y1658D01*
Y16588D02*
X21405Y16594D01*
X21411D01*
X21405Y166D01*
X21411Y16606D01*
X21405D01*
X21399Y16612D01*
X21393Y16606D01*
X21387D01*
X21393Y166D01*
X21387Y16594D01*
X21393D01*
X21399Y16588D01*
X22189Y1676D02*
X22199Y1677D01*
X22209D01*
X22199Y1678D01*
X22209Y1679D01*
X22199D01*
X22189Y168D01*
X22179Y1679D01*
X22169D01*
X22179Y1678D01*
X22169Y1677D01*
X22179D01*
X22189Y1676D01*
Y16768D02*
X22195Y16774D01*
X22201D01*
X22195Y1678D01*
X22201Y16786D01*
X22195D01*
X22189Y16792D01*
X22183Y16786D01*
X22177D01*
X22183Y1678D01*
X22177Y16774D01*
X22183D01*
X22189Y16768D01*
X213734Y166266D02*
X213834Y166366D01*
X213934D01*
X213834Y166466D01*
X213934Y166566D01*
X213834D01*
X213734Y166666D01*
X213634Y166566D01*
X213534D01*
X213634Y166466D01*
X213534Y166366D01*
X213634D01*
X213734Y166266D01*
Y166346D02*
X213794Y166406D01*
X213854D01*
X213794Y166466D01*
X213854Y166526D01*
X213794D01*
X213734Y166586D01*
X213674Y166526D01*
X213614D01*
X213674Y166466D01*
X213614Y166406D01*
X213674D01*
X213734Y166346D01*
X22288Y16809D02*
X22298Y16819D01*
X22308D01*
X22298Y16829D01*
X22308Y16839D01*
X22298D01*
X22288Y16849D01*
X22278Y16839D01*
X22268D01*
X22278Y16829D01*
X22268Y16819D01*
X22278D01*
X22288Y16809D01*
Y16817D02*
X22294Y16823D01*
X223D01*
X22294Y16829D01*
X223Y16835D01*
X22294D01*
X22288Y16841D01*
X22282Y16835D01*
X22276D01*
X22282Y16829D01*
X22276Y16823D01*
X22282D01*
X22288Y16817D01*
X213478Y165802D02*
X213578Y165902D01*
X213678D01*
X213578Y166002D01*
X213678Y166102D01*
X213578D01*
X213478Y166202D01*
X213378Y166102D01*
X213278D01*
X213378Y166002D01*
X213278Y165902D01*
X213378D01*
X213478Y165802D01*
Y165882D02*
X213538Y165942D01*
X213598D01*
X213538Y166002D01*
X213598Y166062D01*
X213538D01*
X213478Y166122D01*
X213418Y166062D01*
X213358D01*
X213418Y166002D01*
X213358Y165942D01*
X213418D01*
X213478Y165882D01*
X22388Y16804D02*
X22398Y16814D01*
X22408D01*
X22398Y16824D01*
X22408Y16834D01*
X22398D01*
X22388Y16844D01*
X22378Y16834D01*
X22368D01*
X22378Y16824D01*
X22368Y16814D01*
X22378D01*
X22388Y16804D01*
Y16812D02*
X22394Y16818D01*
X224D01*
X22394Y16824D01*
X224Y1683D01*
X22394D01*
X22388Y16836D01*
X22382Y1683D01*
X22376D01*
X22382Y16824D01*
X22376Y16818D01*
X22382D01*
X22388Y16812D01*
X21069Y16731D02*
X21079Y16741D01*
X21089D01*
X21079Y16751D01*
X21089Y16761D01*
X21079D01*
X21069Y16771D01*
X21059Y16761D01*
X21049D01*
X21059Y16751D01*
X21049Y16741D01*
X21059D01*
X21069Y16731D01*
Y16739D02*
X21075Y16745D01*
X21081D01*
X21075Y16751D01*
X21081Y16757D01*
X21075D01*
X21069Y16763D01*
X21063Y16757D01*
X21057D01*
X21063Y16751D01*
X21057Y16745D01*
X21063D01*
X21069Y16739D01*
X2115Y16779D02*
X2116Y16789D01*
X2117D01*
X2116Y16799D01*
X2117Y16809D01*
X2116D01*
X2115Y16819D01*
X2114Y16809D01*
X2113D01*
X2114Y16799D01*
X2113Y16789D01*
X2114D01*
X2115Y16779D01*
Y16787D02*
X21156Y16793D01*
X21162D01*
X21156Y16799D01*
X21162Y16805D01*
X21156D01*
X2115Y16811D01*
X21144Y16805D01*
X21138D01*
X21144Y16799D01*
X21138Y16793D01*
X21144D01*
X2115Y16787D01*
X21234Y16838D02*
X21244Y16848D01*
X21254D01*
X21244Y16858D01*
X21254Y16868D01*
X21244D01*
X21234Y16878D01*
X21224Y16868D01*
X21214D01*
X21224Y16858D01*
X21214Y16848D01*
X21224D01*
X21234Y16838D01*
Y16846D02*
X2124Y16852D01*
X21246D01*
X2124Y16858D01*
X21246Y16864D01*
X2124D01*
X21234Y1687D01*
X21228Y16864D01*
X21222D01*
X21228Y16858D01*
X21222Y16852D01*
X21228D01*
X21234Y16846D01*
X22957Y184299D02*
X22967Y184399D01*
X22977D01*
X22967Y184499D01*
X22977Y184599D01*
X22967D01*
X22957Y184699D01*
X22947Y184599D01*
X22937D01*
X22947Y184499D01*
X22937Y184399D01*
X22947D01*
X22957Y184299D01*
Y184379D02*
X22963Y184439D01*
X22969D01*
X22963Y184499D01*
X22969Y184559D01*
X22963D01*
X22957Y184619D01*
X22951Y184559D01*
X22945D01*
X22951Y184499D01*
X22945Y184439D01*
X22951D01*
X22957Y184379D01*
Y18055D02*
X22967Y18065D01*
X22977D01*
X22967Y18075D01*
X22977Y18085D01*
X22967D01*
X22957Y18095D01*
X22947Y18085D01*
X22937D01*
X22947Y18075D01*
X22937Y18065D01*
X22947D01*
X22957Y18055D01*
Y18063D02*
X22963Y18069D01*
X22969D01*
X22963Y18075D01*
X22969Y18081D01*
X22963D01*
X22957Y18087D01*
X22951Y18081D01*
X22945D01*
X22951Y18075D01*
X22945Y18069D01*
X22951D01*
X22957Y18063D01*
X22566Y18064D02*
X22576Y18074D01*
X22586D01*
X22576Y18084D01*
X22586Y18094D01*
X22576D01*
X22566Y18104D01*
X22556Y18094D01*
X22546D01*
X22556Y18084D01*
X22546Y18074D01*
X22556D01*
X22566Y18064D01*
Y18072D02*
X22572Y18078D01*
X22578D01*
X22572Y18084D01*
X22578Y1809D01*
X22572D01*
X22566Y18096D01*
X2256Y1809D01*
X22554D01*
X2256Y18084D01*
X22554Y18078D01*
X2256D01*
X22566Y18072D01*
X22172Y18059D02*
X22182Y18069D01*
X22192D01*
X22182Y18079D01*
X22192Y18089D01*
X22182D01*
X22172Y18099D01*
X22162Y18089D01*
X22152D01*
X22162Y18079D01*
X22152Y18069D01*
X22162D01*
X22172Y18059D01*
Y18067D02*
X22178Y18073D01*
X22184D01*
X22178Y18079D01*
X22184Y18085D01*
X22178D01*
X22172Y18091D01*
X22166Y18085D01*
X2216D01*
X22166Y18079D01*
X2216Y18073D01*
X22166D01*
X22172Y18067D01*
X217783Y180663D02*
X217883Y180763D01*
X217983D01*
X217883Y180863D01*
X217983Y180963D01*
X217883D01*
X217783Y181063D01*
X217683Y180963D01*
X217583D01*
X217683Y180863D01*
X217583Y180763D01*
X217683D01*
X217783Y180663D01*
Y180743D02*
X217843Y180803D01*
X217903D01*
X217843Y180863D01*
X217903Y180923D01*
X217843D01*
X217783Y180983D01*
X217723Y180923D01*
X217663D01*
X217723Y180863D01*
X217663Y180803D01*
X217723D01*
X217783Y180743D01*
X21385Y18064D02*
X21395Y18074D01*
X21405D01*
X21395Y18084D01*
X21405Y18094D01*
X21395D01*
X21385Y18104D01*
X21375Y18094D01*
X21365D01*
X21375Y18084D01*
X21365Y18074D01*
X21375D01*
X21385Y18064D01*
Y18072D02*
X21391Y18078D01*
X21397D01*
X21391Y18084D01*
X21397Y1809D01*
X21391D01*
X21385Y18096D01*
X21379Y1809D01*
X21373D01*
X21379Y18084D01*
X21373Y18078D01*
X21379D01*
X21385Y18072D01*
X20993Y18057D02*
X21003Y18067D01*
X21013D01*
X21003Y18077D01*
X21013Y18087D01*
X21003D01*
X20993Y18097D01*
X20983Y18087D01*
X20973D01*
X20983Y18077D01*
X20973Y18067D01*
X20983D01*
X20993Y18057D01*
Y18065D02*
X20999Y18071D01*
X21005D01*
X20999Y18077D01*
X21005Y18083D01*
X20999D01*
X20993Y18089D01*
X20987Y18083D01*
X20981D01*
X20987Y18077D01*
X20981Y18071D01*
X20987D01*
X20993Y18065D01*
X205972Y180572D02*
X206072Y180672D01*
X206172D01*
X206072Y180772D01*
X206172Y180872D01*
X206072D01*
X205972Y180972D01*
X205872Y180872D01*
X205772D01*
X205872Y180772D01*
X205772Y180672D01*
X205872D01*
X205972Y180572D01*
Y180652D02*
X206032Y180712D01*
X206092D01*
X206032Y180772D01*
X206092Y180832D01*
X206032D01*
X205972Y180892D01*
X205912Y180832D01*
X205852D01*
X205912Y180772D01*
X205852Y180712D01*
X205912D01*
X205972Y180652D01*
X202035Y180565D02*
X202135Y180665D01*
X202235D01*
X202135Y180765D01*
X202235Y180865D01*
X202135D01*
X202035Y180965D01*
X201935Y180865D01*
X201835D01*
X201935Y180765D01*
X201835Y180665D01*
X201935D01*
X202035Y180565D01*
Y180645D02*
X202095Y180705D01*
X202155D01*
X202095Y180765D01*
X202155Y180825D01*
X202095D01*
X202035Y180885D01*
X201975Y180825D01*
X201915D01*
X201975Y180765D01*
X201915Y180705D01*
X201975D01*
X202035Y180645D01*
X22868Y18056D02*
X22878Y18066D01*
X22888D01*
X22878Y18076D01*
X22888Y18086D01*
X22878D01*
X22868Y18096D01*
X22858Y18086D01*
X22848D01*
X22858Y18076D01*
X22848Y18066D01*
X22858D01*
X22868Y18056D01*
Y18064D02*
X22874Y1807D01*
X2288D01*
X22874Y18076D01*
X2288Y18082D01*
X22874D01*
X22868Y18088D01*
X22862Y18082D01*
X22856D01*
X22862Y18076D01*
X22856Y1807D01*
X22862D01*
X22868Y18064D01*
X22475Y18058D02*
X22485Y18068D01*
X22495D01*
X22485Y18078D01*
X22495Y18088D01*
X22485D01*
X22475Y18098D01*
X22465Y18088D01*
X22455D01*
X22465Y18078D01*
X22455Y18068D01*
X22465D01*
X22475Y18058D01*
Y18066D02*
X22481Y18072D01*
X22487D01*
X22481Y18078D01*
X22487Y18084D01*
X22481D01*
X22475Y1809D01*
X22469Y18084D01*
X22463D01*
X22469Y18078D01*
X22463Y18072D01*
X22469D01*
X22475Y18066D01*
X22063Y18038D02*
X22073Y18048D01*
X22083D01*
X22073Y18058D01*
X22083Y18068D01*
X22073D01*
X22063Y18078D01*
X22053Y18068D01*
X22043D01*
X22053Y18058D01*
X22043Y18048D01*
X22053D01*
X22063Y18038D01*
Y18046D02*
X22069Y18052D01*
X22075D01*
X22069Y18058D01*
X22075Y18064D01*
X22069D01*
X22063Y1807D01*
X22057Y18064D01*
X22051D01*
X22057Y18058D01*
X22051Y18052D01*
X22057D01*
X22063Y18046D01*
X21665Y18038D02*
X21675Y18048D01*
X21685D01*
X21675Y18058D01*
X21685Y18068D01*
X21675D01*
X21665Y18078D01*
X21655Y18068D01*
X21645D01*
X21655Y18058D01*
X21645Y18048D01*
X21655D01*
X21665Y18038D01*
Y18046D02*
X21671Y18052D01*
X21677D01*
X21671Y18058D01*
X21677Y18064D01*
X21671D01*
X21665Y1807D01*
X21659Y18064D01*
X21653D01*
X21659Y18058D01*
X21653Y18052D01*
X21659D01*
X21665Y18046D01*
X21276Y18038D02*
X21286Y18048D01*
X21296D01*
X21286Y18058D01*
X21296Y18068D01*
X21286D01*
X21276Y18078D01*
X21266Y18068D01*
X21256D01*
X21266Y18058D01*
X21256Y18048D01*
X21266D01*
X21276Y18038D01*
Y18046D02*
X21282Y18052D01*
X21288D01*
X21282Y18058D01*
X21288Y18064D01*
X21282D01*
X21276Y1807D01*
X2127Y18064D01*
X21264D01*
X2127Y18058D01*
X21264Y18052D01*
X2127D01*
X21276Y18046D01*
X21301Y18063D02*
X21311Y18073D01*
X21321D01*
X21311Y18083D01*
X21321Y18093D01*
X21311D01*
X21301Y18103D01*
X21291Y18093D01*
X21281D01*
X21291Y18083D01*
X21281Y18073D01*
X21291D01*
X21301Y18063D01*
Y18071D02*
X21307Y18077D01*
X21313D01*
X21307Y18083D01*
X21313Y18089D01*
X21307D01*
X21301Y18095D01*
X21295Y18089D01*
X21289D01*
X21295Y18083D01*
X21289Y18077D01*
X21295D01*
X21301Y18071D01*
X20875Y18038D02*
X20885Y18048D01*
X20895D01*
X20885Y18058D01*
X20895Y18068D01*
X20885D01*
X20875Y18078D01*
X20865Y18068D01*
X20855D01*
X20865Y18058D01*
X20855Y18048D01*
X20865D01*
X20875Y18038D01*
Y18046D02*
X20881Y18052D01*
X20887D01*
X20881Y18058D01*
X20887Y18064D01*
X20881D01*
X20875Y1807D01*
X20869Y18064D01*
X20863D01*
X20869Y18058D01*
X20863Y18052D01*
X20869D01*
X20875Y18046D01*
X20902Y18065D02*
X20912Y18075D01*
X20922D01*
X20912Y18085D01*
X20922Y18095D01*
X20912D01*
X20902Y18105D01*
X20892Y18095D01*
X20882D01*
X20892Y18085D01*
X20882Y18075D01*
X20892D01*
X20902Y18065D01*
Y18073D02*
X20908Y18079D01*
X20914D01*
X20908Y18085D01*
X20914Y18091D01*
X20908D01*
X20902Y18097D01*
X20896Y18091D01*
X2089D01*
X20896Y18085D01*
X2089Y18079D01*
X20896D01*
X20902Y18073D01*
X20484Y18038D02*
X20494Y18048D01*
X20504D01*
X20494Y18058D01*
X20504Y18068D01*
X20494D01*
X20484Y18078D01*
X20474Y18068D01*
X20464D01*
X20474Y18058D01*
X20464Y18048D01*
X20474D01*
X20484Y18038D01*
Y18046D02*
X2049Y18052D01*
X20496D01*
X2049Y18058D01*
X20496Y18064D01*
X2049D01*
X20484Y1807D01*
X20478Y18064D01*
X20472D01*
X20478Y18058D01*
X20472Y18052D01*
X20478D01*
X20484Y18046D01*
X20513Y18064D02*
X20523Y18074D01*
X20533D01*
X20523Y18084D01*
X20533Y18094D01*
X20523D01*
X20513Y18104D01*
X20503Y18094D01*
X20493D01*
X20503Y18084D01*
X20493Y18074D01*
X20503D01*
X20513Y18064D01*
Y18072D02*
X20519Y18078D01*
X20525D01*
X20519Y18084D01*
X20525Y1809D01*
X20519D01*
X20513Y18096D01*
X20507Y1809D01*
X20501D01*
X20507Y18084D01*
X20501Y18078D01*
X20507D01*
X20513Y18072D01*
X201Y18036D02*
X2011Y18046D01*
X2012D01*
X2011Y18056D01*
X2012Y18066D01*
X2011D01*
X201Y18076D01*
X2009Y18066D01*
X2008D01*
X2009Y18056D01*
X2008Y18046D01*
X2009D01*
X201Y18036D01*
Y18044D02*
X20106Y1805D01*
X20112D01*
X20106Y18056D01*
X20112Y18062D01*
X20106D01*
X201Y18068D01*
X20094Y18062D01*
X20088D01*
X20094Y18056D01*
X20088Y1805D01*
X20094D01*
X201Y18044D01*
X20129Y18065D02*
X20139Y18075D01*
X20149D01*
X20139Y18085D01*
X20149Y18095D01*
X20139D01*
X20129Y18105D01*
X20119Y18095D01*
X20109D01*
X20119Y18085D01*
X20109Y18075D01*
X20119D01*
X20129Y18065D01*
Y18073D02*
X20135Y18079D01*
X20141D01*
X20135Y18085D01*
X20141Y18091D01*
X20135D01*
X20129Y18097D01*
X20123Y18091D01*
X20117D01*
X20123Y18085D01*
X20117Y18079D01*
X20123D01*
X20129Y18073D01*
X21694Y18068D02*
X21704Y18078D01*
X21714D01*
X21704Y18088D01*
X21714Y18098D01*
X21704D01*
X21694Y18108D01*
X21684Y18098D01*
X21674D01*
X21684Y18088D01*
X21674Y18078D01*
X21684D01*
X21694Y18068D01*
Y18076D02*
X217Y18082D01*
X21706D01*
X217Y18088D01*
X21706Y18094D01*
X217D01*
X21694Y181D01*
X21688Y18094D01*
X21682D01*
X21688Y18088D01*
X21682Y18082D01*
X21688D01*
X21694Y18076D01*
X22093Y18068D02*
X22103Y18078D01*
X22113D01*
X22103Y18088D01*
X22113Y18098D01*
X22103D01*
X22093Y18108D01*
X22083Y18098D01*
X22073D01*
X22083Y18088D01*
X22073Y18078D01*
X22083D01*
X22093Y18068D01*
Y18076D02*
X22099Y18082D01*
X22105D01*
X22099Y18088D01*
X22105Y18094D01*
X22099D01*
X22093Y181D01*
X22087Y18094D01*
X22081D01*
X22087Y18088D01*
X22081Y18082D01*
X22087D01*
X22093Y18076D01*
X22455Y18038D02*
X22465Y18048D01*
X22475D01*
X22465Y18058D01*
X22475Y18068D01*
X22465D01*
X22455Y18078D01*
X22445Y18068D01*
X22435D01*
X22445Y18058D01*
X22435Y18048D01*
X22445D01*
X22455Y18038D01*
Y18046D02*
X22461Y18052D01*
X22467D01*
X22461Y18058D01*
X22467Y18064D01*
X22461D01*
X22455Y1807D01*
X22449Y18064D01*
X22443D01*
X22449Y18058D01*
X22443Y18052D01*
X22449D01*
X22455Y18046D01*
X23731Y18302D02*
X23741Y18312D01*
X23751D01*
X23741Y18322D01*
X23751Y18332D01*
X23741D01*
X23731Y18342D01*
X23721Y18332D01*
X23711D01*
X23721Y18322D01*
X23711Y18312D01*
X23721D01*
X23731Y18302D01*
Y1831D02*
X23737Y18316D01*
X23743D01*
X23737Y18322D01*
X23743Y18328D01*
X23737D01*
X23731Y18334D01*
X23725Y18328D01*
X23719D01*
X23725Y18322D01*
X23719Y18316D01*
X23725D01*
X23731Y1831D01*
X247772Y183742D02*
X247872Y183842D01*
X247972D01*
X247872Y183942D01*
X247972Y184042D01*
X247872D01*
X247772Y184142D01*
X247672Y184042D01*
X247572D01*
X247672Y183942D01*
X247572Y183842D01*
X247672D01*
X247772Y183742D01*
Y183822D02*
X247832Y183882D01*
X247892D01*
X247832Y183942D01*
X247892Y184002D01*
X247832D01*
X247772Y184062D01*
X247712Y184002D01*
X247652D01*
X247712Y183942D01*
X247652Y183882D01*
X247712D01*
X247772Y183822D01*
X24908Y15169D02*
X24918Y15179D01*
X24928D01*
X24918Y15189D01*
X24928Y15199D01*
X24918D01*
X24908Y15209D01*
X24898Y15199D01*
X24888D01*
X24898Y15189D01*
X24888Y15179D01*
X24898D01*
X24908Y15169D01*
Y15177D02*
X24914Y15183D01*
X2492D01*
X24914Y15189D01*
X2492Y15195D01*
X24914D01*
X24908Y15201D01*
X24902Y15195D01*
X24896D01*
X24902Y15189D01*
X24896Y15183D01*
X24902D01*
X24908Y15177D01*
X24684Y15169D02*
X24694Y15179D01*
X24704D01*
X24694Y15189D01*
X24704Y15199D01*
X24694D01*
X24684Y15209D01*
X24674Y15199D01*
X24664D01*
X24674Y15189D01*
X24664Y15179D01*
X24674D01*
X24684Y15169D01*
Y15177D02*
X2469Y15183D01*
X24696D01*
X2469Y15189D01*
X24696Y15195D01*
X2469D01*
X24684Y15201D01*
X24678Y15195D01*
X24672D01*
X24678Y15189D01*
X24672Y15183D01*
X24678D01*
X24684Y15177D01*
X25132Y15306D02*
X25142Y15316D01*
X25152D01*
X25142Y15326D01*
X25152Y15336D01*
X25142D01*
X25132Y15346D01*
X25122Y15336D01*
X25112D01*
X25122Y15326D01*
X25112Y15316D01*
X25122D01*
X25132Y15306D01*
Y15314D02*
X25138Y1532D01*
X25144D01*
X25138Y15326D01*
X25144Y15332D01*
X25138D01*
X25132Y15338D01*
X25126Y15332D01*
X2512D01*
X25126Y15326D01*
X2512Y1532D01*
X25126D01*
X25132Y15314D01*
X22742Y14884D02*
X22752Y14894D01*
X22762D01*
X22752Y14904D01*
X22762Y14914D01*
X22752D01*
X22742Y14924D01*
X22732Y14914D01*
X22722D01*
X22732Y14904D01*
X22722Y14894D01*
X22732D01*
X22742Y14884D01*
Y14892D02*
X22748Y14898D01*
X22754D01*
X22748Y14904D01*
X22754Y1491D01*
X22748D01*
X22742Y14916D01*
X22736Y1491D01*
X2273D01*
X22736Y14904D01*
X2273Y14898D01*
X22736D01*
X22742Y14892D01*
X25341Y15378D02*
X25351Y15388D01*
X25361D01*
X25351Y15398D01*
X25361Y15408D01*
X25351D01*
X25341Y15418D01*
X25331Y15408D01*
X25321D01*
X25331Y15398D01*
X25321Y15388D01*
X25331D01*
X25341Y15378D01*
Y15386D02*
X25347Y15392D01*
X25353D01*
X25347Y15398D01*
X25353Y15404D01*
X25347D01*
X25341Y1541D01*
X25335Y15404D01*
X25329D01*
X25335Y15398D01*
X25329Y15392D01*
X25335D01*
X25341Y15386D01*
X25246Y15984D02*
X25256Y15994D01*
X25266D01*
X25256Y16004D01*
X25266Y16014D01*
X25256D01*
X25246Y16024D01*
X25236Y16014D01*
X25226D01*
X25236Y16004D01*
X25226Y15994D01*
X25236D01*
X25246Y15984D01*
Y15992D02*
X25252Y15998D01*
X25258D01*
X25252Y16004D01*
X25258Y1601D01*
X25252D01*
X25246Y16016D01*
X2524Y1601D01*
X25234D01*
X2524Y16004D01*
X25234Y15998D01*
X2524D01*
X25246Y15992D01*
X25327Y16211D02*
X25337Y16221D01*
X25347D01*
X25337Y16231D01*
X25347Y16241D01*
X25337D01*
X25327Y16251D01*
X25317Y16241D01*
X25307D01*
X25317Y16231D01*
X25307Y16221D01*
X25317D01*
X25327Y16211D01*
Y16219D02*
X25333Y16225D01*
X25339D01*
X25333Y16231D01*
X25339Y16237D01*
X25333D01*
X25327Y16243D01*
X25321Y16237D01*
X25315D01*
X25321Y16231D01*
X25315Y16225D01*
X25321D01*
X25327Y16219D01*
X25341Y15974D02*
X25351Y15984D01*
X25361D01*
X25351Y15994D01*
X25361Y16004D01*
X25351D01*
X25341Y16014D01*
X25331Y16004D01*
X25321D01*
X25331Y15994D01*
X25321Y15984D01*
X25331D01*
X25341Y15974D01*
Y15982D02*
X25347Y15988D01*
X25353D01*
X25347Y15994D01*
X25353Y16D01*
X25347D01*
X25341Y16006D01*
X25335Y16D01*
X25329D01*
X25335Y15994D01*
X25329Y15988D01*
X25335D01*
X25341Y15982D01*
X23969Y17293D02*
X23979Y17303D01*
X23989D01*
X23979Y17313D01*
X23989Y17323D01*
X23979D01*
X23969Y17333D01*
X23959Y17323D01*
X23949D01*
X23959Y17313D01*
X23949Y17303D01*
X23959D01*
X23969Y17293D01*
Y17301D02*
X23975Y17307D01*
X23981D01*
X23975Y17313D01*
X23981Y17319D01*
X23975D01*
X23969Y17325D01*
X23963Y17319D01*
X23957D01*
X23963Y17313D01*
X23957Y17307D01*
X23963D01*
X23969Y17301D01*
X2425Y16898D02*
X2426Y16908D01*
X2427D01*
X2426Y16918D01*
X2427Y16928D01*
X2426D01*
X2425Y16938D01*
X2424Y16928D01*
X2423D01*
X2424Y16918D01*
X2423Y16908D01*
X2424D01*
X2425Y16898D01*
Y16906D02*
X24256Y16912D01*
X24262D01*
X24256Y16918D01*
X24262Y16924D01*
X24256D01*
X2425Y1693D01*
X24244Y16924D01*
X24238D01*
X24244Y16918D01*
X24238Y16912D01*
X24244D01*
X2425Y16906D01*
X207924Y166794D02*
X208024Y166894D01*
X208124D01*
X208024Y166994D01*
X208124Y167094D01*
X208024D01*
X207924Y167194D01*
X207824Y167094D01*
X207724D01*
X207824Y166994D01*
X207724Y166894D01*
X207824D01*
X207924Y166794D01*
Y166874D02*
X207984Y166934D01*
X208044D01*
X207984Y166994D01*
X208044Y167054D01*
X207984D01*
X207924Y167114D01*
X207864Y167054D01*
X207804D01*
X207864Y166994D01*
X207804Y166934D01*
X207864D01*
X207924Y166874D01*
X21071Y16677D02*
X21081Y16687D01*
X21091D01*
X21081Y16697D01*
X21091Y16707D01*
X21081D01*
X21071Y16717D01*
X21061Y16707D01*
X21051D01*
X21061Y16697D01*
X21051Y16687D01*
X21061D01*
X21071Y16677D01*
Y16685D02*
X21077Y16691D01*
X21083D01*
X21077Y16697D01*
X21083Y16703D01*
X21077D01*
X21071Y16709D01*
X21065Y16703D01*
X21059D01*
X21065Y16697D01*
X21059Y16691D01*
X21065D01*
X21071Y16685D01*
X2285Y18038D02*
X2286Y18048D01*
X2287D01*
X2286Y18058D01*
X2287Y18068D01*
X2286D01*
X2285Y18078D01*
X2284Y18068D01*
X2283D01*
X2284Y18058D01*
X2283Y18048D01*
X2284D01*
X2285Y18038D01*
Y18046D02*
X22856Y18052D01*
X22862D01*
X22856Y18058D01*
X22862Y18064D01*
X22856D01*
X2285Y1807D01*
X22844Y18064D01*
X22838D01*
X22844Y18058D01*
X22838Y18052D01*
X22844D01*
X2285Y18046D01*
X22182Y16177D02*
X22192Y16187D01*
X22202D01*
X22192Y16197D01*
X22202Y16207D01*
X22192D01*
X22182Y16217D01*
X22172Y16207D01*
X22162D01*
X22172Y16197D01*
X22162Y16187D01*
X22172D01*
X22182Y16177D01*
Y16185D02*
X22188Y16191D01*
X22194D01*
X22188Y16197D01*
X22194Y16203D01*
X22188D01*
X22182Y16209D01*
X22176Y16203D01*
X2217D01*
X22176Y16197D01*
X2217Y16191D01*
X22176D01*
X22182Y16185D01*
X23044Y15785D02*
X23054Y15795D01*
X23064D01*
X23054Y15805D01*
X23064Y15815D01*
X23054D01*
X23044Y15825D01*
X23034Y15815D01*
X23024D01*
X23034Y15805D01*
X23024Y15795D01*
X23034D01*
X23044Y15785D01*
Y15793D02*
X2305Y15799D01*
X23056D01*
X2305Y15805D01*
X23056Y15811D01*
X2305D01*
X23044Y15817D01*
X23038Y15811D01*
X23032D01*
X23038Y15805D01*
X23032Y15799D01*
X23038D01*
X23044Y15793D01*
X2295Y16846D02*
X2296Y16856D01*
X2297D01*
X2296Y16866D01*
X2297Y16876D01*
X2296D01*
X2295Y16886D01*
X2294Y16876D01*
X2293D01*
X2294Y16866D01*
X2293Y16856D01*
X2294D01*
X2295Y16846D01*
Y16854D02*
X22956Y1686D01*
X22962D01*
X22956Y16866D01*
X22962Y16872D01*
X22956D01*
X2295Y16878D01*
X22944Y16872D01*
X22938D01*
X22944Y16866D01*
X22938Y1686D01*
X22944D01*
X2295Y16854D01*
X23042Y16381D02*
X23052Y16391D01*
X23062D01*
X23052Y16401D01*
X23062Y16411D01*
X23052D01*
X23042Y16421D01*
X23032Y16411D01*
X23022D01*
X23032Y16401D01*
X23022Y16391D01*
X23032D01*
X23042Y16381D01*
Y16389D02*
X23048Y16395D01*
X23054D01*
X23048Y16401D01*
X23054Y16407D01*
X23048D01*
X23042Y16413D01*
X23036Y16407D01*
X2303D01*
X23036Y16401D01*
X2303Y16395D01*
X23036D01*
X23042Y16389D01*
X22765Y15256D02*
X22775Y15266D01*
X22785D01*
X22775Y15276D01*
X22785Y15286D01*
X22775D01*
X22765Y15296D01*
X22755Y15286D01*
X22745D01*
X22755Y15276D01*
X22745Y15266D01*
X22755D01*
X22765Y15256D01*
Y15264D02*
X22771Y1527D01*
X22777D01*
X22771Y15276D01*
X22777Y15282D01*
X22771D01*
X22765Y15288D01*
X22759Y15282D01*
X22753D01*
X22759Y15276D01*
X22753Y1527D01*
X22759D01*
X22765Y15264D01*
X24128Y15812D02*
X24138Y15822D01*
X24148D01*
X24138Y15832D01*
X24148Y15842D01*
X24138D01*
X24128Y15852D01*
X24118Y15842D01*
X24108D01*
X24118Y15832D01*
X24108Y15822D01*
X24118D01*
X24128Y15812D01*
Y1582D02*
X24134Y15826D01*
X2414D01*
X24134Y15832D01*
X2414Y15838D01*
X24134D01*
X24128Y15844D01*
X24122Y15838D01*
X24116D01*
X24122Y15832D01*
X24116Y15826D01*
X24122D01*
X24128Y1582D01*
X20713Y16177D02*
X20723Y16187D01*
X20733D01*
X20723Y16197D01*
X20733Y16207D01*
X20723D01*
X20713Y16217D01*
X20703Y16207D01*
X20693D01*
X20703Y16197D01*
X20693Y16187D01*
X20703D01*
X20713Y16177D01*
Y16185D02*
X20719Y16191D01*
X20725D01*
X20719Y16197D01*
X20725Y16203D01*
X20719D01*
X20713Y16209D01*
X20707Y16203D01*
X20701D01*
X20707Y16197D01*
X20701Y16191D01*
X20707D01*
X20713Y16185D01*
X21361Y15355D02*
X21371Y15365D01*
X21381D01*
X21371Y15375D01*
X21381Y15385D01*
X21371D01*
X21361Y15395D01*
X21351Y15385D01*
X21341D01*
X21351Y15375D01*
X21341Y15365D01*
X21351D01*
X21361Y15355D01*
Y15363D02*
X21367Y15369D01*
X21373D01*
X21367Y15375D01*
X21373Y15381D01*
X21367D01*
X21361Y15387D01*
X21355Y15381D01*
X21349D01*
X21355Y15375D01*
X21349Y15369D01*
X21355D01*
X21361Y15363D01*
X21166Y15355D02*
X21176Y15365D01*
X21186D01*
X21176Y15375D01*
X21186Y15385D01*
X21176D01*
X21166Y15395D01*
X21156Y15385D01*
X21146D01*
X21156Y15375D01*
X21146Y15365D01*
X21156D01*
X21166Y15355D01*
Y15363D02*
X21172Y15369D01*
X21178D01*
X21172Y15375D01*
X21178Y15381D01*
X21172D01*
X21166Y15387D01*
X2116Y15381D01*
X21154D01*
X2116Y15375D01*
X21154Y15369D01*
X2116D01*
X21166Y15363D01*
X20965Y15355D02*
X20975Y15365D01*
X20985D01*
X20975Y15375D01*
X20985Y15385D01*
X20975D01*
X20965Y15395D01*
X20955Y15385D01*
X20945D01*
X20955Y15375D01*
X20945Y15365D01*
X20955D01*
X20965Y15355D01*
Y15363D02*
X20971Y15369D01*
X20977D01*
X20971Y15375D01*
X20977Y15381D01*
X20971D01*
X20965Y15387D01*
X20959Y15381D01*
X20953D01*
X20959Y15375D01*
X20953Y15369D01*
X20959D01*
X20965Y15363D01*
X20775Y15355D02*
X20785Y15365D01*
X20795D01*
X20785Y15375D01*
X20795Y15385D01*
X20785D01*
X20775Y15395D01*
X20765Y15385D01*
X20755D01*
X20765Y15375D01*
X20755Y15365D01*
X20765D01*
X20775Y15355D01*
Y15363D02*
X20781Y15369D01*
X20787D01*
X20781Y15375D01*
X20787Y15381D01*
X20781D01*
X20775Y15387D01*
X20769Y15381D01*
X20763D01*
X20769Y15375D01*
X20763Y15369D01*
X20769D01*
X20775Y15363D01*
X20575Y15355D02*
X20585Y15365D01*
X20595D01*
X20585Y15375D01*
X20595Y15385D01*
X20585D01*
X20575Y15395D01*
X20565Y15385D01*
X20555D01*
X20565Y15375D01*
X20555Y15365D01*
X20565D01*
X20575Y15355D01*
Y15363D02*
X20581Y15369D01*
X20587D01*
X20581Y15375D01*
X20587Y15381D01*
X20581D01*
X20575Y15387D01*
X20569Y15381D01*
X20563D01*
X20569Y15375D01*
X20563Y15369D01*
X20569D01*
X20575Y15363D01*
X20376Y15355D02*
X20386Y15365D01*
X20396D01*
X20386Y15375D01*
X20396Y15385D01*
X20386D01*
X20376Y15395D01*
X20366Y15385D01*
X20356D01*
X20366Y15375D01*
X20356Y15365D01*
X20366D01*
X20376Y15355D01*
Y15363D02*
X20382Y15369D01*
X20388D01*
X20382Y15375D01*
X20388Y15381D01*
X20382D01*
X20376Y15387D01*
X2037Y15381D01*
X20364D01*
X2037Y15375D01*
X20364Y15369D01*
X2037D01*
X20376Y15363D01*
X21606Y16016D02*
X21616Y16026D01*
X21626D01*
X21616Y16036D01*
X21626Y16046D01*
X21616D01*
X21606Y16056D01*
X21596Y16046D01*
X21586D01*
X21596Y16036D01*
X21586Y16026D01*
X21596D01*
X21606Y16016D01*
Y16024D02*
X21612Y1603D01*
X21618D01*
X21612Y16036D01*
X21618Y16042D01*
X21612D01*
X21606Y16048D01*
X216Y16042D01*
X21594D01*
X216Y16036D01*
X21594Y1603D01*
X216D01*
X21606Y16024D01*
X21855Y15794D02*
X21865Y15804D01*
X21875D01*
X21865Y15814D01*
X21875Y15824D01*
X21865D01*
X21855Y15834D01*
X21845Y15824D01*
X21835D01*
X21845Y15814D01*
X21835Y15804D01*
X21845D01*
X21855Y15794D01*
Y15802D02*
X21861Y15808D01*
X21867D01*
X21861Y15814D01*
X21867Y1582D01*
X21861D01*
X21855Y15826D01*
X21849Y1582D01*
X21843D01*
X21849Y15814D01*
X21843Y15808D01*
X21849D01*
X21855Y15802D01*
X21268Y16018D02*
X21278Y16028D01*
X21288D01*
X21278Y16038D01*
X21288Y16048D01*
X21278D01*
X21268Y16058D01*
X21258Y16048D01*
X21248D01*
X21258Y16038D01*
X21248Y16028D01*
X21258D01*
X21268Y16018D01*
Y16026D02*
X21274Y16032D01*
X2128D01*
X21274Y16038D01*
X2128Y16044D01*
X21274D01*
X21268Y1605D01*
X21262Y16044D01*
X21256D01*
X21262Y16038D01*
X21256Y16032D01*
X21262D01*
X21268Y16026D01*
X21758Y15355D02*
X21768Y15365D01*
X21778D01*
X21768Y15375D01*
X21778Y15385D01*
X21768D01*
X21758Y15395D01*
X21748Y15385D01*
X21738D01*
X21748Y15375D01*
X21738Y15365D01*
X21748D01*
X21758Y15355D01*
Y15363D02*
X21764Y15369D01*
X2177D01*
X21764Y15375D01*
X2177Y15381D01*
X21764D01*
X21758Y15387D01*
X21752Y15381D01*
X21746D01*
X21752Y15375D01*
X21746Y15369D01*
X21752D01*
X21758Y15363D01*
X2156Y15355D02*
X2157Y15365D01*
X2158D01*
X2157Y15375D01*
X2158Y15385D01*
X2157D01*
X2156Y15395D01*
X2155Y15385D01*
X2154D01*
X2155Y15375D01*
X2154Y15365D01*
X2155D01*
X2156Y15355D01*
Y15363D02*
X21566Y15369D01*
X21572D01*
X21566Y15375D01*
X21572Y15381D01*
X21566D01*
X2156Y15387D01*
X21554Y15381D01*
X21548D01*
X21554Y15375D01*
X21548Y15369D01*
X21554D01*
X2156Y15363D01*
X21975Y15795D02*
X21985Y15805D01*
X21995D01*
X21985Y15815D01*
X21995Y15825D01*
X21985D01*
X21975Y15835D01*
X21965Y15825D01*
X21955D01*
X21965Y15815D01*
X21955Y15805D01*
X21965D01*
X21975Y15795D01*
Y15803D02*
X21981Y15809D01*
X21987D01*
X21981Y15815D01*
X21987Y15821D01*
X21981D01*
X21975Y15827D01*
X21969Y15821D01*
X21963D01*
X21969Y15815D01*
X21963Y15809D01*
X21969D01*
X21975Y15803D01*
X25442Y15137D02*
X25452Y15147D01*
X25462D01*
X25452Y15157D01*
X25462Y15167D01*
X25452D01*
X25442Y15177D01*
X25432Y15167D01*
X25422D01*
X25432Y15157D01*
X25422Y15147D01*
X25432D01*
X25442Y15137D01*
Y15145D02*
X25448Y15151D01*
X25454D01*
X25448Y15157D01*
X25454Y15163D01*
X25448D01*
X25442Y15169D01*
X25436Y15163D01*
X2543D01*
X25436Y15157D01*
X2543Y15151D01*
X25436D01*
X25442Y15145D01*
X22919Y16271D02*
X22929Y16281D01*
X22939D01*
X22929Y16291D01*
X22939Y16301D01*
X22929D01*
X22919Y16311D01*
X22909Y16301D01*
X22899D01*
X22909Y16291D01*
X22899Y16281D01*
X22909D01*
X22919Y16271D01*
Y16279D02*
X22925Y16285D01*
X22931D01*
X22925Y16291D01*
X22931Y16297D01*
X22925D01*
X22919Y16303D01*
X22913Y16297D01*
X22907D01*
X22913Y16291D01*
X22907Y16285D01*
X22913D01*
X22919Y16279D01*
X22926Y1579D02*
X22936Y158D01*
X22946D01*
X22936Y1581D01*
X22946Y1582D01*
X22936D01*
X22926Y1583D01*
X22916Y1582D01*
X22906D01*
X22916Y1581D01*
X22906Y158D01*
X22916D01*
X22926Y1579D01*
Y15798D02*
X22932Y15804D01*
X22938D01*
X22932Y1581D01*
X22938Y15816D01*
X22932D01*
X22926Y15822D01*
X2292Y15816D01*
X22914D01*
X2292Y1581D01*
X22914Y15804D01*
X2292D01*
X22926Y15798D01*
X23411Y15694D02*
X23421Y15704D01*
X23431D01*
X23421Y15714D01*
X23431Y15724D01*
X23421D01*
X23411Y15734D01*
X23401Y15724D01*
X23391D01*
X23401Y15714D01*
X23391Y15704D01*
X23401D01*
X23411Y15694D01*
Y15702D02*
X23417Y15708D01*
X23423D01*
X23417Y15714D01*
X23423Y1572D01*
X23417D01*
X23411Y15726D01*
X23405Y1572D01*
X23399D01*
X23405Y15714D01*
X23399Y15708D01*
X23405D01*
X23411Y15702D01*
X22955Y15696D02*
X22965Y15706D01*
X22975D01*
X22965Y15716D01*
X22975Y15726D01*
X22965D01*
X22955Y15736D01*
X22945Y15726D01*
X22935D01*
X22945Y15716D01*
X22935Y15706D01*
X22945D01*
X22955Y15696D01*
Y15704D02*
X22961Y1571D01*
X22967D01*
X22961Y15716D01*
X22967Y15722D01*
X22961D01*
X22955Y15728D01*
X22949Y15722D01*
X22943D01*
X22949Y15716D01*
X22943Y1571D01*
X22949D01*
X22955Y15704D01*
X23063Y16143D02*
X23073Y16153D01*
X23083D01*
X23073Y16163D01*
X23083Y16173D01*
X23073D01*
X23063Y16183D01*
X23053Y16173D01*
X23043D01*
X23053Y16163D01*
X23043Y16153D01*
X23053D01*
X23063Y16143D01*
Y16151D02*
X23069Y16157D01*
X23075D01*
X23069Y16163D01*
X23075Y16169D01*
X23069D01*
X23063Y16175D01*
X23057Y16169D01*
X23051D01*
X23057Y16163D01*
X23051Y16157D01*
X23057D01*
X23063Y16151D01*
X23191Y15856D02*
X23201Y15866D01*
X23211D01*
X23201Y15876D01*
X23211Y15886D01*
X23201D01*
X23191Y15896D01*
X23181Y15886D01*
X23171D01*
X23181Y15876D01*
X23171Y15866D01*
X23181D01*
X23191Y15856D01*
Y15864D02*
X23197Y1587D01*
X23203D01*
X23197Y15876D01*
X23203Y15882D01*
X23197D01*
X23191Y15888D01*
X23185Y15882D01*
X23179D01*
X23185Y15876D01*
X23179Y1587D01*
X23185D01*
X23191Y15864D01*
X23392Y15906D02*
X23402Y15916D01*
X23412D01*
X23402Y15926D01*
X23412Y15936D01*
X23402D01*
X23392Y15946D01*
X23382Y15936D01*
X23372D01*
X23382Y15926D01*
X23372Y15916D01*
X23382D01*
X23392Y15906D01*
Y15914D02*
X23398Y1592D01*
X23404D01*
X23398Y15926D01*
X23404Y15932D01*
X23398D01*
X23392Y15938D01*
X23386Y15932D01*
X2338D01*
X23386Y15926D01*
X2338Y1592D01*
X23386D01*
X23392Y15914D01*
X23347Y15955D02*
X23357Y15965D01*
X23367D01*
X23357Y15975D01*
X23367Y15985D01*
X23357D01*
X23347Y15995D01*
X23337Y15985D01*
X23327D01*
X23337Y15975D01*
X23327Y15965D01*
X23337D01*
X23347Y15955D01*
Y15963D02*
X23353Y15969D01*
X23359D01*
X23353Y15975D01*
X23359Y15981D01*
X23353D01*
X23347Y15987D01*
X23341Y15981D01*
X23335D01*
X23341Y15975D01*
X23335Y15969D01*
X23341D01*
X23347Y15963D01*
X24448Y14926D02*
X24458Y14936D01*
X24468D01*
X24458Y14946D01*
X24468Y14956D01*
X24458D01*
X24448Y14966D01*
X24438Y14956D01*
X24428D01*
X24438Y14946D01*
X24428Y14936D01*
X24438D01*
X24448Y14926D01*
Y14934D02*
X24454Y1494D01*
X2446D01*
X24454Y14946D01*
X2446Y14952D01*
X24454D01*
X24448Y14958D01*
X24442Y14952D01*
X24436D01*
X24442Y14946D01*
X24436Y1494D01*
X24442D01*
X24448Y14934D01*
X2307Y17909D02*
X2308Y17919D01*
X2309D01*
X2308Y17929D01*
X2309Y17939D01*
X2308D01*
X2307Y17949D01*
X2306Y17939D01*
X2305D01*
X2306Y17929D01*
X2305Y17919D01*
X2306D01*
X2307Y17909D01*
Y17917D02*
X23076Y17923D01*
X23082D01*
X23076Y17929D01*
X23082Y17935D01*
X23076D01*
X2307Y17941D01*
X23064Y17935D01*
X23058D01*
X23064Y17929D01*
X23058Y17923D01*
X23064D01*
X2307Y17917D01*
X23065Y17841D02*
X23075Y17851D01*
X23085D01*
X23075Y17861D01*
X23085Y17871D01*
X23075D01*
X23065Y17881D01*
X23055Y17871D01*
X23045D01*
X23055Y17861D01*
X23045Y17851D01*
X23055D01*
X23065Y17841D01*
Y17849D02*
X23071Y17855D01*
X23077D01*
X23071Y17861D01*
X23077Y17867D01*
X23071D01*
X23065Y17873D01*
X23059Y17867D01*
X23053D01*
X23059Y17861D01*
X23053Y17855D01*
X23059D01*
X23065Y17849D01*
X25242Y15317D02*
X25252Y15327D01*
X25262D01*
X25252Y15337D01*
X25262Y15347D01*
X25252D01*
X25242Y15357D01*
X25232Y15347D01*
X25222D01*
X25232Y15337D01*
X25222Y15327D01*
X25232D01*
X25242Y15317D01*
Y15325D02*
X25248Y15331D01*
X25254D01*
X25248Y15337D01*
X25254Y15343D01*
X25248D01*
X25242Y15349D01*
X25236Y15343D01*
X2523D01*
X25236Y15337D01*
X2523Y15331D01*
X25236D01*
X25242Y15325D01*
X25243Y15279D02*
X25253Y15289D01*
X25263D01*
X25253Y15299D01*
X25263Y15309D01*
X25253D01*
X25243Y15319D01*
X25233Y15309D01*
X25223D01*
X25233Y15299D01*
X25223Y15289D01*
X25233D01*
X25243Y15279D01*
Y15287D02*
X25249Y15293D01*
X25255D01*
X25249Y15299D01*
X25255Y15305D01*
X25249D01*
X25243Y15311D01*
X25237Y15305D01*
X25231D01*
X25237Y15299D01*
X25231Y15293D01*
X25237D01*
X25243Y15287D01*
X25341Y16197D02*
X25351Y16207D01*
X25361D01*
X25351Y16217D01*
X25361Y16227D01*
X25351D01*
X25341Y16237D01*
X25331Y16227D01*
X25321D01*
X25331Y16217D01*
X25321Y16207D01*
X25331D01*
X25341Y16197D01*
Y16205D02*
X25347Y16211D01*
X25353D01*
X25347Y16217D01*
X25353Y16223D01*
X25347D01*
X25341Y16229D01*
X25335Y16223D01*
X25329D01*
X25335Y16217D01*
X25329Y16211D01*
X25335D01*
X25341Y16205D01*
X24855Y15399D02*
X24865Y15409D01*
X24875D01*
X24865Y15419D01*
X24875Y15429D01*
X24865D01*
X24855Y15439D01*
X24845Y15429D01*
X24835D01*
X24845Y15419D01*
X24835Y15409D01*
X24845D01*
X24855Y15399D01*
Y15407D02*
X24861Y15413D01*
X24867D01*
X24861Y15419D01*
X24867Y15425D01*
X24861D01*
X24855Y15431D01*
X24849Y15425D01*
X24843D01*
X24849Y15419D01*
X24843Y15413D01*
X24849D01*
X24855Y15407D01*
X25381Y16304D02*
X25391Y16314D01*
X25401D01*
X25391Y16324D01*
X25401Y16334D01*
X25391D01*
X25381Y16344D01*
X25371Y16334D01*
X25361D01*
X25371Y16324D01*
X25361Y16314D01*
X25371D01*
X25381Y16304D01*
Y16312D02*
X25387Y16318D01*
X25393D01*
X25387Y16324D01*
X25393Y1633D01*
X25387D01*
X25381Y16336D01*
X25375Y1633D01*
X25369D01*
X25375Y16324D01*
X25369Y16318D01*
X25375D01*
X25381Y16312D01*
X2534Y16304D02*
X2535Y16314D01*
X2536D01*
X2535Y16324D01*
X2536Y16334D01*
X2535D01*
X2534Y16344D01*
X2533Y16334D01*
X2532D01*
X2533Y16324D01*
X2532Y16314D01*
X2533D01*
X2534Y16304D01*
Y16312D02*
X25346Y16318D01*
X25352D01*
X25346Y16324D01*
X25352Y1633D01*
X25346D01*
X2534Y16336D01*
X25334Y1633D01*
X25328D01*
X25334Y16324D01*
X25328Y16318D01*
X25334D01*
X2534Y16312D01*
X25442Y15094D02*
X25452Y15104D01*
X25462D01*
X25452Y15114D01*
X25462Y15124D01*
X25452D01*
X25442Y15134D01*
X25432Y15124D01*
X25422D01*
X25432Y15114D01*
X25422Y15104D01*
X25432D01*
X25442Y15094D01*
Y15102D02*
X25448Y15108D01*
X25454D01*
X25448Y15114D01*
X25454Y1512D01*
X25448D01*
X25442Y15126D01*
X25436Y1512D01*
X2543D01*
X25436Y15114D01*
X2543Y15108D01*
X25436D01*
X25442Y15102D01*
X22741Y14845D02*
X22751Y14855D01*
X22761D01*
X22751Y14865D01*
X22761Y14875D01*
X22751D01*
X22741Y14885D01*
X22731Y14875D01*
X22721D01*
X22731Y14865D01*
X22721Y14855D01*
X22731D01*
X22741Y14845D01*
Y14853D02*
X22747Y14859D01*
X22753D01*
X22747Y14865D01*
X22753Y14871D01*
X22747D01*
X22741Y14877D01*
X22735Y14871D01*
X22729D01*
X22735Y14865D01*
X22729Y14859D01*
X22735D01*
X22741Y14853D01*
X22766Y15228D02*
X22776Y15238D01*
X22786D01*
X22776Y15248D01*
X22786Y15258D01*
X22776D01*
X22766Y15268D01*
X22756Y15258D01*
X22746D01*
X22756Y15248D01*
X22746Y15238D01*
X22756D01*
X22766Y15228D01*
Y15236D02*
X22772Y15242D01*
X22778D01*
X22772Y15248D01*
X22778Y15254D01*
X22772D01*
X22766Y1526D01*
X2276Y15254D01*
X22754D01*
X2276Y15248D01*
X22754Y15242D01*
X2276D01*
X22766Y15236D01*
X24901Y15399D02*
X24911Y15409D01*
X24921D01*
X24911Y15419D01*
X24921Y15429D01*
X24911D01*
X24901Y15439D01*
X24891Y15429D01*
X24881D01*
X24891Y15419D01*
X24881Y15409D01*
X24891D01*
X24901Y15399D01*
Y15407D02*
X24907Y15413D01*
X24913D01*
X24907Y15419D01*
X24913Y15425D01*
X24907D01*
X24901Y15431D01*
X24895Y15425D01*
X24889D01*
X24895Y15419D01*
X24889Y15413D01*
X24895D01*
X24901Y15407D01*
X25342Y15417D02*
X25352Y15427D01*
X25362D01*
X25352Y15437D01*
X25362Y15447D01*
X25352D01*
X25342Y15457D01*
X25332Y15447D01*
X25322D01*
X25332Y15437D01*
X25322Y15427D01*
X25332D01*
X25342Y15417D01*
Y15425D02*
X25348Y15431D01*
X25354D01*
X25348Y15437D01*
X25354Y15443D01*
X25348D01*
X25342Y15449D01*
X25336Y15443D01*
X2533D01*
X25336Y15437D01*
X2533Y15431D01*
X25336D01*
X25342Y15425D01*
X25341Y1594D02*
X25351Y1595D01*
X25361D01*
X25351Y1596D01*
X25361Y1597D01*
X25351D01*
X25341Y1598D01*
X25331Y1597D01*
X25321D01*
X25331Y1596D01*
X25321Y1595D01*
X25331D01*
X25341Y1594D01*
Y15948D02*
X25347Y15954D01*
X25353D01*
X25347Y1596D01*
X25353Y15966D01*
X25347D01*
X25341Y15972D01*
X25335Y15966D01*
X25329D01*
X25335Y1596D01*
X25329Y15954D01*
X25335D01*
X25341Y15948D01*
X217597Y161763D02*
X217697Y161863D01*
X217797D01*
X217697Y161963D01*
X217797Y162063D01*
X217697D01*
X217597Y162163D01*
X217497Y162063D01*
X217397D01*
X217497Y161963D01*
X217397Y161863D01*
X217497D01*
X217597Y161763D01*
Y161843D02*
X217657Y161903D01*
X217717D01*
X217657Y161963D01*
X217717Y162023D01*
X217657D01*
X217597Y162083D01*
X217537Y162023D01*
X217477D01*
X217537Y161963D01*
X217477Y161903D01*
X217537D01*
X217597Y161843D01*
X243078Y17633D02*
X243178Y17643D01*
X243278D01*
X243178Y17653D01*
X243278Y17663D01*
X243178D01*
X243078Y17673D01*
X242978Y17663D01*
X242878D01*
X242978Y17653D01*
X242878Y17643D01*
X242978D01*
X243078Y17633D01*
Y17641D02*
X243138Y17647D01*
X243198D01*
X243138Y17653D01*
X243198Y17659D01*
X243138D01*
X243078Y17665D01*
X243018Y17659D01*
X242958D01*
X243018Y17653D01*
X242958Y17647D01*
X243018D01*
X243078Y17641D01*
X24351Y1759D02*
X24361Y176D01*
X24371D01*
X24361Y1761D01*
X24371Y1762D01*
X24361D01*
X24351Y1763D01*
X24341Y1762D01*
X24331D01*
X24341Y1761D01*
X24331Y176D01*
X24341D01*
X24351Y1759D01*
Y17598D02*
X24357Y17604D01*
X24363D01*
X24357Y1761D01*
X24363Y17616D01*
X24357D01*
X24351Y17622D01*
X24345Y17616D01*
X24339D01*
X24345Y1761D01*
X24339Y17604D01*
X24345D01*
X24351Y17598D01*
X24062Y1813D02*
X24072Y1814D01*
X24082D01*
X24072Y1815D01*
X24082Y1816D01*
X24072D01*
X24062Y1817D01*
X24052Y1816D01*
X24042D01*
X24052Y1815D01*
X24042Y1814D01*
X24052D01*
X24062Y1813D01*
Y18138D02*
X24068Y18144D01*
X24074D01*
X24068Y1815D01*
X24074Y18156D01*
X24068D01*
X24062Y18162D01*
X24056Y18156D01*
X2405D01*
X24056Y1815D01*
X2405Y18144D01*
X24056D01*
X24062Y18138D01*
X24577Y15833D02*
X24587Y15843D01*
X24597D01*
X24587Y15853D01*
X24597Y15863D01*
X24587D01*
X24577Y15873D01*
X24567Y15863D01*
X24557D01*
X24567Y15853D01*
X24557Y15843D01*
X24567D01*
X24577Y15833D01*
Y15841D02*
X24583Y15847D01*
X24589D01*
X24583Y15853D01*
X24589Y15859D01*
X24583D01*
X24577Y15865D01*
X24571Y15859D01*
X24565D01*
X24571Y15853D01*
X24565Y15847D01*
X24571D01*
X24577Y15841D01*
X24629Y15898D02*
X24639Y15908D01*
X24649D01*
X24639Y15918D01*
X24649Y15928D01*
X24639D01*
X24629Y15938D01*
X24619Y15928D01*
X24609D01*
X24619Y15918D01*
X24609Y15908D01*
X24619D01*
X24629Y15898D01*
Y15906D02*
X24635Y15912D01*
X24641D01*
X24635Y15918D01*
X24641Y15924D01*
X24635D01*
X24629Y1593D01*
X24623Y15924D01*
X24617D01*
X24623Y15918D01*
X24617Y15912D01*
X24623D01*
X24629Y15906D01*
X25126Y15755D02*
X25136Y15765D01*
X25146D01*
X25136Y15775D01*
X25146Y15785D01*
X25136D01*
X25126Y15795D01*
X25116Y15785D01*
X25106D01*
X25116Y15775D01*
X25106Y15765D01*
X25116D01*
X25126Y15755D01*
Y15763D02*
X25132Y15769D01*
X25138D01*
X25132Y15775D01*
X25138Y15781D01*
X25132D01*
X25126Y15787D01*
X2512Y15781D01*
X25114D01*
X2512Y15775D01*
X25114Y15769D01*
X2512D01*
X25126Y15763D01*
X25202Y17244D02*
X25212Y17254D01*
X25222D01*
X25212Y17264D01*
X25222Y17274D01*
X25212D01*
X25202Y17284D01*
X25192Y17274D01*
X25182D01*
X25192Y17264D01*
X25182Y17254D01*
X25192D01*
X25202Y17244D01*
Y17252D02*
X25208Y17258D01*
X25214D01*
X25208Y17264D01*
X25214Y1727D01*
X25208D01*
X25202Y17276D01*
X25196Y1727D01*
X2519D01*
X25196Y17264D01*
X2519Y17258D01*
X25196D01*
X25202Y17252D01*
X2411Y1528D02*
X2412Y1529D01*
X2413D01*
X2412Y153D01*
X2413Y1531D01*
X2412D01*
X2411Y1532D01*
X241Y1531D01*
X2409D01*
X241Y153D01*
X2409Y1529D01*
X241D01*
X2411Y1528D01*
Y15288D02*
X24116Y15294D01*
X24122D01*
X24116Y153D01*
X24122Y15306D01*
X24116D01*
X2411Y15312D01*
X24104Y15306D01*
X24098D01*
X24104Y153D01*
X24098Y15294D01*
X24104D01*
X2411Y15288D01*
X24642Y15434D02*
X24652Y15444D01*
X24662D01*
X24652Y15454D01*
X24662Y15464D01*
X24652D01*
X24642Y15474D01*
X24632Y15464D01*
X24622D01*
X24632Y15454D01*
X24622Y15444D01*
X24632D01*
X24642Y15434D01*
Y15442D02*
X24648Y15448D01*
X24654D01*
X24648Y15454D01*
X24654Y1546D01*
X24648D01*
X24642Y15466D01*
X24636Y1546D01*
X2463D01*
X24636Y15454D01*
X2463Y15448D01*
X24636D01*
X24642Y15442D01*
X24643Y15169D02*
X24653Y15179D01*
X24663D01*
X24653Y15189D01*
X24663Y15199D01*
X24653D01*
X24643Y15209D01*
X24633Y15199D01*
X24623D01*
X24633Y15189D01*
X24623Y15179D01*
X24633D01*
X24643Y15169D01*
Y15177D02*
X24649Y15183D01*
X24655D01*
X24649Y15189D01*
X24655Y15195D01*
X24649D01*
X24643Y15201D01*
X24637Y15195D01*
X24631D01*
X24637Y15189D01*
X24631Y15183D01*
X24637D01*
X24643Y15177D01*
X24155Y1528D02*
X24165Y1529D01*
X24175D01*
X24165Y153D01*
X24175Y1531D01*
X24165D01*
X24155Y1532D01*
X24145Y1531D01*
X24135D01*
X24145Y153D01*
X24135Y1529D01*
X24145D01*
X24155Y1528D01*
Y15288D02*
X24161Y15294D01*
X24167D01*
X24161Y153D01*
X24167Y15306D01*
X24161D01*
X24155Y15312D01*
X24149Y15306D01*
X24143D01*
X24149Y153D01*
X24143Y15294D01*
X24149D01*
X24155Y15288D01*
X24065Y15278D02*
X24075Y15288D01*
X24085D01*
X24075Y15298D01*
X24085Y15308D01*
X24075D01*
X24065Y15318D01*
X24055Y15308D01*
X24045D01*
X24055Y15298D01*
X24045Y15288D01*
X24055D01*
X24065Y15278D01*
Y15286D02*
X24071Y15292D01*
X24077D01*
X24071Y15298D01*
X24077Y15304D01*
X24071D01*
X24065Y1531D01*
X24059Y15304D01*
X24053D01*
X24059Y15298D01*
X24053Y15292D01*
X24059D01*
X24065Y15286D01*
X24848Y16026D02*
X24858Y16036D01*
X24868D01*
X24858Y16046D01*
X24868Y16056D01*
X24858D01*
X24848Y16066D01*
X24838Y16056D01*
X24828D01*
X24838Y16046D01*
X24828Y16036D01*
X24838D01*
X24848Y16026D01*
Y16034D02*
X24854Y1604D01*
X2486D01*
X24854Y16046D01*
X2486Y16052D01*
X24854D01*
X24848Y16058D01*
X24842Y16052D01*
X24836D01*
X24842Y16046D01*
X24836Y1604D01*
X24842D01*
X24848Y16034D01*
X24802Y16455D02*
X24812Y16465D01*
X24822D01*
X24812Y16475D01*
X24822Y16485D01*
X24812D01*
X24802Y16495D01*
X24792Y16485D01*
X24782D01*
X24792Y16475D01*
X24782Y16465D01*
X24792D01*
X24802Y16455D01*
Y16463D02*
X24808Y16469D01*
X24814D01*
X24808Y16475D01*
X24814Y16481D01*
X24808D01*
X24802Y16487D01*
X24796Y16481D01*
X2479D01*
X24796Y16475D01*
X2479Y16469D01*
X24796D01*
X24802Y16463D01*
X24803Y16357D02*
X24813Y16367D01*
X24823D01*
X24813Y16377D01*
X24823Y16387D01*
X24813D01*
X24803Y16397D01*
X24793Y16387D01*
X24783D01*
X24793Y16377D01*
X24783Y16367D01*
X24793D01*
X24803Y16357D01*
Y16365D02*
X24809Y16371D01*
X24815D01*
X24809Y16377D01*
X24815Y16383D01*
X24809D01*
X24803Y16389D01*
X24797Y16383D01*
X24791D01*
X24797Y16377D01*
X24791Y16371D01*
X24797D01*
X24803Y16365D01*
X24849Y16844D02*
X24859Y16854D01*
X24869D01*
X24859Y16864D01*
X24869Y16874D01*
X24859D01*
X24849Y16884D01*
X24839Y16874D01*
X24829D01*
X24839Y16864D01*
X24829Y16854D01*
X24839D01*
X24849Y16844D01*
Y16852D02*
X24855Y16858D01*
X24861D01*
X24855Y16864D01*
X24861Y1687D01*
X24855D01*
X24849Y16876D01*
X24843Y1687D01*
X24837D01*
X24843Y16864D01*
X24837Y16858D01*
X24843D01*
X24849Y16852D01*
X24846Y16999D02*
X24856Y17009D01*
X24866D01*
X24856Y17019D01*
X24866Y17029D01*
X24856D01*
X24846Y17039D01*
X24836Y17029D01*
X24826D01*
X24836Y17019D01*
X24826Y17009D01*
X24836D01*
X24846Y16999D01*
Y17007D02*
X24852Y17013D01*
X24858D01*
X24852Y17019D01*
X24858Y17025D01*
X24852D01*
X24846Y17031D01*
X2484Y17025D01*
X24834D01*
X2484Y17019D01*
X24834Y17013D01*
X2484D01*
X24846Y17007D01*
X25363Y17372D02*
X25373Y17382D01*
X25383D01*
X25373Y17392D01*
X25383Y17402D01*
X25373D01*
X25363Y17412D01*
X25353Y17402D01*
X25343D01*
X25353Y17392D01*
X25343Y17382D01*
X25353D01*
X25363Y17372D01*
Y1738D02*
X25369Y17386D01*
X25375D01*
X25369Y17392D01*
X25375Y17398D01*
X25369D01*
X25363Y17404D01*
X25357Y17398D01*
X25351D01*
X25357Y17392D01*
X25351Y17386D01*
X25357D01*
X25363Y1738D01*
X2467Y1776D02*
X2468Y1777D01*
X2469D01*
X2468Y1778D01*
X2469Y1779D01*
X2468D01*
X2467Y178D01*
X2466Y1779D01*
X2465D01*
X2466Y1778D01*
X2465Y1777D01*
X2466D01*
X2467Y1776D01*
Y17768D02*
X24676Y17774D01*
X24682D01*
X24676Y1778D01*
X24682Y17786D01*
X24676D01*
X2467Y17792D01*
X24664Y17786D01*
X24658D01*
X24664Y1778D01*
X24658Y17774D01*
X24664D01*
X2467Y17768D01*
X25279Y17206D02*
X25289Y17216D01*
X25299D01*
X25289Y17226D01*
X25299Y17236D01*
X25289D01*
X25279Y17246D01*
X25269Y17236D01*
X25259D01*
X25269Y17226D01*
X25259Y17216D01*
X25269D01*
X25279Y17206D01*
Y17214D02*
X25285Y1722D01*
X25291D01*
X25285Y17226D01*
X25291Y17232D01*
X25285D01*
X25279Y17238D01*
X25273Y17232D01*
X25267D01*
X25273Y17226D01*
X25267Y1722D01*
X25273D01*
X25279Y17214D01*
X248343Y17558D02*
X248443Y17568D01*
X248543D01*
X248443Y17578D01*
X248543Y17588D01*
X248443D01*
X248343Y17598D01*
X248243Y17588D01*
X248143D01*
X248243Y17578D01*
X248143Y17568D01*
X248243D01*
X248343Y17558D01*
Y17566D02*
X248403Y17572D01*
X248463D01*
X248403Y17578D01*
X248463Y17584D01*
X248403D01*
X248343Y1759D01*
X248283Y17584D01*
X248223D01*
X248283Y17578D01*
X248223Y17572D01*
X248283D01*
X248343Y17566D01*
X249196Y172844D02*
X249296Y172944D01*
X249396D01*
X249296Y173044D01*
X249396Y173144D01*
X249296D01*
X249196Y173244D01*
X249096Y173144D01*
X248996D01*
X249096Y173044D01*
X248996Y172944D01*
X249096D01*
X249196Y172844D01*
Y172924D02*
X249256Y172984D01*
X249316D01*
X249256Y173044D01*
X249316Y173104D01*
X249256D01*
X249196Y173164D01*
X249136Y173104D01*
X249076D01*
X249136Y173044D01*
X249076Y172984D01*
X249136D01*
X249196Y172924D01*
X249313Y17583D02*
X249413Y17593D01*
X249513D01*
X249413Y17603D01*
X249513Y17613D01*
X249413D01*
X249313Y17623D01*
X249213Y17613D01*
X249113D01*
X249213Y17603D01*
X249113Y17593D01*
X249213D01*
X249313Y17583D01*
Y17591D02*
X249373Y17597D01*
X249433D01*
X249373Y17603D01*
X249433Y17609D01*
X249373D01*
X249313Y17615D01*
X249253Y17609D01*
X249193D01*
X249253Y17603D01*
X249193Y17597D01*
X249253D01*
X249313Y17591D01*
X249838Y173988D02*
X249938Y174088D01*
X250038D01*
X249938Y174188D01*
X250038Y174288D01*
X249938D01*
X249838Y174388D01*
X249738Y174288D01*
X249638D01*
X249738Y174188D01*
X249638Y174088D01*
X249738D01*
X249838Y173988D01*
Y174068D02*
X249898Y174128D01*
X249958D01*
X249898Y174188D01*
X249958Y174248D01*
X249898D01*
X249838Y174308D01*
X249778Y174248D01*
X249718D01*
X249778Y174188D01*
X249718Y174128D01*
X249778D01*
X249838Y174068D01*
X253643Y17422D02*
X253743Y17432D01*
X253843D01*
X253743Y17442D01*
X253843Y17452D01*
X253743D01*
X253643Y17462D01*
X253543Y17452D01*
X253443D01*
X253543Y17442D01*
X253443Y17432D01*
X253543D01*
X253643Y17422D01*
Y1743D02*
X253703Y17436D01*
X253763D01*
X253703Y17442D01*
X253763Y17448D01*
X253703D01*
X253643Y17454D01*
X253583Y17448D01*
X253523D01*
X253583Y17442D01*
X253523Y17436D01*
X253583D01*
X253643Y1743D01*
X252613Y1741D02*
X252713Y1742D01*
X252813D01*
X252713Y1743D01*
X252813Y1744D01*
X252713D01*
X252613Y1745D01*
X252513Y1744D01*
X252413D01*
X252513Y1743D01*
X252413Y1742D01*
X252513D01*
X252613Y1741D01*
Y17418D02*
X252673Y17424D01*
X252733D01*
X252673Y1743D01*
X252733Y17436D01*
X252673D01*
X252613Y17442D01*
X252553Y17436D01*
X252493D01*
X252553Y1743D01*
X252493Y17424D01*
X252553D01*
X252613Y17418D01*
X246723Y17988D02*
X246823Y17998D01*
X246923D01*
X246823Y18008D01*
X246923Y18018D01*
X246823D01*
X246723Y18028D01*
X246623Y18018D01*
X246523D01*
X246623Y18008D01*
X246523Y17998D01*
X246623D01*
X246723Y17988D01*
Y17996D02*
X246783Y18002D01*
X246843D01*
X246783Y18008D01*
X246843Y18014D01*
X246783D01*
X246723Y1802D01*
X246663Y18014D01*
X246603D01*
X246663Y18008D01*
X246603Y18002D01*
X246663D01*
X246723Y17996D01*
X246713Y17816D02*
X246813Y17826D01*
X246913D01*
X246813Y17836D01*
X246913Y17846D01*
X246813D01*
X246713Y17856D01*
X246613Y17846D01*
X246513D01*
X246613Y17836D01*
X246513Y17826D01*
X246613D01*
X246713Y17816D01*
Y17824D02*
X246773Y1783D01*
X246833D01*
X246773Y17836D01*
X246833Y17842D01*
X246773D01*
X246713Y17848D01*
X246653Y17842D01*
X246593D01*
X246653Y17836D01*
X246593Y1783D01*
X246653D01*
X246713Y17824D01*
X247513Y17909D02*
X247613Y17919D01*
X247713D01*
X247613Y17929D01*
X247713Y17939D01*
X247613D01*
X247513Y17949D01*
X247413Y17939D01*
X247313D01*
X247413Y17929D01*
X247313Y17919D01*
X247413D01*
X247513Y17909D01*
Y17917D02*
X247573Y17923D01*
X247633D01*
X247573Y17929D01*
X247633Y17935D01*
X247573D01*
X247513Y17941D01*
X247453Y17935D01*
X247393D01*
X247453Y17929D01*
X247393Y17923D01*
X247453D01*
X247513Y17917D01*
X252723Y17764D02*
X252823Y17774D01*
X252923D01*
X252823Y17784D01*
X252923Y17794D01*
X252823D01*
X252723Y17804D01*
X252623Y17794D01*
X252523D01*
X252623Y17784D01*
X252523Y17774D01*
X252623D01*
X252723Y17764D01*
Y17772D02*
X252783Y17778D01*
X252843D01*
X252783Y17784D01*
X252843Y1779D01*
X252783D01*
X252723Y17796D01*
X252663Y1779D01*
X252603D01*
X252663Y17784D01*
X252603Y17778D01*
X252663D01*
X252723Y17772D01*
X250423Y17636D02*
X250523Y17646D01*
X250623D01*
X250523Y17656D01*
X250623Y17666D01*
X250523D01*
X250423Y17676D01*
X250323Y17666D01*
X250223D01*
X250323Y17656D01*
X250223Y17646D01*
X250323D01*
X250423Y17636D01*
Y17644D02*
X250483Y1765D01*
X250543D01*
X250483Y17656D01*
X250543Y17662D01*
X250483D01*
X250423Y17668D01*
X250363Y17662D01*
X250303D01*
X250363Y17656D01*
X250303Y1765D01*
X250363D01*
X250423Y17644D01*
X251343Y17393D02*
X251443Y17403D01*
X251543D01*
X251443Y17413D01*
X251543Y17423D01*
X251443D01*
X251343Y17433D01*
X251243Y17423D01*
X251143D01*
X251243Y17413D01*
X251143Y17403D01*
X251243D01*
X251343Y17393D01*
Y17401D02*
X251403Y17407D01*
X251463D01*
X251403Y17413D01*
X251463Y17419D01*
X251403D01*
X251343Y17425D01*
X251283Y17419D01*
X251223D01*
X251283Y17413D01*
X251223Y17407D01*
X251283D01*
X251343Y17401D01*
X251653Y17461D02*
X251753Y17471D01*
X251853D01*
X251753Y17481D01*
X251853Y17491D01*
X251753D01*
X251653Y17501D01*
X251553Y17491D01*
X251453D01*
X251553Y17481D01*
X251453Y17471D01*
X251553D01*
X251653Y17461D01*
Y17469D02*
X251713Y17475D01*
X251773D01*
X251713Y17481D01*
X251773Y17487D01*
X251713D01*
X251653Y17493D01*
X251593Y17487D01*
X251533D01*
X251593Y17481D01*
X251533Y17475D01*
X251593D01*
X251653Y17469D01*
X25115Y17505D02*
X25125Y17515D01*
X25135D01*
X25125Y17525D01*
X25135Y17535D01*
X25125D01*
X25115Y17545D01*
X25105Y17535D01*
X25095D01*
X25105Y17525D01*
X25095Y17515D01*
X25105D01*
X25115Y17505D01*
Y17513D02*
X25121Y17519D01*
X25127D01*
X25121Y17525D01*
X25127Y17531D01*
X25121D01*
X25115Y17537D01*
X25109Y17531D01*
X25103D01*
X25109Y17525D01*
X25103Y17519D01*
X25109D01*
X25115Y17513D01*
X249613Y17294D02*
X249713Y17304D01*
X249813D01*
X249713Y17314D01*
X249813Y17324D01*
X249713D01*
X249613Y17334D01*
X249513Y17324D01*
X249413D01*
X249513Y17314D01*
X249413Y17304D01*
X249513D01*
X249613Y17294D01*
Y17302D02*
X249673Y17308D01*
X249733D01*
X249673Y17314D01*
X249733Y1732D01*
X249673D01*
X249613Y17326D01*
X249553Y1732D01*
X249493D01*
X249553Y17314D01*
X249493Y17308D01*
X249553D01*
X249613Y17302D01*
X253623Y17284D02*
X253723Y17294D01*
X253823D01*
X253723Y17304D01*
X253823Y17314D01*
X253723D01*
X253623Y17324D01*
X253523Y17314D01*
X253423D01*
X253523Y17304D01*
X253423Y17294D01*
X253523D01*
X253623Y17284D01*
Y17292D02*
X253683Y17298D01*
X253743D01*
X253683Y17304D01*
X253743Y1731D01*
X253683D01*
X253623Y17316D01*
X253563Y1731D01*
X253503D01*
X253563Y17304D01*
X253503Y17298D01*
X253563D01*
X253623Y17292D01*
X192913Y169091D02*
X193013Y169191D01*
X193113D01*
X193013Y169291D01*
X193113Y169391D01*
X193013D01*
X192913Y169491D01*
X192813Y169391D01*
X192713D01*
X192813Y169291D01*
X192713Y169191D01*
X192813D01*
X192913Y169091D01*
Y169171D02*
X192973Y169231D01*
X193033D01*
X192973Y169291D01*
X193033Y169351D01*
X192973D01*
X192913Y169411D01*
X192853Y169351D01*
X192793D01*
X192853Y169291D01*
X192793Y169231D01*
X192853D01*
X192913Y169171D01*
X193898Y17106D02*
X193998Y17116D01*
X194098D01*
X193998Y17126D01*
X194098Y17136D01*
X193998D01*
X193898Y17146D01*
X193798Y17136D01*
X193698D01*
X193798Y17126D01*
X193698Y17116D01*
X193798D01*
X193898Y17106D01*
Y17114D02*
X193958Y1712D01*
X194018D01*
X193958Y17126D01*
X194018Y17132D01*
X193958D01*
X193898Y17138D01*
X193838Y17132D01*
X193778D01*
X193838Y17126D01*
X193778Y1712D01*
X193838D01*
X193898Y17114D01*
X192913Y173028D02*
X193013Y173128D01*
X193113D01*
X193013Y173228D01*
X193113Y173328D01*
X193013D01*
X192913Y173428D01*
X192813Y173328D01*
X192713D01*
X192813Y173228D01*
X192713Y173128D01*
X192813D01*
X192913Y173028D01*
Y173108D02*
X192973Y173168D01*
X193033D01*
X192973Y173228D01*
X193033Y173288D01*
X192973D01*
X192913Y173348D01*
X192853Y173288D01*
X192793D01*
X192853Y173228D01*
X192793Y173168D01*
X192853D01*
X192913Y173108D01*
X193898Y174997D02*
X193998Y175097D01*
X194098D01*
X193998Y175197D01*
X194098Y175297D01*
X193998D01*
X193898Y175397D01*
X193798Y175297D01*
X193698D01*
X193798Y175197D01*
X193698Y175097D01*
X193798D01*
X193898Y174997D01*
Y175077D02*
X193958Y175137D01*
X194018D01*
X193958Y175197D01*
X194018Y175257D01*
X193958D01*
X193898Y175317D01*
X193838Y175257D01*
X193778D01*
X193838Y175197D01*
X193778Y175137D01*
X193838D01*
X193898Y175077D01*
X192913Y176965D02*
X193013Y177065D01*
X193113D01*
X193013Y177165D01*
X193113Y177265D01*
X193013D01*
X192913Y177365D01*
X192813Y177265D01*
X192713D01*
X192813Y177165D01*
X192713Y177065D01*
X192813D01*
X192913Y176965D01*
Y177045D02*
X192973Y177105D01*
X193033D01*
X192973Y177165D01*
X193033Y177225D01*
X192973D01*
X192913Y177285D01*
X192853Y177225D01*
X192793D01*
X192853Y177165D01*
X192793Y177105D01*
X192853D01*
X192913Y177045D01*
X193898Y178934D02*
X193998Y179034D01*
X194098D01*
X193998Y179134D01*
X194098Y179234D01*
X193998D01*
X193898Y179334D01*
X193798Y179234D01*
X193698D01*
X193798Y179134D01*
X193698Y179034D01*
X193798D01*
X193898Y178934D01*
Y179014D02*
X193958Y179074D01*
X194018D01*
X193958Y179134D01*
X194018Y179194D01*
X193958D01*
X193898Y179254D01*
X193838Y179194D01*
X193778D01*
X193838Y179134D01*
X193778Y179074D01*
X193838D01*
X193898Y179014D01*
X192913Y180902D02*
X193013Y181002D01*
X193113D01*
X193013Y181102D01*
X193113Y181202D01*
X193013D01*
X192913Y181302D01*
X192813Y181202D01*
X192713D01*
X192813Y181102D01*
X192713Y181002D01*
X192813D01*
X192913Y180902D01*
Y180982D02*
X192973Y181042D01*
X193033D01*
X192973Y181102D01*
X193033Y181162D01*
X192973D01*
X192913Y181222D01*
X192853Y181162D01*
X192793D01*
X192853Y181102D01*
X192793Y181042D01*
X192853D01*
X192913Y180982D01*
X193898Y182871D02*
X193998Y182971D01*
X194098D01*
X193998Y183071D01*
X194098Y183171D01*
X193998D01*
X193898Y183271D01*
X193798Y183171D01*
X193698D01*
X193798Y183071D01*
X193698Y182971D01*
X193798D01*
X193898Y182871D01*
Y182951D02*
X193958Y183011D01*
X194018D01*
X193958Y183071D01*
X194018Y183131D01*
X193958D01*
X193898Y183191D01*
X193838Y183131D01*
X193778D01*
X193838Y183071D01*
X193778Y183011D01*
X193838D01*
X193898Y182951D01*
X194882Y169091D02*
X194982Y169191D01*
X195082D01*
X194982Y169291D01*
X195082Y169391D01*
X194982D01*
X194882Y169491D01*
X194782Y169391D01*
X194682D01*
X194782Y169291D01*
X194682Y169191D01*
X194782D01*
X194882Y169091D01*
Y169171D02*
X194942Y169231D01*
X195002D01*
X194942Y169291D01*
X195002Y169351D01*
X194942D01*
X194882Y169411D01*
X194822Y169351D01*
X194762D01*
X194822Y169291D01*
X194762Y169231D01*
X194822D01*
X194882Y169171D01*
X19685Y173028D02*
X19695Y173128D01*
X19705D01*
X19695Y173228D01*
X19705Y173328D01*
X19695D01*
X19685Y173428D01*
X19675Y173328D01*
X19665D01*
X19675Y173228D01*
X19665Y173128D01*
X19675D01*
X19685Y173028D01*
Y173108D02*
X19691Y173168D01*
X19697D01*
X19691Y173228D01*
X19697Y173288D01*
X19691D01*
X19685Y173348D01*
X19679Y173288D01*
X19673D01*
X19679Y173228D01*
X19673Y173168D01*
X19679D01*
X19685Y173108D01*
X197835Y174997D02*
X197935Y175097D01*
X198035D01*
X197935Y175197D01*
X198035Y175297D01*
X197935D01*
X197835Y175397D01*
X197735Y175297D01*
X197635D01*
X197735Y175197D01*
X197635Y175097D01*
X197735D01*
X197835Y174997D01*
Y175077D02*
X197895Y175137D01*
X197955D01*
X197895Y175197D01*
X197955Y175257D01*
X197895D01*
X197835Y175317D01*
X197775Y175257D01*
X197715D01*
X197775Y175197D01*
X197715Y175137D01*
X197775D01*
X197835Y175077D01*
X198819Y169091D02*
X198919Y169191D01*
X199019D01*
X198919Y169291D01*
X199019Y169391D01*
X198919D01*
X198819Y169491D01*
X198719Y169391D01*
X198619D01*
X198719Y169291D01*
X198619Y169191D01*
X198719D01*
X198819Y169091D01*
Y169171D02*
X198879Y169231D01*
X198939D01*
X198879Y169291D01*
X198939Y169351D01*
X198879D01*
X198819Y169411D01*
X198759Y169351D01*
X198699D01*
X198759Y169291D01*
X198699Y169231D01*
X198759D01*
X198819Y169171D01*
X199803Y174997D02*
X199903Y175097D01*
X200003D01*
X199903Y175197D01*
X200003Y175297D01*
X199903D01*
X199803Y175397D01*
X199703Y175297D01*
X199603D01*
X199703Y175197D01*
X199603Y175097D01*
X199703D01*
X199803Y174997D01*
Y175077D02*
X199863Y175137D01*
X199923D01*
X199863Y175197D01*
X199923Y175257D01*
X199863D01*
X199803Y175317D01*
X199743Y175257D01*
X199683D01*
X199743Y175197D01*
X199683Y175137D01*
X199743D01*
X199803Y175077D01*
X198819Y184839D02*
X198919Y184939D01*
X199019D01*
X198919Y185039D01*
X199019Y185139D01*
X198919D01*
X198819Y185239D01*
X198719Y185139D01*
X198619D01*
X198719Y185039D01*
X198619Y184939D01*
X198719D01*
X198819Y184839D01*
Y184919D02*
X198879Y184979D01*
X198939D01*
X198879Y185039D01*
X198939Y185099D01*
X198879D01*
X198819Y185159D01*
X198759Y185099D01*
X198699D01*
X198759Y185039D01*
X198699Y184979D01*
X198759D01*
X198819Y184919D01*
X201772Y151375D02*
X201872Y151475D01*
X201972D01*
X201872Y151575D01*
X201972Y151675D01*
X201872D01*
X201772Y151775D01*
X201672Y151675D01*
X201572D01*
X201672Y151575D01*
X201572Y151475D01*
X201672D01*
X201772Y151375D01*
Y151455D02*
X201832Y151515D01*
X201892D01*
X201832Y151575D01*
X201892Y151635D01*
X201832D01*
X201772Y151695D01*
X201712Y151635D01*
X201652D01*
X201712Y151575D01*
X201652Y151515D01*
X201712D01*
X201772Y151455D01*
Y155312D02*
X201872Y155412D01*
X201972D01*
X201872Y155512D01*
X201972Y155612D01*
X201872D01*
X201772Y155712D01*
X201672Y155612D01*
X201572D01*
X201672Y155512D01*
X201572Y155412D01*
X201672D01*
X201772Y155312D01*
Y155392D02*
X201832Y155452D01*
X201892D01*
X201832Y155512D01*
X201892Y155572D01*
X201832D01*
X201772Y155632D01*
X201712Y155572D01*
X201652D01*
X201712Y155512D01*
X201652Y155452D01*
X201712D01*
X201772Y155392D01*
Y159249D02*
X201872Y159349D01*
X201972D01*
X201872Y159449D01*
X201972Y159549D01*
X201872D01*
X201772Y159649D01*
X201672Y159549D01*
X201572D01*
X201672Y159449D01*
X201572Y159349D01*
X201672D01*
X201772Y159249D01*
Y159329D02*
X201832Y159389D01*
X201892D01*
X201832Y159449D01*
X201892Y159509D01*
X201832D01*
X201772Y159569D01*
X201712Y159509D01*
X201652D01*
X201712Y159449D01*
X201652Y159389D01*
X201712D01*
X201772Y159329D01*
Y167123D02*
X201872Y167223D01*
X201972D01*
X201872Y167323D01*
X201972Y167423D01*
X201872D01*
X201772Y167523D01*
X201672Y167423D01*
X201572D01*
X201672Y167323D01*
X201572Y167223D01*
X201672D01*
X201772Y167123D01*
Y167203D02*
X201832Y167263D01*
X201892D01*
X201832Y167323D01*
X201892Y167383D01*
X201832D01*
X201772Y167443D01*
X201712Y167383D01*
X201652D01*
X201712Y167323D01*
X201652Y167263D01*
X201712D01*
X201772Y167203D01*
X200787Y169091D02*
X200887Y169191D01*
X200987D01*
X200887Y169291D01*
X200987Y169391D01*
X200887D01*
X200787Y169491D01*
X200687Y169391D01*
X200587D01*
X200687Y169291D01*
X200587Y169191D01*
X200687D01*
X200787Y169091D01*
Y169171D02*
X200847Y169231D01*
X200907D01*
X200847Y169291D01*
X200907Y169351D01*
X200847D01*
X200787Y169411D01*
X200727Y169351D01*
X200667D01*
X200727Y169291D01*
X200667Y169231D01*
X200727D01*
X200787Y169171D01*
X201772Y174997D02*
X201872Y175097D01*
X201972D01*
X201872Y175197D01*
X201972Y175297D01*
X201872D01*
X201772Y175397D01*
X201672Y175297D01*
X201572D01*
X201672Y175197D01*
X201572Y175097D01*
X201672D01*
X201772Y174997D01*
Y175077D02*
X201832Y175137D01*
X201892D01*
X201832Y175197D01*
X201892Y175257D01*
X201832D01*
X201772Y175317D01*
X201712Y175257D01*
X201652D01*
X201712Y175197D01*
X201652Y175137D01*
X201712D01*
X201772Y175077D01*
X202756Y149406D02*
X202856Y149506D01*
X202956D01*
X202856Y149606D01*
X202956Y149706D01*
X202856D01*
X202756Y149806D01*
X202656Y149706D01*
X202556D01*
X202656Y149606D01*
X202556Y149506D01*
X202656D01*
X202756Y149406D01*
Y149486D02*
X202816Y149546D01*
X202876D01*
X202816Y149606D01*
X202876Y149666D01*
X202816D01*
X202756Y149726D01*
X202696Y149666D01*
X202636D01*
X202696Y149606D01*
X202636Y149546D01*
X202696D01*
X202756Y149486D01*
Y153343D02*
X202856Y153443D01*
X202956D01*
X202856Y153543D01*
X202956Y153643D01*
X202856D01*
X202756Y153743D01*
X202656Y153643D01*
X202556D01*
X202656Y153543D01*
X202556Y153443D01*
X202656D01*
X202756Y153343D01*
Y153423D02*
X202816Y153483D01*
X202876D01*
X202816Y153543D01*
X202876Y153603D01*
X202816D01*
X202756Y153663D01*
X202696Y153603D01*
X202636D01*
X202696Y153543D01*
X202636Y153483D01*
X202696D01*
X202756Y153423D01*
Y15728D02*
X202856Y15738D01*
X202956D01*
X202856Y15748D01*
X202956Y15758D01*
X202856D01*
X202756Y15768D01*
X202656Y15758D01*
X202556D01*
X202656Y15748D01*
X202556Y15738D01*
X202656D01*
X202756Y15728D01*
Y15736D02*
X202816Y15742D01*
X202876D01*
X202816Y15748D01*
X202876Y15754D01*
X202816D01*
X202756Y1576D01*
X202696Y15754D01*
X202636D01*
X202696Y15748D01*
X202636Y15742D01*
X202696D01*
X202756Y15736D01*
X20374Y159249D02*
X20384Y159349D01*
X20394D01*
X20384Y159449D01*
X20394Y159549D01*
X20384D01*
X20374Y159649D01*
X20364Y159549D01*
X20354D01*
X20364Y159449D01*
X20354Y159349D01*
X20364D01*
X20374Y159249D01*
Y159329D02*
X2038Y159389D01*
X20386D01*
X2038Y159449D01*
X20386Y159509D01*
X2038D01*
X20374Y159569D01*
X20368Y159509D01*
X20362D01*
X20368Y159449D01*
X20362Y159389D01*
X20368D01*
X20374Y159329D01*
X202756Y161217D02*
X202856Y161317D01*
X202956D01*
X202856Y161417D01*
X202956Y161517D01*
X202856D01*
X202756Y161617D01*
X202656Y161517D01*
X202556D01*
X202656Y161417D01*
X202556Y161317D01*
X202656D01*
X202756Y161217D01*
Y161297D02*
X202816Y161357D01*
X202876D01*
X202816Y161417D01*
X202876Y161477D01*
X202816D01*
X202756Y161537D01*
X202696Y161477D01*
X202636D01*
X202696Y161417D01*
X202636Y161357D01*
X202696D01*
X202756Y161297D01*
Y165154D02*
X202856Y165254D01*
X202956D01*
X202856Y165354D01*
X202956Y165454D01*
X202856D01*
X202756Y165554D01*
X202656Y165454D01*
X202556D01*
X202656Y165354D01*
X202556Y165254D01*
X202656D01*
X202756Y165154D01*
Y165234D02*
X202816Y165294D01*
X202876D01*
X202816Y165354D01*
X202876Y165414D01*
X202816D01*
X202756Y165474D01*
X202696Y165414D01*
X202636D01*
X202696Y165354D01*
X202636Y165294D01*
X202696D01*
X202756Y165234D01*
Y173028D02*
X202856Y173128D01*
X202956D01*
X202856Y173228D01*
X202956Y173328D01*
X202856D01*
X202756Y173428D01*
X202656Y173328D01*
X202556D01*
X202656Y173228D01*
X202556Y173128D01*
X202656D01*
X202756Y173028D01*
Y173108D02*
X202816Y173168D01*
X202876D01*
X202816Y173228D01*
X202876Y173288D01*
X202816D01*
X202756Y173348D01*
X202696Y173288D01*
X202636D01*
X202696Y173228D01*
X202636Y173168D01*
X202696D01*
X202756Y173108D01*
X20374Y174997D02*
X20384Y175097D01*
X20394D01*
X20384Y175197D01*
X20394Y175297D01*
X20384D01*
X20374Y175397D01*
X20364Y175297D01*
X20354D01*
X20364Y175197D01*
X20354Y175097D01*
X20364D01*
X20374Y174997D01*
Y175077D02*
X2038Y175137D01*
X20386D01*
X2038Y175197D01*
X20386Y175257D01*
X2038D01*
X20374Y175317D01*
X20368Y175257D01*
X20362D01*
X20368Y175197D01*
X20362Y175137D01*
X20368D01*
X20374Y175077D01*
X204724Y149406D02*
X204824Y149506D01*
X204924D01*
X204824Y149606D01*
X204924Y149706D01*
X204824D01*
X204724Y149806D01*
X204624Y149706D01*
X204524D01*
X204624Y149606D01*
X204524Y149506D01*
X204624D01*
X204724Y149406D01*
Y149486D02*
X204784Y149546D01*
X204844D01*
X204784Y149606D01*
X204844Y149666D01*
X204784D01*
X204724Y149726D01*
X204664Y149666D01*
X204604D01*
X204664Y149606D01*
X204604Y149546D01*
X204664D01*
X204724Y149486D01*
Y153343D02*
X204824Y153443D01*
X204924D01*
X204824Y153543D01*
X204924Y153643D01*
X204824D01*
X204724Y153743D01*
X204624Y153643D01*
X204524D01*
X204624Y153543D01*
X204524Y153443D01*
X204624D01*
X204724Y153343D01*
Y153423D02*
X204784Y153483D01*
X204844D01*
X204784Y153543D01*
X204844Y153603D01*
X204784D01*
X204724Y153663D01*
X204664Y153603D01*
X204604D01*
X204664Y153543D01*
X204604Y153483D01*
X204664D01*
X204724Y153423D01*
Y161217D02*
X204824Y161317D01*
X204924D01*
X204824Y161417D01*
X204924Y161517D01*
X204824D01*
X204724Y161617D01*
X204624Y161517D01*
X204524D01*
X204624Y161417D01*
X204524Y161317D01*
X204624D01*
X204724Y161217D01*
Y161297D02*
X204784Y161357D01*
X204844D01*
X204784Y161417D01*
X204844Y161477D01*
X204784D01*
X204724Y161537D01*
X204664Y161477D01*
X204604D01*
X204664Y161417D01*
X204604Y161357D01*
X204664D01*
X204724Y161297D01*
Y165154D02*
X204824Y165254D01*
X204924D01*
X204824Y165354D01*
X204924Y165454D01*
X204824D01*
X204724Y165554D01*
X204624Y165454D01*
X204524D01*
X204624Y165354D01*
X204524Y165254D01*
X204624D01*
X204724Y165154D01*
Y165234D02*
X204784Y165294D01*
X204844D01*
X204784Y165354D01*
X204844Y165414D01*
X204784D01*
X204724Y165474D01*
X204664Y165414D01*
X204604D01*
X204664Y165354D01*
X204604Y165294D01*
X204664D01*
X204724Y165234D01*
Y169091D02*
X204824Y169191D01*
X204924D01*
X204824Y169291D01*
X204924Y169391D01*
X204824D01*
X204724Y169491D01*
X204624Y169391D01*
X204524D01*
X204624Y169291D01*
X204524Y169191D01*
X204624D01*
X204724Y169091D01*
Y169171D02*
X204784Y169231D01*
X204844D01*
X204784Y169291D01*
X204844Y169351D01*
X204784D01*
X204724Y169411D01*
X204664Y169351D01*
X204604D01*
X204664Y169291D01*
X204604Y169231D01*
X204664D01*
X204724Y169171D01*
X205709Y174997D02*
X205809Y175097D01*
X205909D01*
X205809Y175197D01*
X205909Y175297D01*
X205809D01*
X205709Y175397D01*
X205609Y175297D01*
X205509D01*
X205609Y175197D01*
X205509Y175097D01*
X205609D01*
X205709Y174997D01*
Y175077D02*
X205769Y175137D01*
X205829D01*
X205769Y175197D01*
X205829Y175257D01*
X205769D01*
X205709Y175317D01*
X205649Y175257D01*
X205589D01*
X205649Y175197D01*
X205589Y175137D01*
X205649D01*
X205709Y175077D01*
X206693Y149406D02*
X206793Y149506D01*
X206893D01*
X206793Y149606D01*
X206893Y149706D01*
X206793D01*
X206693Y149806D01*
X206593Y149706D01*
X206493D01*
X206593Y149606D01*
X206493Y149506D01*
X206593D01*
X206693Y149406D01*
Y149486D02*
X206753Y149546D01*
X206813D01*
X206753Y149606D01*
X206813Y149666D01*
X206753D01*
X206693Y149726D01*
X206633Y149666D01*
X206573D01*
X206633Y149606D01*
X206573Y149546D01*
X206633D01*
X206693Y149486D01*
Y153343D02*
X206793Y153443D01*
X206893D01*
X206793Y153543D01*
X206893Y153643D01*
X206793D01*
X206693Y153743D01*
X206593Y153643D01*
X206493D01*
X206593Y153543D01*
X206493Y153443D01*
X206593D01*
X206693Y153343D01*
Y153423D02*
X206753Y153483D01*
X206813D01*
X206753Y153543D01*
X206813Y153603D01*
X206753D01*
X206693Y153663D01*
X206633Y153603D01*
X206573D01*
X206633Y153543D01*
X206573Y153483D01*
X206633D01*
X206693Y153423D01*
Y161217D02*
X206793Y161317D01*
X206893D01*
X206793Y161417D01*
X206893Y161517D01*
X206793D01*
X206693Y161617D01*
X206593Y161517D01*
X206493D01*
X206593Y161417D01*
X206493Y161317D01*
X206593D01*
X206693Y161217D01*
Y161297D02*
X206753Y161357D01*
X206813D01*
X206753Y161417D01*
X206813Y161477D01*
X206753D01*
X206693Y161537D01*
X206633Y161477D01*
X206573D01*
X206633Y161417D01*
X206573Y161357D01*
X206633D01*
X206693Y161297D01*
X208661Y149406D02*
X208761Y149506D01*
X208861D01*
X208761Y149606D01*
X208861Y149706D01*
X208761D01*
X208661Y149806D01*
X208561Y149706D01*
X208461D01*
X208561Y149606D01*
X208461Y149506D01*
X208561D01*
X208661Y149406D01*
Y149486D02*
X208721Y149546D01*
X208781D01*
X208721Y149606D01*
X208781Y149666D01*
X208721D01*
X208661Y149726D01*
X208601Y149666D01*
X208541D01*
X208601Y149606D01*
X208541Y149546D01*
X208601D01*
X208661Y149486D01*
Y153343D02*
X208761Y153443D01*
X208861D01*
X208761Y153543D01*
X208861Y153643D01*
X208761D01*
X208661Y153743D01*
X208561Y153643D01*
X208461D01*
X208561Y153543D01*
X208461Y153443D01*
X208561D01*
X208661Y153343D01*
Y153423D02*
X208721Y153483D01*
X208781D01*
X208721Y153543D01*
X208781Y153603D01*
X208721D01*
X208661Y153663D01*
X208601Y153603D01*
X208541D01*
X208601Y153543D01*
X208541Y153483D01*
X208601D01*
X208661Y153423D01*
Y161217D02*
X208761Y161317D01*
X208861D01*
X208761Y161417D01*
X208861Y161517D01*
X208761D01*
X208661Y161617D01*
X208561Y161517D01*
X208461D01*
X208561Y161417D01*
X208461Y161317D01*
X208561D01*
X208661Y161217D01*
Y161297D02*
X208721Y161357D01*
X208781D01*
X208721Y161417D01*
X208781Y161477D01*
X208721D01*
X208661Y161537D01*
X208601Y161477D01*
X208541D01*
X208601Y161417D01*
X208541Y161357D01*
X208601D01*
X208661Y161297D01*
Y173028D02*
X208761Y173128D01*
X208861D01*
X208761Y173228D01*
X208861Y173328D01*
X208761D01*
X208661Y173428D01*
X208561Y173328D01*
X208461D01*
X208561Y173228D01*
X208461Y173128D01*
X208561D01*
X208661Y173028D01*
Y173108D02*
X208721Y173168D01*
X208781D01*
X208721Y173228D01*
X208781Y173288D01*
X208721D01*
X208661Y173348D01*
X208601Y173288D01*
X208541D01*
X208601Y173228D01*
X208541Y173168D01*
X208601D01*
X208661Y173108D01*
X209646Y174997D02*
X209746Y175097D01*
X209846D01*
X209746Y175197D01*
X209846Y175297D01*
X209746D01*
X209646Y175397D01*
X209546Y175297D01*
X209446D01*
X209546Y175197D01*
X209446Y175097D01*
X209546D01*
X209646Y174997D01*
Y175077D02*
X209706Y175137D01*
X209766D01*
X209706Y175197D01*
X209766Y175257D01*
X209706D01*
X209646Y175317D01*
X209586Y175257D01*
X209526D01*
X209586Y175197D01*
X209526Y175137D01*
X209586D01*
X209646Y175077D01*
X21063Y149406D02*
X21073Y149506D01*
X21083D01*
X21073Y149606D01*
X21083Y149706D01*
X21073D01*
X21063Y149806D01*
X21053Y149706D01*
X21043D01*
X21053Y149606D01*
X21043Y149506D01*
X21053D01*
X21063Y149406D01*
Y149486D02*
X21069Y149546D01*
X21075D01*
X21069Y149606D01*
X21075Y149666D01*
X21069D01*
X21063Y149726D01*
X21057Y149666D01*
X21051D01*
X21057Y149606D01*
X21051Y149546D01*
X21057D01*
X21063Y149486D01*
Y153343D02*
X21073Y153443D01*
X21083D01*
X21073Y153543D01*
X21083Y153643D01*
X21073D01*
X21063Y153743D01*
X21053Y153643D01*
X21043D01*
X21053Y153543D01*
X21043Y153443D01*
X21053D01*
X21063Y153343D01*
Y153423D02*
X21069Y153483D01*
X21075D01*
X21069Y153543D01*
X21075Y153603D01*
X21069D01*
X21063Y153663D01*
X21057Y153603D01*
X21051D01*
X21057Y153543D01*
X21051Y153483D01*
X21057D01*
X21063Y153423D01*
Y161217D02*
X21073Y161317D01*
X21083D01*
X21073Y161417D01*
X21083Y161517D01*
X21073D01*
X21063Y161617D01*
X21053Y161517D01*
X21043D01*
X21053Y161417D01*
X21043Y161317D01*
X21053D01*
X21063Y161217D01*
Y161297D02*
X21069Y161357D01*
X21075D01*
X21069Y161417D01*
X21075Y161477D01*
X21069D01*
X21063Y161537D01*
X21057Y161477D01*
X21051D01*
X21057Y161417D01*
X21051Y161357D01*
X21057D01*
X21063Y161297D01*
X211614Y174997D02*
X211714Y175097D01*
X211814D01*
X211714Y175197D01*
X211814Y175297D01*
X211714D01*
X211614Y175397D01*
X211514Y175297D01*
X211414D01*
X211514Y175197D01*
X211414Y175097D01*
X211514D01*
X211614Y174997D01*
Y175077D02*
X211674Y175137D01*
X211734D01*
X211674Y175197D01*
X211734Y175257D01*
X211674D01*
X211614Y175317D01*
X211554Y175257D01*
X211494D01*
X211554Y175197D01*
X211494Y175137D01*
X211554D01*
X211614Y175077D01*
X212598Y149406D02*
X212698Y149506D01*
X212798D01*
X212698Y149606D01*
X212798Y149706D01*
X212698D01*
X212598Y149806D01*
X212498Y149706D01*
X212398D01*
X212498Y149606D01*
X212398Y149506D01*
X212498D01*
X212598Y149406D01*
Y149486D02*
X212658Y149546D01*
X212718D01*
X212658Y149606D01*
X212718Y149666D01*
X212658D01*
X212598Y149726D01*
X212538Y149666D01*
X212478D01*
X212538Y149606D01*
X212478Y149546D01*
X212538D01*
X212598Y149486D01*
Y153343D02*
X212698Y153443D01*
X212798D01*
X212698Y153543D01*
X212798Y153643D01*
X212698D01*
X212598Y153743D01*
X212498Y153643D01*
X212398D01*
X212498Y153543D01*
X212398Y153443D01*
X212498D01*
X212598Y153343D01*
Y153423D02*
X212658Y153483D01*
X212718D01*
X212658Y153543D01*
X212718Y153603D01*
X212658D01*
X212598Y153663D01*
X212538Y153603D01*
X212478D01*
X212538Y153543D01*
X212478Y153483D01*
X212538D01*
X212598Y153423D01*
X213583Y155312D02*
X213683Y155412D01*
X213783D01*
X213683Y155512D01*
X213783Y155612D01*
X213683D01*
X213583Y155712D01*
X213483Y155612D01*
X213383D01*
X213483Y155512D01*
X213383Y155412D01*
X213483D01*
X213583Y155312D01*
Y155392D02*
X213643Y155452D01*
X213703D01*
X213643Y155512D01*
X213703Y155572D01*
X213643D01*
X213583Y155632D01*
X213523Y155572D01*
X213463D01*
X213523Y155512D01*
X213463Y155452D01*
X213523D01*
X213583Y155392D01*
Y17106D02*
X213683Y17116D01*
X213783D01*
X213683Y17126D01*
X213783Y17136D01*
X213683D01*
X213583Y17146D01*
X213483Y17136D01*
X213383D01*
X213483Y17126D01*
X213383Y17116D01*
X213483D01*
X213583Y17106D01*
Y17114D02*
X213643Y1712D01*
X213703D01*
X213643Y17126D01*
X213703Y17132D01*
X213643D01*
X213583Y17138D01*
X213523Y17132D01*
X213463D01*
X213523Y17126D01*
X213463Y1712D01*
X213523D01*
X213583Y17114D01*
Y174997D02*
X213683Y175097D01*
X213783D01*
X213683Y175197D01*
X213783Y175297D01*
X213683D01*
X213583Y175397D01*
X213483Y175297D01*
X213383D01*
X213483Y175197D01*
X213383Y175097D01*
X213483D01*
X213583Y174997D01*
Y175077D02*
X213643Y175137D01*
X213703D01*
X213643Y175197D01*
X213703Y175257D01*
X213643D01*
X213583Y175317D01*
X213523Y175257D01*
X213463D01*
X213523Y175197D01*
X213463Y175137D01*
X213523D01*
X213583Y175077D01*
X214567Y149406D02*
X214667Y149506D01*
X214767D01*
X214667Y149606D01*
X214767Y149706D01*
X214667D01*
X214567Y149806D01*
X214467Y149706D01*
X214367D01*
X214467Y149606D01*
X214367Y149506D01*
X214467D01*
X214567Y149406D01*
Y149486D02*
X214627Y149546D01*
X214687D01*
X214627Y149606D01*
X214687Y149666D01*
X214627D01*
X214567Y149726D01*
X214507Y149666D01*
X214447D01*
X214507Y149606D01*
X214447Y149546D01*
X214507D01*
X214567Y149486D01*
X215551Y17106D02*
X215651Y17116D01*
X215751D01*
X215651Y17126D01*
X215751Y17136D01*
X215651D01*
X215551Y17146D01*
X215451Y17136D01*
X215351D01*
X215451Y17126D01*
X215351Y17116D01*
X215451D01*
X215551Y17106D01*
Y17114D02*
X215611Y1712D01*
X215671D01*
X215611Y17126D01*
X215671Y17132D01*
X215611D01*
X215551Y17138D01*
X215491Y17132D01*
X215431D01*
X215491Y17126D01*
X215431Y1712D01*
X215491D01*
X215551Y17114D01*
Y174997D02*
X215651Y175097D01*
X215751D01*
X215651Y175197D01*
X215751Y175297D01*
X215651D01*
X215551Y175397D01*
X215451Y175297D01*
X215351D01*
X215451Y175197D01*
X215351Y175097D01*
X215451D01*
X215551Y174997D01*
Y175077D02*
X215611Y175137D01*
X215671D01*
X215611Y175197D01*
X215671Y175257D01*
X215611D01*
X215551Y175317D01*
X215491Y175257D01*
X215431D01*
X215491Y175197D01*
X215431Y175137D01*
X215491D01*
X215551Y175077D01*
X216535Y149406D02*
X216635Y149506D01*
X216735D01*
X216635Y149606D01*
X216735Y149706D01*
X216635D01*
X216535Y149806D01*
X216435Y149706D01*
X216335D01*
X216435Y149606D01*
X216335Y149506D01*
X216435D01*
X216535Y149406D01*
Y149486D02*
X216595Y149546D01*
X216655D01*
X216595Y149606D01*
X216655Y149666D01*
X216595D01*
X216535Y149726D01*
X216475Y149666D01*
X216415D01*
X216475Y149606D01*
X216415Y149546D01*
X216475D01*
X216535Y149486D01*
Y153343D02*
X216635Y153443D01*
X216735D01*
X216635Y153543D01*
X216735Y153643D01*
X216635D01*
X216535Y153743D01*
X216435Y153643D01*
X216335D01*
X216435Y153543D01*
X216335Y153443D01*
X216435D01*
X216535Y153343D01*
Y153423D02*
X216595Y153483D01*
X216655D01*
X216595Y153543D01*
X216655Y153603D01*
X216595D01*
X216535Y153663D01*
X216475Y153603D01*
X216415D01*
X216475Y153543D01*
X216415Y153483D01*
X216475D01*
X216535Y153423D01*
Y15728D02*
X216635Y15738D01*
X216735D01*
X216635Y15748D01*
X216735Y15758D01*
X216635D01*
X216535Y15768D01*
X216435Y15758D01*
X216335D01*
X216435Y15748D01*
X216335Y15738D01*
X216435D01*
X216535Y15728D01*
Y15736D02*
X216595Y15742D01*
X216655D01*
X216595Y15748D01*
X216655Y15754D01*
X216595D01*
X216535Y1576D01*
X216475Y15754D01*
X216415D01*
X216475Y15748D01*
X216415Y15742D01*
X216475D01*
X216535Y15736D01*
Y161217D02*
X216635Y161317D01*
X216735D01*
X216635Y161417D01*
X216735Y161517D01*
X216635D01*
X216535Y161617D01*
X216435Y161517D01*
X216335D01*
X216435Y161417D01*
X216335Y161317D01*
X216435D01*
X216535Y161217D01*
Y161297D02*
X216595Y161357D01*
X216655D01*
X216595Y161417D01*
X216655Y161477D01*
X216595D01*
X216535Y161537D01*
X216475Y161477D01*
X216415D01*
X216475Y161417D01*
X216415Y161357D01*
X216475D01*
X216535Y161297D01*
X21752Y17106D02*
X21762Y17116D01*
X21772D01*
X21762Y17126D01*
X21772Y17136D01*
X21762D01*
X21752Y17146D01*
X21742Y17136D01*
X21732D01*
X21742Y17126D01*
X21732Y17116D01*
X21742D01*
X21752Y17106D01*
Y17114D02*
X21758Y1712D01*
X21764D01*
X21758Y17126D01*
X21764Y17132D01*
X21758D01*
X21752Y17138D01*
X21746Y17132D01*
X2174D01*
X21746Y17126D01*
X2174Y1712D01*
X21746D01*
X21752Y17114D01*
Y174997D02*
X21762Y175097D01*
X21772D01*
X21762Y175197D01*
X21772Y175297D01*
X21762D01*
X21752Y175397D01*
X21742Y175297D01*
X21732D01*
X21742Y175197D01*
X21732Y175097D01*
X21742D01*
X21752Y174997D01*
Y175077D02*
X21758Y175137D01*
X21764D01*
X21758Y175197D01*
X21764Y175257D01*
X21758D01*
X21752Y175317D01*
X21746Y175257D01*
X2174D01*
X21746Y175197D01*
X2174Y175137D01*
X21746D01*
X21752Y175077D01*
X218504Y149406D02*
X218604Y149506D01*
X218704D01*
X218604Y149606D01*
X218704Y149706D01*
X218604D01*
X218504Y149806D01*
X218404Y149706D01*
X218304D01*
X218404Y149606D01*
X218304Y149506D01*
X218404D01*
X218504Y149406D01*
Y149486D02*
X218564Y149546D01*
X218624D01*
X218564Y149606D01*
X218624Y149666D01*
X218564D01*
X218504Y149726D01*
X218444Y149666D01*
X218384D01*
X218444Y149606D01*
X218384Y149546D01*
X218444D01*
X218504Y149486D01*
X219488Y151375D02*
X219588Y151475D01*
X219688D01*
X219588Y151575D01*
X219688Y151675D01*
X219588D01*
X219488Y151775D01*
X219388Y151675D01*
X219288D01*
X219388Y151575D01*
X219288Y151475D01*
X219388D01*
X219488Y151375D01*
Y151455D02*
X219548Y151515D01*
X219608D01*
X219548Y151575D01*
X219608Y151635D01*
X219548D01*
X219488Y151695D01*
X219428Y151635D01*
X219368D01*
X219428Y151575D01*
X219368Y151515D01*
X219428D01*
X219488Y151455D01*
X218504Y153343D02*
X218604Y153443D01*
X218704D01*
X218604Y153543D01*
X218704Y153643D01*
X218604D01*
X218504Y153743D01*
X218404Y153643D01*
X218304D01*
X218404Y153543D01*
X218304Y153443D01*
X218404D01*
X218504Y153343D01*
Y153423D02*
X218564Y153483D01*
X218624D01*
X218564Y153543D01*
X218624Y153603D01*
X218564D01*
X218504Y153663D01*
X218444Y153603D01*
X218384D01*
X218444Y153543D01*
X218384Y153483D01*
X218444D01*
X218504Y153423D01*
X219488Y155312D02*
X219588Y155412D01*
X219688D01*
X219588Y155512D01*
X219688Y155612D01*
X219588D01*
X219488Y155712D01*
X219388Y155612D01*
X219288D01*
X219388Y155512D01*
X219288Y155412D01*
X219388D01*
X219488Y155312D01*
Y155392D02*
X219548Y155452D01*
X219608D01*
X219548Y155512D01*
X219608Y155572D01*
X219548D01*
X219488Y155632D01*
X219428Y155572D01*
X219368D01*
X219428Y155512D01*
X219368Y155452D01*
X219428D01*
X219488Y155392D01*
Y17106D02*
X219588Y17116D01*
X219688D01*
X219588Y17126D01*
X219688Y17136D01*
X219588D01*
X219488Y17146D01*
X219388Y17136D01*
X219288D01*
X219388Y17126D01*
X219288Y17116D01*
X219388D01*
X219488Y17106D01*
Y17114D02*
X219548Y1712D01*
X219608D01*
X219548Y17126D01*
X219608Y17132D01*
X219548D01*
X219488Y17138D01*
X219428Y17132D01*
X219368D01*
X219428Y17126D01*
X219368Y1712D01*
X219428D01*
X219488Y17114D01*
X220472Y149406D02*
X220572Y149506D01*
X220672D01*
X220572Y149606D01*
X220672Y149706D01*
X220572D01*
X220472Y149806D01*
X220372Y149706D01*
X220272D01*
X220372Y149606D01*
X220272Y149506D01*
X220372D01*
X220472Y149406D01*
Y149486D02*
X220532Y149546D01*
X220592D01*
X220532Y149606D01*
X220592Y149666D01*
X220532D01*
X220472Y149726D01*
X220412Y149666D01*
X220352D01*
X220412Y149606D01*
X220352Y149546D01*
X220412D01*
X220472Y149486D01*
Y153343D02*
X220572Y153443D01*
X220672D01*
X220572Y153543D01*
X220672Y153643D01*
X220572D01*
X220472Y153743D01*
X220372Y153643D01*
X220272D01*
X220372Y153543D01*
X220272Y153443D01*
X220372D01*
X220472Y153343D01*
Y153423D02*
X220532Y153483D01*
X220592D01*
X220532Y153543D01*
X220592Y153603D01*
X220532D01*
X220472Y153663D01*
X220412Y153603D01*
X220352D01*
X220412Y153543D01*
X220352Y153483D01*
X220412D01*
X220472Y153423D01*
X221457Y174997D02*
X221557Y175097D01*
X221657D01*
X221557Y175197D01*
X221657Y175297D01*
X221557D01*
X221457Y175397D01*
X221357Y175297D01*
X221257D01*
X221357Y175197D01*
X221257Y175097D01*
X221357D01*
X221457Y174997D01*
Y175077D02*
X221517Y175137D01*
X221577D01*
X221517Y175197D01*
X221577Y175257D01*
X221517D01*
X221457Y175317D01*
X221397Y175257D01*
X221337D01*
X221397Y175197D01*
X221337Y175137D01*
X221397D01*
X221457Y175077D01*
X222441Y149406D02*
X222541Y149506D01*
X222641D01*
X222541Y149606D01*
X222641Y149706D01*
X222541D01*
X222441Y149806D01*
X222341Y149706D01*
X222241D01*
X222341Y149606D01*
X222241Y149506D01*
X222341D01*
X222441Y149406D01*
Y149486D02*
X222501Y149546D01*
X222561D01*
X222501Y149606D01*
X222561Y149666D01*
X222501D01*
X222441Y149726D01*
X222381Y149666D01*
X222321D01*
X222381Y149606D01*
X222321Y149546D01*
X222381D01*
X222441Y149486D01*
Y153343D02*
X222541Y153443D01*
X222641D01*
X222541Y153543D01*
X222641Y153643D01*
X222541D01*
X222441Y153743D01*
X222341Y153643D01*
X222241D01*
X222341Y153543D01*
X222241Y153443D01*
X222341D01*
X222441Y153343D01*
Y153423D02*
X222501Y153483D01*
X222561D01*
X222501Y153543D01*
X222561Y153603D01*
X222501D01*
X222441Y153663D01*
X222381Y153603D01*
X222321D01*
X222381Y153543D01*
X222321Y153483D01*
X222381D01*
X222441Y153423D01*
Y15728D02*
X222541Y15738D01*
X222641D01*
X222541Y15748D01*
X222641Y15758D01*
X222541D01*
X222441Y15768D01*
X222341Y15758D01*
X222241D01*
X222341Y15748D01*
X222241Y15738D01*
X222341D01*
X222441Y15728D01*
Y15736D02*
X222501Y15742D01*
X222561D01*
X222501Y15748D01*
X222561Y15754D01*
X222501D01*
X222441Y1576D01*
X222381Y15754D01*
X222321D01*
X222381Y15748D01*
X222321Y15742D01*
X222381D01*
X222441Y15736D01*
X225394Y163186D02*
X225494Y163286D01*
X225594D01*
X225494Y163386D01*
X225594Y163486D01*
X225494D01*
X225394Y163586D01*
X225294Y163486D01*
X225194D01*
X225294Y163386D01*
X225194Y163286D01*
X225294D01*
X225394Y163186D01*
Y163266D02*
X225454Y163326D01*
X225514D01*
X225454Y163386D01*
X225514Y163446D01*
X225454D01*
X225394Y163506D01*
X225334Y163446D01*
X225274D01*
X225334Y163386D01*
X225274Y163326D01*
X225334D01*
X225394Y163266D01*
Y174997D02*
X225494Y175097D01*
X225594D01*
X225494Y175197D01*
X225594Y175297D01*
X225494D01*
X225394Y175397D01*
X225294Y175297D01*
X225194D01*
X225294Y175197D01*
X225194Y175097D01*
X225294D01*
X225394Y174997D01*
Y175077D02*
X225454Y175137D01*
X225514D01*
X225454Y175197D01*
X225514Y175257D01*
X225454D01*
X225394Y175317D01*
X225334Y175257D01*
X225274D01*
X225334Y175197D01*
X225274Y175137D01*
X225334D01*
X225394Y175077D01*
X227362Y174997D02*
X227462Y175097D01*
X227562D01*
X227462Y175197D01*
X227562Y175297D01*
X227462D01*
X227362Y175397D01*
X227262Y175297D01*
X227162D01*
X227262Y175197D01*
X227162Y175097D01*
X227262D01*
X227362Y174997D01*
Y175077D02*
X227422Y175137D01*
X227482D01*
X227422Y175197D01*
X227482Y175257D01*
X227422D01*
X227362Y175317D01*
X227302Y175257D01*
X227242D01*
X227302Y175197D01*
X227242Y175137D01*
X227302D01*
X227362Y175077D01*
X229331Y167123D02*
X229431Y167223D01*
X229531D01*
X229431Y167323D01*
X229531Y167423D01*
X229431D01*
X229331Y167523D01*
X229231Y167423D01*
X229131D01*
X229231Y167323D01*
X229131Y167223D01*
X229231D01*
X229331Y167123D01*
Y167203D02*
X229391Y167263D01*
X229451D01*
X229391Y167323D01*
X229451Y167383D01*
X229391D01*
X229331Y167443D01*
X229271Y167383D01*
X229211D01*
X229271Y167323D01*
X229211Y167263D01*
X229271D01*
X229331Y167203D01*
Y17106D02*
X229431Y17116D01*
X229531D01*
X229431Y17126D01*
X229531Y17136D01*
X229431D01*
X229331Y17146D01*
X229231Y17136D01*
X229131D01*
X229231Y17126D01*
X229131Y17116D01*
X229231D01*
X229331Y17106D01*
Y17114D02*
X229391Y1712D01*
X229451D01*
X229391Y17126D01*
X229451Y17132D01*
X229391D01*
X229331Y17138D01*
X229271Y17132D01*
X229211D01*
X229271Y17126D01*
X229211Y1712D01*
X229271D01*
X229331Y17114D01*
X228346Y173028D02*
X228446Y173128D01*
X228546D01*
X228446Y173228D01*
X228546Y173328D01*
X228446D01*
X228346Y173428D01*
X228246Y173328D01*
X228146D01*
X228246Y173228D01*
X228146Y173128D01*
X228246D01*
X228346Y173028D01*
Y173108D02*
X228406Y173168D01*
X228466D01*
X228406Y173228D01*
X228466Y173288D01*
X228406D01*
X228346Y173348D01*
X228286Y173288D01*
X228226D01*
X228286Y173228D01*
X228226Y173168D01*
X228286D01*
X228346Y173108D01*
X229331Y174997D02*
X229431Y175097D01*
X229531D01*
X229431Y175197D01*
X229531Y175297D01*
X229431D01*
X229331Y175397D01*
X229231Y175297D01*
X229131D01*
X229231Y175197D01*
X229131Y175097D01*
X229231D01*
X229331Y174997D01*
Y175077D02*
X229391Y175137D01*
X229451D01*
X229391Y175197D01*
X229451Y175257D01*
X229391D01*
X229331Y175317D01*
X229271Y175257D01*
X229211D01*
X229271Y175197D01*
X229211Y175137D01*
X229271D01*
X229331Y175077D01*
X230315Y153343D02*
X230415Y153443D01*
X230515D01*
X230415Y153543D01*
X230515Y153643D01*
X230415D01*
X230315Y153743D01*
X230215Y153643D01*
X230115D01*
X230215Y153543D01*
X230115Y153443D01*
X230215D01*
X230315Y153343D01*
Y153423D02*
X230375Y153483D01*
X230435D01*
X230375Y153543D01*
X230435Y153603D01*
X230375D01*
X230315Y153663D01*
X230255Y153603D01*
X230195D01*
X230255Y153543D01*
X230195Y153483D01*
X230255D01*
X230315Y153423D01*
Y165154D02*
X230415Y165254D01*
X230515D01*
X230415Y165354D01*
X230515Y165454D01*
X230415D01*
X230315Y165554D01*
X230215Y165454D01*
X230115D01*
X230215Y165354D01*
X230115Y165254D01*
X230215D01*
X230315Y165154D01*
Y165234D02*
X230375Y165294D01*
X230435D01*
X230375Y165354D01*
X230435Y165414D01*
X230375D01*
X230315Y165474D01*
X230255Y165414D01*
X230195D01*
X230255Y165354D01*
X230195Y165294D01*
X230255D01*
X230315Y165234D01*
X232283Y153343D02*
X232383Y153443D01*
X232483D01*
X232383Y153543D01*
X232483Y153643D01*
X232383D01*
X232283Y153743D01*
X232183Y153643D01*
X232083D01*
X232183Y153543D01*
X232083Y153443D01*
X232183D01*
X232283Y153343D01*
Y153423D02*
X232343Y153483D01*
X232403D01*
X232343Y153543D01*
X232403Y153603D01*
X232343D01*
X232283Y153663D01*
X232223Y153603D01*
X232163D01*
X232223Y153543D01*
X232163Y153483D01*
X232223D01*
X232283Y153423D01*
Y176965D02*
X232383Y177065D01*
X232483D01*
X232383Y177165D01*
X232483Y177265D01*
X232383D01*
X232283Y177365D01*
X232183Y177265D01*
X232083D01*
X232183Y177165D01*
X232083Y177065D01*
X232183D01*
X232283Y176965D01*
Y177045D02*
X232343Y177105D01*
X232403D01*
X232343Y177165D01*
X232403Y177225D01*
X232343D01*
X232283Y177285D01*
X232223Y177225D01*
X232163D01*
X232223Y177165D01*
X232163Y177105D01*
X232223D01*
X232283Y177045D01*
Y180902D02*
X232383Y181002D01*
X232483D01*
X232383Y181102D01*
X232483Y181202D01*
X232383D01*
X232283Y181302D01*
X232183Y181202D01*
X232083D01*
X232183Y181102D01*
X232083Y181002D01*
X232183D01*
X232283Y180902D01*
Y180982D02*
X232343Y181042D01*
X232403D01*
X232343Y181102D01*
X232403Y181162D01*
X232343D01*
X232283Y181222D01*
X232223Y181162D01*
X232163D01*
X232223Y181102D01*
X232163Y181042D01*
X232223D01*
X232283Y180982D01*
X234252Y153343D02*
X234352Y153443D01*
X234452D01*
X234352Y153543D01*
X234452Y153643D01*
X234352D01*
X234252Y153743D01*
X234152Y153643D01*
X234052D01*
X234152Y153543D01*
X234052Y153443D01*
X234152D01*
X234252Y153343D01*
Y153423D02*
X234312Y153483D01*
X234372D01*
X234312Y153543D01*
X234372Y153603D01*
X234312D01*
X234252Y153663D01*
X234192Y153603D01*
X234132D01*
X234192Y153543D01*
X234132Y153483D01*
X234192D01*
X234252Y153423D01*
Y15728D02*
X234352Y15738D01*
X234452D01*
X234352Y15748D01*
X234452Y15758D01*
X234352D01*
X234252Y15768D01*
X234152Y15758D01*
X234052D01*
X234152Y15748D01*
X234052Y15738D01*
X234152D01*
X234252Y15728D01*
Y15736D02*
X234312Y15742D01*
X234372D01*
X234312Y15748D01*
X234372Y15754D01*
X234312D01*
X234252Y1576D01*
X234192Y15754D01*
X234132D01*
X234192Y15748D01*
X234132Y15742D01*
X234192D01*
X234252Y15736D01*
Y173028D02*
X234352Y173128D01*
X234452D01*
X234352Y173228D01*
X234452Y173328D01*
X234352D01*
X234252Y173428D01*
X234152Y173328D01*
X234052D01*
X234152Y173228D01*
X234052Y173128D01*
X234152D01*
X234252Y173028D01*
Y173108D02*
X234312Y173168D01*
X234372D01*
X234312Y173228D01*
X234372Y173288D01*
X234312D01*
X234252Y173348D01*
X234192Y173288D01*
X234132D01*
X234192Y173228D01*
X234132Y173168D01*
X234192D01*
X234252Y173108D01*
Y176965D02*
X234352Y177065D01*
X234452D01*
X234352Y177165D01*
X234452Y177265D01*
X234352D01*
X234252Y177365D01*
X234152Y177265D01*
X234052D01*
X234152Y177165D01*
X234052Y177065D01*
X234152D01*
X234252Y176965D01*
Y177045D02*
X234312Y177105D01*
X234372D01*
X234312Y177165D01*
X234372Y177225D01*
X234312D01*
X234252Y177285D01*
X234192Y177225D01*
X234132D01*
X234192Y177165D01*
X234132Y177105D01*
X234192D01*
X234252Y177045D01*
X235236Y178934D02*
X235336Y179034D01*
X235436D01*
X235336Y179134D01*
X235436Y179234D01*
X235336D01*
X235236Y179334D01*
X235136Y179234D01*
X235036D01*
X235136Y179134D01*
X235036Y179034D01*
X235136D01*
X235236Y178934D01*
Y179014D02*
X235296Y179074D01*
X235356D01*
X235296Y179134D01*
X235356Y179194D01*
X235296D01*
X235236Y179254D01*
X235176Y179194D01*
X235116D01*
X235176Y179134D01*
X235116Y179074D01*
X235176D01*
X235236Y179014D01*
X234252Y180902D02*
X234352Y181002D01*
X234452D01*
X234352Y181102D01*
X234452Y181202D01*
X234352D01*
X234252Y181302D01*
X234152Y181202D01*
X234052D01*
X234152Y181102D01*
X234052Y181002D01*
X234152D01*
X234252Y180902D01*
Y180982D02*
X234312Y181042D01*
X234372D01*
X234312Y181102D01*
X234372Y181162D01*
X234312D01*
X234252Y181222D01*
X234192Y181162D01*
X234132D01*
X234192Y181102D01*
X234132Y181042D01*
X234192D01*
X234252Y180982D01*
X235236Y182871D02*
X235336Y182971D01*
X235436D01*
X235336Y183071D01*
X235436Y183171D01*
X235336D01*
X235236Y183271D01*
X235136Y183171D01*
X235036D01*
X235136Y183071D01*
X235036Y182971D01*
X235136D01*
X235236Y182871D01*
Y182951D02*
X235296Y183011D01*
X235356D01*
X235296Y183071D01*
X235356Y183131D01*
X235296D01*
X235236Y183191D01*
X235176Y183131D01*
X235116D01*
X235176Y183071D01*
X235116Y183011D01*
X235176D01*
X235236Y182951D01*
X234252Y184839D02*
X234352Y184939D01*
X234452D01*
X234352Y185039D01*
X234452Y185139D01*
X234352D01*
X234252Y185239D01*
X234152Y185139D01*
X234052D01*
X234152Y185039D01*
X234052Y184939D01*
X234152D01*
X234252Y184839D01*
Y184919D02*
X234312Y184979D01*
X234372D01*
X234312Y185039D01*
X234372Y185099D01*
X234312D01*
X234252Y185159D01*
X234192Y185099D01*
X234132D01*
X234192Y185039D01*
X234132Y184979D01*
X234192D01*
X234252Y184919D01*
X23622Y153343D02*
X23632Y153443D01*
X23642D01*
X23632Y153543D01*
X23642Y153643D01*
X23632D01*
X23622Y153743D01*
X23612Y153643D01*
X23602D01*
X23612Y153543D01*
X23602Y153443D01*
X23612D01*
X23622Y153343D01*
Y153423D02*
X23628Y153483D01*
X23634D01*
X23628Y153543D01*
X23634Y153603D01*
X23628D01*
X23622Y153663D01*
X23616Y153603D01*
X2361D01*
X23616Y153543D01*
X2361Y153483D01*
X23616D01*
X23622Y153423D01*
Y161217D02*
X23632Y161317D01*
X23642D01*
X23632Y161417D01*
X23642Y161517D01*
X23632D01*
X23622Y161617D01*
X23612Y161517D01*
X23602D01*
X23612Y161417D01*
X23602Y161317D01*
X23612D01*
X23622Y161217D01*
Y161297D02*
X23628Y161357D01*
X23634D01*
X23628Y161417D01*
X23634Y161477D01*
X23628D01*
X23622Y161537D01*
X23616Y161477D01*
X2361D01*
X23616Y161417D01*
X2361Y161357D01*
X23616D01*
X23622Y161297D01*
Y165154D02*
X23632Y165254D01*
X23642D01*
X23632Y165354D01*
X23642Y165454D01*
X23632D01*
X23622Y165554D01*
X23612Y165454D01*
X23602D01*
X23612Y165354D01*
X23602Y165254D01*
X23612D01*
X23622Y165154D01*
Y165234D02*
X23628Y165294D01*
X23634D01*
X23628Y165354D01*
X23634Y165414D01*
X23628D01*
X23622Y165474D01*
X23616Y165414D01*
X2361D01*
X23616Y165354D01*
X2361Y165294D01*
X23616D01*
X23622Y165234D01*
Y176965D02*
X23632Y177065D01*
X23642D01*
X23632Y177165D01*
X23642Y177265D01*
X23632D01*
X23622Y177365D01*
X23612Y177265D01*
X23602D01*
X23612Y177165D01*
X23602Y177065D01*
X23612D01*
X23622Y176965D01*
Y177045D02*
X23628Y177105D01*
X23634D01*
X23628Y177165D01*
X23634Y177225D01*
X23628D01*
X23622Y177285D01*
X23616Y177225D01*
X2361D01*
X23616Y177165D01*
X2361Y177105D01*
X23616D01*
X23622Y177045D01*
X237205Y178934D02*
X237305Y179034D01*
X237405D01*
X237305Y179134D01*
X237405Y179234D01*
X237305D01*
X237205Y179334D01*
X237105Y179234D01*
X237005D01*
X237105Y179134D01*
X237005Y179034D01*
X237105D01*
X237205Y178934D01*
Y179014D02*
X237265Y179074D01*
X237325D01*
X237265Y179134D01*
X237325Y179194D01*
X237265D01*
X237205Y179254D01*
X237145Y179194D01*
X237085D01*
X237145Y179134D01*
X237085Y179074D01*
X237145D01*
X237205Y179014D01*
X23622Y180902D02*
X23632Y181002D01*
X23642D01*
X23632Y181102D01*
X23642Y181202D01*
X23632D01*
X23622Y181302D01*
X23612Y181202D01*
X23602D01*
X23612Y181102D01*
X23602Y181002D01*
X23612D01*
X23622Y180902D01*
Y180982D02*
X23628Y181042D01*
X23634D01*
X23628Y181102D01*
X23634Y181162D01*
X23628D01*
X23622Y181222D01*
X23616Y181162D01*
X2361D01*
X23616Y181102D01*
X2361Y181042D01*
X23616D01*
X23622Y180982D01*
X238189Y153343D02*
X238289Y153443D01*
X238389D01*
X238289Y153543D01*
X238389Y153643D01*
X238289D01*
X238189Y153743D01*
X238089Y153643D01*
X237989D01*
X238089Y153543D01*
X237989Y153443D01*
X238089D01*
X238189Y153343D01*
Y153423D02*
X238249Y153483D01*
X238309D01*
X238249Y153543D01*
X238309Y153603D01*
X238249D01*
X238189Y153663D01*
X238129Y153603D01*
X238069D01*
X238129Y153543D01*
X238069Y153483D01*
X238129D01*
X238189Y153423D01*
Y161217D02*
X238289Y161317D01*
X238389D01*
X238289Y161417D01*
X238389Y161517D01*
X238289D01*
X238189Y161617D01*
X238089Y161517D01*
X237989D01*
X238089Y161417D01*
X237989Y161317D01*
X238089D01*
X238189Y161217D01*
Y161297D02*
X238249Y161357D01*
X238309D01*
X238249Y161417D01*
X238309Y161477D01*
X238249D01*
X238189Y161537D01*
X238129Y161477D01*
X238069D01*
X238129Y161417D01*
X238069Y161357D01*
X238129D01*
X238189Y161297D01*
Y165154D02*
X238289Y165254D01*
X238389D01*
X238289Y165354D01*
X238389Y165454D01*
X238289D01*
X238189Y165554D01*
X238089Y165454D01*
X237989D01*
X238089Y165354D01*
X237989Y165254D01*
X238089D01*
X238189Y165154D01*
Y165234D02*
X238249Y165294D01*
X238309D01*
X238249Y165354D01*
X238309Y165414D01*
X238249D01*
X238189Y165474D01*
X238129Y165414D01*
X238069D01*
X238129Y165354D01*
X238069Y165294D01*
X238129D01*
X238189Y165234D01*
Y173028D02*
X238289Y173128D01*
X238389D01*
X238289Y173228D01*
X238389Y173328D01*
X238289D01*
X238189Y173428D01*
X238089Y173328D01*
X237989D01*
X238089Y173228D01*
X237989Y173128D01*
X238089D01*
X238189Y173028D01*
Y173108D02*
X238249Y173168D01*
X238309D01*
X238249Y173228D01*
X238309Y173288D01*
X238249D01*
X238189Y173348D01*
X238129Y173288D01*
X238069D01*
X238129Y173228D01*
X238069Y173168D01*
X238129D01*
X238189Y173108D01*
Y176965D02*
X238289Y177065D01*
X238389D01*
X238289Y177165D01*
X238389Y177265D01*
X238289D01*
X238189Y177365D01*
X238089Y177265D01*
X237989D01*
X238089Y177165D01*
X237989Y177065D01*
X238089D01*
X238189Y176965D01*
Y177045D02*
X238249Y177105D01*
X238309D01*
X238249Y177165D01*
X238309Y177225D01*
X238249D01*
X238189Y177285D01*
X238129Y177225D01*
X238069D01*
X238129Y177165D01*
X238069Y177105D01*
X238129D01*
X238189Y177045D01*
X239173Y178934D02*
X239273Y179034D01*
X239373D01*
X239273Y179134D01*
X239373Y179234D01*
X239273D01*
X239173Y179334D01*
X239073Y179234D01*
X238973D01*
X239073Y179134D01*
X238973Y179034D01*
X239073D01*
X239173Y178934D01*
Y179014D02*
X239233Y179074D01*
X239293D01*
X239233Y179134D01*
X239293Y179194D01*
X239233D01*
X239173Y179254D01*
X239113Y179194D01*
X239053D01*
X239113Y179134D01*
X239053Y179074D01*
X239113D01*
X239173Y179014D01*
X238189Y180902D02*
X238289Y181002D01*
X238389D01*
X238289Y181102D01*
X238389Y181202D01*
X238289D01*
X238189Y181302D01*
X238089Y181202D01*
X237989D01*
X238089Y181102D01*
X237989Y181002D01*
X238089D01*
X238189Y180902D01*
Y180982D02*
X238249Y181042D01*
X238309D01*
X238249Y181102D01*
X238309Y181162D01*
X238249D01*
X238189Y181222D01*
X238129Y181162D01*
X238069D01*
X238129Y181102D01*
X238069Y181042D01*
X238129D01*
X238189Y180982D01*
X239173Y182871D02*
X239273Y182971D01*
X239373D01*
X239273Y183071D01*
X239373Y183171D01*
X239273D01*
X239173Y183271D01*
X239073Y183171D01*
X238973D01*
X239073Y183071D01*
X238973Y182971D01*
X239073D01*
X239173Y182871D01*
Y182951D02*
X239233Y183011D01*
X239293D01*
X239233Y183071D01*
X239293Y183131D01*
X239233D01*
X239173Y183191D01*
X239113Y183131D01*
X239053D01*
X239113Y183071D01*
X239053Y183011D01*
X239113D01*
X239173Y182951D01*
X238189Y184839D02*
X238289Y184939D01*
X238389D01*
X238289Y185039D01*
X238389Y185139D01*
X238289D01*
X238189Y185239D01*
X238089Y185139D01*
X237989D01*
X238089Y185039D01*
X237989Y184939D01*
X238089D01*
X238189Y184839D01*
Y184919D02*
X238249Y184979D01*
X238309D01*
X238249Y185039D01*
X238309Y185099D01*
X238249D01*
X238189Y185159D01*
X238129Y185099D01*
X238069D01*
X238129Y185039D01*
X238069Y184979D01*
X238129D01*
X238189Y184919D01*
X240157Y153343D02*
X240257Y153443D01*
X240357D01*
X240257Y153543D01*
X240357Y153643D01*
X240257D01*
X240157Y153743D01*
X240057Y153643D01*
X239957D01*
X240057Y153543D01*
X239957Y153443D01*
X240057D01*
X240157Y153343D01*
Y153423D02*
X240217Y153483D01*
X240277D01*
X240217Y153543D01*
X240277Y153603D01*
X240217D01*
X240157Y153663D01*
X240097Y153603D01*
X240037D01*
X240097Y153543D01*
X240037Y153483D01*
X240097D01*
X240157Y153423D01*
Y165154D02*
X240257Y165254D01*
X240357D01*
X240257Y165354D01*
X240357Y165454D01*
X240257D01*
X240157Y165554D01*
X240057Y165454D01*
X239957D01*
X240057Y165354D01*
X239957Y165254D01*
X240057D01*
X240157Y165154D01*
Y165234D02*
X240217Y165294D01*
X240277D01*
X240217Y165354D01*
X240277Y165414D01*
X240217D01*
X240157Y165474D01*
X240097Y165414D01*
X240037D01*
X240097Y165354D01*
X240037Y165294D01*
X240097D01*
X240157Y165234D01*
Y184839D02*
X240257Y184939D01*
X240357D01*
X240257Y185039D01*
X240357Y185139D01*
X240257D01*
X240157Y185239D01*
X240057Y185139D01*
X239957D01*
X240057Y185039D01*
X239957Y184939D01*
X240057D01*
X240157Y184839D01*
Y184919D02*
X240217Y184979D01*
X240277D01*
X240217Y185039D01*
X240277Y185099D01*
X240217D01*
X240157Y185159D01*
X240097Y185099D01*
X240037D01*
X240097Y185039D01*
X240037Y184979D01*
X240097D01*
X240157Y184919D01*
X24311Y151375D02*
X24321Y151475D01*
X24331D01*
X24321Y151575D01*
X24331Y151675D01*
X24321D01*
X24311Y151775D01*
X24301Y151675D01*
X24291D01*
X24301Y151575D01*
X24291Y151475D01*
X24301D01*
X24311Y151375D01*
Y151455D02*
X24317Y151515D01*
X24323D01*
X24317Y151575D01*
X24323Y151635D01*
X24317D01*
X24311Y151695D01*
X24305Y151635D01*
X24299D01*
X24305Y151575D01*
X24299Y151515D01*
X24305D01*
X24311Y151455D01*
X242126Y153343D02*
X242226Y153443D01*
X242326D01*
X242226Y153543D01*
X242326Y153643D01*
X242226D01*
X242126Y153743D01*
X242026Y153643D01*
X241926D01*
X242026Y153543D01*
X241926Y153443D01*
X242026D01*
X242126Y153343D01*
Y153423D02*
X242186Y153483D01*
X242246D01*
X242186Y153543D01*
X242246Y153603D01*
X242186D01*
X242126Y153663D01*
X242066Y153603D01*
X242006D01*
X242066Y153543D01*
X242006Y153483D01*
X242066D01*
X242126Y153423D01*
X24311Y178934D02*
X24321Y179034D01*
X24331D01*
X24321Y179134D01*
X24331Y179234D01*
X24321D01*
X24311Y179334D01*
X24301Y179234D01*
X24291D01*
X24301Y179134D01*
X24291Y179034D01*
X24301D01*
X24311Y178934D01*
Y179014D02*
X24317Y179074D01*
X24323D01*
X24317Y179134D01*
X24323Y179194D01*
X24317D01*
X24311Y179254D01*
X24305Y179194D01*
X24299D01*
X24305Y179134D01*
X24299Y179074D01*
X24305D01*
X24311Y179014D01*
X244095Y153343D02*
X244195Y153443D01*
X244294D01*
X244195Y153543D01*
X244294Y153643D01*
X244195D01*
X244095Y153743D01*
X243995Y153643D01*
X243895D01*
X243995Y153543D01*
X243895Y153443D01*
X243995D01*
X244095Y153343D01*
Y153423D02*
X244154Y153483D01*
X244214D01*
X244154Y153543D01*
X244214Y153603D01*
X244154D01*
X244095Y153663D01*
X244035Y153603D01*
X243974D01*
X244035Y153543D01*
X243974Y153483D01*
X244035D01*
X244095Y153423D01*
X245079Y155312D02*
X245179Y155412D01*
X245279D01*
X245179Y155512D01*
X245279Y155612D01*
X245179D01*
X245079Y155712D01*
X244979Y155612D01*
X244879D01*
X244979Y155512D01*
X244879Y155412D01*
X244979D01*
X245079Y155312D01*
Y155392D02*
X245139Y155452D01*
X245199D01*
X245139Y155512D01*
X245199Y155572D01*
X245139D01*
X245079Y155632D01*
X245019Y155572D01*
X244959D01*
X245019Y155512D01*
X244959Y155452D01*
X245019D01*
X245079Y155392D01*
X244095Y180902D02*
X244195Y181002D01*
X244294D01*
X244195Y181102D01*
X244294Y181202D01*
X244195D01*
X244095Y181302D01*
X243995Y181202D01*
X243895D01*
X243995Y181102D01*
X243895Y181002D01*
X243995D01*
X244095Y180902D01*
Y180982D02*
X244154Y181042D01*
X244214D01*
X244154Y181102D01*
X244214Y181162D01*
X244154D01*
X244095Y181222D01*
X244035Y181162D01*
X243974D01*
X244035Y181102D01*
X243974Y181042D01*
X244035D01*
X244095Y180982D01*
Y184839D02*
X244195Y184939D01*
X244294D01*
X244195Y185039D01*
X244294Y185139D01*
X244195D01*
X244095Y185239D01*
X243995Y185139D01*
X243895D01*
X243995Y185039D01*
X243895Y184939D01*
X243995D01*
X244095Y184839D01*
Y184919D02*
X244154Y184979D01*
X244214D01*
X244154Y185039D01*
X244214Y185099D01*
X244154D01*
X244095Y185159D01*
X244035Y185099D01*
X243974D01*
X244035Y185039D01*
X243974Y184979D01*
X244035D01*
X244095Y184919D01*
X247047Y182871D02*
X247147Y182971D01*
X247247D01*
X247147Y183071D01*
X247247Y183171D01*
X247147D01*
X247047Y183271D01*
X246947Y183171D01*
X246847D01*
X246947Y183071D01*
X246847Y182971D01*
X246947D01*
X247047Y182871D01*
Y182951D02*
X247107Y183011D01*
X247167D01*
X247107Y183071D01*
X247167Y183131D01*
X247107D01*
X247047Y183191D01*
X246987Y183131D01*
X246927D01*
X246987Y183071D01*
X246927Y183011D01*
X246987D01*
X247047Y182951D01*
X25Y15728D02*
X2501Y15738D01*
X2502D01*
X2501Y15748D01*
X2502Y15758D01*
X2501D01*
X25Y15768D01*
X2499Y15758D01*
X2498D01*
X2499Y15748D01*
X2498Y15738D01*
X2499D01*
X25Y15728D01*
Y15736D02*
X25006Y15742D01*
X25012D01*
X25006Y15748D01*
X25012Y15754D01*
X25006D01*
X25Y1576D01*
X24994Y15754D01*
X24988D01*
X24994Y15748D01*
X24988Y15742D01*
X24994D01*
X25Y15736D01*
X251969Y180902D02*
X252069Y181002D01*
X252169D01*
X252069Y181102D01*
X252169Y181202D01*
X252069D01*
X251969Y181302D01*
X251869Y181202D01*
X251769D01*
X251869Y181102D01*
X251769Y181002D01*
X251869D01*
X251969Y180902D01*
Y180982D02*
X252029Y181042D01*
X252089D01*
X252029Y181102D01*
X252089Y181162D01*
X252029D01*
X251969Y181222D01*
X251909Y181162D01*
X251849D01*
X251909Y181102D01*
X251849Y181042D01*
X251909D01*
X251969Y180982D01*
Y184839D02*
X252069Y184939D01*
X252169D01*
X252069Y185039D01*
X252169Y185139D01*
X252069D01*
X251969Y185239D01*
X251869Y185139D01*
X251769D01*
X251869Y185039D01*
X251769Y184939D01*
X251869D01*
X251969Y184839D01*
Y184919D02*
X252029Y184979D01*
X252089D01*
X252029Y185039D01*
X252089Y185099D01*
X252029D01*
X251969Y185159D01*
X251909Y185099D01*
X251849D01*
X251909Y185039D01*
X251849Y184979D01*
X251909D01*
X251969Y184919D01*
D77*
X227059Y167219D02*
G03*
X227059Y167219I-00012J0D01*
G01*
Y162534D02*
G03*
X227059Y162534I-00012J0D01*
G01*
Y164093D02*
G03*
X227059Y164093I-00012J0D01*
G01*
Y165652D02*
G03*
X227059Y165652I-00012J0D01*
G01*
X196547Y162967D02*
G03*
X196547Y162967I-00012J0D01*
G01*
Y166116D02*
G03*
X196547Y166116I-00012J0D01*
G01*
D168*
X22784Y17957D02*
G03*
X22784Y17957I-0002J0D01*
G01*
Y18058D02*
G03*
X22784Y18058I-0002J0D01*
G01*
X19582Y17847D02*
G03*
X19582Y17847I-0002J0D01*
G01*
X19582Y17947D02*
G03*
X19582Y17947I-0002J0D01*
G01*
Y17747D02*
G03*
X19582Y17747I-0002J0D01*
G01*
X19682Y17946D02*
G03*
X19682Y17946I-0002J0D01*
G01*
X19682Y17847D02*
G03*
X19682Y17847I-0002J0D01*
G01*
X19682Y17747D02*
G03*
X19682Y17747I-0002J0D01*
G01*
X223901Y17957D02*
G03*
X223901Y17957I-0002J0D01*
G01*
Y18058D02*
G03*
X223901Y18058I-0002J0D01*
G01*
X219963Y17957D02*
G03*
X219963Y17957I-0002J0D01*
G01*
Y18058D02*
G03*
X219963Y18058I-0002J0D01*
G01*
X216024Y17957D02*
G03*
X216024Y17957I-0002J0D01*
G01*
Y18058D02*
G03*
X216024Y18058I-0002J0D01*
G01*
X212086Y17957D02*
G03*
X212086Y17957I-0002J0D01*
G01*
Y18058D02*
G03*
X212086Y18058I-0002J0D01*
G01*
X208147Y17957D02*
G03*
X208147Y17957I-0002J0D01*
G01*
Y18058D02*
G03*
X208147Y18058I-0002J0D01*
G01*
X204209Y17957D02*
G03*
X204209Y17957I-0002J0D01*
G01*
Y18058D02*
G03*
X204209Y18058I-0002J0D01*
G01*
X20027Y17955D02*
G03*
X20027Y17955I-0002J0D01*
G01*
Y18056D02*
G03*
X20027Y18056I-0002J0D01*
G01*
X227139Y167219D02*
G03*
X227139Y167219I-0002J0D01*
G01*
Y162534D02*
G03*
X227139Y162534I-0002J0D01*
G01*
Y164093D02*
G03*
X227139Y164093I-0002J0D01*
G01*
Y165652D02*
G03*
X227139Y165652I-0002J0D01*
G01*
X196627Y162967D02*
G03*
X196627Y162967I-0002J0D01*
G01*
Y166116D02*
G03*
X196627Y166116I-0002J0D01*
G01*
X24131Y15458D02*
G03*
X24131Y15458I-0002J0D01*
G01*
X24229D02*
G03*
X24229Y15458I-0002J0D01*
G01*
X2433D02*
G03*
X2433Y15458I-0002J0D01*
G01*
X25483Y17127D02*
G03*
X25483Y17127I-0002J0D01*
G01*
Y17225D02*
G03*
X25483Y17225I-0002J0D01*
G01*
Y17326D02*
G03*
X25483Y17326I-0002J0D01*
G01*
M02*
