G04 Layer_Color=8388736*
%FSTAX24Y24*%
%MOIN*%
G70*
G01*
G75*
%ADD95R,0.0945X0.0315*%
%ADD96R,0.0260X0.0850*%
%ADD97O,0.0260X0.0850*%
%ADD98O,0.0257X0.0631*%
%ADD99R,0.0379X0.0580*%
%ADD100R,0.0730X0.0680*%
%ADD101R,0.0380X0.0880*%
G04:AMPARAMS|DCode=102|XSize=38mil|YSize=88mil|CornerRadius=11.5mil|HoleSize=0mil|Usage=FLASHONLY|Rotation=180.000|XOffset=0mil|YOffset=0mil|HoleType=Round|Shape=RoundedRectangle|*
%AMROUNDEDRECTD102*
21,1,0.0380,0.0650,0,0,180.0*
21,1,0.0150,0.0880,0,0,180.0*
1,1,0.0230,-0.0075,0.0325*
1,1,0.0230,0.0075,0.0325*
1,1,0.0230,0.0075,-0.0325*
1,1,0.0230,-0.0075,-0.0325*
%
%ADD102ROUNDEDRECTD102*%
%ADD103R,0.0395X0.0552*%
G04:AMPARAMS|DCode=104|XSize=45.4mil|YSize=27.7mil|CornerRadius=6.5mil|HoleSize=0mil|Usage=FLASHONLY|Rotation=90.000|XOffset=0mil|YOffset=0mil|HoleType=Round|Shape=RoundedRectangle|*
%AMROUNDEDRECTD104*
21,1,0.0454,0.0148,0,0,90.0*
21,1,0.0325,0.0277,0,0,90.0*
1,1,0.0129,0.0074,0.0162*
1,1,0.0129,0.0074,-0.0162*
1,1,0.0129,-0.0074,-0.0162*
1,1,0.0129,-0.0074,0.0162*
%
%ADD104ROUNDEDRECTD104*%
%ADD105R,0.0630X0.0580*%
%ADD106R,0.0316X0.0867*%
%ADD107R,0.0580X0.0580*%
%ADD108R,0.1025X0.1379*%
%ADD109R,0.1025X0.0474*%
G04:AMPARAMS|DCode=110|XSize=75mil|YSize=44mil|CornerRadius=8mil|HoleSize=0mil|Usage=FLASHONLY|Rotation=180.000|XOffset=0mil|YOffset=0mil|HoleType=Round|Shape=RoundedRectangle|*
%AMROUNDEDRECTD110*
21,1,0.0750,0.0281,0,0,180.0*
21,1,0.0591,0.0440,0,0,180.0*
1,1,0.0159,-0.0295,0.0140*
1,1,0.0159,0.0295,0.0140*
1,1,0.0159,0.0295,-0.0140*
1,1,0.0159,-0.0295,-0.0140*
%
%ADD110ROUNDEDRECTD110*%
G04:AMPARAMS|DCode=111|XSize=75mil|YSize=44mil|CornerRadius=8mil|HoleSize=0mil|Usage=FLASHONLY|Rotation=90.000|XOffset=0mil|YOffset=0mil|HoleType=Round|Shape=RoundedRectangle|*
%AMROUNDEDRECTD111*
21,1,0.0750,0.0281,0,0,90.0*
21,1,0.0591,0.0440,0,0,90.0*
1,1,0.0159,0.0140,0.0295*
1,1,0.0159,0.0140,-0.0295*
1,1,0.0159,-0.0140,-0.0295*
1,1,0.0159,-0.0140,0.0295*
%
%ADD111ROUNDEDRECTD111*%
%ADD112R,0.1660X0.1660*%
%ADD113R,0.0680X0.0474*%
%ADD114R,0.0680X0.0474*%
%ADD115R,0.0986X0.0986*%
%ADD116R,0.0710X0.1458*%
G04:AMPARAMS|DCode=117|XSize=78.9mil|YSize=55.2mil|CornerRadius=9.9mil|HoleSize=0mil|Usage=FLASHONLY|Rotation=0.000|XOffset=0mil|YOffset=0mil|HoleType=Round|Shape=RoundedRectangle|*
%AMROUNDEDRECTD117*
21,1,0.0789,0.0354,0,0,0.0*
21,1,0.0591,0.0552,0,0,0.0*
1,1,0.0198,0.0295,-0.0177*
1,1,0.0198,-0.0295,-0.0177*
1,1,0.0198,-0.0295,0.0177*
1,1,0.0198,0.0295,0.0177*
%
%ADD117ROUNDEDRECTD117*%
%ADD118R,0.0828X0.1734*%
G04:AMPARAMS|DCode=119|XSize=126.1mil|YSize=204.9mil|CornerRadius=0mil|HoleSize=0mil|Usage=FLASHONLY|Rotation=315.000|XOffset=0mil|YOffset=0mil|HoleType=Round|Shape=Rectangle|*
%AMROTATEDRECTD119*
4,1,4,-0.1170,-0.0278,0.0278,0.1170,0.1170,0.0278,-0.0278,-0.1170,-0.1170,-0.0278,0.0*
%
%ADD119ROTATEDRECTD119*%

%ADD120R,0.0580X0.0630*%
%ADD121R,0.0580X0.0580*%
%ADD122R,0.0671X0.0395*%
%ADD123R,0.0867X0.0651*%
%ADD124R,0.0867X0.1064*%
%ADD125O,0.0830X0.0730*%
%ADD126R,0.0639X0.0639*%
%ADD127C,0.0639*%
%ADD128C,0.1438*%
%ADD129O,0.1596X0.1222*%
%ADD130C,0.0552*%
%ADD131O,0.0671X0.0867*%
%ADD132C,0.0830*%
%ADD133O,0.0940X0.0680*%
%ADD134O,0.0867X0.0671*%
%ADD135R,0.0867X0.0671*%
%ADD136P,0.1578X8X22.5*%
%ADD137P,0.1578X8X22.5*%
%ADD138O,0.1580X0.1280*%
%ADD139O,0.1280X0.1580*%
%ADD140R,0.0710X0.0710*%
%ADD141C,0.0710*%
%ADD142O,0.0730X0.0830*%
%ADD143C,0.0277*%
%ADD144C,0.0580*%
D95*
X23715Y170416D02*
D03*
X23715Y171124D02*
D03*
X22233Y167214D02*
D03*
X22233Y166506D02*
D03*
X20667Y166994D02*
D03*
Y166286D02*
D03*
D96*
X213223Y161963D02*
D03*
D97*
X213478D02*
D03*
X213734D02*
D03*
X21399D02*
D03*
X214246D02*
D03*
X214502D02*
D03*
X214758D02*
D03*
X215014D02*
D03*
X21527D02*
D03*
X215526D02*
D03*
X215782D02*
D03*
X216037D02*
D03*
X213223Y164797D02*
D03*
X213478D02*
D03*
X213734D02*
D03*
X21399D02*
D03*
X214246D02*
D03*
X214502D02*
D03*
X214758D02*
D03*
X215014D02*
D03*
X21527Y164797D02*
D03*
X215526Y164797D02*
D03*
X215782Y164797D02*
D03*
X216037Y164797D02*
D03*
D98*
X250862Y173711D02*
D03*
X250606D02*
D03*
X25035D02*
D03*
X250094D02*
D03*
X249838D02*
D03*
X249582D02*
D03*
X249326D02*
D03*
X24907D02*
D03*
X248814D02*
D03*
X248558D02*
D03*
X250862Y171389D02*
D03*
X250606D02*
D03*
X25035D02*
D03*
X250094D02*
D03*
X249838D02*
D03*
X249582D02*
D03*
X249326D02*
D03*
X24907D02*
D03*
X248814D02*
D03*
X248558D02*
D03*
D99*
X24699Y17098D02*
D03*
X24649D02*
D03*
X24599D02*
D03*
X24549D02*
D03*
X24399D02*
D03*
X24349D02*
D03*
X24449D02*
D03*
X24499D02*
D03*
X24399Y17398D02*
D03*
X24349D02*
D03*
X24449D02*
D03*
X24699D02*
D03*
X24649D02*
D03*
X24599D02*
D03*
X24549D02*
D03*
X24499D02*
D03*
D100*
X22954Y18077D02*
D03*
Y17947D02*
D03*
X20202Y18077D02*
D03*
Y17947D02*
D03*
X205951Y18077D02*
D03*
Y17947D02*
D03*
X209883Y18077D02*
D03*
Y17947D02*
D03*
X213814Y18077D02*
D03*
Y17947D02*
D03*
X217746Y18077D02*
D03*
Y17947D02*
D03*
X221677Y18077D02*
D03*
Y17947D02*
D03*
X225609Y18077D02*
D03*
Y17947D02*
D03*
D101*
X23882Y17053D02*
D03*
D102*
X23932D02*
D03*
X23982D02*
D03*
X24032Y17053D02*
D03*
X24082Y17053D02*
D03*
X24132D02*
D03*
X24182D02*
D03*
X24232D02*
D03*
X23882Y17425D02*
D03*
X23932D02*
D03*
X23982D02*
D03*
X24032Y17425D02*
D03*
X24082Y17425D02*
D03*
X24132D02*
D03*
X24182D02*
D03*
X24232D02*
D03*
D103*
X23039Y166868D02*
D03*
Y164112D02*
D03*
D104*
X237622Y170416D02*
D03*
X237307D02*
D03*
X236993D02*
D03*
X236678D02*
D03*
Y171124D02*
D03*
X236993D02*
D03*
X237307D02*
D03*
X237622Y171124D02*
D03*
X221858Y167214D02*
D03*
X222173D02*
D03*
X222487D02*
D03*
X222802D02*
D03*
Y166506D02*
D03*
X222487D02*
D03*
X222173D02*
D03*
X221858D02*
D03*
X206198Y166994D02*
D03*
X206513D02*
D03*
X206827D02*
D03*
X207142D02*
D03*
Y166286D02*
D03*
X206827D02*
D03*
X206513D02*
D03*
X206198D02*
D03*
D105*
X22955Y15805D02*
D03*
Y15715D02*
D03*
X23304Y16617D02*
D03*
Y16527D02*
D03*
X2295Y16866D02*
D03*
Y16956D02*
D03*
X23979Y17654D02*
D03*
Y17744D02*
D03*
X24217Y17743D02*
D03*
Y17653D02*
D03*
X24058Y17654D02*
D03*
Y17744D02*
D03*
X24138Y17743D02*
D03*
Y17653D02*
D03*
X23042Y16864D02*
D03*
Y16954D02*
D03*
X23044Y15715D02*
D03*
Y15805D02*
D03*
D106*
X22436Y17095D02*
D03*
X22386D02*
D03*
X22336D02*
D03*
X22286D02*
D03*
X22236D02*
D03*
X22186D02*
D03*
X22136D02*
D03*
X22086D02*
D03*
X22436Y16851D02*
D03*
X22386D02*
D03*
X22336D02*
D03*
X22286D02*
D03*
X22236D02*
D03*
X22186D02*
D03*
X22136D02*
D03*
X22086D02*
D03*
X20867Y17073D02*
D03*
X20817D02*
D03*
X20767D02*
D03*
X20717D02*
D03*
X20667D02*
D03*
X20617D02*
D03*
X20567D02*
D03*
X20517D02*
D03*
X20867Y16829D02*
D03*
X20817D02*
D03*
X20767D02*
D03*
X20717D02*
D03*
X20667D02*
D03*
X20617D02*
D03*
X20567D02*
D03*
X20517D02*
D03*
D107*
X22824Y17789D02*
D03*
X22914D02*
D03*
X20058D02*
D03*
X20148D02*
D03*
X204531D02*
D03*
X205431D02*
D03*
X208483D02*
D03*
X209383D02*
D03*
X212434D02*
D03*
X213334D02*
D03*
X216386D02*
D03*
X217286D02*
D03*
X220337D02*
D03*
X221237D02*
D03*
X224289D02*
D03*
X225189D02*
D03*
X24997Y15183D02*
D03*
X24907Y15183D02*
D03*
D108*
X242042Y15079D02*
D03*
D109*
X239758Y149884D02*
D03*
Y15079D02*
D03*
X239758Y151696D02*
D03*
D110*
X24155Y16576D02*
D03*
Y16526D02*
D03*
Y16476D02*
D03*
Y16426D02*
D03*
X24155Y16376D02*
D03*
X24155Y16326D02*
D03*
Y16276D02*
D03*
Y16226D02*
D03*
Y16176D02*
D03*
X24155Y16126D02*
D03*
X24155Y16076D02*
D03*
Y16026D02*
D03*
Y15976D02*
D03*
Y15926D02*
D03*
X234457D02*
D03*
X234457Y15976D02*
D03*
Y16026D02*
D03*
Y16076D02*
D03*
Y16126D02*
D03*
X234457Y16176D02*
D03*
X234457Y16226D02*
D03*
Y16276D02*
D03*
X234457Y16326D02*
D03*
X234457Y16376D02*
D03*
Y16426D02*
D03*
Y16476D02*
D03*
Y16526D02*
D03*
X234457Y16576D02*
D03*
D111*
X24025Y158669D02*
D03*
X23975D02*
D03*
X23925D02*
D03*
X23875D02*
D03*
X23825D02*
D03*
X23775D02*
D03*
X23725D02*
D03*
X23675D02*
D03*
X23625D02*
D03*
X23575D02*
D03*
D112*
X237724Y16285D02*
D03*
D113*
X22866Y17946D02*
D03*
X20109D02*
D03*
X205029D02*
D03*
X208967D02*
D03*
X212906D02*
D03*
X216844D02*
D03*
X220783D02*
D03*
X224721D02*
D03*
D114*
X22866Y18072D02*
D03*
X20109D02*
D03*
X205029D02*
D03*
X208967D02*
D03*
X212906D02*
D03*
X216844D02*
D03*
X220783D02*
D03*
X224721D02*
D03*
D115*
X231816Y14974D02*
D03*
X230044D02*
D03*
X238236Y14974D02*
D03*
X236464D02*
D03*
D116*
X24449Y149638D02*
D03*
Y151842D02*
D03*
X23421Y149678D02*
D03*
Y151882D02*
D03*
D117*
X246858Y14969D02*
D03*
X247882D02*
D03*
D118*
X22747Y152188D02*
D03*
X22747Y149432D02*
D03*
D119*
X23217Y171934D02*
D03*
X236958Y176722D02*
D03*
D120*
X24996Y14971D02*
D03*
X24906D02*
D03*
X24717Y15948D02*
D03*
X24807D02*
D03*
X24717Y1585D02*
D03*
X24807D02*
D03*
X24775Y15184D02*
D03*
X24685Y15184D02*
D03*
X23093Y15194D02*
D03*
X23003D02*
D03*
X23647Y15191D02*
D03*
X23737D02*
D03*
D121*
X2304Y16288D02*
D03*
Y16198D02*
D03*
D122*
X252203Y179099D02*
D03*
Y178666D02*
D03*
Y178233D02*
D03*
Y1778D02*
D03*
Y177367D02*
D03*
Y176934D02*
D03*
Y176501D02*
D03*
Y176068D02*
D03*
D123*
X249939Y175103D02*
D03*
Y180517D02*
D03*
X253226Y175103D02*
D03*
Y180517D02*
D03*
D124*
X207713Y151147D02*
D03*
X207713Y149178D02*
D03*
X205745D02*
D03*
X205745Y151147D02*
D03*
X203776D02*
D03*
X203776Y149178D02*
D03*
X209682D02*
D03*
X209682Y151147D02*
D03*
X217556D02*
D03*
X217556Y149178D02*
D03*
X21165D02*
D03*
Y151147D02*
D03*
X213619Y151147D02*
D03*
Y149178D02*
D03*
X215587Y149178D02*
D03*
Y151147D02*
D03*
X202035Y184523D02*
D03*
X202035Y186492D02*
D03*
X204003D02*
D03*
Y184523D02*
D03*
X205972Y184523D02*
D03*
Y186492D02*
D03*
X200066Y186492D02*
D03*
X200066Y184523D02*
D03*
X217783Y184523D02*
D03*
Y186492D02*
D03*
X219751Y186492D02*
D03*
Y184523D02*
D03*
X22172Y184523D02*
D03*
Y186492D02*
D03*
X215814D02*
D03*
X215814Y184523D02*
D03*
X223688D02*
D03*
X223688Y186492D02*
D03*
X229594D02*
D03*
X229594Y184523D02*
D03*
X227625D02*
D03*
X227625Y186492D02*
D03*
X225657D02*
D03*
X225657Y184523D02*
D03*
X20794Y184523D02*
D03*
Y186492D02*
D03*
X213846D02*
D03*
X213846Y184523D02*
D03*
X211877D02*
D03*
X211877Y186492D02*
D03*
X209909D02*
D03*
X209909Y184523D02*
D03*
X198495Y149178D02*
D03*
X198495Y151147D02*
D03*
X196526D02*
D03*
X196526Y149178D02*
D03*
X195415Y186512D02*
D03*
X195415Y184543D02*
D03*
X197384D02*
D03*
X197384Y186512D02*
D03*
X223375Y149178D02*
D03*
Y151147D02*
D03*
X221406D02*
D03*
Y149178D02*
D03*
D125*
X22764Y17957D02*
D03*
Y18058D02*
D03*
X223701Y17957D02*
D03*
Y18058D02*
D03*
X219763Y17957D02*
D03*
Y18058D02*
D03*
X215824Y17957D02*
D03*
Y18058D02*
D03*
X211886Y17957D02*
D03*
Y18058D02*
D03*
X207947Y17957D02*
D03*
Y18058D02*
D03*
X204009Y17957D02*
D03*
Y18058D02*
D03*
X20007Y17955D02*
D03*
Y18056D02*
D03*
X25463Y17127D02*
D03*
Y17225D02*
D03*
Y17326D02*
D03*
D126*
X242378Y182111D02*
D03*
X242378Y183142D02*
D03*
D127*
X239622Y182111D02*
D03*
X240606D02*
D03*
X241394D02*
D03*
X240606Y183142D02*
D03*
X241394D02*
D03*
X239622D02*
D03*
D128*
X243587Y181973D02*
D03*
X238413D02*
D03*
Y184209D02*
D03*
X243587D02*
D03*
D129*
X252374Y182044D02*
D03*
X246826D02*
D03*
Y18428D02*
D03*
X252374D02*
D03*
D130*
X250978Y183493D02*
D03*
X248222D02*
D03*
X249994D02*
D03*
X249206D02*
D03*
X248025Y182902D02*
D03*
X251175D02*
D03*
X248813D02*
D03*
X2496D02*
D03*
X250387D02*
D03*
X250978Y182233D02*
D03*
X248222D02*
D03*
X249994D02*
D03*
X249206D02*
D03*
X248025Y181642D02*
D03*
X251175D02*
D03*
X248813D02*
D03*
X2496Y181642D02*
D03*
X250387Y181642D02*
D03*
D131*
X23587Y185D02*
D03*
X233D02*
D03*
D132*
X23528Y18603D02*
D03*
X23355D02*
D03*
D133*
X19562Y17847D02*
D03*
X19562Y17947D02*
D03*
Y17747D02*
D03*
X19662Y17946D02*
D03*
X19662Y17847D02*
D03*
X19662Y17747D02*
D03*
D134*
X2513Y15928D02*
D03*
Y16028D02*
D03*
Y16128D02*
D03*
Y16228D02*
D03*
Y16328D02*
D03*
Y16428D02*
D03*
Y16528D02*
D03*
Y16628D02*
D03*
Y16728D02*
D03*
Y16828D02*
D03*
X2503Y16728D02*
D03*
Y16628D02*
D03*
Y16528D02*
D03*
Y16428D02*
D03*
Y16328D02*
D03*
Y16228D02*
D03*
Y16128D02*
D03*
Y16028D02*
D03*
Y15928D02*
D03*
D135*
Y16828D02*
D03*
D136*
X254482Y186055D02*
D03*
Y149705D02*
D03*
X192707Y149735D02*
D03*
X192797Y186075D02*
D03*
D137*
X22627Y171786D02*
D03*
Y158006D02*
D03*
X197333D02*
D03*
X197333Y171786D02*
D03*
D138*
X226939Y167219D02*
D03*
Y162534D02*
D03*
Y164093D02*
D03*
Y165652D02*
D03*
D139*
X196427Y162967D02*
D03*
Y166116D02*
D03*
D140*
X25029Y15548D02*
D03*
D141*
Y15648D02*
D03*
X25129Y15548D02*
D03*
Y15648D02*
D03*
D142*
X24111Y15458D02*
D03*
X24209D02*
D03*
X2431D02*
D03*
D143*
X23357Y16328D02*
D03*
X2329Y16417D02*
D03*
X22051Y16598D02*
D03*
X22092Y16284D02*
D03*
X22055Y16283D02*
D03*
X22124Y16286D02*
D03*
X22051Y1666D02*
D03*
X21953Y1672D02*
D03*
X22979Y16402D02*
D03*
X22572Y16406D02*
D03*
X22536Y164093D02*
D03*
X23325Y14965D02*
D03*
X23377Y14966D02*
D03*
X22951Y15591D02*
D03*
Y15656D02*
D03*
X23353Y149678D02*
D03*
X2221Y16403D02*
D03*
X23773Y16295D02*
D03*
Y1623D02*
D03*
X23262D02*
D03*
X23378Y16274D02*
D03*
X243Y16751D02*
D03*
X24301Y16808D02*
D03*
X243Y16853D02*
D03*
X24551Y1855D02*
D03*
X245Y18643D02*
D03*
X2234Y16181D02*
D03*
X20712Y16753D02*
D03*
X24647Y16551D02*
D03*
Y16649D02*
D03*
X24227Y15847D02*
D03*
X2423Y16426D02*
D03*
X24287Y16377D02*
D03*
X24282Y15915D02*
D03*
X24343Y16478D02*
D03*
X244Y16326D02*
D03*
X24448Y17525D02*
D03*
X24499D02*
D03*
X24549Y17526D02*
D03*
X24599Y17528D02*
D03*
X24699Y17462D02*
D03*
X24801Y17527D02*
D03*
X25048Y18249D02*
D03*
X24873Y1825D02*
D03*
X24753Y18102D02*
D03*
X24647Y17526D02*
D03*
X24399Y17616D02*
D03*
X24191Y18153D02*
D03*
X24011D02*
D03*
X2414Y18152D02*
D03*
X2482Y15949D02*
D03*
Y15851D02*
D03*
X24702Y16748D02*
D03*
X23522Y16375D02*
D03*
X24185Y16226D02*
D03*
X24346Y15976D02*
D03*
X23982Y17516D02*
D03*
X2381Y17519D02*
D03*
X23565Y15987D02*
D03*
X23356Y16226D02*
D03*
X24948Y16782D02*
D03*
X24764Y16676D02*
D03*
X24888Y16573D02*
D03*
X24697Y16491D02*
D03*
X24764Y16427D02*
D03*
X24699Y16327D02*
D03*
X23879Y1719D02*
D03*
X20517Y16859D02*
D03*
X20618Y16802D02*
D03*
X214246Y165504D02*
D03*
X21399Y166D02*
D03*
X22189Y1678D02*
D03*
X213734Y166466D02*
D03*
X22288Y16829D02*
D03*
X213478Y166002D02*
D03*
X22388Y16824D02*
D03*
X21069Y16751D02*
D03*
X2115Y16799D02*
D03*
X21234Y16858D02*
D03*
X22957Y184499D02*
D03*
Y18075D02*
D03*
X22566Y18084D02*
D03*
X22172Y18079D02*
D03*
X217783Y180863D02*
D03*
X21385Y18084D02*
D03*
X20993Y18077D02*
D03*
X205972Y180772D02*
D03*
X202035Y180765D02*
D03*
X22868Y18076D02*
D03*
X22475Y18078D02*
D03*
X22063Y18058D02*
D03*
X21665D02*
D03*
X21276D02*
D03*
X21301Y18083D02*
D03*
X20875Y18058D02*
D03*
X20902Y18085D02*
D03*
X20484Y18058D02*
D03*
X20513Y18084D02*
D03*
X201Y18056D02*
D03*
X20129Y18085D02*
D03*
X21694Y18088D02*
D03*
X22093D02*
D03*
X22455Y18058D02*
D03*
X23731Y18322D02*
D03*
X247772Y183942D02*
D03*
X24908Y15189D02*
D03*
X24684D02*
D03*
X25132Y15326D02*
D03*
X22742Y14904D02*
D03*
X25341Y15398D02*
D03*
X25246Y16004D02*
D03*
X25327Y16231D02*
D03*
X25341Y15994D02*
D03*
X23969Y17313D02*
D03*
X2425Y16918D02*
D03*
X207924Y166994D02*
D03*
X21071Y16697D02*
D03*
X2285Y18058D02*
D03*
X22182Y16197D02*
D03*
X23044Y15805D02*
D03*
X2295Y16866D02*
D03*
X23042Y16401D02*
D03*
X22765Y15276D02*
D03*
X24128Y15832D02*
D03*
X20713Y16197D02*
D03*
X21361Y15375D02*
D03*
X21166D02*
D03*
X20965D02*
D03*
X20775D02*
D03*
X20575D02*
D03*
X20376D02*
D03*
X21606Y16036D02*
D03*
X21855Y15814D02*
D03*
X21268Y16038D02*
D03*
X21758Y15375D02*
D03*
X2156D02*
D03*
X21975Y15815D02*
D03*
X25442Y15157D02*
D03*
X22919Y16291D02*
D03*
X22926Y1581D02*
D03*
X23411Y15714D02*
D03*
X22955Y15716D02*
D03*
X23063Y16163D02*
D03*
X23191Y15876D02*
D03*
X23392Y15926D02*
D03*
X23347Y15975D02*
D03*
X24448Y14946D02*
D03*
X2307Y17929D02*
D03*
X23065Y17861D02*
D03*
X25242Y15337D02*
D03*
X25243Y15299D02*
D03*
X25341Y16217D02*
D03*
X24855Y15419D02*
D03*
X25381Y16324D02*
D03*
X2534D02*
D03*
X25442Y15114D02*
D03*
X22741Y14865D02*
D03*
X22766Y15248D02*
D03*
X24901Y15419D02*
D03*
X25342Y15437D02*
D03*
X25341Y1596D02*
D03*
X217597Y161963D02*
D03*
X243078Y17653D02*
D03*
X24351Y1761D02*
D03*
X24062Y1815D02*
D03*
X24577Y15853D02*
D03*
X24629Y15918D02*
D03*
X25126Y15775D02*
D03*
X25202Y17264D02*
D03*
X2411Y153D02*
D03*
X24642Y15454D02*
D03*
X24643Y15189D02*
D03*
X24155Y153D02*
D03*
X24065Y15298D02*
D03*
X24848Y16046D02*
D03*
X24802Y16475D02*
D03*
X24803Y16377D02*
D03*
X24849Y16864D02*
D03*
X24846Y17019D02*
D03*
X25363Y17392D02*
D03*
X2467Y1778D02*
D03*
X25279Y17226D02*
D03*
X248343Y17578D02*
D03*
X249196Y173044D02*
D03*
X249313Y17603D02*
D03*
X249838Y174188D02*
D03*
X253643Y17442D02*
D03*
X252613Y1743D02*
D03*
X246723Y18008D02*
D03*
X246713Y17836D02*
D03*
X247513Y17929D02*
D03*
X252723Y17784D02*
D03*
X250423Y17656D02*
D03*
X251343Y17413D02*
D03*
X251653Y17481D02*
D03*
X25115Y17525D02*
D03*
X249613Y17314D02*
D03*
X253623Y17304D02*
D03*
X192913Y169291D02*
D03*
X193898Y17126D02*
D03*
X192913Y173228D02*
D03*
X193898Y175197D02*
D03*
X192913Y177165D02*
D03*
X193898Y179134D02*
D03*
X192913Y181102D02*
D03*
X193898Y183071D02*
D03*
X194882Y169291D02*
D03*
X19685Y173228D02*
D03*
X197835Y175197D02*
D03*
X198819Y169291D02*
D03*
X199803Y175197D02*
D03*
X198819Y185039D02*
D03*
X201772Y151575D02*
D03*
Y155512D02*
D03*
Y159449D02*
D03*
Y167323D02*
D03*
X200787Y169291D02*
D03*
X201772Y175197D02*
D03*
X202756Y149606D02*
D03*
Y153543D02*
D03*
Y15748D02*
D03*
X20374Y159449D02*
D03*
X202756Y161417D02*
D03*
Y165354D02*
D03*
Y173228D02*
D03*
X20374Y175197D02*
D03*
X204724Y149606D02*
D03*
Y153543D02*
D03*
Y161417D02*
D03*
Y165354D02*
D03*
Y169291D02*
D03*
X205709Y175197D02*
D03*
X206693Y149606D02*
D03*
Y153543D02*
D03*
Y161417D02*
D03*
X208661Y149606D02*
D03*
Y153543D02*
D03*
Y161417D02*
D03*
Y173228D02*
D03*
X209646Y175197D02*
D03*
X21063Y149606D02*
D03*
Y153543D02*
D03*
Y161417D02*
D03*
X211614Y175197D02*
D03*
X212598Y149606D02*
D03*
Y153543D02*
D03*
X213583Y155512D02*
D03*
Y17126D02*
D03*
Y175197D02*
D03*
X214567Y149606D02*
D03*
X215551Y17126D02*
D03*
Y175197D02*
D03*
X216535Y149606D02*
D03*
Y153543D02*
D03*
Y15748D02*
D03*
Y161417D02*
D03*
X21752Y17126D02*
D03*
Y175197D02*
D03*
X218504Y149606D02*
D03*
X219488Y151575D02*
D03*
X218504Y153543D02*
D03*
X219488Y155512D02*
D03*
Y17126D02*
D03*
X220472Y149606D02*
D03*
Y153543D02*
D03*
X221457Y175197D02*
D03*
X222441Y149606D02*
D03*
Y153543D02*
D03*
Y15748D02*
D03*
X225394Y163386D02*
D03*
Y175197D02*
D03*
X227362D02*
D03*
X229331Y167323D02*
D03*
Y17126D02*
D03*
X228346Y173228D02*
D03*
X229331Y175197D02*
D03*
X230315Y153543D02*
D03*
Y165354D02*
D03*
X232283Y153543D02*
D03*
Y177165D02*
D03*
Y181102D02*
D03*
X234252Y153543D02*
D03*
Y15748D02*
D03*
Y173228D02*
D03*
Y177165D02*
D03*
X235236Y179134D02*
D03*
X234252Y181102D02*
D03*
X235236Y183071D02*
D03*
X234252Y185039D02*
D03*
X23622Y153543D02*
D03*
Y161417D02*
D03*
Y165354D02*
D03*
Y177165D02*
D03*
X237205Y179134D02*
D03*
X23622Y181102D02*
D03*
X238189Y153543D02*
D03*
Y161417D02*
D03*
Y165354D02*
D03*
Y173228D02*
D03*
Y177165D02*
D03*
X239173Y179134D02*
D03*
X238189Y181102D02*
D03*
X239173Y183071D02*
D03*
X238189Y185039D02*
D03*
X240157Y153543D02*
D03*
Y165354D02*
D03*
Y185039D02*
D03*
X24311Y151575D02*
D03*
X242126Y153543D02*
D03*
X24311Y179134D02*
D03*
X244095Y153543D02*
D03*
X245079Y155512D02*
D03*
X244095Y181102D02*
D03*
Y185039D02*
D03*
X247047Y183071D02*
D03*
X25Y15748D02*
D03*
X251969Y181102D02*
D03*
Y185039D02*
D03*
D144*
X233255Y173075D02*
D03*
X235482Y175302D02*
D03*
M02*
