G04 Layer_Color=32768*
%FSTAX24Y24*%
%MOIN*%
G70*
G01*
G75*
%ADD75C,0.0050*%
%ADD148C,0.0039*%
%ADD149C,0.0020*%
%ADD151C,0.0100*%
%ADD152C,0.0030*%
D75*
X244372Y15074D02*
X244608D01*
X24449Y150622D02*
Y150858D01*
X24584Y14889D02*
Y15258D01*
X24314D02*
X24584D01*
X24314Y14889D02*
Y15258D01*
Y14889D02*
X24584D01*
X234092Y15078D02*
X234328D01*
X23421Y150662D02*
Y150898D01*
X23556Y14893D02*
Y15262D01*
X23286D02*
X23556D01*
X23286Y14893D02*
Y15262D01*
Y14893D02*
X23556D01*
D148*
X21463Y163183D02*
Y163577D01*
X214433Y16338D02*
X214827D01*
X249513Y17255D02*
X249907D01*
X24971Y172353D02*
Y172747D01*
X24057Y172193D02*
Y172587D01*
X240373Y17239D02*
X240767D01*
X220643Y17128D02*
X224777D01*
X220643Y16815D02*
X224777D01*
Y17128D01*
X220643Y16815D02*
Y17128D01*
X22271Y169583D02*
Y169977D01*
X222513Y16978D02*
X222907D01*
X2409Y150593D02*
Y150987D01*
X240703Y15079D02*
X241097D01*
X239187Y149373D02*
X242613D01*
X239187Y152207D02*
X242613D01*
X242613Y149373D02*
X242613Y152207D01*
X239187Y149373D02*
Y152207D01*
X204953Y17106D02*
X209087D01*
X204953Y16793D02*
X209087D01*
Y17106D01*
X204953Y16793D02*
Y17106D01*
X20702Y169363D02*
Y169757D01*
X206823Y16956D02*
X207217D01*
D149*
X212858Y1615D02*
X216402D01*
X212858Y16526D02*
X216402Y16526D01*
X212858Y1615D02*
Y16526D01*
X216402Y1615D02*
Y16526D01*
X251108Y171015D02*
Y174085D01*
X248312Y171015D02*
Y174085D01*
X251108D01*
X248312Y171015D02*
X251108D01*
X238444Y170057D02*
X242696D01*
X238444Y174723D02*
X242696Y174723D01*
X238444Y170057D02*
Y174723D01*
X242696Y174723D02*
X242696Y170057D01*
D151*
X23715Y17077D02*
D03*
X22233Y16686D02*
D03*
X20667Y16664D02*
D03*
D152*
X23645Y17142D02*
X23785D01*
X23645Y17012D02*
X23785Y17012D01*
X23785Y17142D01*
X23645Y17012D02*
Y17142D01*
X22163Y16621D02*
X22303Y16621D01*
X22163Y16751D02*
X22303Y16751D01*
X22163Y16621D02*
Y16751D01*
X22303Y16621D02*
Y16751D01*
X20597Y16599D02*
X20737D01*
X20597Y16729D02*
X20737D01*
X20597Y16599D02*
Y16729D01*
X20737Y16599D02*
Y16729D01*
M02*
