G04 Layer_Color=65535*
%FSTAX24Y24*%
%MOIN*%
G70*
G01*
G75*
%ADD72C,0.0080*%
%ADD75C,0.0050*%
%ADD88R,0.0190X0.0960*%
%ADD90R,0.0190X0.1960*%
%ADD91R,0.0190X0.0180*%
%ADD94R,0.0190X0.0570*%
%ADD153R,0.0197X0.0449*%
%ADD154R,0.0315X0.0201*%
%ADD155R,0.0212X0.1750*%
%ADD156R,0.1197X0.0170*%
%ADD157R,0.0204X0.0970*%
%ADD158R,0.1187X0.0190*%
%ADD159R,0.0201X0.0960*%
%ADD160R,0.1184X0.0180*%
%ADD161R,0.0198X0.0960*%
%ADD162R,0.1187X0.0200*%
%ADD163R,0.2160X0.0180*%
%ADD164R,0.0190X0.1950*%
%ADD165R,0.0180X0.0180*%
%ADD166R,0.0207X0.0180*%
D72*
X235117Y16577D02*
G03*
X235117Y16577I-00004J0D01*
G01*
X226899Y149393D02*
G03*
X228041Y149393I000571J001417D01*
G01*
X228041Y152227D02*
G03*
X226899Y152227I-000571J-001417D01*
G01*
X238405Y170906D02*
Y173874D01*
X242739Y173874D01*
Y170906D02*
Y173874D01*
X238405Y170906D02*
X242739Y170906D01*
X22686Y149196D02*
X228061Y149196D01*
X22686Y152424D02*
X22808D01*
D75*
X234457Y158669D02*
X24155D01*
Y16871D01*
X234457D02*
X24155D01*
X234457Y158669D02*
X234457Y16871D01*
D88*
X238895Y16774D02*
D03*
D90*
X239875Y16744D02*
D03*
D91*
X240865Y16636D02*
D03*
D94*
X238895Y168135D02*
D03*
D153*
X24232Y17361D02*
D03*
X24182Y17361D02*
D03*
X24132Y17361D02*
D03*
X24082Y17361D02*
D03*
X24032Y17361D02*
D03*
X23982D02*
D03*
X23932D02*
D03*
X23882D02*
D03*
Y171169D02*
D03*
X23932D02*
D03*
X23982D02*
D03*
X24032Y171169D02*
D03*
X24082Y171169D02*
D03*
X24132Y171169D02*
D03*
X24182Y171169D02*
D03*
X24232Y171169D02*
D03*
D154*
X24232Y174014D02*
D03*
X24182Y174014D02*
D03*
X24132Y174014D02*
D03*
X24082D02*
D03*
X24032D02*
D03*
X23982Y174014D02*
D03*
X23932D02*
D03*
X23882Y174014D02*
D03*
X23882Y170766D02*
D03*
X23932Y170766D02*
D03*
X23982Y170766D02*
D03*
X24032D02*
D03*
X24082Y170766D02*
D03*
X24132Y170766D02*
D03*
X24182Y170766D02*
D03*
X24232Y170766D02*
D03*
D155*
X234941Y167545D02*
D03*
D156*
X235433Y168335D02*
D03*
D157*
X235929Y167735D02*
D03*
D158*
X236422Y167345D02*
D03*
D159*
X236915Y16774D02*
D03*
D160*
X237408Y16833D02*
D03*
D161*
X237901Y16774D02*
D03*
D162*
X238396Y16734D02*
D03*
D163*
X23988Y16833D02*
D03*
D164*
X240865Y167445D02*
D03*
D165*
X23988Y16636D02*
D03*
D166*
X234944Y16656D02*
D03*
M02*
