G04 Layer_Color=16711935*
%FSTAX24Y24*%
%MOIN*%
G70*
G01*
G75*
%ADD74C,0.0039*%
%ADD75C,0.0020*%
D74*
X082329Y076041D02*
G03*
X082329Y076041I-000197J0D01*
G01*
X09929Y077076D02*
G03*
X09929Y077076I-000197J0D01*
G01*
X087782Y078677D02*
G03*
X087782Y078677I-000197J0D01*
G01*
X092042Y078677D02*
G03*
X092042Y078677I-000197J0D01*
G01*
X05073Y077076D02*
G03*
X05073Y077076I-000197J0D01*
G01*
X068065Y080008D02*
G03*
X068065Y080008I-000197J0D01*
G01*
X055422Y078677D02*
G03*
X055422Y078677I-000197J0D01*
G01*
X059652D02*
G03*
X059652Y078677I-000197J0D01*
G01*
X082486Y075687D02*
Y080333D01*
X079534Y075687D02*
X079534Y080333D01*
X079534Y075687D02*
X082486D01*
X079534Y080333D02*
X082486D01*
X097912Y080619D02*
X099448D01*
X097912Y076721D02*
X099448D01*
X097912D02*
Y080619D01*
X099448Y076721D02*
Y080619D01*
X091129Y078322D02*
Y079858D01*
X087231Y078322D02*
Y079858D01*
X091129D01*
X087231Y078322D02*
X091129D01*
X095389D02*
Y079858D01*
X091491Y078322D02*
Y079858D01*
X095389D01*
X091491Y078322D02*
X095389D01*
X050888Y080619D02*
X050888Y076721D01*
X049352D02*
Y080619D01*
Y076721D02*
X050888D01*
X049352Y080619D02*
X050888D01*
X067514Y075717D02*
X070466Y075717D01*
X067514Y080363D02*
X070466Y080363D01*
Y075717D02*
Y080363D01*
X067514Y075717D02*
Y080363D01*
X054871Y078322D02*
X058769D01*
X054871Y079858D02*
X058769D01*
X054871Y078322D02*
Y079858D01*
X058769Y078322D02*
Y079858D01*
X059101Y078322D02*
X062999D01*
X059101Y079858D02*
X062999D01*
X059101Y078322D02*
Y079858D01*
X062999Y078322D02*
Y079858D01*
D75*
X055905Y076163D02*
X057215D01*
X055905D02*
Y076577D01*
X057215D01*
Y076163D02*
Y076577D01*
X056186Y076026D02*
Y076163D01*
X05591Y076026D02*
X056186D01*
X05591D02*
Y076163D01*
X056304Y076577D02*
Y076714D01*
X056501D01*
Y076577D02*
Y076714D01*
X056304Y076026D02*
Y076163D01*
X056501Y076026D02*
Y076163D01*
X056304Y076026D02*
X056501D01*
X05591Y076714D02*
X056186D01*
Y076577D02*
Y076714D01*
X05591Y076577D02*
Y076714D01*
X056619Y076026D02*
Y076163D01*
X056816Y076026D02*
Y076163D01*
X056619Y076026D02*
X056816D01*
X05721Y076577D02*
Y076714D01*
X056934Y076577D02*
Y076714D01*
X05721D01*
X056934Y076026D02*
Y076163D01*
X05721Y076026D02*
Y076163D01*
X056934Y076026D02*
X05721D01*
X056816Y076577D02*
Y076714D01*
X056619Y076577D02*
Y076714D01*
X056816D01*
X055901Y076065D02*
X05591D01*
X055901D02*
Y076675D01*
X05591D01*
X056816D02*
X056821D01*
Y076582D02*
Y076675D01*
Y076582D02*
X056929D01*
Y076675D01*
X056934D01*
X056506Y076582D02*
Y076675D01*
Y076582D02*
X056614D01*
Y076675D01*
X056619D01*
X056501D02*
X056506D01*
X056929Y076065D02*
X056934D01*
X056821Y076158D02*
X056929D01*
X056821Y076065D02*
Y076158D01*
X056929Y076065D02*
Y076158D01*
X056816Y076065D02*
X056821D01*
X05721Y076675D02*
X057219D01*
Y076065D02*
Y076675D01*
X05721Y076065D02*
X057219D01*
X056299D02*
X056304D01*
X056191Y076158D02*
X056299D01*
X056191Y076065D02*
Y076158D01*
X056186Y076065D02*
X056191D01*
X056299D02*
Y076158D01*
X056614Y076065D02*
Y076158D01*
X056506D02*
X056614D01*
X056501Y076065D02*
X056506D01*
Y076158D01*
X056614Y076065D02*
X056619D01*
X056186Y076675D02*
X056191D01*
Y076582D02*
Y076675D01*
X056299D02*
X056304D01*
X056299Y076582D02*
Y076675D01*
X056191Y076582D02*
X056299D01*
X060115Y076163D02*
X061425D01*
X060115D02*
Y076577D01*
X061425D01*
Y076163D02*
Y076577D01*
X060396Y076026D02*
Y076163D01*
X06012Y076026D02*
X060396D01*
X06012D02*
Y076163D01*
X060514Y076577D02*
Y076714D01*
X060711D01*
Y076577D02*
Y076714D01*
X060514Y076026D02*
Y076163D01*
X060711Y076026D02*
Y076163D01*
X060514Y076026D02*
X060711D01*
X06012Y076714D02*
X060396D01*
Y076577D02*
Y076714D01*
X06012Y076577D02*
Y076714D01*
X060829Y076026D02*
Y076163D01*
X061026Y076026D02*
Y076163D01*
X060829Y076026D02*
X061026D01*
X06142Y076577D02*
Y076714D01*
X061144Y076577D02*
Y076714D01*
X06142D01*
X061144Y076026D02*
Y076163D01*
X06142Y076026D02*
Y076163D01*
X061144Y076026D02*
X06142D01*
X061026Y076577D02*
Y076714D01*
X060829Y076577D02*
Y076714D01*
X061026D01*
X060111Y076065D02*
X06012D01*
X060111D02*
Y076675D01*
X06012D01*
X061026D02*
X061031D01*
Y076582D02*
Y076675D01*
Y076582D02*
X061139D01*
Y076675D01*
X061144D01*
X060716Y076582D02*
Y076675D01*
Y076582D02*
X060824D01*
Y076675D01*
X060829D01*
X060711D02*
X060716D01*
X061139Y076065D02*
X061144D01*
X061031Y076158D02*
X061139D01*
X061031Y076065D02*
Y076158D01*
X061139Y076065D02*
Y076158D01*
X061026Y076065D02*
X061031D01*
X06142Y076675D02*
X061429D01*
Y076065D02*
Y076675D01*
X06142Y076065D02*
X061429D01*
X060509D02*
X060514D01*
X060401Y076158D02*
X060509D01*
X060401Y076065D02*
Y076158D01*
X060396Y076065D02*
X060401D01*
X060509D02*
Y076158D01*
X060824Y076065D02*
Y076158D01*
X060716D02*
X060824D01*
X060711Y076065D02*
X060716D01*
Y076158D01*
X060824Y076065D02*
X060829D01*
X060396Y076675D02*
X060401D01*
Y076582D02*
Y076675D01*
X060509D02*
X060514D01*
X060509Y076582D02*
Y076675D01*
X060401Y076582D02*
X060509D01*
X065683Y078655D02*
Y079965D01*
X066097D01*
Y078655D02*
Y079965D01*
X065683Y078655D02*
X066097D01*
X065546Y079684D02*
X065683Y079684D01*
X065546Y079684D02*
Y07996D01*
X065683D01*
X066097Y079566D02*
X066234D01*
X066234Y079369D01*
X066097D02*
X066234D01*
X065546Y079566D02*
X065683D01*
X065546Y079369D02*
X065683D01*
X065546D02*
Y079566D01*
X066234Y07996D02*
X066234Y079684D01*
X066097Y079684D02*
X066234Y079684D01*
X066097Y07996D02*
X066234D01*
X065546Y079251D02*
X065683D01*
X065546Y079054D02*
X065683D01*
X065546D02*
Y079251D01*
X066097Y07866D02*
X066234D01*
X066097Y078936D02*
X066234Y078936D01*
Y07866D02*
Y078936D01*
X065546Y078936D02*
X065683D01*
X065546Y07866D02*
X065683D01*
X065546Y078936D02*
X065546Y07866D01*
X066097Y079054D02*
X066234D01*
X066097Y079251D02*
X066234Y079251D01*
X066234Y079054D02*
X066234Y079251D01*
X065585Y079969D02*
X065585Y07996D01*
X065585Y079969D02*
X066195D01*
Y07996D02*
Y079969D01*
Y079049D02*
Y079054D01*
X066102Y079049D02*
X066195D01*
X066102Y078941D02*
Y079049D01*
Y078941D02*
X066195D01*
Y078936D02*
Y078941D01*
X066102Y079364D02*
X066195D01*
X066102Y079256D02*
Y079364D01*
Y079256D02*
X066195D01*
Y079251D02*
Y079256D01*
Y079364D02*
Y079369D01*
X065585Y078936D02*
Y078941D01*
X065678D02*
Y079049D01*
X065585D02*
X065678D01*
X065585Y078941D02*
X065678D01*
X065585Y079049D02*
Y079054D01*
X066195Y078651D02*
Y07866D01*
X065585Y078651D02*
X066195D01*
X065585Y07866D02*
X065585Y078651D01*
X065585Y079566D02*
Y079571D01*
X065678Y079571D02*
X065678Y079679D01*
X065585Y079679D02*
X065678Y079679D01*
X065585Y079679D02*
Y079684D01*
X065585Y079571D02*
X065678Y079571D01*
X065585Y079256D02*
X065678Y079256D01*
X065678Y079364D02*
X065678Y079256D01*
X065585Y079364D02*
Y079369D01*
Y079364D02*
X065678Y079364D01*
X065585Y079251D02*
Y079256D01*
X066195Y079679D02*
Y079684D01*
X066102Y079679D02*
X066195D01*
Y079566D02*
Y079571D01*
X066102D02*
X066195D01*
X066102D02*
Y079679D01*
X065683Y076645D02*
Y077955D01*
X066097D01*
Y076645D02*
Y077955D01*
X065683Y076645D02*
X066097D01*
X065546Y077674D02*
X065683D01*
X065546Y07795D02*
X065546Y077674D01*
X065546Y07795D02*
X065683D01*
X066097Y077556D02*
X066234D01*
Y077359D02*
Y077556D01*
X066097Y077359D02*
X066234D01*
X065546Y077556D02*
X065683D01*
X065546Y077359D02*
X065683D01*
X065546D02*
X065546Y077556D01*
X066234Y077674D02*
Y07795D01*
X066097Y077674D02*
X066234D01*
X066097Y07795D02*
X066234Y07795D01*
X065546Y077241D02*
X065683D01*
X065546Y077044D02*
X065683D01*
X065546Y077241D02*
X065546Y077044D01*
X066097Y07665D02*
X066234D01*
X066097Y076926D02*
X066234D01*
X066234Y07665D02*
X066234Y076926D01*
X065546D02*
X065683D01*
X065546Y07665D02*
X065683D01*
X065546D02*
X065546Y076926D01*
X066097Y077044D02*
X066234Y077044D01*
X066097Y077241D02*
X066234D01*
Y077044D02*
Y077241D01*
X065585Y07795D02*
Y077959D01*
X066195D01*
Y07795D02*
Y077959D01*
Y077039D02*
Y077044D01*
X066102Y077039D02*
X066195D01*
X066102Y076931D02*
Y077039D01*
Y076931D02*
X066195D01*
Y076926D02*
Y076931D01*
X066102Y077354D02*
X066195D01*
X066102Y077246D02*
X066102Y077354D01*
X066102Y077246D02*
X066195D01*
X066195Y077241D01*
X066195Y077354D02*
Y077359D01*
X065585Y076926D02*
Y076931D01*
X065678D02*
Y077039D01*
X065585D02*
X065678D01*
X065585Y076931D02*
X065678D01*
X065585Y077039D02*
Y077044D01*
X066195Y076641D02*
Y07665D01*
X065585Y076641D02*
X066195D01*
X065585D02*
Y07665D01*
Y077556D02*
Y077561D01*
X065678D02*
Y077669D01*
X065585D02*
X065678D01*
X065585Y077674D02*
X065585Y077669D01*
Y077561D02*
X065678D01*
X065585Y077246D02*
X065678D01*
Y077354D01*
X065585D02*
Y077359D01*
Y077354D02*
X065678D01*
X065585Y077241D02*
Y077246D01*
X066195Y077669D02*
Y077674D01*
X066102Y077669D02*
X066195D01*
Y077556D02*
Y077561D01*
X066102D02*
X066195D01*
X066102D02*
Y077669D01*
X088551Y076582D02*
X088659D01*
Y076675D01*
X088664D01*
X088551Y076582D02*
Y076675D01*
X088546D02*
X088551D01*
X088974Y076065D02*
X088979D01*
X088866D02*
Y076158D01*
X088861Y076065D02*
X088866D01*
Y076158D02*
X088974D01*
Y076065D02*
Y076158D01*
X088659Y076065D02*
Y076158D01*
X088546Y076065D02*
X088551D01*
Y076158D01*
X088659D01*
Y076065D02*
X088664D01*
X08957D02*
X089579D01*
Y076675D01*
X08957D02*
X089579D01*
X089176Y076065D02*
X089181D01*
X089289D02*
Y076158D01*
X089181Y076065D02*
Y076158D01*
X089289D01*
Y076065D02*
X089294D01*
X088861Y076675D02*
X088866D01*
X088974D02*
X088979D01*
X088974Y076582D02*
Y076675D01*
X088866Y076582D02*
X088974D01*
X088866D02*
Y076675D01*
X089289D02*
X089294D01*
X089289Y076582D02*
Y076675D01*
X089181Y076582D02*
X089289D01*
X089181D02*
Y076675D01*
X089176D02*
X089181D01*
X088261D02*
X08827D01*
X088261Y076065D02*
Y076675D01*
Y076065D02*
X08827D01*
X088979Y076714D02*
X089176D01*
X088979Y076577D02*
Y076714D01*
X089176Y076577D02*
Y076714D01*
X089294Y076026D02*
X08957D01*
Y076163D01*
X089294Y076026D02*
Y076163D01*
Y076714D02*
X08957D01*
X089294Y076577D02*
Y076714D01*
X08957Y076577D02*
Y076714D01*
X088979Y076026D02*
X089176D01*
Y076163D01*
X088979Y076026D02*
Y076163D01*
X08827Y076577D02*
Y076714D01*
X088546Y076577D02*
Y076714D01*
X08827D02*
X088546D01*
X088664Y076026D02*
X088861D01*
Y076163D01*
X088664Y076026D02*
Y076163D01*
X088861Y076577D02*
Y076714D01*
X088664D02*
X088861D01*
X088664Y076577D02*
Y076714D01*
X08827Y076026D02*
Y076163D01*
Y076026D02*
X088546D01*
Y076163D01*
X089575D02*
Y076577D01*
X088265D02*
X089575D01*
X088265Y076163D02*
Y076577D01*
Y076163D02*
X089575D01*
X096572Y07679D02*
Y07683D01*
X096194Y07679D02*
X096666D01*
Y07683D01*
X096194Y07679D02*
Y07683D01*
X096288Y07679D02*
Y07683D01*
Y07801D02*
Y07805D01*
X096194D02*
X096666D01*
X096194Y07801D02*
Y07805D01*
X096666Y07801D02*
Y07805D01*
X096572Y07801D02*
Y07805D01*
X096115Y076829D02*
Y078011D01*
X096745D01*
X096115D02*
X09614Y077986D01*
X096115Y076829D02*
X09614Y076854D01*
X096115Y076829D02*
X096745D01*
X09614Y077986D02*
X09672D01*
X09614Y077051D02*
X09672D01*
X09614Y076854D02*
Y077986D01*
Y076854D02*
X09672D01*
X096745Y076829D02*
Y078011D01*
X09672Y077986D02*
X096745Y078011D01*
X09672Y076854D02*
Y077986D01*
Y076854D02*
X096745Y076829D01*
X083898Y076391D02*
X083898Y076499D01*
X083805Y076499D02*
X083898Y076499D01*
X083805Y076504D02*
X083805Y076499D01*
Y076391D02*
X083898D01*
X083805Y076386D02*
Y076391D01*
X084415Y076814D02*
Y076819D01*
X084322Y076706D02*
X084415Y076706D01*
Y076701D02*
Y076706D01*
X084322Y076814D02*
X084322Y076706D01*
X084322Y076814D02*
X084415Y076814D01*
X084322Y076499D02*
X084415Y076499D01*
X084415Y076386D02*
Y076391D01*
X084322Y076391D02*
X084415Y076391D01*
X084322Y076391D02*
X084322Y076499D01*
X084415Y076499D02*
Y076504D01*
X084415Y07741D02*
Y077419D01*
X083805Y077419D02*
X084415Y077419D01*
X083805Y07741D02*
Y077419D01*
X084415Y077016D02*
Y077021D01*
X084322Y077129D02*
X084415D01*
X084322Y077021D02*
X084415D01*
X084322D02*
Y077129D01*
X084415D02*
Y077134D01*
X083805Y076701D02*
Y076706D01*
Y076814D02*
Y076819D01*
Y076814D02*
X083898Y076814D01*
Y076706D02*
Y076814D01*
X083805Y076706D02*
X083898Y076706D01*
X083805Y077129D02*
Y077134D01*
Y077129D02*
X083898D01*
Y077021D02*
Y077129D01*
X083805Y077021D02*
X083898D01*
X083805Y077016D02*
Y077021D01*
Y076101D02*
Y07611D01*
Y076101D02*
X084415Y076101D01*
X084415Y07611D02*
X084415Y076101D01*
X083766Y076819D02*
X083766Y077016D01*
X083766Y076819D02*
X083903Y076819D01*
X083766Y077016D02*
X083903D01*
X084454Y077134D02*
Y07741D01*
X084317D02*
X084454D01*
X084317Y077134D02*
X084454D01*
X083766D02*
Y07741D01*
Y077134D02*
X083903D01*
X083766Y07741D02*
X083903D01*
X084454Y076819D02*
Y077016D01*
X084317D02*
X084454D01*
X084317Y076819D02*
X084454Y076819D01*
X083766Y07611D02*
X083903D01*
X083766Y076386D02*
X083903Y076386D01*
X083766Y076386D02*
X083766Y07611D01*
X084454Y076504D02*
Y076701D01*
X084317D02*
X084454D01*
X084317Y076504D02*
X084454D01*
X083766Y076701D02*
X083903D01*
X083766Y076504D02*
Y076701D01*
Y076504D02*
X083903D01*
X084317Y07611D02*
X084454D01*
Y076386D01*
X084317Y076386D02*
X084454Y076386D01*
X083903Y077415D02*
X084317D01*
X083903Y076105D02*
Y077415D01*
Y076105D02*
X084317D01*
Y077415D01*
X092811Y076582D02*
X092919D01*
Y076675D01*
X092924D01*
X092811Y076582D02*
Y076675D01*
X092806D02*
X092811D01*
X093234Y076065D02*
X093239D01*
X093126D02*
Y076158D01*
X093121Y076065D02*
X093126D01*
Y076158D02*
X093234D01*
Y076065D02*
Y076158D01*
X092919Y076065D02*
Y076158D01*
X092806Y076065D02*
X092811D01*
Y076158D01*
X092919D01*
Y076065D02*
X092924D01*
X09383D02*
X093839D01*
Y076675D01*
X09383D02*
X093839D01*
X093436Y076065D02*
X093441D01*
X093549D02*
Y076158D01*
X093441Y076065D02*
Y076158D01*
X093549D01*
Y076065D02*
X093554D01*
X093121Y076675D02*
X093126D01*
X093234D02*
X093239D01*
X093234Y076582D02*
Y076675D01*
X093126Y076582D02*
X093234D01*
X093126D02*
Y076675D01*
X093549D02*
X093554D01*
X093549Y076582D02*
Y076675D01*
X093441Y076582D02*
X093549D01*
X093441Y076675D02*
X093441Y076582D01*
X093436Y076675D02*
X093441D01*
X092521D02*
X09253D01*
X092521Y076065D02*
Y076675D01*
Y076065D02*
X09253D01*
X093239Y076714D02*
X093436D01*
X093239Y076577D02*
Y076714D01*
X093436Y076577D02*
Y076714D01*
X093554Y076026D02*
X09383Y076026D01*
Y076163D01*
X093554Y076026D02*
Y076163D01*
Y076714D02*
X09383D01*
X093554Y076577D02*
Y076714D01*
X09383Y076577D02*
Y076714D01*
X093239Y076026D02*
X093436D01*
Y076163D01*
X093239Y076026D02*
Y076163D01*
X09253Y076577D02*
Y076714D01*
X092806Y076577D02*
Y076714D01*
X09253D02*
X092806D01*
X092924Y076026D02*
X093121D01*
Y076163D01*
X092924Y076026D02*
Y076163D01*
X093121Y076577D02*
Y076714D01*
X092924D02*
X093121D01*
X092924Y076577D02*
Y076714D01*
X09253Y076026D02*
Y076163D01*
Y076026D02*
X092806Y076026D01*
Y076163D01*
X093835D02*
Y076577D01*
X092525D02*
X093835D01*
X092525Y076163D02*
Y076577D01*
Y076163D02*
X093835D01*
X083898Y078391D02*
Y078499D01*
X083805Y078499D02*
X083898Y078499D01*
X083805Y078499D02*
Y078504D01*
Y078391D02*
X083898Y078391D01*
X083805Y078386D02*
Y078391D01*
X084415Y078814D02*
Y078819D01*
X084322Y078706D02*
X084415Y078706D01*
Y078701D02*
Y078706D01*
X084322Y078706D02*
X084322Y078814D01*
X084415Y078814D01*
X084322Y078499D02*
X084415D01*
Y078386D02*
Y078391D01*
X084322D02*
X084415D01*
X084322D02*
Y078499D01*
X084415D02*
Y078504D01*
Y07941D02*
Y079419D01*
X083805D02*
X084415D01*
X083805Y07941D02*
Y079419D01*
X084415Y079016D02*
X084415Y079021D01*
X084322Y079129D02*
X084415D01*
X084322Y079021D02*
X084415D01*
X084322D02*
Y079129D01*
X084415D02*
Y079134D01*
X083805Y078701D02*
Y078706D01*
X083805Y078814D02*
X083805Y078819D01*
X083805Y078814D02*
X083898D01*
Y078706D02*
Y078814D01*
X083805Y078706D02*
X083898Y078706D01*
X083805Y079129D02*
Y079134D01*
Y079129D02*
X083898D01*
Y079021D02*
Y079129D01*
X083805Y079021D02*
X083898D01*
X083805Y079016D02*
Y079021D01*
Y078101D02*
Y07811D01*
Y078101D02*
X084415D01*
Y07811D01*
X083766Y078819D02*
Y079016D01*
Y078819D02*
X083903D01*
X083766Y079016D02*
X083903D01*
X084454Y079134D02*
Y07941D01*
X084317D02*
X084454D01*
X084317Y079134D02*
X084454D01*
X083766Y079134D02*
X083766Y07941D01*
X083766Y079134D02*
X083903Y079134D01*
X083766Y07941D02*
X083903D01*
X084454Y078819D02*
Y079016D01*
X084317D02*
X084454D01*
X084317Y078819D02*
X084454D01*
X083766Y07811D02*
X083903Y07811D01*
X083766Y078386D02*
X083903D01*
X083766Y07811D02*
Y078386D01*
X084454Y078504D02*
X084454Y078701D01*
X084317Y078701D02*
X084454Y078701D01*
X084317Y078504D02*
X084454Y078504D01*
X083766Y078701D02*
X083903Y078701D01*
X083766Y078701D02*
X083766Y078504D01*
X083903D01*
X084317Y07811D02*
X084454Y07811D01*
Y078386D01*
X084317D02*
X084454D01*
X083903Y079415D02*
X084317D01*
X083903Y078105D02*
Y079415D01*
Y078105D02*
X084317D01*
Y079415D01*
X102238Y077061D02*
Y077169D01*
X102145D02*
X102238D01*
X102145D02*
Y077174D01*
Y077061D02*
X102238D01*
X102145Y077056D02*
Y077061D01*
X102755Y077484D02*
Y077489D01*
X102662Y077376D02*
X102755D01*
Y077371D02*
Y077376D01*
X102662D02*
Y077484D01*
X102755D01*
X102662Y077169D02*
X102755D01*
Y077056D02*
Y077061D01*
X102662D02*
X102755D01*
X102662D02*
Y077169D01*
X102755D02*
Y077174D01*
Y07808D02*
Y078089D01*
X102145D02*
X102755D01*
X102145Y07808D02*
Y078089D01*
X102755Y077686D02*
Y077691D01*
X102662Y077799D02*
X102755D01*
X102662Y077691D02*
X102755D01*
X102662D02*
Y077799D01*
X102755D02*
Y077804D01*
X102145Y077371D02*
Y077376D01*
Y077484D02*
Y077489D01*
Y077484D02*
X102238D01*
Y077376D02*
Y077484D01*
X102145Y077376D02*
X102238D01*
X102145Y077799D02*
Y077804D01*
Y077799D02*
X102238D01*
Y077691D02*
Y077799D01*
X102145Y077691D02*
X102238D01*
X102145Y077686D02*
Y077691D01*
Y076771D02*
Y07678D01*
Y076771D02*
X102755D01*
Y07678D01*
X102106Y077489D02*
Y077686D01*
Y077489D02*
X102243D01*
X102106Y077686D02*
X102243D01*
X102794Y077804D02*
Y07808D01*
X102657D02*
X102794D01*
X102657Y077804D02*
X102794D01*
X102106D02*
Y07808D01*
Y077804D02*
X102243D01*
X102106Y07808D02*
X102243D01*
X102794Y077489D02*
Y077686D01*
X102657D02*
X102794D01*
X102657Y077489D02*
X102794D01*
X102106Y07678D02*
X102243D01*
X102106Y077056D02*
X102243D01*
X102106D02*
X102106Y07678D01*
X102794Y077174D02*
Y077371D01*
X102657D02*
X102794D01*
X102657Y077174D02*
X102794D01*
X102106Y077371D02*
X102243D01*
X102106Y077174D02*
Y077371D01*
Y077174D02*
X102243D01*
X102657Y07678D02*
X102794D01*
Y077056D01*
X102657D02*
X102794D01*
X102243Y078085D02*
X102657D01*
X102243Y076775D02*
Y078085D01*
Y076775D02*
X102657D01*
Y078085D01*
X102228Y078801D02*
Y078909D01*
X102135D02*
X102228D01*
X102135D02*
Y078914D01*
Y078801D02*
X102228D01*
X102135Y078796D02*
Y078801D01*
X102745Y079224D02*
Y079229D01*
X102652Y079116D02*
X102745D01*
Y079111D02*
Y079116D01*
X102652D02*
Y079224D01*
X102745D01*
X102652Y078909D02*
X102745D01*
Y078796D02*
Y078801D01*
X102652D02*
X102745D01*
X102652D02*
Y078909D01*
X102745D02*
Y078914D01*
Y07982D02*
Y079829D01*
X102135D02*
X102745D01*
X102135Y07982D02*
Y079829D01*
X102745Y079426D02*
Y079431D01*
X102652Y079539D02*
X102745D01*
X102652Y079431D02*
X102745D01*
X102652D02*
Y079539D01*
X102745D02*
Y079544D01*
X102135Y079111D02*
Y079116D01*
Y079224D02*
Y079229D01*
Y079224D02*
X102228D01*
Y079116D02*
Y079224D01*
X102135Y079116D02*
X102228D01*
X102135Y079539D02*
Y079544D01*
Y079539D02*
X102228D01*
Y079431D02*
Y079539D01*
X102135Y079431D02*
X102228D01*
X102135Y079426D02*
Y079431D01*
Y078511D02*
Y07852D01*
Y078511D02*
X102745D01*
Y07852D01*
X102095Y079229D02*
Y079426D01*
Y079229D02*
X102233D01*
X102095Y079426D02*
X102233D01*
X102784Y079544D02*
Y07982D01*
X102647D02*
X102784D01*
X102647Y079544D02*
X102784D01*
X102095D02*
X102096Y07982D01*
X102095Y079544D02*
X102233D01*
X102096Y07982D02*
X102233D01*
X102784Y079229D02*
Y079426D01*
X102647D02*
X102784D01*
X102647Y079229D02*
X102784D01*
X102096Y07852D02*
X102233D01*
X102095Y078796D02*
X102233D01*
X102095D02*
X102096Y07852D01*
X102784Y078914D02*
Y079111D01*
X102647D02*
X102784D01*
X102647Y078914D02*
X102784D01*
X102095Y079111D02*
X102233D01*
X102095D02*
X102096Y078914D01*
X102233D01*
X102647Y07852D02*
X102784D01*
Y078796D01*
X102647D02*
X102784D01*
X102233Y079825D02*
X102647D01*
X102233Y078515D02*
Y079825D01*
Y078515D02*
X102647D01*
Y079825D01*
X04776Y076854D02*
X047785Y076829D01*
X04776Y077986D02*
X04776Y076854D01*
X04776Y077986D02*
X047785Y078011D01*
Y076829D02*
Y078011D01*
X04718Y076854D02*
X04776D01*
X04718D02*
Y077986D01*
Y077051D02*
X04776D01*
X04718Y077986D02*
X04776Y077986D01*
X047155Y076829D02*
X047785D01*
X047155D02*
X04718Y076854D01*
X047155Y078011D02*
X04718Y077986D01*
X047155Y078011D02*
X047785D01*
X047155Y076829D02*
Y078011D01*
X047612Y07805D02*
X047612Y07801D01*
X047706Y07801D02*
X047706Y07805D01*
X047234Y07801D02*
Y07805D01*
X047706Y07805D01*
X047328Y07801D02*
X047328Y07805D01*
X047328Y07679D02*
X047328Y07683D01*
X047234Y07679D02*
Y07683D01*
X047706Y07679D02*
X047706Y07683D01*
X047234Y07679D02*
X047706D01*
X047612D02*
Y07683D01*
X053287Y078105D02*
X053287Y076795D01*
X052873D02*
X053287D01*
X052873D02*
Y078105D01*
X053287Y078105D01*
X053287Y077076D02*
X053424D01*
Y0768D02*
Y077076D01*
X053287Y0768D02*
X053424Y0768D01*
X052736Y077194D02*
X052873D01*
X052736D02*
Y077391D01*
X052873D01*
X053287Y077194D02*
X053424D01*
X053287Y077391D02*
X053424D01*
Y077194D02*
Y077391D01*
X052736Y0768D02*
X052736Y077076D01*
X052873D01*
X052736Y0768D02*
X052873Y0768D01*
X053287Y077509D02*
X053424Y077509D01*
X053287Y077706D02*
X053424D01*
Y077509D02*
Y077706D01*
X052736Y0781D02*
X052873Y0781D01*
X052736Y077824D02*
X052873D01*
X052736Y0781D02*
X052736Y077824D01*
X053287D02*
X053424D01*
X053287Y0781D02*
X053424D01*
Y077824D02*
Y0781D01*
X052736Y077706D02*
X052873Y077706D01*
X052736Y077509D02*
X052873Y077509D01*
X052736Y077509D02*
Y077706D01*
X053385Y076791D02*
Y0768D01*
X052775Y076791D02*
X053385D01*
X052775D02*
Y0768D01*
Y077706D02*
Y077711D01*
X052868D01*
X052868Y077819D02*
X052868Y077711D01*
X052775Y077819D02*
X052868D01*
X052775D02*
Y077824D01*
X052775Y077396D02*
X052868D01*
Y077504D01*
X052775D02*
X052868D01*
X052775D02*
Y077509D01*
Y077391D02*
Y077396D01*
X053385Y077819D02*
Y077824D01*
X053292Y077711D02*
X053292Y077819D01*
X053292Y077711D02*
X053385D01*
X053292Y077819D02*
X053385D01*
X053385Y077706D02*
Y077711D01*
X052775Y0781D02*
Y078109D01*
X053385D01*
Y0781D02*
Y078109D01*
Y077189D02*
Y077194D01*
X053292Y077081D02*
Y077189D01*
Y077081D02*
X053385D01*
Y077076D02*
Y077081D01*
X053292Y077189D02*
X053385Y077189D01*
X053292Y077504D02*
X053385D01*
X053292Y077396D02*
Y077504D01*
X053385Y077391D02*
Y077396D01*
X053292D02*
X053385D01*
Y077504D02*
Y077509D01*
X052775Y077076D02*
Y077081D01*
X052868D01*
X052775Y077189D02*
Y077194D01*
Y077189D02*
X052868Y077189D01*
Y077081D02*
Y077189D01*
X053277Y079825D02*
X053277Y078515D01*
X052863D02*
X053277D01*
X052863D02*
X052863Y079825D01*
X053277D01*
X053277Y078796D02*
X053414D01*
Y07852D02*
Y078796D01*
X053277Y07852D02*
X053414Y07852D01*
X052726Y078914D02*
X052863D01*
X052726D02*
Y079111D01*
X052863D01*
X053277Y078914D02*
X053414D01*
X053277Y079111D02*
X053414D01*
X053414Y078914D01*
X052726Y07852D02*
Y078796D01*
X052863D01*
X052726Y07852D02*
X052863Y07852D01*
X053277Y079229D02*
X053414Y079229D01*
X053277Y079426D02*
X053414D01*
Y079229D02*
Y079426D01*
X052726Y07982D02*
X052863D01*
X052726Y079544D02*
X052863D01*
X052726D02*
Y07982D01*
X053277Y079544D02*
X053414D01*
X053277Y07982D02*
X053414Y07982D01*
X053414Y079544D02*
X053414Y07982D01*
X052726Y079426D02*
X052863D01*
X052726Y079229D02*
X052863D01*
X052726D02*
Y079426D01*
X053375Y078511D02*
Y07852D01*
X052765Y078511D02*
X053375D01*
X052765D02*
X052765Y07852D01*
X052765Y079426D02*
Y079431D01*
X052858D01*
X052858Y079539D01*
X052765D02*
X052858D01*
X052765D02*
X052765Y079544D01*
Y079116D02*
X052858Y079116D01*
X052858Y079224D01*
X052765Y079224D02*
X052858Y079224D01*
X052765Y079224D02*
Y079229D01*
X052765Y079111D02*
Y079116D01*
X053375Y079539D02*
Y079544D01*
X053282Y079431D02*
X053282Y079539D01*
X053282Y079431D02*
X053375D01*
X053282Y079539D02*
X053375D01*
X053375Y079426D02*
Y079431D01*
X052765Y07982D02*
Y079829D01*
X053375D01*
Y07982D02*
Y079829D01*
Y078909D02*
Y078914D01*
X053282Y078801D02*
Y078909D01*
Y078801D02*
X053375D01*
Y078796D02*
Y078801D01*
X053282Y078909D02*
X053375D01*
X053282Y079224D02*
X053375D01*
X053282Y079116D02*
Y079224D01*
X053375Y079111D02*
Y079116D01*
X053282D02*
X053375D01*
Y079224D02*
Y079229D01*
X052765Y078801D02*
X052765Y078796D01*
X052765Y078801D02*
X052858D01*
X052765Y078909D02*
Y078914D01*
Y078909D02*
X052858D01*
X052858Y078801D01*
M02*
