G04 Layer_Color=16711935*
%FSTAX24Y24*%
%MOIN*%
G70*
G01*
G75*
%ADD40C,0.0100*%
D40*
X10417Y0635D02*
X10417Y06134D01*
X10389Y0635D02*
X10389Y06134D01*
X10417D01*
X10389Y0635D02*
X10417D01*
Y0604D02*
X10417Y05824D01*
X10389Y0604D02*
X10389Y05824D01*
X10417D01*
X10389Y0604D02*
X10417D01*
X10445Y09458D02*
X10445Y09242D01*
X10417Y09458D02*
X10417Y09242D01*
X10445D01*
X10417Y09458D02*
X10445D01*
X10447Y09778D02*
X10447Y09562D01*
X10419Y09778D02*
X10419Y09562D01*
X10447D01*
X10419Y09778D02*
X10447D01*
X05072Y08996D02*
X05101Y08967D01*
Y08828D02*
Y08967D01*
X05072Y08996D02*
Y09026D01*
X05121Y08977D01*
Y08814D02*
Y08977D01*
X05088Y08781D02*
X05121Y08814D01*
X04956Y08781D02*
X05088D01*
X04956D02*
Y08801D01*
X05074D01*
X05101Y08828D01*
X066137Y083D02*
Y08563D01*
X065727Y08259D02*
X066137Y083D01*
X064487Y08259D02*
X065727D01*
X064077Y083D02*
X064487Y08259D01*
X064077Y083D02*
Y08563D01*
X063767Y08284D02*
Y08563D01*
Y08284D02*
X064307Y0823D01*
X065887D01*
X066437Y08285D01*
Y08563D01*
X066137D02*
X066437D01*
X063767D02*
X064077D01*
X059653Y083D02*
Y08563D01*
X059243Y08259D02*
X059653Y083D01*
X058003Y08259D02*
X059243D01*
X057593Y083D02*
X058003Y08259D01*
X057593Y083D02*
Y08563D01*
X057283Y08284D02*
Y08563D01*
Y08284D02*
X057823Y0823D01*
X059403D01*
X059953Y08285D01*
Y08563D01*
X059653D02*
X059953D01*
X057283D02*
X057593D01*
X07262D02*
X07262Y083D01*
X07221Y08259D02*
X07262Y083D01*
X07097Y08259D02*
X07221D01*
X07056Y083D02*
X07097Y08259D01*
X07056Y083D02*
Y08563D01*
X07025Y08284D02*
Y08563D01*
Y08284D02*
X07079Y0823D01*
X07237D01*
X07292Y08285D01*
Y08563D01*
X07262D02*
X07292D01*
X07025D02*
X07056D01*
X07916Y0856D02*
X07916Y08297D01*
X07875Y08256D02*
X07916Y08297D01*
X07751Y08256D02*
X07875D01*
X0771Y08297D02*
X07751Y08256D01*
X0771Y08297D02*
Y0856D01*
X07679Y08281D02*
Y0856D01*
Y08281D02*
X07733Y08227D01*
X07891D01*
X07946Y08282D01*
Y0856D01*
X07916D02*
X07946D01*
X07679D02*
X0771D01*
X085643D02*
X085643Y08297D01*
X085233Y08256D02*
X085643Y08297D01*
X083993Y08256D02*
X085233D01*
X083583Y08297D02*
X083993Y08256D01*
X083583Y08297D02*
Y0856D01*
X083273Y08281D02*
Y0856D01*
Y08281D02*
X083813Y08227D01*
X085393D01*
X085943Y08282D01*
Y0856D01*
X085643D02*
X085943D01*
X083273D02*
X083583D01*
X092127D02*
X092127Y08297D01*
X091717Y08256D02*
X092127Y08297D01*
X090477Y08256D02*
X091717D01*
X090067Y08297D02*
X090477Y08256D01*
X090067Y08297D02*
Y0856D01*
X089757Y08281D02*
Y0856D01*
Y08281D02*
X090297Y08227D01*
X091877D01*
X092427Y08282D01*
Y0856D01*
X092127D02*
X092427D01*
X089757D02*
X090067D01*
X09861D02*
X09861Y08297D01*
X0982Y08256D02*
X09861Y08297D01*
X09696Y08256D02*
X0982D01*
X09655Y08297D02*
X09696Y08256D01*
X09655Y08297D02*
Y0856D01*
X09624Y08281D02*
Y0856D01*
Y08281D02*
X09678Y08227D01*
X09836D01*
X09891Y08282D01*
Y0856D01*
X09861D02*
X09891D01*
X09624D02*
X09655D01*
X09665Y07291D02*
X09665Y07028D01*
X09665Y07291D02*
X09706Y07332D01*
X0983D01*
X09871Y07291D01*
Y07028D02*
Y07291D01*
X09902Y07028D02*
Y07307D01*
X09848Y07361D02*
X09902Y07307D01*
X0969Y07361D02*
X09848D01*
X09635Y07306D02*
X0969Y07361D01*
X09635Y07028D02*
Y07306D01*
Y07028D02*
X09665D01*
X09871D02*
X09902D01*
X090161Y07291D02*
X090161Y07028D01*
X090161Y07291D02*
X090571Y07332D01*
X091811D01*
X092221Y07291D01*
Y07028D02*
Y07291D01*
X092531Y07028D02*
Y07307D01*
X091991Y07361D02*
X092531Y07307D01*
X090411Y07361D02*
X091991D01*
X089861Y07306D02*
X090411Y07361D01*
X089861Y07028D02*
Y07306D01*
Y07028D02*
X090161D01*
X092221D02*
X092531D01*
X083673Y07291D02*
X083673Y07028D01*
X083673Y07291D02*
X084083Y07332D01*
X085323D01*
X085733Y07291D01*
Y07028D02*
Y07291D01*
X086043Y07028D02*
Y07307D01*
X085503Y07361D02*
X086043Y07307D01*
X083923Y07361D02*
X085503D01*
X083373Y07306D02*
X083923Y07361D01*
X083373Y07028D02*
Y07306D01*
Y07028D02*
X083673D01*
X085733D02*
X086043D01*
X077184Y07291D02*
X077184Y07028D01*
X077184Y07291D02*
X077594Y07332D01*
X078834D01*
X079244Y07291D01*
Y07028D02*
Y07291D01*
X079554Y07028D02*
Y07307D01*
X079014Y07361D02*
X079554Y07307D01*
X077434Y07361D02*
X079014D01*
X076884Y07306D02*
X077434Y07361D01*
X076884Y07028D02*
Y07306D01*
Y07028D02*
X077184D01*
X079244D02*
X079554D01*
X070696Y07291D02*
X070696Y07028D01*
X070696Y07291D02*
X071106Y07332D01*
X072346D01*
X072756Y07291D01*
Y07028D02*
Y07291D01*
X073066Y07028D02*
Y07307D01*
X072526Y07361D02*
X073066Y07307D01*
X070946Y07361D02*
X072526D01*
X070396Y07306D02*
X070946Y07361D01*
X070396Y07028D02*
Y07306D01*
Y07028D02*
X070696D01*
X072756D02*
X073066D01*
X064207Y07291D02*
X064207Y07028D01*
X064207Y07291D02*
X064617Y07332D01*
X065857D01*
X066267Y07291D01*
Y07028D02*
Y07291D01*
X066577Y07028D02*
Y07307D01*
X066037Y07361D02*
X066577Y07307D01*
X064457Y07361D02*
X066037D01*
X063907Y07306D02*
X064457Y07361D01*
X063907Y07028D02*
Y07306D01*
Y07028D02*
X064207D01*
X066267D02*
X066577D01*
X057719Y07291D02*
X057719Y07028D01*
X057719Y07291D02*
X058129Y07332D01*
X059369D01*
X059779Y07291D01*
Y07028D02*
Y07291D01*
X060089Y07028D02*
Y07307D01*
X059549Y07361D02*
X060089Y07307D01*
X057969Y07361D02*
X059549D01*
X057419Y07306D02*
X057969Y07361D01*
X057419Y07028D02*
Y07306D01*
Y07028D02*
X057719D01*
X059779D02*
X060089D01*
X05123Y07291D02*
X05123Y07028D01*
X05123Y07291D02*
X05164Y07332D01*
X05288D01*
X05329Y07291D01*
Y07028D02*
Y07291D01*
X0536Y07028D02*
Y07307D01*
X05306Y07361D02*
X0536Y07307D01*
X05148Y07361D02*
X05306D01*
X05093Y07306D02*
X05148Y07361D01*
X05093Y07028D02*
Y07306D01*
Y07028D02*
X05123D01*
X05329D02*
X0536D01*
X05531Y09026D02*
X05559D01*
X05529Y08812D02*
X05557D01*
X05529D02*
Y09028D01*
X05557Y08812D02*
Y09028D01*
X0508Y08563D02*
X05111D01*
X05317D02*
X05347D01*
Y08285D02*
Y08563D01*
X05292Y0823D02*
X05347Y08285D01*
X05134Y0823D02*
X05292D01*
X0508Y08284D02*
X05134Y0823D01*
X0508Y08284D02*
Y08563D01*
X05111Y083D02*
Y08563D01*
Y083D02*
X05152Y08259D01*
X05276D01*
X05317Y083D01*
Y08563D01*
X045603Y09777D02*
X110437D01*
X045603Y05825D02*
Y09777D01*
Y05825D02*
X110437D01*
Y09777D01*
X05337Y08828D02*
X05364Y08801D01*
X05482D01*
Y08781D02*
Y08801D01*
X0535Y08781D02*
X05482D01*
X05317Y08814D02*
X0535Y08781D01*
X05317Y08814D02*
Y08977D01*
X05366Y09026D01*
Y08996D02*
Y09026D01*
X05337Y08828D02*
Y08967D01*
X05366Y08996D01*
X059853Y08967D02*
X060143Y08996D01*
X059853Y08828D02*
Y08967D01*
X060143Y08996D02*
Y09026D01*
X059653Y08977D02*
X060143Y09026D01*
X059653Y08814D02*
Y08977D01*
Y08814D02*
X059983Y08781D01*
X061303D01*
Y08801D01*
X060123D02*
X061303D01*
X059853Y08828D02*
X060123Y08801D01*
X062053Y08812D02*
Y09028D01*
X061773Y08812D02*
Y09028D01*
Y08812D02*
X062053D01*
X061793Y09026D02*
X062073D01*
X057223Y08801D02*
X057493Y08828D01*
X056043Y08801D02*
X057223D01*
X056043Y08781D02*
Y08801D01*
Y08781D02*
X057363D01*
X057693Y08814D01*
Y08977D01*
X057203Y09026D02*
X057693Y08977D01*
X057203Y08996D02*
Y09026D01*
X057493Y08828D02*
Y08967D01*
X057203Y08996D02*
X057493Y08967D01*
X066337D02*
X066627Y08996D01*
X066337Y08828D02*
Y08967D01*
X066627Y08996D02*
Y09026D01*
X066137Y08977D02*
X066627Y09026D01*
X066137Y08814D02*
Y08977D01*
Y08814D02*
X066467Y08781D01*
X067787D01*
Y08801D01*
X066607D02*
X067787D01*
X066337Y08828D02*
X066607Y08801D01*
X068537Y08812D02*
Y09028D01*
X068257Y08812D02*
Y09028D01*
Y08812D02*
X068537D01*
X068277Y09026D02*
X068557D01*
X063707Y08801D02*
X063977Y08828D01*
X062527Y08801D02*
X063707D01*
X062527Y08781D02*
Y08801D01*
Y08781D02*
X063847D01*
X064177Y08814D01*
Y08977D01*
X063687Y09026D02*
X064177Y08977D01*
X063687Y08996D02*
Y09026D01*
X063977Y08828D02*
Y08967D01*
X063687Y08996D02*
X063977Y08967D01*
X07282D02*
X07311Y08996D01*
X07282Y08828D02*
Y08967D01*
X07311Y08996D02*
Y09026D01*
X07262Y08977D02*
X07311Y09026D01*
X07262Y08814D02*
Y08977D01*
Y08814D02*
X07295Y08781D01*
X07427D01*
Y08801D01*
X07309D02*
X07427D01*
X07282Y08828D02*
X07309Y08801D01*
X07502Y08812D02*
Y09028D01*
X07474Y08812D02*
Y09028D01*
Y08812D02*
X07502D01*
X07019Y08801D02*
X07046Y08828D01*
X06901Y08801D02*
X07019D01*
X06901Y08781D02*
Y08801D01*
Y08781D02*
X07033D01*
X07066Y08814D01*
Y08977D01*
X07017Y09026D02*
X07066Y08977D01*
X07017Y08996D02*
Y09026D01*
X07046Y08828D02*
Y08967D01*
X07017Y08996D02*
X07046Y08967D01*
X07936Y08964D02*
X07965Y08993D01*
X07936Y08825D02*
Y08964D01*
X07965Y08993D02*
Y09023D01*
X07916Y08974D02*
X07965Y09023D01*
X07916Y08811D02*
Y08974D01*
Y08811D02*
X07949Y08778D01*
X08081D01*
Y08798D01*
X07963D02*
X08081D01*
X07936Y08825D02*
X07963Y08798D01*
X08156Y08809D02*
Y09025D01*
X08128Y08809D02*
Y09025D01*
Y08809D02*
X08156D01*
X0813Y09023D02*
X08158D01*
X07673Y08798D02*
X077Y08825D01*
X07555Y08798D02*
X07673D01*
X07555Y08778D02*
Y08798D01*
Y08778D02*
X07687D01*
X0772Y08811D01*
Y08974D01*
X07671Y09023D02*
X0772Y08974D01*
X07671Y08993D02*
Y09023D01*
X077Y08825D02*
Y08964D01*
X07671Y08993D02*
X077Y08964D01*
X085843D02*
X086133Y08993D01*
X085843Y08825D02*
Y08964D01*
X086133Y08993D02*
Y09023D01*
X085643Y08974D02*
X086133Y09023D01*
X085643Y08811D02*
Y08974D01*
Y08811D02*
X085973Y08778D01*
X087293D01*
Y08798D01*
X086113D02*
X087293D01*
X085843Y08825D02*
X086113Y08798D01*
X088043Y08809D02*
Y09025D01*
X087763Y08809D02*
Y09025D01*
Y08809D02*
X088043D01*
X087783Y09023D02*
X088063D01*
X083213Y08798D02*
X083483Y08825D01*
X082033Y08798D02*
X083213D01*
X082033Y08778D02*
Y08798D01*
Y08778D02*
X083353D01*
X083683Y08811D01*
Y08974D01*
X083193Y09023D02*
X083683Y08974D01*
X083193Y08993D02*
Y09023D01*
X083483Y08825D02*
Y08964D01*
X083193Y08993D02*
X083483Y08964D01*
X092327D02*
X092617Y08993D01*
X092327Y08825D02*
Y08964D01*
X092617Y08993D02*
Y09023D01*
X092127Y08974D02*
X092617Y09023D01*
X092127Y08811D02*
Y08974D01*
Y08811D02*
X092457Y08778D01*
X093777D01*
Y08798D01*
X092597D02*
X093777D01*
X092327Y08825D02*
X092597Y08798D01*
X094527Y08809D02*
Y09025D01*
X094247Y08809D02*
Y09025D01*
Y08809D02*
X094527D01*
X094267Y09023D02*
X094547D01*
X089697Y08798D02*
X089967Y08825D01*
X088517Y08798D02*
X089697D01*
X088517Y08778D02*
Y08798D01*
Y08778D02*
X089837D01*
X090167Y08811D01*
Y08974D01*
X089677Y09023D02*
X090167Y08974D01*
X089677Y08993D02*
Y09023D01*
X089967Y08825D02*
Y08964D01*
X089677Y08993D02*
X089967Y08964D01*
X09881D02*
X0991Y08993D01*
X09881Y08825D02*
Y08964D01*
X0991Y08993D02*
Y09023D01*
X09861Y08974D02*
X0991Y09023D01*
X09861Y08811D02*
Y08974D01*
Y08811D02*
X09894Y08778D01*
X10026D01*
Y08798D01*
X09908D02*
X10026D01*
X09881Y08825D02*
X09908Y08798D01*
X10101Y08809D02*
Y09025D01*
X10073Y08809D02*
Y09025D01*
Y08809D02*
X10101D01*
X10075Y09023D02*
X10103D01*
X09618Y08798D02*
X09645Y08825D01*
X095Y08798D02*
X09618D01*
X095Y08778D02*
Y08798D01*
Y08778D02*
X09632D01*
X09665Y08811D01*
Y08974D01*
X09616Y09023D02*
X09665Y08974D01*
X09616Y08993D02*
Y09023D01*
X09645Y08825D02*
Y08964D01*
X09616Y08993D02*
X09645Y08964D01*
X05074Y06595D02*
X05103Y06624D01*
Y06763D01*
X05074Y06565D02*
Y06595D01*
Y06565D02*
X05123Y06614D01*
Y06777D01*
X0509Y0681D02*
X05123Y06777D01*
X04958Y0681D02*
X0509D01*
X04958Y0679D02*
X04958Y0681D01*
X04958Y0679D02*
X05076Y0679D01*
X05103Y06763D01*
X04883Y06563D02*
Y06779D01*
X04911Y06563D02*
Y06779D01*
X04883D02*
X04911D01*
X04883Y06563D02*
X04911D01*
X05339Y06763D02*
X05366Y0679D01*
X05484D01*
Y0681D01*
X05352D02*
X05484D01*
X05319Y06777D02*
X05352Y0681D01*
X05319Y06614D02*
Y06777D01*
Y06614D02*
X05368Y06565D01*
Y06595D01*
X05339Y06624D02*
Y06763D01*
Y06624D02*
X05368Y06595D01*
X057229D02*
X057519Y06624D01*
Y06763D01*
X057229Y06565D02*
Y06595D01*
Y06565D02*
X057719Y06614D01*
Y06777D01*
X057389Y0681D02*
X057719Y06777D01*
X056069Y0681D02*
X057389D01*
X056069Y0679D02*
X056069Y0681D01*
X056069Y0679D02*
X057249Y0679D01*
X057519Y06763D01*
X055319Y06563D02*
Y06779D01*
X055599Y06563D02*
Y06779D01*
X055319D02*
X055599D01*
X055319Y06563D02*
X055599D01*
X059879Y06763D02*
X060149Y0679D01*
X061329D01*
Y0681D01*
X060009D02*
X061329D01*
X059679Y06777D02*
X060009Y0681D01*
X059679Y06614D02*
Y06777D01*
Y06614D02*
X060169Y06565D01*
Y06595D01*
X059879Y06624D02*
Y06763D01*
Y06624D02*
X060169Y06595D01*
X063717D02*
X064007Y06624D01*
Y06763D01*
X063717Y06565D02*
Y06595D01*
Y06565D02*
X064207Y06614D01*
Y06777D01*
X063877Y0681D02*
X064207Y06777D01*
X062557Y0681D02*
X063877D01*
X062557Y0679D02*
X062557Y0681D01*
X062557Y0679D02*
X063737Y0679D01*
X064007Y06763D01*
X061807Y06563D02*
Y06779D01*
X062087Y06563D02*
Y06779D01*
X061807D02*
X062087D01*
X061807Y06563D02*
X062087D01*
X066367Y06763D02*
X066637Y0679D01*
X067817D01*
Y0681D01*
X066497D02*
X067817D01*
X066167Y06777D02*
X066497Y0681D01*
X066167Y06614D02*
Y06777D01*
Y06614D02*
X066657Y06565D01*
Y06595D01*
X066367Y06624D02*
Y06763D01*
Y06624D02*
X066657Y06595D01*
X070206D02*
X070496Y06624D01*
Y06763D01*
X070206Y06565D02*
Y06595D01*
Y06565D02*
X070696Y06614D01*
Y06777D01*
X070366Y0681D02*
X070696Y06777D01*
X069046Y0681D02*
X070366D01*
X069046Y0679D02*
X069046Y0681D01*
X069046Y0679D02*
X070226Y0679D01*
X070496Y06763D01*
X068296Y06563D02*
Y06779D01*
X068576Y06563D02*
Y06779D01*
X068296D02*
X068576D01*
X068296Y06563D02*
X068576D01*
X072856Y06763D02*
X073126Y0679D01*
X074306D01*
Y0681D01*
X072986D02*
X074306D01*
X072656Y06777D02*
X072986Y0681D01*
X072656Y06614D02*
Y06777D01*
Y06614D02*
X073146Y06565D01*
Y06595D01*
X072856Y06624D02*
Y06763D01*
Y06624D02*
X073146Y06595D01*
X076694D02*
X076984Y06624D01*
Y06763D01*
X076694Y06565D02*
Y06595D01*
Y06565D02*
X077184Y06614D01*
Y06777D01*
X076854Y0681D02*
X077184Y06777D01*
X075534Y0681D02*
X076854D01*
X075534Y0679D02*
X075534Y0681D01*
X075534Y0679D02*
X076714Y0679D01*
X076984Y06763D01*
X074784Y06563D02*
Y06779D01*
X075064Y06563D02*
Y06779D01*
X074784D02*
X075064D01*
X074784Y06563D02*
X075064D01*
X079344Y06763D02*
X079614Y0679D01*
X080794D01*
Y0681D01*
X079474D02*
X080794D01*
X079144Y06777D02*
X079474Y0681D01*
X079144Y06614D02*
Y06777D01*
Y06614D02*
X079634Y06565D01*
Y06595D01*
X079344Y06624D02*
Y06763D01*
Y06624D02*
X079634Y06595D01*
X083183D02*
X083473Y06624D01*
Y06763D01*
X083183Y06565D02*
Y06595D01*
Y06565D02*
X083673Y06614D01*
Y06777D01*
X083343Y0681D02*
X083673Y06777D01*
X082023Y0681D02*
X083343D01*
X082023Y0679D02*
X082023Y0681D01*
X082023Y0679D02*
X083203Y0679D01*
X083473Y06763D01*
X081273Y06563D02*
Y06779D01*
X081553Y06563D02*
Y06779D01*
X081273D02*
X081553D01*
X081273Y06563D02*
X081553D01*
X085833Y06763D02*
X086103Y0679D01*
X087283D01*
Y0681D01*
X085963D02*
X087283D01*
X085633Y06777D02*
X085963Y0681D01*
X085633Y06614D02*
Y06777D01*
Y06614D02*
X086123Y06565D01*
Y06595D01*
X085833Y06624D02*
Y06763D01*
Y06624D02*
X086123Y06595D01*
X089671D02*
X089961Y06624D01*
Y06763D01*
X089671Y06565D02*
Y06595D01*
Y06565D02*
X090161Y06614D01*
Y06777D01*
X089831Y0681D02*
X090161Y06777D01*
X088511Y0681D02*
X089831D01*
X088511Y0679D02*
X088511Y0681D01*
X088511Y0679D02*
X089691Y0679D01*
X089961Y06763D01*
X087761Y06563D02*
Y06779D01*
X088041Y06563D02*
Y06779D01*
X087761D02*
X088041D01*
X087761Y06563D02*
X088041D01*
X092321Y06763D02*
X092591Y0679D01*
X093771D01*
Y0681D01*
X092451D02*
X093771D01*
X092121Y06777D02*
X092451Y0681D01*
X092121Y06614D02*
Y06777D01*
Y06614D02*
X092611Y06565D01*
Y06595D01*
X092321Y06624D02*
Y06763D01*
Y06624D02*
X092611Y06595D01*
X09616D02*
X09645Y06624D01*
Y06763D01*
X09616Y06565D02*
Y06595D01*
Y06565D02*
X09665Y06614D01*
Y06777D01*
X09632Y0681D02*
X09665Y06777D01*
X095Y0681D02*
X09632D01*
X095Y0679D02*
X095Y0681D01*
X095Y0679D02*
X09618Y0679D01*
X09645Y06763D01*
X09425Y06563D02*
Y06779D01*
X09453Y06563D02*
Y06779D01*
X09425D02*
X09453D01*
X09425Y06563D02*
X09453D01*
X09881Y06763D02*
X09908Y0679D01*
X10026D01*
Y0681D01*
X09894D02*
X10026D01*
X09861Y06777D02*
X09894Y0681D01*
X09861Y06614D02*
Y06777D01*
Y06614D02*
X0991Y06565D01*
Y06595D01*
X09881Y06624D02*
Y06763D01*
Y06624D02*
X0991Y06595D01*
X10395Y06676D02*
Y06704D01*
X10179Y06676D02*
Y06704D01*
X10395Y06704D01*
X10179Y06676D02*
X10395D01*
X10698D02*
Y06704D01*
X10482Y06676D02*
Y06704D01*
X10698Y06704D01*
X10482Y06676D02*
X10698D01*
X1046Y08817D02*
Y08845D01*
X10244Y08817D02*
Y08845D01*
X1046Y08845D01*
X10244Y08817D02*
X1046D01*
X07476Y09026D02*
X07504D01*
M02*
