G04 Layer_Color=16711935*
%FSTAX24Y24*%
%MOIN*%
G70*
G01*
G75*
%ADD22C,0.0450*%
%ADD26C,0.0984*%
%ADD38C,0.0787*%
%ADD63R,0.0867X0.1064*%
%ADD64P,0.1791X8X22.5*%
%ADD65O,0.0830X0.0730*%
%ADD66O,0.0867X0.0671*%
%ADD67R,0.0867X0.0671*%
%ADD68C,0.1280*%
%ADD69O,0.0940X0.0680*%
%ADD70C,0.0680*%
%ADD71C,0.0580*%
%ADD72C,0.0277*%
%ADD73C,0.0395*%
G36*
X09408Y06444D02*
X09361Y06397D01*
Y06396D01*
X09281D01*
X09235Y06442D01*
Y06544D01*
X09408D01*
Y06444D01*
D02*
G37*
G36*
X06816Y06443D02*
X06769Y06396D01*
Y06395D01*
X06689D01*
X06643Y06441D01*
Y06543D01*
X06816D01*
Y06443D01*
D02*
G37*
G36*
X08106Y06445D02*
X08059Y06398D01*
Y06397D01*
X07979D01*
X07933Y06443D01*
Y06545D01*
X08106D01*
Y06445D01*
D02*
G37*
G36*
X05514D02*
X05467Y06398D01*
Y06397D01*
X05387D01*
X05341Y06443D01*
Y06545D01*
X05514D01*
Y06445D01*
D02*
G37*
G36*
X07464Y06264D02*
X07417Y06217D01*
Y06216D01*
X07337D01*
X07291Y06262D01*
Y06364D01*
X07464D01*
Y06264D01*
D02*
G37*
G36*
X08759Y06263D02*
X08712Y06216D01*
Y06215D01*
X08632D01*
X08586Y06261D01*
Y06363D01*
X08759D01*
Y06263D01*
D02*
G37*
G36*
X06167Y06267D02*
X0612Y0622D01*
Y06219D01*
X0604D01*
X05994Y06265D01*
Y06367D01*
X06167D01*
Y06267D01*
D02*
G37*
G36*
X10053Y06266D02*
X10006Y06219D01*
Y06218D01*
X09926D01*
X0988Y06264D01*
Y06366D01*
X10053D01*
Y06266D01*
D02*
G37*
G36*
X07044Y09344D02*
Y09242D01*
X06871D01*
Y09342D01*
X06918Y09389D01*
Y0939D01*
X06998D01*
X07044Y09344D01*
D02*
G37*
G36*
X05756D02*
Y09242D01*
X05583D01*
Y09342D01*
X0563Y09389D01*
Y0939D01*
X0571D01*
X05756Y09344D01*
D02*
G37*
G36*
X08353Y09348D02*
Y09246D01*
X0818D01*
Y09346D01*
X08227Y09393D01*
Y09394D01*
X08307D01*
X08353Y09348D01*
D02*
G37*
G36*
X09643Y09348D02*
Y09246D01*
X0947D01*
Y09346D01*
X09517Y09393D01*
Y09394D01*
X09597D01*
X09643Y09348D01*
D02*
G37*
G36*
X08994Y09145D02*
Y09043D01*
X08821D01*
Y09143D01*
X08868Y0919D01*
Y09191D01*
X08948D01*
X08994Y09145D01*
D02*
G37*
G36*
X07709Y09143D02*
Y09041D01*
X07536D01*
Y09141D01*
X07583Y09188D01*
Y09189D01*
X07663D01*
X07709Y09143D01*
D02*
G37*
G36*
X05105Y09154D02*
Y09052D01*
X04932D01*
Y09152D01*
X04979Y09199D01*
Y092D01*
X05059D01*
X05105Y09154D01*
D02*
G37*
G36*
X06392Y09151D02*
Y09049D01*
X06219D01*
Y09149D01*
X06266Y09196D01*
Y09197D01*
X06346D01*
X06392Y09151D01*
D02*
G37*
D22*
X058673Y0833D02*
X05871Y083337D01*
X05186Y094583D02*
X05187Y094574D01*
X051749Y09644D02*
X05186Y096328D01*
X07163Y08358D02*
X07184Y08337D01*
D26*
X10167Y08981D02*
X10238Y0891D01*
X10167Y08981D02*
Y09369D01*
X10532Y08949D02*
Y09669D01*
X10167Y09369D02*
X10168Y0937D01*
X10238Y0891D02*
X10254D01*
X103046Y059398D02*
Y064436D01*
X10305Y06444D01*
X105Y05932D02*
Y06535D01*
X10424Y06611D02*
X105Y06535D01*
X10161Y06611D02*
X10424D01*
X10089Y06539D02*
X10161Y06611D01*
X10089Y06316D02*
Y06539D01*
X10088Y06317D02*
X10089Y06316D01*
X10065Y06341D02*
X1009D01*
X09976Y06252D02*
X10065Y06341D01*
X05659Y09298D02*
Y09562D01*
X06304Y091D02*
Y09562D01*
X08908Y09096D02*
Y0957D01*
X10488Y08905D02*
X10532Y08949D01*
X10246Y08905D02*
X10488D01*
X103305Y090985D02*
Y096622D01*
X05009Y09107D02*
Y09562D01*
D38*
X05186Y08363D02*
Y09663D01*
X05009D02*
X051852D01*
X05381Y09462D02*
Y09674D01*
Y09462D02*
X05459Y09384D01*
Y0891D02*
Y09384D01*
X067565Y089092D02*
Y093832D01*
X066785Y094612D02*
X067565Y093832D01*
X066785Y094612D02*
Y096732D01*
X063065Y096622D02*
X064827D01*
X06483Y09675D02*
X064835Y083621D01*
X080638Y089092D02*
Y093832D01*
X079858Y094612D02*
X080638Y093832D01*
X079858Y094612D02*
Y096732D01*
X076138Y096622D02*
X0779D01*
X077909Y083621D02*
X07792Y09675D01*
X093538Y089092D02*
Y093832D01*
X092758Y094612D02*
X093538Y093832D01*
X092758Y094612D02*
Y096732D01*
X089038Y096622D02*
X0908D01*
X0908Y09678D02*
X090809Y083621D01*
X08876Y0621D02*
Y066814D01*
Y062064D02*
X089415Y061408D01*
Y059288D02*
Y061408D01*
X091373Y059398D02*
X093135D01*
X091365Y061986D02*
Y072409D01*
X07579Y062071D02*
Y066821D01*
Y062071D02*
X076453Y061408D01*
Y059288D02*
Y061408D01*
X07841Y059398D02*
X080173D01*
X078402Y061986D02*
Y072409D01*
X06281Y06208D02*
Y066838D01*
Y062088D02*
X06349Y061408D01*
Y059288D02*
Y061408D01*
X065448Y059398D02*
X06721D01*
X065439Y061986D02*
Y072409D01*
X049747Y062188D02*
Y066938D01*
Y062188D02*
X050527Y061408D01*
Y059288D02*
Y061408D01*
X052485Y059398D02*
X054247D01*
X052476Y061986D02*
Y072409D01*
X061082Y089092D02*
Y093832D01*
X060301Y094612D02*
X061082Y093832D01*
X060301Y094612D02*
Y096732D01*
X058352Y083621D02*
Y096622D01*
X071319Y083621D02*
Y09672D01*
X073268Y094612D02*
Y096732D01*
Y094612D02*
X074048Y093832D01*
Y089092D02*
Y093832D01*
X08434Y09683D02*
X084359Y083621D01*
X086308Y094612D02*
Y096732D01*
Y094612D02*
X087088Y093832D01*
Y089092D02*
Y093832D01*
X09725Y09683D02*
X097259Y083621D01*
X099208Y094612D02*
Y096732D01*
Y094612D02*
X10005Y09377D01*
Y089154D02*
Y09377D01*
X084884Y061986D02*
Y072409D01*
X082934Y059288D02*
Y061408D01*
X08222Y062122D02*
X082934Y061408D01*
X08222Y062122D02*
Y066872D01*
X071921Y061986D02*
Y072409D01*
X069971Y059288D02*
Y061408D01*
X06928Y062099D02*
X069971Y061408D01*
X06928Y06211D02*
Y066849D01*
X058958Y061986D02*
Y072409D01*
X057008Y059288D02*
Y061408D01*
X0563Y062117D02*
X057008Y061408D01*
X0563Y062117D02*
Y066867D01*
X056228Y066938D02*
X0563Y066867D01*
X06271Y066938D02*
X06281Y066838D01*
X069191Y066938D02*
X06928Y066849D01*
X075673Y066938D02*
X07579Y066821D01*
X082154Y066938D02*
X08222Y066872D01*
X088635Y066938D02*
X08876Y066814D01*
X097846Y061986D02*
Y072409D01*
X095897Y059288D02*
Y061408D01*
X09523Y062075D02*
X095897Y061408D01*
X09523Y06208D02*
Y066825D01*
X095117Y066938D02*
X09523Y066825D01*
X10532Y094699D02*
Y09669D01*
X10529Y094669D02*
X10532Y094699D01*
X10484Y08901D02*
X10529Y08946D01*
X103305Y094605D02*
Y096622D01*
X105015Y059398D02*
Y061375D01*
X10503Y06139D01*
Y06536D01*
X10424Y06615D02*
X10503Y06536D01*
X10157Y06615D02*
X10424D01*
X10109Y06567D02*
X10157Y06615D01*
X097886Y05943D02*
X09964D01*
X08493Y0594D02*
X08661D01*
X07196Y05943D02*
X073754D01*
X058998D02*
X060811D01*
X05434Y06044D02*
Y06503D01*
X060811Y06044D02*
Y063191D01*
X067283Y06044D02*
Y064967D01*
X052485Y059398D02*
Y061367D01*
X058966Y059326D02*
Y061367D01*
X065448Y059398D02*
Y061367D01*
X071929Y059398D02*
Y061367D01*
X07841Y059398D02*
Y061367D01*
X084892Y059438D02*
Y061367D01*
X091373Y059398D02*
Y061367D01*
X09781Y059506D02*
Y06144D01*
X09964Y06044D02*
Y0631D01*
X093169Y06044D02*
Y064911D01*
X08669Y06057D02*
Y06307D01*
X08675Y06313D01*
X08019Y06057D02*
Y06482D01*
X073754Y06044D02*
Y063084D01*
X099988Y089092D02*
X10005Y089154D01*
X056582Y096622D02*
X058344D01*
X069548D02*
X07131D01*
X082588D02*
X08435D01*
X095488D02*
X09725D01*
X06954Y09291D02*
Y09562D01*
X08263Y09295D02*
Y09562D01*
X09553Y09294D02*
Y09564D01*
X07618Y09091D02*
Y09562D01*
D63*
X103305Y096622D02*
D03*
Y094653D02*
D03*
X105274D02*
D03*
Y096622D02*
D03*
X097855Y059398D02*
D03*
Y061367D02*
D03*
X095886D02*
D03*
Y059398D02*
D03*
X091373Y059398D02*
D03*
Y061367D02*
D03*
X089405D02*
D03*
Y059398D02*
D03*
X084892Y059398D02*
D03*
Y061367D02*
D03*
X082923D02*
D03*
Y059398D02*
D03*
X07841Y059398D02*
D03*
Y061367D02*
D03*
X076442D02*
D03*
Y059398D02*
D03*
X071929Y059398D02*
D03*
Y061367D02*
D03*
X06996D02*
D03*
Y059398D02*
D03*
X065448Y059398D02*
D03*
Y061367D02*
D03*
X063479D02*
D03*
Y059398D02*
D03*
X058966Y059398D02*
D03*
Y061367D02*
D03*
X056998D02*
D03*
Y059398D02*
D03*
X105015Y059398D02*
D03*
Y061367D02*
D03*
X103046D02*
D03*
Y059398D02*
D03*
X052485Y059398D02*
D03*
Y061367D02*
D03*
X050516D02*
D03*
Y059398D02*
D03*
X053829Y096622D02*
D03*
Y094653D02*
D03*
X05186D02*
D03*
Y096622D02*
D03*
X060312D02*
D03*
Y094653D02*
D03*
X058344D02*
D03*
Y096622D02*
D03*
X066796D02*
D03*
Y094653D02*
D03*
X064827D02*
D03*
Y096622D02*
D03*
X073279D02*
D03*
Y094653D02*
D03*
X07131D02*
D03*
Y096622D02*
D03*
X079869D02*
D03*
Y094653D02*
D03*
X0779D02*
D03*
Y096622D02*
D03*
X092769D02*
D03*
Y094653D02*
D03*
X0908D02*
D03*
Y096622D02*
D03*
X099219D02*
D03*
Y094653D02*
D03*
X09725D02*
D03*
Y096622D02*
D03*
X086319D02*
D03*
Y094653D02*
D03*
X08435D02*
D03*
Y096622D02*
D03*
D64*
X047177Y096195D02*
D03*
Y059825D02*
D03*
X108862Y059831D02*
D03*
Y096195D02*
D03*
D65*
X09964Y06044D02*
D03*
Y05943D02*
D03*
X093169Y06044D02*
D03*
Y05943D02*
D03*
X086697Y06044D02*
D03*
Y05943D02*
D03*
X080226Y06044D02*
D03*
Y05943D02*
D03*
X073754Y06044D02*
D03*
Y05943D02*
D03*
X067283Y06044D02*
D03*
Y05943D02*
D03*
X060811Y06044D02*
D03*
Y05943D02*
D03*
X05434Y06044D02*
D03*
Y05943D02*
D03*
X05009Y09663D02*
D03*
Y09562D02*
D03*
X05659Y09663D02*
D03*
Y09562D02*
D03*
X06304Y09663D02*
D03*
Y09562D02*
D03*
X06954Y09663D02*
D03*
Y09562D02*
D03*
X07618Y09663D02*
D03*
Y09562D02*
D03*
X08908Y09663D02*
D03*
Y09562D02*
D03*
X09553Y09663D02*
D03*
Y09562D02*
D03*
X08263Y09663D02*
D03*
Y09562D02*
D03*
D66*
X10575Y06947D02*
D03*
Y07047D02*
D03*
Y07147D02*
D03*
Y07247D02*
D03*
Y07347D02*
D03*
Y07447D02*
D03*
Y07547D02*
D03*
Y07647D02*
D03*
Y07747D02*
D03*
Y07847D02*
D03*
X10475Y07747D02*
D03*
Y07647D02*
D03*
Y07547D02*
D03*
Y07447D02*
D03*
Y07347D02*
D03*
Y07247D02*
D03*
Y07147D02*
D03*
Y07047D02*
D03*
Y06947D02*
D03*
D67*
Y07847D02*
D03*
D68*
X05459Y0843D02*
D03*
X04979Y0891D02*
D03*
X05219Y0833D02*
D03*
X05459Y0891D02*
D03*
X04979Y0843D02*
D03*
X061073D02*
D03*
X056273Y0891D02*
D03*
X058673Y0833D02*
D03*
X061073Y0891D02*
D03*
X056273Y0843D02*
D03*
X067557D02*
D03*
X062757Y0891D02*
D03*
X065157Y0833D02*
D03*
X067557Y0891D02*
D03*
X062757Y0843D02*
D03*
X07404D02*
D03*
X06924Y0891D02*
D03*
X07164Y0833D02*
D03*
X07404Y0891D02*
D03*
X06924Y0843D02*
D03*
X08058Y08427D02*
D03*
X07578Y08907D02*
D03*
X07818Y08327D02*
D03*
X08058Y08907D02*
D03*
X07578Y08427D02*
D03*
X087063D02*
D03*
X082263Y08907D02*
D03*
X084663Y08327D02*
D03*
X087063Y08907D02*
D03*
X082263Y08427D02*
D03*
X093547D02*
D03*
X088747Y08907D02*
D03*
X091147Y08327D02*
D03*
X093547Y08907D02*
D03*
X088747Y08427D02*
D03*
X10003D02*
D03*
X09523Y08907D02*
D03*
X09763Y08327D02*
D03*
X10003Y08907D02*
D03*
X09523Y08427D02*
D03*
X05461Y07161D02*
D03*
X04981Y06681D02*
D03*
X05221Y07261D02*
D03*
X05461Y06681D02*
D03*
X04981Y07161D02*
D03*
X061099D02*
D03*
X056299Y06681D02*
D03*
X058699Y07261D02*
D03*
X061099Y06681D02*
D03*
X056299Y07161D02*
D03*
X067587D02*
D03*
X062787Y06681D02*
D03*
X065187Y07261D02*
D03*
X067587Y06681D02*
D03*
X062787Y07161D02*
D03*
X074076D02*
D03*
X069276Y06681D02*
D03*
X071676Y07261D02*
D03*
X074076Y06681D02*
D03*
X069276Y07161D02*
D03*
X080564D02*
D03*
X075764Y06681D02*
D03*
X078164Y07261D02*
D03*
X080564Y06681D02*
D03*
X075764Y07161D02*
D03*
X087053D02*
D03*
X082253Y06681D02*
D03*
X084653Y07261D02*
D03*
X087053Y06681D02*
D03*
X082253Y07161D02*
D03*
X093541D02*
D03*
X088741Y06681D02*
D03*
X091141Y07261D02*
D03*
X093541Y06681D02*
D03*
X088741Y07161D02*
D03*
X10003D02*
D03*
X09523Y06681D02*
D03*
X09763Y07261D02*
D03*
X10003Y06681D02*
D03*
X09523Y07161D02*
D03*
D69*
X10475Y08426D02*
D03*
X10475Y08326D02*
D03*
X10475Y08227D02*
D03*
X10575Y08426D02*
D03*
Y08226D02*
D03*
X10575Y08326D02*
D03*
D70*
X10167Y09388D02*
D03*
Y09258D02*
D03*
X10168Y09327D02*
D03*
D71*
X0549Y06488D02*
D03*
X05431D02*
D03*
X05368D02*
D03*
X04823Y06843D02*
D03*
X06792Y06491D02*
D03*
X06733D02*
D03*
X0667D02*
D03*
X08082D02*
D03*
X08023D02*
D03*
X0796D02*
D03*
X09384D02*
D03*
X09325D02*
D03*
X09262D02*
D03*
X06143Y0631D02*
D03*
X06084D02*
D03*
X06021D02*
D03*
X0744D02*
D03*
X07381D02*
D03*
X07318D02*
D03*
X08735D02*
D03*
X08676D02*
D03*
X08613D02*
D03*
X10029D02*
D03*
X09907D02*
D03*
X0997D02*
D03*
X10334Y09095D02*
D03*
X05666Y09291D02*
D03*
X07619Y0909D02*
D03*
X06954Y09291D02*
D03*
X08262Y09294D02*
D03*
X05078Y09101D02*
D03*
X05015D02*
D03*
X04956D02*
D03*
X06365Y09098D02*
D03*
X06302D02*
D03*
X06243D02*
D03*
X07682Y0909D02*
D03*
X0756D02*
D03*
X08967Y09092D02*
D03*
X08904D02*
D03*
X08845D02*
D03*
X09616Y09295D02*
D03*
X09553D02*
D03*
X09494D02*
D03*
X08326Y09295D02*
D03*
X08263D02*
D03*
X08204D02*
D03*
X07017Y09291D02*
D03*
X06895D02*
D03*
X05729D02*
D03*
X05607D02*
D03*
X10332Y09096D02*
D03*
Y09155D02*
D03*
Y09218D02*
D03*
D72*
X09523Y0741D02*
D03*
X10349Y08225D02*
D03*
X1047Y07984D02*
D03*
X10373Y07962D02*
D03*
X10382Y07971D02*
D03*
X10619Y08026D02*
D03*
X102794Y07138D02*
D03*
X10349Y08274D02*
D03*
X10687Y08328D02*
D03*
X10352Y08423D02*
D03*
X10293Y08325D02*
D03*
X0484Y07991D02*
D03*
X0496Y08029D02*
D03*
X04956Y07792D02*
D03*
X06239Y07642D02*
D03*
X09712Y07791D02*
D03*
X09519Y07741D02*
D03*
X09714Y07891D02*
D03*
X09713Y07942D02*
D03*
X04833Y07842D02*
D03*
X04742Y07692D02*
D03*
X10187Y0764D02*
D03*
X04894Y07741D02*
D03*
X07246Y0766D02*
D03*
X0687Y07813D02*
D03*
X07186Y0757D02*
D03*
X06626Y07605D02*
D03*
X04897Y07551D02*
D03*
X07195Y07804D02*
D03*
X07189Y07854D02*
D03*
X10045Y07409D02*
D03*
X09396Y07407D02*
D03*
X08741D02*
D03*
X07791Y08046D02*
D03*
X08092Y07404D02*
D03*
X07441Y07408D02*
D03*
X06791Y074D02*
D03*
X056299Y0741D02*
D03*
X05495Y07411D02*
D03*
X0689Y08184D02*
D03*
X05555Y0806D02*
D03*
X05652Y08032D02*
D03*
X06238Y08187D02*
D03*
X06406Y08057D02*
D03*
X07336Y08048D02*
D03*
X07469D02*
D03*
X07388Y08049D02*
D03*
X07674Y08048D02*
D03*
X05588Y08185D02*
D03*
X04947Y08182D02*
D03*
X08594Y080575D02*
D03*
X07539Y08175D02*
D03*
X09489Y08183D02*
D03*
X08191Y08184D02*
D03*
X08842Y0819D02*
D03*
X08873Y07406D02*
D03*
X061416Y07405D02*
D03*
X07191Y07902D02*
D03*
X07188Y07955D02*
D03*
X07191Y08004D02*
D03*
X07981Y07903D02*
D03*
X0803Y07901D02*
D03*
X05088Y07891D02*
D03*
X05122Y07843D02*
D03*
X06281Y07729D02*
D03*
X06179Y0773D02*
D03*
X06082Y07729D02*
D03*
X0598Y0773D02*
D03*
X05148Y07792D02*
D03*
X05182Y0774D02*
D03*
X05219Y077D02*
D03*
X05856Y07728D02*
D03*
X05755Y0773D02*
D03*
X05659Y07728D02*
D03*
X05555Y07727D02*
D03*
X06179Y07857D02*
D03*
X06081Y07919D02*
D03*
X05979Y07947D02*
D03*
X05854Y07975D02*
D03*
X05755Y08006D02*
D03*
X064267Y077772D02*
D03*
X06426Y077143D02*
D03*
Y07744D02*
D03*
X06427Y078838D02*
D03*
Y079153D02*
D03*
X06426Y07948D02*
D03*
Y07978D02*
D03*
X08598Y0766D02*
D03*
X08596Y07692D02*
D03*
X08595Y0786D02*
D03*
X08594Y07925D02*
D03*
X0942Y08039D02*
D03*
X08594Y07893D02*
D03*
X09319Y08007D02*
D03*
X08595Y07827D02*
D03*
X09219Y07969D02*
D03*
X09093Y07936D02*
D03*
X08995Y07894D02*
D03*
X08893Y07861D02*
D03*
X085942Y077232D02*
D03*
X09319Y07738D02*
D03*
X10073Y07842D02*
D03*
X10074Y07891D02*
D03*
X10073Y07941D02*
D03*
X1007Y07992D02*
D03*
X08792Y07715D02*
D03*
X1014Y07724D02*
D03*
X08893Y07736D02*
D03*
X10112Y07758D02*
D03*
X08991Y07713D02*
D03*
X10075Y07793D02*
D03*
X09092Y07714D02*
D03*
X09219Y07713D02*
D03*
X09419Y07714D02*
D03*
X05088Y07993D02*
D03*
Y07943D02*
D03*
X0952Y08073D02*
D03*
X09562Y08112D02*
D03*
X09533Y081163D02*
D03*
X04826Y06918D02*
D03*
X1068Y07249D02*
D03*
D73*
X102794Y07138D02*
D03*
Y07031D02*
D03*
X10725Y07247D02*
D03*
X10576Y06881D02*
D03*
X1068Y07249D02*
D03*
X10307Y06275D02*
D03*
X10306Y06347D02*
D03*
X10308Y06434D02*
D03*
M02*
