G04 Layer_Color=2752767*
%FSTAX24Y24*%
%MOIN*%
G70*
G01*
G75*
%ADD45C,0.0050*%
%ADD82C,0.0067*%
D45*
X103105Y096422D02*
Y096822D01*
X103505D01*
Y096422D01*
X103105D01*
Y094453D02*
Y094853D01*
X103505D01*
Y094453D01*
X103105D01*
X105074D02*
Y094853D01*
X105474D01*
Y094453D01*
X105074D01*
Y096422D02*
Y096822D01*
X105474D01*
Y096422D01*
X105074D01*
X097655Y059198D02*
Y059598D01*
X098055D01*
Y059198D01*
X097655D01*
Y061167D02*
Y061567D01*
X098055D01*
Y061167D01*
X097655D01*
X095686D02*
Y061567D01*
X096086D01*
Y061167D01*
X095686D01*
Y059198D02*
Y059598D01*
X096086D01*
Y059198D01*
X095686D01*
X09964Y06024D02*
X09944Y06064D01*
X09984D01*
X09964Y06024D01*
Y05923D02*
X09944Y05963D01*
X09984D01*
X09964Y05923D01*
X091173Y059198D02*
Y059598D01*
X091573D01*
Y059198D01*
X091173D01*
Y061167D02*
Y061567D01*
X091573D01*
Y061167D01*
X091173D01*
X089205D02*
Y061567D01*
X089605D01*
Y061167D01*
X089205D01*
Y059198D02*
Y059598D01*
X089605D01*
Y059198D01*
X089205D01*
X093169Y06024D02*
X092969Y06064D01*
X093369D01*
X093169Y06024D01*
Y05923D02*
X092969Y05963D01*
X093369D01*
X093169Y05923D01*
X084692Y059198D02*
Y059598D01*
X085092D01*
Y059198D01*
X084692D01*
Y061167D02*
Y061567D01*
X085092D01*
Y061167D01*
X084692D01*
X082723D02*
Y061567D01*
X083123D01*
Y061167D01*
X082723D01*
Y059198D02*
Y059598D01*
X083123D01*
Y059198D01*
X082723D01*
X086697Y06024D02*
X086497Y06064D01*
X086897D01*
X086697Y06024D01*
Y05923D02*
X086497Y05963D01*
X086897D01*
X086697Y05923D01*
X07821Y059198D02*
Y059598D01*
X07861D01*
Y059198D01*
X07821D01*
Y061167D02*
Y061567D01*
X07861D01*
Y061167D01*
X07821D01*
X076242D02*
Y061567D01*
X076642D01*
Y061167D01*
X076242D01*
Y059198D02*
Y059598D01*
X076642D01*
Y059198D01*
X076242D01*
X080226Y06024D02*
X080026Y06064D01*
X080426D01*
X080226Y06024D01*
Y05923D02*
X080026Y05963D01*
X080426D01*
X080226Y05923D01*
X071729Y059198D02*
Y059598D01*
X072129D01*
Y059198D01*
X071729D01*
Y061167D02*
Y061567D01*
X072129D01*
Y061167D01*
X071729D01*
X06976D02*
Y061567D01*
X07016D01*
Y061167D01*
X06976D01*
Y059198D02*
Y059598D01*
X07016D01*
Y059198D01*
X06976D01*
X073754Y06024D02*
X073554Y06064D01*
X073954D01*
X073754Y06024D01*
Y05923D02*
X073554Y05963D01*
X073954D01*
X073754Y05923D01*
X065248Y059198D02*
Y059598D01*
X065648D01*
Y059198D01*
X065248D01*
Y061167D02*
Y061567D01*
X065648D01*
Y061167D01*
X065248D01*
X063279D02*
Y061567D01*
X063679D01*
Y061167D01*
X063279D01*
Y059198D02*
Y059598D01*
X063679D01*
Y059198D01*
X063279D01*
X067283Y06024D02*
X067083Y06064D01*
X067483D01*
X067283Y06024D01*
Y05923D02*
X067083Y05963D01*
X067483D01*
X067283Y05923D01*
X058766Y059198D02*
Y059598D01*
X059166D01*
Y059198D01*
X058766D01*
Y061167D02*
Y061567D01*
X059166D01*
Y061167D01*
X058766D01*
X056798D02*
Y061567D01*
X057198D01*
Y061167D01*
X056798D01*
Y059198D02*
Y059598D01*
X057198D01*
Y059198D01*
X056798D01*
X060811Y06024D02*
X060611Y06064D01*
X061011D01*
X060811Y06024D01*
Y05923D02*
X060611Y05963D01*
X061011D01*
X060811Y05923D01*
X104815Y059198D02*
Y059598D01*
X105215D01*
Y059198D01*
X104815D01*
Y061167D02*
Y061567D01*
X105215D01*
Y061167D01*
X104815D01*
X102846D02*
Y061567D01*
X103246D01*
Y061167D01*
X102846D01*
Y059198D02*
Y059598D01*
X103246D01*
Y059198D01*
X102846D01*
X052285Y059198D02*
Y059598D01*
X052685D01*
Y059198D01*
X052285D01*
Y061167D02*
Y061567D01*
X052685D01*
Y061167D01*
X052285D01*
X050316D02*
Y061567D01*
X050716D01*
Y061167D01*
X050316D01*
Y059198D02*
Y059598D01*
X050716D01*
Y059198D01*
X050316D01*
X05434Y06024D02*
X05414Y06064D01*
X05454D01*
X05434Y06024D01*
Y05923D02*
X05414Y05963D01*
X05454D01*
X05434Y05923D01*
X10575Y06927D02*
X10585Y06937D01*
X10595D01*
X10585Y06947D01*
X10595Y06957D01*
X10585D01*
X10575Y06967D01*
X10565Y06957D01*
X10555D01*
X10565Y06947D01*
X10555Y06937D01*
X10565D01*
X10575Y06927D01*
Y07027D02*
X10585Y07037D01*
X10595D01*
X10585Y07047D01*
X10595Y07057D01*
X10585D01*
X10575Y07067D01*
X10565Y07057D01*
X10555D01*
X10565Y07047D01*
X10555Y07037D01*
X10565D01*
X10575Y07027D01*
Y07127D02*
X10585Y07137D01*
X10595D01*
X10585Y07147D01*
X10595Y07157D01*
X10585D01*
X10575Y07167D01*
X10565Y07157D01*
X10555D01*
X10565Y07147D01*
X10555Y07137D01*
X10565D01*
X10575Y07127D01*
Y07227D02*
X10585Y07237D01*
X10595D01*
X10585Y07247D01*
X10595Y07257D01*
X10585D01*
X10575Y07267D01*
X10565Y07257D01*
X10555D01*
X10565Y07247D01*
X10555Y07237D01*
X10565D01*
X10575Y07227D01*
Y07327D02*
X10585Y07337D01*
X10595D01*
X10585Y07347D01*
X10595Y07357D01*
X10585D01*
X10575Y07367D01*
X10565Y07357D01*
X10555D01*
X10565Y07347D01*
X10555Y07337D01*
X10565D01*
X10575Y07327D01*
Y07427D02*
X10585Y07437D01*
X10595D01*
X10585Y07447D01*
X10595Y07457D01*
X10585D01*
X10575Y07467D01*
X10565Y07457D01*
X10555D01*
X10565Y07447D01*
X10555Y07437D01*
X10565D01*
X10575Y07427D01*
Y07527D02*
X10585Y07537D01*
X10595D01*
X10585Y07547D01*
X10595Y07557D01*
X10585D01*
X10575Y07567D01*
X10565Y07557D01*
X10555D01*
X10565Y07547D01*
X10555Y07537D01*
X10565D01*
X10575Y07527D01*
Y07627D02*
X10585Y07637D01*
X10595D01*
X10585Y07647D01*
X10595Y07657D01*
X10585D01*
X10575Y07667D01*
X10565Y07657D01*
X10555D01*
X10565Y07647D01*
X10555Y07637D01*
X10565D01*
X10575Y07627D01*
Y07727D02*
X10585Y07737D01*
X10595D01*
X10585Y07747D01*
X10595Y07757D01*
X10585D01*
X10575Y07767D01*
X10565Y07757D01*
X10555D01*
X10565Y07747D01*
X10555Y07737D01*
X10565D01*
X10575Y07727D01*
Y07827D02*
X10585Y07837D01*
X10595D01*
X10585Y07847D01*
X10595Y07857D01*
X10585D01*
X10575Y07867D01*
X10565Y07857D01*
X10555D01*
X10565Y07847D01*
X10555Y07837D01*
X10565D01*
X10575Y07827D01*
X10475D02*
X10485Y07837D01*
X10495D01*
X10485Y07847D01*
X10495Y07857D01*
X10485D01*
X10475Y07867D01*
X10465Y07857D01*
X10455D01*
X10465Y07847D01*
X10455Y07837D01*
X10465D01*
X10475Y07827D01*
Y07727D02*
X10485Y07737D01*
X10495D01*
X10485Y07747D01*
X10495Y07757D01*
X10485D01*
X10475Y07767D01*
X10465Y07757D01*
X10455D01*
X10465Y07747D01*
X10455Y07737D01*
X10465D01*
X10475Y07727D01*
Y07627D02*
X10485Y07637D01*
X10495D01*
X10485Y07647D01*
X10495Y07657D01*
X10485D01*
X10475Y07667D01*
X10465Y07657D01*
X10455D01*
X10465Y07647D01*
X10455Y07637D01*
X10465D01*
X10475Y07627D01*
Y07527D02*
X10485Y07537D01*
X10495D01*
X10485Y07547D01*
X10495Y07557D01*
X10485D01*
X10475Y07567D01*
X10465Y07557D01*
X10455D01*
X10465Y07547D01*
X10455Y07537D01*
X10465D01*
X10475Y07527D01*
Y07427D02*
X10485Y07437D01*
X10495D01*
X10485Y07447D01*
X10495Y07457D01*
X10485D01*
X10475Y07467D01*
X10465Y07457D01*
X10455D01*
X10465Y07447D01*
X10455Y07437D01*
X10465D01*
X10475Y07427D01*
Y07327D02*
X10485Y07337D01*
X10495D01*
X10485Y07347D01*
X10495Y07357D01*
X10485D01*
X10475Y07367D01*
X10465Y07357D01*
X10455D01*
X10465Y07347D01*
X10455Y07337D01*
X10465D01*
X10475Y07327D01*
Y07227D02*
X10485Y07237D01*
X10495D01*
X10485Y07247D01*
X10495Y07257D01*
X10485D01*
X10475Y07267D01*
X10465Y07257D01*
X10455D01*
X10465Y07247D01*
X10455Y07237D01*
X10465D01*
X10475Y07227D01*
Y07127D02*
X10485Y07137D01*
X10495D01*
X10485Y07147D01*
X10495Y07157D01*
X10485D01*
X10475Y07167D01*
X10465Y07157D01*
X10455D01*
X10465Y07147D01*
X10455Y07137D01*
X10465D01*
X10475Y07127D01*
Y07027D02*
X10485Y07037D01*
X10495D01*
X10485Y07047D01*
X10495Y07057D01*
X10485D01*
X10475Y07067D01*
X10465Y07057D01*
X10455D01*
X10465Y07047D01*
X10455Y07037D01*
X10465D01*
X10475Y07027D01*
Y06927D02*
X10485Y06937D01*
X10495D01*
X10485Y06947D01*
X10495Y06957D01*
X10485D01*
X10475Y06967D01*
X10465Y06957D01*
X10455D01*
X10465Y06947D01*
X10455Y06937D01*
X10465D01*
X10475Y06927D01*
X05439Y0841D02*
X05449Y0843D01*
X05439Y0845D01*
X05459Y0844D01*
X05479Y0845D01*
X05469Y0843D01*
X05479Y0841D01*
X05459Y0842D01*
X05439Y0841D01*
X04959Y0889D02*
X04969Y0891D01*
X04959Y0893D01*
X04979Y0892D01*
X04999Y0893D01*
X04989Y0891D01*
X04999Y0889D01*
X04979Y089D01*
X04959Y0889D01*
X05199Y0831D02*
X05209Y0833D01*
X05199Y0835D01*
X05219Y0834D01*
X05239Y0835D01*
X05229Y0833D01*
X05239Y0831D01*
X05219Y0832D01*
X05199Y0831D01*
X05439Y0889D02*
X05449Y0891D01*
X05439Y0893D01*
X05459Y0892D01*
X05479Y0893D01*
X05469Y0891D01*
X05479Y0889D01*
X05459Y089D01*
X05439Y0889D01*
X04959Y0841D02*
X04969Y0843D01*
X04959Y0845D01*
X04979Y0844D01*
X04999Y0845D01*
X04989Y0843D01*
X04999Y0841D01*
X04979Y0842D01*
X04959Y0841D01*
X05009Y09643D02*
X04989Y09683D01*
X05029D01*
X05009Y09643D01*
Y09542D02*
X04989Y09582D01*
X05029D01*
X05009Y09542D01*
X053629Y096422D02*
Y096822D01*
X054029D01*
Y096422D01*
X053629D01*
Y094453D02*
Y094853D01*
X054029D01*
Y094453D01*
X053629D01*
X05166D02*
Y094853D01*
X05206D01*
Y094453D01*
X05166D01*
Y096422D02*
Y096822D01*
X05206D01*
Y096422D01*
X05166D01*
X060112D02*
Y096822D01*
X060512D01*
Y096422D01*
X060112D01*
Y094453D02*
Y094853D01*
X060512D01*
Y094453D01*
X060112D01*
X058144D02*
Y094853D01*
X058544D01*
Y094453D01*
X058144D01*
Y096422D02*
Y096822D01*
X058544D01*
Y096422D01*
X058144D01*
X066596D02*
Y096822D01*
X066996D01*
Y096422D01*
X066596D01*
Y094453D02*
Y094853D01*
X066996D01*
Y094453D01*
X066596D01*
X064627D02*
Y094853D01*
X065027D01*
Y094453D01*
X064627D01*
Y096422D02*
Y096822D01*
X065027D01*
Y096422D01*
X064627D01*
X073079D02*
Y096822D01*
X073479D01*
Y096422D01*
X073079D01*
Y094453D02*
Y094853D01*
X073479D01*
Y094453D01*
X073079D01*
X07111D02*
Y094853D01*
X07151D01*
Y094453D01*
X07111D01*
Y096422D02*
Y096822D01*
X07151D01*
Y096422D01*
X07111D01*
X079669D02*
Y096822D01*
X080069D01*
Y096422D01*
X079669D01*
Y094453D02*
Y094853D01*
X080069D01*
Y094453D01*
X079669D01*
X0777D02*
Y094853D01*
X0781D01*
Y094453D01*
X0777D01*
Y096422D02*
Y096822D01*
X0781D01*
Y096422D01*
X0777D01*
X092569D02*
Y096822D01*
X092969D01*
Y096422D01*
X092569D01*
Y094453D02*
Y094853D01*
X092969D01*
Y094453D01*
X092569D01*
X0906D02*
Y094853D01*
X091D01*
Y094453D01*
X0906D01*
Y096422D02*
Y096822D01*
X091D01*
Y096422D01*
X0906D01*
X099019D02*
Y096822D01*
X099419D01*
Y096422D01*
X099019D01*
Y094453D02*
Y094853D01*
X099419D01*
Y094453D01*
X099019D01*
X09705D02*
Y094853D01*
X09745D01*
Y094453D01*
X09705D01*
Y096422D02*
Y096822D01*
X09745D01*
Y096422D01*
X09705D01*
X05659Y09643D02*
X05639Y09683D01*
X05679D01*
X05659Y09643D01*
Y09542D02*
X05639Y09582D01*
X05679D01*
X05659Y09542D01*
X06304Y09643D02*
X06284Y09683D01*
X06324D01*
X06304Y09643D01*
Y09542D02*
X06284Y09582D01*
X06324D01*
X06304Y09542D01*
X06954Y09643D02*
X06934Y09683D01*
X06974D01*
X06954Y09643D01*
Y09542D02*
X06934Y09582D01*
X06974D01*
X06954Y09542D01*
X060873Y0841D02*
X060973Y0843D01*
X060873Y0845D01*
X061073Y0844D01*
X061273Y0845D01*
X061173Y0843D01*
X061273Y0841D01*
X061073Y0842D01*
X060873Y0841D01*
X056073Y0889D02*
X056173Y0891D01*
X056073Y0893D01*
X056273Y0892D01*
X056473Y0893D01*
X056373Y0891D01*
X056473Y0889D01*
X056273Y089D01*
X056073Y0889D01*
X058473Y0831D02*
X058573Y0833D01*
X058473Y0835D01*
X058673Y0834D01*
X058873Y0835D01*
X058773Y0833D01*
X058873Y0831D01*
X058673Y0832D01*
X058473Y0831D01*
X060873Y0889D02*
X060973Y0891D01*
X060873Y0893D01*
X061073Y0892D01*
X061273Y0893D01*
X061173Y0891D01*
X061273Y0889D01*
X061073Y089D01*
X060873Y0889D01*
X056073Y0841D02*
X056173Y0843D01*
X056073Y0845D01*
X056273Y0844D01*
X056473Y0845D01*
X056373Y0843D01*
X056473Y0841D01*
X056273Y0842D01*
X056073Y0841D01*
X067357D02*
X067457Y0843D01*
X067357Y0845D01*
X067557Y0844D01*
X067757Y0845D01*
X067657Y0843D01*
X067757Y0841D01*
X067557Y0842D01*
X067357Y0841D01*
X062557Y0889D02*
X062657Y0891D01*
X062557Y0893D01*
X062757Y0892D01*
X062957Y0893D01*
X062857Y0891D01*
X062957Y0889D01*
X062757Y089D01*
X062557Y0889D01*
X064957Y0831D02*
X065057Y0833D01*
X064957Y0835D01*
X065157Y0834D01*
X065357Y0835D01*
X065257Y0833D01*
X065357Y0831D01*
X065157Y0832D01*
X064957Y0831D01*
X067357Y0889D02*
X067457Y0891D01*
X067357Y0893D01*
X067557Y0892D01*
X067757Y0893D01*
X067657Y0891D01*
X067757Y0889D01*
X067557Y089D01*
X067357Y0889D01*
X062557Y0841D02*
X062657Y0843D01*
X062557Y0845D01*
X062757Y0844D01*
X062957Y0845D01*
X062857Y0843D01*
X062957Y0841D01*
X062757Y0842D01*
X062557Y0841D01*
X07384D02*
X07394Y0843D01*
X07384Y0845D01*
X07404Y0844D01*
X07424Y0845D01*
X07414Y0843D01*
X07424Y0841D01*
X07404Y0842D01*
X07384Y0841D01*
X06904Y0889D02*
X06914Y0891D01*
X06904Y0893D01*
X06924Y0892D01*
X06944Y0893D01*
X06934Y0891D01*
X06944Y0889D01*
X06924Y089D01*
X06904Y0889D01*
X07144Y0831D02*
X07154Y0833D01*
X07144Y0835D01*
X07164Y0834D01*
X07184Y0835D01*
X07174Y0833D01*
X07184Y0831D01*
X07164Y0832D01*
X07144Y0831D01*
X07384Y0889D02*
X07394Y0891D01*
X07384Y0893D01*
X07404Y0892D01*
X07424Y0893D01*
X07414Y0891D01*
X07424Y0889D01*
X07404Y089D01*
X07384Y0889D01*
X06904Y0841D02*
X06914Y0843D01*
X06904Y0845D01*
X06924Y0844D01*
X06944Y0845D01*
X06934Y0843D01*
X06944Y0841D01*
X06924Y0842D01*
X06904Y0841D01*
X08038Y08407D02*
X08048Y08427D01*
X08038Y08447D01*
X08058Y08437D01*
X08078Y08447D01*
X08068Y08427D01*
X08078Y08407D01*
X08058Y08417D01*
X08038Y08407D01*
X07558Y08887D02*
X07568Y08907D01*
X07558Y08927D01*
X07578Y08917D01*
X07598Y08927D01*
X07588Y08907D01*
X07598Y08887D01*
X07578Y08897D01*
X07558Y08887D01*
X07798Y08307D02*
X07808Y08327D01*
X07798Y08347D01*
X07818Y08337D01*
X07838Y08347D01*
X07828Y08327D01*
X07838Y08307D01*
X07818Y08317D01*
X07798Y08307D01*
X08038Y08887D02*
X08048Y08907D01*
X08038Y08927D01*
X08058Y08917D01*
X08078Y08927D01*
X08068Y08907D01*
X08078Y08887D01*
X08058Y08897D01*
X08038Y08887D01*
X07558Y08407D02*
X07568Y08427D01*
X07558Y08447D01*
X07578Y08437D01*
X07598Y08447D01*
X07588Y08427D01*
X07598Y08407D01*
X07578Y08417D01*
X07558Y08407D01*
X086863D02*
X086963Y08427D01*
X086863Y08447D01*
X087063Y08437D01*
X087263Y08447D01*
X087163Y08427D01*
X087263Y08407D01*
X087063Y08417D01*
X086863Y08407D01*
X082063Y08887D02*
X082163Y08907D01*
X082063Y08927D01*
X082263Y08917D01*
X082463Y08927D01*
X082363Y08907D01*
X082463Y08887D01*
X082263Y08897D01*
X082063Y08887D01*
X084463Y08307D02*
X084563Y08327D01*
X084463Y08347D01*
X084663Y08337D01*
X084863Y08347D01*
X084763Y08327D01*
X084863Y08307D01*
X084663Y08317D01*
X084463Y08307D01*
X086863Y08887D02*
X086963Y08907D01*
X086863Y08927D01*
X087063Y08917D01*
X087263Y08927D01*
X087163Y08907D01*
X087263Y08887D01*
X087063Y08897D01*
X086863Y08887D01*
X082063Y08407D02*
X082163Y08427D01*
X082063Y08447D01*
X082263Y08437D01*
X082463Y08447D01*
X082363Y08427D01*
X082463Y08407D01*
X082263Y08417D01*
X082063Y08407D01*
X093347D02*
X093447Y08427D01*
X093347Y08447D01*
X093547Y08437D01*
X093747Y08447D01*
X093647Y08427D01*
X093747Y08407D01*
X093547Y08417D01*
X093347Y08407D01*
X088547Y08887D02*
X088647Y08907D01*
X088547Y08927D01*
X088747Y08917D01*
X088947Y08927D01*
X088847Y08907D01*
X088947Y08887D01*
X088747Y08897D01*
X088547Y08887D01*
X090947Y08307D02*
X091047Y08327D01*
X090947Y08347D01*
X091147Y08337D01*
X091347Y08347D01*
X091247Y08327D01*
X091347Y08307D01*
X091147Y08317D01*
X090947Y08307D01*
X093347Y08887D02*
X093447Y08907D01*
X093347Y08927D01*
X093547Y08917D01*
X093747Y08927D01*
X093647Y08907D01*
X093747Y08887D01*
X093547Y08897D01*
X093347Y08887D01*
X088547Y08407D02*
X088647Y08427D01*
X088547Y08447D01*
X088747Y08437D01*
X088947Y08447D01*
X088847Y08427D01*
X088947Y08407D01*
X088747Y08417D01*
X088547Y08407D01*
X09983D02*
X09993Y08427D01*
X09983Y08447D01*
X10003Y08437D01*
X10023Y08447D01*
X10013Y08427D01*
X10023Y08407D01*
X10003Y08417D01*
X09983Y08407D01*
X09503Y08887D02*
X09513Y08907D01*
X09503Y08927D01*
X09523Y08917D01*
X09543Y08927D01*
X09533Y08907D01*
X09543Y08887D01*
X09523Y08897D01*
X09503Y08887D01*
X09743Y08307D02*
X09753Y08327D01*
X09743Y08347D01*
X09763Y08337D01*
X09783Y08347D01*
X09773Y08327D01*
X09783Y08307D01*
X09763Y08317D01*
X09743Y08307D01*
X09983Y08887D02*
X09993Y08907D01*
X09983Y08927D01*
X10003Y08917D01*
X10023Y08927D01*
X10013Y08907D01*
X10023Y08887D01*
X10003Y08897D01*
X09983Y08887D01*
X09503Y08407D02*
X09513Y08427D01*
X09503Y08447D01*
X09523Y08437D01*
X09543Y08447D01*
X09533Y08427D01*
X09543Y08407D01*
X09523Y08417D01*
X09503Y08407D01*
X05441Y07141D02*
X05451Y07161D01*
X05441Y07181D01*
X05461Y07171D01*
X05481Y07181D01*
X05471Y07161D01*
X05481Y07141D01*
X05461Y07151D01*
X05441Y07141D01*
X04961Y06661D02*
X04971Y06681D01*
X04961Y06701D01*
X04981Y06691D01*
X05001Y06701D01*
X04991Y06681D01*
X05001Y06661D01*
X04981Y06671D01*
X04961Y06661D01*
X05201Y07241D02*
X05211Y07261D01*
X05201Y07281D01*
X05221Y07271D01*
X05241Y07281D01*
X05231Y07261D01*
X05241Y07241D01*
X05221Y07251D01*
X05201Y07241D01*
X05441Y06661D02*
X05451Y06681D01*
X05441Y06701D01*
X05461Y06691D01*
X05481Y06701D01*
X05471Y06681D01*
X05481Y06661D01*
X05461Y06671D01*
X05441Y06661D01*
X04961Y07141D02*
X04971Y07161D01*
X04961Y07181D01*
X04981Y07171D01*
X05001Y07181D01*
X04991Y07161D01*
X05001Y07141D01*
X04981Y07151D01*
X04961Y07141D01*
X060899D02*
X060999Y07161D01*
X060899Y07181D01*
X061099Y07171D01*
X061299Y07181D01*
X061199Y07161D01*
X061299Y07141D01*
X061099Y07151D01*
X060899Y07141D01*
X056099Y06661D02*
X056199Y06681D01*
X056099Y06701D01*
X056299Y06691D01*
X056499Y06701D01*
X056399Y06681D01*
X056499Y06661D01*
X056299Y06671D01*
X056099Y06661D01*
X058499Y07241D02*
X058599Y07261D01*
X058499Y07281D01*
X058699Y07271D01*
X058899Y07281D01*
X058799Y07261D01*
X058899Y07241D01*
X058699Y07251D01*
X058499Y07241D01*
X060899Y06661D02*
X060999Y06681D01*
X060899Y06701D01*
X061099Y06691D01*
X061299Y06701D01*
X061199Y06681D01*
X061299Y06661D01*
X061099Y06671D01*
X060899Y06661D01*
X056099Y07141D02*
X056199Y07161D01*
X056099Y07181D01*
X056299Y07171D01*
X056499Y07181D01*
X056399Y07161D01*
X056499Y07141D01*
X056299Y07151D01*
X056099Y07141D01*
X067387D02*
X067487Y07161D01*
X067387Y07181D01*
X067587Y07171D01*
X067787Y07181D01*
X067687Y07161D01*
X067787Y07141D01*
X067587Y07151D01*
X067387Y07141D01*
X062587Y06661D02*
X062687Y06681D01*
X062587Y06701D01*
X062787Y06691D01*
X062987Y06701D01*
X062887Y06681D01*
X062987Y06661D01*
X062787Y06671D01*
X062587Y06661D01*
X064987Y07241D02*
X065087Y07261D01*
X064987Y07281D01*
X065187Y07271D01*
X065387Y07281D01*
X065287Y07261D01*
X065387Y07241D01*
X065187Y07251D01*
X064987Y07241D01*
X067387Y06661D02*
X067487Y06681D01*
X067387Y06701D01*
X067587Y06691D01*
X067787Y06701D01*
X067687Y06681D01*
X067787Y06661D01*
X067587Y06671D01*
X067387Y06661D01*
X062587Y07141D02*
X062687Y07161D01*
X062587Y07181D01*
X062787Y07171D01*
X062987Y07181D01*
X062887Y07161D01*
X062987Y07141D01*
X062787Y07151D01*
X062587Y07141D01*
X073876D02*
X073976Y07161D01*
X073876Y07181D01*
X074076Y07171D01*
X074276Y07181D01*
X074176Y07161D01*
X074276Y07141D01*
X074076Y07151D01*
X073876Y07141D01*
X069076Y06661D02*
X069176Y06681D01*
X069076Y06701D01*
X069276Y06691D01*
X069476Y06701D01*
X069376Y06681D01*
X069476Y06661D01*
X069276Y06671D01*
X069076Y06661D01*
X071476Y07241D02*
X071576Y07261D01*
X071476Y07281D01*
X071676Y07271D01*
X071876Y07281D01*
X071776Y07261D01*
X071876Y07241D01*
X071676Y07251D01*
X071476Y07241D01*
X073876Y06661D02*
X073976Y06681D01*
X073876Y06701D01*
X074076Y06691D01*
X074276Y06701D01*
X074176Y06681D01*
X074276Y06661D01*
X074076Y06671D01*
X073876Y06661D01*
X069076Y07141D02*
X069176Y07161D01*
X069076Y07181D01*
X069276Y07171D01*
X069476Y07181D01*
X069376Y07161D01*
X069476Y07141D01*
X069276Y07151D01*
X069076Y07141D01*
X080364D02*
X080464Y07161D01*
X080364Y07181D01*
X080564Y07171D01*
X080764Y07181D01*
X080664Y07161D01*
X080764Y07141D01*
X080564Y07151D01*
X080364Y07141D01*
X075564Y06661D02*
X075664Y06681D01*
X075564Y06701D01*
X075764Y06691D01*
X075964Y06701D01*
X075864Y06681D01*
X075964Y06661D01*
X075764Y06671D01*
X075564Y06661D01*
X077964Y07241D02*
X078064Y07261D01*
X077964Y07281D01*
X078164Y07271D01*
X078364Y07281D01*
X078264Y07261D01*
X078364Y07241D01*
X078164Y07251D01*
X077964Y07241D01*
X080364Y06661D02*
X080464Y06681D01*
X080364Y06701D01*
X080564Y06691D01*
X080764Y06701D01*
X080664Y06681D01*
X080764Y06661D01*
X080564Y06671D01*
X080364Y06661D01*
X075564Y07141D02*
X075664Y07161D01*
X075564Y07181D01*
X075764Y07171D01*
X075964Y07181D01*
X075864Y07161D01*
X075964Y07141D01*
X075764Y07151D01*
X075564Y07141D01*
X086853D02*
X086953Y07161D01*
X086853Y07181D01*
X087053Y07171D01*
X087253Y07181D01*
X087153Y07161D01*
X087253Y07141D01*
X087053Y07151D01*
X086853Y07141D01*
X082053Y06661D02*
X082153Y06681D01*
X082053Y06701D01*
X082253Y06691D01*
X082453Y06701D01*
X082353Y06681D01*
X082453Y06661D01*
X082253Y06671D01*
X082053Y06661D01*
X084453Y07241D02*
X084553Y07261D01*
X084453Y07281D01*
X084653Y07271D01*
X084853Y07281D01*
X084753Y07261D01*
X084853Y07241D01*
X084653Y07251D01*
X084453Y07241D01*
X086853Y06661D02*
X086953Y06681D01*
X086853Y06701D01*
X087053Y06691D01*
X087253Y06701D01*
X087153Y06681D01*
X087253Y06661D01*
X087053Y06671D01*
X086853Y06661D01*
X082053Y07141D02*
X082153Y07161D01*
X082053Y07181D01*
X082253Y07171D01*
X082453Y07181D01*
X082353Y07161D01*
X082453Y07141D01*
X082253Y07151D01*
X082053Y07141D01*
X093341D02*
X093441Y07161D01*
X093341Y07181D01*
X093541Y07171D01*
X093741Y07181D01*
X093641Y07161D01*
X093741Y07141D01*
X093541Y07151D01*
X093341Y07141D01*
X088541Y06661D02*
X088641Y06681D01*
X088541Y06701D01*
X088741Y06691D01*
X088941Y06701D01*
X088841Y06681D01*
X088941Y06661D01*
X088741Y06671D01*
X088541Y06661D01*
X090941Y07241D02*
X091041Y07261D01*
X090941Y07281D01*
X091141Y07271D01*
X091341Y07281D01*
X091241Y07261D01*
X091341Y07241D01*
X091141Y07251D01*
X090941Y07241D01*
X093341Y06661D02*
X093441Y06681D01*
X093341Y06701D01*
X093541Y06691D01*
X093741Y06701D01*
X093641Y06681D01*
X093741Y06661D01*
X093541Y06671D01*
X093341Y06661D01*
X088541Y07141D02*
X088641Y07161D01*
X088541Y07181D01*
X088741Y07171D01*
X088941Y07181D01*
X088841Y07161D01*
X088941Y07141D01*
X088741Y07151D01*
X088541Y07141D01*
X09983D02*
X09993Y07161D01*
X09983Y07181D01*
X10003Y07171D01*
X10023Y07181D01*
X10013Y07161D01*
X10023Y07141D01*
X10003Y07151D01*
X09983Y07141D01*
X09503Y06661D02*
X09513Y06681D01*
X09503Y06701D01*
X09523Y06691D01*
X09543Y06701D01*
X09533Y06681D01*
X09543Y06661D01*
X09523Y06671D01*
X09503Y06661D01*
X09743Y07241D02*
X09753Y07261D01*
X09743Y07281D01*
X09763Y07271D01*
X09783Y07281D01*
X09773Y07261D01*
X09783Y07241D01*
X09763Y07251D01*
X09743Y07241D01*
X09983Y06661D02*
X09993Y06681D01*
X09983Y06701D01*
X10003Y06691D01*
X10023Y06701D01*
X10013Y06681D01*
X10023Y06661D01*
X10003Y06671D01*
X09983Y06661D01*
X09503Y07141D02*
X09513Y07161D01*
X09503Y07181D01*
X09523Y07171D01*
X09543Y07181D01*
X09533Y07161D01*
X09543Y07141D01*
X09523Y07151D01*
X09503Y07141D01*
X07618Y09643D02*
X07598Y09683D01*
X07638D01*
X07618Y09643D01*
Y09542D02*
X07598Y09582D01*
X07638D01*
X07618Y09542D01*
X08908Y09643D02*
X08888Y09683D01*
X08928D01*
X08908Y09643D01*
Y09542D02*
X08888Y09582D01*
X08928D01*
X08908Y09542D01*
X09553Y09643D02*
X09533Y09683D01*
X09573D01*
X09553Y09643D01*
Y09542D02*
X09533Y09582D01*
X09573D01*
X09553Y09542D01*
X08263Y09643D02*
X08243Y09683D01*
X08283D01*
X08263Y09643D01*
Y09542D02*
X08243Y09582D01*
X08283D01*
X08263Y09542D01*
X10475Y08406D02*
X10455Y08446D01*
X10495D01*
X10475Y08406D01*
X10475Y08306D02*
X10455Y08346D01*
X10495D01*
X10475Y08306D01*
X10475Y08207D02*
X10455Y08247D01*
X10495D01*
X10475Y08207D01*
X10575Y08406D02*
X10555Y08446D01*
X10595D01*
X10575Y08406D01*
Y08206D02*
X10555Y08246D01*
X10595D01*
X10575Y08206D01*
X10575Y08306D02*
X10555Y08346D01*
X10595D01*
X10575Y08306D01*
X086119Y096422D02*
Y096822D01*
X086519D01*
Y096422D01*
X086119D01*
Y094453D02*
Y094853D01*
X086519D01*
Y094453D01*
X086119D01*
X08415D02*
Y094853D01*
X08455D01*
Y094453D01*
X08415D01*
Y096422D02*
Y096822D01*
X08455D01*
Y096422D01*
X08415D01*
X10157Y09378D02*
Y09368D01*
X10177D01*
Y09378D01*
X10187D01*
Y09398D01*
X10177D01*
Y09408D01*
X10157D01*
Y09398D01*
X10147D01*
Y09378D01*
X10157D01*
Y09248D02*
Y09238D01*
X10177D01*
Y09248D01*
X10187D01*
Y09268D01*
X10177D01*
Y09278D01*
X10157D01*
Y09268D01*
X10147D01*
Y09248D01*
X10157D01*
X10158Y09317D02*
Y09307D01*
X10178D01*
Y09317D01*
X10188D01*
Y09337D01*
X10178D01*
Y09347D01*
X10158D01*
Y09337D01*
X10148D01*
Y09317D01*
X10158D01*
X0547Y06468D02*
X0548D01*
X0549Y06478D01*
X055Y06468D01*
X0551D01*
Y06478D01*
X055Y06488D01*
X0551Y06498D01*
Y06508D01*
X055D01*
X0549Y06498D01*
X0548Y06508D01*
X0547D01*
Y06498D01*
X0548Y06488D01*
X0547Y06478D01*
Y06468D01*
X05411D02*
X05421D01*
X05431Y06478D01*
X05441Y06468D01*
X05451D01*
Y06478D01*
X05441Y06488D01*
X05451Y06498D01*
Y06508D01*
X05441D01*
X05431Y06498D01*
X05421Y06508D01*
X05411D01*
Y06498D01*
X05421Y06488D01*
X05411Y06478D01*
Y06468D01*
X05348D02*
X05358D01*
X05368Y06478D01*
X05378Y06468D01*
X05388D01*
Y06478D01*
X05378Y06488D01*
X05388Y06498D01*
Y06508D01*
X05378D01*
X05368Y06498D01*
X05358Y06508D01*
X05348D01*
Y06498D01*
X05358Y06488D01*
X05348Y06478D01*
Y06468D01*
X09503Y0741D02*
X09523Y0743D01*
X09543Y0741D01*
X09523Y0739D01*
X09503Y0741D01*
X10329Y08225D02*
X10349Y08245D01*
X10369Y08225D01*
X10349Y08205D01*
X10329Y08225D01*
X1045Y07984D02*
X1047Y08004D01*
X1049Y07984D01*
X1047Y07964D01*
X1045Y07984D01*
X10353Y07962D02*
X10373Y07982D01*
X10393Y07962D01*
X10373Y07942D01*
X10353Y07962D01*
X10362Y07971D02*
X10382Y07991D01*
X10402Y07971D01*
X10382Y07951D01*
X10362Y07971D01*
X10599Y08026D02*
X10619Y08046D01*
X10639Y08026D01*
X10619Y08006D01*
X10599Y08026D01*
X102594Y07138D02*
X102794Y07158D01*
X102994Y07138D01*
X102794Y07118D01*
X102594Y07138D01*
X10329Y08274D02*
X10349Y08294D01*
X10369Y08274D01*
X10349Y08254D01*
X10329Y08274D01*
X10667Y08328D02*
X10687Y08348D01*
X10707Y08328D01*
X10687Y08308D01*
X10667Y08328D01*
X10332Y08423D02*
X10352Y08443D01*
X10372Y08423D01*
X10352Y08403D01*
X10332Y08423D01*
X10273Y08325D02*
X10293Y08345D01*
X10313Y08325D01*
X10293Y08305D01*
X10273Y08325D01*
X0482Y07991D02*
X0484Y08011D01*
X0486Y07991D01*
X0484Y07971D01*
X0482Y07991D01*
X0494Y08029D02*
X0496Y08049D01*
X0498Y08029D01*
X0496Y08009D01*
X0494Y08029D01*
X04936Y07792D02*
X04956Y07812D01*
X04976Y07792D01*
X04956Y07772D01*
X04936Y07792D01*
X06219Y07642D02*
X06239Y07662D01*
X06259Y07642D01*
X06239Y07622D01*
X06219Y07642D01*
X09692Y07791D02*
X09712Y07811D01*
X09732Y07791D01*
X09712Y07771D01*
X09692Y07791D01*
X09499Y07741D02*
X09519Y07761D01*
X09539Y07741D01*
X09519Y07721D01*
X09499Y07741D01*
X09694Y07891D02*
X09714Y07911D01*
X09734Y07891D01*
X09714Y07871D01*
X09694Y07891D01*
X09693Y07942D02*
X09713Y07962D01*
X09733Y07942D01*
X09713Y07922D01*
X09693Y07942D01*
X04813Y07842D02*
X04833Y07862D01*
X04853Y07842D01*
X04833Y07822D01*
X04813Y07842D01*
X04722Y07692D02*
X04742Y07712D01*
X04762Y07692D01*
X04742Y07672D01*
X04722Y07692D01*
X10167Y0764D02*
X10187Y0766D01*
X10207Y0764D01*
X10187Y0762D01*
X10167Y0764D01*
X04874Y07741D02*
X04894Y07761D01*
X04914Y07741D01*
X04894Y07721D01*
X04874Y07741D01*
X07226Y0766D02*
X07246Y0768D01*
X07266Y0766D01*
X07246Y0764D01*
X07226Y0766D01*
X0685Y07813D02*
X0687Y07833D01*
X0689Y07813D01*
X0687Y07793D01*
X0685Y07813D01*
X07166Y0757D02*
X07186Y0759D01*
X07206Y0757D01*
X07186Y0755D01*
X07166Y0757D01*
X06606Y07605D02*
X06626Y07625D01*
X06646Y07605D01*
X06626Y07585D01*
X06606Y07605D01*
X04877Y07551D02*
X04897Y07571D01*
X04917Y07551D01*
X04897Y07531D01*
X04877Y07551D01*
X07175Y07804D02*
X07195Y07824D01*
X07215Y07804D01*
X07195Y07784D01*
X07175Y07804D01*
X07169Y07854D02*
X07189Y07874D01*
X07209Y07854D01*
X07189Y07834D01*
X07169Y07854D01*
X10025Y07409D02*
X10045Y07429D01*
X10065Y07409D01*
X10045Y07389D01*
X10025Y07409D01*
X09376Y07407D02*
X09396Y07427D01*
X09416Y07407D01*
X09396Y07387D01*
X09376Y07407D01*
X08721D02*
X08741Y07427D01*
X08761Y07407D01*
X08741Y07387D01*
X08721Y07407D01*
X07771Y08046D02*
X07791Y08066D01*
X07811Y08046D01*
X07791Y08026D01*
X07771Y08046D01*
X08072Y07404D02*
X08092Y07424D01*
X08112Y07404D01*
X08092Y07384D01*
X08072Y07404D01*
X07421Y07408D02*
X07441Y07428D01*
X07461Y07408D01*
X07441Y07388D01*
X07421Y07408D01*
X06771Y074D02*
X06791Y0742D01*
X06811Y074D01*
X06791Y0738D01*
X06771Y074D01*
X056099Y0741D02*
X056299Y0743D01*
X056499Y0741D01*
X056299Y0739D01*
X056099Y0741D01*
X05475Y07411D02*
X05495Y07431D01*
X05515Y07411D01*
X05495Y07391D01*
X05475Y07411D01*
X0687Y08184D02*
X0689Y08204D01*
X0691Y08184D01*
X0689Y08164D01*
X0687Y08184D01*
X05535Y0806D02*
X05555Y0808D01*
X05575Y0806D01*
X05555Y0804D01*
X05535Y0806D01*
X05632Y08032D02*
X05652Y08052D01*
X05672Y08032D01*
X05652Y08012D01*
X05632Y08032D01*
X06218Y08187D02*
X06238Y08207D01*
X06258Y08187D01*
X06238Y08167D01*
X06218Y08187D01*
X06386Y08057D02*
X06406Y08077D01*
X06426Y08057D01*
X06406Y08037D01*
X06386Y08057D01*
X07316Y08048D02*
X07336Y08068D01*
X07356Y08048D01*
X07336Y08028D01*
X07316Y08048D01*
X07449D02*
X07469Y08068D01*
X07489Y08048D01*
X07469Y08028D01*
X07449Y08048D01*
X07368Y08049D02*
X07388Y08069D01*
X07408Y08049D01*
X07388Y08029D01*
X07368Y08049D01*
X07654Y08048D02*
X07674Y08068D01*
X07694Y08048D01*
X07674Y08028D01*
X07654Y08048D01*
X05568Y08185D02*
X05588Y08205D01*
X05608Y08185D01*
X05588Y08165D01*
X05568Y08185D01*
X04927Y08182D02*
X04947Y08202D01*
X04967Y08182D01*
X04947Y08162D01*
X04927Y08182D01*
X08574Y080575D02*
X08594Y080775D01*
X08614Y080575D01*
X08594Y080375D01*
X08574Y080575D01*
X07519Y08175D02*
X07539Y08195D01*
X07559Y08175D01*
X07539Y08155D01*
X07519Y08175D01*
X09469Y08183D02*
X09489Y08203D01*
X09509Y08183D01*
X09489Y08163D01*
X09469Y08183D01*
X08171Y08184D02*
X08191Y08204D01*
X08211Y08184D01*
X08191Y08164D01*
X08171Y08184D01*
X08822Y0819D02*
X08842Y0821D01*
X08862Y0819D01*
X08842Y0817D01*
X08822Y0819D01*
X08853Y07406D02*
X08873Y07426D01*
X08893Y07406D01*
X08873Y07386D01*
X08853Y07406D01*
X061216Y07405D02*
X061416Y07425D01*
X061616Y07405D01*
X061416Y07385D01*
X061216Y07405D01*
X07171Y07902D02*
X07191Y07922D01*
X07211Y07902D01*
X07191Y07882D01*
X07171Y07902D01*
X07168Y07955D02*
X07188Y07975D01*
X07208Y07955D01*
X07188Y07935D01*
X07168Y07955D01*
X07171Y08004D02*
X07191Y08024D01*
X07211Y08004D01*
X07191Y07984D01*
X07171Y08004D01*
X07961Y07903D02*
X07981Y07923D01*
X08001Y07903D01*
X07981Y07883D01*
X07961Y07903D01*
X0801Y07901D02*
X0803Y07921D01*
X0805Y07901D01*
X0803Y07881D01*
X0801Y07901D01*
X05068Y07891D02*
X05088Y07911D01*
X05108Y07891D01*
X05088Y07871D01*
X05068Y07891D01*
X05102Y07843D02*
X05122Y07863D01*
X05142Y07843D01*
X05122Y07823D01*
X05102Y07843D01*
X06261Y07729D02*
X06281Y07749D01*
X06301Y07729D01*
X06281Y07709D01*
X06261Y07729D01*
X06159Y0773D02*
X06179Y0775D01*
X06199Y0773D01*
X06179Y0771D01*
X06159Y0773D01*
X06062Y07729D02*
X06082Y07749D01*
X06102Y07729D01*
X06082Y07709D01*
X06062Y07729D01*
X0596Y0773D02*
X0598Y0775D01*
X06Y0773D01*
X0598Y0771D01*
X0596Y0773D01*
X05128Y07792D02*
X05148Y07812D01*
X05168Y07792D01*
X05148Y07772D01*
X05128Y07792D01*
X05162Y0774D02*
X05182Y0776D01*
X05202Y0774D01*
X05182Y0772D01*
X05162Y0774D01*
X05199Y077D02*
X05219Y0772D01*
X05239Y077D01*
X05219Y0768D01*
X05199Y077D01*
X05836Y07728D02*
X05856Y07748D01*
X05876Y07728D01*
X05856Y07708D01*
X05836Y07728D01*
X05735Y0773D02*
X05755Y0775D01*
X05775Y0773D01*
X05755Y0771D01*
X05735Y0773D01*
X05639Y07728D02*
X05659Y07748D01*
X05679Y07728D01*
X05659Y07708D01*
X05639Y07728D01*
X05535Y07727D02*
X05555Y07747D01*
X05575Y07727D01*
X05555Y07707D01*
X05535Y07727D01*
X06159Y07857D02*
X06179Y07877D01*
X06199Y07857D01*
X06179Y07837D01*
X06159Y07857D01*
X06061Y07919D02*
X06081Y07939D01*
X06101Y07919D01*
X06081Y07899D01*
X06061Y07919D01*
X05959Y07947D02*
X05979Y07967D01*
X05999Y07947D01*
X05979Y07927D01*
X05959Y07947D01*
X05834Y07975D02*
X05854Y07995D01*
X05874Y07975D01*
X05854Y07955D01*
X05834Y07975D01*
X05735Y08006D02*
X05755Y08026D01*
X05775Y08006D01*
X05755Y07986D01*
X05735Y08006D01*
X064067Y077772D02*
X064267Y077972D01*
X064467Y077772D01*
X064267Y077572D01*
X064067Y077772D01*
X06406Y077143D02*
X06426Y077343D01*
X06446Y077143D01*
X06426Y076943D01*
X06406Y077143D01*
Y07744D02*
X06426Y07764D01*
X06446Y07744D01*
X06426Y07724D01*
X06406Y07744D01*
X06407Y078838D02*
X06427Y079038D01*
X06447Y078838D01*
X06427Y078638D01*
X06407Y078838D01*
Y079153D02*
X06427Y079353D01*
X06447Y079153D01*
X06427Y078953D01*
X06407Y079153D01*
X06406Y07948D02*
X06426Y07968D01*
X06446Y07948D01*
X06426Y07928D01*
X06406Y07948D01*
Y07978D02*
X06426Y07998D01*
X06446Y07978D01*
X06426Y07958D01*
X06406Y07978D01*
X08578Y0766D02*
X08598Y0768D01*
X08618Y0766D01*
X08598Y0764D01*
X08578Y0766D01*
X08576Y07692D02*
X08596Y07712D01*
X08616Y07692D01*
X08596Y07672D01*
X08576Y07692D01*
X08575Y0786D02*
X08595Y0788D01*
X08615Y0786D01*
X08595Y0784D01*
X08575Y0786D01*
X08574Y07925D02*
X08594Y07945D01*
X08614Y07925D01*
X08594Y07905D01*
X08574Y07925D01*
X094Y08039D02*
X0942Y08059D01*
X0944Y08039D01*
X0942Y08019D01*
X094Y08039D01*
X08574Y07893D02*
X08594Y07913D01*
X08614Y07893D01*
X08594Y07873D01*
X08574Y07893D01*
X09299Y08007D02*
X09319Y08027D01*
X09339Y08007D01*
X09319Y07987D01*
X09299Y08007D01*
X08575Y07827D02*
X08595Y07847D01*
X08615Y07827D01*
X08595Y07807D01*
X08575Y07827D01*
X09199Y07969D02*
X09219Y07989D01*
X09239Y07969D01*
X09219Y07949D01*
X09199Y07969D01*
X09073Y07936D02*
X09093Y07956D01*
X09113Y07936D01*
X09093Y07916D01*
X09073Y07936D01*
X08975Y07894D02*
X08995Y07914D01*
X09015Y07894D01*
X08995Y07874D01*
X08975Y07894D01*
X08873Y07861D02*
X08893Y07881D01*
X08913Y07861D01*
X08893Y07841D01*
X08873Y07861D01*
X085742Y077232D02*
X085942Y077432D01*
X086142Y077232D01*
X085942Y077032D01*
X085742Y077232D01*
X09299Y07738D02*
X09319Y07758D01*
X09339Y07738D01*
X09319Y07718D01*
X09299Y07738D01*
X10053Y07842D02*
X10073Y07862D01*
X10093Y07842D01*
X10073Y07822D01*
X10053Y07842D01*
X10054Y07891D02*
X10074Y07911D01*
X10094Y07891D01*
X10074Y07871D01*
X10054Y07891D01*
X10053Y07941D02*
X10073Y07961D01*
X10093Y07941D01*
X10073Y07921D01*
X10053Y07941D01*
X1005Y07992D02*
X1007Y08012D01*
X1009Y07992D01*
X1007Y07972D01*
X1005Y07992D01*
X08772Y07715D02*
X08792Y07735D01*
X08812Y07715D01*
X08792Y07695D01*
X08772Y07715D01*
X1012Y07724D02*
X1014Y07744D01*
X1016Y07724D01*
X1014Y07704D01*
X1012Y07724D01*
X08873Y07736D02*
X08893Y07756D01*
X08913Y07736D01*
X08893Y07716D01*
X08873Y07736D01*
X10092Y07758D02*
X10112Y07778D01*
X10132Y07758D01*
X10112Y07738D01*
X10092Y07758D01*
X08971Y07713D02*
X08991Y07733D01*
X09011Y07713D01*
X08991Y07693D01*
X08971Y07713D01*
X10055Y07793D02*
X10075Y07813D01*
X10095Y07793D01*
X10075Y07773D01*
X10055Y07793D01*
X09072Y07714D02*
X09092Y07734D01*
X09112Y07714D01*
X09092Y07694D01*
X09072Y07714D01*
X09199Y07713D02*
X09219Y07733D01*
X09239Y07713D01*
X09219Y07693D01*
X09199Y07713D01*
X09399Y07714D02*
X09419Y07734D01*
X09439Y07714D01*
X09419Y07694D01*
X09399Y07714D01*
X05068Y07993D02*
X05088Y08013D01*
X05108Y07993D01*
X05088Y07973D01*
X05068Y07993D01*
Y07943D02*
X05088Y07963D01*
X05108Y07943D01*
X05088Y07923D01*
X05068Y07943D01*
X095Y08073D02*
X0952Y08093D01*
X0954Y08073D01*
X0952Y08053D01*
X095Y08073D01*
X09542Y08112D02*
X09562Y08132D01*
X09582Y08112D01*
X09562Y08092D01*
X09542Y08112D01*
X09513Y081163D02*
X09533Y081363D01*
X09553Y081163D01*
X09533Y080963D01*
X09513Y081163D01*
X04806Y06918D02*
X04826Y06938D01*
X04846Y06918D01*
X04826Y06898D01*
X04806Y06918D01*
X04803Y06823D02*
X04813D01*
X04823Y06833D01*
X04833Y06823D01*
X04843D01*
Y06833D01*
X04833Y06843D01*
X04843Y06853D01*
Y06863D01*
X04833D01*
X04823Y06853D01*
X04813Y06863D01*
X04803D01*
Y06853D01*
X04813Y06843D01*
X04803Y06833D01*
Y06823D01*
X102594Y07118D02*
Y07158D01*
X102994D01*
Y07118D01*
X102594D01*
X102674Y07126D02*
Y0715D01*
X102914D01*
Y07126D01*
X102674D01*
X102594Y07011D02*
Y07051D01*
X102994D01*
Y07011D01*
X102594D01*
X102674Y07019D02*
Y07043D01*
X102914D01*
Y07019D01*
X102674D01*
X10705Y07227D02*
Y07267D01*
X10745D01*
Y07227D01*
X10705D01*
X10713Y07235D02*
Y07259D01*
X10737D01*
Y07235D01*
X10713D01*
X10556Y06861D02*
Y06901D01*
X10596D01*
Y06861D01*
X10556D01*
X10564Y06869D02*
Y06893D01*
X10588D01*
Y06869D01*
X10564D01*
X1066Y07249D02*
X1068Y07269D01*
X107Y07249D01*
X1068Y07229D01*
X1066Y07249D01*
Y07229D02*
Y07269D01*
X107D01*
Y07229D01*
X1066D01*
X10668Y07237D02*
Y07261D01*
X10692D01*
Y07237D01*
X10668D01*
X06772Y06471D02*
X06782D01*
X06792Y06481D01*
X06802Y06471D01*
X06812D01*
Y06481D01*
X06802Y06491D01*
X06812Y06501D01*
Y06511D01*
X06802D01*
X06792Y06501D01*
X06782Y06511D01*
X06772D01*
Y06501D01*
X06782Y06491D01*
X06772Y06481D01*
Y06471D01*
X06713D02*
X06723D01*
X06733Y06481D01*
X06743Y06471D01*
X06753D01*
Y06481D01*
X06743Y06491D01*
X06753Y06501D01*
Y06511D01*
X06743D01*
X06733Y06501D01*
X06723Y06511D01*
X06713D01*
Y06501D01*
X06723Y06491D01*
X06713Y06481D01*
Y06471D01*
X0665D02*
X0666D01*
X0667Y06481D01*
X0668Y06471D01*
X0669D01*
Y06481D01*
X0668Y06491D01*
X0669Y06501D01*
Y06511D01*
X0668D01*
X0667Y06501D01*
X0666Y06511D01*
X0665D01*
Y06501D01*
X0666Y06491D01*
X0665Y06481D01*
Y06471D01*
X08062D02*
X08072D01*
X08082Y06481D01*
X08092Y06471D01*
X08102D01*
Y06481D01*
X08092Y06491D01*
X08102Y06501D01*
Y06511D01*
X08092D01*
X08082Y06501D01*
X08072Y06511D01*
X08062D01*
Y06501D01*
X08072Y06491D01*
X08062Y06481D01*
Y06471D01*
X08003D02*
X08013D01*
X08023Y06481D01*
X08033Y06471D01*
X08043D01*
Y06481D01*
X08033Y06491D01*
X08043Y06501D01*
Y06511D01*
X08033D01*
X08023Y06501D01*
X08013Y06511D01*
X08003D01*
Y06501D01*
X08013Y06491D01*
X08003Y06481D01*
Y06471D01*
X0794D02*
X0795D01*
X0796Y06481D01*
X0797Y06471D01*
X0798D01*
Y06481D01*
X0797Y06491D01*
X0798Y06501D01*
Y06511D01*
X0797D01*
X0796Y06501D01*
X0795Y06511D01*
X0794D01*
Y06501D01*
X0795Y06491D01*
X0794Y06481D01*
Y06471D01*
X09364D02*
X09374D01*
X09384Y06481D01*
X09394Y06471D01*
X09404D01*
Y06481D01*
X09394Y06491D01*
X09404Y06501D01*
Y06511D01*
X09394D01*
X09384Y06501D01*
X09374Y06511D01*
X09364D01*
Y06501D01*
X09374Y06491D01*
X09364Y06481D01*
Y06471D01*
X09305D02*
X09315D01*
X09325Y06481D01*
X09335Y06471D01*
X09345D01*
Y06481D01*
X09335Y06491D01*
X09345Y06501D01*
Y06511D01*
X09335D01*
X09325Y06501D01*
X09315Y06511D01*
X09305D01*
Y06501D01*
X09315Y06491D01*
X09305Y06481D01*
Y06471D01*
X09242D02*
X09252D01*
X09262Y06481D01*
X09272Y06471D01*
X09282D01*
Y06481D01*
X09272Y06491D01*
X09282Y06501D01*
Y06511D01*
X09272D01*
X09262Y06501D01*
X09252Y06511D01*
X09242D01*
Y06501D01*
X09252Y06491D01*
X09242Y06481D01*
Y06471D01*
X06123Y0629D02*
X06133D01*
X06143Y063D01*
X06153Y0629D01*
X06163D01*
Y063D01*
X06153Y0631D01*
X06163Y0632D01*
Y0633D01*
X06153D01*
X06143Y0632D01*
X06133Y0633D01*
X06123D01*
Y0632D01*
X06133Y0631D01*
X06123Y063D01*
Y0629D01*
X06064D02*
X06074D01*
X06084Y063D01*
X06094Y0629D01*
X06104D01*
Y063D01*
X06094Y0631D01*
X06104Y0632D01*
Y0633D01*
X06094D01*
X06084Y0632D01*
X06074Y0633D01*
X06064D01*
Y0632D01*
X06074Y0631D01*
X06064Y063D01*
Y0629D01*
X06001D02*
X06011D01*
X06021Y063D01*
X06031Y0629D01*
X06041D01*
Y063D01*
X06031Y0631D01*
X06041Y0632D01*
Y0633D01*
X06031D01*
X06021Y0632D01*
X06011Y0633D01*
X06001D01*
Y0632D01*
X06011Y0631D01*
X06001Y063D01*
Y0629D01*
X0742D02*
X0743D01*
X0744Y063D01*
X0745Y0629D01*
X0746D01*
Y063D01*
X0745Y0631D01*
X0746Y0632D01*
Y0633D01*
X0745D01*
X0744Y0632D01*
X0743Y0633D01*
X0742D01*
Y0632D01*
X0743Y0631D01*
X0742Y063D01*
Y0629D01*
X07361D02*
X07371D01*
X07381Y063D01*
X07391Y0629D01*
X07401D01*
Y063D01*
X07391Y0631D01*
X07401Y0632D01*
Y0633D01*
X07391D01*
X07381Y0632D01*
X07371Y0633D01*
X07361D01*
Y0632D01*
X07371Y0631D01*
X07361Y063D01*
Y0629D01*
X07298D02*
X07308D01*
X07318Y063D01*
X07328Y0629D01*
X07338D01*
Y063D01*
X07328Y0631D01*
X07338Y0632D01*
Y0633D01*
X07328D01*
X07318Y0632D01*
X07308Y0633D01*
X07298D01*
Y0632D01*
X07308Y0631D01*
X07298Y063D01*
Y0629D01*
X08715D02*
X08725D01*
X08735Y063D01*
X08745Y0629D01*
X08755D01*
Y063D01*
X08745Y0631D01*
X08755Y0632D01*
Y0633D01*
X08745D01*
X08735Y0632D01*
X08725Y0633D01*
X08715D01*
Y0632D01*
X08725Y0631D01*
X08715Y063D01*
Y0629D01*
X08656D02*
X08666D01*
X08676Y063D01*
X08686Y0629D01*
X08696D01*
Y063D01*
X08686Y0631D01*
X08696Y0632D01*
Y0633D01*
X08686D01*
X08676Y0632D01*
X08666Y0633D01*
X08656D01*
Y0632D01*
X08666Y0631D01*
X08656Y063D01*
Y0629D01*
X08593D02*
X08603D01*
X08613Y063D01*
X08623Y0629D01*
X08633D01*
Y063D01*
X08623Y0631D01*
X08633Y0632D01*
Y0633D01*
X08623D01*
X08613Y0632D01*
X08603Y0633D01*
X08593D01*
Y0632D01*
X08603Y0631D01*
X08593Y063D01*
Y0629D01*
X10009D02*
X10019D01*
X10029Y063D01*
X10039Y0629D01*
X10049D01*
Y063D01*
X10039Y0631D01*
X10049Y0632D01*
Y0633D01*
X10039D01*
X10029Y0632D01*
X10019Y0633D01*
X10009D01*
Y0632D01*
X10019Y0631D01*
X10009Y063D01*
Y0629D01*
X09887D02*
X09897D01*
X09907Y063D01*
X09917Y0629D01*
X09927D01*
Y063D01*
X09917Y0631D01*
X09927Y0632D01*
Y0633D01*
X09917D01*
X09907Y0632D01*
X09897Y0633D01*
X09887D01*
Y0632D01*
X09897Y0631D01*
X09887Y063D01*
Y0629D01*
X0995D02*
X0996D01*
X0997Y063D01*
X0998Y0629D01*
X0999D01*
Y063D01*
X0998Y0631D01*
X0999Y0632D01*
Y0633D01*
X0998D01*
X0997Y0632D01*
X0996Y0633D01*
X0995D01*
Y0632D01*
X0996Y0631D01*
X0995Y063D01*
Y0629D01*
X10287Y06255D02*
Y06295D01*
X10327D01*
Y06255D01*
X10287D01*
X10295Y06263D02*
Y06287D01*
X10319D01*
Y06263D01*
X10295D01*
X10286Y06327D02*
Y06367D01*
X10326D01*
Y06327D01*
X10286D01*
X10294Y06335D02*
Y06359D01*
X10318D01*
Y06335D01*
X10294D01*
X10288Y06414D02*
Y06454D01*
X10328D01*
Y06414D01*
X10288D01*
X10296Y06422D02*
Y06446D01*
X1032D01*
Y06422D01*
X10296D01*
X10314Y09075D02*
X10324D01*
X10334Y09085D01*
X10344Y09075D01*
X10354D01*
Y09085D01*
X10344Y09095D01*
X10354Y09105D01*
Y09115D01*
X10344D01*
X10334Y09105D01*
X10324Y09115D01*
X10314D01*
Y09105D01*
X10324Y09095D01*
X10314Y09085D01*
Y09075D01*
X05646Y09271D02*
X05656D01*
X05666Y09281D01*
X05676Y09271D01*
X05686D01*
Y09281D01*
X05676Y09291D01*
X05686Y09301D01*
Y09311D01*
X05676D01*
X05666Y09301D01*
X05656Y09311D01*
X05646D01*
Y09301D01*
X05656Y09291D01*
X05646Y09281D01*
Y09271D01*
X07599Y0907D02*
X07609D01*
X07619Y0908D01*
X07629Y0907D01*
X07639D01*
Y0908D01*
X07629Y0909D01*
X07639Y091D01*
Y0911D01*
X07629D01*
X07619Y091D01*
X07609Y0911D01*
X07599D01*
Y091D01*
X07609Y0909D01*
X07599Y0908D01*
Y0907D01*
X06934Y09271D02*
X06944D01*
X06954Y09281D01*
X06964Y09271D01*
X06974D01*
Y09281D01*
X06964Y09291D01*
X06974Y09301D01*
Y09311D01*
X06964D01*
X06954Y09301D01*
X06944Y09311D01*
X06934D01*
Y09301D01*
X06944Y09291D01*
X06934Y09281D01*
Y09271D01*
X08242Y09274D02*
X08252D01*
X08262Y09284D01*
X08272Y09274D01*
X08282D01*
Y09284D01*
X08272Y09294D01*
X08282Y09304D01*
Y09314D01*
X08272D01*
X08262Y09304D01*
X08252Y09314D01*
X08242D01*
Y09304D01*
X08252Y09294D01*
X08242Y09284D01*
Y09274D01*
X05058Y09081D02*
X05068D01*
X05078Y09091D01*
X05088Y09081D01*
X05098D01*
Y09091D01*
X05088Y09101D01*
X05098Y09111D01*
Y09121D01*
X05088D01*
X05078Y09111D01*
X05068Y09121D01*
X05058D01*
Y09111D01*
X05068Y09101D01*
X05058Y09091D01*
Y09081D01*
X04995D02*
X05005D01*
X05015Y09091D01*
X05025Y09081D01*
X05035D01*
Y09091D01*
X05025Y09101D01*
X05035Y09111D01*
Y09121D01*
X05025D01*
X05015Y09111D01*
X05005Y09121D01*
X04995D01*
Y09111D01*
X05005Y09101D01*
X04995Y09091D01*
Y09081D01*
X04936D02*
X04946D01*
X04956Y09091D01*
X04966Y09081D01*
X04976D01*
Y09091D01*
X04966Y09101D01*
X04976Y09111D01*
Y09121D01*
X04966D01*
X04956Y09111D01*
X04946Y09121D01*
X04936D01*
Y09111D01*
X04946Y09101D01*
X04936Y09091D01*
Y09081D01*
X06345Y09078D02*
X06355D01*
X06365Y09088D01*
X06375Y09078D01*
X06385D01*
Y09088D01*
X06375Y09098D01*
X06385Y09108D01*
Y09118D01*
X06375D01*
X06365Y09108D01*
X06355Y09118D01*
X06345D01*
Y09108D01*
X06355Y09098D01*
X06345Y09088D01*
Y09078D01*
X06282D02*
X06292D01*
X06302Y09088D01*
X06312Y09078D01*
X06322D01*
Y09088D01*
X06312Y09098D01*
X06322Y09108D01*
Y09118D01*
X06312D01*
X06302Y09108D01*
X06292Y09118D01*
X06282D01*
Y09108D01*
X06292Y09098D01*
X06282Y09088D01*
Y09078D01*
X06223D02*
X06233D01*
X06243Y09088D01*
X06253Y09078D01*
X06263D01*
Y09088D01*
X06253Y09098D01*
X06263Y09108D01*
Y09118D01*
X06253D01*
X06243Y09108D01*
X06233Y09118D01*
X06223D01*
Y09108D01*
X06233Y09098D01*
X06223Y09088D01*
Y09078D01*
X07662Y0907D02*
X07672D01*
X07682Y0908D01*
X07692Y0907D01*
X07702D01*
Y0908D01*
X07692Y0909D01*
X07702Y091D01*
Y0911D01*
X07692D01*
X07682Y091D01*
X07672Y0911D01*
X07662D01*
Y091D01*
X07672Y0909D01*
X07662Y0908D01*
Y0907D01*
X0754D02*
X0755D01*
X0756Y0908D01*
X0757Y0907D01*
X0758D01*
Y0908D01*
X0757Y0909D01*
X0758Y091D01*
Y0911D01*
X0757D01*
X0756Y091D01*
X0755Y0911D01*
X0754D01*
Y091D01*
X0755Y0909D01*
X0754Y0908D01*
Y0907D01*
X08947Y09072D02*
X08957D01*
X08967Y09082D01*
X08977Y09072D01*
X08987D01*
Y09082D01*
X08977Y09092D01*
X08987Y09102D01*
Y09112D01*
X08977D01*
X08967Y09102D01*
X08957Y09112D01*
X08947D01*
Y09102D01*
X08957Y09092D01*
X08947Y09082D01*
Y09072D01*
X08884D02*
X08894D01*
X08904Y09082D01*
X08914Y09072D01*
X08924D01*
Y09082D01*
X08914Y09092D01*
X08924Y09102D01*
Y09112D01*
X08914D01*
X08904Y09102D01*
X08894Y09112D01*
X08884D01*
Y09102D01*
X08894Y09092D01*
X08884Y09082D01*
Y09072D01*
X08825D02*
X08835D01*
X08845Y09082D01*
X08855Y09072D01*
X08865D01*
Y09082D01*
X08855Y09092D01*
X08865Y09102D01*
Y09112D01*
X08855D01*
X08845Y09102D01*
X08835Y09112D01*
X08825D01*
Y09102D01*
X08835Y09092D01*
X08825Y09082D01*
Y09072D01*
X09596Y09275D02*
X09606D01*
X09616Y09285D01*
X09626Y09275D01*
X09636D01*
Y09285D01*
X09626Y09295D01*
X09636Y09305D01*
Y09315D01*
X09626D01*
X09616Y09305D01*
X09606Y09315D01*
X09596D01*
Y09305D01*
X09606Y09295D01*
X09596Y09285D01*
Y09275D01*
X09533D02*
X09543D01*
X09553Y09285D01*
X09563Y09275D01*
X09573D01*
Y09285D01*
X09563Y09295D01*
X09573Y09305D01*
Y09315D01*
X09563D01*
X09553Y09305D01*
X09543Y09315D01*
X09533D01*
Y09305D01*
X09543Y09295D01*
X09533Y09285D01*
Y09275D01*
X09474D02*
X09484D01*
X09494Y09285D01*
X09504Y09275D01*
X09514D01*
Y09285D01*
X09504Y09295D01*
X09514Y09305D01*
Y09315D01*
X09504D01*
X09494Y09305D01*
X09484Y09315D01*
X09474D01*
Y09305D01*
X09484Y09295D01*
X09474Y09285D01*
Y09275D01*
X08306Y09275D02*
X08316D01*
X08326Y09285D01*
X08336Y09275D01*
X08346D01*
Y09285D01*
X08336Y09295D01*
X08346Y09305D01*
Y09315D01*
X08336D01*
X08326Y09305D01*
X08316Y09315D01*
X08306D01*
Y09305D01*
X08316Y09295D01*
X08306Y09285D01*
Y09275D01*
X08243D02*
X08253D01*
X08263Y09285D01*
X08273Y09275D01*
X08283D01*
Y09285D01*
X08273Y09295D01*
X08283Y09305D01*
Y09315D01*
X08273D01*
X08263Y09305D01*
X08253Y09315D01*
X08243D01*
Y09305D01*
X08253Y09295D01*
X08243Y09285D01*
Y09275D01*
X08184D02*
X08194D01*
X08204Y09285D01*
X08214Y09275D01*
X08224D01*
Y09285D01*
X08214Y09295D01*
X08224Y09305D01*
Y09315D01*
X08214D01*
X08204Y09305D01*
X08194Y09315D01*
X08184D01*
Y09305D01*
X08194Y09295D01*
X08184Y09285D01*
Y09275D01*
X06997Y09271D02*
X07007D01*
X07017Y09281D01*
X07027Y09271D01*
X07037D01*
Y09281D01*
X07027Y09291D01*
X07037Y09301D01*
Y09311D01*
X07027D01*
X07017Y09301D01*
X07007Y09311D01*
X06997D01*
Y09301D01*
X07007Y09291D01*
X06997Y09281D01*
Y09271D01*
X06875D02*
X06885D01*
X06895Y09281D01*
X06905Y09271D01*
X06915D01*
Y09281D01*
X06905Y09291D01*
X06915Y09301D01*
Y09311D01*
X06905D01*
X06895Y09301D01*
X06885Y09311D01*
X06875D01*
Y09301D01*
X06885Y09291D01*
X06875Y09281D01*
Y09271D01*
X05709D02*
X05719D01*
X05729Y09281D01*
X05739Y09271D01*
X05749D01*
Y09281D01*
X05739Y09291D01*
X05749Y09301D01*
Y09311D01*
X05739D01*
X05729Y09301D01*
X05719Y09311D01*
X05709D01*
Y09301D01*
X05719Y09291D01*
X05709Y09281D01*
Y09271D01*
X05587D02*
X05597D01*
X05607Y09281D01*
X05617Y09271D01*
X05627D01*
Y09281D01*
X05617Y09291D01*
X05627Y09301D01*
Y09311D01*
X05617D01*
X05607Y09301D01*
X05597Y09311D01*
X05587D01*
Y09301D01*
X05597Y09291D01*
X05587Y09281D01*
Y09271D01*
X10312Y09076D02*
X10322D01*
X10332Y09086D01*
X10342Y09076D01*
X10352D01*
Y09086D01*
X10342Y09096D01*
X10352Y09106D01*
Y09116D01*
X10342D01*
X10332Y09106D01*
X10322Y09116D01*
X10312D01*
Y09106D01*
X10322Y09096D01*
X10312Y09086D01*
Y09076D01*
Y09135D02*
X10322D01*
X10332Y09145D01*
X10342Y09135D01*
X10352D01*
Y09145D01*
X10342Y09155D01*
X10352Y09165D01*
Y09175D01*
X10342D01*
X10332Y09165D01*
X10322Y09175D01*
X10312D01*
Y09165D01*
X10322Y09155D01*
X10312Y09145D01*
Y09135D01*
Y09198D02*
X10322D01*
X10332Y09208D01*
X10342Y09198D01*
X10352D01*
Y09208D01*
X10342Y09218D01*
X10352Y09228D01*
Y09238D01*
X10342D01*
X10332Y09228D01*
X10322Y09238D01*
X10312D01*
Y09228D01*
X10322Y09218D01*
X10312Y09208D01*
Y09198D01*
D82*
X047377Y096195D02*
G03*
X047377Y096195I-0002J0D01*
G01*
Y059825D02*
G03*
X047377Y059825I-0002J0D01*
G01*
X109062Y059831D02*
G03*
X109062Y059831I-0002J0D01*
G01*
Y096195D02*
G03*
X109062Y096195I-0002J0D01*
G01*
M02*
