G04 Layer_Physical_Order=2*
G04 Layer_Color=16711680*
%FSTAX24Y24*%
%MOIN*%
G70*
G01*
G75*
%ADD20C,0.0300*%
%ADD21C,0.0150*%
%ADD22C,0.0450*%
%ADD23C,0.0315*%
%ADD25C,0.0394*%
%ADD26C,0.0984*%
%ADD27R,0.0787X0.0984*%
%ADD28P,0.1705X8X22.5*%
%ADD29O,0.0750X0.0650*%
%ADD30O,0.0787X0.0591*%
%ADD31R,0.0787X0.0591*%
%ADD32C,0.1200*%
%ADD33O,0.0860X0.0600*%
%ADD34C,0.0600*%
%ADD35C,0.0500*%
%ADD36C,0.0197*%
%ADD37C,0.0315*%
%ADD38C,0.0787*%
%ADD39C,0.0197*%
G36*
X091767Y071697D02*
X09098Y071672D01*
X090979Y07174D01*
X090965Y071946D01*
X090958Y07198D01*
X09095Y072008D01*
X090941Y07203D01*
X090931Y072044D01*
X09092Y072053D01*
X091694Y072377D01*
X091767Y071697D01*
D02*
G37*
G36*
X085285Y0717D02*
X084498Y07167D01*
X084497Y071738D01*
X084483Y071943D01*
X084477Y071978D01*
X084469Y072006D01*
X08446Y072027D01*
X08445Y072042D01*
X084438Y07205D01*
X085208Y072383D01*
X085285Y0717D01*
D02*
G37*
G36*
X078804Y071703D02*
X078017Y071668D01*
X078016Y071736D01*
X078002Y071941D01*
X077995Y071976D01*
X077987Y072004D01*
X077978Y072025D01*
X077968Y072039D01*
X077957Y072047D01*
X078721Y072387D01*
X078804Y071703D01*
D02*
G37*
G36*
X098248Y071694D02*
X097461Y071674D01*
X09746Y071742D01*
X097446Y071948D01*
X097439Y071983D01*
X097432Y072011D01*
X097423Y072032D01*
X097412Y072047D01*
X097401Y072055D01*
X09818Y07237D01*
X098248Y071694D01*
D02*
G37*
G36*
X063014Y072468D02*
X06302Y072412D01*
X06303Y072358D01*
X063043Y072306D01*
X063061Y072256D01*
X063082Y072208D01*
X063108Y072163D01*
X063137Y072119D01*
X06317Y072078D01*
X063207Y072038D01*
X062367D01*
X062404Y072078D01*
X062437Y072119D01*
X062467Y072163D01*
X062492Y072208D01*
X062513Y072256D01*
X062531Y072306D01*
X062545Y072358D01*
X062554Y072412D01*
X06256Y072468D01*
X062562Y072526D01*
X063012D01*
X063014Y072468D01*
D02*
G37*
G36*
X056526D02*
X056531Y072412D01*
X056541Y072358D01*
X056555Y072306D01*
X056572Y072256D01*
X056594Y072208D01*
X056619Y072163D01*
X056648Y072119D01*
X056682Y072078D01*
X056719Y072038D01*
X055879D01*
X055916Y072078D01*
X055949Y072119D01*
X055978Y072163D01*
X056003Y072208D01*
X056025Y072256D01*
X056042Y072306D01*
X056056Y072358D01*
X056066Y072412D01*
X056072Y072468D01*
X056074Y072526D01*
X056524D01*
X056526Y072468D01*
D02*
G37*
G36*
X050037D02*
X050043Y072412D01*
X050053Y072358D01*
X050066Y072306D01*
X050084Y072256D01*
X050105Y072208D01*
X050131Y072163D01*
X05016Y072119D01*
X050193Y072078D01*
X05023Y072038D01*
X04939D01*
X049427Y072078D01*
X04946Y072119D01*
X049489Y072163D01*
X049515Y072208D01*
X049536Y072256D01*
X049554Y072306D01*
X049567Y072358D01*
X049577Y072412D01*
X049583Y072468D01*
X049585Y072526D01*
X050035D01*
X050037Y072468D01*
D02*
G37*
G36*
X100582Y071851D02*
X100591Y071848D01*
X100605Y071845D01*
X100624Y071842D01*
X100676Y071838D01*
X10084Y071835D01*
Y071385D01*
X100792Y071385D01*
X100591Y071372D01*
X100582Y071369D01*
X100578Y071365D01*
Y071855D01*
X100582Y071851D01*
D02*
G37*
G36*
X105983Y071734D02*
X106011Y071726D01*
X106047Y071719D01*
X106089Y071712D01*
X106194Y071703D01*
X106404Y071695D01*
X106488Y071695D01*
Y071245D01*
X106404Y071245D01*
X106047Y071221D01*
X106011Y071214D01*
X105983Y071206D01*
X105962Y071197D01*
Y071743D01*
X105983Y071734D01*
D02*
G37*
G36*
X106047Y069266D02*
X106032Y069254D01*
X106018Y069234D01*
X106007Y069205D01*
X105997Y069168D01*
X105989Y069123D01*
X105983Y069069D01*
X105976Y068938D01*
X105975Y06886D01*
X105525D01*
X105524Y068938D01*
X105511Y069123D01*
X105503Y069168D01*
X105493Y069205D01*
X105482Y069234D01*
X105468Y069254D01*
X105453Y069266D01*
X105436Y069271D01*
X106064D01*
X106047Y069266D01*
D02*
G37*
G36*
X052878Y071717D02*
X052091Y071662D01*
X05209Y07173D01*
X052076Y071934D01*
X05207Y071968D01*
X052062Y071995D01*
X052054Y072016D01*
X052044Y07203D01*
X052033Y072037D01*
X052774Y072406D01*
X052878Y071717D01*
D02*
G37*
G36*
X072323Y071706D02*
X071535Y071667D01*
X071535Y071735D01*
X07152Y071939D01*
X071514Y071974D01*
X071506Y072001D01*
X071497Y072022D01*
X071487Y072037D01*
X071476Y072044D01*
X072235Y072392D01*
X072323Y071706D01*
D02*
G37*
G36*
X065841Y071709D02*
X065054Y071665D01*
X065053Y071733D01*
X065039Y071938D01*
X065033Y071972D01*
X065025Y071999D01*
X065016Y07202D01*
X065006Y072034D01*
X064995Y072042D01*
X065748Y072397D01*
X065841Y071709D01*
D02*
G37*
G36*
X05936Y071713D02*
X058572Y071663D01*
X058572Y071731D01*
X058558Y071936D01*
X058551Y07197D01*
X058544Y071997D01*
X058535Y072018D01*
X058525Y072032D01*
X058514Y072039D01*
X059261Y072401D01*
X05936Y071713D01*
D02*
G37*
G36*
X069503Y072468D02*
X069509Y072412D01*
X069518Y072358D01*
X069532Y072306D01*
X069549Y072256D01*
X069571Y072208D01*
X069596Y072163D01*
X069626Y072119D01*
X069659Y072078D01*
X069696Y072038D01*
X068856D01*
X068893Y072078D01*
X068926Y072119D01*
X068955Y072163D01*
X068981Y072208D01*
X069002Y072256D01*
X06902Y072306D01*
X069033Y072358D01*
X069043Y072412D01*
X069049Y072468D01*
X069051Y072526D01*
X069501D01*
X069503Y072468D01*
D02*
G37*
G36*
X095388Y074306D02*
X095392Y074236D01*
X095394Y074224D01*
X095396Y074213D01*
X095399Y074204D01*
X095402Y074196D01*
X095405Y074191D01*
X095055D01*
X095058Y074196D01*
X095061Y074204D01*
X095064Y074213D01*
X095066Y074224D01*
X095068Y074236D01*
X095071Y074267D01*
X095072Y074306D01*
X095073Y074328D01*
X095387D01*
X095388Y074306D01*
D02*
G37*
G36*
X068457Y074454D02*
X068138Y074133D01*
X067913Y074358D01*
X067917Y074362D01*
X067943Y074387D01*
X068234Y074677D01*
X068457Y074454D01*
D02*
G37*
G36*
X049651Y073951D02*
X049646Y073951D01*
X04961Y073952D01*
X049199Y073953D01*
Y074267D01*
X049651Y074269D01*
Y073951D01*
D02*
G37*
G36*
X082376Y07422D02*
X082024D01*
X082027Y074228D01*
X082031Y074241D01*
X082033Y074261D01*
X082038Y074319D01*
X082042Y074508D01*
X082043Y07457D01*
X082357D01*
X082376Y07422D01*
D02*
G37*
G36*
X050045Y074271D02*
X050141Y074268D01*
X05018Y074267D01*
Y073953D01*
X050141Y073952D01*
X050045Y073946D01*
Y07393D01*
X050037Y073934D01*
X050026Y073938D01*
X050011Y073941D01*
X050002Y073943D01*
X049979Y073941D01*
X049964Y073938D01*
X049953Y073934D01*
X049945Y07393D01*
Y073949D01*
X049849Y073952D01*
X04981Y073953D01*
Y074267D01*
X049849Y074268D01*
X049945Y074274D01*
Y07429D01*
X049953Y074286D01*
X049964Y074282D01*
X049979Y074279D01*
X049988Y074277D01*
X050011Y074279D01*
X050026Y074282D01*
X050037Y074286D01*
X050045Y07429D01*
Y074271D01*
D02*
G37*
G36*
X074539Y074269D02*
X074221D01*
X074221Y074274D01*
X074222Y07431D01*
X074223Y074721D01*
X074537D01*
X074539Y074269D01*
D02*
G37*
G36*
X075923Y074253D02*
X075605D01*
X075605Y074258D01*
X075606Y074295D01*
X075607Y074705D01*
X075922D01*
X075923Y074253D01*
D02*
G37*
G36*
X088968Y072468D02*
X088974Y072412D01*
X088984Y072358D01*
X088998Y072306D01*
X089015Y072256D01*
X089037Y072208D01*
X089062Y072163D01*
X089091Y072119D01*
X089124Y072078D01*
X089161Y072038D01*
X088321D01*
X088358Y072078D01*
X088392Y072119D01*
X088421Y072163D01*
X088446Y072208D01*
X088468Y072256D01*
X088485Y072306D01*
X088499Y072358D01*
X088509Y072412D01*
X088514Y072468D01*
X088516Y072526D01*
X088966D01*
X088968Y072468D01*
D02*
G37*
G36*
X08248D02*
X082486Y072412D01*
X082495Y072358D01*
X082509Y072306D01*
X082527Y072256D01*
X082548Y072208D01*
X082573Y072163D01*
X082603Y072119D01*
X082636Y072078D01*
X082673Y072038D01*
X081833D01*
X08187Y072078D01*
X081903Y072119D01*
X081932Y072163D01*
X081958Y072208D01*
X081979Y072256D01*
X081997Y072306D01*
X08201Y072358D01*
X08202Y072412D01*
X082026Y072468D01*
X082028Y072526D01*
X082478D01*
X08248Y072468D01*
D02*
G37*
G36*
X075991D02*
X075997Y072412D01*
X076007Y072358D01*
X07602Y072306D01*
X076038Y072256D01*
X076059Y072208D01*
X076085Y072163D01*
X076114Y072119D01*
X076147Y072078D01*
X076184Y072038D01*
X075344D01*
X075381Y072078D01*
X075414Y072119D01*
X075444Y072163D01*
X075469Y072208D01*
X075491Y072256D01*
X075508Y072306D01*
X075522Y072358D01*
X075531Y072412D01*
X075537Y072468D01*
X075539Y072526D01*
X075989D01*
X075991Y072468D01*
D02*
G37*
G36*
X095457D02*
X095463Y072412D01*
X095473Y072358D01*
X095486Y072306D01*
X095504Y072256D01*
X095525Y072208D01*
X095551Y072163D01*
X09558Y072119D01*
X095613Y072078D01*
X09565Y072038D01*
X09481D01*
X094847Y072078D01*
X09488Y072119D01*
X094909Y072163D01*
X094935Y072208D01*
X094956Y072256D01*
X094974Y072306D01*
X094987Y072358D01*
X094997Y072412D01*
X095003Y072468D01*
X095005Y072526D01*
X095455D01*
X095457Y072468D01*
D02*
G37*
G36*
X06154Y074249D02*
X061577Y074248D01*
X061987Y074247D01*
Y073933D01*
X061535Y073931D01*
Y074249D01*
X06154Y074249D01*
D02*
G37*
G36*
X105983Y073734D02*
X106011Y073726D01*
X106047Y073719D01*
X106089Y073712D01*
X106194Y073703D01*
X106404Y073695D01*
X106488Y073695D01*
Y073245D01*
X106404Y073245D01*
X106047Y073221D01*
X106011Y073214D01*
X105983Y073206D01*
X105962Y073197D01*
Y073743D01*
X105983Y073734D01*
D02*
G37*
G36*
Y072734D02*
X106011Y072726D01*
X106047Y072719D01*
X106089Y072712D01*
X106194Y072703D01*
X106404Y072695D01*
X106488Y072695D01*
Y072245D01*
X106404Y072245D01*
X106047Y072221D01*
X106011Y072214D01*
X105983Y072206D01*
X105962Y072197D01*
Y072743D01*
X105983Y072734D01*
D02*
G37*
G36*
X095645Y066373D02*
X095641Y066358D01*
X095637Y066336D01*
X095633Y066308D01*
X095626Y066182D01*
X095624Y065997D01*
X094836D01*
X094836Y066066D01*
X094819Y066358D01*
X094815Y066373D01*
X09481Y066382D01*
X09565D01*
X095645Y066373D01*
D02*
G37*
G36*
X05712Y061856D02*
X056606Y061146D01*
X056605Y061158D01*
X056591Y061181D01*
X056566Y061215D01*
X056478Y061315D01*
X056048Y061759D01*
X056577Y062344D01*
X05712Y061856D01*
D02*
G37*
G36*
X050155Y062287D02*
X050555Y061937D01*
X050626Y061889D01*
X050685Y061857D01*
X050733Y061841D01*
X050768Y061841D01*
X050792Y061856D01*
X050125Y060992D01*
X050136Y061021D01*
X050132Y06106D01*
X050113Y061111D01*
X050079Y061171D01*
X050031Y061243D01*
X049968Y061325D01*
X049797Y061521D01*
X049567Y061759D01*
X050025Y062414D01*
X050155Y062287D01*
D02*
G37*
G36*
X098255Y059877D02*
X098279Y059866D01*
X098318Y059856D01*
X098373Y059847D01*
X098531Y059834D01*
X098885Y059824D01*
X099035Y059824D01*
Y059036D01*
X098885Y059035D01*
X098444Y059004D01*
X098373Y05899D01*
X098318Y058973D01*
X098279Y058954D01*
X098255Y058932D01*
X098247Y058907D01*
Y059889D01*
X098255Y059877D01*
D02*
G37*
G36*
X063587Y061856D02*
X063088Y06116D01*
X063085Y061171D01*
X063071Y061192D01*
X063045Y061224D01*
X062895Y061387D01*
X06253Y061759D01*
X063066Y062337D01*
X063587Y061856D01*
D02*
G37*
G36*
X082988D02*
X082532Y061203D01*
X081974Y061759D01*
X082531Y062316D01*
X082988Y061856D01*
D02*
G37*
G36*
X076521D02*
X076051Y061189D01*
X076046Y061196D01*
X07603Y061214D01*
X075493Y061759D01*
X076043Y062323D01*
X076521Y061856D01*
D02*
G37*
G36*
X070054D02*
X069569Y061175D01*
X069566Y061183D01*
X06955Y061203D01*
X069524Y061234D01*
X069119Y061651D01*
X069011Y061759D01*
X069554Y06233D01*
X070054Y061856D01*
D02*
G37*
G36*
X065848Y059877D02*
X065872Y059866D01*
X065911Y059856D01*
X065966Y059847D01*
X066123Y059834D01*
X066478Y059824D01*
X066627Y059824D01*
Y059036D01*
X066478Y059035D01*
X066037Y059004D01*
X065966Y05899D01*
X065911Y058973D01*
X065872Y058954D01*
X065848Y058932D01*
X06584Y058907D01*
Y059889D01*
X065848Y059877D01*
D02*
G37*
G36*
X059366D02*
X05939Y059866D01*
X059429Y059856D01*
X059485Y059847D01*
X059642Y059834D01*
X059996Y059824D01*
X060146Y059824D01*
Y059036D01*
X059996Y059035D01*
X059555Y059004D01*
X059485Y05899D01*
X059429Y058973D01*
X05939Y058954D01*
X059366Y058932D01*
X059359Y058907D01*
Y059889D01*
X059366Y059877D01*
D02*
G37*
G36*
X052885Y059871D02*
X052909Y059854D01*
X052948Y05984D01*
X053003Y059827D01*
X053074Y059816D01*
X053263Y059801D01*
X053665Y059792D01*
Y059004D01*
X053515Y059004D01*
X053003Y058969D01*
X052948Y058957D01*
X052909Y058942D01*
X052885Y058926D01*
X052877Y058907D01*
Y059889D01*
X052885Y059871D01*
D02*
G37*
G36*
X072329Y059877D02*
X072353Y059866D01*
X072392Y059856D01*
X072447Y059847D01*
X072605Y059834D01*
X072959Y059824D01*
X073109Y059824D01*
Y059036D01*
X072959Y059035D01*
X072518Y059004D01*
X072447Y05899D01*
X072392Y058973D01*
X072353Y058954D01*
X072329Y058932D01*
X072321Y058907D01*
Y059889D01*
X072329Y059877D01*
D02*
G37*
G36*
X091774Y059871D02*
X091797Y059854D01*
X091837Y05984D01*
X091892Y059827D01*
X091963Y059816D01*
X092152Y059801D01*
X092553Y059792D01*
Y059004D01*
X092404Y059004D01*
X091892Y058969D01*
X091837Y058957D01*
X091797Y058942D01*
X091774Y058926D01*
X091766Y058907D01*
Y059889D01*
X091774Y059871D01*
D02*
G37*
G36*
X085292Y059877D02*
X085316Y059866D01*
X085355Y059856D01*
X08541Y059847D01*
X085568Y059834D01*
X085922Y059824D01*
X086072Y059824D01*
Y059036D01*
X085922Y059035D01*
X085481Y059004D01*
X08541Y05899D01*
X085355Y058973D01*
X085316Y058954D01*
X085292Y058932D01*
X085284Y058907D01*
Y059889D01*
X085292Y059877D01*
D02*
G37*
G36*
X078811D02*
X078834Y059866D01*
X078874Y059856D01*
X078929Y059847D01*
X079086Y059834D01*
X079441Y059824D01*
X07959Y059824D01*
Y059036D01*
X079441Y059035D01*
X079Y059004D01*
X078929Y05899D01*
X078874Y058973D01*
X078834Y058954D01*
X078811Y058932D01*
X078803Y058907D01*
Y059889D01*
X078811Y059877D01*
D02*
G37*
G36*
X08759Y06263D02*
X08712Y06216D01*
Y06215D01*
X08632D01*
X08586Y06261D01*
Y06363D01*
X08759D01*
Y06263D01*
D02*
G37*
G36*
X063202Y066373D02*
X063198Y066358D01*
X063194Y066336D01*
X06319Y066308D01*
X063183Y066182D01*
X063181Y065997D01*
X062393D01*
X062393Y066066D01*
X062377Y066358D01*
X062372Y066373D01*
X062367Y066382D01*
X063207D01*
X063202Y066373D01*
D02*
G37*
G36*
X056714D02*
X056709Y066358D01*
X056705Y066336D01*
X056702Y066308D01*
X056695Y066182D01*
X056692Y065997D01*
X055905D01*
X055905Y066066D01*
X055888Y066358D01*
X055884Y066373D01*
X055879Y066382D01*
X056719D01*
X056714Y066373D01*
D02*
G37*
G36*
X050177Y066335D02*
X050169Y066325D01*
X050161Y066309D01*
X050155Y066286D01*
X050149Y066257D01*
X050145Y066221D01*
X050138Y06613D01*
X050134Y065945D01*
X049346Y066069D01*
X049343Y066433D01*
X050177Y066335D01*
D02*
G37*
G36*
X069691Y066373D02*
X069686Y066358D01*
X069682Y066336D01*
X069679Y066308D01*
X069672Y066182D01*
X069669Y065997D01*
X068882D01*
X068882Y066066D01*
X068865Y066358D01*
X068861Y066373D01*
X068856Y066382D01*
X069696D01*
X069691Y066373D01*
D02*
G37*
G36*
X089156D02*
X089152Y066358D01*
X089148Y066336D01*
X089145Y066308D01*
X089137Y066182D01*
X089135Y065997D01*
X088348D01*
X088347Y066066D01*
X088331Y066358D01*
X088326Y066373D01*
X088321Y066382D01*
X089161D01*
X089156Y066373D01*
D02*
G37*
G36*
X082668D02*
X082663Y066358D01*
X082659Y066336D01*
X082656Y066308D01*
X082649Y066182D01*
X082647Y065997D01*
X081859D01*
X081859Y066066D01*
X081842Y066358D01*
X081838Y066373D01*
X081833Y066382D01*
X082673D01*
X082668Y066373D01*
D02*
G37*
G36*
X076179D02*
X076175Y066358D01*
X076171Y066336D01*
X076167Y066308D01*
X07616Y066182D01*
X076158Y065997D01*
X075371D01*
X07537Y066066D01*
X075354Y066358D01*
X075349Y066373D01*
X075344Y066382D01*
X076184D01*
X076179Y066373D01*
D02*
G37*
G36*
X06167Y06267D02*
X0612Y0622D01*
Y06219D01*
X0604D01*
X05994Y06265D01*
Y06367D01*
X06167D01*
Y06267D01*
D02*
G37*
G36*
X10053Y06266D02*
X10006Y06219D01*
Y06218D01*
X09926D01*
X0988Y06264D01*
Y06366D01*
X10053D01*
Y06266D01*
D02*
G37*
G36*
X07464Y06264D02*
X07417Y06217D01*
Y06216D01*
X07337D01*
X07291Y06262D01*
Y06364D01*
X07464D01*
Y06264D01*
D02*
G37*
G36*
X06816Y06443D02*
X06769Y06396D01*
Y06395D01*
X06689D01*
X06643Y06441D01*
Y06543D01*
X06816D01*
Y06443D01*
D02*
G37*
G36*
X08106Y06445D02*
X08059Y06398D01*
Y06397D01*
X07979D01*
X07933Y06443D01*
Y06545D01*
X08106D01*
Y06445D01*
D02*
G37*
G36*
X05514D02*
X05467Y06398D01*
Y06397D01*
X05387D01*
X05341Y06443D01*
Y06545D01*
X05514D01*
Y06445D01*
D02*
G37*
G36*
X09408Y06444D02*
X09361Y06397D01*
Y06396D01*
X09281D01*
X09235Y06442D01*
Y06544D01*
X09408D01*
Y06444D01*
D02*
G37*
G36*
X106036Y075699D02*
X106063Y075684D01*
X106094Y075671D01*
X106128Y075659D01*
X106166Y07565D01*
X106208Y075642D01*
X106254Y075635D01*
X106356Y075628D01*
X106413Y075627D01*
Y075313D01*
X106356Y075312D01*
X106254Y075305D01*
X106208Y075298D01*
X106166Y07529D01*
X106128Y075281D01*
X106094Y075269D01*
X106063Y075256D01*
X106036Y075241D01*
X106013Y075224D01*
Y075716D01*
X106036Y075699D01*
D02*
G37*
G36*
X07709Y09143D02*
Y09041D01*
X07536D01*
Y09141D01*
X07583Y09188D01*
Y09189D01*
X07663D01*
X07709Y09143D01*
D02*
G37*
G36*
X074434Y089844D02*
X074451Y089552D01*
X074455Y089537D01*
X07446Y089528D01*
X07362D01*
X073625Y089537D01*
X073629Y089552D01*
X073633Y089574D01*
X073637Y089602D01*
X073644Y089728D01*
X073646Y089913D01*
X074434D01*
X074434Y089844D01*
D02*
G37*
G36*
X067951D02*
X067967Y089552D01*
X067972Y089537D01*
X067977Y089528D01*
X067137D01*
X067142Y089537D01*
X067146Y089552D01*
X06715Y089574D01*
X067153Y089602D01*
X067161Y089728D01*
X067163Y089913D01*
X06795D01*
X067951Y089844D01*
D02*
G37*
G36*
X08994Y09145D02*
Y09043D01*
X08821D01*
Y09143D01*
X08868Y0919D01*
Y09191D01*
X08948D01*
X08994Y09145D01*
D02*
G37*
G36*
X05756Y09344D02*
Y09242D01*
X05583D01*
Y09342D01*
X0563Y09389D01*
Y0939D01*
X0571D01*
X05756Y09344D01*
D02*
G37*
G36*
X05105Y09154D02*
Y09052D01*
X04932D01*
Y09152D01*
X04979Y09199D01*
Y092D01*
X05059D01*
X05105Y09154D01*
D02*
G37*
G36*
X06392Y09151D02*
Y09049D01*
X06219D01*
Y09149D01*
X06266Y09196D01*
Y09197D01*
X06346D01*
X06392Y09151D01*
D02*
G37*
G36*
X087457Y089814D02*
X087474Y089522D01*
X087478Y089507D01*
X087483Y089498D01*
X086643D01*
X086648Y089507D01*
X086653Y089522D01*
X086657Y089544D01*
X08666Y089572D01*
X086667Y089698D01*
X08667Y089883D01*
X087457D01*
X087457Y089814D01*
D02*
G37*
G36*
X080974D02*
X080991Y089522D01*
X080995Y089507D01*
X081Y089498D01*
X08016D01*
X080165Y089507D01*
X080169Y089522D01*
X080173Y089544D01*
X080177Y089572D01*
X080184Y089698D01*
X080186Y089883D01*
X080974D01*
X080974Y089814D01*
D02*
G37*
G36*
X105849Y084718D02*
X105852Y084683D01*
X105857Y084652D01*
X105864Y084625D01*
X105873Y084602D01*
X105884Y084584D01*
X105896Y084569D01*
X105911Y084559D01*
X105928Y084553D01*
X105947Y084551D01*
X105554D01*
X105572Y084553D01*
X105589Y084559D01*
X105604Y084569D01*
X105616Y084584D01*
X105627Y084602D01*
X105636Y084625D01*
X105643Y084652D01*
X105648Y084683D01*
X105651Y084718D01*
X105652Y084757D01*
X105848D01*
X105849Y084718D01*
D02*
G37*
G36*
X093941Y089814D02*
X093957Y089522D01*
X093962Y089507D01*
X093967Y089498D01*
X093127D01*
X093132Y089507D01*
X093136Y089522D01*
X09314Y089544D01*
X093143Y089572D01*
X093151Y089698D01*
X093153Y089883D01*
X09394D01*
X093941Y089814D01*
D02*
G37*
G36*
X061467Y089844D02*
X061484Y089552D01*
X061488Y089537D01*
X061493Y089528D01*
X060653D01*
X060658Y089537D01*
X060663Y089552D01*
X060667Y089574D01*
X06067Y089602D01*
X060677Y089728D01*
X06068Y089913D01*
X061467D01*
X061467Y089844D01*
D02*
G37*
G36*
X054984D02*
X055001Y089552D01*
X055005Y089537D01*
X05501Y089528D01*
X05417D01*
X054175Y089537D01*
X054179Y089552D01*
X054183Y089574D01*
X054187Y089602D01*
X054194Y089728D01*
X054196Y089913D01*
X054984D01*
X054984Y089844D01*
D02*
G37*
G36*
X100424Y089814D02*
X100441Y089522D01*
X100445Y089507D01*
X10045Y089498D01*
X09961D01*
X099615Y089507D01*
X099619Y089522D01*
X099623Y089544D01*
X099627Y089572D01*
X099634Y089698D01*
X099636Y089883D01*
X100424D01*
X100424Y089814D01*
D02*
G37*
G36*
X07044Y09344D02*
Y09242D01*
X06871D01*
Y09342D01*
X06918Y09389D01*
Y0939D01*
X06998D01*
X07044Y09344D01*
D02*
G37*
G36*
X086705Y094943D02*
X086713Y09491D01*
X086734Y094866D01*
X086769Y094812D01*
X086818Y094747D01*
X086957Y094585D01*
X087268Y094261D01*
X086785Y093631D01*
X086667Y093747D01*
X086245Y094118D01*
X086194Y094151D01*
X086153Y094169D01*
X086124Y094173D01*
X086106Y094164D01*
X08671Y094965D01*
X086705Y094943D01*
D02*
G37*
G36*
X067179Y094972D02*
X067184Y094936D01*
X067205Y094889D01*
X067239Y094831D01*
X067288Y094763D01*
X067351Y094684D01*
X067519Y094494D01*
X067745Y094261D01*
X067278Y093614D01*
X067154Y093737D01*
X066703Y094124D01*
X066648Y094157D01*
X066603Y094174D01*
X066571Y094176D01*
X066549Y094164D01*
X067187Y094998D01*
X067179Y094972D01*
D02*
G37*
G36*
X060695D02*
X060701Y094936D01*
X060721Y094889D01*
X060756Y094831D01*
X060804Y094763D01*
X060867Y094684D01*
X061036Y094494D01*
X061262Y094261D01*
X060795Y093614D01*
X06067Y093737D01*
X06022Y094124D01*
X060164Y094157D01*
X06012Y094174D01*
X060087Y094176D01*
X060066Y094164D01*
X060704Y094998D01*
X060695Y094972D01*
D02*
G37*
G36*
X08026Y094883D02*
X080272Y094858D01*
X080296Y094821D01*
X080333Y094774D01*
X080445Y094647D01*
X080818Y094261D01*
X080302Y093664D01*
X080198Y093767D01*
X079757Y094158D01*
X079735Y094167D01*
X079723Y094164D01*
X08026Y094898D01*
X08026Y094883D01*
D02*
G37*
G36*
X090408Y096131D02*
X0904Y096151D01*
X090376Y096169D01*
X090337Y096185D01*
X090282Y096198D01*
X090211Y09621D01*
X090124Y096219D01*
X08977Y096235D01*
X089621Y096236D01*
Y097024D01*
X08977Y097025D01*
X090282Y097056D01*
X090337Y097067D01*
X090376Y097081D01*
X0904Y097096D01*
X090408Y097113D01*
Y096131D01*
D02*
G37*
G36*
X064435D02*
X064427Y096151D01*
X064403Y096169D01*
X064364Y096185D01*
X064309Y096198D01*
X064238Y09621D01*
X064151Y096219D01*
X063797Y096235D01*
X063647Y096236D01*
Y097024D01*
X063797Y097025D01*
X064309Y097056D01*
X064364Y097067D01*
X064403Y097081D01*
X064427Y097096D01*
X064435Y097113D01*
Y096131D01*
D02*
G37*
G36*
X051468D02*
X05146Y096149D01*
X051436Y096166D01*
X051397Y09618D01*
X051342Y096193D01*
X051271Y096204D01*
X051082Y096219D01*
X050681Y096228D01*
Y097016D01*
X05083Y097016D01*
X051342Y097051D01*
X051397Y097063D01*
X051436Y097078D01*
X05146Y097094D01*
X051468Y097113D01*
Y096131D01*
D02*
G37*
G36*
X08353Y09348D02*
Y09246D01*
X0818D01*
Y09346D01*
X08227Y09393D01*
Y09394D01*
X08307D01*
X08353Y09348D01*
D02*
G37*
G36*
X09643Y09348D02*
Y09246D01*
X0947D01*
Y09346D01*
X09517Y09393D01*
Y09394D01*
X09597D01*
X09643Y09348D01*
D02*
G37*
G36*
X1021Y09245D02*
X10108D01*
Y09424D01*
X1021D01*
Y09245D01*
D02*
G37*
G36*
X05421Y094904D02*
X054215Y094869D01*
X054234Y094823D01*
X054268Y094765D01*
X054317Y094697D01*
X05438Y094618D01*
X05455Y094426D01*
X054778Y094191D01*
X05425Y093606D01*
X054125Y093728D01*
X053672Y094119D01*
X053615Y094152D01*
X05357Y094171D01*
X053536Y094175D01*
X053513Y094164D01*
X05422Y094928D01*
X05421Y094904D01*
D02*
G37*
G36*
X099594Y095061D02*
X099593Y095015D01*
X099609Y094957D01*
X09964Y094889D01*
X099688Y094811D01*
X099752Y094722D01*
X099832Y094622D01*
X10004Y094392D01*
X100168Y094261D01*
X09971Y093606D01*
X099573Y09374D01*
X099233Y094038D01*
X099144Y094102D01*
X099066Y094149D01*
X099Y094179D01*
X098946Y094191D01*
X098903Y094186D01*
X098873Y094164D01*
X09961Y095098D01*
X099594Y095061D01*
D02*
G37*
G36*
X093147Y094922D02*
X093149Y094883D01*
X093167Y094834D01*
X0932Y094774D01*
X093248Y094702D01*
X093311Y09462D01*
X093484Y094421D01*
X093718Y094179D01*
X093178Y093606D01*
X09305Y093731D01*
X092652Y094078D01*
X09258Y094126D01*
X09252Y094159D01*
X092471Y094176D01*
X092434Y094178D01*
X092407Y094164D01*
X09316Y094949D01*
X093147Y094922D01*
D02*
G37*
G36*
X07366Y094892D02*
X073665Y094857D01*
X073684Y094811D01*
X073717Y094754D01*
X073766Y094686D01*
X073829Y094606D01*
X073999Y094415D01*
X074228Y094179D01*
X073688Y093606D01*
X073563Y093728D01*
X07311Y094118D01*
X073054Y094152D01*
X073008Y094171D01*
X072974Y094174D01*
X072951Y094164D01*
X07367Y094916D01*
X07366Y094892D01*
D02*
G37*
G36*
X104382Y084081D02*
X104379Y084095D01*
X104372Y084107D01*
X104361Y084119D01*
X104347Y084128D01*
X10433Y084136D01*
X104309Y084143D01*
X104284Y084148D01*
X104256Y084152D01*
X104225Y084154D01*
X10419Y084155D01*
X104174Y084305D01*
X104209Y084306D01*
X104266Y084312D01*
X104289Y084317D01*
X104308Y084324D01*
X104323Y084332D01*
X104335Y084341D01*
X104342Y084353D01*
X104346Y084365D01*
X104346Y084379D01*
X104382Y084081D01*
D02*
G37*
G36*
X104396Y082074D02*
X104393Y082092D01*
X104386Y082109D01*
X104373Y082124D01*
X104355Y082136D01*
X104332Y082147D01*
X104304Y082156D01*
X104271Y082163D01*
X104233Y082168D01*
X104189Y082171D01*
X104141Y082172D01*
Y082368D01*
X104189Y082369D01*
X104271Y082377D01*
X104304Y082384D01*
X104332Y082393D01*
X104355Y082404D01*
X104373Y082416D01*
X104386Y082431D01*
X104393Y082448D01*
X104396Y082466D01*
Y082074D01*
D02*
G37*
G36*
X106071Y082492D02*
X106099Y082476D01*
X10613Y082463D01*
X106165Y082451D01*
X106204Y082441D01*
X106246Y082432D01*
X106291Y082426D01*
X106393Y082418D01*
X10645Y082417D01*
Y082103D01*
X106393Y082102D01*
X106291Y082094D01*
X106246Y082088D01*
X106204Y082079D01*
X106165Y082069D01*
X10613Y082057D01*
X106099Y082044D01*
X106071Y082028D01*
X106047Y08201D01*
Y08251D01*
X106071Y082492D01*
D02*
G37*
G36*
X061232Y082208D02*
X061198Y08217D01*
X061173Y082136D01*
X061159Y082106D01*
X061155Y08208D01*
X061161Y082058D01*
X061178Y082039D01*
X061205Y082025D01*
X061242Y082015D01*
X061289Y082009D01*
X061347Y082007D01*
X061167Y081972D01*
Y081693D01*
X060716Y081691D01*
Y081882D01*
X060557Y08185D01*
X060013Y082075D01*
X060102Y082078D01*
X060188Y082088D01*
X060272Y082104D01*
X060352Y082126D01*
X060431Y082155D01*
X060506Y08219D01*
X060579Y082231D01*
X060649Y082279D01*
X060717Y082333D01*
X060782Y082393D01*
X061232Y082208D01*
D02*
G37*
G36*
X105482Y082635D02*
X105531Y082595D01*
X105553Y08258D01*
X105574Y082568D01*
X105594Y082559D01*
X105613Y082554D01*
X105631Y082553D01*
X105647Y082554D01*
X105662Y082559D01*
X105596Y082529D01*
X105683Y082452D01*
X105704Y082437D01*
X105723Y082426D01*
X105738Y08242D01*
X10575Y082417D01*
X105593Y08226D01*
X10559Y082272D01*
X105584Y082287D01*
X105573Y082306D01*
X105558Y082327D01*
X105538Y082353D01*
X105487Y082413D01*
X105442Y082459D01*
X105372Y082426D01*
X105384Y082434D01*
X105393Y082444D01*
X105397Y082455D01*
X105397Y082468D01*
X105394Y082484D01*
X105386Y082501D01*
X105374Y08252D01*
X105358Y082541D01*
X105339Y082564D01*
X105315Y082589D01*
X105456Y082661D01*
X105482Y082635D01*
D02*
G37*
G36*
X087433Y08379D02*
X087389Y083739D01*
X087349Y083687D01*
X087315Y083636D01*
X087286Y083585D01*
X087263Y083534D01*
X087244Y083483D01*
X087231Y083432D01*
X087223Y083382D01*
X087221Y083331D01*
X086906D01*
X086903Y083382D01*
X086895Y083432D01*
X086882Y083483D01*
X086864Y083534D01*
X08684Y083585D01*
X086811Y083636D01*
X086777Y083687D01*
X086738Y083739D01*
X086693Y08379D01*
X086643Y083842D01*
X087483D01*
X087433Y08379D01*
D02*
G37*
G36*
X106129Y083415D02*
X106135Y083403D01*
X106145Y083391D01*
X106159Y083382D01*
X106176Y083374D01*
X106196Y083367D01*
X10622Y083362D01*
X106248Y083358D01*
X106279Y083356D01*
X106313Y083355D01*
X106325Y083205D01*
X10629Y083204D01*
X106232Y083198D01*
X106209Y083193D01*
X10619Y083186D01*
X106174Y083178D01*
X106162Y083169D01*
X106154Y083157D01*
X106149Y083145D01*
X106148Y083131D01*
X106126Y083429D01*
X106129Y083415D01*
D02*
G37*
G36*
X104362Y083111D02*
X104361Y083125D01*
X104355Y083137D01*
X104346Y083149D01*
X104333Y083158D01*
X104317Y083166D01*
X104297Y083173D01*
X104273Y083178D01*
X104246Y083182D01*
X104215Y083184D01*
X104181Y083185D01*
Y083335D01*
X104215Y083336D01*
X104273Y083342D01*
X104297Y083347D01*
X104317Y083354D01*
X104333Y083362D01*
X104346Y083371D01*
X104355Y083383D01*
X104361Y083395D01*
X104362Y083409D01*
Y083111D01*
D02*
G37*
G36*
X105826Y078886D02*
X105828Y078859D01*
X105832Y078836D01*
X105837Y078815D01*
X105844Y078798D01*
X105852Y078784D01*
X105862Y078773D01*
X105873Y078765D01*
X105886Y078761D01*
X1059Y078759D01*
X1056D01*
X105614Y078761D01*
X105627Y078765D01*
X105638Y078773D01*
X105648Y078784D01*
X105656Y078798D01*
X105663Y078815D01*
X105668Y078836D01*
X105672Y078859D01*
X105674Y078886D01*
X105675Y078916D01*
X105825D01*
X105826Y078886D01*
D02*
G37*
G36*
X106102Y077605D02*
X106108Y077593D01*
X106117Y077581D01*
X10613Y077572D01*
X106146Y077564D01*
X106166Y077557D01*
X10619Y077552D01*
X106217Y077548D01*
X106248Y077546D01*
X106283Y077545D01*
Y077395D01*
X106248Y077394D01*
X10619Y077388D01*
X106166Y077383D01*
X106146Y077376D01*
X10613Y077368D01*
X106117Y077359D01*
X106108Y077347D01*
X106102Y077335D01*
X106101Y077321D01*
Y077619D01*
X106102Y077605D01*
D02*
G37*
G36*
Y076605D02*
X106108Y076593D01*
X106117Y076581D01*
X10613Y076572D01*
X106146Y076564D01*
X106166Y076557D01*
X10619Y076552D01*
X106217Y076548D01*
X106248Y076546D01*
X106283Y076545D01*
Y076395D01*
X106248Y076394D01*
X10619Y076388D01*
X106166Y076383D01*
X106146Y076376D01*
X10613Y076368D01*
X106117Y076359D01*
X106108Y076347D01*
X106102Y076335D01*
X106101Y076321D01*
Y076619D01*
X106102Y076605D01*
D02*
G37*
G36*
X076899Y081626D02*
X076898Y08159D01*
X076897Y081179D01*
X076583D01*
X076581Y081631D01*
X076899D01*
X076899Y081626D01*
D02*
G37*
G36*
X067716Y082601D02*
X067723Y082541D01*
X067734Y082483D01*
X06775Y082426D01*
X06777Y082372D01*
X067794Y082319D01*
X067823Y082268D01*
X067857Y082219D01*
X067895Y082171D01*
X067937Y082126D01*
Y08168D01*
X067857Y081759D01*
X06777Y081839D01*
X06775Y081856D01*
X067734Y081867D01*
X067723Y081873D01*
X067716Y081874D01*
X067714Y08187D01*
X067399Y082283D01*
X067714Y082664D01*
X067716Y082601D01*
D02*
G37*
G36*
X074268Y081978D02*
X074294Y081952D01*
X074583Y081661D01*
X07436Y081439D01*
X07404Y081757D01*
X074265Y081982D01*
X074268Y081978D01*
D02*
G37*
G36*
X054438Y081817D02*
X054464Y08179D01*
X054753Y0815D01*
X05453Y081277D01*
X05421Y081595D01*
X054435Y08182D01*
X054438Y081817D01*
D02*
G37*
G36*
X093917Y08379D02*
X093872Y083739D01*
X093833Y083687D01*
X093799Y083636D01*
X09377Y083585D01*
X093746Y083534D01*
X093728Y083483D01*
X093715Y083432D01*
X093707Y083382D01*
X093704Y083331D01*
X093389D01*
X093387Y083382D01*
X093379Y083432D01*
X093366Y083483D01*
X093347Y083534D01*
X093324Y083585D01*
X093295Y083636D01*
X093261Y083687D01*
X093221Y083739D01*
X093177Y08379D01*
X093127Y083842D01*
X093967D01*
X093917Y08379D01*
D02*
G37*
G36*
X058738Y084188D02*
X05875Y083986D01*
X058756Y083952D01*
X058763Y083926D01*
X05877Y083907D01*
X058779Y083894D01*
X058789Y083889D01*
X058097Y083466D01*
X05795Y084161D01*
X058737Y084257D01*
X058738Y084188D01*
D02*
G37*
G36*
X084745Y084157D02*
X084758Y083953D01*
X084764Y08392D01*
X084771Y083893D01*
X084779Y083873D01*
X084788Y083861D01*
X084798Y083855D01*
X08409Y083448D01*
X083957Y084142D01*
X084744Y084225D01*
X084745Y084157D01*
D02*
G37*
G36*
X091195Y08416D02*
X091212Y083925D01*
X091218Y083899D01*
X091225Y083879D01*
X091233Y083867D01*
X091242Y083862D01*
X090567Y083424D01*
X090407Y08412D01*
X091194Y084228D01*
X091195Y08416D01*
D02*
G37*
G36*
X052255Y084188D02*
X052267Y083986D01*
X052273Y083952D01*
X052279Y083926D01*
X052287Y083907D01*
X052296Y083894D01*
X052306Y083889D01*
X051613Y083466D01*
X051467Y084161D01*
X052254Y084257D01*
X052255Y084188D01*
D02*
G37*
G36*
X078295Y084151D02*
X078309Y083947D01*
X078315Y083913D01*
X078322Y083886D01*
X078331Y083865D01*
X078341Y083852D01*
X078352Y083845D01*
X077615Y083471D01*
X077507Y084161D01*
X078294Y084219D01*
X078295Y084151D01*
D02*
G37*
G36*
X071705Y084188D02*
X071717Y083986D01*
X071723Y083952D01*
X071729Y083926D01*
X071737Y083907D01*
X071746Y083894D01*
X071756Y083889D01*
X071063Y083466D01*
X070917Y084161D01*
X071704Y084257D01*
X071705Y084188D01*
D02*
G37*
G36*
X065221D02*
X065234Y083986D01*
X065239Y083952D01*
X065246Y083926D01*
X065254Y083907D01*
X065262Y083894D01*
X065272Y083889D01*
X06458Y083466D01*
X064433Y084161D01*
X065221Y084257D01*
X065221Y084188D01*
D02*
G37*
G36*
X067927Y08382D02*
X067882Y083769D01*
X067843Y083717D01*
X067809Y083666D01*
X06778Y083615D01*
X067756Y083564D01*
X067738Y083513D01*
X067725Y083462D01*
X067717Y083412D01*
X067714Y083361D01*
X067399D01*
X067397Y083412D01*
X067389Y083462D01*
X067376Y083513D01*
X067357Y083564D01*
X067334Y083615D01*
X067305Y083666D01*
X067271Y083717D01*
X067231Y083769D01*
X067187Y08382D01*
X067137Y083872D01*
X067977D01*
X067927Y08382D01*
D02*
G37*
G36*
X080963Y083802D02*
X08093Y083761D01*
X080901Y083717D01*
X080875Y083672D01*
X080854Y083624D01*
X080836Y083574D01*
X080823Y083522D01*
X080813Y083468D01*
X080807Y083412D01*
X080805Y083354D01*
X080355D01*
X080353Y083412D01*
X080347Y083468D01*
X080337Y083522D01*
X080324Y083574D01*
X080306Y083624D01*
X080285Y083672D01*
X080259Y083717D01*
X08023Y083761D01*
X080197Y083802D01*
X08016Y083842D01*
X081D01*
X080963Y083802D01*
D02*
G37*
G36*
X1004Y08379D02*
X100355Y083739D01*
X100316Y083687D01*
X100282Y083636D01*
X100253Y083585D01*
X100229Y083534D01*
X100211Y083483D01*
X100198Y083432D01*
X10019Y083382D01*
X100187Y083331D01*
X099873D01*
X09987Y083382D01*
X099862Y083432D01*
X099849Y083483D01*
X099831Y083534D01*
X099807Y083585D01*
X099778Y083636D01*
X099744Y083687D01*
X099705Y083739D01*
X09966Y08379D01*
X09961Y083842D01*
X10045D01*
X1004Y08379D01*
D02*
G37*
G36*
X054973Y083832D02*
X05494Y083791D01*
X054911Y083747D01*
X054885Y083702D01*
X054864Y083654D01*
X054846Y083604D01*
X054833Y083552D01*
X054823Y083498D01*
X054817Y083442D01*
X054815Y083384D01*
X054365D01*
X054363Y083442D01*
X054357Y083498D01*
X054347Y083552D01*
X054334Y083604D01*
X054316Y083654D01*
X054295Y083702D01*
X054269Y083747D01*
X05424Y083791D01*
X054207Y083832D01*
X05417Y083872D01*
X05501D01*
X054973Y083832D01*
D02*
G37*
G36*
X097645Y084162D02*
X097659Y083927D01*
X097664Y083902D01*
X09767Y083883D01*
X097677Y083872D01*
X097684Y083868D01*
X097044Y083398D01*
X096857Y084095D01*
X097644Y08423D01*
X097645Y084162D01*
D02*
G37*
G36*
X074423Y083832D02*
X07439Y083791D01*
X074361Y083747D01*
X074335Y083702D01*
X074314Y083654D01*
X074296Y083604D01*
X074283Y083552D01*
X074273Y083498D01*
X074267Y083442D01*
X074265Y083384D01*
X073815D01*
X073813Y083442D01*
X073807Y083498D01*
X073797Y083552D01*
X073784Y083604D01*
X073766Y083654D01*
X073745Y083702D01*
X073719Y083747D01*
X07369Y083791D01*
X073657Y083832D01*
X07362Y083872D01*
X07446D01*
X074423Y083832D01*
D02*
G37*
G36*
X061456D02*
X061423Y083791D01*
X061394Y083747D01*
X061369Y083702D01*
X061347Y083654D01*
X06133Y083604D01*
X061316Y083552D01*
X061306Y083498D01*
X0613Y083442D01*
X061298Y083384D01*
X060848D01*
X060846Y083442D01*
X060841Y083498D01*
X060831Y083552D01*
X060817Y083604D01*
X0608Y083654D01*
X060778Y083702D01*
X060753Y083747D01*
X060724Y083791D01*
X06069Y083832D01*
X060653Y083872D01*
X061493D01*
X061456Y083832D01*
D02*
G37*
D20*
X04769Y07992D02*
X0484D01*
X04742Y07692D02*
Y07965D01*
X04769Y07992D01*
D21*
X10575Y07847D02*
Y07928D01*
X1047Y07984D02*
X10519D01*
X10575Y07928D01*
X10714Y07694D02*
Y08058D01*
X10667Y07647D02*
X10714Y07694D01*
X10676Y0777D02*
Y0804D01*
X10653Y07747D02*
X10676Y0777D01*
X10294Y08326D02*
X10475D01*
X10293Y08325D02*
X10294Y08326D01*
X10472Y08423D02*
X10475Y08426D01*
X10352Y08423D02*
X10472D01*
X10349Y08274D02*
X10369D01*
X1037Y08275D01*
X10526D01*
X10575Y08226D01*
X10575Y08326D02*
X10577Y08328D01*
X10687D01*
X09871Y07989D02*
X09909Y08027D01*
X09871Y07823D02*
Y07989D01*
X09839Y07791D02*
X09871Y07823D01*
X09712Y07791D02*
X09839D01*
X10575Y07647D02*
X10667D01*
X10575Y07747D02*
X10653D01*
X04995Y07762D02*
Y0798D01*
X04974Y07741D02*
X04995Y07762D01*
X04894Y07741D02*
X04974D01*
X04995Y0798D02*
X05049Y08034D01*
X05022Y0754D02*
Y07961D01*
Y0754D02*
X05057Y07505D01*
X09934Y07836D02*
Y07965D01*
X09839Y07741D02*
X09934Y07836D01*
X09519Y07741D02*
X09839D01*
X09934Y07965D02*
X09962Y07993D01*
X09681Y07951D02*
Y08043D01*
X09644Y07912D02*
Y0807D01*
X09681Y07951D02*
X0969Y07942D01*
X09713D01*
X09665Y07891D02*
X09714D01*
X09644Y07912D02*
X09665Y07891D01*
X05049Y08034D02*
X05359D01*
X10185Y0764D02*
X10187D01*
X10049Y07504D02*
X10185Y0764D01*
X05359Y08034D02*
X05555Y07838D01*
Y07727D02*
Y07838D01*
X08864Y07861D02*
X08893D01*
X08663Y0766D02*
X08864Y07861D01*
X08598Y0766D02*
X08663D01*
X08952Y07504D02*
X10049D01*
X08792Y07664D02*
X08952Y07504D01*
X08792Y07664D02*
Y07715D01*
X08994Y0754D02*
X10008D01*
X08893Y07641D02*
X08994Y0754D01*
X08893Y07641D02*
Y07736D01*
X05555Y0806D02*
X055557Y080593D01*
X063277D02*
X06409Y07978D01*
X055557Y080593D02*
X063277D01*
X05654Y08034D02*
X06306D01*
X05652Y08032D02*
X05654Y08034D01*
X06306D02*
X06392Y07948D01*
X062855Y08006D02*
X063763Y079153D01*
X05755Y08006D02*
X062855D01*
X06409Y07978D02*
X06426D01*
X08622Y07925D02*
X087667Y080697D01*
X06179Y07593D02*
Y0773D01*
X06128Y07542D02*
X06179Y07593D01*
X05078Y07542D02*
X06128D01*
X05051Y07569D02*
X05078Y07542D01*
X05051Y07569D02*
Y07922D01*
X05088Y07597D02*
X05114Y07571D01*
X05088Y07597D02*
Y07891D01*
X051207Y076223D02*
X05143Y076D01*
X051207Y076223D02*
Y078417D01*
X05122Y07843D01*
X05143Y076D02*
X05962D01*
X05057Y07505D02*
X06206D01*
X05114Y07571D02*
X06074D01*
X055667Y077D02*
X05645D01*
X05659Y07714D02*
Y07728D01*
X05645Y077D02*
X05659Y07714D01*
X05856Y07668D02*
Y07728D01*
X05821Y07633D02*
X05856Y07668D01*
X05171Y07633D02*
X05821D01*
X05755Y07693D02*
Y0773D01*
X0573Y07668D02*
X05755Y07693D01*
X05203Y07668D02*
X0573D01*
X06206Y07505D02*
X06281Y0758D01*
X06074Y07571D02*
X06082Y07579D01*
X05962Y076D02*
X0598Y07618D01*
X05148Y07656D02*
X05171Y07633D01*
X05182Y07689D02*
Y0774D01*
Y07689D02*
X05203Y07668D01*
X055663Y076997D02*
X055667Y077D01*
X055437Y076997D02*
X055663D01*
X055433Y077D02*
X055437Y076997D01*
X05219Y077D02*
X055433D01*
X06281Y0758D02*
Y07729D01*
X063377Y077143D02*
X06426D01*
X06195Y07857D02*
X063377Y077143D01*
X06179Y07857D02*
X06195D01*
X05148Y07656D02*
Y07792D01*
X06082Y07579D02*
Y07729D01*
X0598Y07618D02*
Y0773D01*
X06358Y07744D02*
X06426D01*
X06183Y07919D02*
X06358Y07744D01*
X06081Y07919D02*
X06183D01*
X063768Y077772D02*
X064267D01*
X06207Y07947D02*
X063768Y077772D01*
X05979Y07947D02*
X06207D01*
X06392Y07948D02*
X06426D01*
X063452Y078838D02*
X06427D01*
X06254Y07975D02*
X063452Y078838D01*
X05854Y07975D02*
X06254D01*
X063763Y079153D02*
X06427D01*
X08596Y07692D02*
X086425D01*
X086427Y076917D01*
X08644Y0786D02*
X08789Y08005D01*
X08595Y0786D02*
X08644D01*
X08594Y07925D02*
X08622D01*
X08632Y07893D02*
X08778Y08039D01*
X0942D01*
X08594Y07893D02*
X08632D01*
X09317Y08005D02*
X09319Y08007D01*
X08789Y08005D02*
X09317D01*
X08665Y07827D02*
X08807Y07969D01*
X08595Y07827D02*
X08665D01*
X08807Y07969D02*
X09219D01*
X08835Y07938D02*
X09091D01*
X086202Y077232D02*
X08835Y07938D01*
X085942Y077232D02*
X086202D01*
X08845Y07894D02*
X08995D01*
X086427Y076917D02*
X08845Y07894D01*
X09091Y07938D02*
X09093Y07936D01*
X09319Y07696D02*
Y07738D01*
X09316Y07693D02*
X09319Y07696D01*
X10137Y07669D02*
Y07721D01*
X10008Y0754D02*
X10137Y07669D01*
X10112Y0769D02*
Y07758D01*
X09997Y07575D02*
X10112Y0769D01*
X09015Y07575D02*
X09997D01*
X08991Y07599D02*
X09015Y07575D01*
X09973Y07609D02*
X10076Y07712D01*
X09122Y07609D02*
X09973D01*
X09092Y07639D02*
X09122Y07609D01*
X09928Y07641D02*
X10043Y07756D01*
X09231Y07641D02*
X09928D01*
X09219Y07653D02*
X09231Y07641D01*
X09893Y07673D02*
X10004Y07784D01*
X09336Y07673D02*
X09893D01*
X09316Y07693D02*
X09336Y07673D01*
X08991Y07599D02*
Y07713D01*
X09219Y07653D02*
Y07713D01*
X09859Y07708D02*
X09965Y07814D01*
X09425Y07708D02*
X09859D01*
X09419Y07714D02*
X09425Y07708D01*
X09092Y07639D02*
Y07714D01*
X10076Y07712D02*
Y07792D01*
X10057Y07842D02*
X10073D01*
X10043Y07828D02*
X10057Y07842D01*
X10043Y07756D02*
Y07828D01*
X10004Y07868D02*
X10027Y07891D01*
X10004Y07784D02*
Y07868D01*
X09965Y07893D02*
X10013Y07941D01*
X09965Y07814D02*
Y07893D01*
X10027Y07891D02*
X10074D01*
X10013Y07941D02*
X10073D01*
X09962Y07993D02*
X10069D01*
X1007Y07992D01*
X10137Y07721D02*
X1014Y07724D01*
X10075Y07793D02*
X10076Y07792D01*
X05051Y07922D02*
X05072Y07943D01*
X05054Y07993D02*
X05088D01*
X05022Y07961D02*
X05054Y07993D01*
X05072Y07943D02*
X05088D01*
X09909Y08027D02*
X0991Y08026D01*
X10619D01*
X09644Y0807D02*
X09654Y0808D01*
X10692D01*
X10714Y08058D01*
X09681Y08043D02*
X09693Y08055D01*
X10661D01*
X10676Y0804D01*
X087667Y080697D02*
X095167D01*
X0952Y08073D01*
D22*
X10882Y07199D02*
Y07347D01*
X10575D02*
X10882D01*
Y0677D02*
Y07199D01*
X108822Y071992D02*
Y085538D01*
X10882Y07199D02*
X108822Y071992D01*
X10003Y07161D02*
X10084D01*
X101Y07145D01*
X10098Y07143D02*
X101Y07145D01*
X10373Y06879D02*
Y07962D01*
Y06879D02*
X10375Y06881D01*
X1057D01*
X10575Y06886D01*
Y06947D01*
X10753Y07147D02*
X10787Y07113D01*
Y06876D02*
Y07113D01*
X10575Y07147D02*
X10753D01*
X102794Y068586D02*
Y07138D01*
X06626Y07605D02*
X06929D01*
X04715Y08095D02*
X05395D01*
X04683Y08063D02*
X04715Y08095D01*
X06929Y07605D02*
X06984Y0766D01*
X05395Y08095D02*
X05693Y07797D01*
X06187D01*
X0623Y07754D01*
Y07651D02*
Y07754D01*
Y07651D02*
X06239Y07642D01*
X06984Y0766D02*
X07286D01*
X05018Y07411D02*
X05495D01*
X04981Y07161D02*
Y07411D01*
X06782Y07404D02*
X067913Y074133D01*
X0758Y07413D02*
X07587Y07406D01*
X0874Y07408D02*
X08741Y07407D01*
X0822Y07408D02*
X0874D01*
X0822D02*
X082253Y074027D01*
Y07161D02*
Y074027D01*
X10044Y07408D02*
X10045Y07409D01*
X09526Y07408D02*
X10044D01*
X09523Y07405D02*
X09526Y07408D01*
X09523Y07161D02*
Y07405D01*
X09395Y07406D02*
X09396Y07407D01*
X08873Y07406D02*
X09395D01*
X08873D02*
X088741Y074049D01*
Y07161D02*
Y074049D01*
X0809Y07406D02*
X08092Y07404D01*
X07587Y07406D02*
X0809D01*
X075764Y074094D02*
X0758Y07413D01*
X075764Y07161D02*
Y074094D01*
X06928Y07411D02*
X07438D01*
X069276Y074106D02*
X06928Y07411D01*
X069276Y07161D02*
Y074106D01*
X06294Y07404D02*
X06782D01*
X062787Y073887D02*
X06294Y07404D01*
X062787Y07161D02*
Y073887D01*
X05633Y07409D02*
X061376D01*
X056299Y074059D02*
X05633Y07409D01*
X056299Y07161D02*
Y074059D01*
X073898Y08184D02*
X07404Y081982D01*
Y0843D01*
X0689Y08184D02*
X073898D01*
X060557Y08185D02*
X061073Y082367D01*
X05588Y08185D02*
X060557D01*
X07674Y08179D02*
X08052D01*
X07547D02*
X07674D01*
X061073Y082367D02*
Y0843D01*
X04947Y08182D02*
X05421D01*
X05459Y08169D02*
Y0843D01*
X07539Y08175D02*
X07543D01*
X07547Y08179D01*
X08052D02*
X08058Y08185D01*
Y08427D01*
X10305Y08669D02*
X10767D01*
X108822Y085538D01*
X1015Y0812D02*
X10188Y08158D01*
Y08552D01*
X10305Y08669D01*
X09533Y081163D02*
X095367Y0812D01*
X1015D01*
X10098Y06943D02*
Y07143D01*
X102794Y068586D02*
X10325Y06813D01*
X10724D01*
X10787Y06876D01*
X04826Y06918D02*
Y07835D01*
X10098Y06943D02*
X102995Y067415D01*
X108535D01*
X10882Y0677D01*
X04683Y06921D02*
Y08063D01*
Y06921D02*
X04761Y06843D01*
X10575Y07247D02*
X10725D01*
D23*
X10716Y08226D02*
X10806Y08136D01*
Y07562D02*
Y08136D01*
X10791Y07547D02*
X10806Y07562D01*
X10575Y07547D02*
X10791D01*
X10575Y08226D02*
X10716D01*
X04956Y07792D02*
X0496Y07796D01*
Y08029D01*
X06621Y07814D02*
X0687D01*
X06216Y07409D02*
X06621Y07814D01*
X07186Y07559D02*
Y0757D01*
Y07559D02*
X07187Y07558D01*
X07123Y07494D02*
X07187Y07558D01*
X04897Y07421D02*
Y07551D01*
X04981Y07411D02*
X05018D01*
X04907D02*
X04981D01*
X04897Y07421D02*
X04907Y07411D01*
X061376Y07409D02*
X06216D01*
X067913Y074133D02*
X06872Y07494D01*
X07123D01*
X07934Y07595D02*
X08768D01*
X07529Y08D02*
X07934Y07595D01*
X07195Y08D02*
X07529D01*
X0787Y0754D02*
X08758D01*
X07455Y07955D02*
X0787Y0754D01*
X07188Y07955D02*
X07455D01*
X07805Y07491D02*
X08186D01*
X07394Y07902D02*
X07805Y07491D01*
X07191Y07902D02*
X07394D01*
X075764Y074094D02*
Y075896D01*
X07313Y07853D02*
X075764Y075896D01*
X0719Y07853D02*
X07313D01*
X07438Y07411D02*
Y07623D01*
X07257Y07804D02*
X07438Y07623D01*
X07195Y07804D02*
X07257D01*
X07189Y07854D02*
X0719Y07853D01*
X0822Y07408D02*
Y07457D01*
X08186Y07491D02*
X0822Y07457D01*
X08873Y07406D02*
Y07425D01*
X08758Y0754D02*
X08873Y07425D01*
X09523Y07405D02*
Y074328D01*
X09485Y074708D02*
X09523Y074328D01*
X088922Y074708D02*
X09485D01*
X08768Y07595D02*
X088922Y074708D01*
X07791Y08046D02*
X08015D01*
X08153Y08184D01*
X08191D01*
X07404Y081982D02*
X07469Y081332D01*
X06883Y08101D02*
X07373D01*
X07388Y08049D02*
Y08086D01*
X07373Y08101D02*
X07388Y08086D01*
X067557Y082283D02*
X06883Y08101D01*
X06495Y08052D02*
X07332D01*
X06403Y08144D02*
X06495Y08052D01*
X062011Y08144D02*
X06403D01*
X06364Y08099D02*
X06406Y08057D01*
X05504Y08099D02*
X06364D01*
X07332Y08052D02*
X07336Y08048D01*
X07469D02*
Y081332D01*
X067557Y08187D02*
Y082283D01*
X06238Y08187D02*
X067557D01*
X061601Y08185D02*
X062011Y08144D01*
X05421Y08182D02*
X05504Y08099D01*
X067557Y082283D02*
Y0843D01*
X060557Y08185D02*
X061601D01*
X07674Y08048D02*
Y08179D01*
X08217Y07903D02*
X08436Y08122D01*
X07981Y07903D02*
X08217D01*
X086905Y080575D02*
X087359Y081029D01*
X08594Y080575D02*
X086905D01*
X08674Y08122D02*
X08742Y0819D01*
X08436Y08122D02*
X08674D01*
X08742Y0819D02*
X09318D01*
X087063Y082233D02*
Y08427D01*
X08668Y08185D02*
X087063Y082233D01*
X08192Y08185D02*
X08668D01*
X08191Y08184D02*
X08192Y08185D01*
X09318Y0819D02*
X093547Y082267D01*
Y08427D01*
X07191Y08004D02*
X07195Y08D01*
X07978Y079D02*
X07981Y07903D01*
X10003Y08196D02*
Y08427D01*
X099892Y081822D02*
X10003Y08196D01*
X094902Y081822D02*
X099892D01*
X094089Y081029D02*
X09489Y08183D01*
X087359Y081029D02*
X094089D01*
X094798Y081718D02*
X094902Y081822D01*
D25*
X04761Y06843D02*
X04823D01*
D26*
X101672Y08978D02*
X10236Y089092D01*
X101672Y08978D02*
Y093778D01*
X104909Y089079D02*
X105274Y089444D01*
Y094653D01*
X10236Y089092D02*
X104895D01*
X103046Y059398D02*
Y061367D01*
X105015Y059398D02*
Y061367D01*
Y065365D01*
X104262Y066118D02*
X105015Y065365D01*
X101606Y066118D02*
X104262D01*
X09964Y06246D02*
X10034Y06316D01*
X10087D01*
Y065382D01*
X101606Y066118D01*
X103046Y061367D02*
Y064436D01*
X05015Y09101D02*
Y09556D01*
X05009Y09562D02*
X05015Y09556D01*
X103305Y090985D02*
Y094653D01*
Y096622D01*
X056598D02*
X058344D01*
X05659Y09663D02*
X056598Y096622D01*
X069548D02*
X07131D01*
X06954Y09663D02*
X069548Y096622D01*
X076188D02*
X0779D01*
X07618Y09663D02*
X076188Y096622D01*
X082638D02*
X08435D01*
X08263Y09663D02*
X082638Y096622D01*
X095538D02*
X09725D01*
X09553Y09663D02*
X095538Y096622D01*
X05666Y09291D02*
Y095468D01*
X05659Y095538D02*
X05666Y095468D01*
X104895Y089092D02*
X104909Y089079D01*
Y089079D02*
Y089079D01*
X105274Y094653D02*
Y096622D01*
X06304Y091D02*
Y09562D01*
X06302Y09098D02*
X06304Y091D01*
X08908Y09096D02*
Y09562D01*
X08904Y09092D02*
X08908Y09096D01*
X10167Y09378D02*
X101672Y093778D01*
D27*
X103305Y096622D02*
D03*
Y094653D02*
D03*
X105274D02*
D03*
Y096622D02*
D03*
X097855Y059398D02*
D03*
Y061367D02*
D03*
X095886D02*
D03*
Y059398D02*
D03*
X091373Y059398D02*
D03*
Y061367D02*
D03*
X089405D02*
D03*
Y059398D02*
D03*
X084892Y059398D02*
D03*
Y061367D02*
D03*
X082923D02*
D03*
Y059398D02*
D03*
X07841Y059398D02*
D03*
Y061367D02*
D03*
X076442D02*
D03*
Y059398D02*
D03*
X071929Y059398D02*
D03*
Y061367D02*
D03*
X06996D02*
D03*
Y059398D02*
D03*
X065448Y059398D02*
D03*
Y061367D02*
D03*
X063479D02*
D03*
Y059398D02*
D03*
X058966Y059398D02*
D03*
Y061367D02*
D03*
X056998D02*
D03*
Y059398D02*
D03*
X105015Y059398D02*
D03*
Y061367D02*
D03*
X103046D02*
D03*
Y059398D02*
D03*
X052485Y059398D02*
D03*
Y061367D02*
D03*
X050516D02*
D03*
Y059398D02*
D03*
X053829Y096622D02*
D03*
Y094653D02*
D03*
X05186D02*
D03*
Y096622D02*
D03*
X060312D02*
D03*
Y094653D02*
D03*
X058344D02*
D03*
Y096622D02*
D03*
X066796D02*
D03*
Y094653D02*
D03*
X064827D02*
D03*
Y096622D02*
D03*
X073279D02*
D03*
Y094653D02*
D03*
X07131D02*
D03*
Y096622D02*
D03*
X079869D02*
D03*
Y094653D02*
D03*
X0779D02*
D03*
Y096622D02*
D03*
X092769D02*
D03*
Y094653D02*
D03*
X0908D02*
D03*
Y096622D02*
D03*
X099219D02*
D03*
Y094653D02*
D03*
X09725D02*
D03*
Y096622D02*
D03*
X086319D02*
D03*
Y094653D02*
D03*
X08435D02*
D03*
Y096622D02*
D03*
D28*
X047177Y096195D02*
D03*
Y059825D02*
D03*
X108862Y059831D02*
D03*
Y096195D02*
D03*
D29*
X09964Y06044D02*
D03*
Y05943D02*
D03*
X093169Y06044D02*
D03*
Y05943D02*
D03*
X086697Y06044D02*
D03*
Y05943D02*
D03*
X080226Y06044D02*
D03*
Y05943D02*
D03*
X073754Y06044D02*
D03*
Y05943D02*
D03*
X067283Y06044D02*
D03*
Y05943D02*
D03*
X060811Y06044D02*
D03*
Y05943D02*
D03*
X05434Y06044D02*
D03*
Y05943D02*
D03*
X05009Y09663D02*
D03*
Y09562D02*
D03*
X05659Y09663D02*
D03*
Y09562D02*
D03*
X06304Y09663D02*
D03*
Y09562D02*
D03*
X06954Y09663D02*
D03*
Y09562D02*
D03*
X07618Y09663D02*
D03*
Y09562D02*
D03*
X08908Y09663D02*
D03*
Y09562D02*
D03*
X09553Y09663D02*
D03*
Y09562D02*
D03*
X08263Y09663D02*
D03*
Y09562D02*
D03*
D30*
X10575Y06947D02*
D03*
Y07047D02*
D03*
Y07147D02*
D03*
Y07247D02*
D03*
Y07347D02*
D03*
Y07447D02*
D03*
Y07547D02*
D03*
Y07647D02*
D03*
Y07747D02*
D03*
Y07847D02*
D03*
X10475Y07747D02*
D03*
Y07647D02*
D03*
Y07547D02*
D03*
Y07447D02*
D03*
Y07347D02*
D03*
Y07247D02*
D03*
Y07147D02*
D03*
Y07047D02*
D03*
Y06947D02*
D03*
D31*
Y07847D02*
D03*
D32*
X05459Y0843D02*
D03*
X04979Y0891D02*
D03*
X05219Y0833D02*
D03*
X05459Y0891D02*
D03*
X04979Y0843D02*
D03*
X061073D02*
D03*
X056273Y0891D02*
D03*
X058673Y0833D02*
D03*
X061073Y0891D02*
D03*
X056273Y0843D02*
D03*
X067557D02*
D03*
X062757Y0891D02*
D03*
X065157Y0833D02*
D03*
X067557Y0891D02*
D03*
X062757Y0843D02*
D03*
X07404D02*
D03*
X06924Y0891D02*
D03*
X07164Y0833D02*
D03*
X07404Y0891D02*
D03*
X06924Y0843D02*
D03*
X08058Y08427D02*
D03*
X07578Y08907D02*
D03*
X07818Y08327D02*
D03*
X08058Y08907D02*
D03*
X07578Y08427D02*
D03*
X087063D02*
D03*
X082263Y08907D02*
D03*
X084663Y08327D02*
D03*
X087063Y08907D02*
D03*
X082263Y08427D02*
D03*
X093547D02*
D03*
X088747Y08907D02*
D03*
X091147Y08327D02*
D03*
X093547Y08907D02*
D03*
X088747Y08427D02*
D03*
X10003D02*
D03*
X09523Y08907D02*
D03*
X09763Y08327D02*
D03*
X10003Y08907D02*
D03*
X09523Y08427D02*
D03*
X05461Y07161D02*
D03*
X04981Y06681D02*
D03*
X05221Y07261D02*
D03*
X05461Y06681D02*
D03*
X04981Y07161D02*
D03*
X061099D02*
D03*
X056299Y06681D02*
D03*
X058699Y07261D02*
D03*
X061099Y06681D02*
D03*
X056299Y07161D02*
D03*
X067587D02*
D03*
X062787Y06681D02*
D03*
X065187Y07261D02*
D03*
X067587Y06681D02*
D03*
X062787Y07161D02*
D03*
X074076D02*
D03*
X069276Y06681D02*
D03*
X071676Y07261D02*
D03*
X074076Y06681D02*
D03*
X069276Y07161D02*
D03*
X080564D02*
D03*
X075764Y06681D02*
D03*
X078164Y07261D02*
D03*
X080564Y06681D02*
D03*
X075764Y07161D02*
D03*
X087053D02*
D03*
X082253Y06681D02*
D03*
X084653Y07261D02*
D03*
X087053Y06681D02*
D03*
X082253Y07161D02*
D03*
X093541D02*
D03*
X088741Y06681D02*
D03*
X091141Y07261D02*
D03*
X093541Y06681D02*
D03*
X088741Y07161D02*
D03*
X10003D02*
D03*
X09523Y06681D02*
D03*
X09763Y07261D02*
D03*
X10003Y06681D02*
D03*
X09523Y07161D02*
D03*
D33*
X10475Y08426D02*
D03*
X10475Y08326D02*
D03*
X10475Y08227D02*
D03*
X10575Y08426D02*
D03*
Y08226D02*
D03*
X10575Y08326D02*
D03*
D34*
X10167Y09388D02*
D03*
Y09258D02*
D03*
X10168Y09327D02*
D03*
D35*
X0549Y06488D02*
D03*
X05431D02*
D03*
X05368D02*
D03*
X04823Y06843D02*
D03*
X06792Y06491D02*
D03*
X06733D02*
D03*
X0667D02*
D03*
X08082D02*
D03*
X08023D02*
D03*
X0796D02*
D03*
X09384D02*
D03*
X09325D02*
D03*
X09262D02*
D03*
X06143Y0631D02*
D03*
X06084D02*
D03*
X06021D02*
D03*
X0744D02*
D03*
X07381D02*
D03*
X07318D02*
D03*
X08735D02*
D03*
X08676D02*
D03*
X08613D02*
D03*
X10029D02*
D03*
X09907D02*
D03*
X0997D02*
D03*
X10334Y09095D02*
D03*
X05666Y09291D02*
D03*
X07619Y0909D02*
D03*
X06954Y09291D02*
D03*
X08262Y09294D02*
D03*
X05078Y09101D02*
D03*
X05015D02*
D03*
X04956D02*
D03*
X06365Y09098D02*
D03*
X06302D02*
D03*
X06243D02*
D03*
X07682Y0909D02*
D03*
X0756D02*
D03*
X08967Y09092D02*
D03*
X08904D02*
D03*
X08845D02*
D03*
X09616Y09295D02*
D03*
X09553D02*
D03*
X09494D02*
D03*
X08326Y09295D02*
D03*
X08263D02*
D03*
X08204D02*
D03*
X07017Y09291D02*
D03*
X06895D02*
D03*
X05729D02*
D03*
X05607D02*
D03*
X10332Y09096D02*
D03*
Y09155D02*
D03*
Y09218D02*
D03*
D36*
X09523Y0741D02*
D03*
X10349Y08225D02*
D03*
X1047Y07984D02*
D03*
X10373Y07962D02*
D03*
X10382Y07971D02*
D03*
X10619Y08026D02*
D03*
X102794Y07138D02*
D03*
X10349Y08274D02*
D03*
X10687Y08328D02*
D03*
X10352Y08423D02*
D03*
X10293Y08325D02*
D03*
X0484Y07991D02*
D03*
X0496Y08029D02*
D03*
X04956Y07792D02*
D03*
X06239Y07642D02*
D03*
X09712Y07791D02*
D03*
X09519Y07741D02*
D03*
X09714Y07891D02*
D03*
X09713Y07942D02*
D03*
X04833Y07842D02*
D03*
X04742Y07692D02*
D03*
X10187Y0764D02*
D03*
X04894Y07741D02*
D03*
X07246Y0766D02*
D03*
X0687Y07813D02*
D03*
X07186Y0757D02*
D03*
X06626Y07605D02*
D03*
X04897Y07551D02*
D03*
X07195Y07804D02*
D03*
X07189Y07854D02*
D03*
X10045Y07409D02*
D03*
X09396Y07407D02*
D03*
X08741D02*
D03*
X07791Y08046D02*
D03*
X08092Y07404D02*
D03*
X07441Y07408D02*
D03*
X06791Y074D02*
D03*
X056299Y0741D02*
D03*
X05495Y07411D02*
D03*
X0689Y08184D02*
D03*
X05555Y0806D02*
D03*
X05652Y08032D02*
D03*
X06238Y08187D02*
D03*
X06406Y08057D02*
D03*
X07336Y08048D02*
D03*
X07469D02*
D03*
X07388Y08049D02*
D03*
X07674Y08048D02*
D03*
X05588Y08185D02*
D03*
X04947Y08182D02*
D03*
X08594Y080575D02*
D03*
X07539Y08175D02*
D03*
X09489Y08183D02*
D03*
X08191Y08184D02*
D03*
X08842Y0819D02*
D03*
X08873Y07406D02*
D03*
X061416Y07405D02*
D03*
X07191Y07902D02*
D03*
X07188Y07955D02*
D03*
X07191Y08004D02*
D03*
X07981Y07903D02*
D03*
X0803Y07901D02*
D03*
X05088Y07891D02*
D03*
X05122Y07843D02*
D03*
X06281Y07729D02*
D03*
X06179Y0773D02*
D03*
X06082Y07729D02*
D03*
X0598Y0773D02*
D03*
X05148Y07792D02*
D03*
X05182Y0774D02*
D03*
X05219Y077D02*
D03*
X05856Y07728D02*
D03*
X05755Y0773D02*
D03*
X05659Y07728D02*
D03*
X05555Y07727D02*
D03*
X06179Y07857D02*
D03*
X06081Y07919D02*
D03*
X05979Y07947D02*
D03*
X05854Y07975D02*
D03*
X05755Y08006D02*
D03*
X064267Y077772D02*
D03*
X06426Y077143D02*
D03*
Y07744D02*
D03*
X06427Y078838D02*
D03*
Y079153D02*
D03*
X06426Y07948D02*
D03*
Y07978D02*
D03*
X08598Y0766D02*
D03*
X08596Y07692D02*
D03*
X08595Y0786D02*
D03*
X08594Y07925D02*
D03*
X0942Y08039D02*
D03*
X08594Y07893D02*
D03*
X09319Y08007D02*
D03*
X08595Y07827D02*
D03*
X09219Y07969D02*
D03*
X09093Y07936D02*
D03*
X08995Y07894D02*
D03*
X08893Y07861D02*
D03*
X085942Y077232D02*
D03*
X09319Y07738D02*
D03*
X10073Y07842D02*
D03*
X10074Y07891D02*
D03*
X10073Y07941D02*
D03*
X1007Y07992D02*
D03*
X08792Y07715D02*
D03*
X1014Y07724D02*
D03*
X08893Y07736D02*
D03*
X10112Y07758D02*
D03*
X08991Y07713D02*
D03*
X10075Y07793D02*
D03*
X09092Y07714D02*
D03*
X09219Y07713D02*
D03*
X09419Y07714D02*
D03*
X05088Y07993D02*
D03*
Y07943D02*
D03*
X0952Y08073D02*
D03*
X09562Y08112D02*
D03*
X09533Y081163D02*
D03*
X04826Y06918D02*
D03*
X1068Y07249D02*
D03*
D37*
X102794Y07138D02*
D03*
Y07031D02*
D03*
X10725Y07247D02*
D03*
X10576Y06881D02*
D03*
X1068Y07249D02*
D03*
X10307Y06275D02*
D03*
X10306Y06347D02*
D03*
X10308Y06434D02*
D03*
D38*
X05423Y06495D02*
X054281Y064899D01*
X05427Y06487D02*
X05431Y06491D01*
X05186Y08363D02*
X05219Y0833D01*
X053829Y094583D02*
Y096552D01*
X058344Y08363D02*
X058673Y0833D01*
X064827Y08363D02*
X065157Y0833D01*
X07131Y08363D02*
X07164Y0833D01*
X0779Y08355D02*
X07818Y08327D01*
X08435Y083583D02*
X084663Y08327D01*
X0908Y083616D02*
X091147Y08327D01*
X09725Y08365D02*
X09763Y08327D01*
X05186Y08363D02*
Y09446D01*
X05459Y0891D02*
Y09384D01*
X053829Y094583D02*
X05459Y093822D01*
X050098Y096622D02*
X05186D01*
X05009Y09663D02*
X050098Y096622D01*
X05186Y094653D02*
Y095153D01*
Y096552D01*
X060312Y094653D02*
Y096622D01*
Y094653D02*
X061073Y093892D01*
Y0891D02*
Y09391D01*
X06304Y09663D02*
X064819D01*
X064827Y096622D01*
Y094653D02*
Y096622D01*
Y08363D02*
Y094653D01*
X066796D02*
Y096622D01*
Y094653D02*
X067557Y093892D01*
Y0891D02*
Y09391D01*
X073279Y094653D02*
Y096622D01*
X0779Y094653D02*
Y096622D01*
Y08355D02*
Y094653D01*
X079869D02*
Y096622D01*
Y094653D02*
X08058Y093942D01*
Y08907D02*
Y09399D01*
X086319Y094653D02*
Y096622D01*
Y094653D02*
X087063Y093909D01*
Y08907D02*
Y09392D01*
X08908Y09663D02*
X090792D01*
X0908Y096622D01*
Y094653D02*
Y096622D01*
Y083616D02*
Y09467D01*
X09725Y08365D02*
Y09472D01*
X099219Y094653D02*
Y096622D01*
Y094653D02*
X10003Y093842D01*
Y08907D02*
Y09386D01*
X092769Y094653D02*
Y096622D01*
X058344Y08363D02*
Y0947D01*
X07131Y08363D02*
Y094653D01*
Y096622D01*
X08435Y083583D02*
Y09471D01*
X050516Y059398D02*
Y061367D01*
X05221Y07261D02*
X052485Y072335D01*
X056998Y059398D02*
Y061367D01*
X058699Y07261D02*
X058966Y072343D01*
X063479Y059398D02*
Y061367D01*
X062787Y062059D02*
X063479Y061367D01*
X062787Y062088D02*
Y06681D01*
X065187Y07261D02*
X065448Y07235D01*
Y061337D02*
Y07235D01*
X06996Y059398D02*
Y061367D01*
X069276Y062051D02*
X06996Y061367D01*
X069276Y06203D02*
Y06681D01*
X076442Y059398D02*
Y061367D01*
X075764Y062044D02*
X076442Y061367D01*
X075764Y062044D02*
Y06681D01*
X078164Y07261D02*
X07841Y072364D01*
Y06133D02*
Y072364D01*
X082923Y059398D02*
Y061367D01*
X082253Y062037D02*
X082923Y061367D01*
X082253Y062037D02*
Y06681D01*
X084653Y07261D02*
X084892Y072371D01*
X089405Y059398D02*
Y061367D01*
X088741Y06203D02*
X089405Y061367D01*
X088741Y06201D02*
Y06681D01*
X091141Y07261D02*
X091373Y072378D01*
Y061337D02*
Y072378D01*
X095886Y059398D02*
Y061367D01*
X09523Y062023D02*
X095886Y061367D01*
X09523Y062075D02*
Y06681D01*
X09763Y07261D02*
X097855Y072385D01*
X05426Y06052D02*
X05434Y06044D01*
X052485Y059398D02*
X054308D01*
X05434Y05943D01*
X052485Y059398D02*
Y061367D01*
X058966Y059398D02*
Y061367D01*
Y072343D01*
X065479Y05943D02*
X067283D01*
X065448Y059398D02*
X065479Y05943D01*
X065448Y059398D02*
Y061337D01*
Y061367D01*
X071929Y059398D02*
Y061367D01*
X078442Y05943D02*
X080226D01*
X07841Y059398D02*
X078442Y05943D01*
X07841Y059398D02*
Y061337D01*
Y061367D01*
X084892Y059398D02*
Y061367D01*
Y072371D01*
X091373Y059398D02*
X093137D01*
X093169Y05943D01*
X091373Y059398D02*
Y061337D01*
Y061367D01*
X097855Y059398D02*
Y061367D01*
Y072385D01*
X056299Y062066D02*
X056998Y061367D01*
X056299Y062066D02*
Y06681D01*
X052485Y061367D02*
Y072335D01*
X04974Y062143D02*
X050516Y061367D01*
X04974Y062143D02*
Y06674D01*
X04981Y06681D01*
X071929Y061367D02*
Y072357D01*
X071676Y07261D02*
X071929Y072357D01*
X05434Y06044D02*
Y06504D01*
X067283Y06044D02*
Y064913D01*
X06734Y06497D01*
X080226Y06044D02*
Y064864D01*
X08017Y06492D02*
X080226Y064864D01*
X093169Y06044D02*
Y064911D01*
X09316Y06492D02*
X093169Y064911D01*
X058998Y05943D02*
X060811D01*
X058966Y059398D02*
X058998Y05943D01*
X071961D02*
X073754D01*
X071929Y059398D02*
X071961Y05943D01*
X084924D02*
X086697D01*
X084892Y059398D02*
X084924Y05943D01*
X097886D02*
X09964D01*
X097855Y059398D02*
X097886Y05943D01*
X060811Y06044D02*
Y063119D01*
X06076Y06317D02*
X060811Y063119D01*
X073754Y06044D02*
Y063076D01*
X07373Y0631D02*
X073754Y063076D01*
X086697Y06044D02*
Y063093D01*
X08667Y06312D02*
X086697Y063093D01*
X06729Y06485D02*
X06733Y06489D01*
X08019Y06487D02*
X08023Y06491D01*
X09321Y06486D02*
X09325Y0649D01*
X0608Y06309D02*
X06084Y06313D01*
X07377Y06306D02*
X07381Y0631D01*
X08672Y06305D02*
X08676Y06309D01*
X09964Y06303D02*
X09965Y06304D01*
X09966Y06308D02*
X0997Y06312D01*
X09964Y06044D02*
Y06303D01*
X092769Y094571D02*
Y094653D01*
Y094571D02*
X093547Y093793D01*
Y08907D02*
Y093793D01*
X058344Y094653D02*
Y0947D01*
Y096622D01*
X08435Y094653D02*
Y09471D01*
Y096622D01*
X09725Y094653D02*
Y09472D01*
Y096622D01*
X073279Y094571D02*
Y094653D01*
Y094571D02*
X07404Y09381D01*
Y0891D02*
Y09381D01*
X07618Y09091D02*
Y09562D01*
Y09091D02*
X07619Y0909D01*
X06954Y09291D02*
Y09562D01*
X06954Y09291D02*
X06954Y09291D01*
X08263Y09295D02*
Y09562D01*
X08262Y09294D02*
X08263Y09295D01*
X09553Y09296D02*
Y09562D01*
X09553Y09296D02*
X09553Y09296D01*
X05015Y09106D02*
X05019Y0911D01*
X06302Y09103D02*
X06306Y09107D01*
X07619Y09095D02*
X07623Y09099D01*
X08904Y09097D02*
X08908Y09101D01*
X09553Y093D02*
X09557Y09304D01*
X08263Y093D02*
X08267Y09304D01*
X06954Y09296D02*
X06958Y093D01*
X05666Y09296D02*
X0567Y093D01*
D39*
X1025Y08514D02*
X10271Y08535D01*
X10575Y08426D02*
Y08535D01*
X10271D02*
X10575D01*
X1025Y08227D02*
Y08514D01*
Y08227D02*
X10475D01*
M02*
