G04 Layer_Color=128*
%FSTAX24Y24*%
%MOIN*%
G70*
G01*
G75*
%ADD45C,0.0050*%
D45*
X10303Y096622D02*
X103581D01*
X103305Y096346D02*
Y096897D01*
X10303Y094653D02*
X103581D01*
X103305Y094378D02*
Y094929D01*
X104998Y094653D02*
X105549D01*
X105274Y094378D02*
Y094929D01*
X104998Y096622D02*
X105549D01*
X105274Y096346D02*
Y096897D01*
X046547Y096195D02*
X047807D01*
X047177Y095565D02*
Y096825D01*
X046547Y059825D02*
X047807D01*
X047177Y059195D02*
Y060455D01*
X108233Y059831D02*
X109492D01*
X108862Y059201D02*
Y06046D01*
X108233Y096195D02*
X109492D01*
X108862Y095565D02*
Y096825D01*
X097579Y059398D02*
X09813D01*
X097855Y059123D02*
Y059674D01*
X097579Y061367D02*
X09813D01*
X097855Y061091D02*
Y061642D01*
X095611Y061367D02*
X096162D01*
X095886Y061091D02*
Y061642D01*
X095611Y059398D02*
X096162D01*
X095886Y059123D02*
Y059674D01*
X09946Y06044D02*
X09982D01*
X09964Y06026D02*
Y06062D01*
X09946Y05943D02*
X09982D01*
X09964Y05925D02*
Y05961D01*
X091098Y059398D02*
X091649D01*
X091373Y059123D02*
Y059674D01*
X091098Y061367D02*
X091649D01*
X091373Y061091D02*
Y061642D01*
X089129Y061367D02*
X08968D01*
X089405Y061091D02*
Y061642D01*
X089129Y059398D02*
X08968D01*
X089405Y059123D02*
Y059674D01*
X092989Y06044D02*
X093349D01*
X093169Y06026D02*
Y06062D01*
X092989Y05943D02*
X093349D01*
X093169Y05925D02*
Y05961D01*
X084616Y059398D02*
X085167D01*
X084892Y059123D02*
Y059674D01*
X084616Y061367D02*
X085167D01*
X084892Y061091D02*
Y061642D01*
X082648Y061367D02*
X083199D01*
X082923Y061091D02*
Y061642D01*
X082648Y059398D02*
X083199D01*
X082923Y059123D02*
Y059674D01*
X086517Y06044D02*
X086877D01*
X086697Y06026D02*
Y06062D01*
X086517Y05943D02*
X086877D01*
X086697Y05925D02*
Y05961D01*
X078135Y059398D02*
X078686D01*
X07841Y059123D02*
Y059674D01*
X078135Y061367D02*
X078686D01*
X07841Y061091D02*
Y061642D01*
X076166Y061367D02*
X076717D01*
X076442Y061091D02*
Y061642D01*
X076166Y059398D02*
X076717D01*
X076442Y059123D02*
Y059674D01*
X080046Y06044D02*
X080406D01*
X080226Y06026D02*
Y06062D01*
X080046Y05943D02*
X080406D01*
X080226Y05925D02*
Y05961D01*
X071653Y059398D02*
X072205D01*
X071929Y059123D02*
Y059674D01*
X071653Y061367D02*
X072205D01*
X071929Y061091D02*
Y061642D01*
X069685Y061367D02*
X070236D01*
X06996Y061091D02*
Y061642D01*
X069685Y059398D02*
X070236D01*
X06996Y059123D02*
Y059674D01*
X073574Y06044D02*
X073934D01*
X073754Y06026D02*
Y06062D01*
X073574Y05943D02*
X073934D01*
X073754Y05925D02*
Y05961D01*
X065172Y059398D02*
X065723D01*
X065448Y059123D02*
Y059674D01*
X065172Y061367D02*
X065723D01*
X065448Y061091D02*
Y061642D01*
X063203Y061367D02*
X063755D01*
X063479Y061091D02*
Y061642D01*
X063203Y059398D02*
X063755D01*
X063479Y059123D02*
Y059674D01*
X067103Y06044D02*
X067463D01*
X067283Y06026D02*
Y06062D01*
X067103Y05943D02*
X067463D01*
X067283Y05925D02*
Y05961D01*
X05869Y059398D02*
X059242D01*
X058966Y059123D02*
Y059674D01*
X05869Y061367D02*
X059242D01*
X058966Y061091D02*
Y061642D01*
X056722Y061367D02*
X057273D01*
X056998Y061091D02*
Y061642D01*
X056722Y059398D02*
X057273D01*
X056998Y059123D02*
Y059674D01*
X060631Y06044D02*
X060991D01*
X060811Y06026D02*
Y06062D01*
X060631Y05943D02*
X060991D01*
X060811Y05925D02*
Y05961D01*
X104739Y059398D02*
X10529D01*
X105015Y059123D02*
Y059674D01*
X104739Y061367D02*
X10529D01*
X105015Y061091D02*
Y061642D01*
X102771Y061367D02*
X103322D01*
X103046Y061091D02*
Y061642D01*
X102771Y059398D02*
X103322D01*
X103046Y059123D02*
Y059674D01*
X052209Y059398D02*
X05276D01*
X052485Y059123D02*
Y059674D01*
X052209Y061367D02*
X05276D01*
X052485Y061091D02*
Y061642D01*
X050241Y061367D02*
X050792D01*
X050516Y061091D02*
Y061642D01*
X050241Y059398D02*
X050792D01*
X050516Y059123D02*
Y059674D01*
X05416Y06044D02*
X05452D01*
X05434Y06026D02*
Y06062D01*
X05416Y05943D02*
X05452D01*
X05434Y05925D02*
Y05961D01*
X105553Y06947D02*
X105947D01*
X10575Y069273D02*
Y069667D01*
X105553Y07047D02*
X105947D01*
X10575Y070273D02*
Y070667D01*
X105553Y07147D02*
X105947D01*
X10575Y071273D02*
Y071667D01*
X105553Y07247D02*
X105947D01*
X10575Y072273D02*
Y072667D01*
X105553Y07347D02*
X105947D01*
X10575Y073273D02*
Y073667D01*
X105553Y07447D02*
X105947D01*
X10575Y074273D02*
Y074667D01*
X105553Y07547D02*
X105947D01*
X10575Y075273D02*
Y075667D01*
X105553Y07647D02*
X105947D01*
X10575Y076273D02*
Y076667D01*
X105553Y07747D02*
X105947D01*
X10575Y077273D02*
Y077667D01*
X105553Y07847D02*
X105947D01*
X10575Y078273D02*
Y078667D01*
X104553Y07847D02*
X104947D01*
X10475Y078273D02*
Y078667D01*
X104553Y07747D02*
X104947D01*
X10475Y077273D02*
Y077667D01*
X104553Y07647D02*
X104947D01*
X10475Y076273D02*
Y076667D01*
X104553Y07547D02*
X104947D01*
X10475Y075273D02*
Y075667D01*
X104553Y07447D02*
X104947D01*
X10475Y074273D02*
Y074667D01*
X104553Y07347D02*
X104947D01*
X10475Y073273D02*
Y073667D01*
X104553Y07247D02*
X104947D01*
X10475Y072273D02*
Y072667D01*
X104553Y07147D02*
X104947D01*
X10475Y071273D02*
Y071667D01*
X104553Y07047D02*
X104947D01*
X10475Y070273D02*
Y070667D01*
X104553Y06947D02*
X104947D01*
X10475Y069273D02*
Y069667D01*
X054365Y0843D02*
X054815D01*
X05459Y084075D02*
Y084525D01*
X049565Y0891D02*
X050015D01*
X04979Y088875D02*
Y089325D01*
X051965Y0833D02*
X052415D01*
X05219Y083075D02*
Y083525D01*
X054365Y0891D02*
X054815D01*
X05459Y088875D02*
Y089325D01*
X049565Y0843D02*
X050015D01*
X04979Y084075D02*
Y084525D01*
X04991Y09663D02*
X05027D01*
X05009Y09645D02*
Y09681D01*
X04991Y09562D02*
X05027D01*
X05009Y09544D02*
Y0958D01*
X053553Y096622D02*
X054105D01*
X053829Y096346D02*
Y096897D01*
X053553Y094653D02*
X054105D01*
X053829Y094378D02*
Y094929D01*
X051585Y094653D02*
X052136D01*
X05186Y094378D02*
Y094929D01*
X051585Y096622D02*
X052136D01*
X05186Y096346D02*
Y096897D01*
X060037Y096622D02*
X060588D01*
X060312Y096346D02*
Y096897D01*
X060037Y094653D02*
X060588D01*
X060312Y094378D02*
Y094929D01*
X058068Y094653D02*
X058619D01*
X058344Y094378D02*
Y094929D01*
X058068Y096622D02*
X058619D01*
X058344Y096346D02*
Y096897D01*
X06652Y096622D02*
X067071D01*
X066796Y096346D02*
Y096897D01*
X06652Y094653D02*
X067071D01*
X066796Y094378D02*
Y094929D01*
X064552Y094653D02*
X065103D01*
X064827Y094378D02*
Y094929D01*
X064552Y096622D02*
X065103D01*
X064827Y096346D02*
Y096897D01*
X073003Y096622D02*
X073555D01*
X073279Y096346D02*
Y096897D01*
X073003Y094653D02*
X073555D01*
X073279Y094378D02*
Y094929D01*
X071035Y094653D02*
X071586D01*
X07131Y094378D02*
Y094929D01*
X071035Y096622D02*
X071586D01*
X07131Y096346D02*
Y096897D01*
X079593Y096622D02*
X080145D01*
X079869Y096346D02*
Y096897D01*
X079593Y094653D02*
X080145D01*
X079869Y094378D02*
Y094929D01*
X077625Y094653D02*
X078176D01*
X0779Y094378D02*
Y094929D01*
X077625Y096622D02*
X078176D01*
X0779Y096346D02*
Y096897D01*
X092493Y096622D02*
X093045D01*
X092769Y096346D02*
Y096897D01*
X092493Y094653D02*
X093045D01*
X092769Y094378D02*
Y094929D01*
X090525Y094653D02*
X091076D01*
X0908Y094378D02*
Y094929D01*
X090525Y096622D02*
X091076D01*
X0908Y096346D02*
Y096897D01*
X098943Y096622D02*
X099495D01*
X099219Y096346D02*
Y096897D01*
X098943Y094653D02*
X099495D01*
X099219Y094378D02*
Y094929D01*
X096975Y094653D02*
X097526D01*
X09725Y094378D02*
Y094929D01*
X096975Y096622D02*
X097526D01*
X09725Y096346D02*
Y096897D01*
X05641Y09663D02*
X05677D01*
X05659Y09645D02*
Y09681D01*
X05641Y09562D02*
X05677D01*
X05659Y09544D02*
Y0958D01*
X06286Y09663D02*
X06322D01*
X06304Y09645D02*
Y09681D01*
X06286Y09562D02*
X06322D01*
X06304Y09544D02*
Y0958D01*
X06936Y09663D02*
X06972D01*
X06954Y09645D02*
Y09681D01*
X06936Y09562D02*
X06972D01*
X06954Y09544D02*
Y0958D01*
X060848Y0843D02*
X061298D01*
X061073Y084075D02*
Y084525D01*
X056048Y0891D02*
X056498D01*
X056273Y088875D02*
Y089325D01*
X058448Y0833D02*
X058898D01*
X058673Y083075D02*
Y083525D01*
X060848Y0891D02*
X061298D01*
X061073Y088875D02*
Y089325D01*
X056048Y0843D02*
X056498D01*
X056273Y084075D02*
Y084525D01*
X067332Y0843D02*
X067782D01*
X067557Y084075D02*
Y084525D01*
X062532Y0891D02*
X062982D01*
X062757Y088875D02*
Y089325D01*
X064932Y0833D02*
X065382D01*
X065157Y083075D02*
Y083525D01*
X067332Y0891D02*
X067782D01*
X067557Y088875D02*
Y089325D01*
X062532Y0843D02*
X062982D01*
X062757Y084075D02*
Y084525D01*
X073815Y0843D02*
X074265D01*
X07404Y084075D02*
Y084525D01*
X069015Y0891D02*
X069465D01*
X06924Y088875D02*
Y089325D01*
X071415Y0833D02*
X071865D01*
X07164Y083075D02*
Y083525D01*
X073815Y0891D02*
X074265D01*
X07404Y088875D02*
Y089325D01*
X069015Y0843D02*
X069465D01*
X06924Y084075D02*
Y084525D01*
X080355Y08427D02*
X080805D01*
X08058Y084045D02*
Y084495D01*
X075555Y08907D02*
X076005D01*
X07578Y088845D02*
Y089295D01*
X077955Y08327D02*
X078405D01*
X07818Y083045D02*
Y083495D01*
X080355Y08907D02*
X080805D01*
X08058Y088845D02*
Y089295D01*
X075555Y08427D02*
X076005D01*
X07578Y084045D02*
Y084495D01*
X086838Y08427D02*
X087288D01*
X087063Y084045D02*
Y084495D01*
X082038Y08907D02*
X082488D01*
X082263Y088845D02*
Y089295D01*
X084438Y08327D02*
X084888D01*
X084663Y083045D02*
Y083495D01*
X086838Y08907D02*
X087288D01*
X087063Y088845D02*
Y089295D01*
X082038Y08427D02*
X082488D01*
X082263Y084045D02*
Y084495D01*
X093322Y08427D02*
X093772D01*
X093547Y084045D02*
Y084495D01*
X088522Y08907D02*
X088972D01*
X088747Y088845D02*
Y089295D01*
X090922Y08327D02*
X091372D01*
X091147Y083045D02*
Y083495D01*
X093322Y08907D02*
X093772D01*
X093547Y088845D02*
Y089295D01*
X088522Y08427D02*
X088972D01*
X088747Y084045D02*
Y084495D01*
X099805Y08427D02*
X100255D01*
X10003Y084045D02*
Y084495D01*
X095005Y08907D02*
X095455D01*
X09523Y088845D02*
Y089295D01*
X097405Y08327D02*
X097855D01*
X09763Y083045D02*
Y083495D01*
X099805Y08907D02*
X100255D01*
X10003Y088845D02*
Y089295D01*
X095005Y08427D02*
X095455D01*
X09523Y084045D02*
Y084495D01*
X054385Y07161D02*
X054835D01*
X05461Y071385D02*
Y071835D01*
X049585Y06681D02*
X050035D01*
X04981Y066585D02*
Y067035D01*
X051985Y07261D02*
X052435D01*
X05221Y072385D02*
Y072835D01*
X054385Y06681D02*
X054835D01*
X05461Y066585D02*
Y067035D01*
X049585Y07161D02*
X050035D01*
X04981Y071385D02*
Y071835D01*
X060874Y07161D02*
X061324D01*
X061099Y071385D02*
Y071835D01*
X056074Y06681D02*
X056524D01*
X056299Y066585D02*
Y067035D01*
X058474Y07261D02*
X058924D01*
X058699Y072385D02*
Y072835D01*
X060874Y06681D02*
X061324D01*
X061099Y066585D02*
Y067035D01*
X056074Y07161D02*
X056524D01*
X056299Y071385D02*
Y071835D01*
X067362Y07161D02*
X067812D01*
X067587Y071385D02*
Y071835D01*
X062562Y06681D02*
X063012D01*
X062787Y066585D02*
Y067035D01*
X064962Y07261D02*
X065412D01*
X065187Y072385D02*
Y072835D01*
X067362Y06681D02*
X067812D01*
X067587Y066585D02*
Y067035D01*
X062562Y07161D02*
X063012D01*
X062787Y071385D02*
Y071835D01*
X073851Y07161D02*
X074301D01*
X074076Y071385D02*
Y071835D01*
X069051Y06681D02*
X069501D01*
X069276Y066585D02*
Y067035D01*
X071451Y07261D02*
X071901D01*
X071676Y072385D02*
Y072835D01*
X073851Y06681D02*
X074301D01*
X074076Y066585D02*
Y067035D01*
X069051Y07161D02*
X069501D01*
X069276Y071385D02*
Y071835D01*
X080339Y07161D02*
X080789D01*
X080564Y071385D02*
Y071835D01*
X075539Y06681D02*
X075989D01*
X075764Y066585D02*
Y067035D01*
X077939Y07261D02*
X078389D01*
X078164Y072385D02*
Y072835D01*
X080339Y06681D02*
X080789D01*
X080564Y066585D02*
Y067035D01*
X075539Y07161D02*
X075989D01*
X075764Y071385D02*
Y071835D01*
X086828Y07161D02*
X087278D01*
X087053Y071385D02*
Y071835D01*
X082028Y06681D02*
X082478D01*
X082253Y066585D02*
Y067035D01*
X084428Y07261D02*
X084878D01*
X084653Y072385D02*
Y072835D01*
X086828Y06681D02*
X087278D01*
X087053Y066585D02*
Y067035D01*
X082028Y07161D02*
X082478D01*
X082253Y071385D02*
Y071835D01*
X093316Y07161D02*
X093766D01*
X093541Y071385D02*
Y071835D01*
X088516Y06681D02*
X088966D01*
X088741Y066585D02*
Y067035D01*
X090916Y07261D02*
X091366D01*
X091141Y072385D02*
Y072835D01*
X093316Y06681D02*
X093766D01*
X093541Y066585D02*
Y067035D01*
X088516Y07161D02*
X088966D01*
X088741Y071385D02*
Y071835D01*
X099805Y07161D02*
X100255D01*
X10003Y071385D02*
Y071835D01*
X095005Y06681D02*
X095455D01*
X09523Y066585D02*
Y067035D01*
X097405Y07261D02*
X097855D01*
X09763Y072385D02*
Y072835D01*
X099805Y06681D02*
X100255D01*
X10003Y066585D02*
Y067035D01*
X095005Y07161D02*
X095455D01*
X09523Y071385D02*
Y071835D01*
X076Y09663D02*
X07636D01*
X07618Y09645D02*
Y09681D01*
X076Y09562D02*
X07636D01*
X07618Y09544D02*
Y0958D01*
X0889Y09663D02*
X08926D01*
X08908Y09645D02*
Y09681D01*
X0889Y09562D02*
X08926D01*
X08908Y09544D02*
Y0958D01*
X09535Y09663D02*
X09571D01*
X09553Y09645D02*
Y09681D01*
X09535Y09562D02*
X09571D01*
X09553Y09544D02*
Y0958D01*
X08245Y09663D02*
X08281D01*
X08263Y09645D02*
Y09681D01*
X08245Y09562D02*
X08281D01*
X08263Y09544D02*
Y0958D01*
X10457Y08426D02*
X10493D01*
X10475Y08408D02*
Y08444D01*
X10457Y08326D02*
X10493D01*
X10475Y08308D02*
Y08344D01*
X10457Y08227D02*
X10493D01*
X10475Y08209D02*
Y08245D01*
X10557Y08426D02*
X10593D01*
X10575Y08408D02*
Y08444D01*
X10557Y08226D02*
X10593D01*
X10575Y08208D02*
Y08244D01*
X10557Y08326D02*
X10593D01*
X10575Y08308D02*
Y08344D01*
X086043Y096622D02*
X086595D01*
X086319Y096346D02*
Y096897D01*
X086043Y094653D02*
X086595D01*
X086319Y094378D02*
Y094929D01*
X084075Y094653D02*
X084626D01*
X08435Y094378D02*
Y094929D01*
X084075Y096622D02*
X084626D01*
X08435Y096346D02*
Y096897D01*
X10152Y09388D02*
X10182D01*
X10167Y09373D02*
Y09403D01*
X10152Y09258D02*
X10182D01*
X10167Y09243D02*
Y09273D01*
X10153Y09327D02*
X10183D01*
X10168Y09312D02*
Y09342D01*
X05476Y06488D02*
X05504D01*
X0549Y06474D02*
Y06502D01*
X05417Y06488D02*
X05445D01*
X05431Y06474D02*
Y06502D01*
X05354Y06488D02*
X05382D01*
X05368Y06474D02*
Y06502D01*
X095171Y0741D02*
X095289D01*
X09523Y074041D02*
Y074159D01*
X103431Y08225D02*
X103549D01*
X10349Y082191D02*
Y082309D01*
X104641Y07984D02*
X104759D01*
X1047Y079781D02*
Y079899D01*
X103671Y07962D02*
X103789D01*
X10373Y079561D02*
Y079679D01*
X103761Y07971D02*
X103879D01*
X10382Y079651D02*
Y079769D01*
X106131Y08026D02*
X106249D01*
X10619Y080201D02*
Y080319D01*
X102735Y07138D02*
X102853D01*
X102794Y071321D02*
Y071439D01*
X103431Y08274D02*
X103549D01*
X10349Y082681D02*
Y082799D01*
X106811Y08328D02*
X106929D01*
X10687Y083221D02*
Y083339D01*
X103461Y08423D02*
X103579D01*
X10352Y084171D02*
Y084289D01*
X102871Y08325D02*
X102989D01*
X10293Y083191D02*
Y083309D01*
X048341Y07991D02*
X048459D01*
X0484Y079851D02*
Y079969D01*
X049541Y08029D02*
X049659D01*
X0496Y080231D02*
Y080349D01*
X049501Y07792D02*
X049619D01*
X04956Y077861D02*
Y077979D01*
X062331Y07642D02*
X062449D01*
X06239Y076361D02*
Y076479D01*
X097061Y07791D02*
X097179D01*
X09712Y077851D02*
Y077969D01*
X095131Y07741D02*
X095249D01*
X09519Y077351D02*
Y077469D01*
X097081Y07891D02*
X097199D01*
X09714Y078851D02*
Y078969D01*
X097071Y07942D02*
X097189D01*
X09713Y079361D02*
Y079479D01*
X048271Y07842D02*
X048389D01*
X04833Y078361D02*
Y078479D01*
X047361Y07692D02*
X047479D01*
X04742Y076861D02*
Y076979D01*
X101811Y0764D02*
X101929D01*
X10187Y076341D02*
Y076459D01*
X048881Y07741D02*
X048999D01*
X04894Y077351D02*
Y077469D01*
X072401Y0766D02*
X072519D01*
X07246Y076541D02*
Y076659D01*
X068641Y07813D02*
X068759D01*
X0687Y078071D02*
Y078189D01*
X071801Y0757D02*
X071919D01*
X07186Y075641D02*
Y075759D01*
X066201Y07605D02*
X066319D01*
X06626Y075991D02*
Y076109D01*
X048911Y07551D02*
X049029D01*
X04897Y075451D02*
Y075569D01*
X071891Y07804D02*
X072009D01*
X07195Y077981D02*
Y078099D01*
X071831Y07854D02*
X071949D01*
X07189Y078481D02*
Y078599D01*
X100391Y07409D02*
X100509D01*
X10045Y074031D02*
Y074149D01*
X093901Y07407D02*
X094019D01*
X09396Y074011D02*
Y074129D01*
X087351Y07407D02*
X087469D01*
X08741Y074011D02*
Y074129D01*
X077851Y08046D02*
X077969D01*
X07791Y080401D02*
Y080519D01*
X080861Y07404D02*
X080979D01*
X08092Y073981D02*
Y074099D01*
X074351Y07408D02*
X074469D01*
X07441Y074021D02*
Y074139D01*
X067851Y074D02*
X067969D01*
X06791Y073941D02*
Y074059D01*
X05624Y0741D02*
X056358D01*
X056299Y074041D02*
Y074159D01*
X054891Y07411D02*
X055009D01*
X05495Y074051D02*
Y074169D01*
X068841Y08184D02*
X068959D01*
X0689Y081781D02*
Y081899D01*
X055491Y0806D02*
X055609D01*
X05555Y080541D02*
Y080659D01*
X056461Y08032D02*
X056579D01*
X05652Y080261D02*
Y080379D01*
X062321Y08187D02*
X062439D01*
X06238Y081811D02*
Y081929D01*
X064001Y08057D02*
X064119D01*
X06406Y080511D02*
Y080629D01*
X073301Y08048D02*
X073419D01*
X07336Y080421D02*
Y080539D01*
X074631Y08048D02*
X074749D01*
X07469Y080421D02*
Y080539D01*
X073821Y08049D02*
X073939D01*
X07388Y080431D02*
Y080549D01*
X076681Y08048D02*
X076799D01*
X07674Y080421D02*
Y080539D01*
X055821Y08185D02*
X055939D01*
X05588Y081791D02*
Y081909D01*
X049411Y08182D02*
X049529D01*
X04947Y081761D02*
Y081879D01*
X085881Y080575D02*
X085999D01*
X08594Y080516D02*
Y080634D01*
X075331Y08175D02*
X075449D01*
X07539Y081691D02*
Y081809D01*
X094831Y08183D02*
X094949D01*
X09489Y081771D02*
Y081889D01*
X081851Y08184D02*
X081969D01*
X08191Y081781D02*
Y081899D01*
X088361Y0819D02*
X088479D01*
X08842Y081841D02*
Y081959D01*
X088671Y07406D02*
X088789D01*
X08873Y074001D02*
Y074119D01*
X061357Y07405D02*
X061475D01*
X061416Y073991D02*
Y074109D01*
X071851Y07902D02*
X071969D01*
X07191Y078961D02*
Y079079D01*
X071821Y07955D02*
X071939D01*
X07188Y079491D02*
Y079609D01*
X071851Y08004D02*
X071969D01*
X07191Y079981D02*
Y080099D01*
X079751Y07903D02*
X079869D01*
X07981Y078971D02*
Y079089D01*
X080241Y07901D02*
X080359D01*
X0803Y078951D02*
Y079069D01*
X050821Y07891D02*
X050939D01*
X05088Y078851D02*
Y078969D01*
X051161Y07843D02*
X051279D01*
X05122Y078371D02*
Y078489D01*
X062751Y07729D02*
X062869D01*
X06281Y077231D02*
Y077349D01*
X061731Y0773D02*
X061849D01*
X06179Y077241D02*
Y077359D01*
X060761Y07729D02*
X060879D01*
X06082Y077231D02*
Y077349D01*
X059741Y0773D02*
X059859D01*
X0598Y077241D02*
Y077359D01*
X051421Y07792D02*
X051539D01*
X05148Y077861D02*
Y077979D01*
X051761Y0774D02*
X051879D01*
X05182Y077341D02*
Y077459D01*
X052131Y077D02*
X052249D01*
X05219Y076941D02*
Y077059D01*
X058501Y07728D02*
X058619D01*
X05856Y077221D02*
Y077339D01*
X057491Y0773D02*
X057609D01*
X05755Y077241D02*
Y077359D01*
X056531Y07728D02*
X056649D01*
X05659Y077221D02*
Y077339D01*
X055491Y07727D02*
X055609D01*
X05555Y077211D02*
Y077329D01*
X061731Y07857D02*
X061849D01*
X06179Y078511D02*
Y078629D01*
X060751Y07919D02*
X060869D01*
X06081Y079131D02*
Y079249D01*
X059731Y07947D02*
X059849D01*
X05979Y079411D02*
Y079529D01*
X058481Y07975D02*
X058599D01*
X05854Y079691D02*
Y079809D01*
X057491Y08006D02*
X057609D01*
X05755Y080001D02*
Y080119D01*
X064208Y077772D02*
X064326D01*
X064267Y077713D02*
Y077832D01*
X064201Y077143D02*
X064319D01*
X06426Y077083D02*
Y077202D01*
X064201Y07744D02*
X064319D01*
X06426Y077381D02*
Y077499D01*
X064211Y078838D02*
X064329D01*
X06427Y078779D02*
Y078897D01*
X064211Y079153D02*
X064329D01*
X06427Y079093D02*
Y079212D01*
X064201Y07948D02*
X064319D01*
X06426Y079421D02*
Y079539D01*
X064201Y07978D02*
X064319D01*
X06426Y079721D02*
Y079839D01*
X085921Y0766D02*
X086039D01*
X08598Y076541D02*
Y076659D01*
X085901Y07692D02*
X086019D01*
X08596Y076861D02*
Y076979D01*
X085891Y0786D02*
X086009D01*
X08595Y078541D02*
Y078659D01*
X085881Y07925D02*
X085999D01*
X08594Y079191D02*
Y079309D01*
X094141Y08039D02*
X094259D01*
X0942Y080331D02*
Y080449D01*
X085881Y07893D02*
X085999D01*
X08594Y078871D02*
Y078989D01*
X093131Y08007D02*
X093249D01*
X09319Y080011D02*
Y080129D01*
X085891Y07827D02*
X086009D01*
X08595Y078211D02*
Y078329D01*
X092131Y07969D02*
X092249D01*
X09219Y079631D02*
Y079749D01*
X090871Y07936D02*
X090989D01*
X09093Y079301D02*
Y079419D01*
X089891Y07894D02*
X090009D01*
X08995Y078881D02*
Y078999D01*
X088871Y07861D02*
X088989D01*
X08893Y078551D02*
Y078669D01*
X085883Y077232D02*
X086001D01*
X085942Y077173D02*
Y077291D01*
X093131Y07738D02*
X093249D01*
X09319Y077321D02*
Y077439D01*
X100671Y07842D02*
X100789D01*
X10073Y078361D02*
Y078479D01*
X100681Y07891D02*
X100799D01*
X10074Y078851D02*
Y078969D01*
X100671Y07941D02*
X100789D01*
X10073Y079351D02*
Y079469D01*
X100641Y07992D02*
X100759D01*
X1007Y079861D02*
Y079979D01*
X087861Y07715D02*
X087979D01*
X08792Y077091D02*
Y077209D01*
X101341Y07724D02*
X101459D01*
X1014Y077181D02*
Y077299D01*
X088871Y07736D02*
X088989D01*
X08893Y077301D02*
Y077419D01*
X101061Y07758D02*
X101179D01*
X10112Y077521D02*
Y077639D01*
X089851Y07713D02*
X089969D01*
X08991Y077071D02*
Y077189D01*
X100691Y07793D02*
X100809D01*
X10075Y077871D02*
Y077989D01*
X090861Y07714D02*
X090979D01*
X09092Y077081D02*
Y077199D01*
X092131Y07713D02*
X092249D01*
X09219Y077071D02*
Y077189D01*
X094131Y07714D02*
X094249D01*
X09419Y077081D02*
Y077199D01*
X050821Y07993D02*
X050939D01*
X05088Y079871D02*
Y079989D01*
X050821Y07943D02*
X050939D01*
X05088Y079371D02*
Y079489D01*
X095141Y08073D02*
X095259D01*
X0952Y080671D02*
Y080789D01*
X095561Y08112D02*
X095679D01*
X09562Y081061D02*
Y081179D01*
X095271Y081163D02*
X095389D01*
X09533Y081104D02*
Y081222D01*
X048201Y06918D02*
X048319D01*
X04826Y069121D02*
Y069239D01*
X04809Y06843D02*
X04837D01*
X04823Y06829D02*
Y06857D01*
X102696Y07138D02*
X102893D01*
X102794Y071282D02*
Y071478D01*
X102696Y07031D02*
X102893D01*
X102794Y070212D02*
Y070408D01*
X107152Y07247D02*
X107348D01*
X10725Y072372D02*
Y072568D01*
X105662Y06881D02*
X105858D01*
X10576Y068712D02*
Y068908D01*
X106741Y07249D02*
X106859D01*
X1068Y072431D02*
Y072549D01*
X106702Y07249D02*
X106898D01*
X1068Y072392D02*
Y072588D01*
X06778Y06491D02*
X06806D01*
X06792Y06477D02*
Y06505D01*
X06719Y06491D02*
X06747D01*
X06733Y06477D02*
Y06505D01*
X06656Y06491D02*
X06684D01*
X0667Y06477D02*
Y06505D01*
X08068Y06491D02*
X08096D01*
X08082Y06477D02*
Y06505D01*
X08009Y06491D02*
X08037D01*
X08023Y06477D02*
Y06505D01*
X07946Y06491D02*
X07974D01*
X0796Y06477D02*
Y06505D01*
X0937Y06491D02*
X09398D01*
X09384Y06477D02*
Y06505D01*
X09311Y06491D02*
X09339D01*
X09325Y06477D02*
Y06505D01*
X09248Y06491D02*
X09276D01*
X09262Y06477D02*
Y06505D01*
X06129Y0631D02*
X06157D01*
X06143Y06296D02*
Y06324D01*
X0607Y0631D02*
X06098D01*
X06084Y06296D02*
Y06324D01*
X06007Y0631D02*
X06035D01*
X06021Y06296D02*
Y06324D01*
X07426Y0631D02*
X07454D01*
X0744Y06296D02*
Y06324D01*
X07367Y0631D02*
X07395D01*
X07381Y06296D02*
Y06324D01*
X07304Y0631D02*
X07332D01*
X07318Y06296D02*
Y06324D01*
X08721Y0631D02*
X08749D01*
X08735Y06296D02*
Y06324D01*
X08662Y0631D02*
X0869D01*
X08676Y06296D02*
Y06324D01*
X08599Y0631D02*
X08627D01*
X08613Y06296D02*
Y06324D01*
X10015Y0631D02*
X10043D01*
X10029Y06296D02*
Y06324D01*
X09893Y0631D02*
X09921D01*
X09907Y06296D02*
Y06324D01*
X09956Y0631D02*
X09984D01*
X0997Y06296D02*
Y06324D01*
X102972Y06275D02*
X103168D01*
X10307Y062652D02*
Y062848D01*
X102962Y06347D02*
X103158D01*
X10306Y063372D02*
Y063568D01*
X102982Y06434D02*
X103178D01*
X10308Y064242D02*
Y064438D01*
X1032Y09095D02*
X10348D01*
X10334Y09081D02*
Y09109D01*
X05652Y09291D02*
X0568D01*
X05666Y09277D02*
Y09305D01*
X07605Y0909D02*
X07633D01*
X07619Y09076D02*
Y09104D01*
X0694Y09291D02*
X06968D01*
X06954Y09277D02*
Y09305D01*
X08248Y09294D02*
X08276D01*
X08262Y0928D02*
Y09308D01*
X05064Y09101D02*
X05092D01*
X05078Y09087D02*
Y09115D01*
X05001Y09101D02*
X05029D01*
X05015Y09087D02*
Y09115D01*
X04942Y09101D02*
X0497D01*
X04956Y09087D02*
Y09115D01*
X06351Y09098D02*
X06379D01*
X06365Y09084D02*
Y09112D01*
X06288Y09098D02*
X06316D01*
X06302Y09084D02*
Y09112D01*
X06229Y09098D02*
X06257D01*
X06243Y09084D02*
Y09112D01*
X07668Y0909D02*
X07696D01*
X07682Y09076D02*
Y09104D01*
X07546Y0909D02*
X07574D01*
X0756Y09076D02*
Y09104D01*
X08953Y09092D02*
X08981D01*
X08967Y09078D02*
Y09106D01*
X0889Y09092D02*
X08918D01*
X08904Y09078D02*
Y09106D01*
X08831Y09092D02*
X08859D01*
X08845Y09078D02*
Y09106D01*
X09602Y09295D02*
X0963D01*
X09616Y09281D02*
Y09309D01*
X09539Y09295D02*
X09567D01*
X09553Y09281D02*
Y09309D01*
X0948Y09295D02*
X09508D01*
X09494Y09281D02*
Y09309D01*
X08312Y09295D02*
X0834D01*
X08326Y09281D02*
Y09309D01*
X08249Y09295D02*
X08277D01*
X08263Y09281D02*
Y09309D01*
X0819Y09295D02*
X08218D01*
X08204Y09281D02*
Y09309D01*
X07003Y09291D02*
X07031D01*
X07017Y09277D02*
Y09305D01*
X06881Y09291D02*
X06909D01*
X06895Y09277D02*
Y09305D01*
X05715Y09291D02*
X05743D01*
X05729Y09277D02*
Y09305D01*
X05593Y09291D02*
X05621D01*
X05607Y09277D02*
Y09305D01*
X10318Y09096D02*
X10346D01*
X10332Y09082D02*
Y0911D01*
X10318Y09155D02*
X10346D01*
X10332Y09141D02*
Y09169D01*
X10318Y09218D02*
X10346D01*
X10332Y09204D02*
Y09232D01*
M02*
