G04 Layer_Color=65535*
%FSTAX24Y24*%
%MOIN*%
G70*
G01*
G75*
%ADD40C,0.0100*%
%ADD41C,0.0098*%
%ADD42C,0.0236*%
%ADD43C,0.0070*%
%ADD44C,0.0079*%
%ADD45C,0.0050*%
%ADD46C,0.0040*%
%ADD47R,0.0150X0.0600*%
G36*
X05222Y07672D02*
X05202Y07692D01*
X05222Y07712D01*
Y07672D01*
D02*
G37*
G36*
X10045Y05918D02*
X1002Y05943D01*
X10045Y05968D01*
Y05918D01*
D02*
G37*
G36*
X093979D02*
X093729Y05943D01*
X093979Y05968D01*
Y05918D01*
D02*
G37*
G36*
X05527Y07699D02*
X05487D01*
X05507Y07719D01*
X05527Y07699D01*
D02*
G37*
G36*
X08763Y07699D02*
X08723Y07699D01*
X08743Y07719D01*
X08763Y07699D01*
D02*
G37*
G36*
X10078Y07672D02*
X10058Y07692D01*
X10078Y07712D01*
Y07672D01*
D02*
G37*
G36*
X068093Y05918D02*
X067843Y05943D01*
X068093Y05968D01*
Y05918D01*
D02*
G37*
G36*
X061621D02*
X061371Y05943D01*
X061621Y05968D01*
Y05918D01*
D02*
G37*
G36*
X05515D02*
X0549Y05943D01*
X05515Y05968D01*
Y05918D01*
D02*
G37*
G36*
X087507D02*
X087257Y05943D01*
X087507Y05968D01*
Y05918D01*
D02*
G37*
G36*
X081036D02*
X080786Y05943D01*
X081036Y05968D01*
Y05918D01*
D02*
G37*
G36*
X074564D02*
X074314Y05943D01*
X074564Y05968D01*
Y05918D01*
D02*
G37*
G36*
X07562Y09663D02*
X07537Y09638D01*
X07537Y09688D01*
X07562Y09663D01*
D02*
G37*
G36*
X06898D02*
X06873Y09638D01*
Y09688D01*
X06898Y09663D01*
D02*
G37*
G36*
X06248D02*
X06223Y09638D01*
Y09688D01*
X06248Y09663D01*
D02*
G37*
G36*
X09497Y09663D02*
X09472Y09638D01*
Y09688D01*
X09497Y09663D01*
D02*
G37*
G36*
X08852Y09663D02*
X08827Y09638D01*
Y09688D01*
X08852Y09663D01*
D02*
G37*
G36*
X08207D02*
X08182Y09638D01*
Y09688D01*
X08207Y09663D01*
D02*
G37*
G36*
X1036Y07847D02*
X10325Y07812D01*
Y07882D01*
X1036Y07847D01*
D02*
G37*
G36*
X09189Y07699D02*
X09149Y07699D01*
X09169Y07719D01*
X09189Y07699D01*
D02*
G37*
G36*
X0595Y07699D02*
X0591D01*
X0593Y07719D01*
X0595Y07699D01*
D02*
G37*
G36*
X05603Y09663D02*
X05578Y09638D01*
Y09688D01*
X05603Y09663D01*
D02*
G37*
G36*
X04953D02*
X04928Y09638D01*
Y09688D01*
X04953Y09663D01*
D02*
G37*
G36*
X10409Y08426D02*
X10384Y08401D01*
Y08451D01*
X10409Y08426D01*
D02*
G37*
D40*
X0986Y07407D02*
G03*
X0986Y07407I-00005J0D01*
G01*
X092083Y074086D02*
G03*
X092083Y074086I-00005J0D01*
G01*
X085566D02*
G03*
X085566Y074086I-00005J0D01*
G01*
X079049D02*
G03*
X079049Y074086I-00005J0D01*
G01*
X072531D02*
G03*
X072531Y074086I-00005J0D01*
G01*
X066014D02*
G03*
X066014Y074086I-00005J0D01*
G01*
X059497D02*
G03*
X059497Y074086I-00005J0D01*
G01*
X05298D02*
G03*
X05298Y074086I-00005J0D01*
G01*
X05137Y08183D02*
G03*
X05137Y08183I-00005J0D01*
G01*
X05782Y08183D02*
G03*
X05782Y08183I-00005J0D01*
G01*
X06432D02*
G03*
X06432Y08183I-00005J0D01*
G01*
X07077Y08183D02*
G03*
X07077Y08183I-00005J0D01*
G01*
X09681Y081855D02*
G03*
X09681Y081855I-00005J0D01*
G01*
X07746D02*
G03*
X07746Y081855I-00005J0D01*
G01*
X08386Y081855D02*
G03*
X08386Y081855I-00005J0D01*
G01*
X09036Y081855D02*
G03*
X09036Y081855I-00005J0D01*
G01*
X102203Y09361D02*
X104171D01*
Y098297D01*
Y09361D02*
X10677D01*
X104171D02*
Y098347D01*
X102203Y09361D02*
Y098347D01*
X104171D01*
X103778D02*
Y099516D01*
X102597D02*
X103778D01*
X102597Y098347D02*
Y099516D01*
X1024Y099122D02*
X102597D01*
X103817D02*
X103975D01*
X1024D02*
Y099476D01*
X102439Y099516D01*
X102597D01*
X103975Y099122D02*
Y099476D01*
X102597Y099516D02*
X103935D01*
X103975Y099476D01*
X105904Y099516D02*
X105943Y099476D01*
X104565Y099516D02*
X105904D01*
X105943Y099122D02*
Y099476D01*
X104408Y099516D02*
X104565D01*
X104368Y099476D02*
X104408Y099516D01*
X104368Y099122D02*
Y099476D01*
X105786Y099122D02*
X105943D01*
X104368D02*
X104565D01*
X106757Y098347D02*
X10677Y098334D01*
Y09361D02*
Y098334D01*
X104565Y098347D02*
Y099516D01*
X105746D01*
Y098347D02*
Y099516D01*
X10619Y098347D02*
X106757D01*
X104171D02*
X10614D01*
Y09361D02*
Y098297D01*
X096988Y06241D02*
X098957D01*
X096988Y057723D02*
Y06241D01*
X09439D02*
X096988D01*
Y057673D02*
Y06241D01*
X098957Y057673D02*
Y06241D01*
X096988Y057673D02*
X098957D01*
X097382Y056504D02*
Y057673D01*
Y056504D02*
X098563Y056505D01*
Y057673D01*
Y056898D02*
X09876D01*
X097185Y056898D02*
X097343Y056898D01*
X09876Y056544D02*
Y056898D01*
X098721Y056504D02*
X09876Y056544D01*
X098563Y056505D02*
X098721Y056504D01*
X097185Y056544D02*
Y056898D01*
X097225Y056504D02*
X098563Y056505D01*
X097185Y056544D02*
X097225Y056504D01*
X095217Y056544D02*
X095256Y056505D01*
X096595D01*
X095217Y056544D02*
Y056898D01*
X096595Y056505D02*
X096752D01*
X096792Y056544D01*
Y056898D01*
X095217D02*
X095374D01*
X096595D02*
X096792D01*
X09439Y057686D02*
X094403Y057673D01*
X09439Y057686D02*
Y06241D01*
X096595Y056505D02*
Y057673D01*
X095414Y056504D02*
X096595Y056505D01*
X095414Y056504D02*
Y057673D01*
X094403D02*
X09497D01*
X09502D02*
X096988D01*
X09502Y057723D02*
Y06241D01*
X090507D02*
X092476D01*
X090507Y057723D02*
Y06241D01*
X087909D02*
X090507D01*
Y057673D02*
Y06241D01*
X092476Y057673D02*
Y06241D01*
X090507Y057673D02*
X092476D01*
X090901Y056504D02*
Y057673D01*
Y056504D02*
X092082Y056505D01*
Y057673D01*
Y056898D02*
X092279D01*
X090704Y056898D02*
X090861Y056898D01*
X092279Y056544D02*
Y056898D01*
X092239Y056504D02*
X092279Y056544D01*
X092082Y056505D02*
X092239Y056504D01*
X090704Y056544D02*
Y056898D01*
X090743Y056504D02*
X092082Y056505D01*
X090704Y056544D02*
X090743Y056504D01*
X088735Y056544D02*
X088775Y056505D01*
X090113D01*
X088735Y056544D02*
Y056898D01*
X090113Y056505D02*
X090271D01*
X09031Y056544D01*
Y056898D01*
X088735D02*
X088893D01*
X090113D02*
X09031D01*
X087909Y057686D02*
X087921Y057673D01*
X087909Y057686D02*
Y06241D01*
X090113Y056505D02*
Y057673D01*
X088932Y056504D02*
X090113Y056505D01*
X088932Y056504D02*
Y057673D01*
X087921D02*
X088489D01*
X088539D02*
X090507D01*
X088539Y057723D02*
Y06241D01*
X084026D02*
X085994D01*
X084026Y057723D02*
Y06241D01*
X081427D02*
X084026D01*
Y057673D02*
Y06241D01*
X085994Y057673D02*
Y06241D01*
X084026Y057673D02*
X085994D01*
X084419Y056504D02*
Y057673D01*
Y056504D02*
X0856Y056505D01*
Y057673D01*
Y056898D02*
X085797D01*
X084222Y056898D02*
X08438Y056898D01*
X085797Y056544D02*
Y056898D01*
X085758Y056504D02*
X085797Y056544D01*
X0856Y056505D02*
X085758Y056504D01*
X084222Y056544D02*
Y056898D01*
X084262Y056504D02*
X0856Y056505D01*
X084222Y056544D02*
X084262Y056504D01*
X082254Y056544D02*
X082293Y056505D01*
X083632D01*
X082254Y056898D02*
X082254Y056544D01*
X083632Y056505D02*
X083789D01*
X083829Y056544D01*
Y056898D01*
X082254D02*
X082411D01*
X083632D02*
X083829D01*
X081427Y057686D02*
X08144Y057673D01*
X081427Y057686D02*
Y06241D01*
X083632Y056505D02*
Y057673D01*
X082451Y056504D02*
X083632Y056505D01*
X082451Y056504D02*
Y057673D01*
X08144D02*
X082007D01*
X082057D02*
X084026D01*
X082057Y057723D02*
Y06241D01*
X077544D02*
X079513D01*
X077544Y057723D02*
Y06241D01*
X074946D02*
X077544D01*
Y057673D02*
Y06241D01*
X079513Y057673D02*
Y06241D01*
X077544Y057673D02*
X079513D01*
X077938Y056504D02*
Y057673D01*
Y056504D02*
X079119Y056505D01*
Y057673D01*
Y056898D02*
X079316D01*
X077741Y056898D02*
X077899Y056898D01*
X079316Y056544D02*
Y056898D01*
X079276Y056504D02*
X079316Y056544D01*
X079119Y056505D02*
X079276Y056504D01*
X077741Y056544D02*
Y056898D01*
X07778Y056504D02*
X079119Y056505D01*
X077741Y056544D02*
X07778Y056504D01*
X075773Y056544D02*
X075812Y056505D01*
X077151D01*
X075773Y056544D02*
Y056898D01*
X077151Y056505D02*
X077308D01*
X077347Y056544D01*
Y056898D01*
X075773D02*
X07593D01*
X077151D02*
X077347D01*
X074946Y057686D02*
X074958Y057673D01*
X074946Y057686D02*
Y06241D01*
X077151Y056505D02*
Y057673D01*
X075969Y056504D02*
X077151Y056505D01*
X075969Y056504D02*
Y057673D01*
X074958D02*
X075526D01*
X075576D02*
X077544D01*
X075576Y057723D02*
Y06241D01*
X071063D02*
X073031D01*
X071063Y057723D02*
Y06241D01*
X068464D02*
X071063D01*
Y057673D02*
Y06241D01*
X073031Y057673D02*
Y06241D01*
X071063Y057673D02*
X073031D01*
X071456Y056504D02*
Y057673D01*
Y056504D02*
X072638Y056505D01*
Y057673D01*
Y056898D02*
X072834D01*
X07126Y056898D02*
X071417Y056898D01*
X072834Y056544D02*
Y056898D01*
X072795Y056504D02*
X072834Y056544D01*
X072638Y056505D02*
X072795Y056504D01*
X07126Y056544D02*
Y056898D01*
X071299Y056504D02*
X072638Y056505D01*
X07126Y056544D02*
X071299Y056504D01*
X069291Y056544D02*
X069331Y056505D01*
X070669D01*
X069291Y056544D02*
Y056898D01*
X070669Y056505D02*
X070827D01*
X070866Y056544D01*
Y056898D01*
X069291D02*
X069449D01*
X070669D02*
X070866D01*
X068464Y057686D02*
X068477Y057673D01*
X068464Y057686D02*
Y06241D01*
X070669Y056505D02*
Y057673D01*
X069488Y056504D02*
X070669Y056505D01*
X069488Y056504D02*
Y057673D01*
X068477D02*
X069044D01*
X069094D02*
X071063D01*
X069094Y057723D02*
Y06241D01*
X064581D02*
X06655D01*
X064581Y057723D02*
Y06241D01*
X061983D02*
X064581D01*
Y057673D02*
Y06241D01*
X06655Y057673D02*
Y06241D01*
X064581Y057673D02*
X06655D01*
X064975Y056504D02*
Y057673D01*
Y056504D02*
X066156Y056505D01*
Y057673D01*
Y056898D02*
X066353D01*
X064778Y056898D02*
X064936Y056898D01*
X066353Y056544D02*
Y056898D01*
X066314Y056504D02*
X066353Y056544D01*
X066156Y056505D02*
X066314Y056504D01*
X064778Y056544D02*
Y056898D01*
X064818Y056504D02*
X066156Y056505D01*
X064778Y056544D02*
X064818Y056504D01*
X06281Y056544D02*
X062849Y056505D01*
X064188D01*
X06281Y056544D02*
Y056898D01*
X064188Y056505D02*
X064345D01*
X064385Y056544D01*
Y056898D01*
X06281D02*
X062967D01*
X064188D02*
X064385D01*
X061983Y057686D02*
X061996Y057673D01*
X061983Y057686D02*
Y06241D01*
X064188Y056505D02*
Y057673D01*
X063007Y056504D02*
X064188Y056505D01*
X063007Y056504D02*
Y057673D01*
X061996D02*
X062563D01*
X062613D02*
X064581D01*
X062613Y057723D02*
Y06241D01*
X0581D02*
X060068D01*
X0581Y057723D02*
Y06241D01*
X055501D02*
X0581D01*
Y057673D02*
Y06241D01*
X060068Y057673D02*
Y06241D01*
X0581Y057673D02*
X060068D01*
X058494Y056504D02*
Y057673D01*
Y056504D02*
X059675Y056505D01*
Y057673D01*
Y056898D02*
X059872D01*
X058297Y056898D02*
X058454Y056898D01*
X059872Y056544D02*
Y056898D01*
X059832Y056504D02*
X059872Y056544D01*
X059675Y056505D02*
X059832Y056504D01*
X058297Y056544D02*
Y056898D01*
X058336Y056504D02*
X059675Y056505D01*
X058297Y056544D02*
X058336Y056504D01*
X056328Y056544D02*
X056368Y056505D01*
X057706D01*
X056328Y056544D02*
Y056898D01*
X057706Y056505D02*
X057864D01*
X057903Y056544D01*
Y056898D01*
X056328D02*
X056486D01*
X057706D02*
X057903D01*
X055501Y057686D02*
X055514Y057673D01*
X055501Y057686D02*
Y06241D01*
X057706Y056505D02*
Y057673D01*
X056525Y056504D02*
X057706Y056505D01*
X056525Y056504D02*
Y057673D01*
X055514D02*
X056081D01*
X056131D02*
X0581D01*
X056131Y057723D02*
Y06241D01*
X104149D02*
X106117D01*
X104149Y057723D02*
Y06241D01*
X10155D02*
X104149D01*
Y057673D02*
Y06241D01*
X106117Y057673D02*
Y06241D01*
X104149Y057673D02*
X106117D01*
X104542Y056504D02*
Y057673D01*
Y056504D02*
X105723Y056505D01*
Y057673D01*
Y056898D02*
X10592D01*
X104345Y056898D02*
X104503Y056898D01*
X10592Y056544D02*
Y056898D01*
X105881Y056504D02*
X10592Y056544D01*
X105723Y056505D02*
X105881Y056504D01*
X104345Y056544D02*
Y056898D01*
X104385Y056504D02*
X105723Y056505D01*
X104345Y056544D02*
X104385Y056504D01*
X102377Y056544D02*
X102416Y056505D01*
X103755D01*
X102377Y056898D02*
X102377Y056544D01*
X103755Y056505D02*
X103912D01*
X103952Y056544D01*
Y056898D01*
X102377D02*
X102534D01*
X103755D02*
X103952D01*
X10155Y057686D02*
X101563Y057673D01*
X10155Y057686D02*
Y06241D01*
X103755Y056505D02*
Y057673D01*
X102574Y056504D02*
X103755Y056505D01*
X102574Y056504D02*
Y057673D01*
X101563D02*
X10213D01*
X10218D02*
X104149D01*
X10218Y057723D02*
Y06241D01*
X051618D02*
X053587D01*
X051618Y057723D02*
Y06241D01*
X04902D02*
X051618D01*
Y057673D02*
Y06241D01*
X053587Y057673D02*
Y06241D01*
X051618Y057673D02*
X053587D01*
X052012Y056504D02*
Y057673D01*
Y056504D02*
X053193Y056505D01*
Y057673D01*
Y056898D02*
X05339D01*
X051815Y056898D02*
X051973Y056898D01*
X05339Y056544D02*
Y056898D01*
X053351Y056504D02*
X05339Y056544D01*
X053193Y056505D02*
X053351Y056504D01*
X051815Y056544D02*
Y056898D01*
X051855Y056504D02*
X053193Y056505D01*
X051815Y056544D02*
X051855Y056504D01*
X049847Y056544D02*
X049886Y056505D01*
X051225D01*
X049847Y056898D02*
X049847Y056544D01*
X051225Y056505D02*
X051382D01*
X051422Y056544D01*
Y056898D01*
X049847D02*
X050004D01*
X051225D02*
X051422D01*
X04902Y057686D02*
X049033Y057673D01*
X04902Y057686D02*
Y06241D01*
X051225Y056505D02*
Y057673D01*
X050044Y056504D02*
X051225Y056505D01*
X050044Y056504D02*
Y057673D01*
X049033D02*
X0496D01*
X04965D02*
X051618D01*
X04965Y057723D02*
Y06241D01*
X054695Y09361D02*
Y098297D01*
X052727Y098347D02*
X054695D01*
X054745D02*
X055312D01*
X054301D02*
Y099516D01*
X05312D02*
X054301D01*
X05312Y098347D02*
Y099516D01*
X055325Y09361D02*
Y098334D01*
X055312Y098347D02*
X055325Y098334D01*
X052923Y099122D02*
X05312D01*
X054341D02*
X054498D01*
X052923D02*
Y099476D01*
X052963Y099516D01*
X05312D01*
X054498Y099476D02*
X054498Y099122D01*
X05312Y099516D02*
X054459D01*
X054498Y099476D01*
X05249Y099516D02*
X05253Y099476D01*
X051152Y099516D02*
X05249D01*
X05253Y099122D02*
Y099476D01*
X050994Y099516D02*
X051152D01*
X050955Y099476D02*
X050994Y099516D01*
X050955Y099122D02*
Y099476D01*
X052372Y099122D02*
X05253D01*
X050955D02*
X051152D01*
Y098347D02*
Y099516D01*
X052333D01*
Y098347D02*
Y099516D01*
X050758Y098347D02*
X052727D01*
X050758Y09361D02*
Y098347D01*
X052727Y09361D02*
Y098347D01*
Y09361D02*
X055325D01*
X052727D02*
Y098297D01*
X050758Y09361D02*
X052727D01*
X061178D02*
Y098297D01*
X05921Y098347D02*
X061178D01*
X061228D02*
X061796D01*
X060785D02*
Y099516D01*
X059604D02*
X060785D01*
X059604Y098347D02*
Y099516D01*
X061808Y09361D02*
Y098334D01*
X061796Y098347D02*
X061808Y098334D01*
X059407Y099122D02*
X059604D01*
X060824D02*
X060982D01*
X059407D02*
Y099476D01*
X059446Y099516D01*
X059604D01*
X060982Y099122D02*
Y099476D01*
X059604Y099516D02*
X060942D01*
X060982Y099476D01*
X058974Y099516D02*
X059013Y099476D01*
X057635Y099516D02*
X058974D01*
X059013Y099122D02*
Y099476D01*
X057478Y099516D02*
X057635D01*
X057438Y099476D02*
X057478Y099516D01*
X057438Y099122D02*
Y099476D01*
X058856Y099122D02*
X059013D01*
X057438D02*
X057635D01*
Y098347D02*
Y099516D01*
X058816D01*
Y098347D02*
Y099516D01*
X057241Y098347D02*
X05921D01*
X057241Y09361D02*
Y098347D01*
X05921Y09361D02*
Y098347D01*
Y09361D02*
X061808D01*
X05921D02*
Y098297D01*
X057241Y09361D02*
X05921D01*
X067662D02*
Y098297D01*
X065693Y098347D02*
X067662D01*
X067712D02*
X068279D01*
X067268D02*
Y099516D01*
X066087D02*
X067268D01*
X066087Y098347D02*
Y099516D01*
X068292Y09361D02*
Y098334D01*
X068279Y098347D02*
X068292Y098334D01*
X06589Y099122D02*
X066087D01*
X067307D02*
X067465D01*
X06589D02*
Y099476D01*
X065929Y099516D01*
X066087D01*
X067465Y099122D02*
Y099476D01*
X066087Y099516D02*
X067426D01*
X067465Y099476D01*
X065457Y099516D02*
X065496Y099476D01*
X064118Y099516D02*
X065457D01*
X065496Y099122D02*
Y099476D01*
X063961Y099516D02*
X064118D01*
X063922Y099476D02*
X063961Y099516D01*
X063922Y099122D02*
Y099476D01*
X065339Y099122D02*
X065496D01*
X063922D02*
X064118D01*
Y098347D02*
Y099516D01*
X0653D01*
Y098347D02*
Y099516D01*
X063725Y098347D02*
X065693D01*
X063725Y09361D02*
Y098347D01*
X065693Y09361D02*
Y098347D01*
Y09361D02*
X068292D01*
X065693D02*
Y098297D01*
X063725Y09361D02*
X065693D01*
X074145D02*
Y098297D01*
X072177Y098347D02*
X074145D01*
X074195D02*
X074762D01*
X073751D02*
Y099516D01*
X07257D02*
X073751D01*
X07257Y098347D02*
Y099516D01*
X074775Y09361D02*
Y098334D01*
X074762Y098347D02*
X074775Y098334D01*
X072373Y099122D02*
X07257D01*
X073791D02*
X073948D01*
X072373D02*
Y099476D01*
X072413Y099516D01*
X07257D01*
X073948Y099122D02*
Y099476D01*
X07257Y099516D02*
X073909D01*
X073948Y099476D01*
X07194Y099516D02*
X07198Y099476D01*
X070602Y099516D02*
X07194D01*
X07198Y099122D02*
Y099476D01*
X070444Y099516D02*
X070602D01*
X070405Y099476D02*
X070444Y099516D01*
X070405Y099122D02*
Y099476D01*
X071822Y099122D02*
X07198D01*
X070405D02*
X070602D01*
Y098347D02*
Y099516D01*
X071783D01*
Y098347D02*
Y099516D01*
X070208Y098347D02*
X072177D01*
X070208Y09361D02*
Y098347D01*
X072177Y09361D02*
Y098347D01*
Y09361D02*
X074775D01*
X072177D02*
Y098297D01*
X070208Y09361D02*
X072177D01*
X080735D02*
Y098297D01*
X078767Y098347D02*
X080735D01*
X080785D02*
X081352D01*
X080341D02*
Y099516D01*
X07916D02*
X080341D01*
X07916Y098347D02*
Y099516D01*
X081365Y09361D02*
Y098334D01*
X081352Y098347D02*
X081365Y098334D01*
X078963Y099122D02*
X07916D01*
X080381D02*
X080538D01*
X078963D02*
Y099476D01*
X079003Y099516D01*
X07916D01*
X080538Y099122D02*
Y099476D01*
X07916Y099516D02*
X080499D01*
X080538Y099476D01*
X07853Y099516D02*
X07857Y099476D01*
X077192Y099516D02*
X07853D01*
X07857Y099122D02*
Y099476D01*
X077034Y099516D02*
X077192D01*
X076995Y099476D02*
X077034Y099516D01*
X076995Y099122D02*
Y099476D01*
X078412Y099122D02*
X07857D01*
X076995D02*
X077192D01*
Y098347D02*
Y099516D01*
X078373D01*
Y098347D02*
Y099516D01*
X076798Y098347D02*
X078767D01*
X076798Y09361D02*
Y098347D01*
X078767Y09361D02*
Y098347D01*
Y09361D02*
X081365D01*
X078767D02*
Y098297D01*
X076798Y09361D02*
X078767D01*
X093635D02*
Y098297D01*
X091667Y098347D02*
X093635D01*
X093685D02*
X094252D01*
X093241D02*
Y099516D01*
X09206D02*
X093241D01*
X09206Y098347D02*
Y099516D01*
X094265Y09361D02*
Y098334D01*
X094252Y098347D02*
X094265Y098334D01*
X091863Y099122D02*
X09206D01*
X093281D02*
X093438D01*
X091863D02*
Y099476D01*
X091903Y099516D01*
X09206D01*
X093438Y099122D02*
Y099476D01*
X09206Y099516D02*
X093399D01*
X093438Y099476D01*
X09143Y099516D02*
X09147Y099476D01*
X090092Y099516D02*
X09143D01*
X09147Y099122D02*
Y099476D01*
X089934Y099516D02*
X090092D01*
X089895Y099476D02*
X089934Y099516D01*
X089895Y099122D02*
Y099476D01*
X091312Y099122D02*
X09147D01*
X089895D02*
X090092D01*
Y098347D02*
Y099516D01*
X091273D01*
Y098347D02*
Y099516D01*
X089698Y098347D02*
X091667D01*
X089698Y09361D02*
Y098347D01*
X091667Y09361D02*
Y098347D01*
Y09361D02*
X094265D01*
X091667D02*
Y098297D01*
X089698Y09361D02*
X091667D01*
X100085D02*
Y098297D01*
X098117Y098347D02*
X100085D01*
X100135D02*
X100702D01*
X099691D02*
Y099516D01*
X09851D02*
X099691D01*
X09851Y098347D02*
Y099516D01*
X100715Y09361D02*
Y098334D01*
X100702Y098347D02*
X100715Y098334D01*
X098313Y099122D02*
X09851D01*
X099731D02*
X099888D01*
X098313D02*
Y099476D01*
X098353Y099516D01*
X09851D01*
X099888Y099122D02*
Y099476D01*
X09851Y099516D02*
X099849D01*
X099888Y099476D01*
X09788Y099516D02*
X09792Y099476D01*
X096542Y099516D02*
X09788D01*
X09792Y099122D02*
Y099476D01*
X096384Y099516D02*
X096542D01*
X096345Y099476D02*
X096384Y099516D01*
X096345Y099122D02*
Y099476D01*
X097762Y099122D02*
X09792D01*
X096345D02*
X096542D01*
Y098347D02*
Y099516D01*
X097723D01*
Y098347D02*
Y099516D01*
X096148Y098347D02*
X098117D01*
X096148Y09361D02*
Y098347D01*
X098117Y09361D02*
Y098347D01*
Y09361D02*
X100715D01*
X098117D02*
Y098297D01*
X096148Y09361D02*
X098117D01*
X087185D02*
Y098297D01*
X085217Y098347D02*
X087185D01*
X087235D02*
X087802D01*
X086791D02*
Y099516D01*
X08561D02*
X086791D01*
X08561Y098347D02*
Y099516D01*
X087815Y09361D02*
Y098334D01*
X087802Y098347D02*
X087815Y098334D01*
X085413Y099122D02*
X08561D01*
X086831D02*
X086988D01*
X085413D02*
Y099476D01*
X085453Y099516D01*
X08561D01*
X086988Y099122D02*
Y099476D01*
X08561Y099516D02*
X086949D01*
X086988Y099476D01*
X08498Y099516D02*
X08502Y099476D01*
X083642Y099516D02*
X08498D01*
X08502Y099122D02*
Y099476D01*
X083484Y099516D02*
X083642D01*
X083445Y099476D02*
X083484Y099516D01*
X083445Y099122D02*
Y099476D01*
X084862Y099122D02*
X08502D01*
X083445D02*
X083642D01*
Y098347D02*
Y099516D01*
X084823D01*
Y098347D02*
Y099516D01*
X083248Y098347D02*
X085217D01*
X083248Y09361D02*
Y098347D01*
X085217Y09361D02*
Y098347D01*
Y09361D02*
X087815D01*
X085217D02*
Y098297D01*
X083248Y09361D02*
X085217D01*
X10475Y085385D02*
Y08507D01*
X104907D01*
X10496Y085122D01*
Y085332D01*
X104907Y085385D01*
X10475D01*
X105275Y085332D02*
X105222Y085385D01*
X105117D01*
X105065Y085332D01*
Y08528D01*
X105117Y085227D01*
X105222D01*
X105275Y085175D01*
Y085122D01*
X105222Y08507D01*
X105117D01*
X105065Y085122D01*
X10462Y079655D02*
Y07934D01*
Y079497D01*
X10483D01*
Y079655D01*
Y07934D01*
X104935Y079655D02*
Y07934D01*
X105092D01*
X105145Y079392D01*
Y079602D01*
X105092Y079655D01*
X104935D01*
X10525Y07934D02*
X105355D01*
X105302D01*
Y079655D01*
X10525Y079602D01*
X105512Y079655D02*
X105722D01*
Y079602D01*
X105512Y079392D01*
Y07934D01*
X09898Y08096D02*
Y081275D01*
X099137D01*
X09919Y081222D01*
Y081117D01*
X099137Y081065D01*
X09898D01*
X099085D02*
X09919Y08096D01*
X099295Y081222D02*
X099347Y081275D01*
X099452D01*
X099505Y081222D01*
Y08117D01*
X099452Y081117D01*
X099505Y081065D01*
Y081012D01*
X099452Y08096D01*
X099347D01*
X099295Y081012D01*
Y081065D01*
X099347Y081117D01*
X099295Y08117D01*
Y081222D01*
X099347Y081117D02*
X099452D01*
X09262Y08093D02*
Y081245D01*
X092777D01*
X09283Y081192D01*
Y081087D01*
X092777Y081035D01*
X09262D01*
X092725D02*
X09283Y08093D01*
X092935Y081245D02*
X093145D01*
Y081192D01*
X092935Y080982D01*
Y08093D01*
X0859Y08094D02*
Y081255D01*
X086057D01*
X08611Y081202D01*
Y081097D01*
X086057Y081045D01*
X0859D01*
X086005D02*
X08611Y08094D01*
X086425Y081255D02*
X08632Y081202D01*
X086215Y081097D01*
Y080992D01*
X086267Y08094D01*
X086372D01*
X086425Y080992D01*
Y081045D01*
X086372Y081097D01*
X086215D01*
X07969Y08096D02*
Y081275D01*
X079847D01*
X0799Y081222D01*
Y081117D01*
X079847Y081065D01*
X07969D01*
X079795D02*
X0799Y08096D01*
X080215Y081275D02*
X080005D01*
Y081117D01*
X08011Y08117D01*
X080162D01*
X080215Y081117D01*
Y081012D01*
X080162Y08096D01*
X080057D01*
X080005Y081012D01*
X07304Y080925D02*
Y08124D01*
X073197D01*
X07325Y081187D01*
Y081082D01*
X073197Y08103D01*
X07304D01*
X073145D02*
X07325Y080925D01*
X073512D02*
Y08124D01*
X073355Y081082D01*
X073565D01*
X06664Y080975D02*
Y08129D01*
X066797D01*
X06685Y081237D01*
Y081132D01*
X066797Y08108D01*
X06664D01*
X066745D02*
X06685Y080975D01*
X066955Y081237D02*
X067007Y08129D01*
X067112D01*
X067165Y081237D01*
Y081185D01*
X067112Y081132D01*
X06706D01*
X067112D01*
X067165Y08108D01*
Y081027D01*
X067112Y080975D01*
X067007D01*
X066955Y081027D01*
X06014Y080975D02*
Y08129D01*
X060297D01*
X06035Y081237D01*
Y081132D01*
X060297Y08108D01*
X06014D01*
X060245D02*
X06035Y080975D01*
X060665D02*
X060455D01*
X060665Y081185D01*
Y081237D01*
X060612Y08129D01*
X060507D01*
X060455Y081237D01*
X05374Y08098D02*
Y081295D01*
X053897D01*
X05395Y081242D01*
Y081137D01*
X053897Y081085D01*
X05374D01*
X053845D02*
X05395Y08098D01*
X054055D02*
X05416D01*
X054107D01*
Y081295D01*
X054055Y081242D01*
X0971Y081275D02*
Y08096D01*
X09731D01*
X097625Y081275D02*
X097415D01*
Y08096D01*
X097625D01*
X097415Y081117D02*
X09752D01*
X09773Y081275D02*
Y08096D01*
X097887D01*
X09794Y081012D01*
Y081222D01*
X097887Y081275D01*
X09773D01*
X098045Y081222D02*
X098097Y081275D01*
X098202D01*
X098254Y081222D01*
Y08117D01*
X098202Y081117D01*
X098254Y081065D01*
Y081012D01*
X098202Y08096D01*
X098097D01*
X098045Y081012D01*
Y081065D01*
X098097Y081117D01*
X098045Y08117D01*
Y081222D01*
X098097Y081117D02*
X098202D01*
X09056Y081285D02*
Y08097D01*
X09077D01*
X091085Y081285D02*
X090875D01*
Y08097D01*
X091085D01*
X090875Y081127D02*
X09098D01*
X09119Y081285D02*
Y08097D01*
X091347D01*
X0914Y081022D01*
Y081232D01*
X091347Y081285D01*
X09119D01*
X091505D02*
X091714D01*
Y081232D01*
X091505Y081022D01*
Y08097D01*
X08411Y081255D02*
Y08094D01*
X08432D01*
X084635Y081255D02*
X084425D01*
Y08094D01*
X084635D01*
X084425Y081097D02*
X08453D01*
X08474Y081255D02*
Y08094D01*
X084897D01*
X08495Y080992D01*
Y081202D01*
X084897Y081255D01*
X08474D01*
X085264D02*
X08516Y081202D01*
X085055Y081097D01*
Y080992D01*
X085107Y08094D01*
X085212D01*
X085264Y080992D01*
Y081045D01*
X085212Y081097D01*
X085055D01*
X07769Y081275D02*
Y08096D01*
X0779D01*
X078215Y081275D02*
X078005D01*
Y08096D01*
X078215D01*
X078005Y081117D02*
X07811D01*
X07832Y081275D02*
Y08096D01*
X078477D01*
X07853Y081012D01*
Y081222D01*
X078477Y081275D01*
X07832D01*
X078844D02*
X078635D01*
Y081117D01*
X07874Y08117D01*
X078792D01*
X078844Y081117D01*
Y081012D01*
X078792Y08096D01*
X078687D01*
X078635Y081012D01*
X07109Y08129D02*
Y080975D01*
X0713D01*
X071615Y08129D02*
X071405D01*
Y080975D01*
X071615D01*
X071405Y081132D02*
X07151D01*
X07172Y08129D02*
Y080975D01*
X071877D01*
X07193Y081027D01*
Y081237D01*
X071877Y08129D01*
X07172D01*
X072192Y080975D02*
Y08129D01*
X072035Y081132D01*
X072244D01*
X06469Y08129D02*
Y080975D01*
X0649D01*
X065215Y08129D02*
X065005D01*
Y080975D01*
X065215D01*
X065005Y081132D02*
X06511D01*
X06532Y08129D02*
Y080975D01*
X065477D01*
X06553Y081027D01*
Y081237D01*
X065477Y08129D01*
X06532D01*
X065635Y081237D02*
X065687Y08129D01*
X065792D01*
X065844Y081237D01*
Y081185D01*
X065792Y081132D01*
X06574D01*
X065792D01*
X065844Y08108D01*
Y081027D01*
X065792Y080975D01*
X065687D01*
X065635Y081027D01*
X05814Y081295D02*
Y08098D01*
X05835D01*
X058665Y081295D02*
X058455D01*
Y08098D01*
X058665D01*
X058455Y081137D02*
X05856D01*
X05877Y081295D02*
Y08098D01*
X058927D01*
X05898Y081032D01*
Y081242D01*
X058927Y081295D01*
X05877D01*
X059294Y08098D02*
X059085D01*
X059294Y08119D01*
Y081242D01*
X059242Y081295D01*
X059137D01*
X059085Y081242D01*
X05174Y081295D02*
Y08098D01*
X05195D01*
X052265Y081295D02*
X052055D01*
Y08098D01*
X052265D01*
X052055Y081137D02*
X05216D01*
X05237Y081295D02*
Y08098D01*
X052527D01*
X05258Y081032D01*
Y081242D01*
X052527Y081295D01*
X05237D01*
X052685Y08098D02*
X05279D01*
X052737D01*
Y081295D01*
X052685Y081242D01*
X08037Y078045D02*
Y077782D01*
X080422Y07773D01*
X080527D01*
X08058Y077782D01*
Y078045D01*
X080685D02*
Y07773D01*
X080895D01*
X081D02*
Y078045D01*
X08121Y07773D01*
Y078045D01*
X081315Y07773D02*
X08142D01*
X081367D01*
Y078045D01*
X081315Y077992D01*
X103235Y07957D02*
X10355D01*
Y079413D01*
X103497Y07936D01*
X103392D01*
X10334Y079413D01*
Y07957D01*
Y079465D02*
X103235Y07936D01*
Y079255D02*
X10355D01*
X103235Y079045D01*
X10355D01*
Y07873D02*
X103497Y078835D01*
X103392Y07894D01*
X103287D01*
X103235Y078888D01*
Y078783D01*
X103287Y07873D01*
X10334D01*
X103392Y078783D01*
Y07894D01*
X103245Y07783D02*
X10356D01*
Y077673D01*
X103507Y07762D01*
X103402D01*
X10335Y077673D01*
Y07783D01*
Y077725D02*
X103245Y07762D01*
Y077515D02*
X10356D01*
X103245Y077305D01*
X10356D01*
X103245Y077043D02*
X10356D01*
X103402Y0772D01*
Y07699D01*
X08538Y0784D02*
X085065D01*
Y078557D01*
X085118Y07861D01*
X085223D01*
X085275Y078557D01*
Y0784D01*
Y078505D02*
X08538Y07861D01*
Y078715D02*
X085065D01*
X08538Y078925D01*
X085065D01*
Y07924D02*
Y07903D01*
X085223D01*
X08517Y079135D01*
Y079187D01*
X085223Y07924D01*
X085328D01*
X08538Y079187D01*
Y079082D01*
X085328Y07903D01*
X09223Y07591D02*
X091915D01*
Y076067D01*
X091968Y07612D01*
X092073D01*
X092125Y076067D01*
Y07591D01*
Y076015D02*
X09223Y07612D01*
Y076225D02*
X091915D01*
X09223Y076435D01*
X091915D01*
X09223Y07675D02*
Y07654D01*
X09202Y07675D01*
X091968D01*
X091915Y076697D01*
Y076592D01*
X091968Y07654D01*
X08535Y07643D02*
X085035D01*
Y076587D01*
X085088Y07664D01*
X085193D01*
X085245Y076587D01*
Y07643D01*
Y076535D02*
X08535Y07664D01*
Y076745D02*
X085035D01*
X08535Y076955D01*
X085035D01*
X085088Y07706D02*
X085035Y077112D01*
Y077217D01*
X085088Y07727D01*
X08514D01*
X085193Y077217D01*
Y077165D01*
Y077217D01*
X085245Y07727D01*
X085298D01*
X08535Y077217D01*
Y077112D01*
X085298Y07706D01*
X08796Y076D02*
X087645D01*
Y076157D01*
X087698Y07621D01*
X087803D01*
X087855Y076157D01*
Y076D01*
Y076105D02*
X08796Y07621D01*
Y076315D02*
X087645D01*
X08796Y076525D01*
X087645D01*
X08796Y07663D02*
Y076735D01*
Y076682D01*
X087645D01*
X087698Y07663D01*
X09714Y08643D02*
Y086745D01*
X097297D01*
X09735Y086692D01*
Y086587D01*
X097297Y086535D01*
X09714D01*
X097245D02*
X09735Y08643D01*
X097455Y086745D02*
Y08643D01*
X097665D01*
X09777Y086692D02*
X097822Y086745D01*
X097927D01*
X09798Y086692D01*
Y08664D01*
X097927Y086587D01*
X09798Y086535D01*
Y086482D01*
X097927Y08643D01*
X097822D01*
X09777Y086482D01*
Y086535D01*
X097822Y086587D01*
X09777Y08664D01*
Y086692D01*
X097822Y086587D02*
X097927D01*
X09068Y08628D02*
Y086595D01*
X090837D01*
X09089Y086542D01*
Y086437D01*
X090837Y086385D01*
X09068D01*
X090785D02*
X09089Y08628D01*
X090995Y086595D02*
Y08628D01*
X091205D01*
X09131Y086595D02*
X09152D01*
Y086542D01*
X09131Y086332D01*
Y08628D01*
X0842Y08637D02*
Y086685D01*
X084357D01*
X08441Y086632D01*
Y086527D01*
X084357Y086475D01*
X0842D01*
X084305D02*
X08441Y08637D01*
X084515Y086685D02*
Y08637D01*
X084725D01*
X08504Y086685D02*
X084935Y086632D01*
X08483Y086527D01*
Y086422D01*
X084882Y08637D01*
X084987D01*
X08504Y086422D01*
Y086475D01*
X084987Y086527D01*
X08483D01*
X07774Y08643D02*
Y086745D01*
X077897D01*
X07795Y086692D01*
Y086587D01*
X077897Y086535D01*
X07774D01*
X077845D02*
X07795Y08643D01*
X078055Y086745D02*
Y08643D01*
X078265D01*
X07858Y086745D02*
X07837D01*
Y086587D01*
X078475Y08664D01*
X078527D01*
X07858Y086587D01*
Y086482D01*
X078527Y08643D01*
X078422D01*
X07837Y086482D01*
X07134Y0864D02*
Y086715D01*
X071497D01*
X07155Y086662D01*
Y086557D01*
X071497Y086505D01*
X07134D01*
X071445D02*
X07155Y0864D01*
X071655Y086715D02*
Y0864D01*
X071865D01*
X072127D02*
Y086715D01*
X07197Y086557D01*
X07218D01*
X0648Y08643D02*
Y086745D01*
X064957D01*
X06501Y086692D01*
Y086587D01*
X064957Y086535D01*
X0648D01*
X064905D02*
X06501Y08643D01*
X065115Y086745D02*
Y08643D01*
X065325D01*
X06543Y086692D02*
X065482Y086745D01*
X065587D01*
X06564Y086692D01*
Y08664D01*
X065587Y086587D01*
X065535D01*
X065587D01*
X06564Y086535D01*
Y086482D01*
X065587Y08643D01*
X065482D01*
X06543Y086482D01*
X05837Y08643D02*
Y086745D01*
X058527D01*
X05858Y086692D01*
Y086587D01*
X058527Y086535D01*
X05837D01*
X058475D02*
X05858Y08643D01*
X058685Y086745D02*
Y08643D01*
X058895D01*
X05921D02*
X059D01*
X05921Y08664D01*
Y086692D01*
X059157Y086745D01*
X059052D01*
X059Y086692D01*
X05186Y08643D02*
Y086745D01*
X052017D01*
X05207Y086692D01*
Y086587D01*
X052017Y086535D01*
X05186D01*
X051965D02*
X05207Y08643D01*
X052175Y086745D02*
Y08643D01*
X052385D01*
X05249D02*
X052595D01*
X052542D01*
Y086745D01*
X05249Y086692D01*
X092707Y079235D02*
X092602D01*
X09255Y079182D01*
Y078972D01*
X092602Y07892D01*
X092707D01*
X09276Y078972D01*
Y079182D01*
X092707Y079235D01*
X092865Y07892D02*
Y079235D01*
X093022D01*
X093075Y079182D01*
Y079077D01*
X093022Y079025D01*
X092865D01*
X09318Y079235D02*
X09339D01*
X093285D01*
Y07892D01*
X093652Y079235D02*
X093547D01*
X093495Y079182D01*
Y078972D01*
X093547Y07892D01*
X093652D01*
X093704Y078972D01*
Y079182D01*
X093652Y079235D01*
X094019Y07892D02*
X093809D01*
X094019Y07913D01*
Y079182D01*
X093967Y079235D01*
X093862D01*
X093809Y079182D01*
X088537Y079265D02*
X088432D01*
X08838Y079212D01*
Y079002D01*
X088432Y07895D01*
X088537D01*
X08859Y079002D01*
Y079212D01*
X088537Y079265D01*
X088695Y07895D02*
Y079265D01*
X088852D01*
X088905Y079212D01*
Y079107D01*
X088852Y079055D01*
X088695D01*
X08901Y079265D02*
X08922D01*
X089115D01*
Y07895D01*
X089482Y079265D02*
X089377D01*
X089325Y079212D01*
Y079002D01*
X089377Y07895D01*
X089482D01*
X089534Y079002D01*
Y079212D01*
X089482Y079265D01*
X089639Y07895D02*
X089744D01*
X089692D01*
Y079265D01*
X089639Y079212D01*
X09517Y094815D02*
X095065D01*
X095117D01*
Y094552D01*
X095065Y0945D01*
X095012D01*
X09496Y094552D01*
X095275Y0945D02*
Y094815D01*
X095485Y0945D01*
Y094815D01*
X09559Y094762D02*
X095642Y094815D01*
X095747D01*
X0958Y094762D01*
Y09471D01*
X095747Y094657D01*
X0958Y094605D01*
Y094552D01*
X095747Y0945D01*
X095642D01*
X09559Y094552D01*
Y094605D01*
X095642Y094657D01*
X09559Y09471D01*
Y094762D01*
X095642Y094657D02*
X095747D01*
X08899Y094785D02*
X088885D01*
X088937D01*
Y094522D01*
X088885Y09447D01*
X088832D01*
X08878Y094522D01*
X089095Y09447D02*
Y094785D01*
X089305Y09447D01*
Y094785D01*
X08941D02*
X08962D01*
Y094732D01*
X08941Y094522D01*
Y09447D01*
X07574Y094665D02*
X075635D01*
X075687D01*
Y094402D01*
X075635Y09435D01*
X075582D01*
X07553Y094402D01*
X075845Y09435D02*
Y094665D01*
X076055Y09435D01*
Y094665D01*
X07637D02*
X07616D01*
Y094507D01*
X076265Y09456D01*
X076317D01*
X07637Y094507D01*
Y094402D01*
X076317Y09435D01*
X076212D01*
X07616Y094402D01*
X06927Y094795D02*
X069165D01*
X069217D01*
Y094532D01*
X069165Y09448D01*
X069112D01*
X06906Y094532D01*
X069375Y09448D02*
Y094795D01*
X069585Y09448D01*
Y094795D01*
X069847Y09448D02*
Y094795D01*
X06969Y094637D01*
X0699D01*
X06285Y094875D02*
X062745D01*
X062797D01*
Y094612D01*
X062745Y09456D01*
X062692D01*
X06264Y094612D01*
X062955Y09456D02*
Y094875D01*
X063165Y09456D01*
Y094875D01*
X06327Y094822D02*
X063322Y094875D01*
X063427D01*
X06348Y094822D01*
Y09477D01*
X063427Y094717D01*
X063375D01*
X063427D01*
X06348Y094665D01*
Y094612D01*
X063427Y09456D01*
X063322D01*
X06327Y094612D01*
X0562Y094845D02*
X056095D01*
X056147D01*
Y094582D01*
X056095Y09453D01*
X056042D01*
X05599Y094582D01*
X056305Y09453D02*
Y094845D01*
X056515Y09453D01*
Y094845D01*
X05683Y09453D02*
X05662D01*
X05683Y09474D01*
Y094792D01*
X056777Y094845D01*
X056672D01*
X05662Y094792D01*
X04987Y094775D02*
X049765D01*
X049817D01*
Y094512D01*
X049765Y09446D01*
X049712D01*
X04966Y094512D01*
X049975Y09446D02*
Y094775D01*
X050185Y09446D01*
Y094775D01*
X05029Y09446D02*
X050395D01*
X050342D01*
Y094775D01*
X05029Y094722D01*
X09884Y07892D02*
Y078815D01*
Y078868D01*
X098525D01*
Y07892D01*
Y078815D01*
X098787Y078448D02*
X09884Y0785D01*
Y078605D01*
X098787Y078658D01*
X098577D01*
X098525Y078605D01*
Y0785D01*
X098577Y078448D01*
X098525Y078343D02*
Y078238D01*
Y07829D01*
X09884D01*
X098787Y078343D01*
X09605Y093285D02*
Y09297D01*
Y093127D01*
X09626D01*
Y093285D01*
Y09297D01*
X096365Y093285D02*
Y09297D01*
X096522D01*
X096575Y093022D01*
Y093232D01*
X096522Y093285D01*
X096365D01*
X09668Y093232D02*
X096732Y093285D01*
X096837D01*
X09689Y093232D01*
Y09318D01*
X096837Y093127D01*
X09689Y093075D01*
Y093022D01*
X096837Y09297D01*
X096732D01*
X09668Y093022D01*
Y093075D01*
X096732Y093127D01*
X09668Y09318D01*
Y093232D01*
X096732Y093127D02*
X096837D01*
X08976Y093285D02*
Y09297D01*
Y093127D01*
X08997D01*
Y093285D01*
Y09297D01*
X090075Y093285D02*
Y09297D01*
X090232D01*
X090285Y093022D01*
Y093232D01*
X090232Y093285D01*
X090075D01*
X09039D02*
X0906D01*
Y093232D01*
X09039Y093022D01*
Y09297D01*
X07684Y093315D02*
Y093D01*
Y093157D01*
X07705D01*
Y093315D01*
Y093D01*
X077155Y093315D02*
Y093D01*
X077312D01*
X077365Y093052D01*
Y093262D01*
X077312Y093315D01*
X077155D01*
X07768D02*
X07747D01*
Y093157D01*
X077575Y09321D01*
X077627D01*
X07768Y093157D01*
Y093052D01*
X077627Y093D01*
X077522D01*
X07747Y093052D01*
X07011Y093315D02*
Y093D01*
Y093157D01*
X07032D01*
Y093315D01*
Y093D01*
X070425Y093315D02*
Y093D01*
X070582D01*
X070635Y093052D01*
Y093262D01*
X070582Y093315D01*
X070425D01*
X070897Y093D02*
Y093315D01*
X07074Y093157D01*
X07095D01*
X06372Y093235D02*
Y09292D01*
Y093077D01*
X06393D01*
Y093235D01*
Y09292D01*
X064035Y093235D02*
Y09292D01*
X064192D01*
X064245Y092972D01*
Y093182D01*
X064192Y093235D01*
X064035D01*
X06435Y093182D02*
X064402Y093235D01*
X064507D01*
X06456Y093182D01*
Y09313D01*
X064507Y093077D01*
X064455D01*
X064507D01*
X06456Y093025D01*
Y092972D01*
X064507Y09292D01*
X064402D01*
X06435Y092972D01*
X05734Y093235D02*
Y09292D01*
Y093077D01*
X05755D01*
Y093235D01*
Y09292D01*
X057655Y093235D02*
Y09292D01*
X057812D01*
X057865Y092972D01*
Y093182D01*
X057812Y093235D01*
X057655D01*
X05818Y09292D02*
X05797D01*
X05818Y09313D01*
Y093182D01*
X058127Y093235D01*
X058022D01*
X05797Y093182D01*
X05062Y093235D02*
Y09292D01*
Y093077D01*
X05083D01*
Y093235D01*
Y09292D01*
X050935Y093235D02*
Y09292D01*
X051092D01*
X051145Y092972D01*
Y093182D01*
X051092Y093235D01*
X050935D01*
X05125Y09292D02*
X051355D01*
X051302D01*
Y093235D01*
X05125Y093182D01*
X09534Y081275D02*
Y08096D01*
X095497D01*
X09555Y081012D01*
Y081222D01*
X095497Y081275D01*
X09534D01*
X095655Y081222D02*
X095707Y081275D01*
X095812D01*
X095865Y081222D01*
Y08117D01*
X095812Y081117D01*
X095865Y081065D01*
Y081012D01*
X095812Y08096D01*
X095707D01*
X095655Y081012D01*
Y081065D01*
X095707Y081117D01*
X095655Y08117D01*
Y081222D01*
X095707Y081117D02*
X095812D01*
X0888Y081275D02*
Y08096D01*
X088957D01*
X08901Y081012D01*
Y081222D01*
X088957Y081275D01*
X0888D01*
X089115D02*
X089325D01*
Y081222D01*
X089115Y081012D01*
Y08096D01*
X08231Y081305D02*
Y08099D01*
X082467D01*
X08252Y081042D01*
Y081252D01*
X082467Y081305D01*
X08231D01*
X082835D02*
X08273Y081252D01*
X082625Y081147D01*
Y081042D01*
X082677Y08099D01*
X082782D01*
X082835Y081042D01*
Y081095D01*
X082782Y081147D01*
X082625D01*
X07584Y081325D02*
Y08101D01*
X075997D01*
X07605Y081062D01*
Y081272D01*
X075997Y081325D01*
X07584D01*
X076365D02*
X076155D01*
Y081167D01*
X07626Y08122D01*
X076312D01*
X076365Y081167D01*
Y081062D01*
X076312Y08101D01*
X076207D01*
X076155Y081062D01*
X06924Y08129D02*
Y080975D01*
X069397D01*
X06945Y081027D01*
Y081237D01*
X069397Y08129D01*
X06924D01*
X069712Y080975D02*
Y08129D01*
X069555Y081132D01*
X069765D01*
X06274Y08129D02*
Y080975D01*
X062897D01*
X06295Y081027D01*
Y081237D01*
X062897Y08129D01*
X06274D01*
X063055Y081237D02*
X063107Y08129D01*
X063212D01*
X063265Y081237D01*
Y081185D01*
X063212Y081132D01*
X06316D01*
X063212D01*
X063265Y08108D01*
Y081027D01*
X063212Y080975D01*
X063107D01*
X063055Y081027D01*
X05624Y08129D02*
Y080975D01*
X056397D01*
X05645Y081027D01*
Y081237D01*
X056397Y08129D01*
X05624D01*
X056765Y080975D02*
X056555D01*
X056765Y081185D01*
Y081237D01*
X056712Y08129D01*
X056607D01*
X056555Y081237D01*
X04974Y08124D02*
Y080925D01*
X049897D01*
X04995Y080977D01*
Y081187D01*
X049897Y08124D01*
X04974D01*
X050055Y080925D02*
X05016D01*
X050107D01*
Y08124D01*
X050055Y081187D01*
X09641Y078812D02*
X096357Y078865D01*
X096252D01*
X0962Y078812D01*
Y078602D01*
X096252Y07855D01*
X096357D01*
X09641Y078602D01*
X096515Y07855D02*
X09662D01*
X096567D01*
Y078865D01*
X096515Y078812D01*
X04745Y078962D02*
X047397Y079015D01*
X047292D01*
X04724Y078962D01*
Y078752D01*
X047292Y0787D01*
X047397D01*
X04745Y078752D01*
X047765Y0787D02*
X047555D01*
X047765Y07891D01*
Y078962D01*
X047712Y079015D01*
X047607D01*
X047555Y078962D01*
X0987Y075105D02*
Y07479D01*
X098857D01*
X09891Y074842D01*
Y075052D01*
X098857Y075105D01*
X0987D01*
X099015Y074842D02*
X099067Y07479D01*
X099172D01*
X099225Y074842D01*
Y075052D01*
X099172Y075105D01*
X099067D01*
X099015Y075052D01*
Y075D01*
X099067Y074947D01*
X099225D01*
X092193Y075095D02*
Y07478D01*
X09235D01*
X092403Y074832D01*
Y075042D01*
X09235Y075095D01*
X092193D01*
X092508Y07478D02*
X092613D01*
X09256D01*
Y075095D01*
X092508Y075042D01*
X09277D02*
X092823Y075095D01*
X092928D01*
X09298Y075042D01*
Y074832D01*
X092928Y07478D01*
X092823D01*
X09277Y074832D01*
Y075042D01*
X085696Y075105D02*
Y07479D01*
X085853D01*
X085906Y074842D01*
Y075052D01*
X085853Y075105D01*
X085696D01*
X086011Y07479D02*
X086116D01*
X086063D01*
Y075105D01*
X086011Y075052D01*
X086273Y07479D02*
X086378D01*
X086325D01*
Y075105D01*
X086273Y075052D01*
X079199Y075095D02*
Y07478D01*
X079356D01*
X079408Y074832D01*
Y075042D01*
X079356Y075095D01*
X079199D01*
X079513Y07478D02*
X079618D01*
X079566D01*
Y075095D01*
X079513Y075042D01*
X079986Y07478D02*
X079776D01*
X079986Y07499D01*
Y075042D01*
X079933Y075095D01*
X079828D01*
X079776Y075042D01*
X072701Y075095D02*
Y07478D01*
X072859D01*
X072911Y074832D01*
Y075042D01*
X072859Y075095D01*
X072701D01*
X073016Y07478D02*
X073121D01*
X073069D01*
Y075095D01*
X073016Y075042D01*
X073279D02*
X073331Y075095D01*
X073436D01*
X073489Y075042D01*
Y07499D01*
X073436Y074937D01*
X073384D01*
X073436D01*
X073489Y074885D01*
Y074832D01*
X073436Y07478D01*
X073331D01*
X073279Y074832D01*
X066204Y075105D02*
Y07479D01*
X066362D01*
X066414Y074842D01*
Y075052D01*
X066362Y075105D01*
X066204D01*
X066519Y07479D02*
X066624D01*
X066572D01*
Y075105D01*
X066519Y075052D01*
X066939Y07479D02*
Y075105D01*
X066782Y074947D01*
X066991D01*
X059717Y075095D02*
Y07478D01*
X059875D01*
X059927Y074832D01*
Y075042D01*
X059875Y075095D01*
X059717D01*
X060032Y07478D02*
X060137D01*
X060084D01*
Y075095D01*
X060032Y075042D01*
X060504Y075095D02*
X060294D01*
Y074937D01*
X060399Y07499D01*
X060452D01*
X060504Y074937D01*
Y074832D01*
X060452Y07478D01*
X060347D01*
X060294Y074832D01*
X05322Y075095D02*
Y07478D01*
X053377D01*
X05343Y074832D01*
Y075042D01*
X053377Y075095D01*
X05322D01*
X053535Y07478D02*
X05364D01*
X053587D01*
Y075095D01*
X053535Y075042D01*
X054007Y075095D02*
X053902Y075042D01*
X053797Y074937D01*
Y074832D01*
X05385Y07478D01*
X053955D01*
X054007Y074832D01*
Y074885D01*
X053955Y074937D01*
X053797D01*
X09444Y063075D02*
Y06276D01*
Y062917D01*
X09465D01*
Y063075D01*
Y06276D01*
X094755Y063075D02*
Y06276D01*
X094912D01*
X094965Y062812D01*
Y063022D01*
X094912Y063075D01*
X094755D01*
X09507Y062812D02*
X095122Y06276D01*
X095227D01*
X09528Y062812D01*
Y063022D01*
X095227Y063075D01*
X095122D01*
X09507Y063022D01*
Y06297D01*
X095122Y062917D01*
X09528D01*
X087959Y063075D02*
Y06276D01*
Y062917D01*
X088168D01*
Y063075D01*
Y06276D01*
X088273Y063075D02*
Y06276D01*
X088431D01*
X088483Y062812D01*
Y063022D01*
X088431Y063075D01*
X088273D01*
X088588Y06276D02*
X088693D01*
X088641D01*
Y063075D01*
X088588Y063022D01*
X088851D02*
X088903Y063075D01*
X089008D01*
X089061Y063022D01*
Y062812D01*
X089008Y06276D01*
X088903D01*
X088851Y062812D01*
Y063022D01*
X081477Y063075D02*
Y06276D01*
Y062917D01*
X081687D01*
Y063075D01*
Y06276D01*
X081792Y063075D02*
Y06276D01*
X081949D01*
X082002Y062812D01*
Y063022D01*
X081949Y063075D01*
X081792D01*
X082107Y06276D02*
X082212D01*
X082159D01*
Y063075D01*
X082107Y063022D01*
X082369Y06276D02*
X082474D01*
X082422D01*
Y063075D01*
X082369Y063022D01*
X074996Y063075D02*
Y06276D01*
Y062917D01*
X075206D01*
Y063075D01*
Y06276D01*
X075311Y063075D02*
Y06276D01*
X075468D01*
X07552Y062812D01*
Y063022D01*
X075468Y063075D01*
X075311D01*
X075625Y06276D02*
X07573D01*
X075678D01*
Y063075D01*
X075625Y063022D01*
X076098Y06276D02*
X075888D01*
X076098Y06297D01*
Y063022D01*
X076045Y063075D01*
X07594D01*
X075888Y063022D01*
X068514Y063075D02*
Y06276D01*
Y062917D01*
X068724D01*
Y063075D01*
Y06276D01*
X068829Y063075D02*
Y06276D01*
X068987D01*
X069039Y062812D01*
Y063022D01*
X068987Y063075D01*
X068829D01*
X069144Y06276D02*
X069249D01*
X069196D01*
Y063075D01*
X069144Y063022D01*
X069406D02*
X069459Y063075D01*
X069564D01*
X069616Y063022D01*
Y06297D01*
X069564Y062917D01*
X069511D01*
X069564D01*
X069616Y062865D01*
Y062812D01*
X069564Y06276D01*
X069459D01*
X069406Y062812D01*
X062033Y063075D02*
Y06276D01*
Y062917D01*
X062243D01*
Y063075D01*
Y06276D01*
X062348Y063075D02*
Y06276D01*
X062505D01*
X062558Y062812D01*
Y063022D01*
X062505Y063075D01*
X062348D01*
X062663Y06276D02*
X062768D01*
X062715D01*
Y063075D01*
X062663Y063022D01*
X063082Y06276D02*
Y063075D01*
X062925Y062917D01*
X063135D01*
X055551Y063075D02*
Y06276D01*
Y062917D01*
X055761D01*
Y063075D01*
Y06276D01*
X055866Y063075D02*
Y06276D01*
X056024D01*
X056076Y062812D01*
Y063022D01*
X056024Y063075D01*
X055866D01*
X056181Y06276D02*
X056286D01*
X056234D01*
Y063075D01*
X056181Y063022D01*
X056653Y063075D02*
X056444D01*
Y062917D01*
X056548Y06297D01*
X056601D01*
X056653Y062917D01*
Y062812D01*
X056601Y06276D01*
X056496D01*
X056444Y062812D01*
X04907Y063075D02*
Y06276D01*
Y062917D01*
X04928D01*
Y063075D01*
Y06276D01*
X049385Y063075D02*
Y06276D01*
X049542D01*
X049595Y062812D01*
Y063022D01*
X049542Y063075D01*
X049385D01*
X0497Y06276D02*
X049805D01*
X049752D01*
Y063075D01*
X0497Y063022D01*
X050172Y063075D02*
X050067Y063022D01*
X049962Y062917D01*
Y062812D01*
X050015Y06276D01*
X05012D01*
X050172Y062812D01*
Y062865D01*
X05012Y062917D01*
X049962D01*
X10282Y093315D02*
Y093D01*
Y093157D01*
X10303D01*
Y093315D01*
Y093D01*
X103135Y093315D02*
Y093D01*
X103292D01*
X103345Y093052D01*
Y093262D01*
X103292Y093315D01*
X103135D01*
X10366Y093262D02*
X103607Y093315D01*
X103502D01*
X10345Y093262D01*
Y093052D01*
X103502Y093D01*
X103607D01*
X10366Y093052D01*
X103765Y093D02*
X10387D01*
X103817D01*
Y093315D01*
X103765Y093262D01*
X1016Y063075D02*
Y06276D01*
Y062917D01*
X10181D01*
Y063075D01*
Y06276D01*
X101915Y063075D02*
Y06276D01*
X102072D01*
X102125Y062812D01*
Y063022D01*
X102072Y063075D01*
X101915D01*
X10244Y063022D02*
X102387Y063075D01*
X102282D01*
X10223Y063022D01*
Y062812D01*
X102282Y06276D01*
X102387D01*
X10244Y062812D01*
X102754Y06276D02*
X102545D01*
X102754Y06297D01*
Y063022D01*
X102702Y063075D01*
X102597D01*
X102545Y063022D01*
X049965Y07822D02*
Y078325D01*
Y078272D01*
X05028D01*
Y07822D01*
Y078325D01*
X050018Y078692D02*
X049965Y07864D01*
Y078535D01*
X050018Y078482D01*
X050228D01*
X05028Y078535D01*
Y07864D01*
X050228Y078692D01*
X05028Y079007D02*
Y078797D01*
X05007Y079007D01*
X050018D01*
X049965Y078955D01*
Y07885D01*
X050018Y078797D01*
X09942Y061585D02*
X099315D01*
X099367D01*
Y061322D01*
X099315Y06127D01*
X099262D01*
X09921Y061322D01*
X099525Y06127D02*
Y061585D01*
X099735Y06127D01*
Y061585D01*
X09984Y061322D02*
X099892Y06127D01*
X099997D01*
X10005Y061322D01*
Y061532D01*
X099997Y061585D01*
X099892D01*
X09984Y061532D01*
Y06148D01*
X099892Y061427D01*
X10005D01*
X092948Y061585D02*
X092844D01*
X092896D01*
Y061322D01*
X092844Y06127D01*
X092791D01*
X092739Y061322D01*
X093053Y06127D02*
Y061585D01*
X093263Y06127D01*
Y061585D01*
X093368Y06127D02*
X093473D01*
X093421D01*
Y061585D01*
X093368Y061532D01*
X093631D02*
X093683Y061585D01*
X093788D01*
X093841Y061532D01*
Y061322D01*
X093788Y06127D01*
X093683D01*
X093631Y061322D01*
Y061532D01*
X086467Y061585D02*
X086362D01*
X086415D01*
Y061322D01*
X086362Y06127D01*
X08631D01*
X086257Y061322D01*
X086572Y06127D02*
Y061585D01*
X086782Y06127D01*
Y061585D01*
X086887Y06127D02*
X086992D01*
X086939D01*
Y061585D01*
X086887Y061532D01*
X087149Y06127D02*
X087254D01*
X087202D01*
Y061585D01*
X087149Y061532D01*
X080006Y061575D02*
X079901D01*
X079953D01*
Y061312D01*
X079901Y06126D01*
X079848D01*
X079796Y061312D01*
X080111Y06126D02*
Y061575D01*
X08032Y06126D01*
Y061575D01*
X080425Y06126D02*
X08053D01*
X080478D01*
Y061575D01*
X080425Y061522D01*
X080898Y06126D02*
X080688D01*
X080898Y06147D01*
Y061522D01*
X080845Y061575D01*
X08074D01*
X080688Y061522D01*
X073524Y061575D02*
X073419D01*
X073472D01*
Y061312D01*
X073419Y06126D01*
X073367D01*
X073314Y061312D01*
X073629Y06126D02*
Y061575D01*
X073839Y06126D01*
Y061575D01*
X073944Y06126D02*
X074049D01*
X073996D01*
Y061575D01*
X073944Y061522D01*
X074206D02*
X074259Y061575D01*
X074364D01*
X074416Y061522D01*
Y06147D01*
X074364Y061417D01*
X074311D01*
X074364D01*
X074416Y061365D01*
Y061312D01*
X074364Y06126D01*
X074259D01*
X074206Y061312D01*
X067063Y061585D02*
X066958D01*
X06701D01*
Y061322D01*
X066958Y06127D01*
X066905D01*
X066853Y061322D01*
X067168Y06127D02*
Y061585D01*
X067378Y06127D01*
Y061585D01*
X067483Y06127D02*
X067588D01*
X067535D01*
Y061585D01*
X067483Y061532D01*
X067902Y06127D02*
Y061585D01*
X067745Y061427D01*
X067955D01*
X060581Y061575D02*
X060476D01*
X060529D01*
Y061312D01*
X060476Y06126D01*
X060424D01*
X060371Y061312D01*
X060686Y06126D02*
Y061575D01*
X060896Y06126D01*
Y061575D01*
X061001Y06126D02*
X061106D01*
X061054D01*
Y061575D01*
X061001Y061522D01*
X061473Y061575D02*
X061264D01*
Y061417D01*
X061368Y06147D01*
X061421D01*
X061473Y061417D01*
Y061312D01*
X061421Y06126D01*
X061316D01*
X061264Y061312D01*
X05411Y061575D02*
X054005D01*
X054057D01*
Y061312D01*
X054005Y06126D01*
X053952D01*
X0539Y061312D01*
X054215Y06126D02*
Y061575D01*
X054425Y06126D01*
Y061575D01*
X05453Y06126D02*
X054635D01*
X054582D01*
Y061575D01*
X05453Y061522D01*
X055002Y061575D02*
X054897Y061522D01*
X054792Y061417D01*
Y061312D01*
X054845Y06126D01*
X05495D01*
X055002Y061312D01*
Y061365D01*
X05495Y061417D01*
X054792D01*
X09692Y075055D02*
Y07474D01*
X09713D01*
X097445Y075055D02*
X097235D01*
Y07474D01*
X097445D01*
X097235Y074897D02*
X09734D01*
X09755Y075055D02*
Y07474D01*
X097707D01*
X09776Y074792D01*
Y075002D01*
X097707Y075055D01*
X09755D01*
X097865Y074792D02*
X097917Y07474D01*
X098022D01*
X098074Y074792D01*
Y075002D01*
X098022Y075055D01*
X097917D01*
X097865Y075002D01*
Y07495D01*
X097917Y074897D01*
X098074D01*
X090403Y07507D02*
Y074756D01*
X090613D01*
X090928Y07507D02*
X090718D01*
Y074756D01*
X090928D01*
X090718Y074913D02*
X090823D01*
X091033Y07507D02*
Y074756D01*
X09119D01*
X091242Y074808D01*
Y075018D01*
X09119Y07507D01*
X091033D01*
X091347Y074756D02*
X091452D01*
X0914D01*
Y07507D01*
X091347Y075018D01*
X09161D02*
X091662Y07507D01*
X091767D01*
X09182Y075018D01*
Y074808D01*
X091767Y074756D01*
X091662D01*
X09161Y074808D01*
Y075018D01*
X083886Y07507D02*
Y074756D01*
X084096D01*
X08441Y07507D02*
X084201D01*
Y074756D01*
X08441D01*
X084201Y074913D02*
X084306D01*
X084515Y07507D02*
Y074756D01*
X084673D01*
X084725Y074808D01*
Y075018D01*
X084673Y07507D01*
X084515D01*
X08483Y074756D02*
X084935D01*
X084883D01*
Y07507D01*
X08483Y075018D01*
X085093Y074756D02*
X085198D01*
X085145D01*
Y07507D01*
X085093Y075018D01*
X077369Y07507D02*
Y074756D01*
X077578D01*
X077893Y07507D02*
X077683D01*
Y074756D01*
X077893D01*
X077683Y074913D02*
X077788D01*
X077998Y07507D02*
Y074756D01*
X078156D01*
X078208Y074808D01*
Y075018D01*
X078156Y07507D01*
X077998D01*
X078313Y074756D02*
X078418D01*
X078366D01*
Y07507D01*
X078313Y075018D01*
X078785Y074756D02*
X078576D01*
X078785Y074966D01*
Y075018D01*
X078733Y07507D01*
X078628D01*
X078576Y075018D01*
X070851Y07507D02*
Y074756D01*
X071061D01*
X071376Y07507D02*
X071166D01*
Y074756D01*
X071376D01*
X071166Y074913D02*
X071271D01*
X071481Y07507D02*
Y074756D01*
X071639D01*
X071691Y074808D01*
Y075018D01*
X071639Y07507D01*
X071481D01*
X071796Y074756D02*
X071901D01*
X071848D01*
Y07507D01*
X071796Y075018D01*
X072058D02*
X072111Y07507D01*
X072216D01*
X072268Y075018D01*
Y074966D01*
X072216Y074913D01*
X072163D01*
X072216D01*
X072268Y074861D01*
Y074808D01*
X072216Y074756D01*
X072111D01*
X072058Y074808D01*
X064334Y07507D02*
Y074756D01*
X064544D01*
X064859Y07507D02*
X064649D01*
Y074756D01*
X064859D01*
X064649Y074913D02*
X064754D01*
X064964Y07507D02*
Y074756D01*
X065121D01*
X065174Y074808D01*
Y075018D01*
X065121Y07507D01*
X064964D01*
X065279Y074756D02*
X065384D01*
X065331D01*
Y07507D01*
X065279Y075018D01*
X065699Y074756D02*
Y07507D01*
X065541Y074913D01*
X065751D01*
X057817Y07507D02*
Y074756D01*
X058027D01*
X058342Y07507D02*
X058132D01*
Y074756D01*
X058342D01*
X058132Y074913D02*
X058237D01*
X058447Y07507D02*
Y074756D01*
X058604D01*
X058657Y074808D01*
Y075018D01*
X058604Y07507D01*
X058447D01*
X058762Y074756D02*
X058867D01*
X058814D01*
Y07507D01*
X058762Y075018D01*
X059234Y07507D02*
X059024D01*
Y074913D01*
X059129Y074966D01*
X059182D01*
X059234Y074913D01*
Y074808D01*
X059182Y074756D01*
X059077D01*
X059024Y074808D01*
X0513Y07507D02*
Y074756D01*
X05151D01*
X051825Y07507D02*
X051615D01*
Y074756D01*
X051825D01*
X051615Y074913D02*
X05172D01*
X05193Y07507D02*
Y074756D01*
X052087D01*
X05214Y074808D01*
Y075018D01*
X052087Y07507D01*
X05193D01*
X052245Y074756D02*
X05235D01*
X052297D01*
Y07507D01*
X052245Y075018D01*
X052717Y07507D02*
X052612Y075018D01*
X052507Y074913D01*
Y074808D01*
X052559Y074756D01*
X052664D01*
X052717Y074808D01*
Y074861D01*
X052664Y074913D01*
X052507D01*
X056327Y079205D02*
X056222D01*
X05617Y079152D01*
Y078942D01*
X056222Y07889D01*
X056327D01*
X05638Y078942D01*
Y079152D01*
X056327Y079205D01*
X056485Y07889D02*
Y079205D01*
X056642D01*
X056695Y079152D01*
Y079047D01*
X056642Y078995D01*
X056485D01*
X0568Y079205D02*
X05701D01*
X056905D01*
Y07889D01*
X057272Y079205D02*
X057167D01*
X057115Y079152D01*
Y078942D01*
X057167Y07889D01*
X057272D01*
X057324Y078942D01*
Y079152D01*
X057272Y079205D01*
X057429Y079152D02*
X057482Y079205D01*
X057587D01*
X057639Y079152D01*
Y0791D01*
X057587Y079047D01*
X057534D01*
X057587D01*
X057639Y078995D01*
Y078942D01*
X057587Y07889D01*
X057482D01*
X057429Y078942D01*
X060387Y079255D02*
X060282D01*
X06023Y079202D01*
Y078992D01*
X060282Y07894D01*
X060387D01*
X06044Y078992D01*
Y079202D01*
X060387Y079255D01*
X060545Y07894D02*
Y079255D01*
X060702D01*
X060755Y079202D01*
Y079097D01*
X060702Y079045D01*
X060545D01*
X06086Y079255D02*
X06107D01*
X060965D01*
Y07894D01*
X061332Y079255D02*
X061227D01*
X061175Y079202D01*
Y078992D01*
X061227Y07894D01*
X061332D01*
X061384Y078992D01*
Y079202D01*
X061332Y079255D01*
X061647Y07894D02*
Y079255D01*
X061489Y079097D01*
X061699D01*
X09498Y07475D02*
Y075065D01*
X095137D01*
X09519Y075012D01*
Y074907D01*
X095137Y074855D01*
X09498D01*
X095085D02*
X09519Y07475D01*
X095295Y074802D02*
X095347Y07475D01*
X095452D01*
X095505Y074802D01*
Y075012D01*
X095452Y075065D01*
X095347D01*
X095295Y075012D01*
Y07496D01*
X095347Y074907D01*
X095505D01*
X088491Y07475D02*
Y075065D01*
X088649D01*
X088701Y075012D01*
Y074907D01*
X088649Y074855D01*
X088491D01*
X088596D02*
X088701Y07475D01*
X088806D02*
X088911D01*
X088859D01*
Y075065D01*
X088806Y075012D01*
X089069D02*
X089121Y075065D01*
X089226D01*
X089279Y075012D01*
Y074802D01*
X089226Y07475D01*
X089121D01*
X089069Y074802D01*
Y075012D01*
X082013Y07475D02*
Y075065D01*
X08217D01*
X082223Y075012D01*
Y074907D01*
X08217Y074855D01*
X082013D01*
X082118D02*
X082223Y07475D01*
X082328D02*
X082433D01*
X08238D01*
Y075065D01*
X082328Y075012D01*
X08259Y07475D02*
X082695D01*
X082643D01*
Y075065D01*
X08259Y075012D01*
X075524Y07475D02*
Y075065D01*
X075682D01*
X075734Y075012D01*
Y074907D01*
X075682Y074855D01*
X075524D01*
X075629D02*
X075734Y07475D01*
X075839D02*
X075944D01*
X075892D01*
Y075065D01*
X075839Y075012D01*
X076311Y07475D02*
X076102D01*
X076311Y07496D01*
Y075012D01*
X076259Y075065D01*
X076154D01*
X076102Y075012D01*
X069026Y07475D02*
Y075065D01*
X069183D01*
X069236Y075012D01*
Y074907D01*
X069183Y074855D01*
X069026D01*
X069131D02*
X069236Y07475D01*
X069341D02*
X069446D01*
X069393D01*
Y075065D01*
X069341Y075012D01*
X069603D02*
X069655Y075065D01*
X06976D01*
X069813Y075012D01*
Y07496D01*
X06976Y074907D01*
X069708D01*
X06976D01*
X069813Y074855D01*
Y074802D01*
X06976Y07475D01*
X069655D01*
X069603Y074802D01*
X062537Y07475D02*
Y075065D01*
X062695D01*
X062747Y075012D01*
Y074907D01*
X062695Y074855D01*
X062537D01*
X062642D02*
X062747Y07475D01*
X062852D02*
X062957D01*
X062904D01*
Y075065D01*
X062852Y075012D01*
X063272Y07475D02*
Y075065D01*
X063114Y074907D01*
X063324D01*
X056049Y07475D02*
Y075065D01*
X056206D01*
X056258Y075012D01*
Y074907D01*
X056206Y074855D01*
X056049D01*
X056154D02*
X056258Y07475D01*
X056363D02*
X056468D01*
X056416D01*
Y075065D01*
X056363Y075012D01*
X056836Y075065D02*
X056626D01*
Y074907D01*
X056731Y07496D01*
X056783D01*
X056836Y074907D01*
Y074802D01*
X056783Y07475D01*
X056678D01*
X056626Y074802D01*
X04957Y07475D02*
Y075065D01*
X049727D01*
X04978Y075012D01*
Y074907D01*
X049727Y074855D01*
X04957D01*
X049675D02*
X04978Y07475D01*
X049885D02*
X04999D01*
X049937D01*
Y075065D01*
X049885Y075012D01*
X050357Y075065D02*
X050252Y075012D01*
X050147Y074907D01*
Y074802D01*
X0502Y07475D01*
X050305D01*
X050357Y074802D01*
Y074855D01*
X050305Y074907D01*
X050147D01*
X09735Y06914D02*
Y069455D01*
X097507D01*
X09756Y069402D01*
Y069297D01*
X097507Y069245D01*
X09735D01*
X097455D02*
X09756Y06914D01*
X097665Y069455D02*
Y06914D01*
X097875D01*
X09798Y069192D02*
X098032Y06914D01*
X098137D01*
X09819Y069192D01*
Y069402D01*
X098137Y069455D01*
X098032D01*
X09798Y069402D01*
Y06935D01*
X098032Y069297D01*
X09819D01*
X090571Y06926D02*
Y069575D01*
X090729D01*
X090781Y069522D01*
Y069417D01*
X090729Y069365D01*
X090571D01*
X090676D02*
X090781Y06926D01*
X090886Y069575D02*
Y06926D01*
X091096D01*
X091201D02*
X091306D01*
X091254D01*
Y069575D01*
X091201Y069522D01*
X091464D02*
X091516Y069575D01*
X091621D01*
X091673Y069522D01*
Y069312D01*
X091621Y06926D01*
X091516D01*
X091464Y069312D01*
Y069522D01*
X084183Y06928D02*
Y069595D01*
X08434D01*
X084393Y069542D01*
Y069437D01*
X08434Y069385D01*
X084183D01*
X084288D02*
X084393Y06928D01*
X084498Y069595D02*
Y06928D01*
X084708D01*
X084813D02*
X084918D01*
X084865D01*
Y069595D01*
X084813Y069542D01*
X085075Y06928D02*
X08518D01*
X085127D01*
Y069595D01*
X085075Y069542D01*
X077774Y06923D02*
Y069545D01*
X077932D01*
X077984Y069492D01*
Y069387D01*
X077932Y069335D01*
X077774D01*
X077879D02*
X077984Y06923D01*
X078089Y069545D02*
Y06923D01*
X078299D01*
X078404D02*
X078509D01*
X078456D01*
Y069545D01*
X078404Y069492D01*
X078876Y06923D02*
X078666D01*
X078876Y06944D01*
Y069492D01*
X078824Y069545D01*
X078719D01*
X078666Y069492D01*
X071256Y06915D02*
Y069465D01*
X071413D01*
X071466Y069412D01*
Y069307D01*
X071413Y069255D01*
X071256D01*
X071361D02*
X071466Y06915D01*
X071571Y069465D02*
Y06915D01*
X07178D01*
X071885D02*
X07199D01*
X071938D01*
Y069465D01*
X071885Y069412D01*
X072148D02*
X0722Y069465D01*
X072305D01*
X072358Y069412D01*
Y06936D01*
X072305Y069307D01*
X072253D01*
X072305D01*
X072358Y069255D01*
Y069202D01*
X072305Y06915D01*
X0722D01*
X072148Y069202D01*
X064597Y06935D02*
Y069665D01*
X064755D01*
X064807Y069612D01*
Y069507D01*
X064755Y069455D01*
X064597D01*
X064702D02*
X064807Y06935D01*
X064912Y069665D02*
Y06935D01*
X065122D01*
X065227D02*
X065332D01*
X065279D01*
Y069665D01*
X065227Y069612D01*
X065647Y06935D02*
Y069665D01*
X065489Y069507D01*
X065699D01*
X058189Y06927D02*
Y069585D01*
X058346D01*
X058398Y069532D01*
Y069427D01*
X058346Y069375D01*
X058189D01*
X058294D02*
X058398Y06927D01*
X058503Y069585D02*
Y06927D01*
X058713D01*
X058818D02*
X058923D01*
X058871D01*
Y069585D01*
X058818Y069532D01*
X059291Y069585D02*
X059081D01*
Y069427D01*
X059186Y06948D01*
X059238D01*
X059291Y069427D01*
Y069322D01*
X059238Y06927D01*
X059133D01*
X059081Y069322D01*
X05173Y06932D02*
Y069635D01*
X051887D01*
X05194Y069582D01*
Y069477D01*
X051887Y069425D01*
X05173D01*
X051835D02*
X05194Y06932D01*
X052045Y069635D02*
Y06932D01*
X052255D01*
X05236D02*
X052465D01*
X052412D01*
Y069635D01*
X05236Y069582D01*
X052832Y069635D02*
X052727Y069582D01*
X052622Y069477D01*
Y069372D01*
X052675Y06932D01*
X05278D01*
X052832Y069372D01*
Y069425D01*
X05278Y069477D01*
X052622D01*
X05595Y07733D02*
Y077645D01*
X056107D01*
X05616Y077592D01*
Y077487D01*
X056107Y077435D01*
X05595D01*
X056055D02*
X05616Y07733D01*
X056265D02*
Y077645D01*
X056475Y07733D01*
Y077645D01*
X05658D02*
X05679D01*
Y077592D01*
X05658Y077382D01*
Y07733D01*
X06015Y07734D02*
Y077655D01*
X060307D01*
X06036Y077602D01*
Y077497D01*
X060307Y077445D01*
X06015D01*
X060255D02*
X06036Y07734D01*
X060465D02*
Y077655D01*
X060675Y07734D01*
Y077655D01*
X06078Y077602D02*
X060832Y077655D01*
X060937D01*
X06099Y077602D01*
Y07755D01*
X060937Y077497D01*
X06099Y077445D01*
Y077392D01*
X060937Y07734D01*
X060832D01*
X06078Y077392D01*
Y077445D01*
X060832Y077497D01*
X06078Y07755D01*
Y077602D01*
X060832Y077497D02*
X060937D01*
X06532Y08032D02*
Y080635D01*
X065477D01*
X06553Y080582D01*
Y080477D01*
X065477Y080425D01*
X06532D01*
X065425D02*
X06553Y08032D01*
X065635D02*
Y080635D01*
X065845Y08032D01*
Y080635D01*
X06595Y080372D02*
X066002Y08032D01*
X066107D01*
X06616Y080372D01*
Y080582D01*
X066107Y080635D01*
X066002D01*
X06595Y080582D01*
Y08053D01*
X066002Y080477D01*
X06616D01*
X05421Y07691D02*
X053895D01*
Y077067D01*
X053948Y07712D01*
X054053D01*
X054105Y077067D01*
Y07691D01*
Y077015D02*
X05421Y07712D01*
Y077225D02*
X053895D01*
X05421Y077435D01*
X053895D01*
X05421Y07754D02*
Y077645D01*
Y077592D01*
X053895D01*
X053948Y07754D01*
Y077802D02*
X053895Y077855D01*
Y07796D01*
X053948Y078012D01*
X054158D01*
X05421Y07796D01*
Y077855D01*
X054158Y077802D01*
X053948D01*
X06532Y07832D02*
Y078635D01*
X065477D01*
X06553Y078582D01*
Y078477D01*
X065477Y078425D01*
X06532D01*
X065425D02*
X06553Y07832D01*
X065635D02*
Y078635D01*
X065845Y07832D01*
Y078635D01*
X06595Y07832D02*
X066055D01*
X066002D01*
Y078635D01*
X06595Y078582D01*
X066212Y07832D02*
X066317D01*
X066265D01*
Y078635D01*
X066212Y078582D01*
X05423Y07859D02*
X053915D01*
Y078747D01*
X053968Y0788D01*
X054073D01*
X054125Y078747D01*
Y07859D01*
Y078695D02*
X05423Y0788D01*
Y078905D02*
X053915D01*
X05423Y079115D01*
X053915D01*
X05423Y07922D02*
Y079325D01*
Y079272D01*
X053915D01*
X053968Y07922D01*
X05423Y079692D02*
Y079482D01*
X05402Y079692D01*
X053968D01*
X053915Y07964D01*
Y079535D01*
X053968Y079482D01*
X06848Y078215D02*
Y077952D01*
X068532Y0779D01*
X068637D01*
X06869Y077952D01*
Y078215D01*
X068795D02*
Y0779D01*
X069005D01*
X06911D02*
Y078215D01*
X06932Y0779D01*
Y078215D01*
X069634Y0779D02*
X069425D01*
X069634Y07811D01*
Y078162D01*
X069582Y078215D01*
X069477D01*
X069425Y078162D01*
X08233Y094665D02*
X082225D01*
X082277D01*
Y094402D01*
X082225Y09435D01*
X082172D01*
X08212Y094402D01*
X082435Y09435D02*
Y094665D01*
X082645Y09435D01*
Y094665D01*
X08296D02*
X082855Y094612D01*
X08275Y094507D01*
Y094402D01*
X082802Y09435D01*
X082907D01*
X08296Y094402D01*
Y094455D01*
X082907Y094507D01*
X08275D01*
X08325Y093315D02*
Y093D01*
Y093157D01*
X08346D01*
Y093315D01*
Y093D01*
X083565Y093315D02*
Y093D01*
X083722D01*
X083775Y093052D01*
Y093262D01*
X083722Y093315D01*
X083565D01*
X08409D02*
X083985Y093262D01*
X08388Y093157D01*
Y093052D01*
X083932Y093D01*
X084037D01*
X08409Y093052D01*
Y093105D01*
X084037Y093157D01*
X08388D01*
D41*
X0829Y075675D02*
G03*
X0829Y075675I-000049J0D01*
G01*
X098828Y07697D02*
G03*
X098828Y07697I-000049J0D01*
G01*
X087529Y078991D02*
G03*
X087529Y078991I-000049J0D01*
G01*
X091789Y078991D02*
G03*
X091789Y078991I-000049J0D01*
G01*
X050268Y07697D02*
G03*
X050268Y07697I-000049J0D01*
G01*
X067199Y080375D02*
G03*
X067199Y080375I-000049J0D01*
G01*
X055169Y078991D02*
G03*
X055169Y078991I-000049J0D01*
G01*
X059399D02*
G03*
X059399Y078991I-000049J0D01*
G01*
D42*
X082053Y076081D02*
G03*
X082053Y076081I-000118J0D01*
G01*
X068183Y079969D02*
G03*
X068183Y079969I-000118J0D01*
G01*
D43*
X05278Y08459D02*
G03*
X05162Y0846I-000585J-000575D01*
G01*
X052368Y086542D02*
G03*
X052368Y086542I-000178J0D01*
G01*
X051708Y088652D02*
G03*
X051708Y088652I-000178J0D01*
G01*
X053218Y088642D02*
G03*
X053218Y088642I-000178J0D01*
G01*
X059263Y08459D02*
G03*
X058103Y0846I-000585J-000575D01*
G01*
X058851Y086542D02*
G03*
X058851Y086542I-000178J0D01*
G01*
X058191Y088652D02*
G03*
X058191Y088652I-000178J0D01*
G01*
X059701Y088642D02*
G03*
X059701Y088642I-000178J0D01*
G01*
X065747Y08459D02*
G03*
X064587Y0846I-000585J-000575D01*
G01*
X065335Y086542D02*
G03*
X065335Y086542I-000178J0D01*
G01*
X064675Y088652D02*
G03*
X064675Y088652I-000178J0D01*
G01*
X066185Y088642D02*
G03*
X066185Y088642I-000178J0D01*
G01*
X07223Y08459D02*
G03*
X07107Y0846I-000585J-000575D01*
G01*
X071818Y086542D02*
G03*
X071818Y086542I-000178J0D01*
G01*
X071158Y088652D02*
G03*
X071158Y088652I-000178J0D01*
G01*
X072668Y088642D02*
G03*
X072668Y088642I-000178J0D01*
G01*
X07877Y08456D02*
G03*
X07761Y08457I-000585J-000575D01*
G01*
X078358Y086512D02*
G03*
X078358Y086512I-000178J0D01*
G01*
X077698Y088622D02*
G03*
X077698Y088622I-000178J0D01*
G01*
X079208Y088612D02*
G03*
X079208Y088612I-000178J0D01*
G01*
X085253Y08456D02*
G03*
X084093Y08457I-000585J-000575D01*
G01*
X084841Y086512D02*
G03*
X084841Y086512I-000178J0D01*
G01*
X084181Y088622D02*
G03*
X084181Y088622I-000178J0D01*
G01*
X085691Y088612D02*
G03*
X085691Y088612I-000178J0D01*
G01*
X091737Y08456D02*
G03*
X090577Y08457I-000585J-000575D01*
G01*
X091325Y086512D02*
G03*
X091325Y086512I-000178J0D01*
G01*
X090665Y088622D02*
G03*
X090665Y088622I-000178J0D01*
G01*
X092175Y088612D02*
G03*
X092175Y088612I-000178J0D01*
G01*
X09822Y08456D02*
G03*
X09706Y08457I-000585J-000575D01*
G01*
X097808Y086512D02*
G03*
X097808Y086512I-000178J0D01*
G01*
X097148Y088622D02*
G03*
X097148Y088622I-000178J0D01*
G01*
X098658Y088612D02*
G03*
X098658Y088612I-000178J0D01*
G01*
X051538Y067268D02*
G03*
X051538Y067268I-000178J0D01*
G01*
X053048Y067258D02*
G03*
X053048Y067258I-000178J0D01*
G01*
X052388Y069368D02*
G03*
X052388Y069368I-000178J0D01*
G01*
X05162Y07132D02*
G03*
X05278Y07131I000585J000575D01*
G01*
X058027Y067268D02*
G03*
X058027Y067268I-000178J0D01*
G01*
X059537Y067258D02*
G03*
X059537Y067258I-000178J0D01*
G01*
X058877Y069368D02*
G03*
X058877Y069368I-000178J0D01*
G01*
X058109Y07132D02*
G03*
X059269Y07131I000585J000575D01*
G01*
X064515Y067268D02*
G03*
X064515Y067268I-000178J0D01*
G01*
X066025Y067258D02*
G03*
X066025Y067258I-000178J0D01*
G01*
X065365Y069368D02*
G03*
X065365Y069368I-000178J0D01*
G01*
X064597Y07132D02*
G03*
X065757Y07131I000585J000575D01*
G01*
X071004Y067268D02*
G03*
X071004Y067268I-000178J0D01*
G01*
X072514Y067258D02*
G03*
X072514Y067258I-000178J0D01*
G01*
X071854Y069368D02*
G03*
X071854Y069368I-000178J0D01*
G01*
X071086Y07132D02*
G03*
X072246Y07131I000585J000575D01*
G01*
X077492Y067268D02*
G03*
X077492Y067268I-000178J0D01*
G01*
X079002Y067258D02*
G03*
X079002Y067258I-000178J0D01*
G01*
X078342Y069368D02*
G03*
X078342Y069368I-000178J0D01*
G01*
X077574Y07132D02*
G03*
X078734Y07131I000585J000575D01*
G01*
X083981Y067268D02*
G03*
X083981Y067268I-000178J0D01*
G01*
X085491Y067258D02*
G03*
X085491Y067258I-000178J0D01*
G01*
X084831Y069368D02*
G03*
X084831Y069368I-000178J0D01*
G01*
X084063Y07132D02*
G03*
X085223Y07131I000585J000575D01*
G01*
X090469Y067268D02*
G03*
X090469Y067268I-000178J0D01*
G01*
X091979Y067258D02*
G03*
X091979Y067258I-000178J0D01*
G01*
X091319Y069368D02*
G03*
X091319Y069368I-000178J0D01*
G01*
X090551Y07132D02*
G03*
X091711Y07131I000585J000575D01*
G01*
X096958Y067268D02*
G03*
X096958Y067268I-000178J0D01*
G01*
X098468Y067258D02*
G03*
X098468Y067258I-000178J0D01*
G01*
X097808Y069368D02*
G03*
X097808Y069368I-000178J0D01*
G01*
X09704Y07132D02*
G03*
X0982Y07131I000585J000575D01*
G01*
X10053Y07445D02*
X10081D01*
Y0742D02*
Y07445D01*
Y07364D02*
Y07388D01*
X10054Y07364D02*
X10081D01*
X09863D02*
Y07389D01*
Y07364D02*
X09891D01*
X09863Y07445D02*
X0989D01*
X09863Y07421D02*
Y07445D01*
X10014Y05893D02*
Y06093D01*
X09914Y05893D02*
X10014D01*
X09914D02*
Y06093D01*
X10014D01*
X09915Y05988D02*
X10014D01*
X094033Y07445D02*
X094313D01*
Y0742D02*
Y07445D01*
Y07364D02*
Y07388D01*
X094043Y07364D02*
X094313D01*
X092133D02*
Y07389D01*
Y07364D02*
X092413D01*
X092133Y07445D02*
X092403D01*
X092133Y07421D02*
Y07445D01*
X093669Y05893D02*
Y06093D01*
X092669Y05893D02*
X093669D01*
X092669D02*
Y06093D01*
X093669D01*
X092679Y05988D02*
X093669D01*
X087536Y07445D02*
X087816D01*
X087816Y0742D02*
X087816Y07445D01*
Y07364D02*
Y07388D01*
X087546Y07364D02*
X087816D01*
X085636D02*
Y07389D01*
Y07364D02*
X085916D01*
X085636Y07445D02*
X085906D01*
X085636Y07421D02*
Y07445D01*
X087197Y05893D02*
Y06093D01*
X086197Y05893D02*
X087197D01*
X086197D02*
Y06093D01*
X087197D01*
X086207Y05988D02*
X087197D01*
X081039Y07445D02*
X081319D01*
Y0742D02*
Y07445D01*
Y07364D02*
Y07388D01*
X081049Y07364D02*
X081319D01*
X079139D02*
Y07389D01*
Y07364D02*
X079419D01*
X079139Y07445D02*
X079409D01*
X079139Y07421D02*
Y07445D01*
X080726Y05893D02*
Y06093D01*
X079726Y05893D02*
X080726D01*
X079726D02*
Y06093D01*
X080726D01*
X079736Y05988D02*
X080726D01*
X074541Y07445D02*
X074821D01*
Y0742D02*
Y07445D01*
Y07364D02*
Y07388D01*
X074551Y07364D02*
X074821D01*
X072641D02*
Y07389D01*
Y07364D02*
X072921D01*
X072641Y07445D02*
X072911D01*
X072641Y07421D02*
Y07445D01*
X074254Y05893D02*
Y06093D01*
X073254Y05893D02*
X074254D01*
X073254D02*
Y06093D01*
X074254D01*
X073264Y05988D02*
X074254D01*
X068044Y07445D02*
X068324D01*
Y0742D02*
Y07445D01*
Y07364D02*
Y07388D01*
X068054Y07364D02*
X068324D01*
X066144D02*
Y07389D01*
Y07364D02*
X066424D01*
X066144Y07445D02*
X066414D01*
X066144Y07421D02*
Y07445D01*
X067783Y05893D02*
Y06093D01*
X066783Y05893D02*
X067783D01*
X066783D02*
Y06093D01*
X067783D01*
X066793Y05988D02*
X067783D01*
X061547Y07445D02*
X061827D01*
Y0742D02*
Y07445D01*
Y07364D02*
Y07388D01*
X061557Y07364D02*
X061827D01*
X059647D02*
Y07389D01*
Y07364D02*
X059927D01*
X059647Y07445D02*
X059917D01*
X059647Y07421D02*
Y07445D01*
X061311Y05893D02*
Y06093D01*
X060311Y05893D02*
X061311D01*
X060311D02*
Y06093D01*
X061311D01*
X060321Y05988D02*
X061311D01*
X05505Y07445D02*
X05533D01*
Y0742D02*
Y07445D01*
Y07364D02*
Y07388D01*
X05506Y07364D02*
X05533D01*
X05315D02*
Y07389D01*
Y07364D02*
X05343D01*
X05315Y07445D02*
X05342D01*
X05315Y07421D02*
Y07445D01*
X05484Y05893D02*
Y06093D01*
X05384Y05893D02*
X05484D01*
X05384D02*
Y06093D01*
X05484D01*
X05385Y05988D02*
X05484D01*
X103776Y074976D02*
X104012D01*
Y072968D02*
Y074976D01*
X103795Y072968D02*
X104012D01*
X103776Y072948D02*
X103795Y072968D01*
X103776Y067494D02*
X1038Y06747D01*
X10474Y080478D02*
X10475Y080468D01*
Y080389D02*
Y080468D01*
X105724Y080389D02*
Y080478D01*
X1047Y06757D02*
X105694D01*
X103776Y067494D02*
Y080478D01*
X1038Y06747D02*
X10675D01*
X106758D02*
Y080478D01*
X103776D02*
X106758D01*
X10475Y080389D02*
X105724D01*
X105694Y06747D02*
Y06757D01*
X1047Y06747D02*
Y06757D01*
X05047Y08459D02*
X05161D01*
X05279Y08458D02*
X05392D01*
X0518Y08856D02*
X05219Y08817D01*
Y08674D02*
Y08817D01*
X05304Y08882D02*
X05331Y08909D01*
X05397D01*
X05121D02*
X05147Y08883D01*
X05045Y08909D02*
X05121D01*
X04904Y0829D02*
Y0903D01*
X05534Y0829D02*
Y0903D01*
X04904Y0829D02*
X05534D01*
X04904Y0903D02*
X05534D01*
X0522Y08401D02*
Y08634D01*
X04959Y09618D02*
X05058D01*
X04959Y09513D02*
X05059D01*
Y09713D01*
X04959D02*
X05059D01*
X04959Y09513D02*
Y09713D01*
X04905Y081425D02*
X04933D01*
X04905D02*
Y081675D01*
Y081995D02*
Y082235D01*
X04932D01*
X05123Y081985D02*
Y082235D01*
X05095D02*
X05123D01*
X05096Y081425D02*
X05123D01*
Y081665D01*
X0555Y081425D02*
X05578D01*
X0555D02*
Y081675D01*
Y081995D02*
Y082235D01*
X05577D01*
X05768Y081985D02*
Y082235D01*
X0574D02*
X05768D01*
X05741Y081425D02*
X05768D01*
Y081665D01*
X06195Y081425D02*
X06223D01*
X06195D02*
Y081675D01*
Y081995D02*
Y082235D01*
X06222D01*
X06413Y081985D02*
Y082235D01*
X06385D02*
X06413D01*
X06386Y081425D02*
X06413D01*
Y081665D01*
X06845Y081425D02*
X06873D01*
X06845D02*
Y081675D01*
Y081995D02*
Y082235D01*
X06872D01*
X07063Y081985D02*
Y082235D01*
X07035D02*
X07063D01*
X07036Y081425D02*
X07063D01*
Y081665D01*
X07504Y08145D02*
X07532D01*
X07504D02*
Y0817D01*
Y08202D02*
Y08226D01*
X07531D01*
X07722Y08201D02*
Y08226D01*
X07694D02*
X07722D01*
X07695Y08145D02*
X07722D01*
Y08169D01*
X08154Y08145D02*
X08182D01*
X08154D02*
Y0817D01*
Y08202D02*
Y08226D01*
X08181D01*
X08372Y08201D02*
Y08226D01*
X08344D02*
X08372D01*
X08345Y08145D02*
X08372D01*
Y08169D01*
X08799Y08145D02*
X08827D01*
X08799D02*
Y0817D01*
Y08202D02*
Y08226D01*
X08826D01*
X09017Y08201D02*
Y08226D01*
X08989D02*
X09017D01*
X0899Y08145D02*
X09017D01*
Y08169D01*
X09449Y08145D02*
X09477D01*
X09449D02*
Y0817D01*
Y08202D02*
Y08226D01*
X09476D01*
X09667Y08201D02*
Y08226D01*
X09639D02*
X09667D01*
X0964Y08145D02*
X09667D01*
Y08169D01*
X05609Y09618D02*
X05708D01*
X05609Y09513D02*
X05709D01*
Y09713D01*
X05609D02*
X05709D01*
X05609Y09513D02*
Y09713D01*
X06254Y09618D02*
X06353D01*
X06254Y09513D02*
X06354D01*
Y09713D01*
X06254D02*
X06354D01*
X06254Y09513D02*
Y09713D01*
X06904Y09618D02*
X07003D01*
X06904Y09513D02*
X07004D01*
Y09713D01*
X06904D02*
X07004D01*
X06904Y09513D02*
Y09713D01*
X056953Y08459D02*
X058093D01*
X059273Y08458D02*
X060403D01*
X058283Y08856D02*
X058673Y08817D01*
Y08674D02*
Y08817D01*
X059523Y08882D02*
X059793Y08909D01*
X060453D01*
X057693D02*
X057953Y08883D01*
X056933Y08909D02*
X057693D01*
X055523Y0829D02*
Y0903D01*
X061823Y0829D02*
Y0903D01*
X055523Y0829D02*
X061823D01*
X055523Y0903D02*
X061823D01*
X058683Y08401D02*
Y08634D01*
X063437Y08459D02*
X064577D01*
X065757Y08458D02*
X066887D01*
X064767Y08856D02*
X065157Y08817D01*
Y08674D02*
Y08817D01*
X066007Y08882D02*
X066277Y08909D01*
X066937D01*
X064177D02*
X064437Y08883D01*
X063417Y08909D02*
X064177D01*
X062007Y0829D02*
Y0903D01*
X068307Y0829D02*
Y0903D01*
X062007Y0829D02*
X068307D01*
X062007Y0903D02*
X068307D01*
X065167Y08401D02*
Y08634D01*
X06992Y08459D02*
X07106D01*
X07224Y08458D02*
X07337D01*
X07125Y08856D02*
X07164Y08817D01*
Y08674D02*
Y08817D01*
X07249Y08882D02*
X07276Y08909D01*
X07342D01*
X07066D02*
X07092Y08883D01*
X0699Y08909D02*
X07066D01*
X06849Y0829D02*
Y0903D01*
X07479Y0829D02*
Y0903D01*
X06849Y0829D02*
X07479D01*
X06849Y0903D02*
X07479D01*
X07165Y08401D02*
Y08634D01*
X07646Y08456D02*
X0776D01*
X07878Y08455D02*
X07991D01*
X07779Y08853D02*
X07818Y08814D01*
Y08671D02*
Y08814D01*
X07903Y08879D02*
X0793Y08906D01*
X07996D01*
X0772D02*
X07746Y0888D01*
X07644Y08906D02*
X0772D01*
X07503Y08287D02*
Y09027D01*
X08133Y08287D02*
Y09027D01*
X07503Y08287D02*
X08133D01*
X07503Y09027D02*
X08133D01*
X07819Y08398D02*
Y08631D01*
X082943Y08456D02*
X084083D01*
X085263Y08455D02*
X086393D01*
X084273Y08853D02*
X084663Y08814D01*
Y08671D02*
Y08814D01*
X085513Y08879D02*
X085783Y08906D01*
X086443D01*
X083683D02*
X083943Y0888D01*
X082923Y08906D02*
X083683D01*
X081513Y08287D02*
Y09027D01*
X087813Y08287D02*
Y09027D01*
X081513Y08287D02*
X087813D01*
X081513Y09027D02*
X087813D01*
X084673Y08398D02*
Y08631D01*
X089427Y08456D02*
X090567D01*
X091747Y08455D02*
X092877D01*
X090757Y08853D02*
X091147Y08814D01*
Y08671D02*
Y08814D01*
X091997Y08879D02*
X092267Y08906D01*
X092927D01*
X090167D02*
X090427Y0888D01*
X089407Y08906D02*
X090167D01*
X087997Y08287D02*
Y09027D01*
X094297Y08287D02*
Y09027D01*
X087997Y08287D02*
X094297D01*
X087997Y09027D02*
X094297D01*
X091157Y08398D02*
Y08631D01*
X09591Y08456D02*
X09705D01*
X09823Y08455D02*
X09936D01*
X09724Y08853D02*
X09763Y08814D01*
Y08671D02*
Y08814D01*
X09848Y08879D02*
X09875Y08906D01*
X09941D01*
X09665D02*
X09691Y0888D01*
X09589Y08906D02*
X09665D01*
X09448Y08287D02*
Y09027D01*
X10078Y08287D02*
Y09027D01*
X09448Y08287D02*
X10078D01*
X09448Y09027D02*
X10078D01*
X09764Y08398D02*
Y08631D01*
X0522Y06957D02*
Y0719D01*
X04906Y06561D02*
X05536D01*
X04906Y07301D02*
X05536D01*
X04906Y06561D02*
Y07301D01*
X05536Y06561D02*
Y07301D01*
X05319Y06682D02*
X05395D01*
X05293Y06708D02*
X05319Y06682D01*
X05043D02*
X05109D01*
X05136Y06709D01*
X05221Y06774D02*
Y06917D01*
Y06774D02*
X0526Y06735D01*
X05048Y07133D02*
X05161D01*
X05279Y07132D02*
X05393D01*
X058689Y06957D02*
Y0719D01*
X055549Y06561D02*
X061849D01*
X055549Y07301D02*
X061849D01*
X055549Y06561D02*
Y07301D01*
X061849Y06561D02*
Y07301D01*
X059679Y06682D02*
X060439D01*
X059419Y06708D02*
X059679Y06682D01*
X056919D02*
X057579D01*
X057849Y06709D01*
X058699Y06774D02*
Y06917D01*
Y06774D02*
X059089Y06735D01*
X056969Y07133D02*
X058099D01*
X059279Y07132D02*
X060419D01*
X065177Y06957D02*
Y0719D01*
X062037Y06561D02*
X068337D01*
X062037Y07301D02*
X068337D01*
X062037Y06561D02*
Y07301D01*
X068337Y06561D02*
Y07301D01*
X066167Y06682D02*
X066927D01*
X065907Y06708D02*
X066167Y06682D01*
X063407D02*
X064067D01*
X064337Y06709D01*
X065187Y06774D02*
Y06917D01*
Y06774D02*
X065577Y06735D01*
X063457Y07133D02*
X064587D01*
X065767Y07132D02*
X066907D01*
X071666Y06957D02*
Y0719D01*
X068526Y06561D02*
X074826D01*
X068526Y07301D02*
X074826D01*
X068526Y06561D02*
Y07301D01*
X074826Y06561D02*
Y07301D01*
X072656Y06682D02*
X073416D01*
X072396Y06708D02*
X072656Y06682D01*
X069896D02*
X070556D01*
X070826Y06709D01*
X071676Y06774D02*
Y06917D01*
Y06774D02*
X072066Y06735D01*
X069946Y07133D02*
X071076D01*
X072256Y07132D02*
X073396D01*
X078154Y06957D02*
Y0719D01*
X075014Y06561D02*
X081314D01*
X075014Y07301D02*
X081314D01*
X075014Y06561D02*
Y07301D01*
X081314Y06561D02*
Y07301D01*
X079144Y06682D02*
X079904D01*
X078884Y06708D02*
X079144Y06682D01*
X076384D02*
X077044D01*
X077314Y06709D01*
X078164Y06774D02*
Y06917D01*
Y06774D02*
X078554Y06735D01*
X076434Y07133D02*
X077564D01*
X078744Y07132D02*
X079884D01*
X084643Y06957D02*
Y0719D01*
X081503Y06561D02*
X087803D01*
X081503Y07301D02*
X087803D01*
X081503Y06561D02*
Y07301D01*
X087803Y06561D02*
Y07301D01*
X085633Y06682D02*
X086393D01*
X085373Y06708D02*
X085633Y06682D01*
X082873D02*
X083533D01*
X083803Y06709D01*
X084653Y06774D02*
Y06917D01*
Y06774D02*
X085043Y06735D01*
X082923Y07133D02*
X084053D01*
X085233Y07132D02*
X086373D01*
X091131Y06957D02*
Y0719D01*
X087991Y06561D02*
X094291D01*
X087991Y07301D02*
X094291D01*
X087991Y06561D02*
Y07301D01*
X094291Y06561D02*
Y07301D01*
X092121Y06682D02*
X092881D01*
X091861Y06708D02*
X092121Y06682D01*
X089361D02*
X090021D01*
X090291Y06709D01*
X091141Y06774D02*
Y06917D01*
Y06774D02*
X091531Y06735D01*
X089411Y07133D02*
X090541D01*
X091721Y07132D02*
X092861D01*
X09762Y06957D02*
Y0719D01*
X09448Y06561D02*
X10078D01*
X09448Y07301D02*
X10078D01*
X09448Y06561D02*
Y07301D01*
X10078Y06561D02*
Y07301D01*
X09861Y06682D02*
X09937D01*
X09835Y06708D02*
X09861Y06682D01*
X09585D02*
X09651D01*
X09678Y06709D01*
X09763Y06774D02*
Y06917D01*
Y06774D02*
X09802Y06735D01*
X0959Y07133D02*
X09703D01*
X09821Y07132D02*
X09935D01*
X07568Y09618D02*
X07667D01*
X07568Y09513D02*
X07668D01*
Y09713D01*
X07568D02*
X07668D01*
X07568Y09513D02*
Y09713D01*
X08858Y09618D02*
X08957D01*
X08858Y09513D02*
X08958D01*
Y09713D01*
X08858D02*
X08958D01*
X08858Y09513D02*
Y09713D01*
X09503Y09618D02*
X09602D01*
X09503Y09513D02*
X09603D01*
Y09713D01*
X09503D02*
X09603D01*
X09503Y09513D02*
Y09713D01*
X08213Y09618D02*
X08312D01*
X08213Y09513D02*
X08313D01*
Y09713D01*
X08213D02*
X08313D01*
X08213Y09513D02*
Y09713D01*
X10425Y08173D02*
X10625D01*
Y08476D01*
X10525D02*
X10625D01*
X10425D02*
X10525D01*
X10425Y08173D02*
Y08476D01*
Y08378D02*
X10524D01*
D44*
X09686Y0744D02*
X0984D01*
X09686Y07375D02*
Y0744D01*
X0984Y07374D02*
Y0744D01*
X09686Y07374D02*
X0984D01*
X090343Y074416D02*
X091883D01*
X090343Y073766D02*
Y074416D01*
X091883Y073756D02*
Y074416D01*
X090343Y073756D02*
X091883D01*
X083826Y074416D02*
X085366D01*
X083826Y073766D02*
Y074416D01*
X085366Y073756D02*
Y074416D01*
X083826Y073756D02*
X085366D01*
X077309Y074416D02*
X078849D01*
X077309Y073766D02*
Y074416D01*
X078849Y073756D02*
Y074416D01*
X077309Y073756D02*
X078849D01*
X070791Y074416D02*
X072331D01*
X070791Y073766D02*
Y074416D01*
X072331Y073756D02*
Y074416D01*
X070791Y073756D02*
X072331D01*
X064274Y074416D02*
X065814D01*
X064274Y073766D02*
Y074416D01*
X065814Y073756D02*
Y074416D01*
X064274Y073756D02*
X065814D01*
X057757Y074416D02*
X059297D01*
X057757Y073766D02*
Y074416D01*
X059297Y073756D02*
Y074416D01*
X057757Y073756D02*
X059297D01*
X05124Y074416D02*
X05278D01*
X05124Y073766D02*
Y074416D01*
X05278Y073756D02*
Y074416D01*
X05124Y073756D02*
X05278D01*
X05147Y08216D02*
X05301D01*
X05147Y0815D02*
Y08216D01*
X05301Y0815D02*
Y08215D01*
X05147Y0815D02*
X05301D01*
X082329Y075687D02*
Y080333D01*
X079691Y075687D02*
Y080333D01*
Y075687D02*
X082329D01*
X079691Y080333D02*
X082329D01*
X098326Y080639D02*
X099034D01*
X098326Y076701D02*
X099034D01*
X098326D02*
Y080639D01*
X099034D02*
X099034Y076701D01*
X091149Y078736D02*
Y079444D01*
X087212Y078736D02*
Y079444D01*
X091149D01*
X087212Y078736D02*
X091149D01*
X095408D02*
Y079444D01*
X091472Y078736D02*
Y079444D01*
X095408D01*
X091472Y078736D02*
X095408D01*
X05792Y08216D02*
X05946D01*
X05792Y0815D02*
Y08216D01*
X05946Y0815D02*
Y08215D01*
X05792Y0815D02*
X05946D01*
X06442Y08216D02*
X06596D01*
X06442Y0815D02*
Y08216D01*
X06596Y0815D02*
Y08215D01*
X06442Y0815D02*
X06596D01*
X07087Y08216D02*
X07241D01*
X07087Y0815D02*
Y08216D01*
X07241Y0815D02*
Y08215D01*
X07087Y0815D02*
X07241D01*
X09691Y082185D02*
X09845D01*
X09691Y081525D02*
Y082185D01*
X09845Y081525D02*
Y082175D01*
X09691Y081525D02*
X09845D01*
X050474Y076701D02*
Y080639D01*
X049766Y076701D02*
Y080639D01*
Y076701D02*
X050474Y076701D01*
X049766Y080639D02*
X050474D01*
X067671Y075717D02*
X070309D01*
X067671Y080363D02*
X070309D01*
Y075717D02*
Y080363D01*
X067671Y075717D02*
Y080363D01*
X054851Y078736D02*
X058788D01*
X054851Y079444D02*
X058788D01*
X054851Y078736D02*
Y079444D01*
X058788Y078736D02*
Y079444D01*
X059082Y078736D02*
X063018D01*
X059082Y079444D02*
X063018D01*
X059082Y078736D02*
Y079444D01*
X063018Y078736D02*
Y079444D01*
X07756Y082185D02*
X0791D01*
X07756Y081525D02*
Y082185D01*
X0791Y081525D02*
Y082175D01*
X07756Y081525D02*
X0791D01*
X08396Y082185D02*
X0855D01*
X08396Y081525D02*
Y082185D01*
X0855Y081525D02*
Y082175D01*
X08396Y081525D02*
X0855D01*
X09046Y082185D02*
X092D01*
X09046Y081525D02*
Y082185D01*
X092Y081525D02*
Y082175D01*
X09046Y081525D02*
X092D01*
D45*
X09491Y07376D02*
Y07443D01*
X09644D01*
Y07376D02*
Y07443D01*
X09491Y07376D02*
X09644D01*
X088421D02*
Y07443D01*
X089951D01*
Y07376D02*
Y07443D01*
X088421Y07376D02*
X089951D01*
X081933D02*
Y07443D01*
X083463D01*
Y07376D02*
Y07443D01*
X081933Y07376D02*
X083463D01*
X075444D02*
Y07443D01*
X076974D01*
Y07376D02*
Y07443D01*
X075444Y07376D02*
X076974D01*
X068956D02*
Y07443D01*
X070486D01*
Y07376D02*
Y07443D01*
X068956Y07376D02*
X070486D01*
X062467D02*
Y07443D01*
X063997D01*
Y07376D02*
Y07443D01*
X062467Y07376D02*
X063997D01*
X055979D02*
Y07443D01*
X057509D01*
Y07376D02*
Y07443D01*
X055979Y07376D02*
X057509D01*
X04949D02*
Y07443D01*
X05102D01*
Y07376D02*
Y07443D01*
X04949Y07376D02*
X05102D01*
X05318Y082175D02*
X05471D01*
X05318Y081505D02*
Y082175D01*
Y081505D02*
X05471D01*
Y082175D01*
X095958Y076908D02*
X096076D01*
Y077814D01*
X096784D02*
X096784Y076908D01*
X096902D01*
Y076987D01*
X096784D02*
X096902D01*
X096784Y076948D02*
X096902D01*
X095958Y076908D02*
Y076987D01*
X096076D01*
X095958Y076948D02*
X096076D01*
X05958Y082165D02*
X06111D01*
X05958Y081495D02*
Y082165D01*
Y081495D02*
X06111D01*
Y082165D01*
X06608D02*
X06761D01*
X06608Y081495D02*
Y082165D01*
Y081495D02*
X06761D01*
Y082165D01*
X07253D02*
X07406D01*
X07253Y081495D02*
Y082165D01*
Y081495D02*
X07406D01*
Y082165D01*
X09212Y08219D02*
X09365D01*
X09212Y08152D02*
Y08219D01*
Y08152D02*
X09365D01*
Y08219D01*
X09857D02*
X1001D01*
X09857Y08152D02*
Y08219D01*
Y08152D02*
X1001D01*
Y08219D01*
X046998Y076948D02*
X047116D01*
X046998Y076987D02*
X047116D01*
X046998Y076908D02*
X046998Y076987D01*
X047824Y076948D02*
X047942D01*
X047824Y076987D02*
X047942Y076987D01*
Y076908D02*
Y076987D01*
X047824Y076908D02*
X047942D01*
X047824Y077814D02*
X047824Y076908D01*
X047116D02*
Y077814D01*
X046998Y076908D02*
X047116D01*
X07922Y08219D02*
X08075D01*
X07922Y08152D02*
Y08219D01*
Y08152D02*
X08075D01*
Y08219D01*
X08562D02*
X08715D01*
X08562Y08152D02*
Y08219D01*
Y08152D02*
X08715D01*
Y08219D01*
D46*
X09551Y07385D02*
X09585D01*
X09551Y07435D02*
X09585D01*
X089021Y07385D02*
X089361D01*
X089021Y07435D02*
X089361D01*
X082533Y07385D02*
X082873D01*
X082533Y07435D02*
X082873D01*
X076044Y07385D02*
X076384D01*
X076044Y07435D02*
X076384D01*
X069556Y07385D02*
X069896D01*
X069556Y07435D02*
X069896D01*
X063067Y07385D02*
X063407D01*
X063067Y07435D02*
X063407D01*
X056579Y07385D02*
X056919D01*
X056579Y07435D02*
X056919D01*
X05009Y07385D02*
X05043D01*
X05009Y07435D02*
X05043D01*
X05377Y081585D02*
X05411D01*
X05377Y082085D02*
X05411D01*
X06017Y081575D02*
X06051D01*
X06017Y082075D02*
X06051D01*
X06667Y081575D02*
X06701D01*
X06667Y082075D02*
X06701D01*
X07312Y081575D02*
X07346D01*
X07312Y082075D02*
X07346D01*
X09271Y0816D02*
X09305D01*
X09271Y0821D02*
X09305D01*
X09916Y0816D02*
X0995D01*
X09916Y0821D02*
X0995D01*
X07981Y0816D02*
X08015D01*
X07981Y0821D02*
X08015D01*
X08621Y0816D02*
X08655D01*
X08621Y0821D02*
X08655D01*
D47*
X099495Y07404D02*
D03*
X092998D02*
D03*
X086501D02*
D03*
X080004D02*
D03*
X073506D02*
D03*
X067009D02*
D03*
X060512D02*
D03*
X054015D02*
D03*
X050365Y081835D02*
D03*
X056815D02*
D03*
X063265D02*
D03*
X069765Y081835D02*
D03*
X076355Y08186D02*
D03*
X082855D02*
D03*
X089305D02*
D03*
X095805D02*
D03*
M02*
