M48
;Layer_Color=9474304
;FILE_FORMAT=2:4
INCH,LZ
;TYPE=PLATED
T1F00S00C0.0118
T2F00S00C0.0197
T3F00S00C0.0280
T4F00S00C0.0300
T5F00S00C0.0360
T6F00S00C0.0394
T7F00S00C0.0450
T8F00S00C0.0551
T9F00S00C0.1260
%
T01
X04826Y06918
X04897Y07551
X04894Y07741
X04956Y07792
X05148Y07792
X05182Y0774
X05219Y077
X05555Y07727
X05659Y07728
X05755Y0773
X05856Y07728
X0598Y0773
X06082Y07729
X06179Y0773
X06239Y07642
X061416Y07405
X056299Y0741
X05495Y07411
X04742Y07692
X06281Y07729
X06426Y077143
Y07744
X064267Y077772
X06626Y07605
X06791Y074
X07186Y0757
X07246Y0766
X07195Y07804
X07441Y07408
X08092Y07404
X08741Y07407
X08873Y07406
X08893Y07736
X08991Y07713
X09092Y07714
X09219Y07713
X09319Y07738
X08792Y07715
X085942Y077232
X08596Y07692
X08598Y0766
X09419Y07714
X09519Y07741
X09712Y07791
X10075Y07793
X10112Y07758
X1014Y07724
X10187Y0764
X10045Y07409
X102794Y07138
X1068Y07249
X09523Y0741
X09396Y07407
X0942Y08039
X0952Y08073
X09533Y081163
X09562Y08112
X09489Y08183
X09713Y07942
X09714Y07891
X10074
X10073Y07842
Y07941
X1007Y07992
X10373Y07962
X10382Y07971
X1047Y07984
X10619Y08026
X10687Y08328
X10349Y08274
Y08225
X10293Y08325
X10352Y08423
X09319Y08007
X09219Y07969
X09093Y07936
X08995Y07894
X08893Y07861
X08595Y0786
Y07827
X08594Y07893
Y07925
Y080575
X08842Y0819
X08191Y08184
X0803Y07901
X07981Y07903
X07791Y08046
X07674Y08048
X07469
X07388Y08049
X07336Y08048
X07191Y08004
X07188Y07955
X07191Y07902
X07189Y07854
X0687Y07813
X0689Y08184
X06406Y08057
X06426Y07978
Y07948
X06427Y079153
Y078838
X07539Y08175
X06238Y08187
X06179Y07857
X06081Y07919
X05979Y07947
X05854Y07975
X05755Y08006
X05652Y08032
X05555Y0806
X05588Y08185
X04947Y08182
X0496Y08029
X0484Y07991
X04833Y07842
X05122Y07843
X05088Y07891
Y07943
Y07993
T02
X10307Y06275
X10306Y06347
X10308Y06434
X102794Y07031
Y07138
X1068Y07249
X10725Y07247
X10576Y06881
T03
X04823Y06843
X05368Y06488
X05431
X0549
X06021Y0631
X06084
X06143
X0667Y06491
X06733
X06792
X07318Y0631
X07381
X0744
X0796Y06491
X08023
X08082
X08613Y0631
X08676
X08735
X09262Y06491
X09325
X09384
X09907Y0631
X0997
X10029
X10332Y09096
X10334Y09095
X10332Y09155
Y09218
X09616Y09295
X09553
X09494
X08967Y09092
X08904
X08845
X08326Y09295
X08263
X08262Y09294
X08204Y09295
X07682Y0909
X07619
X0756
X07017Y09291
X06954
X06895
X06365Y09098
X06302
X06243
X05729Y09291
X05666
X05607
X05078Y09101
X05015
X04956
T04
X10167Y09258
X10168Y09327
X10167Y09388
T05
X09964Y05943
Y06044
X093169
Y05943
X086697
Y06044
X080226
Y05943
X073754
Y06044
X067283
Y05943
X060811
Y06044
X05434
Y05943
X10475Y08227
X10475Y08326
X10575
X10575Y08426
X10475
X10575Y08226
X05659Y09562
Y09663
X05009
Y09562
X06304
Y09663
X06954
Y09562
X07618
Y09663
X08263
Y09562
X08908
Y09663
X09553
Y09562
T06
X10475Y06947
X10575
Y07047
Y07147
Y07247
Y07347
Y07447
Y07547
Y07647
Y07747
X10475
Y07647
Y07547
Y07447
Y07347
Y07247
Y07147
Y07047
Y07847
X10575
T07
X04981Y06681
X05461
X056299
X061099
Y07161
X058699Y07261
X056299Y07161
X05461
X05221Y07261
X04981Y07161
X062787
X065187Y07261
X067587Y07161
X069276
X071676Y07261
X074076Y07161
X075764
Y06681
X074076
X069276
X067587
X062787
X080564
X082253
X087053
X088741
X093541
Y07161
X091141Y07261
X088741Y07161
X087053
X084653Y07261
X082253Y07161
X080564
X078164Y07261
X09523Y07161
X09763Y07261
X10003Y07161
Y06681
X09523
Y08427
X09763Y08327
X10003Y08427
Y08907
X09523
X093547
Y08427
X091147Y08327
X088747Y08427
X087063
X084663Y08327
X082263Y08427
X08058
X07818Y08327
X08058Y08907
X082263
X087063
X088747
X07578
X07404Y0891
Y0843
X07578Y08427
X07164Y0833
X06924Y0843
X067557
X065157Y0833
X062757Y0843
Y0891
X067557
X06924
X061073
Y0843
X058673Y0833
X056273Y0843
X05459
X05219Y0833
X04979Y0843
Y0891
X05459
X056273
T08
X095886Y059398
Y061367
X097855
Y059398
X103046Y059398
Y061367
X105015
Y059398
X091373
Y061367
X089405
Y059398
X084892Y059398
Y061367
X082923
Y059398
X07841Y059398
Y061367
X076442
Y059398
X071929Y059398
Y061367
X06996
Y059398
X065448Y059398
Y061367
X063479
Y059398
X058966Y059398
Y061367
X056998
Y059398
X052485Y059398
Y061367
X050516
Y059398
X05186Y094653
X053829
Y096622
X05186
X058344
X060312
Y094653
X058344
X064827
X066796
Y096622
X064827
X07131
X073279
Y094653
X07131
X0779
Y096622
X079869
Y094653
X08435
X086319
Y096622
X08435
X0908
X092769
Y094653
X0908
X09725
X099219
Y096622
X09725
X103305
X105274
Y094653
X103305
T09
X108862Y059831
X047177Y059825
Y096195
X108862
M30
