G04 Layer_Color=65535*
%FSTAX24Y24*%
%MOIN*%
G70*
G01*
G75*
%ADD79C,0.0080*%
%ADD80R,0.0449X0.0197*%
%ADD81R,0.0201X0.0315*%
D79*
X079526Y075595D02*
X082494D01*
X079526D02*
Y080429D01*
X082494D01*
Y075595D02*
Y080429D01*
X067506Y080455D02*
X067506Y075621D01*
X070474D01*
Y080455D01*
X067506D02*
X070474D01*
D80*
X07979Y08001D02*
D03*
X07979Y07951D02*
D03*
Y07901D02*
D03*
X07979Y07851D02*
D03*
X07979Y07801D02*
D03*
X07979Y07751D02*
D03*
X07979Y07701D02*
D03*
Y07651D02*
D03*
Y07601D02*
D03*
X082231Y07601D02*
D03*
X082231Y07651D02*
D03*
X082231Y07701D02*
D03*
Y07751D02*
D03*
X082231Y07801D02*
D03*
X082231Y07851D02*
D03*
X082231Y07901D02*
D03*
X082231Y07951D02*
D03*
X082231Y08001D02*
D03*
X067769Y07604D02*
D03*
X067769Y07654D02*
D03*
X067769Y07704D02*
D03*
Y07754D02*
D03*
X067769Y07804D02*
D03*
Y07854D02*
D03*
X067769Y07904D02*
D03*
X067769Y07954D02*
D03*
X067769Y08004D02*
D03*
X07021Y08004D02*
D03*
X07021Y07954D02*
D03*
X07021Y07904D02*
D03*
X07021Y07854D02*
D03*
X07021Y07804D02*
D03*
X07021Y07754D02*
D03*
X07021Y07704D02*
D03*
Y07654D02*
D03*
X07021Y07604D02*
D03*
D81*
X079386Y08001D02*
D03*
X079386Y07951D02*
D03*
X079386Y07901D02*
D03*
Y07851D02*
D03*
X079386Y07801D02*
D03*
X079386Y07751D02*
D03*
X079386Y07701D02*
D03*
X079386Y07651D02*
D03*
X079386Y07601D02*
D03*
X082634Y07601D02*
D03*
X082634Y07651D02*
D03*
X082634Y07701D02*
D03*
X082634Y07751D02*
D03*
Y07801D02*
D03*
Y07851D02*
D03*
Y07901D02*
D03*
X082634Y07951D02*
D03*
X082634Y08001D02*
D03*
X067366Y07604D02*
D03*
X067366Y07654D02*
D03*
X067366Y07704D02*
D03*
X067366Y07754D02*
D03*
Y07804D02*
D03*
X067366Y07854D02*
D03*
X067366Y07904D02*
D03*
Y07954D02*
D03*
X067366Y08004D02*
D03*
X070614Y08004D02*
D03*
X070614Y07954D02*
D03*
X070614Y07904D02*
D03*
X070614Y07854D02*
D03*
Y07804D02*
D03*
X070614Y07754D02*
D03*
X070614Y07704D02*
D03*
X070614Y07654D02*
D03*
X070614Y07604D02*
D03*
M02*
