G04 Layer_Color=8421504*
%FSTAX24Y24*%
%MOIN*%
G70*
G01*
G75*
%ADD10R,0.0500X0.0500*%
%ADD11R,0.0500X0.0550*%
%ADD12R,0.0600X0.0600*%
G04:AMPARAMS|DCode=13|XSize=37.4mil|YSize=19.7mil|CornerRadius=2.5mil|HoleSize=0mil|Usage=FLASHONLY|Rotation=270.000|XOffset=0mil|YOffset=0mil|HoleType=Round|Shape=RoundedRectangle|*
%AMROUNDEDRECTD13*
21,1,0.0374,0.0148,0,0,270.0*
21,1,0.0325,0.0197,0,0,270.0*
1,1,0.0049,-0.0074,-0.0162*
1,1,0.0049,-0.0074,0.0162*
1,1,0.0049,0.0074,0.0162*
1,1,0.0049,0.0074,-0.0162*
%
%ADD13ROUNDEDRECTD13*%
G04:AMPARAMS|DCode=14|XSize=37.4mil|YSize=19.7mil|CornerRadius=2.5mil|HoleSize=0mil|Usage=FLASHONLY|Rotation=180.000|XOffset=0mil|YOffset=0mil|HoleType=Round|Shape=RoundedRectangle|*
%AMROUNDEDRECTD14*
21,1,0.0374,0.0148,0,0,180.0*
21,1,0.0325,0.0197,0,0,180.0*
1,1,0.0049,-0.0162,0.0074*
1,1,0.0049,0.0162,0.0074*
1,1,0.0049,0.0162,-0.0074*
1,1,0.0049,-0.0162,-0.0074*
%
%ADD14ROUNDEDRECTD14*%
%ADD15R,0.0800X0.0300*%
G04:AMPARAMS|DCode=16|XSize=30mil|YSize=80mil|CornerRadius=7.5mil|HoleSize=0mil|Usage=FLASHONLY|Rotation=270.000|XOffset=0mil|YOffset=0mil|HoleType=Round|Shape=RoundedRectangle|*
%AMROUNDEDRECTD16*
21,1,0.0300,0.0650,0,0,270.0*
21,1,0.0150,0.0800,0,0,270.0*
1,1,0.0150,-0.0325,-0.0075*
1,1,0.0150,-0.0325,0.0075*
1,1,0.0150,0.0325,0.0075*
1,1,0.0150,0.0325,-0.0075*
%
%ADD16ROUNDEDRECTD16*%
%ADD17R,0.0787X0.0236*%
G04:AMPARAMS|DCode=18|XSize=70.9mil|YSize=47.2mil|CornerRadius=5.9mil|HoleSize=0mil|Usage=FLASHONLY|Rotation=90.000|XOffset=0mil|YOffset=0mil|HoleType=Round|Shape=RoundedRectangle|*
%AMROUNDEDRECTD18*
21,1,0.0709,0.0354,0,0,90.0*
21,1,0.0591,0.0472,0,0,90.0*
1,1,0.0118,0.0177,0.0295*
1,1,0.0118,0.0177,-0.0295*
1,1,0.0118,-0.0177,-0.0295*
1,1,0.0118,-0.0177,0.0295*
%
%ADD18ROUNDEDRECTD18*%
%ADD19R,0.0236X0.0787*%
D10*
X09718Y07407D02*
D03*
X09808D02*
D03*
X090663Y074086D02*
D03*
X091563D02*
D03*
X084146D02*
D03*
X085046D02*
D03*
X077629D02*
D03*
X078529D02*
D03*
X071111D02*
D03*
X072011D02*
D03*
X064594D02*
D03*
X065494D02*
D03*
X058077D02*
D03*
X058977D02*
D03*
X05156D02*
D03*
X05246D02*
D03*
X05179Y08183D02*
D03*
X05269D02*
D03*
X05824D02*
D03*
X05914D02*
D03*
X06474D02*
D03*
X06564D02*
D03*
X07119D02*
D03*
X07209D02*
D03*
X09723Y081855D02*
D03*
X09813D02*
D03*
X07788D02*
D03*
X07878D02*
D03*
X08428D02*
D03*
X08518D02*
D03*
X09078D02*
D03*
X09168D02*
D03*
D11*
X09523Y0741D02*
D03*
X09613D02*
D03*
X088741D02*
D03*
X089641D02*
D03*
X082253D02*
D03*
X083153D02*
D03*
X075764D02*
D03*
X076664D02*
D03*
X069276D02*
D03*
X070176D02*
D03*
X062787D02*
D03*
X063687D02*
D03*
X056299D02*
D03*
X057199D02*
D03*
X04981D02*
D03*
X05071D02*
D03*
X05349Y081835D02*
D03*
X05439D02*
D03*
X05989Y081825D02*
D03*
X06079D02*
D03*
X06639D02*
D03*
X06729D02*
D03*
X07284D02*
D03*
X07374D02*
D03*
X09243Y08185D02*
D03*
X09333D02*
D03*
X09888D02*
D03*
X09978D02*
D03*
X07953D02*
D03*
X08043D02*
D03*
X08593D02*
D03*
X08683D02*
D03*
D12*
X100399Y07405D02*
D03*
X099041D02*
D03*
X093902D02*
D03*
X092544D02*
D03*
X087405D02*
D03*
X086047D02*
D03*
X080908D02*
D03*
X079549D02*
D03*
X074411D02*
D03*
X073052D02*
D03*
X067913D02*
D03*
X066555D02*
D03*
X061416D02*
D03*
X060058D02*
D03*
X054919D02*
D03*
X053561D02*
D03*
X049461Y081825D02*
D03*
X050819D02*
D03*
X055911D02*
D03*
X057269D02*
D03*
X062361D02*
D03*
X063719D02*
D03*
X068861D02*
D03*
X070219D02*
D03*
X075451Y08185D02*
D03*
X076809D02*
D03*
X081951D02*
D03*
X083309D02*
D03*
X088401D02*
D03*
X089759D02*
D03*
X094901D02*
D03*
X096259D02*
D03*
D13*
X056088Y076724D02*
D03*
X056403D02*
D03*
X056717D02*
D03*
X057032D02*
D03*
Y076016D02*
D03*
X056717D02*
D03*
X056403D02*
D03*
X056088D02*
D03*
X060298Y076724D02*
D03*
X060613D02*
D03*
X060927D02*
D03*
X061242D02*
D03*
Y076016D02*
D03*
X060927D02*
D03*
X060613D02*
D03*
X060298D02*
D03*
X088448Y076016D02*
D03*
X088763D02*
D03*
X089077D02*
D03*
X089392D02*
D03*
Y076724D02*
D03*
X089077D02*
D03*
X088763D02*
D03*
X088448D02*
D03*
X092708Y076016D02*
D03*
X093023D02*
D03*
X093337D02*
D03*
X093652D02*
D03*
Y076724D02*
D03*
X093337D02*
D03*
X093023D02*
D03*
X092708D02*
D03*
D14*
X066244Y079782D02*
D03*
X066244Y079467D02*
D03*
Y079153D02*
D03*
X066244Y078838D02*
D03*
X065536Y078838D02*
D03*
Y079153D02*
D03*
Y079467D02*
D03*
Y079782D02*
D03*
X066244Y077772D02*
D03*
Y077457D02*
D03*
Y077143D02*
D03*
Y076828D02*
D03*
X065536Y076828D02*
D03*
X065536Y077143D02*
D03*
Y077457D02*
D03*
X065536Y077772D02*
D03*
X084464Y076288D02*
D03*
Y076603D02*
D03*
Y076917D02*
D03*
Y077232D02*
D03*
X083756D02*
D03*
Y076917D02*
D03*
Y076603D02*
D03*
Y076288D02*
D03*
X084464Y078288D02*
D03*
Y078603D02*
D03*
Y078917D02*
D03*
Y079232D02*
D03*
X083756D02*
D03*
Y078917D02*
D03*
Y078603D02*
D03*
Y078288D02*
D03*
X102804Y076958D02*
D03*
Y077273D02*
D03*
Y077587D02*
D03*
Y077902D02*
D03*
X102096D02*
D03*
Y077587D02*
D03*
Y077273D02*
D03*
Y076958D02*
D03*
X102794Y078698D02*
D03*
Y079013D02*
D03*
Y079327D02*
D03*
Y079642D02*
D03*
X102086D02*
D03*
Y079327D02*
D03*
Y079013D02*
D03*
Y078698D02*
D03*
X052726Y076978D02*
D03*
Y077293D02*
D03*
Y077607D02*
D03*
Y077922D02*
D03*
X053434D02*
D03*
Y077607D02*
D03*
Y077293D02*
D03*
Y076978D02*
D03*
X052716Y078698D02*
D03*
Y079013D02*
D03*
Y079327D02*
D03*
Y079642D02*
D03*
X053424D02*
D03*
Y079327D02*
D03*
X053424Y079013D02*
D03*
Y078698D02*
D03*
D15*
X082851Y07601D02*
D03*
X067149Y08004D02*
D03*
D16*
X082851Y07651D02*
D03*
Y07701D02*
D03*
Y07751D02*
D03*
Y07801D02*
D03*
Y07851D02*
D03*
Y07901D02*
D03*
Y07951D02*
D03*
Y08001D02*
D03*
X079169Y07601D02*
D03*
X079169Y07651D02*
D03*
X079169Y07701D02*
D03*
Y07751D02*
D03*
Y07801D02*
D03*
Y07851D02*
D03*
Y07901D02*
D03*
Y07951D02*
D03*
Y08001D02*
D03*
X070831Y07604D02*
D03*
Y07654D02*
D03*
Y07704D02*
D03*
Y07754D02*
D03*
Y07804D02*
D03*
Y07854D02*
D03*
Y07904D02*
D03*
Y07954D02*
D03*
Y08004D02*
D03*
X067149Y07604D02*
D03*
Y07654D02*
D03*
Y07704D02*
D03*
Y07754D02*
D03*
Y07804D02*
D03*
Y07854D02*
D03*
Y07904D02*
D03*
Y07954D02*
D03*
D17*
X09746Y08042D02*
D03*
Y07992D02*
D03*
Y07942D02*
D03*
Y07892D02*
D03*
Y07842D02*
D03*
Y07792D02*
D03*
Y07742D02*
D03*
Y07692D02*
D03*
X0999Y08042D02*
D03*
Y07992D02*
D03*
Y07942D02*
D03*
Y07892D02*
D03*
Y07842D02*
D03*
Y07792D02*
D03*
Y07742D02*
D03*
Y07692D02*
D03*
X05134D02*
D03*
Y07742D02*
D03*
X05134Y07792D02*
D03*
X05134Y07842D02*
D03*
Y07892D02*
D03*
X05134Y07942D02*
D03*
X05134Y07992D02*
D03*
X05134Y08042D02*
D03*
X0489Y07692D02*
D03*
Y07742D02*
D03*
Y07792D02*
D03*
Y07842D02*
D03*
Y07892D02*
D03*
Y07942D02*
D03*
Y07992D02*
D03*
Y08042D02*
D03*
D18*
X09643Y077932D02*
D03*
Y076908D02*
D03*
X04747D02*
D03*
Y077932D02*
D03*
D19*
X09093Y08031D02*
D03*
X09043D02*
D03*
X08993D02*
D03*
X08943D02*
D03*
X08893D02*
D03*
X08843D02*
D03*
X08793D02*
D03*
X08743D02*
D03*
X09093Y07787D02*
D03*
X09043D02*
D03*
X08993D02*
D03*
X08943D02*
D03*
X08893D02*
D03*
X08843D02*
D03*
X08793D02*
D03*
X08743D02*
D03*
X09519Y08031D02*
D03*
X09469D02*
D03*
X09419D02*
D03*
X09369D02*
D03*
X09319D02*
D03*
X09269D02*
D03*
X09219D02*
D03*
X09169D02*
D03*
X09519Y07787D02*
D03*
X09469D02*
D03*
X09419D02*
D03*
X09369D02*
D03*
X09319D02*
D03*
X09269D02*
D03*
X09219D02*
D03*
X09169D02*
D03*
X05507D02*
D03*
X05557D02*
D03*
X05607D02*
D03*
X05657D02*
D03*
X05707D02*
D03*
X05757D02*
D03*
X05807D02*
D03*
X05857D02*
D03*
X05507Y08031D02*
D03*
X05557D02*
D03*
X05607D02*
D03*
X05657D02*
D03*
X05707D02*
D03*
X05757D02*
D03*
X05807D02*
D03*
X05857D02*
D03*
X0593Y07787D02*
D03*
X0598D02*
D03*
X0603D02*
D03*
X0608D02*
D03*
X0613D02*
D03*
X0618D02*
D03*
X0623D02*
D03*
X0628D02*
D03*
X0593Y08031D02*
D03*
X0598D02*
D03*
X0603D02*
D03*
X0608D02*
D03*
X0613D02*
D03*
X0618D02*
D03*
X0623D02*
D03*
X0628D02*
D03*
M02*
