M48
;Layer_Color=9474304
;FILE_FORMAT=2:4
INCH,LZ
;TYPE=PLATED
T1F00S00C0.0118
T2F00S00C0.0276
T3F00S00C0.0310
T5F00S00C0.0360
T6F00S00C0.0362
T7F00S00C0.0394
T8F00S00C0.0433
T9F00S00C0.0500
T10F00S00C0.0551
T11F00S00C0.0787
T12F00S00C0.0906
T13F00S00C0.1260
%
T01
X25342Y15437
X25341Y15398
X25242Y15337
X25243Y15299
X25132Y15326
X25442Y15157
X25442Y15114
X24908Y15189
X24684
X24643Y15189
X24642Y15454
X245079Y155512
X244095Y153543
X242126
X24155Y153
X2411
X24065Y15298
X240157Y153543
X238189
X23622
X24311Y151575
X24448Y14946
X24855Y15419
X24901
X234252Y153543
X232283
X230315
X22951Y15591
X22765Y15276
X22766Y15248
X22742Y14904
X22741Y14865
X222441Y149606
X220472
X219488Y151575
X220472Y153543
X222441
X219488Y155512
X23325Y14965
X23353Y149678
X23377Y14966
X218504Y149606
X216535
X214567
X212598
X21063
X208661
X206693
X204724
Y153543
X20376Y15375
X20575
X206693Y153543
X20775Y15375
X208661Y153543
X20965Y15375
X21063Y153543
X21166Y15375
X212598Y153543
X21361Y15375
X213583Y155512
X2156Y15375
X216535Y153543
X21758Y15375
X218504Y153543
X202756
X201772Y155512
Y151575
X202756Y149606
Y15748
X201772Y159449
X202756Y161417
Y165354
X201772Y167323
X200787Y169291
X198819
X194882
X192913
X193898Y17126
X204724Y169291
X20517Y16859
X20618Y16802
X20712Y16753
X207924Y166994
X21071Y16697
X21069Y16751
X2115Y16799
X21234Y16858
X213734Y166466
X213478Y166002
X21399Y166
X214246Y165504
X216535Y161417
X21606Y16036
X217597Y161963
X21855Y15814
X216535Y15748
X21268Y16038
X21063Y161417
X208661
X206693
X20713Y16197
X204724Y161417
X20374Y159449
X204724Y165354
X213583Y17126
X215551
X21752
X219488
X21953Y1672
X22051Y1666
Y16598
X22055Y16283
X22092Y16284
X22124Y16286
X22182Y16197
X2234Y16181
X2221Y16403
X22536Y164093
X22572Y16406
X225394Y163386
X22919Y16291
X22979Y16402
X23042Y16401
X230315Y165354
X229331Y167323
X2295Y16866
X229331Y17126
X22388Y16824
X22288Y16829
X22189Y1678
X222441Y15748
X21975Y15815
X22926Y1581
X22955Y15716
X22951Y15656
X23044Y15805
X23191Y15876
X23392Y15926
X23347Y15975
X23356Y16226
X23378Y16274
X23357Y16328
X2329Y16417
X23262Y1623
X23063Y16163
X234252Y15748
X23411Y15714
X23565Y15987
X23622Y161417
X238189
X23773Y1623
Y16295
X238189Y165354
X240157
X2423Y16426
X24287Y16377
X24343Y16478
X244Y16326
X24699Y16327
X24803Y16377
X24764Y16427
X24802Y16475
X24697Y16491
X24647Y16551
Y16649
X24764Y16676
X24702Y16748
X24849Y16864
X24846Y17019
X24948Y16782
X24888Y16573
X24848Y16046
X2482Y15949
Y15851
X24577Y15853
X24629Y15918
X24346Y15976
X24282Y15915
X24227Y15847
X24128Y15832
X24185Y16226
X243Y16751
X24301Y16808
X243Y16853
X2425Y16918
X23622Y165354
X23522Y16375
X2534Y16324
X25381
X25341Y16217
X25327Y16231
X25341Y15994
Y1596
X25246Y16004
X25126Y15775
X25Y15748
X25202Y17264
X25279Y17226
X25363Y17392
Y17459
X25263Y17481
X25117Y17482
X25115Y17525
X25088Y17418
X25044Y17729
X25218Y17678
X25263Y17766
X251969Y181102
X25048Y18249
X251969Y185039
X247772Y183942
X247047Y183071
X24873Y1825
X24753Y18102
X24675Y1807
X2467Y17932
X24672Y17884
X2467Y1778
X24647Y17526
X24599Y17528
X24549Y17526
X24499Y17525
X24448
X24399Y17616
X24351Y1761
X243078Y17653
X24311Y179134
X244095Y181102
X24191Y18153
X2414Y18152
X24062Y1815
X24011Y18153
X238189Y181102
X23622
X237205Y179134
X239173
X238189Y177165
X23622
X235236Y179134
Y183071
X23731Y18322
X239173Y183071
X240157Y185039
X238189
X244095
X24551Y1855
X245Y18643
X24753Y17975
X24801Y17527
X24882
X24957
X249838Y174188
X249196Y173044
X24699Y17462
X23982Y17516
X2381Y17519
X238189Y173228
X23969Y17313
X23879Y1719
X234252Y173228
Y177165
X232283
X23065Y17861
X2307Y17929
X22957Y18075
X22868Y18076
X2285Y18058
X22566Y18084
X22475Y18078
X22455Y18058
X22172Y18079
X22093Y18088
X22063Y18058
X221457Y175197
X225394
X227362
X229331
X228346Y173228
X232283Y181102
X234252
Y185039
X22957Y184499
X217783Y180863
X21694Y18088
X21665Y18058
X21385Y18084
X21301Y18083
X21276Y18058
X20993Y18077
X20902Y18085
X20875Y18058
X205972Y180772
X20513Y18084
X20484Y18058
X205709Y175197
X20374
X209646
X211614
X213583
X215551
X21752
X208661Y173228
X202756
X201772Y175197
X199803
X197835
X19685Y173228
X192913
X193898Y175197
X192913Y177165
X193898Y179134
X192913Y181102
X193898Y183071
X198819Y185039
X20129Y18085
X201Y18056
X202035Y180765
T02
X250978Y183493
X251175Y182902
X250387
Y181642
X251175
X250978Y182233
X249994
X249206
X248813Y181642
X248025
X248222Y182233
X248025Y182902
X248813
X2496
X249206Y183493
X249994
X248222
X2496Y181642
T03
X23528Y18603
X23355
T05
X2431Y15458
X24209
X24111
X25463Y17127
Y17225
Y17326
X22764Y17957
Y18058
X223701
Y17957
X219763
Y18058
X215824
Y17957
X211886
Y18058
X207947
Y17957
X204009
Y18058
X20007Y18056
Y17955
X19662Y17946
X19662Y17847
X19562
X19562Y17747
X19662
X19562Y17947
T06
X242378Y183142
X241394
X240606
X239622
X239622Y182111
X240606
X241394
X242378
T07
X2513Y16828
X2503
Y16728
X2513
Y16628
Y16528
X2503
Y16628
Y16428
Y16328
Y16228
Y16128
Y16028
Y15928
X2513
Y16028
Y16128
Y16228
Y16328
Y16428
T08
X25129Y15548
X25029
Y15648
X25129
T09
X235482Y175302
X233255Y173075
T10
X223375Y151147
X221406
Y149178
X223375
X217556
X215587
Y151147
X213619Y151147
Y149178
X21165Y149178
Y151147
X209682Y151147
X209682Y149178
X207713
X205745
X203776
X203776Y151147
X205745
X207713
X217556
X198495
X196526
X196526Y149178
X198495
X219751Y184523
Y186492
X22172Y186492
X223688
X225657
X225657Y184523
X227625
X227625Y186492
X229594
X229594Y184523
X223688
X22172Y184523
X217783
X215814Y184523
X213846
X211877
X209909
X209909Y186492
X211877
X213846
X215814
X217783
X20794
Y184523
X205972Y184523
Y186492
X204003Y186492
Y184523
X202035Y184523
X200066
X200066Y186492
X202035
X197384Y186512
X195415
X195415Y184543
X197384
T11
X196427Y166116
Y162967
X226939Y162534
Y164093
Y165652
Y167219
T12
X252187Y18428
Y182044
X247013
Y18428
X243587Y184209
Y181973
X238413
Y184209
T13
X254482Y149705
X192707Y149735
X197333Y158006
X197333Y171786
X22627Y171786
Y158006
X254482Y186055
X192797Y186075
M30
