G04 Layer_Physical_Order=2*
G04 Layer_Color=16711680*
%FSTAX24Y24*%
%MOIN*%
G70*
G01*
G75*
%ADD39C,0.0157*%
%ADD40C,0.0100*%
%ADD41C,0.0591*%
%ADD43C,0.0200*%
%ADD44C,0.0197*%
%ADD45C,0.0300*%
%ADD46C,0.0315*%
%ADD47P,0.1492X8X22.5*%
%ADD48O,0.0750X0.0650*%
%ADD49O,0.0650X0.0750*%
%ADD50C,0.0630*%
%ADD51R,0.0630X0.0630*%
%ADD52O,0.1200X0.1500*%
%ADD53O,0.1500X0.1200*%
%ADD54P,0.1492X8X22.5*%
%ADD55R,0.0787X0.0984*%
%ADD56O,0.0787X0.0591*%
%ADD57R,0.0787X0.0591*%
%ADD58O,0.0860X0.0600*%
%ADD59C,0.0750*%
%ADD60O,0.0591X0.0787*%
%ADD61C,0.0472*%
%ADD62O,0.1516X0.1142*%
%ADD63C,0.1358*%
%ADD64R,0.0559X0.0559*%
%ADD65C,0.0559*%
%ADD66C,0.0197*%
%ADD67C,0.0500*%
%ADD68C,0.0236*%
G36*
X197006Y17731D02*
X196987Y177259D01*
X19697Y177202D01*
X196956Y177138D01*
X196933Y176993D01*
X196925Y176911D01*
X196915Y176629D01*
X196325Y176629D01*
X196324Y176729D01*
X196307Y176993D01*
X196297Y177069D01*
X19627Y177202D01*
X196253Y177259D01*
X196234Y17731D01*
X196213Y177355D01*
X197027D01*
X197006Y17731D01*
D02*
G37*
G36*
X196006D02*
X195987Y177259D01*
X19597Y177202D01*
X195956Y177138D01*
X195933Y176993D01*
X195925Y176911D01*
X195915Y176629D01*
X195325D01*
X195324Y176729D01*
X195307Y176993D01*
X195297Y177069D01*
X19527Y177202D01*
X195253Y177259D01*
X195234Y17731D01*
X195213Y177355D01*
X196027D01*
X196006Y17731D01*
D02*
G37*
G36*
X213728Y150903D02*
X213726Y150892D01*
X213724Y150875D01*
X21372Y150786D01*
X213719Y150656D01*
X213819D01*
X2138Y150654D01*
X213783Y150648D01*
X213768Y150638D01*
X213755Y150624D01*
X213744Y150606D01*
X213735Y150584D01*
X213728Y150558D01*
X213723Y150528D01*
X21372Y150494D01*
X213719Y150456D01*
X213519D01*
X213518Y150494D01*
X213515Y150528D01*
X21351Y150558D01*
X213503Y150584D01*
X213494Y150606D01*
X213483Y150624D01*
X21347Y150638D01*
X213455Y150648D01*
X213438Y150654D01*
X213419Y150656D01*
X213516D01*
X213507Y150909D01*
X21373D01*
X213728Y150903D01*
D02*
G37*
G36*
X217737Y150654D02*
X21772Y150648D01*
X217705Y150638D01*
X217692Y150624D01*
X217681Y150606D01*
X217672Y150584D01*
X217665Y150558D01*
X21766Y150528D01*
X217657Y150494D01*
X217656Y150456D01*
X217456D01*
X217455Y150494D01*
X217452Y150528D01*
X217447Y150558D01*
X21744Y150584D01*
X217431Y150606D01*
X21742Y150624D01*
X217407Y150638D01*
X217392Y150648D01*
X217375Y150654D01*
X217356Y150656D01*
X217756D01*
X217737Y150654D01*
D02*
G37*
G36*
X248065Y175411D02*
X248065Y1754D01*
X248067Y175381D01*
X248068Y175372D01*
X24807Y175364D01*
X248071Y175357D01*
X248074Y175351D01*
X248076Y175346D01*
X248079Y175341D01*
X248083Y175337D01*
X247945Y175344D01*
X247949Y175348D01*
X247952Y175352D01*
X247955Y175358D01*
X247958Y175364D01*
X24796Y175371D01*
X247962Y175379D01*
X247963Y175387D01*
X247964Y175396D01*
X247965Y175417D01*
X248065Y175411D01*
D02*
G37*
G36*
X250698Y17681D02*
Y175445D01*
X250671Y175378D01*
X25067Y175376D01*
X250623Y17536D01*
X250431Y175552D01*
Y176786D01*
X25044Y176794D01*
X250568Y176811D01*
X250648Y176844D01*
X250698Y17681D01*
D02*
G37*
G36*
X244045Y176102D02*
X244044Y176096D01*
X244043Y17609D01*
X244059D01*
X244055Y176086D01*
X244052Y176081D01*
X244049Y176075D01*
X244047Y176069D01*
X244045Y176062D01*
X244043Y176054D01*
X244042Y176046D01*
X244041Y176038D01*
X24404Y175942D01*
X24394D01*
X243936Y176059D01*
X243935Y176062D01*
X243933Y176069D01*
X243931Y176075D01*
X243928Y176081D01*
X243925Y176086D01*
X243921Y17609D01*
X243935D01*
X243934Y176104D01*
X244046D01*
X244045Y176102D01*
D02*
G37*
G36*
X247043Y177387D02*
Y175737D01*
X247043Y175737D01*
X246606D01*
X246598Y175739D01*
X24647Y175756D01*
X246342Y175739D01*
X246249Y175701D01*
X246238Y17571D01*
X246118Y175759D01*
X24599Y175776D01*
X245862Y175759D01*
X245742Y17571D01*
X245724Y175696D01*
X245618Y175739D01*
X24549Y175756D01*
X245362Y175739D01*
X245242Y17569D01*
X245232Y175682D01*
X245118Y175729D01*
X24499Y175746D01*
X244862Y175729D01*
X244742Y17568D01*
X244735Y175675D01*
X244728Y17568D01*
X244608Y175729D01*
X244573Y175734D01*
X244559Y175786D01*
X244607Y175823D01*
X245477Y176693D01*
X245553Y176792D01*
X2456Y176907D01*
X245617Y17703D01*
Y177385D01*
X245661Y177408D01*
X245688Y177387D01*
X245803Y17734D01*
X245926Y177323D01*
X246564D01*
X246572Y177321D01*
X2467Y177304D01*
X246828Y177321D01*
X246948Y17737D01*
X246999Y177409D01*
X247043Y177387D01*
D02*
G37*
G36*
X197546Y179658D02*
X197573Y179648D01*
X197611Y179639D01*
X197659Y179631D01*
X197786Y179619D01*
X198055Y179611D01*
X198165Y17961D01*
Y17931D01*
X198055Y179309D01*
X197611Y179281D01*
X197573Y179272D01*
X197546Y179262D01*
X197529Y179251D01*
Y179669D01*
X197546Y179658D01*
D02*
G37*
G36*
X200331Y179798D02*
X200364Y179777D01*
X200399Y179759D01*
X200436Y179743D01*
X200476Y17973D01*
X200518Y179719D01*
X200561Y179711D01*
X200608Y179705D01*
X200656Y179701D01*
X200707Y1797D01*
Y1794D01*
X200656Y179399D01*
X200561Y179389D01*
X200518Y179381D01*
X200476Y17937D01*
X200436Y179357D01*
X200399Y179341D01*
X200364Y179323D01*
X200331Y179302D01*
X200301Y179279D01*
Y179821D01*
X200331Y179798D01*
D02*
G37*
G36*
X203778Y179299D02*
X203752Y179319D01*
X203723Y179336D01*
X203691Y179351D01*
X203656Y179364D01*
X203618Y179375D01*
X203577Y179384D01*
X203533Y179391D01*
X203435Y179399D01*
X203382Y1794D01*
X203361Y1797D01*
X203409Y179701D01*
X203456Y179706D01*
X203502Y179713D01*
X203546Y179722D01*
X203588Y179735D01*
X203629Y179751D01*
X203668Y179769D01*
X203706Y17979D01*
X203743Y179814D01*
X203778Y179841D01*
Y179299D01*
D02*
G37*
G36*
X199895Y179249D02*
X199871Y179261D01*
X199843Y179271D01*
X199812Y17928D01*
X199778Y179288D01*
X199699Y1793D01*
X199655Y179305D01*
X199502Y17931D01*
X199401Y17961D01*
X199478Y179611D01*
X199606Y179623D01*
X199657Y179634D01*
X199699Y179647D01*
X199732Y179664D01*
X199756Y179683D01*
X199771Y179706D01*
X199777Y179731D01*
X199774Y179759D01*
X199895Y179249D01*
D02*
G37*
G36*
X196006Y17831D02*
X195987Y178259D01*
X19597Y178202D01*
X195956Y178138D01*
X195933Y177993D01*
X195931Y177975D01*
X195933Y177947D01*
X195943Y177871D01*
X19597Y177738D01*
X195987Y177681D01*
X196006Y17763D01*
X196027Y177585D01*
X195213D01*
X195234Y17763D01*
X195253Y177681D01*
X19527Y177738D01*
X195284Y177802D01*
X195307Y177947D01*
X195309Y177965D01*
X195307Y177993D01*
X195297Y178069D01*
X19527Y178202D01*
X195253Y178259D01*
X195234Y17831D01*
X195213Y178355D01*
X196027D01*
X196006Y17831D01*
D02*
G37*
G36*
X197006Y17831D02*
X196987Y178259D01*
X19697Y178202D01*
X196956Y178138D01*
X196933Y177993D01*
X196931Y177975D01*
X196933Y177947D01*
X196943Y177871D01*
X19697Y177738D01*
X196987Y177681D01*
X197006Y17763D01*
X197027Y177585D01*
X196213D01*
X196234Y17763D01*
X196253Y177681D01*
X19627Y177738D01*
X196284Y177802D01*
X196307Y177947D01*
X196309Y177965D01*
X196307Y177993D01*
X196297Y178069D01*
X19627Y178202D01*
X196253Y178259D01*
X196234Y17831D01*
X196213Y178355D01*
X197027D01*
X197006Y17831D01*
D02*
G37*
G36*
X233Y184209D02*
X233017Y184211D01*
X233054Y184177D01*
Y174816D01*
X230889Y172651D01*
X23081Y172548D01*
X230761Y172428D01*
X230744Y1723D01*
Y169116D01*
X229684D01*
X229628Y169139D01*
X2295Y169156D01*
X229372Y169139D01*
X229252Y16909D01*
X229149Y169011D01*
X22907Y168908D01*
X229021Y168788D01*
X229004Y16866D01*
X229021Y168532D01*
X22907Y168412D01*
X229149Y168309D01*
X229189Y168269D01*
X229189Y168269D01*
X229292Y16819D01*
X229412Y168141D01*
X22954Y168124D01*
X22954Y168124D01*
X230744D01*
Y1629D01*
X230761Y162772D01*
X23081Y162652D01*
X230889Y162549D01*
X233213Y160225D01*
X233202Y160165D01*
X233119Y160101D01*
X23304Y159998D01*
X232991Y159878D01*
X232974Y15975D01*
X232991Y159622D01*
X232993Y159614D01*
Y15885D01*
X23301Y158727D01*
X233057Y158612D01*
X233133Y158513D01*
X233433Y158213D01*
X233532Y158137D01*
X233647Y15809D01*
X23377Y158073D01*
X24022D01*
X240343Y15809D01*
X240458Y158137D01*
X240557Y158213D01*
X240744Y1584D01*
X240791Y158376D01*
X240784Y15832D01*
X240801Y158192D01*
X240803Y158184D01*
Y157107D01*
X240733Y157037D01*
X234335D01*
X234302Y157087D01*
X234312Y15714D01*
X234302Y157193D01*
X23418Y15707D01*
X23411Y15714D01*
X23404Y15707D01*
X233918Y157193D01*
X233908Y15714D01*
X233918Y157087D01*
X233885Y157037D01*
X230351D01*
Y156951D01*
X230334Y156962D01*
X230307Y156972D01*
X230269Y156981D01*
X230221Y156989D01*
X230094Y157001D01*
X229825Y157009D01*
X229715Y15701D01*
Y157186D01*
X22962Y15709D01*
X22955Y15716D01*
X22948Y15709D01*
X229358Y157213D01*
X229348Y15716D01*
X229363Y157083D01*
X229343Y157023D01*
X229272Y156994D01*
X229222Y157016D01*
Y157539D01*
X22926Y157572D01*
X22926Y157572D01*
X229389Y157589D01*
X229509Y157639D01*
X229612Y157718D01*
X229691Y157821D01*
X229741Y157941D01*
X229758Y15807D01*
X229758Y15807D01*
Y1581D01*
X229741Y158229D01*
X229691Y158349D01*
X229688Y158353D01*
Y16291D01*
X229671Y163039D01*
X229621Y163159D01*
X229542Y163262D01*
X229439Y163341D01*
X229319Y163391D01*
X229222Y163404D01*
Y16499D01*
X229209Y165125D01*
X22917Y165255D01*
X229106Y165375D01*
X22902Y16548D01*
X228358Y166141D01*
X228253Y166227D01*
X228133Y166291D01*
X228003Y166331D01*
X227868Y166344D01*
X227806D01*
X227795Y166358D01*
X227731Y16641D01*
Y16646D01*
X227795Y166513D01*
X227919Y166664D01*
X228012Y166836D01*
X228068Y167024D01*
X228088Y167219D01*
X228068Y167413D01*
X228012Y167601D01*
X227919Y167773D01*
X227795Y167925D01*
X227644Y168049D01*
X227471Y168141D01*
X227284Y168198D01*
X227089Y168217D01*
X226789D01*
X226594Y168198D01*
X226407Y168141D01*
X226353Y168112D01*
X226318Y168098D01*
X226318Y168098D01*
X226318Y168098D01*
X226248Y168057D01*
X226187Y168026D01*
X226125Y167999D01*
X226064Y167975D01*
X226002Y167956D01*
X225939Y16794D01*
X225875Y167927D01*
X225811Y167918D01*
X225745Y167913D01*
X22567Y167911D01*
X224304D01*
X224282Y167956D01*
X22431Y167992D01*
X224359Y168112D01*
X224376Y16824D01*
X224359Y168368D01*
X224328Y168446D01*
Y16879D01*
X224312Y168906D01*
X224268Y169014D01*
X224196Y169106D01*
X223826Y169476D01*
X223734Y169548D01*
X223626Y169592D01*
X22351Y169608D01*
X21423D01*
X214114Y169592D01*
X214006Y169548D01*
X213914Y169476D01*
X213162Y168725D01*
X213091Y168632D01*
X213046Y168524D01*
X213031Y168408D01*
Y166207D01*
X212999Y16613D01*
X212982Y166002D01*
X212999Y165873D01*
X213049Y165753D01*
X213127Y165651D01*
X21323Y165572D01*
X21335Y165522D01*
X213478Y165505D01*
X213607Y165522D01*
X213706Y165563D01*
X213751Y165532D01*
X213752Y165531D01*
X213748Y165504D01*
X213758Y16543D01*
X213725Y165392D01*
X207037D01*
X197312Y175117D01*
Y17662D01*
X197322Y176885D01*
X197327Y176944D01*
X197346Y177063D01*
X197355Y177101D01*
X197364Y177134D01*
X197372Y177156D01*
X197386Y177185D01*
X197389Y177194D01*
X197394Y177203D01*
X197403Y177234D01*
X197411Y177252D01*
X197413Y177264D01*
X197434Y177334D01*
X197447Y17747D01*
X197434Y177606D01*
X197413Y177676D01*
X197411Y177688D01*
X197403Y177706D01*
X197394Y177737D01*
X197389Y177746D01*
X197386Y177755D01*
X197372Y177784D01*
X197364Y177806D01*
X197356Y177834D01*
X197335Y177937D01*
X197331Y177968D01*
X197346Y178063D01*
X197355Y178101D01*
X197364Y178134D01*
X197372Y178156D01*
X197386Y178185D01*
X197389Y178194D01*
X197394Y178203D01*
X197403Y178234D01*
X197411Y178252D01*
X197413Y178264D01*
X197434Y178334D01*
X197447Y17847D01*
X197434Y178606D01*
X197398Y178725D01*
X19742Y178778D01*
X197455Y178781D01*
X197585Y17882D01*
X197705Y178884D01*
X197711Y17889D01*
X198056Y178912D01*
X199531D01*
X199629Y178908D01*
X19965Y178906D01*
X199703Y178898D01*
X199712Y178896D01*
X199717Y178894D01*
X199726Y17889D01*
X199735Y178887D01*
X199744Y178883D01*
X199766Y178876D01*
X199782Y178869D01*
X199798Y178866D01*
X199879Y178842D01*
X20002Y178828D01*
X20012D01*
X200261Y178842D01*
X200396Y178883D01*
X200481Y178928D01*
X200499Y178936D01*
X200509Y178943D01*
X200521Y17895D01*
X20053Y178957D01*
X200539Y178962D01*
X200556Y178975D01*
X200561Y178978D01*
X200567Y178981D01*
X200577Y178985D01*
X200589Y178989D01*
X200605Y178993D01*
X200619Y178996D01*
X200676Y179002D01*
X203422D01*
X203485Y178996D01*
X203503Y178994D01*
X203519Y17899D01*
X203531Y178987D01*
X203535Y178985D01*
X203543Y178979D01*
X20355Y178975D01*
X203557Y17897D01*
X20357Y178963D01*
X203579Y178956D01*
X203598Y178948D01*
X203682Y178903D01*
X203818Y178862D01*
X203959Y178848D01*
X204059D01*
X204199Y178862D01*
X204335Y178903D01*
X204419Y178948D01*
X204438Y178956D01*
X204448Y178963D01*
X20446Y17897D01*
X204467Y178975D01*
X204474Y178979D01*
X204482Y178985D01*
X204486Y178987D01*
X204498Y17899D01*
X204515Y178994D01*
X204532Y178996D01*
X204595Y179002D01*
X207361D01*
X207423Y178996D01*
X207441Y178994D01*
X207458Y17899D01*
X207469Y178987D01*
X207474Y178985D01*
X207481Y178979D01*
X207489Y178975D01*
X207496Y17897D01*
X207508Y178963D01*
X207518Y178956D01*
X207537Y178948D01*
X207621Y178903D01*
X207756Y178862D01*
X207897Y178848D01*
X207997D01*
X208138Y178862D01*
X208274Y178903D01*
X208358Y178948D01*
X208376Y178956D01*
X208386Y178963D01*
X208398Y17897D01*
X208405Y178975D01*
X208413Y178979D01*
X20842Y178985D01*
X208425Y178987D01*
X208436Y17899D01*
X208453Y178994D01*
X208471Y178996D01*
X208533Y179002D01*
X2113D01*
X211362Y178996D01*
X21138Y178994D01*
X211397Y17899D01*
X211408Y178987D01*
X211412Y178985D01*
X21142Y178979D01*
X211428Y178975D01*
X211434Y17897D01*
X211447Y178963D01*
X211456Y178956D01*
X211475Y178948D01*
X211559Y178903D01*
X211695Y178862D01*
X211836Y178848D01*
X211936D01*
X212077Y178862D01*
X212212Y178903D01*
X212296Y178948D01*
X212315Y178956D01*
X212325Y178963D01*
X212337Y17897D01*
X212344Y178975D01*
X212352Y178979D01*
X212359Y178985D01*
X212364Y178987D01*
X212375Y17899D01*
X212392Y178994D01*
X212409Y178996D01*
X212472Y179002D01*
X215238D01*
X215301Y178996D01*
X215318Y178994D01*
X215335Y17899D01*
X215346Y178987D01*
X215351Y178985D01*
X215358Y178979D01*
X215366Y178975D01*
X215373Y17897D01*
X215385Y178963D01*
X215395Y178956D01*
X215414Y178948D01*
X215498Y178903D01*
X215633Y178862D01*
X215774Y178848D01*
X215874D01*
X216015Y178862D01*
X216151Y178903D01*
X216235Y178948D01*
X216254Y178956D01*
X216263Y178963D01*
X216276Y17897D01*
X216282Y178975D01*
X21629Y178979D01*
X216298Y178985D01*
X216302Y178987D01*
X216313Y17899D01*
X21633Y178994D01*
X216348Y178996D01*
X21641Y179002D01*
X219177D01*
X219239Y178996D01*
X219257Y178994D01*
X219274Y17899D01*
X219285Y178987D01*
X21929Y178985D01*
X219297Y178979D01*
X219305Y178975D01*
X219312Y17897D01*
X219324Y178963D01*
X219334Y178956D01*
X219352Y178948D01*
X219436Y178903D01*
X219572Y178862D01*
X219713Y178848D01*
X219813D01*
X219954Y178862D01*
X220089Y178903D01*
X220173Y178948D01*
X220192Y178956D01*
X220202Y178963D01*
X220214Y17897D01*
X220221Y178975D01*
X220229Y178979D01*
X220236Y178985D01*
X220241Y178987D01*
X220252Y17899D01*
X220269Y178994D01*
X220287Y178996D01*
X220349Y179002D01*
X223115D01*
X223178Y178996D01*
X223195Y178994D01*
X223212Y17899D01*
X223224Y178987D01*
X223228Y178985D01*
X223236Y178979D01*
X223243Y178975D01*
X22325Y17897D01*
X223262Y178963D01*
X223272Y178956D01*
X223291Y178948D01*
X223375Y178903D01*
X223511Y178862D01*
X223651Y178848D01*
X223751D01*
X223892Y178862D01*
X224028Y178903D01*
X224112Y178948D01*
X224131Y178956D01*
X22414Y178963D01*
X224153Y17897D01*
X22416Y178975D01*
X224167Y178979D01*
X224175Y178985D01*
X224179Y178987D01*
X224191Y17899D01*
X224207Y178994D01*
X224225Y178996D01*
X224288Y179002D01*
X227054D01*
X227116Y178996D01*
X227134Y178994D01*
X227151Y17899D01*
X227162Y178987D01*
X227167Y178985D01*
X227174Y178979D01*
X227182Y178975D01*
X227189Y17897D01*
X227201Y178963D01*
X227211Y178956D01*
X227229Y178948D01*
X227314Y178903D01*
X227449Y178862D01*
X22759Y178848D01*
X22769D01*
X227831Y178862D01*
X227966Y178903D01*
X228091Y17897D01*
X228201Y179059D01*
X22829Y179169D01*
X228357Y179294D01*
X228398Y179429D01*
X228412Y17957D01*
X228398Y179711D01*
X228357Y179846D01*
X22829Y179971D01*
X228282Y179982D01*
X228306Y180032D01*
X2285D01*
X228642Y18005D01*
X228774Y180105D01*
X228888Y180192D01*
X229068Y180372D01*
X229096Y180409D01*
X229146D01*
X229182Y180362D01*
X229296Y180275D01*
X229428Y18022D01*
X22957Y180202D01*
X229712Y18022D01*
X229844Y180275D01*
X229913Y180328D01*
X229958Y180306D01*
Y17922D01*
Y17883D01*
X229967Y17874D01*
X229958Y17865D01*
Y17861D01*
X229971Y178475D01*
X23001Y178345D01*
X230074Y178225D01*
X23016Y17812D01*
X230265Y178034D01*
X230385Y17797D01*
X230515Y177931D01*
X23065Y177918D01*
X230785Y177931D01*
X230915Y17797D01*
X231035Y178034D01*
X23114Y17812D01*
X231226Y178225D01*
X23129Y178345D01*
X231329Y178475D01*
X231342Y17861D01*
Y17865D01*
X231333Y17874D01*
X231342Y17883D01*
Y178881D01*
X23135Y178895D01*
X231389Y179025D01*
X231402Y17916D01*
X231389Y179295D01*
X23135Y179425D01*
X231342Y179439D01*
Y182573D01*
X232809Y18404D01*
X232895Y184145D01*
X232933Y184216D01*
X233Y184209D01*
D02*
G37*
G36*
X203885Y15103D02*
X203883Y151019D01*
X203882Y151001D01*
X203878Y150913D01*
X203876Y15071D01*
X203676D01*
X203665Y151035D01*
X203888D01*
X203885Y15103D01*
D02*
G37*
G36*
X254455Y171145D02*
X254981D01*
X254981Y171141D01*
X254982Y171125D01*
X254985Y17057D01*
X254395Y170413D01*
X254394Y170513D01*
X254376Y170778D01*
X254366Y170854D01*
X254342Y170972D01*
X253855Y170975D01*
Y171565D01*
X254455Y171571D01*
Y171145D01*
D02*
G37*
G36*
X20626Y16421D02*
X206365Y164124D01*
X206485Y16406D01*
X206615Y164021D01*
X20675Y164008D01*
X22114D01*
X221275Y164021D01*
X221405Y16406D01*
X221525Y164124D01*
X22163Y16421D01*
X222537Y165118D01*
X225609D01*
X225751Y165115D01*
X225865Y165107D01*
X225956Y165096D01*
X22596Y165095D01*
X226083Y164946D01*
X226127Y16491D01*
X226127Y164909D01*
X226128Y164909D01*
X226234Y164821D01*
X226398Y164734D01*
X226408Y164683D01*
X226398Y164677D01*
X226368Y164653D01*
X226438Y164583D01*
X226516Y164628D01*
Y164504D01*
X226859Y164162D01*
X226789Y164093D01*
X226859Y164023D01*
X226516Y163681D01*
Y163557D01*
X226438Y163603D01*
X226368Y163532D01*
X226398Y163508D01*
X226408Y163503D01*
X226398Y163451D01*
X226234Y163364D01*
X226083Y16324D01*
X225959Y163088D01*
X225867Y162916D01*
X22581Y162728D01*
X225791Y162534D01*
X22581Y162339D01*
X225867Y162151D01*
X225959Y161979D01*
X226083Y161827D01*
X226234Y161703D01*
X226407Y161611D01*
X226594Y161554D01*
X226789Y161535D01*
X226908D01*
Y159057D01*
X226861Y159038D01*
X226811Y159089D01*
X225772D01*
Y16188D01*
X225759Y162015D01*
X22572Y162145D01*
X225656Y162265D01*
X22557Y16237D01*
X2246Y16334D01*
X224495Y163426D01*
X224375Y16349D01*
X224245Y163529D01*
X22411Y163542D01*
X203707D01*
X196312Y170937D01*
Y171117D01*
X196359Y171136D01*
X196792Y170703D01*
X197874D01*
X198416Y171244D01*
Y17199D01*
X198462Y172009D01*
X20626Y16421D01*
D02*
G37*
G36*
X231338Y16862D02*
X231142Y168325D01*
X23114Y168362D01*
X231134Y168396D01*
X231124Y168425D01*
X23111Y168451D01*
X231092Y168472D01*
X231071Y16849D01*
X231045Y168504D01*
X231016Y168514D01*
X230982Y16852D01*
X230945Y168522D01*
Y168718D01*
X230982Y16872D01*
X231016Y168726D01*
X231045Y168736D01*
X231071Y16875D01*
X231092Y168768D01*
X23111Y168789D01*
X231124Y168815D01*
X231134Y168844D01*
X23114Y168878D01*
X231142Y168915D01*
X231338Y16862D01*
D02*
G37*
G36*
X249909Y168123D02*
X249907Y168137D01*
X249902Y168151D01*
X249894Y168163D01*
X249883Y168173D01*
X249869Y168182D01*
X249852Y168189D01*
X249831Y168194D01*
X249807Y168198D01*
X24978Y1682D01*
X24975Y168201D01*
Y168359D01*
X24978Y16836D01*
X249807Y168362D01*
X249831Y168366D01*
X249852Y168371D01*
X249869Y168378D01*
X249883Y168387D01*
X249894Y168397D01*
X249902Y168409D01*
X249907Y168423D01*
X249909Y168437D01*
Y168123D01*
D02*
G37*
G36*
X22281Y168221D02*
X222806Y168225D01*
X222801Y168228D01*
X222795Y168231D01*
X222789Y168233D01*
X222782Y168235D01*
X222774Y168237D01*
X222766Y168238D01*
X222757Y168239D01*
X222736Y16824D01*
Y16834D01*
X222747Y16834D01*
X222766Y168342D01*
X222774Y168343D01*
X222782Y168345D01*
X222789Y168347D01*
X222795Y168349D01*
X222801Y168352D01*
X222806Y168355D01*
X22281Y168359D01*
Y168221D01*
D02*
G37*
G36*
X22393Y168373D02*
X223932Y168354D01*
X223933Y168346D01*
X223935Y168338D01*
X223937Y168331D01*
X223939Y168325D01*
X223942Y168319D01*
X223945Y168314D01*
X223949Y16831D01*
X223811D01*
X223815Y168314D01*
X223818Y168319D01*
X223821Y168325D01*
X223823Y168331D01*
X223825Y168338D01*
X223827Y168346D01*
X223828Y168354D01*
X223829Y168363D01*
X22383Y168384D01*
X22393D01*
X22393Y168373D01*
D02*
G37*
G36*
X254293Y172103D02*
X254291Y172118D01*
X254286Y172131D01*
X254277Y172143D01*
X254264Y172153D01*
X254247Y172162D01*
X254226Y172169D01*
X254202Y172174D01*
X254173Y172178D01*
X254141Y17218D01*
X254105Y172181D01*
X254111Y172339D01*
X254147Y17234D01*
X254208Y172346D01*
X254233Y172351D01*
X254254Y172358D01*
X254271Y172367D01*
X254285Y172377D01*
X254295Y172389D01*
X254301Y172402D01*
X254303Y172417D01*
X254293Y172103D01*
D02*
G37*
G36*
X248469Y174919D02*
X248572Y17484D01*
X248692Y174791D01*
X24872Y174787D01*
Y173179D01*
X248717Y173172D01*
X2487Y173044D01*
X248717Y172915D01*
X24873Y172884D01*
Y17278D01*
X248746Y172657D01*
X248794Y172542D01*
X248869Y172443D01*
X248968Y172368D01*
X249083Y17232D01*
X249206Y172304D01*
X24933Y17232D01*
X249445Y172368D01*
X249543Y172443D01*
X249619Y172542D01*
X249667Y172657D01*
X249683Y17278D01*
Y172969D01*
X249693Y173044D01*
X249683Y173119D01*
Y173993D01*
X249733Y17402D01*
X249761Y174001D01*
X249838Y173986D01*
X249891Y173996D01*
X249768Y174118D01*
X249838Y174188D01*
X249768Y174258D01*
X249891Y17438D01*
X249838Y17439D01*
X249761Y174375D01*
X249733Y174356D01*
X249683Y174383D01*
Y174788D01*
X249698Y174791D01*
X249818Y17484D01*
X249851Y174866D01*
X250403Y174314D01*
X250401Y174308D01*
X250384Y17418D01*
X250401Y174052D01*
X25045Y173932D01*
X250529Y173829D01*
X250632Y17375D01*
X250752Y173701D01*
X25088Y173684D01*
X251008Y173701D01*
X251128Y17375D01*
X251231Y173829D01*
X25131Y173932D01*
X251359Y174052D01*
X251376Y17418D01*
X251361Y174293D01*
X251393Y174343D01*
X2514D01*
X251523Y17436D01*
X251638Y174407D01*
X251737Y174483D01*
X251997Y174743D01*
X252073Y174842D01*
X252094Y174894D01*
X252143Y174881D01*
X252134Y17481D01*
X252151Y174682D01*
X2522Y174562D01*
X252279Y174459D01*
X252382Y17438D01*
X252502Y174331D01*
X25263Y174314D01*
X252758Y174331D01*
X252878Y17438D01*
X252893Y174391D01*
X252938Y174369D01*
Y17392D01*
X252951Y173785D01*
X25299Y173655D01*
X253054Y173535D01*
X25314Y17343D01*
X253245Y173344D01*
X253365Y17328D01*
X253495Y173241D01*
X25363Y173228D01*
X253765Y173241D01*
X253895Y17328D01*
X253982Y173327D01*
Y173417D01*
X254037Y173419D01*
X254114Y173426D01*
X25412Y17343D01*
X254154Y173472D01*
X254197Y173446D01*
X254194Y173438D01*
X254226Y173446D01*
X254266Y173458D01*
X254304Y173473D01*
X254338Y17349D01*
X25437Y173509D01*
X254399Y173531D01*
Y172989D01*
X25437Y173011D01*
X254338Y17303D01*
X254304Y173047D01*
X254266Y173062D01*
X254226Y173074D01*
X254194Y173082D01*
X254209Y173046D01*
X254275Y172959D01*
X254277Y172956D01*
X25427Y172899D01*
X254179Y17285D01*
X254069Y172761D01*
X25405Y172737D01*
X252926D01*
X252918Y172739D01*
X25279Y172756D01*
X252694Y172744D01*
X25267Y172825D01*
X252606Y172945D01*
X25252Y17305D01*
X252415Y173136D01*
X252295Y1732D01*
X252165Y173239D01*
X25203Y173252D01*
X251895Y173239D01*
X251776Y173203D01*
X251857Y173122D01*
X251843Y173119D01*
X251827Y173113D01*
X251809Y173105D01*
X25179Y173093D01*
X251769Y173079D01*
X251722Y173042D01*
X251696Y173019D01*
X251639Y172964D01*
X251548Y173055D01*
X25154Y17305D01*
X251454Y172945D01*
X25139Y172825D01*
X251351Y172695D01*
X251338Y17256D01*
Y17127D01*
X251351Y171135D01*
X25139Y171005D01*
X251454Y170885D01*
X25154Y17078D01*
X251645Y170694D01*
X251765Y17063D01*
X251895Y170591D01*
X25203Y170578D01*
X253852D01*
X253853Y170578D01*
X253991Y170577D01*
X253997Y170498D01*
X253998Y170408D01*
X253998Y170408D01*
Y163985D01*
X253958Y163955D01*
X253945Y163959D01*
X25381Y163972D01*
X252064D01*
X25206Y163979D01*
X25204Y164022D01*
X252077Y164145D01*
X252091Y16428D01*
X252077Y164415D01*
X252038Y164545D01*
X251974Y164665D01*
X251909Y164743D01*
X251893Y16478D01*
X251909Y164817D01*
X251974Y164895D01*
X252038Y165015D01*
X252077Y165145D01*
X252091Y16528D01*
X252077Y165415D01*
X252038Y165545D01*
X251974Y165665D01*
X251909Y165743D01*
X251893Y16578D01*
X251909Y165817D01*
X251974Y165895D01*
X252038Y166015D01*
X252077Y166145D01*
X252091Y16628D01*
X252077Y166415D01*
X252038Y166545D01*
X251974Y166665D01*
X251909Y166743D01*
X251893Y16678D01*
X251909Y166817D01*
X251974Y166895D01*
X252038Y167015D01*
X252077Y167145D01*
X252091Y16728D01*
X252077Y167415D01*
X252038Y167545D01*
X251974Y167665D01*
X251909Y167743D01*
X251893Y16778D01*
X251909Y167817D01*
X251974Y167895D01*
X252038Y168015D01*
X252077Y168145D01*
X252091Y16828D01*
X252077Y168415D01*
X252038Y168545D01*
X251974Y168665D01*
X251888Y16877D01*
X251783Y168856D01*
X251663Y16892D01*
X251533Y168959D01*
X251398Y168972D01*
X251202D01*
X251095Y168962D01*
X251087Y168969D01*
Y168969D01*
X249513D01*
Y168757D01*
X248971D01*
X248969Y168768D01*
X248937Y168848D01*
Y170054D01*
X248939Y170062D01*
X248956Y17019D01*
X248939Y170318D01*
X24889Y170438D01*
X248811Y170541D01*
X248708Y17062D01*
X248588Y170669D01*
X24846Y170686D01*
X248332Y170669D01*
X248212Y17062D01*
X248109Y170541D01*
X24803Y170438D01*
X247981Y170318D01*
X247964Y17019D01*
X247981Y170062D01*
X247983Y170054D01*
Y16876D01*
X24798Y168757D01*
X247467D01*
Y174484D01*
X247469Y174492D01*
X247486Y17462D01*
X247469Y174748D01*
X247449Y174797D01*
X247468Y174843D01*
X247478Y174847D01*
X247577Y174923D01*
X247595Y174941D01*
X247645Y174938D01*
X247659Y174919D01*
X247762Y17484D01*
X247882Y174791D01*
X24801Y174774D01*
X248138Y174791D01*
X248258Y17484D01*
X248361Y174919D01*
X24839Y174957D01*
X24844D01*
X248469Y174919D01*
D02*
G37*
G36*
X249624Y175371D02*
X249625Y175368D01*
X249627Y175361D01*
X249629Y175355D01*
X249632Y175349D01*
X249635Y175344D01*
X249639Y17534D01*
X249625D01*
X249626Y175326D01*
X249514D01*
X249515Y175328D01*
X249516Y175334D01*
X249517Y17534D01*
X249501D01*
X249505Y175344D01*
X249508Y175349D01*
X249511Y175355D01*
X249513Y175361D01*
X249515Y175368D01*
X249517Y175376D01*
X249518Y175384D01*
X249519Y175392D01*
X24952Y175488D01*
X24962D01*
X249624Y175371D01*
D02*
G37*
G36*
X248853Y175411D02*
X248855Y175392D01*
X248856Y175384D01*
X248858Y175377D01*
X248861Y17537D01*
X248864Y175364D01*
X248867Y175359D01*
X248871Y175355D01*
X248875Y175351D01*
X24874Y175327D01*
X248742Y175331D01*
X248744Y175336D01*
X248746Y175341D01*
X248748Y175347D01*
X248749Y175354D01*
X248751Y175371D01*
X248752Y17538D01*
X248753Y175401D01*
X248853Y175422D01*
X248853Y175411D01*
D02*
G37*
G36*
X215696Y150943D02*
X215694Y150932D01*
X215693Y150915D01*
X215689Y150826D01*
X215687Y150656D01*
X215787D01*
X215768Y150654D01*
X215751Y150648D01*
X215736Y150638D01*
X215723Y150624D01*
X215712Y150606D01*
X215703Y150584D01*
X215696Y150558D01*
X215691Y150528D01*
X215688Y150494D01*
X215687Y150456D01*
X215487D01*
X215486Y150494D01*
X215483Y150528D01*
X215478Y150558D01*
X215471Y150584D01*
X215462Y150606D01*
X215451Y150624D01*
X215438Y150638D01*
X215423Y150648D01*
X215406Y150654D01*
X215387Y150656D01*
X215486D01*
X215476Y150949D01*
X215699D01*
X215696Y150943D01*
D02*
G37*
G36*
X197557Y172914D02*
X197537Y172868D01*
X196792D01*
X196359Y172435D01*
X196312Y172454D01*
Y174093D01*
X196359Y174112D01*
X197557Y172914D01*
D02*
G37*
G36*
X254908Y182506D02*
Y17368D01*
X254858Y173646D01*
X254791Y173674D01*
X25468Y173689D01*
X25458D01*
X254469Y173674D01*
X254366Y173631D01*
X254277Y173563D01*
X254236Y173591D01*
X25427Y173655D01*
X254309Y173785D01*
X254322Y17392D01*
Y17459D01*
Y17641D01*
X254322Y17641D01*
Y1804D01*
Y1829D01*
X254309Y183034D01*
X254312Y183037D01*
X254358Y183055D01*
X254908Y182506D01*
D02*
G37*
G36*
X25093Y174313D02*
X250932Y174294D01*
X250933Y174286D01*
X250935Y174278D01*
X250937Y174271D01*
X250939Y174265D01*
X250942Y174259D01*
X250945Y174254D01*
X250949Y17425D01*
X250811D01*
X250815Y174254D01*
X250818Y174259D01*
X250821Y174265D01*
X250823Y174271D01*
X250825Y174278D01*
X250827Y174286D01*
X250828Y174294D01*
X250829Y174303D01*
X25083Y174324D01*
X25093D01*
X25093Y174313D01*
D02*
G37*
G36*
X226838Y185606D02*
X227077D01*
Y185409D01*
X226838D01*
Y183637D01*
X227077D01*
Y181122D01*
X227075Y181085D01*
X227032Y181033D01*
X227029Y181031D01*
X227025Y181024D01*
X22699Y180981D01*
X226923Y180856D01*
X226882Y180721D01*
X226868Y18058D01*
X226882Y180439D01*
X226923Y180304D01*
X22699Y180179D01*
X227014Y180148D01*
X226991Y180098D01*
X224898D01*
X224881Y180148D01*
X224938Y180192D01*
X225138Y180392D01*
X225196Y180468D01*
X225259D01*
X225269Y180455D01*
X225272Y180452D01*
X225386Y180365D01*
X225518Y18031D01*
X22566Y180292D01*
X225802Y18031D01*
X225934Y180365D01*
X226048Y180452D01*
X226135Y180566D01*
X22619Y180698D01*
X226208Y18084D01*
X226205Y180864D01*
Y183637D01*
X226444D01*
Y185409D01*
X226205D01*
Y185606D01*
X226444D01*
Y187202D01*
X226838D01*
Y185606D01*
D02*
G37*
G36*
X215027D02*
X215266D01*
Y185409D01*
X215027D01*
Y183637D01*
X215266D01*
Y181124D01*
X215264Y181091D01*
X215264Y181091D01*
X215225Y181043D01*
X215223Y181042D01*
X215221Y181038D01*
X215174Y180981D01*
X215107Y180856D01*
X215066Y180721D01*
X215052Y18058D01*
X215066Y180439D01*
X215107Y180304D01*
X215174Y180179D01*
X215199Y180148D01*
X215175Y180098D01*
X213108D01*
X213091Y180148D01*
X213148Y180192D01*
X213398Y180442D01*
X213408Y180456D01*
X213459Y180452D01*
X213466Y180449D01*
X213576Y180365D01*
X213708Y18031D01*
X21385Y180292D01*
X213992Y18031D01*
X214124Y180365D01*
X214238Y180452D01*
X214325Y180566D01*
X21438Y180698D01*
X214398Y18084D01*
X214394Y180872D01*
Y183637D01*
X214633D01*
Y185409D01*
X214394D01*
Y185606D01*
X214633D01*
Y187202D01*
X215027D01*
Y185606D01*
D02*
G37*
G36*
X204155Y181113D02*
X204167Y180985D01*
X204177Y180933D01*
X204191Y180889D01*
X204207Y180854D01*
X204226Y180826D01*
X204239Y180815D01*
Y180851D01*
X20427Y180828D01*
X204303Y180807D01*
X204338Y180789D01*
X204375Y180773D01*
X204414Y18076D01*
X204456Y180749D01*
X2045Y180741D01*
X204546Y180735D01*
X204595Y180731D01*
X204646Y18073D01*
Y18043D01*
X204595Y180429D01*
X2045Y180419D01*
X204456Y180411D01*
X204414Y1804D01*
X204375Y180387D01*
X204338Y180371D01*
X204303Y180353D01*
X20427Y180332D01*
X204239Y180309D01*
Y18079D01*
X203704Y180779D01*
X203733Y180783D01*
X203758Y180796D01*
X20378Y180817D01*
X2038Y180845D01*
X203816Y180882D01*
X203829Y180927D01*
X20384Y18098D01*
X203847Y181041D01*
X203852Y18111D01*
X203853Y181186D01*
X204153Y18119D01*
X204155Y181113D01*
D02*
G37*
G36*
X200218Y181093D02*
X20023Y180964D01*
X20024Y180912D01*
X200254Y180868D01*
X20027Y180832D01*
X200289Y180805D01*
X200301Y180794D01*
Y180831D01*
X200331Y180808D01*
X200364Y180787D01*
X200399Y180769D01*
X200436Y180753D01*
X200476Y18074D01*
X200518Y180729D01*
X200561Y180721D01*
X200608Y180715D01*
X200656Y180711D01*
X200707Y18071D01*
Y18041D01*
X200656Y180409D01*
X200561Y180399D01*
X200518Y180391D01*
X200476Y18038D01*
X200436Y180367D01*
X200399Y180351D01*
X200364Y180333D01*
X200331Y180312D01*
X200301Y180289D01*
Y180769D01*
X199767Y180761D01*
X199796Y180765D01*
X199821Y180777D01*
X199843Y180798D01*
X199863Y180827D01*
X199879Y180863D01*
X199892Y180908D01*
X199903Y180961D01*
X19991Y181021D01*
X199915Y18109D01*
X199916Y181167D01*
X200216Y181169D01*
X200218Y181093D01*
D02*
G37*
G36*
X21109Y185606D02*
X211329D01*
Y185409D01*
X21109D01*
Y183637D01*
X211329D01*
Y181124D01*
X211327Y181092D01*
X211325Y181091D01*
X211289Y181046D01*
X211288Y181046D01*
X211286Y181044D01*
X211235Y180981D01*
X211169Y180856D01*
X211127Y180721D01*
X211114Y18058D01*
X211127Y180439D01*
X211169Y180304D01*
X211235Y180179D01*
X21126Y180148D01*
X211237Y180098D01*
X209098D01*
X209081Y180148D01*
X209138Y180192D01*
X209408Y180462D01*
X209417Y180474D01*
X209467D01*
X209521Y180403D01*
X209542Y180382D01*
X209656Y180295D01*
X209788Y18024D01*
X20993Y180222D01*
X210072Y18024D01*
X210204Y180295D01*
X210318Y180382D01*
X210405Y180496D01*
X21046Y180628D01*
X210478Y18077D01*
X21046Y180912D01*
X210457Y180918D01*
Y183637D01*
X210696D01*
Y185409D01*
X210457D01*
Y185606D01*
X210696D01*
Y187202D01*
X21109D01*
Y185606D01*
D02*
G37*
G36*
X207153D02*
X207392D01*
Y185409D01*
X207153D01*
Y183637D01*
X207392D01*
Y181125D01*
X20739Y181093D01*
X207386Y181091D01*
X207353Y18105D01*
X207353Y18105D01*
X207353Y181049D01*
X207297Y180981D01*
X20723Y180856D01*
X207189Y180721D01*
X207175Y18058D01*
X207189Y180439D01*
X20723Y180304D01*
X207297Y180179D01*
X207322Y180148D01*
X207298Y180098D01*
X205188D01*
X205171Y180148D01*
X205228Y180192D01*
X205398Y180363D01*
X205404Y180365D01*
X205518Y180452D01*
X205532D01*
X205584Y180384D01*
X205698Y180297D01*
X20583Y180242D01*
X205972Y180223D01*
X206114Y180242D01*
X206246Y180297D01*
X20636Y180384D01*
X206447Y180498D01*
X206502Y18063D01*
X20652Y180772D01*
Y183637D01*
X206759D01*
Y185409D01*
X20652D01*
Y185606D01*
X206759D01*
Y187202D01*
X207153D01*
Y185606D01*
D02*
G37*
G36*
X222901D02*
X22314D01*
Y185409D01*
X222901D01*
Y183637D01*
X22314D01*
Y181122D01*
X223138Y181087D01*
X223097Y181037D01*
X223094Y181035D01*
X22309Y181029D01*
X223051Y180981D01*
X222984Y180856D01*
X222943Y180721D01*
X222929Y18058D01*
X222943Y180439D01*
X222984Y180304D01*
X223051Y180179D01*
X223076Y180148D01*
X223052Y180098D01*
X220978D01*
X220961Y180148D01*
X221018Y180192D01*
X22126Y180434D01*
X22131Y180431D01*
X221332Y180402D01*
X221446Y180315D01*
X221578Y18026D01*
X22172Y180241D01*
X221862Y18026D01*
X221994Y180315D01*
X222108Y180402D01*
X222195Y180516D01*
X22225Y180648D01*
X222268Y18079D01*
Y183637D01*
X222507D01*
Y185409D01*
X222268D01*
Y185606D01*
X222507D01*
Y187202D01*
X222901D01*
Y185606D01*
D02*
G37*
G36*
X208092Y181114D02*
X208104Y180986D01*
X208114Y180934D01*
X208128Y18089D01*
X208144Y180855D01*
X208163Y180827D01*
X208178Y180815D01*
Y180851D01*
X208208Y180828D01*
X208241Y180807D01*
X208276Y180789D01*
X208313Y180773D01*
X208353Y18076D01*
X208395Y180749D01*
X208439Y180741D01*
X208485Y180735D01*
X208533Y180731D01*
X208584Y18073D01*
Y18043D01*
X208533Y180429D01*
X208439Y180419D01*
X208395Y180411D01*
X208353Y1804D01*
X208313Y180387D01*
X208276Y180371D01*
X208241Y180353D01*
X208208Y180332D01*
X208178Y180309D01*
Y180792D01*
X207641Y180777D01*
X20767Y180782D01*
X207695Y180794D01*
X207717Y180815D01*
X207737Y180844D01*
X207753Y180881D01*
X207766Y180926D01*
X207777Y180979D01*
X207784Y18104D01*
X207789Y181109D01*
X20779Y181186D01*
X20809Y18119D01*
X208092Y181114D01*
D02*
G37*
G36*
X227777Y181117D02*
X227789Y18099D01*
X227799Y180939D01*
X227813Y180896D01*
X227829Y180861D01*
X227848Y180834D01*
X227871Y180816D01*
Y180851D01*
X227901Y180828D01*
X227934Y180807D01*
X227969Y180789D01*
X228006Y180773D01*
X228046Y18076D01*
X228087Y180749D01*
X228131Y180741D01*
X228178Y180735D01*
X228226Y180731D01*
X228277Y18073D01*
Y18043D01*
X228226Y180429D01*
X228131Y180419D01*
X228087Y180411D01*
X228046Y1804D01*
X228006Y180387D01*
X227969Y180371D01*
X227934Y180353D01*
X227901Y180332D01*
X227871Y180309D01*
Y1808D01*
X227326Y180767D01*
X227355Y180773D01*
X22738Y180787D01*
X227402Y180808D01*
X227422Y180838D01*
X227438Y180876D01*
X227451Y180921D01*
X227462Y180975D01*
X227469Y181037D01*
X227474Y181106D01*
X227475Y181184D01*
X227775Y181192D01*
X227777Y181117D01*
D02*
G37*
G36*
X218964Y185606D02*
X219203D01*
Y185409D01*
X218964D01*
Y183637D01*
X219203D01*
Y181123D01*
X219201Y181089D01*
X219161Y18104D01*
X219159Y181038D01*
X219155Y181033D01*
X219112Y180981D01*
X219046Y180856D01*
X219005Y180721D01*
X218991Y18058D01*
X219005Y180439D01*
X219046Y180304D01*
X219112Y180179D01*
X219137Y180148D01*
X219114Y180098D01*
X216998D01*
X216981Y180148D01*
X217038Y180192D01*
X217327Y180482D01*
X217336Y18049D01*
X217386Y180487D01*
X217395Y180475D01*
X217509Y180388D01*
X217641Y180333D01*
X217783Y180314D01*
X217925Y180333D01*
X218057Y180388D01*
X218171Y180475D01*
X218258Y180589D01*
X218313Y180721D01*
X218331Y180863D01*
Y183637D01*
X21857D01*
Y185409D01*
X218331D01*
Y185606D01*
X21857D01*
Y187202D01*
X218964D01*
Y185606D01*
D02*
G37*
G36*
X246163Y181567D02*
X246265Y181483D01*
X246381Y181421D01*
X246508Y181383D01*
X246639Y18137D01*
X247013D01*
X247123Y181381D01*
X24715Y181333D01*
X2471Y181268D01*
X247052Y181152D01*
X247046Y181144D01*
X247Y181129D01*
X246998Y18113D01*
X246878Y181179D01*
X24675Y181196D01*
X246622Y181179D01*
X246502Y18113D01*
X246399Y181051D01*
X24632Y180948D01*
X246271Y180828D01*
X246269Y180815D01*
X24626Y180793D01*
X246243Y18067D01*
Y179504D01*
X246221Y179448D01*
X246204Y17932D01*
X246221Y179192D01*
X246243Y179136D01*
Y178976D01*
X246241Y178968D01*
X246224Y17884D01*
X246241Y178712D01*
X24629Y178592D01*
X246369Y178489D01*
X246472Y17841D01*
X246592Y178361D01*
X246705Y178346D01*
X2467Y178296D01*
X246572Y178279D01*
X246564Y178277D01*
X246123D01*
X246073Y178327D01*
Y181598D01*
X246123Y181616D01*
X246163Y181567D01*
D02*
G37*
G36*
X22384Y181116D02*
X223852Y180989D01*
X223862Y180938D01*
X223876Y180895D01*
X223892Y18086D01*
X223911Y180833D01*
X223932Y180815D01*
Y180851D01*
X223963Y180828D01*
X223995Y180807D01*
X22403Y180789D01*
X224068Y180773D01*
X224107Y18076D01*
X224149Y180749D01*
X224193Y180741D01*
X224239Y180735D01*
X224288Y180731D01*
X224338Y18073D01*
Y18043D01*
X224288Y180429D01*
X224193Y180419D01*
X224149Y180411D01*
X224107Y1804D01*
X224068Y180387D01*
X22403Y180371D01*
X223995Y180353D01*
X223963Y180332D01*
X223932Y180309D01*
Y180798D01*
X223389Y180769D01*
X223418Y180775D01*
X223443Y180788D01*
X223465Y18081D01*
X223485Y180839D01*
X223501Y180877D01*
X223514Y180922D01*
X223525Y180976D01*
X223532Y181037D01*
X223537Y181107D01*
X223538Y181184D01*
X223838Y181192D01*
X22384Y181116D01*
D02*
G37*
G36*
X212029Y181115D02*
X212041Y180987D01*
X212051Y180935D01*
X212065Y180892D01*
X212081Y180856D01*
X2121Y180829D01*
X212116Y180815D01*
Y180851D01*
X212147Y180828D01*
X21218Y180807D01*
X212215Y180789D01*
X212252Y180773D01*
X212291Y18076D01*
X212333Y180749D01*
X212377Y180741D01*
X212423Y180735D01*
X212472Y180731D01*
X212523Y18073D01*
Y18043D01*
X212472Y180429D01*
X212377Y180419D01*
X212333Y180411D01*
X212291Y1804D01*
X212252Y180387D01*
X212215Y180371D01*
X21218Y180353D01*
X212147Y180332D01*
X212116Y180309D01*
Y180793D01*
X211578Y180775D01*
X211607Y18078D01*
X211632Y180793D01*
X211654Y180814D01*
X211674Y180843D01*
X21169Y18088D01*
X211703Y180925D01*
X211714Y180978D01*
X211721Y181039D01*
X211726Y181108D01*
X211727Y181185D01*
X212027Y181191D01*
X212029Y181115D01*
D02*
G37*
G36*
X215966Y181115D02*
X215978Y180988D01*
X215988Y180936D01*
X216002Y180893D01*
X216018Y180857D01*
X216037Y18083D01*
X216055Y180815D01*
Y180851D01*
X216086Y180828D01*
X216118Y180807D01*
X216153Y180789D01*
X216191Y180773D01*
X21623Y18076D01*
X216272Y180749D01*
X216316Y180741D01*
X216362Y180735D01*
X216411Y180731D01*
X216461Y18073D01*
Y18043D01*
X216411Y180429D01*
X216316Y180419D01*
X216272Y180411D01*
X21623Y1804D01*
X216191Y180387D01*
X216153Y180371D01*
X216118Y180353D01*
X216086Y180332D01*
X216055Y180309D01*
Y180795D01*
X215515Y180773D01*
X215544Y180778D01*
X215569Y180791D01*
X215591Y180813D01*
X215611Y180842D01*
X215627Y180879D01*
X21564Y180924D01*
X215651Y180977D01*
X215658Y181039D01*
X215663Y181108D01*
X215664Y181185D01*
X215964Y181191D01*
X215966Y181115D01*
D02*
G37*
G36*
X219903Y181116D02*
X219915Y180988D01*
X219925Y180937D01*
X219939Y180894D01*
X219955Y180858D01*
X219974Y180831D01*
X219994Y180815D01*
Y180851D01*
X220024Y180828D01*
X220057Y180807D01*
X220092Y180789D01*
X220129Y180773D01*
X220169Y18076D01*
X22021Y180749D01*
X220254Y180741D01*
X220301Y180735D01*
X220349Y180731D01*
X2204Y18073D01*
Y18043D01*
X220349Y180429D01*
X220254Y180419D01*
X22021Y180411D01*
X220169Y1804D01*
X220129Y180387D01*
X220092Y180371D01*
X220057Y180353D01*
X220024Y180332D01*
X219994Y180309D01*
Y180796D01*
X219452Y180771D01*
X219481Y180776D01*
X219506Y18079D01*
X219528Y180811D01*
X219548Y180841D01*
X219564Y180878D01*
X219577Y180923D01*
X219588Y180977D01*
X219595Y181038D01*
X2196Y181107D01*
X219601Y181185D01*
X219901Y181192D01*
X219903Y181116D01*
D02*
G37*
G36*
X212151Y179814D02*
X212188Y17979D01*
X212226Y179769D01*
X212265Y179751D01*
X212306Y179735D01*
X212349Y179722D01*
X212393Y179713D01*
X212438Y179706D01*
X212485Y179701D01*
X212533Y1797D01*
X212512Y1794D01*
X212459Y179399D01*
X212362Y179391D01*
X212318Y179384D01*
X212277Y179375D01*
X212239Y179364D01*
X212204Y179351D01*
X212171Y179336D01*
X212142Y179319D01*
X212116Y179299D01*
Y179841D01*
X212151Y179814D01*
D02*
G37*
G36*
X215594Y179299D02*
X215568Y179319D01*
X215539Y179336D01*
X215506Y179351D01*
X215471Y179364D01*
X215433Y179375D01*
X215392Y179384D01*
X215348Y179391D01*
X215251Y179399D01*
X215198Y1794D01*
X215177Y1797D01*
X215225Y179701D01*
X215272Y179706D01*
X215317Y179713D01*
X215361Y179722D01*
X215404Y179735D01*
X215445Y179751D01*
X215484Y179769D01*
X215522Y17979D01*
X215559Y179814D01*
X215594Y179841D01*
Y179299D01*
D02*
G37*
G36*
X21609Y179814D02*
X216127Y17979D01*
X216164Y179769D01*
X216204Y179751D01*
X216245Y179735D01*
X216287Y179722D01*
X216331Y179713D01*
X216377Y179706D01*
X216424Y179701D01*
X216472Y1797D01*
X216451Y1794D01*
X216397Y179399D01*
X2163Y179391D01*
X216256Y179384D01*
X216215Y179375D01*
X216177Y179364D01*
X216142Y179351D01*
X21611Y179336D01*
X216081Y179319D01*
X216055Y179299D01*
Y179841D01*
X21609Y179814D01*
D02*
G37*
G36*
X211655Y179299D02*
X211629Y179319D01*
X2116Y179336D01*
X211568Y179351D01*
X211533Y179364D01*
X211495Y179375D01*
X211454Y179384D01*
X21141Y179391D01*
X211313Y179399D01*
X211259Y1794D01*
X211238Y1797D01*
X211286Y179701D01*
X211333Y179706D01*
X211379Y179713D01*
X211423Y179722D01*
X211465Y179735D01*
X211506Y179751D01*
X211546Y179769D01*
X211583Y17979D01*
X21162Y179814D01*
X211655Y179841D01*
Y179299D01*
D02*
G37*
G36*
X204274Y179814D02*
X204311Y17979D01*
X204349Y179769D01*
X204388Y179751D01*
X204429Y179735D01*
X204472Y179722D01*
X204516Y179713D01*
X204561Y179706D01*
X204608Y179701D01*
X204656Y1797D01*
X204635Y1794D01*
X204582Y179399D01*
X204485Y179391D01*
X204441Y179384D01*
X204399Y179375D01*
X204361Y179364D01*
X204326Y179351D01*
X204294Y179336D01*
X204265Y179319D01*
X204239Y179299D01*
Y179841D01*
X204274Y179814D01*
D02*
G37*
G36*
X207716Y179299D02*
X20769Y179319D01*
X207661Y179336D01*
X207629Y179351D01*
X207594Y179364D01*
X207556Y179375D01*
X207515Y179384D01*
X207471Y179391D01*
X207374Y179399D01*
X207321Y1794D01*
X207299Y1797D01*
X207348Y179701D01*
X207395Y179706D01*
X20744Y179713D01*
X207484Y179722D01*
X207527Y179735D01*
X207567Y179751D01*
X207607Y179769D01*
X207645Y17979D01*
X207681Y179814D01*
X207716Y179841D01*
Y179299D01*
D02*
G37*
G36*
X208213Y179814D02*
X208249Y17979D01*
X208287Y179769D01*
X208327Y179751D01*
X208368Y179735D01*
X20841Y179722D01*
X208454Y179713D01*
X2085Y179706D01*
X208546Y179701D01*
X208595Y1797D01*
X208573Y1794D01*
X20852Y179399D01*
X208423Y179391D01*
X208379Y179384D01*
X208338Y179375D01*
X2083Y179364D01*
X208265Y179351D01*
X208233Y179336D01*
X208204Y179319D01*
X208178Y179299D01*
Y179841D01*
X208213Y179814D01*
D02*
G37*
G36*
X219532Y179299D02*
X219506Y179319D01*
X219477Y179336D01*
X219445Y179351D01*
X21941Y179364D01*
X219372Y179375D01*
X219331Y179384D01*
X219287Y179391D01*
X21919Y179399D01*
X219137Y1794D01*
X219115Y1797D01*
X219164Y179701D01*
X21921Y179706D01*
X219256Y179713D01*
X2193Y179722D01*
X219342Y179735D01*
X219383Y179751D01*
X219423Y179769D01*
X219461Y17979D01*
X219497Y179814D01*
X219532Y179841D01*
Y179299D01*
D02*
G37*
G36*
X199279Y185606D02*
X199518D01*
Y185409D01*
X199279D01*
Y183637D01*
X199518D01*
Y181106D01*
X199516Y181076D01*
X199509Y181071D01*
X199449Y180997D01*
X199446Y180994D01*
X199445Y180993D01*
X19942Y180961D01*
X199353Y180836D01*
X199312Y180701D01*
X199298Y18056D01*
X199312Y180419D01*
X199353Y180284D01*
X19942Y180159D01*
X199505Y180055D01*
X199474Y180018D01*
X199469Y180013D01*
X199467Y180009D01*
X199457Y180008D01*
X19804D01*
X197996Y18001D01*
Y183453D01*
X198003Y183648D01*
X198004Y183657D01*
X198171D01*
Y184014D01*
X198172Y184017D01*
X198171Y184033D01*
Y184036D01*
X198173Y184052D01*
X198171Y184069D01*
Y185018D01*
X198173Y185034D01*
X198171Y185051D01*
Y185054D01*
X198172Y185069D01*
X198171Y185072D01*
Y185429D01*
X198005D01*
X197999Y185512D01*
X198003Y185617D01*
X198004Y185626D01*
X198171D01*
Y185983D01*
X198172Y185986D01*
X198171Y186001D01*
Y186004D01*
X198173Y186021D01*
X198171Y186038D01*
Y187202D01*
X199279D01*
Y185606D01*
D02*
G37*
G36*
X196596Y186038D02*
X196594Y186021D01*
X196595Y186015D01*
X196594Y186009D01*
X196596Y18594D01*
Y185626D01*
X196606D01*
X19661Y185479D01*
X196596Y185429D01*
X196596D01*
Y185051D01*
X196594Y185034D01*
X196595Y185031D01*
X196594Y185027D01*
X196596Y185013D01*
Y184069D01*
X196594Y184052D01*
X196595Y184047D01*
X196594Y184041D01*
X196596Y183971D01*
Y183657D01*
X196606D01*
X196612Y183454D01*
Y180157D01*
X19649D01*
X196354Y180144D01*
X196223Y180104D01*
X196129Y180054D01*
X196028Y180108D01*
Y183453D01*
X196034Y183648D01*
X196035Y183657D01*
X196203D01*
Y184014D01*
X196203Y184017D01*
X196203Y184033D01*
Y184036D01*
X196205Y184052D01*
X196203Y184069D01*
Y185018D01*
X196205Y185034D01*
X196203Y185051D01*
Y185054D01*
X196203Y185069D01*
X196203Y185072D01*
Y185429D01*
X196037D01*
X196031Y185512D01*
X196034Y185617D01*
X196035Y185626D01*
X196203D01*
Y185983D01*
X196203Y185986D01*
X196203Y186001D01*
Y186004D01*
X196205Y186021D01*
X196203Y186038D01*
Y187202D01*
X196596D01*
Y186038D01*
D02*
G37*
G36*
X203216Y185606D02*
X203455D01*
Y185409D01*
X203216D01*
Y183637D01*
X203455D01*
Y181125D01*
X203453Y181095D01*
X203448Y181091D01*
X203383Y181012D01*
X203382Y18101D01*
X203381Y181009D01*
X203358Y180981D01*
X203291Y180856D01*
X20325Y180721D01*
X203236Y18058D01*
X20325Y180439D01*
X203291Y180304D01*
X203358Y180179D01*
X203383Y180148D01*
X203359Y180098D01*
X201369D01*
X201353Y180146D01*
X201388Y180172D01*
X201597Y180381D01*
X201647Y180378D01*
X201647Y180377D01*
X201761Y18029D01*
X201893Y180235D01*
X202035Y180217D01*
X202177Y180235D01*
X202309Y18029D01*
X202423Y180377D01*
X20251Y180491D01*
X202565Y180623D01*
X202583Y180765D01*
Y183637D01*
X202822D01*
Y185409D01*
X202583D01*
Y185606D01*
X202822D01*
Y187202D01*
X203216D01*
Y185606D01*
D02*
G37*
G36*
X227409Y179299D02*
X227383Y179319D01*
X227354Y179336D01*
X227322Y179351D01*
X227287Y179364D01*
X227249Y179375D01*
X227208Y179384D01*
X227164Y179391D01*
X227067Y179399D01*
X227014Y1794D01*
X226992Y1797D01*
X227041Y179701D01*
X227088Y179706D01*
X227133Y179713D01*
X227177Y179722D01*
X227219Y179735D01*
X22726Y179751D01*
X2273Y179769D01*
X227338Y17979D01*
X227374Y179814D01*
X227409Y179841D01*
Y179299D01*
D02*
G37*
G36*
X220029Y179814D02*
X220065Y17979D01*
X220103Y179769D01*
X220143Y179751D01*
X220183Y179735D01*
X220226Y179722D01*
X22027Y179713D01*
X220315Y179706D01*
X220362Y179701D01*
X220411Y1797D01*
X220389Y1794D01*
X220336Y179399D01*
X220239Y179391D01*
X220195Y179384D01*
X220154Y179375D01*
X220116Y179364D01*
X220081Y179351D01*
X220049Y179336D01*
X22002Y179319D01*
X219994Y179299D01*
Y179841D01*
X220029Y179814D01*
D02*
G37*
G36*
X223471Y179299D02*
X223445Y179319D01*
X223416Y179336D01*
X223384Y179351D01*
X223349Y179364D01*
X223311Y179375D01*
X223269Y179384D01*
X223225Y179391D01*
X223128Y179399D01*
X223075Y1794D01*
X223054Y1797D01*
X223102Y179701D01*
X223149Y179706D01*
X223194Y179713D01*
X223238Y179722D01*
X223281Y179735D01*
X223322Y179751D01*
X223361Y179769D01*
X223399Y17979D01*
X223436Y179814D01*
X223471Y179841D01*
Y179299D01*
D02*
G37*
G36*
X223967Y179814D02*
X224004Y17979D01*
X224042Y179769D01*
X224081Y179751D01*
X224122Y179735D01*
X224164Y179722D01*
X224208Y179713D01*
X224254Y179706D01*
X224301Y179701D01*
X224349Y1797D01*
X224328Y1794D01*
X224275Y179399D01*
X224177Y179391D01*
X224133Y179384D01*
X224092Y179375D01*
X224054Y179364D01*
X224019Y179351D01*
X223987Y179336D01*
X223958Y179319D01*
X223932Y179299D01*
Y179841D01*
X223967Y179814D01*
D02*
G37*
G36*
X205854Y15103D02*
X205852Y151019D01*
X20585Y151001D01*
X205846Y150913D01*
X205845Y15071D01*
X205645D01*
X205633Y151035D01*
X205856D01*
X205854Y15103D01*
D02*
G37*
G36*
X228505Y152068D02*
X22843Y151984D01*
X228372Y151901D01*
X22833Y151817D01*
X228305Y151734D01*
X228296Y15165D01*
X228305Y151566D01*
X22833Y151483D01*
X228372Y151399D01*
X22843Y151316D01*
X228505Y151232D01*
X22767Y15165D01*
X227965Y15264D01*
X227969Y152591D01*
X22798Y152554D01*
X227997Y152531D01*
X228022Y15252D01*
X228054Y152521D01*
X228093Y152535D01*
X22814Y152562D01*
X228193Y152602D01*
X228254Y152654D01*
X228321Y152719D01*
X228505Y152068D01*
D02*
G37*
G36*
X248338Y163825D02*
X248344Y163824D01*
X248353Y163823D01*
X248397Y163821D01*
X248498Y16382D01*
Y16372D01*
X248336Y163714D01*
Y163826D01*
X248338Y163825D01*
D02*
G37*
G36*
X250744Y163714D02*
X250742Y163715D01*
X250736Y163716D01*
X250727Y163717D01*
X250724Y163717D01*
Y163714D01*
X250722Y163715D01*
X250716Y163716D01*
X250707Y163717D01*
X250663Y163719D01*
X250562Y16372D01*
X250562Y16382D01*
X250724Y163826D01*
Y163825D01*
X250744Y163826D01*
Y163714D01*
D02*
G37*
G36*
X249953Y163123D02*
X249951Y163138D01*
X249946Y163151D01*
X249936Y163163D01*
X249923Y163173D01*
X249905Y163182D01*
X249884Y163189D01*
X249859Y163194D01*
X24983Y163198D01*
X249797Y1632D01*
X249761Y163201D01*
Y163359D01*
X249797Y16336D01*
X249859Y163366D01*
X249884Y163371D01*
X249905Y163378D01*
X249923Y163387D01*
X249936Y163397D01*
X249946Y163409D01*
X249951Y163422D01*
X249953Y163437D01*
Y163123D01*
D02*
G37*
G36*
Y162123D02*
X249951Y162138D01*
X249946Y162151D01*
X249936Y162163D01*
X249923Y162173D01*
X249905Y162182D01*
X249884Y162189D01*
X249859Y162194D01*
X24983Y162198D01*
X249797Y1622D01*
X249761Y162201D01*
Y162359D01*
X249797Y16236D01*
X249859Y162366D01*
X249884Y162371D01*
X249905Y162378D01*
X249923Y162387D01*
X249936Y162397D01*
X249946Y162409D01*
X249951Y162422D01*
X249953Y162437D01*
Y162123D01*
D02*
G37*
G36*
X195873Y162594D02*
X195869Y162609D01*
X195856Y162622D01*
X195835Y162633D01*
X195806Y162643D01*
X195768Y162652D01*
X195722Y162659D01*
X195604Y162668D01*
X195453Y162671D01*
Y163262D01*
X195533Y163263D01*
X195768Y163281D01*
X195806Y16329D01*
X195835Y1633D01*
X195856Y163312D01*
X195869Y163325D01*
X195873Y163339D01*
Y162594D01*
D02*
G37*
G36*
X244061Y163183D02*
X244057Y163179D01*
X244054Y163175D01*
X24405Y163169D01*
X244048Y163163D01*
X244045Y163157D01*
X244043Y163149D01*
X244042Y163141D01*
X244041Y163134D01*
X244046Y163006D01*
X243934D01*
X243935Y163008D01*
X243936Y163014D01*
X243937Y163023D01*
X243939Y163067D01*
X24394Y163135D01*
X243937Y163161D01*
X243936Y163169D01*
X243934Y163176D01*
X243932Y163182D01*
X24393Y163188D01*
X243927Y163193D01*
X243924Y163197D01*
X244061Y163183D01*
D02*
G37*
G36*
X198816Y152116D02*
X198841Y151732D01*
X19885Y151691D01*
X198861Y151661D01*
X198873Y151644D01*
X198887Y151638D01*
X198102D01*
X198125Y151644D01*
X198146Y151661D01*
X198165Y151691D01*
X198181Y151732D01*
X198194Y151785D01*
X198205Y15185D01*
X198214Y151927D01*
X198223Y152116D01*
X198225Y152228D01*
X198815D01*
X198816Y152116D01*
D02*
G37*
G36*
X213778Y151893D02*
X213782Y151839D01*
X21379Y151791D01*
X213801Y15175D01*
X213816Y151715D01*
X213833Y151687D01*
X213853Y151665D01*
X213877Y151649D01*
X213904Y15164D01*
X213934Y151636D01*
X213304D01*
X213334Y15164D01*
X21336Y151649D01*
X213384Y151665D01*
X213404Y151687D01*
X213422Y151715D01*
X213436Y15175D01*
X213447Y151791D01*
X213455Y151839D01*
X21346Y151893D01*
X213461Y151953D01*
X213776D01*
X213778Y151893D01*
D02*
G37*
G36*
X209841D02*
X209845Y151839D01*
X209853Y151791D01*
X209864Y15175D01*
X209879Y151715D01*
X209896Y151687D01*
X209916Y151665D01*
X20994Y151649D01*
X209967Y15164D01*
X209997Y151636D01*
X209367D01*
X209397Y15164D01*
X209423Y151649D01*
X209447Y151665D01*
X209467Y151687D01*
X209485Y151715D01*
X209499Y15175D01*
X20951Y151791D01*
X209518Y151839D01*
X209523Y151893D01*
X209524Y151953D01*
X209839D01*
X209841Y151893D01*
D02*
G37*
G36*
X207872D02*
X207877Y151839D01*
X207885Y151791D01*
X207896Y15175D01*
X20791Y151715D01*
X207927Y151687D01*
X207948Y151665D01*
X207971Y151649D01*
X207998Y15164D01*
X208028Y151636D01*
X207398D01*
X207428Y15164D01*
X207455Y151649D01*
X207479Y151665D01*
X207499Y151687D01*
X207516Y151715D01*
X20753Y15175D01*
X207542Y151791D01*
X207549Y151839D01*
X207554Y151893D01*
X207556Y151953D01*
X207871D01*
X207872Y151893D01*
D02*
G37*
G36*
X217715D02*
X217719Y151839D01*
X217727Y151791D01*
X217738Y15175D01*
X217753Y151715D01*
X21777Y151687D01*
X21779Y151665D01*
X217814Y151649D01*
X217841Y15164D01*
X217871Y151636D01*
X217241D01*
X217271Y15164D01*
X217297Y151649D01*
X217321Y151665D01*
X217341Y151687D01*
X217359Y151715D01*
X217373Y15175D01*
X217384Y151791D01*
X217392Y151839D01*
X217397Y151893D01*
X217398Y151953D01*
X217713D01*
X217715Y151893D01*
D02*
G37*
G36*
X215746Y151893D02*
X215751Y151839D01*
X215759Y151791D01*
X21577Y15175D01*
X215784Y151715D01*
X215801Y151687D01*
X215822Y151665D01*
X215845Y151649D01*
X215872Y15164D01*
X215902Y151636D01*
X215272D01*
X215302Y15164D01*
X215329Y151649D01*
X215353Y151665D01*
X215373Y151687D01*
X21539Y151715D01*
X215404Y15175D01*
X215416Y151791D01*
X215423Y151839D01*
X215428Y151893D01*
X21543Y151953D01*
X215745D01*
X215746Y151893D01*
D02*
G37*
G36*
X211809D02*
X211814Y151839D01*
X211822Y151791D01*
X211833Y15175D01*
X211847Y151715D01*
X211864Y151687D01*
X211885Y151665D01*
X211908Y151649D01*
X211935Y15164D01*
X211965Y151636D01*
X211335D01*
X211365Y15164D01*
X211392Y151649D01*
X211416Y151665D01*
X211436Y151687D01*
X211453Y151715D01*
X211467Y15175D01*
X211479Y151791D01*
X211486Y151839D01*
X211491Y151893D01*
X211493Y151953D01*
X211808D01*
X211809Y151893D01*
D02*
G37*
G36*
X223526Y15188D02*
X223531Y151829D01*
X223538Y151784D01*
X223549Y151745D01*
X223562Y151712D01*
X223579Y151685D01*
X223598Y151664D01*
X223621Y151648D01*
X223646Y151639D01*
X223675Y151636D01*
X223075D01*
X223103Y151639D01*
X223129Y151648D01*
X223151Y151664D01*
X223171Y151685D01*
X223187Y151712D01*
X223201Y151745D01*
X223211Y151784D01*
X223219Y151829D01*
X223223Y15188D01*
X223225Y151938D01*
X223525D01*
X223526Y15188D01*
D02*
G37*
G36*
X242199Y155093D02*
X2422Y155057D01*
X242206Y154995D01*
X242211Y15497D01*
X242218Y154948D01*
X242227Y15493D01*
X242237Y154916D01*
X242249Y154905D01*
X242262Y154898D01*
X242277Y154894D01*
X241963Y154928D01*
X241978Y154928D01*
X241991Y154932D01*
X242003Y154941D01*
X242013Y154953D01*
X242022Y154969D01*
X242029Y154989D01*
X242034Y155013D01*
X242038Y155041D01*
X24204Y155072D01*
X242041Y155108D01*
X242199Y155093D01*
D02*
G37*
G36*
X24325Y15492D02*
X243285Y154911D01*
X243329Y154902D01*
X243446Y154889D01*
X2436Y15488D01*
X243902Y154875D01*
Y154285D01*
X243792Y154284D01*
X243285Y154249D01*
X24325Y15424D01*
X243225Y154229D01*
Y154931D01*
X24325Y15492D01*
D02*
G37*
G36*
X227838Y155003D02*
Y153354D01*
X227788Y153321D01*
X22767Y153332D01*
X227535Y153319D01*
X227405Y15328D01*
X227398Y153276D01*
X227355Y153301D01*
Y154586D01*
X227792Y155022D01*
X227838Y155003D01*
D02*
G37*
G36*
X249977Y155323D02*
X249976Y155337D01*
X249971Y155351D01*
X249963Y155363D01*
X249952Y155373D01*
X249938Y155382D01*
X24992Y155389D01*
X2499Y155394D01*
X249876Y155398D01*
X249849Y1554D01*
X249819Y155401D01*
Y155559D01*
X249849Y15556D01*
X249876Y155562D01*
X2499Y155566D01*
X24992Y155571D01*
X249938Y155578D01*
X249952Y155587D01*
X249963Y155597D01*
X249971Y155609D01*
X249976Y155623D01*
X249977Y155637D01*
Y155323D01*
D02*
G37*
G36*
X247985Y159933D02*
X247952Y15992D01*
X247849Y159841D01*
X24777Y159738D01*
X247721Y159618D01*
X247704Y15949D01*
X247721Y159362D01*
X24777Y159242D01*
X247849Y159139D01*
X247952Y15906D01*
X248032Y159027D01*
Y158973D01*
X247952Y15894D01*
X247849Y158861D01*
X24777Y158758D01*
X247721Y158638D01*
X247704Y15851D01*
X247721Y158382D01*
X24777Y158262D01*
X247849Y158159D01*
X247952Y15808D01*
X248072Y158031D01*
X2482Y158014D01*
X248328Y158031D01*
X248336Y158033D01*
X24953D01*
X249653Y15805D01*
X249768Y158097D01*
X249867Y158173D01*
X250282Y158588D01*
X250398D01*
X250533Y158601D01*
X250663Y15864D01*
X250783Y158704D01*
X250888Y15879D01*
X250946Y158861D01*
X250929Y159167D01*
X251671D01*
X251649Y159121D01*
X25163Y159068D01*
X251612Y15901D01*
X251597Y158946D01*
X251595Y158934D01*
X251598Y158935D01*
X251638Y158965D01*
X251688Y158941D01*
Y157172D01*
X251449D01*
X251429Y157178D01*
X25129Y157192D01*
X251151Y157178D01*
X251017Y157138D01*
X250894Y157072D01*
X25079Y156986D01*
X250686Y157072D01*
X250562Y157138D01*
X250429Y157178D01*
X25029Y157192D01*
X250151Y157178D01*
X250017Y157138D01*
X249894Y157072D01*
X249791Y156987D01*
X249788Y156985D01*
X249787Y156984D01*
X249786Y156984D01*
X249786Y156983D01*
X249768Y156965D01*
X249758Y156957D01*
X247387D01*
X246737Y157607D01*
Y158972D01*
X246769Y159052D01*
X246786Y15918D01*
X246769Y159308D01*
X24672Y159428D01*
X246641Y159531D01*
X246538Y15961D01*
X246418Y159659D01*
X24629Y159676D01*
X246162Y159659D01*
X246042Y15961D01*
X245939Y159531D01*
X24586Y159428D01*
X245811Y159308D01*
X245809Y159295D01*
X2458Y159273D01*
X245783Y15915D01*
Y159038D01*
X24577Y159026D01*
X245642Y159009D01*
X245522Y15896D01*
X245419Y158881D01*
X24534Y158778D01*
X245291Y158658D01*
X245274Y15853D01*
X245291Y158402D01*
X245303Y15837D01*
Y15731D01*
X24532Y157187D01*
X245367Y157072D01*
X245443Y156973D01*
X247273Y155143D01*
X247372Y155067D01*
X247487Y15502D01*
X24761Y155003D01*
X249581D01*
Y154771D01*
X250999D01*
Y155124D01*
X251043Y155146D01*
X251081Y155118D01*
X251182Y155076D01*
X25129Y155061D01*
X251398Y155076D01*
X251499Y155118D01*
X251507Y155124D01*
X25122Y15541D01*
X25136Y15555D01*
X251668Y155241D01*
X251688Y155234D01*
Y15299D01*
X251701Y152855D01*
X25174Y152725D01*
X25179Y152632D01*
X25176Y152582D01*
X247987D01*
X247968Y152628D01*
X248837Y153498D01*
X24895D01*
X249085Y153511D01*
X249215Y15355D01*
X249335Y153614D01*
X24944Y1537D01*
X249526Y153805D01*
X24959Y153925D01*
X249629Y154055D01*
X249642Y15419D01*
X249629Y154325D01*
X24959Y154455D01*
X249526Y154575D01*
X24944Y15468D01*
X249335Y154766D01*
X249215Y15483D01*
X249085Y154869D01*
X24895Y154882D01*
X24855D01*
X248415Y154869D01*
X248285Y15483D01*
X248165Y154766D01*
X24806Y15468D01*
X246753Y153372D01*
X24272D01*
X242585Y153359D01*
X242455Y15332D01*
X242335Y153256D01*
X24223Y15317D01*
X240623Y151562D01*
X228743D01*
X228741Y151564D01*
X228714Y151603D01*
X2287Y15163D01*
X228696Y151644D01*
X228695Y15165D01*
X228696Y151656D01*
X2287Y15167D01*
X228714Y151697D01*
X228741Y151736D01*
X228794Y151795D01*
X22902Y15202D01*
X229106Y152125D01*
X22917Y152245D01*
X229209Y152375D01*
X229222Y15251D01*
Y155454D01*
X229272Y155476D01*
X229382Y155431D01*
X22951Y155414D01*
X229638Y155431D01*
X229742Y155473D01*
X241643D01*
Y155193D01*
X241579Y155141D01*
X24149Y155031D01*
X241451Y15496D01*
X24139Y154951D01*
X241324Y155001D01*
X241221Y155044D01*
X24111Y155059D01*
X240999Y155044D01*
X240896Y155001D01*
X240886Y154994D01*
X24118Y1547D01*
X24106Y15458D01*
X24118Y15446D01*
X241125Y154405D01*
X241411D01*
X24141Y154398D01*
X241409Y154378D01*
X241408Y154207D01*
X241451Y1542D01*
X24149Y154129D01*
X241579Y154019D01*
X241689Y15393D01*
X241814Y153863D01*
X241949Y153822D01*
X24209Y153808D01*
X242231Y153822D01*
X242366Y153863D01*
X242491Y15393D01*
X242595Y154015D01*
X242699Y15393D01*
X242824Y153863D01*
X242959Y153822D01*
X2431Y153808D01*
X243241Y153822D01*
X243315Y153844D01*
X243327Y153846D01*
X243346Y153854D01*
X243354Y153856D01*
X243807Y153887D01*
X243904Y153888D01*
X243905Y153888D01*
X246197D01*
X246285Y153861D01*
X24642Y153848D01*
X246555Y153861D01*
X246685Y1539D01*
X246805Y153964D01*
X24691Y15405D01*
X246996Y154155D01*
X24706Y154275D01*
X247099Y154405D01*
X247112Y15454D01*
X247099Y154675D01*
X24706Y154805D01*
X246996Y154925D01*
X24691Y15503D01*
X24687Y15507D01*
X246765Y155156D01*
X246645Y15522D01*
X246515Y155259D01*
X24638Y155272D01*
X243909D01*
X243909Y155272D01*
X243615Y155277D01*
X24348Y155285D01*
X243388Y155295D01*
X243376Y155298D01*
X243376Y155298D01*
X243368Y1553D01*
X243346Y155306D01*
X243327Y155314D01*
X243315Y155316D01*
X243241Y155338D01*
X2431Y155352D01*
X242959Y155338D01*
X242824Y155297D01*
X242699Y15523D01*
X242642Y155184D01*
X242597Y155205D01*
Y155283D01*
X242737Y155423D01*
X24433D01*
X244453Y15544D01*
X244568Y155487D01*
X244667Y155563D01*
X245067Y155963D01*
X245143Y156062D01*
X24519Y156177D01*
X245207Y1563D01*
Y159443D01*
X245747Y159983D01*
X247975D01*
X247985Y159933D01*
D02*
G37*
G36*
X243953Y160943D02*
X244052Y160867D01*
X244167Y16082D01*
X24429Y160803D01*
X245149D01*
X24517Y160753D01*
X244393Y159977D01*
X244317Y159878D01*
X24427Y159763D01*
X244253Y15964D01*
Y156497D01*
X244133Y156377D01*
X242856D01*
X242837Y156423D01*
X243797Y157383D01*
X243873Y157482D01*
X24392Y157597D01*
X243937Y15772D01*
Y159624D01*
X243939Y159632D01*
X243956Y15976D01*
X243939Y159888D01*
X24389Y160008D01*
X243811Y160111D01*
X243708Y16019D01*
X243588Y160239D01*
X24346Y160256D01*
X243384Y160246D01*
X243347Y160279D01*
Y161484D01*
X243393Y161503D01*
X243953Y160943D01*
D02*
G37*
G36*
X250065Y15626D02*
X250037Y156286D01*
X249983Y156332D01*
X249955Y15635D01*
X249928Y156366D01*
X249902Y156379D01*
X249875Y156389D01*
X249848Y156396D01*
X249822Y1564D01*
X249796Y156401D01*
Y156559D01*
X249822Y15656D01*
X249848Y156564D01*
X249875Y156571D01*
X249902Y156581D01*
X249928Y156594D01*
X249955Y15661D01*
X249983Y156628D01*
X25001Y156649D01*
X250037Y156674D01*
X250065Y1567D01*
Y15626D01*
D02*
G37*
G36*
X209791Y153602D02*
X209789Y15359D01*
X209787Y153573D01*
X209783Y153484D01*
X209782Y153282D01*
X209582D01*
X20957Y153607D01*
X209793D01*
X209791Y153602D01*
D02*
G37*
G36*
X249953Y160123D02*
X249951Y160138D01*
X249946Y160151D01*
X249936Y160163D01*
X249923Y160173D01*
X249905Y160182D01*
X249884Y160189D01*
X249859Y160194D01*
X24983Y160198D01*
X249797Y1602D01*
X249761Y160201D01*
Y160359D01*
X249797Y16036D01*
X249859Y160366D01*
X249884Y160371D01*
X249905Y160378D01*
X249923Y160387D01*
X249936Y160397D01*
X249946Y160409D01*
X249951Y160422D01*
X249953Y160437D01*
Y160123D01*
D02*
G37*
G36*
Y161123D02*
X249951Y161138D01*
X249946Y161151D01*
X249936Y161163D01*
X249923Y161173D01*
X249905Y161182D01*
X249884Y161189D01*
X249859Y161194D01*
X24983Y161198D01*
X249797Y1612D01*
X249761Y161201D01*
Y161359D01*
X249797Y16136D01*
X249859Y161366D01*
X249884Y161371D01*
X249905Y161378D01*
X249923Y161387D01*
X249936Y161397D01*
X249946Y161409D01*
X249951Y161422D01*
X249953Y161437D01*
Y161123D01*
D02*
G37*
G36*
X251544Y162537D02*
X251578Y162523D01*
X251614Y162511D01*
X251652Y1625D01*
X251734Y162483D01*
X251778Y162477D01*
X251873Y162471D01*
X251923Y16247D01*
X251972Y16217D01*
X251924Y162169D01*
X251878Y162165D01*
X251833Y162158D01*
X251789Y162148D01*
X251748Y162136D01*
X251708Y162121D01*
X251669Y162104D01*
X251632Y162083D01*
X251596Y16206D01*
X251563Y162034D01*
X251512Y162553D01*
X251544Y162537D01*
D02*
G37*
G36*
X240663Y160784D02*
Y159667D01*
X240023Y159027D01*
X238906D01*
X238887Y159073D01*
X240617Y160803D01*
X240663Y160784D01*
D02*
G37*
G36*
X241722Y161781D02*
X241793Y161771D01*
Y158606D01*
X241791Y158598D01*
X241781Y158527D01*
X24173Y15852D01*
X24171Y158568D01*
X241631Y158671D01*
X241528Y15875D01*
X241408Y158799D01*
X24128Y158816D01*
X241224Y158809D01*
X2412Y158856D01*
X241477Y159133D01*
X241553Y159232D01*
X2416Y159347D01*
X241617Y15947D01*
Y161779D01*
X241658Y161807D01*
X241722Y161781D01*
D02*
G37*
G36*
X242983Y158637D02*
Y157917D01*
X241753Y156687D01*
X241711Y156715D01*
X24174Y156787D01*
X241757Y15691D01*
Y158184D01*
X241759Y158192D01*
X241769Y158263D01*
X24182Y15827D01*
X24184Y158222D01*
X241919Y158119D01*
X242022Y15804D01*
X242142Y157991D01*
X24227Y157974D01*
X242398Y157991D01*
X242518Y15804D01*
X242621Y158119D01*
X2427Y158222D01*
X242749Y158342D01*
X242766Y15847D01*
X242749Y158598D01*
X242747Y158606D01*
Y158625D01*
X242784Y158658D01*
X24282Y158654D01*
X242933Y158669D01*
X242983Y158637D01*
D02*
G37*
G36*
X250227Y158986D02*
X250212Y158992D01*
X250196Y158994D01*
X250178Y158993D01*
X250159Y158988D01*
X250139Y15898D01*
X250117Y158968D01*
X250094Y158952D01*
X250069Y158933D01*
X250043Y15891D01*
X250015Y158884D01*
X249875Y158967D01*
X249901Y158993D01*
X249939Y159041D01*
X249952Y159061D01*
X249961Y15908D01*
X249966Y159097D01*
X249966Y159112D01*
X249962Y159124D01*
X249954Y159135D01*
X249942Y159144D01*
X250227Y158986D01*
D02*
G37*
G36*
X226516Y166683D02*
X226438Y166729D01*
X226358Y16677D01*
X226276Y166806D01*
X226194Y166837D01*
X226111Y166863D01*
X226026Y166885D01*
X225941Y166902D01*
X225854Y166914D01*
X225766Y166921D01*
X225677Y166923D01*
Y167514D01*
X225766Y167516D01*
X225854Y167523D01*
X225941Y167535D01*
X226026Y167552D01*
X226111Y167574D01*
X226194Y1676D01*
X226276Y167631D01*
X226358Y167667D01*
X226438Y167708D01*
X226516Y167754D01*
Y166683D01*
D02*
G37*
G36*
X24655Y167326D02*
X246555Y1673D01*
X246563Y167276D01*
X246574Y167255D01*
X246588Y167238D01*
X246605Y167224D01*
X246626Y167213D01*
X24665Y167205D01*
X246676Y1672D01*
X246706Y167199D01*
Y167041D01*
X246676Y16704D01*
X24665Y167035D01*
X246626Y167027D01*
X246605Y167016D01*
X246588Y167002D01*
X246574Y166985D01*
X246563Y166964D01*
X246555Y16694D01*
X24655Y166914D01*
X246549Y166884D01*
X246391Y16712D01*
X246549Y167356D01*
X24655Y167326D01*
D02*
G37*
G36*
X251227Y166986D02*
X251212Y166992D01*
X251196Y166994D01*
X251178Y166993D01*
X251159Y166988D01*
X251139Y16698D01*
X251117Y166968D01*
X251094Y166952D01*
X251069Y166933D01*
X251043Y16691D01*
X251015Y166884D01*
X250875Y166967D01*
X250901Y166993D01*
X250939Y167041D01*
X250952Y167061D01*
X250961Y16708D01*
X250966Y167097D01*
X250966Y167112D01*
X250962Y167124D01*
X250954Y167135D01*
X250942Y167144D01*
X251227Y166986D01*
D02*
G37*
G36*
X213785Y166599D02*
X213786Y16658D01*
X213787Y166571D01*
X213789Y166564D01*
X213791Y166557D01*
X213794Y16655D01*
X213796Y166545D01*
X2138Y16654D01*
X213803Y166536D01*
X213665D01*
X213669Y16654D01*
X213672Y166545D01*
X213675Y16655D01*
X213678Y166557D01*
X21368Y166564D01*
X213681Y166571D01*
X213683Y16658D01*
X213684Y166589D01*
X213684Y166609D01*
X213784D01*
X213785Y166599D01*
D02*
G37*
G36*
X21404Y166133D02*
X214042Y166114D01*
X214043Y166106D01*
X214045Y166098D01*
X214047Y166091D01*
X214049Y166085D01*
X214052Y166079D01*
X214056Y166075D01*
X214059Y166071D01*
X213921D01*
X213925Y166075D01*
X213928Y166079D01*
X213931Y166085D01*
X213933Y166091D01*
X213936Y166098D01*
X213937Y166106D01*
X213939Y166114D01*
X213939Y166124D01*
X21394Y166144D01*
X21404D01*
X21404Y166133D01*
D02*
G37*
G36*
X213529Y166135D02*
X21353Y166116D01*
X213531Y166107D01*
X213533Y1661D01*
X213535Y166093D01*
X213538Y166086D01*
X213541Y166081D01*
X213544Y166076D01*
X213547Y166072D01*
X21341D01*
X213413Y166076D01*
X213416Y166081D01*
X213419Y166086D01*
X213422Y166093D01*
X213424Y1661D01*
X213425Y166107D01*
X213427Y166116D01*
X213428Y166125D01*
X213428Y166145D01*
X213528D01*
X213529Y166135D01*
D02*
G37*
G36*
X249953Y166123D02*
X249951Y166138D01*
X249946Y166151D01*
X249936Y166163D01*
X249923Y166173D01*
X249905Y166182D01*
X249884Y166189D01*
X249859Y166194D01*
X24983Y166198D01*
X249797Y1662D01*
X249761Y166201D01*
Y166359D01*
X249797Y16636D01*
X249859Y166366D01*
X249884Y166371D01*
X249905Y166378D01*
X249923Y166387D01*
X249936Y166397D01*
X249946Y166409D01*
X249951Y166422D01*
X249953Y166437D01*
Y166123D01*
D02*
G37*
G36*
Y167123D02*
X249951Y167138D01*
X249946Y167151D01*
X249936Y167163D01*
X249923Y167173D01*
X249905Y167182D01*
X249884Y167189D01*
X249859Y167194D01*
X24983Y167198D01*
X249797Y1672D01*
X249761Y167201D01*
Y167359D01*
X249797Y16736D01*
X249859Y167366D01*
X249884Y167371D01*
X249905Y167378D01*
X249923Y167387D01*
X249936Y167397D01*
X249946Y167409D01*
X249951Y167422D01*
X249953Y167437D01*
Y167123D01*
D02*
G37*
G36*
X209791Y15103D02*
X209789Y151019D01*
X209787Y151001D01*
X209783Y150913D01*
X209782Y15071D01*
X209582D01*
X20957Y151035D01*
X209793D01*
X209791Y15103D01*
D02*
G37*
G36*
X207822D02*
X20782Y151019D01*
X207819Y151001D01*
X207815Y150913D01*
X207813Y15071D01*
X207613D01*
X207602Y151035D01*
X207825D01*
X207822Y15103D01*
D02*
G37*
G36*
X251387Y167986D02*
X251368Y167988D01*
X251349Y167987D01*
X251328Y167983D01*
X251307Y167976D01*
X251285Y167966D01*
X251263Y167954D01*
X251239Y167938D01*
X251215Y167919D01*
X25119Y167898D01*
X251164Y167873D01*
X250969Y1679D01*
X250994Y167927D01*
X251015Y167951D01*
X251031Y167972D01*
X251042Y167991D01*
X251049Y168008D01*
X251051Y168022D01*
X251048Y168034D01*
X251041Y168044D01*
X251029Y168051D01*
X251013Y168056D01*
X251387Y167986D01*
D02*
G37*
G36*
X22182Y167731D02*
X221816Y167735D01*
X221811Y167738D01*
X221805Y167741D01*
X221799Y167743D01*
X221792Y167745D01*
X221784Y167747D01*
X221776Y167748D01*
X221767Y167749D01*
X221746Y16775D01*
Y16785D01*
X221757Y16785D01*
X221776Y167852D01*
X221784Y167853D01*
X221792Y167855D01*
X221799Y167857D01*
X221805Y167859D01*
X221811Y167862D01*
X221816Y167865D01*
X22182Y167869D01*
Y167731D01*
D02*
G37*
G36*
X196135Y150719D02*
X196131Y150744D01*
X196118Y150767D01*
X196096Y150787D01*
X196066Y150804D01*
X196028Y150818D01*
X195981Y15083D01*
X195925Y15084D01*
X19586Y150846D01*
X195706Y150851D01*
Y151442D01*
X195788Y151443D01*
X195925Y151454D01*
X195981Y151463D01*
X196028Y151475D01*
X196066Y15149D01*
X196096Y151507D01*
X196118Y151527D01*
X196131Y151549D01*
X196135Y151574D01*
Y150719D01*
D02*
G37*
G36*
X217665Y15103D02*
X217663Y151019D01*
X217661Y151001D01*
X217658Y150913D01*
X217656Y15071D01*
X217456D01*
X217444Y151035D01*
X217667D01*
X217665Y15103D01*
D02*
G37*
G36*
X249001Y167692D02*
X249023Y167638D01*
X248995Y167597D01*
X247501D01*
X247499Y167608D01*
X247497Y167616D01*
Y167803D01*
X248986D01*
X249001Y167692D01*
D02*
G37*
G36*
X209793Y151258D02*
X20957D01*
X209572Y151263D01*
X209574Y151275D01*
X209576Y151292D01*
X20958Y151381D01*
X209582Y151583D01*
X209782D01*
X209793Y151258D01*
D02*
G37*
G36*
X250244Y164224D02*
X250242Y164225D01*
X250236Y164226D01*
X250227Y164227D01*
X250183Y164229D01*
X250082Y16423D01*
Y16433D01*
X250244Y164336D01*
Y164224D01*
D02*
G37*
G36*
X24067Y165609D02*
X240689Y165563D01*
X239353Y164227D01*
X235356D01*
X235348Y164229D01*
X23522Y164246D01*
X235092Y164229D01*
X234972Y16418D01*
X234869Y164101D01*
X23479Y163998D01*
X234741Y163878D01*
X234724Y16375D01*
X234741Y163622D01*
X23479Y163502D01*
X234869Y163399D01*
X234972Y16332D01*
X235092Y163271D01*
X23522Y163254D01*
X235348Y163271D01*
X235356Y163273D01*
X23955D01*
X239673Y16329D01*
X239788Y163337D01*
X239887Y163413D01*
X239977Y163503D01*
X240023Y163484D01*
Y161557D01*
X238203Y159737D01*
X236179D01*
X236135Y159787D01*
X236146Y15987D01*
X236129Y159998D01*
X23608Y160118D01*
X236001Y160221D01*
X235898Y1603D01*
X235778Y160349D01*
X23565Y160366D01*
X234476D01*
X232744Y162098D01*
X232749Y162148D01*
X232763Y162157D01*
X232807Y162223D01*
X232815Y162261D01*
X232869Y162277D01*
X233127Y162019D01*
X23313Y162012D01*
X233209Y161909D01*
X233312Y16183D01*
X233432Y161781D01*
X23356Y161764D01*
X233688Y161781D01*
X233808Y16183D01*
X233911Y161909D01*
X23399Y162012D01*
X234039Y162132D01*
X234056Y16226D01*
X234048Y162325D01*
X234131Y162389D01*
X23421Y162492D01*
X234213Y162499D01*
X234444Y16273D01*
X23452Y162829D01*
X234567Y162944D01*
X234584Y163067D01*
Y165612D01*
X234864D01*
X24067Y165609D01*
D02*
G37*
G36*
X203935Y151893D02*
X20394Y151839D01*
X203948Y151791D01*
X203959Y15175D01*
X203973Y151715D01*
X20399Y151687D01*
X204011Y151665D01*
X204034Y151649D01*
X204061Y15164D01*
X204091Y151636D01*
X203461D01*
X203491Y15164D01*
X203518Y151649D01*
X203542Y151665D01*
X203562Y151687D01*
X203579Y151715D01*
X203593Y15175D01*
X203604Y151791D01*
X203612Y151839D01*
X203617Y151893D01*
X203619Y151953D01*
X203934D01*
X203935Y151893D01*
D02*
G37*
G36*
X251237Y163986D02*
X251222Y163991D01*
X251205Y163994D01*
X251188Y163992D01*
X251168Y163987D01*
X251147Y163979D01*
X251125Y163966D01*
X251102Y163951D01*
X251077Y163931D01*
X251051Y163908D01*
X251023Y163882D01*
X25088Y163961D01*
X250906Y163988D01*
X250944Y164035D01*
X250957Y164056D01*
X250966Y164075D01*
X25097Y164091D01*
X25097Y164106D01*
X250966Y164119D01*
X250958Y164129D01*
X250946Y164138D01*
X251237Y163986D01*
D02*
G37*
G36*
X205904Y151893D02*
X205908Y151839D01*
X205916Y151791D01*
X205927Y15175D01*
X205942Y151715D01*
X205959Y151687D01*
X205979Y151665D01*
X206003Y151649D01*
X20603Y15164D01*
X20606Y151636D01*
X20543D01*
X20546Y15164D01*
X205486Y151649D01*
X20551Y151665D01*
X20553Y151687D01*
X205548Y151715D01*
X205562Y15175D01*
X205573Y151791D01*
X205581Y151839D01*
X205586Y151893D01*
X205587Y151953D01*
X205902D01*
X205904Y151893D01*
D02*
G37*
G36*
X24996Y164113D02*
X249957Y164128D01*
X249951Y164141D01*
X249941Y164153D01*
X249927Y164163D01*
X249909Y164172D01*
X249888Y164179D01*
X249862Y164184D01*
X249833Y164188D01*
X2498Y16419D01*
X249764Y164191D01*
X249758Y164349D01*
X249794Y16435D01*
X249856Y164356D01*
X249881Y164361D01*
X249902Y164368D01*
X249919Y164377D01*
X249932Y164387D01*
X249941Y164399D01*
X249947Y164412D01*
X249948Y164427D01*
X24996Y164113D01*
D02*
G37*
G36*
X247707Y164343D02*
X247712Y16434D01*
X247718Y164338D01*
X247724Y164336D01*
X247731Y164334D01*
X247739Y164333D01*
X247752Y164331D01*
X247757Y164331D01*
X247858Y16433D01*
Y16423D01*
X24775Y164226D01*
X247743Y164225D01*
X247737Y164222D01*
X247731Y16422D01*
X247725Y164216D01*
X247721Y164213D01*
X247717Y164209D01*
X247715Y164225D01*
X247696Y164224D01*
Y164336D01*
X247698Y164335D01*
X247704Y164334D01*
X247704Y164334D01*
X247703Y164346D01*
X247707Y164343D01*
D02*
G37*
G36*
X222073Y166476D02*
X221985Y16645D01*
X221865Y166386D01*
X22176Y1663D01*
X221213Y165752D01*
X221169Y165779D01*
X221189Y165845D01*
X221202Y16598D01*
Y166313D01*
X2213Y16641D01*
X221386Y166515D01*
X221391Y166526D01*
X222066D01*
X222073Y166476D01*
D02*
G37*
G36*
X197008Y16642D02*
X197018Y166418D01*
X197034Y166417D01*
X197123Y166413D01*
X197334Y166411D01*
Y165821D01*
X197005Y165811D01*
Y166422D01*
X197008Y16642D01*
D02*
G37*
G36*
X251452Y165991D02*
X251432Y165992D01*
X251411Y165989D01*
X25139Y165985D01*
X251368Y165977D01*
X251345Y165966D01*
X251322Y165953D01*
X251299Y165937D01*
X251274Y165919D01*
X25125Y165897D01*
X251224Y165873D01*
X251013Y165885D01*
X251038Y165911D01*
X251058Y165934D01*
X251073Y165955D01*
X251084Y165973D01*
X25109Y165989D01*
X251091Y166002D01*
X251087Y166013D01*
X251078Y166021D01*
X251065Y166027D01*
X251047Y16603D01*
X251452Y165991D01*
D02*
G37*
G36*
X219836Y166753D02*
X219831Y166735D01*
X219818Y1666D01*
Y16614D01*
X219801Y166085D01*
X219788Y16595D01*
X219801Y165815D01*
X21984Y165685D01*
X219904Y165565D01*
X21999Y16546D01*
X220016Y165439D01*
X219999Y165392D01*
X214808D01*
X214773Y165442D01*
X214787Y165546D01*
X214787Y165546D01*
Y166689D01*
X2148Y166702D01*
X21953D01*
X219659Y166719D01*
X219779Y166769D01*
X219795Y166781D01*
X219836Y166753D01*
D02*
G37*
G36*
X251227Y164986D02*
X251212Y164992D01*
X251196Y164994D01*
X251178Y164993D01*
X251159Y164988D01*
X251139Y16498D01*
X251117Y164968D01*
X251094Y164952D01*
X251069Y164933D01*
X251043Y16491D01*
X251015Y164884D01*
X250875Y164967D01*
X250901Y164993D01*
X250939Y165041D01*
X250952Y165061D01*
X250961Y16508D01*
X250966Y165097D01*
X250966Y165112D01*
X250962Y165124D01*
X250954Y165135D01*
X250942Y165144D01*
X251227Y164986D01*
D02*
G37*
G36*
X249953Y165123D02*
X249951Y165138D01*
X249946Y165151D01*
X249936Y165163D01*
X249923Y165173D01*
X249905Y165182D01*
X249884Y165189D01*
X249859Y165194D01*
X24983Y165198D01*
X249797Y1652D01*
X249761Y165201D01*
Y165359D01*
X249797Y16536D01*
X249859Y165366D01*
X249884Y165371D01*
X249905Y165378D01*
X249923Y165387D01*
X249936Y165397D01*
X249946Y165409D01*
X249951Y165422D01*
X249953Y165437D01*
Y165123D01*
D02*
G37*
G36*
X226374Y16522D02*
X226374Y165276D01*
X226357Y165326D01*
X226324Y16537D01*
X226273Y165409D01*
X226206Y165441D01*
X226122Y165468D01*
X226021Y165488D01*
X225903Y165503D01*
X225768Y165512D01*
X225616Y165515D01*
X225808Y166105D01*
X225918Y166106D01*
X226339Y166135D01*
X226397Y166145D01*
X226446Y166157D01*
X226485Y166171D01*
X226516Y166187D01*
X226374Y16522D01*
D02*
G37*
G36*
X228806Y185606D02*
X229045D01*
Y185409D01*
X228806D01*
Y183637D01*
X229022D01*
Y18124D01*
X228977Y181218D01*
X228954Y181235D01*
X228822Y18129D01*
X22868Y181308D01*
X228538Y18129D01*
X228406Y181235D01*
X228292Y181148D01*
X228273Y181128D01*
X22824D01*
X228218Y18113D01*
X228195Y181133D01*
X228175Y181137D01*
X228174Y181137D01*
X228174Y181138D01*
Y183637D01*
X228413D01*
Y185409D01*
X228174D01*
Y185606D01*
X228413D01*
Y187202D01*
X228806D01*
Y185606D01*
D02*
G37*
G36*
X241686Y1838D02*
X241636Y183772D01*
X241526Y183806D01*
X241394Y183819D01*
X241262Y183806D01*
X241135Y183767D01*
X241018Y183705D01*
X241Y18369D01*
X240982Y183705D01*
X240865Y183767D01*
X240738Y183806D01*
X240606Y183819D01*
X240474Y183806D01*
X240347Y183767D01*
X24023Y183705D01*
X240128Y183621D01*
X240044Y183518D01*
X239981Y183401D01*
X239977Y183386D01*
X239921Y183376D01*
X239893Y183413D01*
X239813Y183474D01*
X239721Y183512D01*
X239622Y183525D01*
X239523Y183512D01*
X239431Y183474D01*
X23943Y183473D01*
X239692Y183212D01*
X239622Y183142D01*
X239692Y183073D01*
X239562Y182943D01*
X239818D01*
X239809Y182933D01*
X239801Y18292D01*
X239794Y182905D01*
X239788Y182889D01*
X239783Y182869D01*
X239779Y182848D01*
X239776Y182824D01*
X239772Y182769D01*
X239772Y182739D01*
X239643D01*
X239645Y182736D01*
X239633Y182646D01*
Y182514D01*
X239772D01*
X239772Y182484D01*
X239779Y182405D01*
X239783Y182384D01*
X239788Y182365D01*
X239794Y182348D01*
X239801Y182333D01*
X239809Y18232D01*
X239818Y18231D01*
X239562Y18231D01*
X239633Y182239D01*
Y182122D01*
X239622Y182111D01*
X239633Y182099D01*
Y181983D01*
X23943Y18178D01*
X239431Y181779D01*
X239523Y181741D01*
X239622Y181728D01*
X239633Y181718D01*
Y181666D01*
X239631Y181658D01*
X239614Y18153D01*
X239631Y181402D01*
X239662Y181325D01*
Y175746D01*
X2381D01*
X237956Y175727D01*
X237822Y175671D01*
X237707Y175583D01*
X237619Y175468D01*
X237563Y175334D01*
X237544Y17519D01*
X237563Y175046D01*
X237619Y174912D01*
X237707Y174797D01*
X237822Y174709D01*
X237956Y174653D01*
X2381Y174634D01*
X239632D01*
X239633Y174633D01*
Y173321D01*
X239613Y173317D01*
X239547Y173273D01*
X239503Y173207D01*
X239488Y17313D01*
X239503Y173053D01*
X239547Y172987D01*
X239613Y172943D01*
X239633Y172939D01*
Y171597D01*
X239234D01*
X239212Y171641D01*
X23922Y171652D01*
X239269Y171772D01*
X239286Y1719D01*
X239269Y172028D01*
X23922Y172148D01*
X239141Y172251D01*
X239038Y17233D01*
X238918Y172379D01*
X23879Y172396D01*
X238662Y172379D01*
X238654Y172377D01*
X23303D01*
X232907Y17236D01*
X232792Y172313D01*
X232693Y172237D01*
X231973Y171517D01*
X231897Y171418D01*
X23185Y171303D01*
X231833Y17118D01*
Y16351D01*
X23185Y163387D01*
X231897Y163272D01*
X231973Y163173D01*
X232597Y162549D01*
X232581Y162495D01*
X232543Y162487D01*
X232477Y162443D01*
X232468Y162429D01*
X232418Y162424D01*
X231736Y163106D01*
Y16862D01*
Y172094D01*
X232574Y172932D01*
X23263Y172918D01*
X232658Y172828D01*
X232717Y172716D01*
X232798Y172618D01*
X232896Y172537D01*
X233008Y172477D01*
X233129Y172441D01*
X233255Y172428D01*
X233381Y172441D01*
X233503Y172477D01*
X233615Y172537D01*
X233713Y172618D01*
X233793Y172716D01*
X233853Y172828D01*
X23389Y172949D01*
X233902Y173075D01*
X23389Y173201D01*
X233853Y173323D01*
X233793Y173434D01*
X233713Y173532D01*
X233615Y173613D01*
X233503Y173673D01*
X233413Y1737D01*
X233399Y173757D01*
X233901Y174259D01*
X233901Y174259D01*
X23398Y174362D01*
X234029Y174482D01*
X234046Y17461D01*
Y185426D01*
X234052Y185435D01*
X234061Y185447D01*
X234074Y185461D01*
X234094Y185482D01*
X234096Y185484D01*
X234192Y185601D01*
X234264Y185734D01*
X234308Y185879D01*
X234322Y18603D01*
X234308Y186181D01*
X234264Y186326D01*
X234227Y186394D01*
X234253Y186437D01*
X234953D01*
X234969Y18639D01*
X234941Y186369D01*
X234865Y18627D01*
X234817Y186154D01*
X234801Y18603D01*
X234817Y185906D01*
X234865Y18579D01*
X234881Y18577D01*
X23521Y1861D01*
X23535Y18596D01*
X23502Y185631D01*
X23504Y185615D01*
X235156Y185567D01*
X23528Y185551D01*
X235291Y185552D01*
X235315Y185509D01*
X235294Y185483D01*
X23523Y185363D01*
X235191Y185233D01*
X235178Y185098D01*
Y184902D01*
X235191Y184767D01*
X23523Y184637D01*
X235294Y184517D01*
X23538Y184412D01*
X235485Y184326D01*
X235605Y184262D01*
X235735Y184223D01*
X23587Y184209D01*
X236005Y184223D01*
X236135Y184262D01*
X236255Y184326D01*
X23636Y184412D01*
X236446Y184517D01*
X23651Y184637D01*
X236549Y184767D01*
X236562Y184902D01*
Y185098D01*
X236549Y185233D01*
X23651Y185363D01*
X236446Y185483D01*
X23636Y185588D01*
X236255Y185674D01*
X236135Y185738D01*
X236005Y185777D01*
X23587Y185791D01*
X235744Y185778D01*
X235723Y185797D01*
X235708Y185821D01*
X235743Y185906D01*
X235759Y18603D01*
X235743Y186154D01*
X235695Y18627D01*
X235619Y186369D01*
X235591Y18639D01*
X235607Y186437D01*
X241686D01*
Y1838D01*
D02*
G37*
G36*
X248273Y184093D02*
Y183863D01*
X248236Y18383D01*
X248222Y183832D01*
X248134Y18382D01*
X248115Y183812D01*
X248118Y183809D01*
X2482Y183738D01*
X248208Y183733D01*
X248215Y18373D01*
X24822Y183729D01*
X247986Y183495D01*
X247985Y1835D01*
X247982Y183507D01*
X247977Y183515D01*
X24797Y183525D01*
X24795Y183549D01*
X247922Y183579D01*
X247902Y1836D01*
X247894Y183581D01*
X247886Y183518D01*
X247783Y183487D01*
X247674Y183428D01*
X247578Y18335D01*
X247499Y183254D01*
X24744Y183144D01*
X247404Y183026D01*
X247392Y182902D01*
X247404Y182779D01*
X24744Y18266D01*
X247473Y1826D01*
X247433Y182567D01*
X247388Y182604D01*
X247271Y182667D01*
X247182Y182694D01*
X247187Y18267D01*
X247201Y18263D01*
X247217Y182596D01*
X247237Y182569D01*
X247259Y182549D01*
X247284Y182535D01*
X247306Y182529D01*
X247305Y182532D01*
X247307Y182529D01*
X247313Y182527D01*
X247307Y182528D01*
X247322Y182504D01*
X247345Y182478D01*
X247375Y182456D01*
X247412Y182437D01*
X247455Y18242D01*
X247505Y182407D01*
X247562Y182396D01*
X247626Y182389D01*
X247696Y182384D01*
X247773Y182383D01*
X247882Y182083D01*
X247811Y182081D01*
X247696Y182069D01*
X247651Y182059D01*
X247616Y182045D01*
X247589Y182029D01*
X247571Y18201D01*
X247563Y181987D01*
X247563Y181962D01*
X247571Y181933D01*
X247307Y182528D01*
X246713Y182614D01*
X246742Y182613D01*
X246767Y182619D01*
X24679Y182632D01*
X246809Y182652D01*
X246826Y182679D01*
X246839Y182712D01*
X246841Y182718D01*
X246639D01*
X246508Y182705D01*
X246381Y182667D01*
X246265Y182604D01*
X246163Y182521D01*
X246123Y182472D01*
X246073Y18249D01*
Y183834D01*
X246123Y183852D01*
X246163Y183803D01*
X246265Y18372D01*
X246381Y183657D01*
X246508Y183619D01*
X246639Y183606D01*
X246841D01*
X246839Y183612D01*
X246826Y183645D01*
X246809Y183672D01*
X24679Y183692D01*
X246767Y183705D01*
X246742Y183711D01*
X246713Y18371D01*
X247313Y183797D01*
X247284Y183789D01*
X247259Y183775D01*
X247237Y183755D01*
X247217Y183728D01*
X247201Y183694D01*
X247187Y183655D01*
X247182Y18363D01*
X247271Y183657D01*
X247388Y18372D01*
X24749Y183803D01*
X247536Y183859D01*
X24755Y183861D01*
X247551Y18386D01*
X247593Y183902D01*
X247587Y183908D01*
X247553Y183932D01*
X247522Y183949D01*
X247496Y183957D01*
X247474Y183958D01*
X247455Y183951D01*
X24744Y183936D01*
X247429Y183913D01*
X247422Y183883D01*
X247523Y18454D01*
X247542Y184494D01*
X247587Y184406D01*
X247611Y184364D01*
X247665Y184283D01*
X247685Y184257D01*
X247687Y18428D01*
X247675Y184412D01*
X247636Y184538D01*
X247619Y184571D01*
X247645Y184613D01*
X247753D01*
X248273Y184093D01*
D02*
G37*
G36*
X20293Y16236D02*
X203035Y162274D01*
X203155Y16221D01*
X203285Y162171D01*
X20342Y162158D01*
X206964D01*
X206977Y162132D01*
X206983Y162108D01*
X206943Y162047D01*
X206928Y16197D01*
X206938Y161917D01*
X20706Y16204D01*
X20713Y16197D01*
X2072Y16204D01*
X207322Y161917D01*
X207332Y16197D01*
X207317Y162047D01*
X207277Y162108D01*
X207283Y162132D01*
X207296Y162158D01*
X217442D01*
X217457Y162108D01*
X217454Y162106D01*
X21741Y16204D01*
X217395Y161963D01*
X217405Y16191D01*
X217528Y162032D01*
X217597Y161963D01*
X217667Y162032D01*
X217789Y16191D01*
X2178Y161963D01*
X217784Y16204D01*
X21774Y162106D01*
X217737Y162108D01*
X217753Y162158D01*
X221654D01*
X221667Y162132D01*
X221673Y162108D01*
X221633Y162047D01*
X221618Y16197D01*
X221628Y161917D01*
X22175Y16204D01*
X22182Y16197D01*
X22189Y16204D01*
X222012Y161917D01*
X222022Y16197D01*
X222007Y162047D01*
X221967Y162108D01*
X221973Y162132D01*
X221986Y162158D01*
X222919D01*
X222941Y162113D01*
X2229Y162059D01*
X222845Y161927D01*
X222826Y161785D01*
Y152033D01*
X222587D01*
Y150261D01*
X222826D01*
Y150064D01*
X222587D01*
Y148578D01*
X221946D01*
X2219Y148586D01*
X2219Y148628D01*
Y149631D01*
X221476Y149207D01*
X221406Y149277D01*
X221337Y149207D01*
X220912Y149631D01*
Y148628D01*
X220912Y148586D01*
X220866Y148578D01*
X218343D01*
Y150064D01*
X218054D01*
Y150261D01*
X218343D01*
Y152033D01*
X218112D01*
Y153593D01*
X218117Y153606D01*
X218136Y15375D01*
X218117Y153894D01*
X218061Y154028D01*
X217973Y154143D01*
X217858Y154231D01*
X217724Y154287D01*
X21758Y154306D01*
X217436Y154287D01*
X217302Y154231D01*
X217187Y154143D01*
X217163Y154119D01*
X217074Y154004D01*
X217019Y15387D01*
X217Y153726D01*
Y152033D01*
X216768D01*
Y150261D01*
X217058D01*
Y150064D01*
X216768D01*
Y148578D01*
X216375D01*
Y150064D01*
X216085D01*
Y150261D01*
X216375D01*
Y152033D01*
X216143D01*
Y153653D01*
X216156Y15375D01*
X216137Y153894D01*
X216081Y154028D01*
X215993Y154143D01*
X215878Y154231D01*
X215744Y154287D01*
X2156Y154306D01*
X215456Y154287D01*
X215322Y154231D01*
X215207Y154143D01*
X215194Y15413D01*
X215106Y154015D01*
X21505Y153881D01*
X215031Y153737D01*
Y152033D01*
X2148D01*
Y150261D01*
X215089D01*
Y150064D01*
X2148D01*
Y148578D01*
X214406D01*
Y150064D01*
X214117D01*
Y150261D01*
X214406D01*
Y152033D01*
X214175D01*
Y153741D01*
X214156Y153885D01*
X2141Y154019D01*
X214012Y154134D01*
X214003Y154143D01*
X213888Y154231D01*
X213754Y154287D01*
X21361Y154306D01*
X213466Y154287D01*
X213332Y154231D01*
X213217Y154143D01*
X213129Y154028D01*
X213073Y153894D01*
X213054Y15375D01*
X213063Y153684D01*
Y152033D01*
X212831D01*
Y150261D01*
X213121D01*
Y150064D01*
X212831D01*
Y148578D01*
X212438D01*
Y150064D01*
X212206D01*
Y150261D01*
X212438D01*
Y152033D01*
X212206D01*
Y15375D01*
X212187Y153894D01*
X212132Y154028D01*
X212043Y154143D01*
X211928Y154232D01*
X211794Y154287D01*
X21165Y154306D01*
X211506Y154287D01*
X211372Y154232D01*
X211257Y154143D01*
X211169Y154028D01*
X211113Y153894D01*
X211094Y15375D01*
Y152033D01*
X210863D01*
Y150261D01*
X211094D01*
Y150064D01*
X210863D01*
Y148578D01*
X210469D01*
Y150064D01*
X21018D01*
Y150261D01*
X210469D01*
Y152033D01*
X210238D01*
Y153718D01*
Y153792D01*
X210219Y153936D01*
X210163Y15407D01*
X210075Y154185D01*
X20996Y154273D01*
X209826Y154329D01*
X209682Y154348D01*
X209538Y154329D01*
X209404Y154273D01*
X209289Y154185D01*
X2092Y15407D01*
X209145Y153936D01*
X209126Y153792D01*
Y153718D01*
Y152033D01*
X208894D01*
Y150261D01*
X209184D01*
Y150064D01*
X208894D01*
Y148578D01*
X208501D01*
Y150064D01*
X208211D01*
Y150261D01*
X208501D01*
Y152033D01*
X208269D01*
Y153713D01*
X20825Y153857D01*
X208195Y153991D01*
X208106Y154106D01*
X207991Y154195D01*
X207857Y15425D01*
X207713Y154269D01*
X207569Y15425D01*
X207435Y154195D01*
X20732Y154106D01*
X207232Y153991D01*
X207176Y153857D01*
X207157Y153713D01*
X207157Y153713D01*
Y152033D01*
X206926D01*
Y150261D01*
X207215D01*
Y150064D01*
X206926D01*
Y148578D01*
X206532D01*
Y150064D01*
X206243D01*
Y150261D01*
X206532D01*
Y152033D01*
X206301D01*
Y153709D01*
X206306Y15375D01*
X206287Y153894D01*
X206231Y154028D01*
X206143Y154143D01*
X206028Y154231D01*
X205894Y154287D01*
X20575Y154306D01*
X205606Y154287D01*
X205472Y154231D01*
X205357Y154143D01*
X205352Y154138D01*
X205263Y154023D01*
X205208Y153889D01*
X205189Y153745D01*
Y152033D01*
X204957D01*
Y150261D01*
X205247D01*
Y150064D01*
X204957D01*
Y148578D01*
X204564D01*
Y150064D01*
X204274D01*
Y150261D01*
X204564D01*
Y152033D01*
X204332D01*
Y153734D01*
X204313Y153878D01*
X204258Y154012D01*
X204169Y154127D01*
X204153Y154143D01*
X204038Y154231D01*
X203904Y154287D01*
X20376Y154306D01*
X203616Y154287D01*
X203482Y154231D01*
X203367Y154143D01*
X203279Y154028D01*
X203223Y153894D01*
X203204Y15375D01*
X20322Y153627D01*
Y152033D01*
X202989D01*
Y150261D01*
X203278D01*
Y150064D01*
X202989D01*
Y148578D01*
X20133D01*
Y163896D01*
X201376Y163915D01*
X20293Y16236D01*
D02*
G37*
G36*
X224388Y161593D02*
Y14925D01*
X224401Y149115D01*
X22444Y148985D01*
X224504Y148865D01*
X22459Y14876D01*
X224727Y148624D01*
X224708Y148578D01*
X224162D01*
Y150064D01*
X223923D01*
Y150261D01*
X224162D01*
Y152033D01*
X223923D01*
Y161652D01*
X22393Y161668D01*
X223948Y16181D01*
X22393Y161952D01*
X223909Y162001D01*
X223952Y162029D01*
X224388Y161593D01*
D02*
G37*
G36*
X227544Y14913D02*
X227562Y149115D01*
X227582Y149101D01*
X227603Y149089D01*
X227624Y149078D01*
X227647Y149068D01*
X227671Y14906D01*
X227696Y149053D01*
X227721Y149047D01*
X227748Y149043D01*
X227417Y148712D01*
X227413Y148739D01*
X227407Y148764D01*
X2274Y148789D01*
X227392Y148813D01*
X227383Y148836D01*
X227371Y148857D01*
X227359Y148878D01*
X227345Y148898D01*
X22733Y148916D01*
X227314Y148934D01*
X227526Y149146D01*
X227544Y14913D01*
D02*
G37*
G36*
X25561Y185501D02*
Y183827D01*
X255564Y183808D01*
X254445Y184926D01*
X254464Y184973D01*
X255024D01*
X25556Y185508D01*
X25561Y185501D01*
D02*
G37*
G36*
X253475Y150321D02*
X2534Y150246D01*
Y149163D01*
X253936Y148628D01*
X253928Y148578D01*
X251362D01*
X251343Y148624D01*
X253087Y150368D01*
X253456D01*
X253475Y150321D01*
D02*
G37*
G36*
X244504Y18643D02*
X244521Y186302D01*
X24457Y186182D01*
X244649Y186079D01*
X244719Y186026D01*
X244722Y185976D01*
X244401Y185655D01*
X244326Y185556D01*
X244278Y185442D01*
X244262Y185318D01*
Y184694D01*
X244212Y184676D01*
X244203Y184686D01*
X243726Y184209D01*
X244203Y183732D01*
X244212Y183743D01*
X244262Y183725D01*
Y182457D01*
X244212Y182439D01*
X244203Y18245D01*
X243726Y181973D01*
X244203Y181496D01*
X244212Y181506D01*
X244262Y181489D01*
Y177566D01*
X243363Y176667D01*
X243316Y176606D01*
X243294Y176606D01*
X243147Y17646D01*
X243025Y176338D01*
X243033Y176337D01*
X243057Y176292D01*
X243049Y176272D01*
X243037Y176257D01*
X24299Y176142D01*
X242973Y176019D01*
Y169023D01*
X242872Y169009D01*
X242864Y169007D01*
X242681D01*
X242656Y169057D01*
X242687Y169103D01*
X242702Y16918D01*
X242692Y169233D01*
X24257Y16911D01*
X24243Y16925D01*
X242553Y169372D01*
X2425Y169382D01*
X242423Y169367D01*
X242404Y169355D01*
X242354Y169381D01*
Y169958D01*
X24237Y169997D01*
X242387Y17012D01*
Y175724D01*
X24237Y175847D01*
X242354Y175886D01*
Y181316D01*
X242389Y181402D01*
X242392Y18142D01*
X242513Y181432D01*
X242532Y181438D01*
X243018D01*
X243033Y181419D01*
X243152Y181322D01*
X243287Y18125D01*
X243321Y181239D01*
X243319Y181241D01*
X243277Y181301D01*
X243228Y181363D01*
X243173Y181425D01*
X243111Y181488D01*
X243932D01*
X243517Y181903D01*
X243587Y181973D01*
X243517Y182043D01*
X243932Y182458D01*
X243111D01*
X243173Y182521D01*
X243277Y182645D01*
X243319Y182705D01*
X243321Y182706D01*
X243287Y182696D01*
X243152Y182624D01*
X243115Y182594D01*
X24307Y182616D01*
Y183567D01*
X243115Y183588D01*
X243152Y183558D01*
X243287Y183486D01*
X243321Y183476D01*
X243319Y183478D01*
X243277Y183538D01*
X243228Y183599D01*
X243173Y183661D01*
X243111Y183724D01*
X243932D01*
X243517Y18414D01*
X243587Y184209D01*
X243517Y184279D01*
X244064Y184826D01*
X244022Y18486D01*
X243886Y184932D01*
X243739Y184977D01*
X243587Y184992D01*
X243434Y184977D01*
X243287Y184932D01*
X243152Y18486D01*
X243115Y18483D01*
X24307Y184852D01*
Y186437D01*
X244497D01*
X244504Y18643D01*
D02*
G37*
G36*
X217934Y185257D02*
X217939Y185206D01*
X217946Y185161D01*
X217957Y185121D01*
X21797Y185088D01*
X217987Y185061D01*
X218006Y18504D01*
X218029Y185025D01*
X218054Y185016D01*
X218083Y185013D01*
X217483D01*
X217511Y185016D01*
X217537Y185025D01*
X217559Y18504D01*
X217579Y185061D01*
X217595Y185088D01*
X217609Y185121D01*
X217619Y185161D01*
X217627Y185206D01*
X217631Y185257D01*
X217633Y185314D01*
X217933D01*
X217934Y185257D01*
D02*
G37*
G36*
X221871D02*
X221876Y185206D01*
X221883Y185161D01*
X221894Y185121D01*
X221907Y185088D01*
X221924Y185061D01*
X221943Y18504D01*
X221966Y185025D01*
X221991Y185016D01*
X22202Y185013D01*
X22142D01*
X221448Y185016D01*
X221474Y185025D01*
X221496Y18504D01*
X221516Y185061D01*
X221532Y185088D01*
X221546Y185121D01*
X221556Y185161D01*
X221564Y185206D01*
X221568Y185257D01*
X22157Y185314D01*
X22187D01*
X221871Y185257D01*
D02*
G37*
G36*
X200218Y185257D02*
X200222Y185206D01*
X20023Y185161D01*
X20024Y185121D01*
X200254Y185088D01*
X20027Y185061D01*
X20029Y18504D01*
X200312Y185025D01*
X200338Y185016D01*
X200366Y185013D01*
X199766D01*
X199795Y185016D01*
X19982Y185025D01*
X199843Y18504D01*
X199862Y185061D01*
X199879Y185088D01*
X199892Y185121D01*
X199903Y185161D01*
X19991Y185206D01*
X199915Y185257D01*
X199916Y185314D01*
X200216D01*
X200218Y185257D01*
D02*
G37*
G36*
X208092Y185257D02*
X208096Y185206D01*
X208104Y185161D01*
X208114Y185121D01*
X208128Y185088D01*
X208144Y185061D01*
X208164Y18504D01*
X208186Y185025D01*
X208212Y185016D01*
X20824Y185013D01*
X20764D01*
X207669Y185016D01*
X207694Y185025D01*
X207717Y18504D01*
X207736Y185061D01*
X207753Y185088D01*
X207766Y185121D01*
X207777Y185161D01*
X207784Y185206D01*
X207789Y185257D01*
X20779Y185314D01*
X20809D01*
X208092Y185257D01*
D02*
G37*
G36*
X252413Y185D02*
X252394Y184954D01*
X252187D01*
X252055Y184941D01*
X251929Y184903D01*
X251812Y184841D01*
X25172Y184765D01*
X25167Y184781D01*
Y185678D01*
X251716Y185697D01*
X252413Y185D01*
D02*
G37*
G36*
X194628Y186038D02*
X194626Y186021D01*
X194627Y186015D01*
X194626Y186009D01*
X194628Y18594D01*
Y185626D01*
X194637D01*
X194641Y185479D01*
X194628Y185429D01*
X194628D01*
Y185051D01*
X194626Y185034D01*
X194626Y185031D01*
X194626Y185027D01*
X194628Y185013D01*
Y184069D01*
X194626Y184052D01*
X194627Y184047D01*
X194626Y184041D01*
X194628Y183971D01*
Y183657D01*
X194637D01*
X194643Y183454D01*
Y179755D01*
X194656Y17962D01*
X194696Y17949D01*
X19476Y17937D01*
X194816Y179301D01*
X194846Y179203D01*
X19491Y179083D01*
X194997Y178977D01*
Y178963D01*
X19491Y178857D01*
X194846Y178737D01*
X194806Y178606D01*
X194793Y17847D01*
X194806Y178334D01*
X194827Y178264D01*
X194829Y178252D01*
X194837Y178234D01*
X194846Y178203D01*
X194851Y178194D01*
X194854Y178185D01*
X194868Y178156D01*
X194876Y178134D01*
X194884Y178106D01*
X194905Y178003D01*
X194909Y177972D01*
X194894Y177877D01*
X194885Y177839D01*
X194876Y177806D01*
X194868Y177784D01*
X194854Y177755D01*
X194851Y177746D01*
X194846Y177737D01*
X194837Y177706D01*
X194829Y177688D01*
X194827Y177676D01*
X194806Y177606D01*
X194793Y17747D01*
X194806Y177334D01*
X194827Y177264D01*
X194829Y177252D01*
X194837Y177234D01*
X194846Y177203D01*
X194851Y177194D01*
X194854Y177185D01*
X194868Y177156D01*
X194876Y177134D01*
X194884Y177106D01*
X194905Y177003D01*
X194911Y176954D01*
X194927Y176714D01*
X194928Y176625D01*
X194928Y176624D01*
Y17065D01*
X194941Y170515D01*
X19498Y170385D01*
X195044Y170265D01*
X19513Y17016D01*
X197375Y167916D01*
X197356Y16787D01*
X192531D01*
X192515Y16789D01*
X19254Y16794D01*
X19259Y16794D01*
X192513Y167945D01*
X192513Y167945D01*
X192438Y16795D01*
X192392Y16794D01*
X19193D01*
X19193Y150581D01*
X191716Y150368D01*
X19167Y150387D01*
Y185521D01*
X19172Y185528D01*
X192256Y184993D01*
X193339D01*
X19388Y185534D01*
Y186617D01*
X193344Y187152D01*
X193352Y187202D01*
X194628D01*
Y186038D01*
D02*
G37*
G36*
X204155Y185257D02*
X204159Y185206D01*
X204167Y185161D01*
X204177Y185121D01*
X204191Y185088D01*
X204207Y185061D01*
X204227Y18504D01*
X204249Y185025D01*
X204275Y185016D01*
X204303Y185013D01*
X203703D01*
X203732Y185016D01*
X203757Y185025D01*
X20378Y18504D01*
X203799Y185061D01*
X203816Y185088D01*
X203829Y185121D01*
X20384Y185161D01*
X203847Y185206D01*
X203852Y185257D01*
X203853Y185314D01*
X204153D01*
X204155Y185257D01*
D02*
G37*
G36*
X229841Y184029D02*
X229816Y18402D01*
X229793Y184005D01*
X229774Y183984D01*
X229757Y183957D01*
X229744Y183924D01*
X229734Y183885D01*
X229726Y18384D01*
X229722Y183789D01*
X22972Y183732D01*
X22942D01*
X229419Y183789D01*
X229414Y18384D01*
X229407Y183885D01*
X229396Y183924D01*
X229382Y183957D01*
X229366Y183984D01*
X229347Y184005D01*
X229324Y18402D01*
X229298Y184029D01*
X22927Y184032D01*
X22987D01*
X229841Y184029D01*
D02*
G37*
G36*
X200338D02*
X200312Y18402D01*
X20029Y184005D01*
X20027Y183984D01*
X200254Y183957D01*
X20024Y183924D01*
X20023Y183885D01*
X200222Y18384D01*
X200218Y183789D01*
X200216Y183732D01*
X199916D01*
X199915Y183789D01*
X19991Y18384D01*
X199903Y183885D01*
X199892Y183924D01*
X199879Y183957D01*
X199862Y183984D01*
X199843Y184005D01*
X19982Y18402D01*
X199795Y184029D01*
X199766Y184032D01*
X200366D01*
X200338Y184029D01*
D02*
G37*
G36*
X202306D02*
X202281Y18402D01*
X202258Y184005D01*
X202239Y183984D01*
X202222Y183957D01*
X202209Y183924D01*
X202198Y183885D01*
X202191Y18384D01*
X202186Y183789D01*
X202185Y183732D01*
X201885D01*
X201883Y183789D01*
X201879Y18384D01*
X201871Y183885D01*
X201861Y183924D01*
X201847Y183957D01*
X201831Y183984D01*
X201811Y184005D01*
X201789Y18402D01*
X201763Y184029D01*
X201735Y184032D01*
X202335D01*
X202306Y184029D01*
D02*
G37*
G36*
X206243D02*
X206218Y18402D01*
X206195Y184005D01*
X206176Y183984D01*
X206159Y183957D01*
X206146Y183924D01*
X206135Y183885D01*
X206128Y18384D01*
X206123Y183789D01*
X206122Y183732D01*
X205822D01*
X20582Y183789D01*
X205816Y18384D01*
X205808Y183885D01*
X205798Y183924D01*
X205784Y183957D01*
X205768Y183984D01*
X205748Y184005D01*
X205726Y18402D01*
X2057Y184029D01*
X205672Y184032D01*
X206272D01*
X206243Y184029D01*
D02*
G37*
G36*
X221991Y184029D02*
X221966Y18402D01*
X221943Y184005D01*
X221924Y183984D01*
X221907Y183957D01*
X221894Y183924D01*
X221883Y183885D01*
X221876Y18384D01*
X221871Y183789D01*
X22187Y183732D01*
X22157D01*
X221568Y183789D01*
X221564Y18384D01*
X221556Y183885D01*
X221546Y183924D01*
X221532Y183957D01*
X221516Y183984D01*
X221496Y184005D01*
X221474Y18402D01*
X221448Y184029D01*
X22142Y184032D01*
X22202D01*
X221991Y184029D01*
D02*
G37*
G36*
X204275D02*
X204249Y18402D01*
X204227Y184005D01*
X204207Y183984D01*
X204191Y183957D01*
X204177Y183924D01*
X204167Y183885D01*
X204159Y18384D01*
X204155Y183789D01*
X204153Y183732D01*
X203853D01*
X203852Y183789D01*
X203847Y18384D01*
X20384Y183885D01*
X203829Y183924D01*
X203816Y183957D01*
X203799Y183984D01*
X20378Y184005D01*
X203757Y18402D01*
X203732Y184029D01*
X203703Y184032D01*
X204303D01*
X204275Y184029D01*
D02*
G37*
G36*
X208212D02*
X208186Y18402D01*
X208164Y184005D01*
X208144Y183984D01*
X208128Y183957D01*
X208114Y183924D01*
X208104Y183885D01*
X208096Y18384D01*
X208092Y183789D01*
X20809Y183732D01*
X20779D01*
X207789Y183789D01*
X207784Y18384D01*
X207777Y183885D01*
X207766Y183924D01*
X207753Y183957D01*
X207736Y183984D01*
X207717Y184005D01*
X207694Y18402D01*
X207669Y184029D01*
X20764Y184032D01*
X20824D01*
X208212Y184029D01*
D02*
G37*
G36*
X218054D02*
X218029Y18402D01*
X218006Y184005D01*
X217987Y183984D01*
X21797Y183957D01*
X217957Y183924D01*
X217946Y183885D01*
X217939Y18384D01*
X217934Y183789D01*
X217933Y183732D01*
X217633D01*
X217631Y183789D01*
X217627Y18384D01*
X217619Y183885D01*
X217609Y183924D01*
X217595Y183957D01*
X217579Y183984D01*
X217559Y184005D01*
X217537Y18402D01*
X217511Y184029D01*
X217483Y184032D01*
X218083D01*
X218054Y184029D01*
D02*
G37*
G36*
X21018Y184029D02*
X210155Y18402D01*
X210132Y184005D01*
X210113Y183984D01*
X210096Y183957D01*
X210083Y183924D01*
X210072Y183885D01*
X210065Y18384D01*
X21006Y183789D01*
X210059Y183732D01*
X209759D01*
X209757Y183789D01*
X209753Y18384D01*
X209745Y183885D01*
X209735Y183924D01*
X209721Y183957D01*
X209705Y183984D01*
X209685Y184005D01*
X209663Y18402D01*
X209637Y184029D01*
X209609Y184032D01*
X210209D01*
X21018Y184029D01*
D02*
G37*
G36*
X22396D02*
X223934Y18402D01*
X223912Y184005D01*
X223892Y183984D01*
X223876Y183957D01*
X223862Y183924D01*
X223852Y183885D01*
X223844Y18384D01*
X22384Y183789D01*
X223838Y183732D01*
X223538D01*
X223537Y183789D01*
X223532Y18384D01*
X223525Y183885D01*
X223514Y183924D01*
X223501Y183957D01*
X223484Y183984D01*
X223465Y184005D01*
X223442Y18402D01*
X223417Y184029D01*
X223388Y184032D01*
X223988D01*
X22396Y184029D01*
D02*
G37*
G36*
X225928D02*
X225903Y18402D01*
X22588Y184005D01*
X225861Y183984D01*
X225844Y183957D01*
X225831Y183924D01*
X22582Y183885D01*
X225813Y18384D01*
X225808Y183789D01*
X225807Y183732D01*
X225507D01*
X225505Y183789D01*
X225501Y18384D01*
X225493Y183885D01*
X225483Y183924D01*
X225469Y183957D01*
X225453Y183984D01*
X225433Y184005D01*
X225411Y18402D01*
X225385Y184029D01*
X225357Y184032D01*
X225957D01*
X225928Y184029D01*
D02*
G37*
G36*
X227897D02*
X227871Y18402D01*
X227849Y184005D01*
X227829Y183984D01*
X227813Y183957D01*
X227799Y183924D01*
X227789Y183885D01*
X227781Y18384D01*
X227777Y183789D01*
X227775Y183732D01*
X227475D01*
X227474Y183789D01*
X227469Y18384D01*
X227462Y183885D01*
X227451Y183924D01*
X227438Y183957D01*
X227421Y183984D01*
X227402Y184005D01*
X227379Y18402D01*
X227354Y184029D01*
X227325Y184032D01*
X227925D01*
X227897Y184029D01*
D02*
G37*
G36*
X220023D02*
X219997Y18402D01*
X219975Y184005D01*
X219955Y183984D01*
X219939Y183957D01*
X219925Y183924D01*
X219915Y183885D01*
X219907Y18384D01*
X219903Y183789D01*
X219901Y183732D01*
X219601D01*
X2196Y183789D01*
X219595Y18384D01*
X219588Y183885D01*
X219577Y183924D01*
X219564Y183957D01*
X219547Y183984D01*
X219528Y184005D01*
X219505Y18402D01*
X21948Y184029D01*
X219451Y184032D01*
X220051D01*
X220023Y184029D01*
D02*
G37*
G36*
X212149D02*
X212123Y18402D01*
X212101Y184005D01*
X212081Y183984D01*
X212065Y183957D01*
X212051Y183924D01*
X212041Y183885D01*
X212033Y18384D01*
X212029Y183789D01*
X212027Y183732D01*
X211727D01*
X211726Y183789D01*
X211721Y18384D01*
X211714Y183885D01*
X211703Y183924D01*
X21169Y183957D01*
X211673Y183984D01*
X211654Y184005D01*
X211631Y18402D01*
X211606Y184029D01*
X211577Y184032D01*
X212177D01*
X212149Y184029D01*
D02*
G37*
G36*
X214117D02*
X214092Y18402D01*
X214069Y184005D01*
X21405Y183984D01*
X214033Y183957D01*
X21402Y183924D01*
X214009Y183885D01*
X214002Y18384D01*
X213997Y183789D01*
X213996Y183732D01*
X213696D01*
X213694Y183789D01*
X21369Y18384D01*
X213682Y183885D01*
X213672Y183924D01*
X213658Y183957D01*
X213642Y183984D01*
X213622Y184005D01*
X2136Y18402D01*
X213574Y184029D01*
X213546Y184032D01*
X214146D01*
X214117Y184029D01*
D02*
G37*
G36*
X216086D02*
X21606Y18402D01*
X216038Y184005D01*
X216018Y183984D01*
X216002Y183957D01*
X215988Y183924D01*
X215978Y183885D01*
X21597Y18384D01*
X215966Y183789D01*
X215964Y183732D01*
X215664D01*
X215663Y183789D01*
X215658Y18384D01*
X215651Y183885D01*
X21564Y183924D01*
X215627Y183957D01*
X21561Y183984D01*
X215591Y184005D01*
X215568Y18402D01*
X215543Y184029D01*
X215514Y184032D01*
X216114D01*
X216086Y184029D01*
D02*
G37*
G36*
X21018Y185998D02*
X210155Y185989D01*
X210132Y185974D01*
X210113Y185953D01*
X210096Y185926D01*
X210083Y185893D01*
X210072Y185854D01*
X210065Y185809D01*
X21006Y185758D01*
X210059Y185701D01*
X209759D01*
X209757Y185758D01*
X209753Y185809D01*
X209745Y185854D01*
X209735Y185893D01*
X209721Y185926D01*
X209705Y185953D01*
X209685Y185974D01*
X209663Y185989D01*
X209637Y185998D01*
X209609Y186001D01*
X210209D01*
X21018Y185998D01*
D02*
G37*
G36*
X212149D02*
X212123Y185989D01*
X212101Y185974D01*
X212081Y185953D01*
X212065Y185926D01*
X212051Y185893D01*
X212041Y185854D01*
X212033Y185809D01*
X212029Y185758D01*
X212027Y185701D01*
X211727D01*
X211726Y185758D01*
X211721Y185809D01*
X211714Y185854D01*
X211703Y185893D01*
X21169Y185926D01*
X211673Y185953D01*
X211654Y185974D01*
X211631Y185989D01*
X211606Y185998D01*
X211577Y186001D01*
X212177D01*
X212149Y185998D01*
D02*
G37*
G36*
X214117D02*
X214092Y185989D01*
X214069Y185974D01*
X21405Y185953D01*
X214033Y185926D01*
X21402Y185893D01*
X214009Y185854D01*
X214002Y185809D01*
X213997Y185758D01*
X213996Y185701D01*
X213696D01*
X213694Y185758D01*
X21369Y185809D01*
X213682Y185854D01*
X213672Y185893D01*
X213658Y185926D01*
X213642Y185953D01*
X213622Y185974D01*
X2136Y185989D01*
X213574Y185998D01*
X213546Y186001D01*
X214146D01*
X214117Y185998D01*
D02*
G37*
G36*
X208212D02*
X208186Y185989D01*
X208164Y185974D01*
X208144Y185953D01*
X208128Y185926D01*
X208114Y185893D01*
X208104Y185854D01*
X208096Y185809D01*
X208092Y185758D01*
X20809Y185701D01*
X20779D01*
X207789Y185758D01*
X207784Y185809D01*
X207777Y185854D01*
X207766Y185893D01*
X207753Y185926D01*
X207736Y185953D01*
X207717Y185974D01*
X207694Y185989D01*
X207669Y185998D01*
X20764Y186001D01*
X20824D01*
X208212Y185998D01*
D02*
G37*
G36*
X200338D02*
X200312Y185989D01*
X20029Y185974D01*
X20027Y185953D01*
X200254Y185926D01*
X20024Y185893D01*
X20023Y185854D01*
X200222Y185809D01*
X200218Y185758D01*
X200216Y185701D01*
X199916D01*
X199915Y185758D01*
X19991Y185809D01*
X199903Y185854D01*
X199892Y185893D01*
X199879Y185926D01*
X199862Y185953D01*
X199843Y185974D01*
X19982Y185989D01*
X199795Y185998D01*
X199766Y186001D01*
X200366D01*
X200338Y185998D01*
D02*
G37*
G36*
X202306D02*
X202281Y185989D01*
X202258Y185974D01*
X202239Y185953D01*
X202222Y185926D01*
X202209Y185893D01*
X202198Y185854D01*
X202191Y185809D01*
X202186Y185758D01*
X202185Y185701D01*
X201885D01*
X201883Y185758D01*
X201879Y185809D01*
X201871Y185854D01*
X201861Y185893D01*
X201847Y185926D01*
X201831Y185953D01*
X201811Y185974D01*
X201789Y185989D01*
X201763Y185998D01*
X201735Y186001D01*
X202335D01*
X202306Y185998D01*
D02*
G37*
G36*
X204275D02*
X204249Y185989D01*
X204227Y185974D01*
X204207Y185953D01*
X204191Y185926D01*
X204177Y185893D01*
X204167Y185854D01*
X204159Y185809D01*
X204155Y185758D01*
X204153Y185701D01*
X203853D01*
X203852Y185758D01*
X203847Y185809D01*
X20384Y185854D01*
X203829Y185893D01*
X203816Y185926D01*
X203799Y185953D01*
X20378Y185974D01*
X203757Y185989D01*
X203732Y185998D01*
X203703Y186001D01*
X204303D01*
X204275Y185998D01*
D02*
G37*
G36*
X216086D02*
X21606Y185989D01*
X216038Y185974D01*
X216018Y185953D01*
X216002Y185926D01*
X215988Y185893D01*
X215978Y185854D01*
X21597Y185809D01*
X215966Y185758D01*
X215964Y185701D01*
X215664D01*
X215663Y185758D01*
X215658Y185809D01*
X215651Y185854D01*
X21564Y185893D01*
X215627Y185926D01*
X21561Y185953D01*
X215591Y185974D01*
X215568Y185989D01*
X215543Y185998D01*
X215514Y186001D01*
X216114D01*
X216086Y185998D01*
D02*
G37*
G36*
X227897D02*
X227871Y185989D01*
X227849Y185974D01*
X227829Y185953D01*
X227813Y185926D01*
X227799Y185893D01*
X227789Y185854D01*
X227781Y185809D01*
X227777Y185758D01*
X227775Y185701D01*
X227475D01*
X227474Y185758D01*
X227469Y185809D01*
X227462Y185854D01*
X227451Y185893D01*
X227438Y185926D01*
X227421Y185953D01*
X227402Y185974D01*
X227379Y185989D01*
X227354Y185998D01*
X227325Y186001D01*
X227925D01*
X227897Y185998D01*
D02*
G37*
G36*
X229865D02*
X22984Y185989D01*
X229817Y185974D01*
X229798Y185953D01*
X229781Y185926D01*
X229768Y185893D01*
X229757Y185854D01*
X22975Y185809D01*
X229745Y185758D01*
X229744Y185701D01*
X229444D01*
X229442Y185758D01*
X229438Y185809D01*
X22943Y185854D01*
X22942Y185893D01*
X229406Y185926D01*
X22939Y185953D01*
X22937Y185974D01*
X229348Y185989D01*
X229322Y185998D01*
X229294Y186001D01*
X229894D01*
X229865Y185998D01*
D02*
G37*
G36*
X25561Y18661D02*
X25556Y186602D01*
X255024Y187138D01*
X253941D01*
X2534Y186597D01*
Y186037D01*
X253354Y186018D01*
X252215Y187156D01*
X252235Y187202D01*
X25561D01*
Y18661D01*
D02*
G37*
G36*
X225928Y185998D02*
X225903Y185989D01*
X22588Y185974D01*
X225861Y185953D01*
X225844Y185926D01*
X225831Y185893D01*
X22582Y185854D01*
X225813Y185809D01*
X225808Y185758D01*
X225807Y185701D01*
X225507D01*
X225505Y185758D01*
X225501Y185809D01*
X225493Y185854D01*
X225483Y185893D01*
X225469Y185926D01*
X225453Y185953D01*
X225433Y185974D01*
X225411Y185989D01*
X225385Y185998D01*
X225357Y186001D01*
X225957D01*
X225928Y185998D01*
D02*
G37*
G36*
X218054D02*
X218029Y185989D01*
X218006Y185974D01*
X217987Y185953D01*
X21797Y185926D01*
X217957Y185893D01*
X217946Y185854D01*
X217939Y185809D01*
X217934Y185758D01*
X217933Y185701D01*
X217633D01*
X217631Y185758D01*
X217627Y185809D01*
X217619Y185854D01*
X217609Y185893D01*
X217595Y185926D01*
X217579Y185953D01*
X217559Y185974D01*
X217537Y185989D01*
X217511Y185998D01*
X217483Y186001D01*
X218083D01*
X218054Y185998D01*
D02*
G37*
G36*
X221991D02*
X221966Y185989D01*
X221943Y185974D01*
X221924Y185953D01*
X221907Y185926D01*
X221894Y185893D01*
X221883Y185854D01*
X221876Y185809D01*
X221871Y185758D01*
X22187Y185701D01*
X22157D01*
X221568Y185758D01*
X221564Y185809D01*
X221556Y185854D01*
X221546Y185893D01*
X221532Y185926D01*
X221516Y185953D01*
X221496Y185974D01*
X221474Y185989D01*
X221448Y185998D01*
X22142Y186001D01*
X22202D01*
X221991Y185998D01*
D02*
G37*
G36*
X22396D02*
X223934Y185989D01*
X223912Y185974D01*
X223892Y185953D01*
X223876Y185926D01*
X223862Y185893D01*
X223852Y185854D01*
X223844Y185809D01*
X22384Y185758D01*
X223838Y185701D01*
X223538D01*
X223537Y185758D01*
X223532Y185809D01*
X223525Y185854D01*
X223514Y185893D01*
X223501Y185926D01*
X223484Y185953D01*
X223465Y185974D01*
X223442Y185989D01*
X223417Y185998D01*
X223388Y186001D01*
X223988D01*
X22396Y185998D01*
D02*
G37*
G36*
X220023Y185998D02*
X219997Y185989D01*
X219975Y185974D01*
X219955Y185953D01*
X219939Y185926D01*
X219925Y185893D01*
X219915Y185854D01*
X219907Y185809D01*
X219903Y185758D01*
X219901Y185701D01*
X219601D01*
X2196Y185758D01*
X219595Y185809D01*
X219588Y185854D01*
X219577Y185893D01*
X219564Y185926D01*
X219547Y185953D01*
X219528Y185974D01*
X219505Y185989D01*
X21948Y185998D01*
X219451Y186001D01*
X220051D01*
X220023Y185998D01*
D02*
G37*
G36*
X213997Y185257D02*
X214002Y185206D01*
X214009Y185161D01*
X21402Y185121D01*
X214033Y185088D01*
X21405Y185061D01*
X214069Y18504D01*
X214092Y185025D01*
X214117Y185016D01*
X214146Y185013D01*
X213546D01*
X213574Y185016D01*
X2136Y185025D01*
X213622Y18504D01*
X213642Y185061D01*
X213658Y185088D01*
X213672Y185121D01*
X213682Y185161D01*
X21369Y185206D01*
X213694Y185257D01*
X213696Y185314D01*
X213996D01*
X213997Y185257D01*
D02*
G37*
G36*
X215966D02*
X21597Y185206D01*
X215978Y185161D01*
X215988Y185121D01*
X216002Y185088D01*
X216018Y185061D01*
X216038Y18504D01*
X21606Y185025D01*
X216086Y185016D01*
X216114Y185013D01*
X215514D01*
X215543Y185016D01*
X215568Y185025D01*
X215591Y18504D01*
X21561Y185061D01*
X215627Y185088D01*
X21564Y185121D01*
X215651Y185161D01*
X215658Y185206D01*
X215663Y185257D01*
X215664Y185314D01*
X215964D01*
X215966Y185257D01*
D02*
G37*
G36*
X219903D02*
X219907Y185206D01*
X219915Y185161D01*
X219925Y185121D01*
X219939Y185088D01*
X219955Y185061D01*
X219975Y18504D01*
X219997Y185025D01*
X220023Y185016D01*
X220051Y185013D01*
X219451D01*
X21948Y185016D01*
X219505Y185025D01*
X219528Y18504D01*
X219547Y185061D01*
X219564Y185088D01*
X219577Y185121D01*
X219588Y185161D01*
X219595Y185206D01*
X2196Y185257D01*
X219601Y185314D01*
X219901D01*
X219903Y185257D01*
D02*
G37*
G36*
X212029D02*
X212033Y185206D01*
X212041Y185161D01*
X212051Y185121D01*
X212065Y185088D01*
X212081Y185061D01*
X212101Y18504D01*
X212123Y185025D01*
X212149Y185016D01*
X212177Y185013D01*
X211577D01*
X211606Y185016D01*
X211631Y185025D01*
X211654Y18504D01*
X211673Y185061D01*
X21169Y185088D01*
X211703Y185121D01*
X211714Y185161D01*
X211721Y185206D01*
X211726Y185257D01*
X211727Y185314D01*
X212027D01*
X212029Y185257D01*
D02*
G37*
G36*
X202186D02*
X202191Y185206D01*
X202198Y185161D01*
X202209Y185121D01*
X202222Y185088D01*
X202239Y185061D01*
X202258Y18504D01*
X202281Y185025D01*
X202306Y185016D01*
X202335Y185013D01*
X201735D01*
X201763Y185016D01*
X201789Y185025D01*
X201811Y18504D01*
X201831Y185061D01*
X201847Y185088D01*
X201861Y185121D01*
X201871Y185161D01*
X201879Y185206D01*
X201883Y185257D01*
X201885Y185314D01*
X202185D01*
X202186Y185257D01*
D02*
G37*
G36*
X206123D02*
X206128Y185206D01*
X206135Y185161D01*
X206146Y185121D01*
X206159Y185088D01*
X206176Y185061D01*
X206195Y18504D01*
X206218Y185025D01*
X206243Y185016D01*
X206272Y185013D01*
X205672D01*
X2057Y185016D01*
X205726Y185025D01*
X205748Y18504D01*
X205768Y185061D01*
X205784Y185088D01*
X205798Y185121D01*
X205808Y185161D01*
X205816Y185206D01*
X20582Y185257D01*
X205822Y185314D01*
X206122D01*
X206123Y185257D01*
D02*
G37*
G36*
X21006D02*
X210065Y185206D01*
X210072Y185161D01*
X210083Y185121D01*
X210096Y185088D01*
X210113Y185061D01*
X210132Y18504D01*
X210155Y185025D01*
X21018Y185016D01*
X210209Y185013D01*
X209609D01*
X209637Y185016D01*
X209663Y185025D01*
X209685Y18504D01*
X209705Y185061D01*
X209721Y185088D01*
X209735Y185121D01*
X209745Y185161D01*
X209753Y185206D01*
X209757Y185257D01*
X209759Y185314D01*
X210059D01*
X21006Y185257D01*
D02*
G37*
G36*
X22384D02*
X223844Y185206D01*
X223852Y185161D01*
X223862Y185121D01*
X223876Y185088D01*
X223892Y185061D01*
X223912Y18504D01*
X223934Y185025D01*
X22396Y185016D01*
X223988Y185013D01*
X223388D01*
X223417Y185016D01*
X223442Y185025D01*
X223465Y18504D01*
X223484Y185061D01*
X223501Y185088D01*
X223514Y185121D01*
X223525Y185161D01*
X223532Y185206D01*
X223537Y185257D01*
X223538Y185314D01*
X223838D01*
X22384Y185257D01*
D02*
G37*
G36*
X197743Y186015D02*
X197713Y185997D01*
X197686Y185968D01*
X197663Y185926D01*
X197643Y185873D01*
X197627Y185808D01*
X197615Y185732D01*
X197606Y185643D01*
X197602Y185504D01*
X197615Y185324D01*
X197627Y185247D01*
X197643Y185182D01*
X197663Y185129D01*
X197686Y185087D01*
X197713Y185058D01*
X197743Y18504D01*
X197776Y185034D01*
X196991D01*
X196995Y18504D01*
X196998Y185058D01*
X197Y185087D01*
X197007Y185324D01*
X197008Y185459D01*
X196991Y186021D01*
X197776D01*
X197743Y186015D01*
D02*
G37*
G36*
X233781Y18573D02*
X233753Y185698D01*
X233729Y185666D01*
X233707Y185634D01*
X233689Y185602D01*
X233675Y18557D01*
X233663Y185538D01*
X233655Y185507D01*
X23365Y185475D01*
X233648Y185443D01*
X233452D01*
X23345Y185475D01*
X233445Y185507D01*
X233437Y185538D01*
X233425Y18557D01*
X233411Y185602D01*
X233393Y185634D01*
X233371Y185666D01*
X233347Y185698D01*
X233319Y18573D01*
X233288Y185762D01*
X233813D01*
X233781Y18573D01*
D02*
G37*
G36*
X206243Y185998D02*
X206218Y185989D01*
X206195Y185974D01*
X206176Y185953D01*
X206159Y185926D01*
X206146Y185893D01*
X206135Y185854D01*
X206128Y185809D01*
X206123Y185758D01*
X206122Y185701D01*
X205822D01*
X20582Y185758D01*
X205816Y185809D01*
X205808Y185854D01*
X205798Y185893D01*
X205784Y185926D01*
X205768Y185953D01*
X205748Y185974D01*
X205726Y185989D01*
X2057Y185998D01*
X205672Y186001D01*
X206272D01*
X206243Y185998D01*
D02*
G37*
G36*
X195774Y186015D02*
X195744Y185997D01*
X195717Y185968D01*
X195694Y185926D01*
X195675Y185873D01*
X195659Y185808D01*
X195647Y185732D01*
X195638Y185643D01*
X195633Y185504D01*
X195647Y185324D01*
X195659Y185247D01*
X195675Y185182D01*
X195694Y185129D01*
X195717Y185087D01*
X195744Y185058D01*
X195774Y18504D01*
X195808Y185034D01*
X195023D01*
X195026Y18504D01*
X195029Y185058D01*
X195032Y185087D01*
X195039Y185324D01*
X195039Y18546D01*
X195023Y186021D01*
X195808D01*
X195774Y186015D01*
D02*
G37*
G36*
X225808Y185257D02*
X225813Y185206D01*
X22582Y185161D01*
X225831Y185121D01*
X225844Y185088D01*
X225861Y185061D01*
X22588Y18504D01*
X225903Y185025D01*
X225928Y185016D01*
X225957Y185013D01*
X225357D01*
X225385Y185016D01*
X225411Y185025D01*
X225433Y18504D01*
X225453Y185061D01*
X225469Y185088D01*
X225483Y185121D01*
X225493Y185161D01*
X225501Y185206D01*
X225505Y185257D01*
X225507Y185314D01*
X225807D01*
X225808Y185257D01*
D02*
G37*
G36*
X227777D02*
X227781Y185206D01*
X227789Y185161D01*
X227799Y185121D01*
X227813Y185088D01*
X227829Y185061D01*
X227849Y18504D01*
X227871Y185025D01*
X227897Y185016D01*
X227925Y185013D01*
X227325D01*
X227354Y185016D01*
X227379Y185025D01*
X227402Y18504D01*
X227421Y185061D01*
X227438Y185088D01*
X227451Y185121D01*
X227462Y185161D01*
X227469Y185206D01*
X227474Y185257D01*
X227475Y185314D01*
X227775D01*
X227777Y185257D01*
D02*
G37*
G36*
X229745D02*
X22975Y185206D01*
X229757Y185161D01*
X229768Y185121D01*
X229781Y185088D01*
X229798Y185061D01*
X229817Y18504D01*
X22984Y185025D01*
X229865Y185016D01*
X229894Y185013D01*
X229294D01*
X229322Y185016D01*
X229348Y185025D01*
X22937Y18504D01*
X22939Y185061D01*
X229406Y185088D01*
X22942Y185121D01*
X22943Y185161D01*
X229438Y185206D01*
X229442Y185257D01*
X229444Y185314D01*
X229744D01*
X229745Y185257D01*
D02*
G37*
G36*
X250152Y182057D02*
X250129Y182036D01*
X250092Y181995D01*
X250076Y181974D01*
X250063Y181954D01*
X250053Y181935D01*
X250044Y181915D01*
X250038Y181896D01*
X250035Y181877D01*
X250034Y181858D01*
X249934Y181863D01*
X249933Y181881D01*
X249929Y181899D01*
X249924Y181919D01*
X249916Y181939D01*
X249906Y181959D01*
X249893Y18198D01*
X249879Y182002D01*
X249862Y182025D01*
X249821Y182071D01*
X250152Y182057D01*
D02*
G37*
G36*
X249355Y182047D02*
X24934Y182029D01*
X249327Y182011D01*
X249316Y181992D01*
X249307Y181973D01*
X249299Y181953D01*
X249293Y181933D01*
X249289Y181912D01*
X249286Y18189D01*
X249285Y181868D01*
X249128D01*
X249127Y18189D01*
X249124Y181912D01*
X24912Y181933D01*
X249114Y181953D01*
X249106Y181973D01*
X249096Y181992D01*
X249085Y182011D01*
X249072Y182029D01*
X249057Y182047D01*
X249041Y182064D01*
X249372D01*
X249355Y182047D01*
D02*
G37*
G36*
X252196Y181966D02*
X252192Y181965D01*
X252186Y181962D01*
X25218Y181958D01*
X252172Y181953D01*
X252154Y181938D01*
X252132Y181918D01*
X252105Y181892D01*
X252035Y181963D01*
X252048Y181976D01*
X252096Y18203D01*
X252101Y182037D01*
X252105Y182044D01*
X252107Y182049D01*
X252108Y182054D01*
X252196Y181966D01*
D02*
G37*
G36*
X203957Y150654D02*
X20394Y150648D01*
X203925Y150638D01*
X203912Y150624D01*
X203901Y150606D01*
X203892Y150584D01*
X203885Y150558D01*
X20388Y150528D01*
X203877Y150494D01*
X203876Y150456D01*
X203676D01*
X203675Y150494D01*
X203672Y150528D01*
X203667Y150558D01*
X20366Y150584D01*
X203651Y150606D01*
X20364Y150624D01*
X203627Y150638D01*
X203612Y150648D01*
X203595Y150654D01*
X203576Y150656D01*
X203976D01*
X203957Y150654D01*
D02*
G37*
G36*
X241444Y181657D02*
X241446Y181638D01*
X241447Y181629D01*
X241449Y181622D01*
X241451Y181615D01*
X241454Y181609D01*
X241457Y181603D01*
X24146Y181598D01*
X241464Y181595D01*
X241327Y181586D01*
X24133Y18159D01*
X241333Y181595D01*
X241335Y1816D01*
X241338Y181607D01*
X241339Y181614D01*
X241341Y181621D01*
X241342Y18163D01*
X241344Y181649D01*
X241344Y18166D01*
X241444Y181667D01*
X241444Y181657D01*
D02*
G37*
G36*
X241448Y182052D02*
X241447Y182047D01*
X241446Y182038D01*
X241445Y181994D01*
X241444Y181912D01*
X241594Y181916D01*
X241572Y181892D01*
X241552Y181868D01*
X241535Y181845D01*
X24152Y181821D01*
X241508Y181797D01*
X241497Y181773D01*
X241489Y181749D01*
X241483Y181725D01*
X24148Y181701D01*
X241479Y181677D01*
X241444Y181676D01*
X241444Y181668D01*
X241344D01*
X241343Y181674D01*
X241321Y181673D01*
X24132Y181697D01*
X241317Y181722D01*
X241311Y181746D01*
X241302Y181769D01*
X241292Y181793D01*
X241279Y181816D01*
X241263Y181839D01*
X241248Y181858D01*
X241198Y181911D01*
X241343D01*
X241338Y182055D01*
X241449D01*
X241448Y182052D01*
D02*
G37*
G36*
X24078Y181888D02*
X24076Y181865D01*
X240742Y181842D01*
X240727Y181818D01*
X240714Y181795D01*
X240704Y181771D01*
X240696Y181747D01*
X24069Y181723D01*
X240686Y181699D01*
X240685Y181675D01*
X240528D01*
X240526Y181699D01*
X240523Y181723D01*
X240517Y181747D01*
X240509Y181771D01*
X240498Y181795D01*
X240485Y181818D01*
X24047Y181842D01*
X240453Y181865D01*
X240433Y181888D01*
X240411Y181911D01*
X240802D01*
X24078Y181888D01*
D02*
G37*
G36*
X223646Y150653D02*
X223621Y150644D01*
X223598Y150629D01*
X223579Y150608D01*
X223562Y150581D01*
X223549Y150548D01*
X223538Y150509D01*
X223531Y150464D01*
X223526Y150413D01*
X223525Y150356D01*
X223225D01*
X223223Y150413D01*
X223219Y150464D01*
X223211Y150509D01*
X223201Y150548D01*
X223187Y150581D01*
X223171Y150608D01*
X223151Y150629D01*
X223129Y150644D01*
X223103Y150653D01*
X223075Y150656D01*
X223675D01*
X223646Y150653D01*
D02*
G37*
G36*
X1969Y15065D02*
X196884Y150632D01*
X196869Y150603D01*
X196856Y150561D01*
X196846Y150508D01*
X196837Y150443D01*
X196825Y150278D01*
X196823Y150141D01*
X196846Y149817D01*
X196856Y149764D01*
X196869Y149722D01*
X196884Y149693D01*
X1969Y149675D01*
X196919Y149669D01*
X196134D01*
X196152Y149675D01*
X196169Y149693D01*
X196183Y149722D01*
X196196Y149764D01*
X196207Y149817D01*
X196215Y149882D01*
X196227Y150047D01*
X196229Y150183D01*
X196207Y150508D01*
X196196Y150561D01*
X196183Y150603D01*
X196169Y150632D01*
X196152Y15065D01*
X196134Y150656D01*
X196919D01*
X1969Y15065D01*
D02*
G37*
G36*
X21372Y149831D02*
X213723Y149797D01*
X213728Y149767D01*
X213735Y14974D01*
X213744Y149718D01*
X213755Y1497D01*
X213768Y149686D01*
X213783Y149676D01*
X2138Y14967D01*
X213819Y149668D01*
X213419D01*
X213438Y14967D01*
X213455Y149676D01*
X21347Y149686D01*
X213483Y1497D01*
X213494Y149718D01*
X213503Y14974D01*
X21351Y149767D01*
X213515Y149797D01*
X213518Y149831D01*
X213519Y149869D01*
X213719D01*
X21372Y149831D01*
D02*
G37*
G36*
X248901Y182682D02*
X248893Y182676D01*
X248886Y182669D01*
X24888Y18266D01*
X248874Y18265D01*
X24887Y182639D01*
X248867Y182627D01*
X248864Y182613D01*
X248863Y182599D01*
X248863Y182583D01*
X248763D01*
X248762Y182599D01*
X248761Y182613D01*
X248758Y182627D01*
X248755Y182639D01*
X248751Y18265D01*
X248746Y18266D01*
X248739Y182669D01*
X248732Y182676D01*
X248724Y182682D01*
X248715Y182687D01*
X24891D01*
X248901Y182682D01*
D02*
G37*
G36*
X198869Y15065D02*
X198852Y150632D01*
X198838Y150603D01*
X198825Y150561D01*
X198814Y150508D01*
X198805Y150443D01*
X198794Y150278D01*
X198791Y150141D01*
X198814Y149817D01*
X198825Y149764D01*
X198838Y149722D01*
X198852Y149693D01*
X198869Y149675D01*
X198887Y149669D01*
X198102D01*
X198121Y149675D01*
X198137Y149693D01*
X198152Y149722D01*
X198164Y149764D01*
X198175Y149817D01*
X198184Y149882D01*
X198195Y150047D01*
X198198Y150183D01*
X198175Y150508D01*
X198164Y150561D01*
X198152Y150603D01*
X198137Y150632D01*
X198121Y15065D01*
X198102Y150656D01*
X198887D01*
X198869Y15065D01*
D02*
G37*
G36*
X248053Y182068D02*
X248049Y18207D01*
X248042Y182073D01*
X248033Y182075D01*
X248021Y182077D01*
X24799Y18208D01*
X247949Y182082D01*
X247898Y182083D01*
Y182383D01*
X247925Y182383D01*
X248033Y18239D01*
X248042Y182393D01*
X248049Y182395D01*
X248053Y182398D01*
Y182068D01*
D02*
G37*
G36*
X211935Y150653D02*
X211908Y150643D01*
X211885Y150627D01*
X211864Y150605D01*
X211847Y150577D01*
X211833Y150542D01*
X211822Y150501D01*
X211814Y150454D01*
X211809Y150401D01*
X211808Y150341D01*
X211493D01*
X211491Y150401D01*
X211486Y150454D01*
X211479Y150501D01*
X211467Y150542D01*
X211453Y150577D01*
X211436Y150605D01*
X211416Y150627D01*
X211392Y150643D01*
X211365Y150653D01*
X211335Y150656D01*
X211965D01*
X211935Y150653D01*
D02*
G37*
G36*
X255594Y170599D02*
X25561Y17058D01*
Y150259D01*
X25556Y150252D01*
X255024Y150787D01*
X254946D01*
X254923Y150837D01*
X254996Y150925D01*
X25506Y151045D01*
X255099Y151175D01*
X255112Y15131D01*
Y15157D01*
X255099Y151705D01*
X25506Y151835D01*
X254996Y151955D01*
X25491Y15206D01*
X254805Y152146D01*
X254685Y15221D01*
X254555Y152249D01*
X254449Y152259D01*
X254431Y152312D01*
X25518Y15306D01*
X255266Y153165D01*
X25533Y153285D01*
X255369Y153415D01*
X255382Y15355D01*
Y16159D01*
Y17057D01*
X255382Y17057D01*
X255427Y170586D01*
X255475Y170591D01*
X25556Y170617D01*
X255594Y170599D01*
D02*
G37*
G36*
X205926Y150654D02*
X205909Y150648D01*
X205894Y150638D01*
X205881Y150624D01*
X20587Y150606D01*
X205861Y150584D01*
X205854Y150558D01*
X205849Y150528D01*
X205846Y150494D01*
X205845Y150456D01*
X205645D01*
X205644Y150494D01*
X205641Y150528D01*
X205636Y150558D01*
X205629Y150584D01*
X20562Y150606D01*
X205609Y150624D01*
X205596Y150638D01*
X205581Y150648D01*
X205564Y150654D01*
X205545Y150656D01*
X205945D01*
X205926Y150654D01*
D02*
G37*
G36*
X248967Y181461D02*
X248953Y181443D01*
X24894Y181424D01*
X248929Y181405D01*
X24892Y181385D01*
X248912Y181365D01*
X248906Y181345D01*
X248902Y181324D01*
X2489Y181302D01*
X248899Y181281D01*
X248741Y181275D01*
X24874Y181297D01*
X248738Y181319D01*
X248733Y18134D01*
X248727Y18136D01*
X248719Y181379D01*
X248709Y181398D01*
X248698Y181417D01*
X248685Y181435D01*
X248669Y181452D01*
X248653Y181469D01*
X248983Y181479D01*
X248967Y181461D01*
D02*
G37*
G36*
X249749Y181456D02*
X249734Y181439D01*
X249721Y18142D01*
X24971Y181402D01*
X2497Y181382D01*
X249693Y181362D01*
X249687Y181342D01*
X249682Y181321D01*
X24968Y1813D01*
X249679Y181278D01*
X249521D01*
X24952Y1813D01*
X249518Y181321D01*
X249513Y181342D01*
X249507Y181362D01*
X2495Y181382D01*
X24949Y181402D01*
X249479Y18142D01*
X249466Y181439D01*
X249451Y181456D01*
X249435Y181474D01*
X249765D01*
X249749Y181456D01*
D02*
G37*
G36*
X251324Y181456D02*
X251309Y181439D01*
X251296Y18142D01*
X251285Y181402D01*
X251275Y181382D01*
X251267Y181362D01*
X251261Y181342D01*
X251257Y181321D01*
X251254Y1813D01*
X251254Y181278D01*
X251096D01*
X251095Y1813D01*
X251093Y181321D01*
X251088Y181342D01*
X251082Y181362D01*
X251074Y181382D01*
X251065Y181402D01*
X251054Y18142D01*
X251041Y181439D01*
X251026Y181456D01*
X251009Y181474D01*
X25134D01*
X251324Y181456D01*
D02*
G37*
G36*
X248183Y181467D02*
X248161Y181446D01*
X248123Y181404D01*
X248108Y181384D01*
X248095Y181364D01*
X248084Y181344D01*
X248076Y181325D01*
X24807Y181305D01*
X248066Y181286D01*
X248065Y181268D01*
X247965Y181272D01*
X247964Y18129D01*
X247961Y181309D01*
X247955Y181328D01*
X247947Y181348D01*
X247937Y181369D01*
X247925Y18139D01*
X24791Y181412D01*
X247893Y181434D01*
X247853Y181481D01*
X248183Y181467D01*
D02*
G37*
G36*
X224869Y185606D02*
X225108D01*
Y185409D01*
X224869D01*
Y183637D01*
X225108D01*
Y181247D01*
X225064Y181225D01*
X225024Y181255D01*
X224892Y18131D01*
X22475Y181328D01*
X224608Y18131D01*
X224476Y181255D01*
X224362Y181168D01*
X224323Y181128D01*
X224301D01*
X22428Y18113D01*
X224256Y181133D01*
X224237Y181137D01*
X224237Y181137D01*
Y183637D01*
X224476D01*
Y185409D01*
X224237D01*
Y185606D01*
X224476D01*
Y187202D01*
X224869D01*
Y185606D01*
D02*
G37*
G36*
X209863Y150654D02*
X209846Y150648D01*
X209831Y150638D01*
X209818Y150624D01*
X209807Y150606D01*
X209798Y150584D01*
X209791Y150558D01*
X209786Y150528D01*
X209783Y150494D01*
X209782Y150456D01*
X209582D01*
X209581Y150494D01*
X209578Y150528D01*
X209573Y150558D01*
X209566Y150584D01*
X209557Y150606D01*
X209546Y150624D01*
X209533Y150638D01*
X209518Y150648D01*
X209501Y150654D01*
X209482Y150656D01*
X209882D01*
X209863Y150654D01*
D02*
G37*
G36*
X250573Y181494D02*
X250552Y181452D01*
X250543Y181431D01*
X250536Y18141D01*
X25053Y181389D01*
X250525Y181367D01*
X250521Y181346D01*
X250519Y181325D01*
X250519Y181304D01*
X250361Y181266D01*
X25036Y181288D01*
X250357Y18131D01*
X250352Y18133D01*
X250346Y181349D01*
X250337Y181367D01*
X250326Y181384D01*
X250313Y1814D01*
X250299Y181415D01*
X250282Y181429D01*
X250264Y181441D01*
X250586Y181515D01*
X250573Y181494D01*
D02*
G37*
G36*
X209121Y185606D02*
X20936D01*
Y185409D01*
X209121D01*
Y183637D01*
X20936D01*
Y181331D01*
X209316Y181309D01*
X209294Y181325D01*
X209162Y18138D01*
X20902Y181398D01*
X208878Y18138D01*
X208746Y181325D01*
X208632Y181238D01*
X208539Y181144D01*
X208489Y181164D01*
Y183637D01*
X208728D01*
Y185409D01*
X208489D01*
Y185606D01*
X208728D01*
Y187202D01*
X209121D01*
Y185606D01*
D02*
G37*
G36*
X201247D02*
X201486D01*
Y185409D01*
X201247D01*
Y183637D01*
X201486D01*
Y181402D01*
X201445Y181374D01*
X201432Y18138D01*
X20129Y181398D01*
X201148Y18138D01*
X201016Y181325D01*
X200902Y181238D01*
X200773Y181108D01*
X20067D01*
X200648Y18111D01*
X200625Y181113D01*
X200615Y181115D01*
Y183637D01*
X200854D01*
Y185409D01*
X200615D01*
Y185606D01*
X200854D01*
Y187202D01*
X201247D01*
Y185606D01*
D02*
G37*
G36*
X252344Y181474D02*
X252329Y181473D01*
X252316Y181469D01*
X252304Y181462D01*
X252294Y181451D01*
X252285Y181437D01*
X252278Y181419D01*
X252272Y181398D01*
X252269Y181374D01*
X252268Y18137D01*
X252561D01*
X252692Y181383D01*
X252819Y181421D01*
X252888Y181458D01*
X252938Y181428D01*
Y1804D01*
Y178101D01*
X252893Y178079D01*
X252878Y17809D01*
X252758Y178139D01*
X25263Y178156D01*
X252502Y178139D01*
X252382Y17809D01*
X252279Y178011D01*
X2522Y177908D01*
X252187Y177875D01*
X252137Y177885D01*
Y17943D01*
X25212Y179553D01*
X252073Y179668D01*
X251997Y179767D01*
X251898Y179843D01*
X251783Y17989D01*
X25166Y179907D01*
X251651Y179914D01*
Y18123D01*
X251701Y181291D01*
X25176Y1814D01*
X251776Y181454D01*
X251834Y181472D01*
X251929Y181421D01*
X252055Y181383D01*
X252105Y181378D01*
X252105Y181383D01*
X252101Y181408D01*
X252095Y181431D01*
X252088Y18145D01*
X25208Y181466D01*
X252069Y181479D01*
X252058Y181488D01*
X252044Y181494D01*
X252029Y181497D01*
X252344Y181474D01*
D02*
G37*
G36*
X220932Y185606D02*
X221171D01*
Y185409D01*
X220932D01*
Y183637D01*
X221171D01*
Y181413D01*
X22113Y181386D01*
X221072Y18141D01*
X22093Y181428D01*
X220788Y18141D01*
X220656Y181355D01*
X220542Y181268D01*
X220403Y181128D01*
X220363D01*
X220341Y18113D01*
X220317Y181133D01*
X2203Y181136D01*
Y183637D01*
X220539D01*
Y185409D01*
X2203D01*
Y185606D01*
X220539D01*
Y187202D01*
X220932D01*
Y185606D01*
D02*
G37*
G36*
X216995D02*
X217234D01*
Y185409D01*
X216995D01*
Y183637D01*
X217234D01*
Y1814D01*
X217184Y181367D01*
X217082Y18141D01*
X21694Y181428D01*
X216798Y18141D01*
X216666Y181355D01*
X216552Y181268D01*
X216519Y181225D01*
X216423Y181128D01*
X216402Y18113D01*
X216379Y181133D01*
X216363Y181136D01*
Y183637D01*
X216602D01*
Y185409D01*
X216363D01*
Y185606D01*
X216602D01*
Y187202D01*
X216995D01*
Y185606D01*
D02*
G37*
G36*
X213058D02*
X213297D01*
Y185409D01*
X213058D01*
Y183637D01*
X213297D01*
Y181354D01*
X213247Y18132D01*
X213152Y18136D01*
X21301Y181378D01*
X212868Y18136D01*
X212736Y181305D01*
X212622Y181218D01*
X212533Y181128D01*
X212486D01*
X212464Y18113D01*
X21244Y181133D01*
X212426Y181136D01*
Y183637D01*
X212665D01*
Y185409D01*
X212426D01*
Y185606D01*
X212665D01*
Y187202D01*
X213058D01*
Y185606D01*
D02*
G37*
G36*
X207894Y150654D02*
X207877Y150648D01*
X207862Y150638D01*
X207849Y150624D01*
X207838Y150606D01*
X207829Y150584D01*
X207822Y150558D01*
X207817Y150528D01*
X207814Y150494D01*
X207813Y150456D01*
X207613D01*
X207612Y150494D01*
X207609Y150528D01*
X207604Y150558D01*
X207597Y150584D01*
X207588Y150606D01*
X207577Y150624D01*
X207564Y150638D01*
X207549Y150648D01*
X207532Y150654D01*
X207513Y150656D01*
X207913D01*
X207894Y150654D01*
D02*
G37*
G36*
X205184Y185606D02*
X205423D01*
Y185409D01*
X205184D01*
Y183637D01*
X205423D01*
Y181361D01*
X205373Y181328D01*
X205272Y18137D01*
X20513Y181388D01*
X2051D01*
X204958Y18137D01*
X204826Y181315D01*
X204712Y181228D01*
X204613Y181128D01*
X204608D01*
X204587Y18113D01*
X204563Y181133D01*
X204552Y181135D01*
Y183637D01*
X204791D01*
Y185409D01*
X204552D01*
Y185606D01*
X204791D01*
Y187202D01*
X205184D01*
Y185606D01*
D02*
G37*
G36*
X209783Y149831D02*
X209786Y149797D01*
X209791Y149767D01*
X209798Y14974D01*
X209807Y149718D01*
X209818Y1497D01*
X209831Y149686D01*
X209846Y149676D01*
X209863Y14967D01*
X209882Y149668D01*
X209482D01*
X209501Y14967D01*
X209518Y149676D01*
X209533Y149686D01*
X209546Y1497D01*
X209557Y149718D01*
X209566Y14974D01*
X209573Y149767D01*
X209578Y149797D01*
X209581Y149831D01*
X209582Y149869D01*
X209782D01*
X209783Y149831D01*
D02*
G37*
G36*
X231622Y187165D02*
X231617Y187119D01*
Y184806D01*
X230419Y183608D01*
X230381Y183641D01*
Y185409D01*
X230142D01*
Y185606D01*
X230381D01*
Y187202D01*
X231588D01*
X231622Y187165D01*
D02*
G37*
G36*
X207814Y149831D02*
X207817Y149797D01*
X207822Y149767D01*
X207829Y14974D01*
X207838Y149718D01*
X207849Y1497D01*
X207862Y149686D01*
X207877Y149676D01*
X207894Y14967D01*
X207913Y149668D01*
X207513D01*
X207532Y14967D01*
X207549Y149676D01*
X207564Y149686D01*
X207577Y1497D01*
X207588Y149718D01*
X207597Y14974D01*
X207604Y149767D01*
X207609Y149797D01*
X207612Y149831D01*
X207613Y149869D01*
X207813D01*
X207814Y149831D01*
D02*
G37*
G36*
X244462Y151941D02*
X244Y15148D01*
X243914Y151375D01*
X24385Y151255D01*
X243811Y151125D01*
X243798Y15099D01*
Y149912D01*
X243788Y14981D01*
Y14946D01*
X243772Y149442D01*
X234461D01*
X234431Y149482D01*
X234449Y149543D01*
X234462Y149678D01*
X234449Y149813D01*
X23441Y149943D01*
X234346Y150062D01*
X234292Y150128D01*
X234316Y150178D01*
X24091D01*
X241045Y150191D01*
X241175Y15023D01*
X241295Y150294D01*
X2414Y15038D01*
X243007Y151988D01*
X244443D01*
X244462Y151941D01*
D02*
G37*
G36*
X211809Y149924D02*
X211814Y14987D01*
X211822Y149823D01*
X211833Y149782D01*
X211847Y149747D01*
X211864Y149719D01*
X211885Y149696D01*
X211908Y149681D01*
X211935Y149671D01*
X211965Y149668D01*
X211335D01*
X211365Y149671D01*
X211392Y149681D01*
X211416Y149696D01*
X211436Y149719D01*
X211453Y149747D01*
X211467Y149782D01*
X211479Y149823D01*
X211486Y14987D01*
X211491Y149924D01*
X211493Y149984D01*
X211808D01*
X211809Y149924D01*
D02*
G37*
G36*
X249651Y183256D02*
X249655Y183238D01*
X24966Y183218D01*
X249668Y183199D01*
X249679Y183178D01*
X249692Y183158D01*
X249707Y183137D01*
X249724Y183115D01*
X249765Y183071D01*
X249435D01*
X249457Y183093D01*
X249493Y183137D01*
X249508Y183158D01*
X249521Y183178D01*
X249532Y183199D01*
X24954Y183218D01*
X249545Y183238D01*
X249549Y183256D01*
X24955Y183275D01*
X24965D01*
X249651Y183256D01*
D02*
G37*
G36*
X248414Y182986D02*
X248229Y182783D01*
X248164Y183094D01*
X248179Y183084D01*
X248195Y183077D01*
X248211Y183073D01*
X248228Y183071D01*
X248244Y183073D01*
X24826Y183077D01*
X248277Y183084D01*
X248294Y183095D01*
X248311Y183108D01*
X248328Y183123D01*
X248414Y182986D01*
D02*
G37*
G36*
X197743Y184046D02*
X197713Y184029D01*
X197686Y183999D01*
X197663Y183958D01*
X197643Y183905D01*
X197627Y18384D01*
X197615Y183763D01*
X197606Y183674D01*
X197599Y183462D01*
X197009D01*
X196991Y184052D01*
X197776D01*
X197743Y184046D01*
D02*
G37*
G36*
X195774D02*
X195744Y184029D01*
X195717Y183999D01*
X195694Y183958D01*
X195675Y183905D01*
X195659Y18384D01*
X195647Y183763D01*
X195638Y183674D01*
X195631Y183462D01*
X19504D01*
X195023Y184052D01*
X195808D01*
X195774Y184046D01*
D02*
G37*
G36*
X203877Y149831D02*
X20388Y149797D01*
X203885Y149767D01*
X203892Y14974D01*
X203901Y149718D01*
X203912Y1497D01*
X203925Y149686D01*
X20394Y149676D01*
X203957Y14967D01*
X203976Y149668D01*
X203576D01*
X203595Y14967D01*
X203612Y149676D01*
X203627Y149686D01*
X20364Y1497D01*
X203651Y149718D01*
X20366Y14974D01*
X203667Y149767D01*
X203672Y149797D01*
X203675Y149831D01*
X203676Y149869D01*
X203876D01*
X203877Y149831D01*
D02*
G37*
G36*
X205846D02*
X205849Y149797D01*
X205854Y149767D01*
X205861Y14974D01*
X20587Y149718D01*
X205881Y1497D01*
X205894Y149686D01*
X205909Y149676D01*
X205926Y14967D01*
X205945Y149668D01*
X205545D01*
X205564Y14967D01*
X205581Y149676D01*
X205596Y149686D01*
X205609Y1497D01*
X20562Y149718D01*
X205629Y14974D01*
X205636Y149767D01*
X205641Y149797D01*
X205644Y149831D01*
X205645Y149869D01*
X205845D01*
X205846Y149831D01*
D02*
G37*
G36*
X251913Y151152D02*
X250204Y149442D01*
X245188D01*
X245172Y14946D01*
Y149718D01*
X245182Y14982D01*
Y150703D01*
X245677Y151198D01*
X251894D01*
X251913Y151152D01*
D02*
G37*
G36*
X249655Y183628D02*
X249654Y183622D01*
X249653Y183613D01*
X249651Y183569D01*
X24965Y183468D01*
X24955D01*
X249544Y18363D01*
X249656D01*
X249655Y183628D01*
D02*
G37*
G36*
X25055Y183437D02*
X250553Y183433D01*
X250559Y183426D01*
X250589Y183393D01*
X25066Y183321D01*
X250589Y18325D01*
X25047Y183361D01*
X250549Y18344D01*
X25055Y183437D01*
D02*
G37*
G36*
X240604Y182863D02*
X240572Y182862D01*
X240541Y18286D01*
X240512Y182856D01*
X240485Y18285D01*
X240459Y182842D01*
X240435Y182833D01*
X240412Y182822D01*
X240391Y182809D01*
X240372Y182795D01*
X240354Y182778D01*
X240242Y18289D01*
X240259Y182908D01*
X240273Y182927D01*
X240286Y182948D01*
X240297Y182971D01*
X240306Y182995D01*
X240314Y183021D01*
X24032Y183048D01*
X240324Y183077D01*
X240326Y183107D01*
X240327Y183139D01*
X240604Y182863D01*
D02*
G37*
G36*
X250882Y183101D02*
X250898Y18309D01*
X250915Y183082D01*
X250933Y183077D01*
X250951Y183074D01*
X25097Y183075D01*
X25099Y183078D01*
X251011Y183085D01*
X251032Y183094D01*
X251055Y183106D01*
X250964Y182796D01*
X250948Y182827D01*
X250868Y182964D01*
X250857Y182979D01*
X250838Y183001D01*
X250866Y183114D01*
X250882Y183101D01*
D02*
G37*
G36*
X241656Y183039D02*
X241652Y183012D01*
X241651Y182985D01*
X241652Y18296D01*
X241656Y182936D01*
X241662Y182913D01*
X241671Y182891D01*
X241683Y18287D01*
X241698Y18285D01*
X241715Y182831D01*
X241572Y182751D01*
X241556Y182766D01*
X241537Y18278D01*
X241517Y182794D01*
X241495Y182807D01*
X241471Y182819D01*
X241418Y182842D01*
X241389Y182853D01*
X241324Y182871D01*
X241663Y183067D01*
X241656Y183039D01*
D02*
G37*
G36*
X226908Y156954D02*
Y156097D01*
X226173Y155362D01*
X226087Y155257D01*
X226023Y155137D01*
X225983Y155007D01*
X22597Y154872D01*
Y149678D01*
X225983Y149543D01*
X226002Y149482D01*
X225972Y149442D01*
X225867D01*
X225772Y149537D01*
Y156923D01*
X226811D01*
X226861Y156974D01*
X226908Y156954D01*
D02*
G37*
G36*
X250073Y183835D02*
X250076Y183814D01*
X25008Y183793D01*
X250086Y183773D01*
X250094Y183753D01*
X250104Y183734D01*
X250115Y183715D01*
X250128Y183696D01*
X250143Y183679D01*
X250159Y183661D01*
X249828D01*
X249845Y183679D01*
X24986Y183696D01*
X249873Y183715D01*
X249884Y183734D01*
X249893Y183753D01*
X249901Y183773D01*
X249907Y183793D01*
X249911Y183814D01*
X249914Y183835D01*
X249915Y183857D01*
X250072D01*
X250073Y183835D01*
D02*
G37*
G36*
X223526Y149912D02*
X223531Y149861D01*
X223538Y149816D01*
X223549Y149776D01*
X223562Y149743D01*
X223579Y149716D01*
X223598Y149695D01*
X223621Y14968D01*
X223646Y149671D01*
X223675Y149668D01*
X223075D01*
X223103Y149671D01*
X223129Y14968D01*
X223151Y149695D01*
X223171Y149716D01*
X223187Y149743D01*
X223201Y149776D01*
X223211Y149816D01*
X223219Y149861D01*
X223223Y149912D01*
X223225Y149969D01*
X223525D01*
X223526Y149912D01*
D02*
G37*
G36*
X249286Y183835D02*
X249289Y183814D01*
X249293Y183793D01*
X249299Y183773D01*
X249307Y183753D01*
X249316Y183734D01*
X249327Y183715D01*
X24934Y183696D01*
X249355Y183679D01*
X249372Y183661D01*
X249041D01*
X249057Y183679D01*
X249072Y183696D01*
X249085Y183715D01*
X249096Y183734D01*
X249106Y183753D01*
X249114Y183773D01*
X24912Y183793D01*
X249124Y183814D01*
X249127Y183835D01*
X249128Y183857D01*
X249285D01*
X249286Y183835D01*
D02*
G37*
G36*
X215688Y149831D02*
X215691Y149797D01*
X215696Y149767D01*
X215703Y14974D01*
X215712Y149718D01*
X215723Y1497D01*
X215736Y149686D01*
X215751Y149676D01*
X215768Y14967D01*
X215787Y149668D01*
X215387D01*
X215406Y14967D01*
X215423Y149676D01*
X215438Y149686D01*
X215451Y1497D01*
X215462Y149718D01*
X215471Y14974D01*
X215478Y149767D01*
X215483Y149797D01*
X215486Y149831D01*
X215487Y149869D01*
X215687D01*
X215688Y149831D01*
D02*
G37*
G36*
X250476Y182682D02*
X250468Y182676D01*
X250461Y182669D01*
X250454Y18266D01*
X250449Y18265D01*
X250445Y182639D01*
X250442Y182627D01*
X250439Y182613D01*
X250438Y182599D01*
X250437Y182583D01*
X250337D01*
X250337Y182599D01*
X250336Y182613D01*
X250333Y182627D01*
X25033Y182639D01*
X250326Y18265D01*
X25032Y18266D01*
X250314Y182669D01*
X250307Y182676D01*
X250299Y182682D01*
X25029Y182687D01*
X250485D01*
X250476Y182682D01*
D02*
G37*
G36*
X217657Y149831D02*
X21766Y149797D01*
X217665Y149767D01*
X217672Y14974D01*
X217681Y149718D01*
X217692Y1497D01*
X217705Y149686D01*
X21772Y149676D01*
X217737Y14967D01*
X217756Y149668D01*
X217356D01*
X217375Y14967D01*
X217392Y149676D01*
X217407Y149686D01*
X21742Y1497D01*
X217431Y149718D01*
X21744Y14974D01*
X217447Y149767D01*
X217452Y149797D01*
X217455Y149831D01*
X217456Y149869D01*
X217656D01*
X217657Y149831D01*
D02*
G37*
G36*
X248134Y18284D02*
X24813Y182842D01*
X248125Y182844D01*
X248118Y182846D01*
X248109Y182848D01*
X248087Y18285D01*
X248059Y182852D01*
X248025Y182852D01*
Y182952D01*
X248043Y182952D01*
X248109Y182957D01*
X248118Y182958D01*
X248125Y18296D01*
X24813Y182962D01*
X248134Y182965D01*
Y18284D01*
D02*
G37*
%LPC*%
G36*
X221146Y150649D02*
X221052Y150555D01*
X221229D01*
X221219Y150581D01*
X221202Y150608D01*
X221183Y150629D01*
X22116Y150644D01*
X221146Y150649D01*
D02*
G37*
G36*
X221658Y149668D02*
X221154D01*
X221406Y149416D01*
X221658Y149668D01*
D02*
G37*
G36*
X251128Y153313D02*
X251118Y15326D01*
X251128Y153207D01*
X251181Y15326D01*
X251128Y153313D01*
D02*
G37*
G36*
X221406Y150909D02*
X221153Y150656D01*
X221659D01*
X221406Y150909D01*
D02*
G37*
G36*
X240746Y154854D02*
X240739Y154844D01*
X240696Y154741D01*
X240681Y15463D01*
Y15453D01*
X240696Y154419D01*
X240739Y154316D01*
X240746Y154306D01*
X24081Y154369D01*
X240809Y154405D01*
X240846D01*
X241021Y15458D01*
X240746Y154854D01*
D02*
G37*
G36*
X25132Y153462D02*
X251267Y153452D01*
X25132Y153399D01*
X251373Y153452D01*
X25132Y153462D01*
D02*
G37*
G36*
X251512Y153313D02*
X251459Y15326D01*
X251512Y153207D01*
X251522Y15326D01*
X251512Y153313D01*
D02*
G37*
G36*
X221666Y150649D02*
X221652Y150644D01*
X22163Y150629D01*
X22161Y150608D01*
X221594Y150581D01*
X221583Y150555D01*
X221761D01*
X221666Y150649D01*
D02*
G37*
G36*
X221761Y151739D02*
X221583D01*
X221594Y151712D01*
X22161Y151685D01*
X22163Y151664D01*
X221652Y151648D01*
X221666Y151644D01*
X221761Y151739D01*
D02*
G37*
G36*
X22123D02*
X221052D01*
X221147Y151644D01*
X22116Y151648D01*
X221183Y151664D01*
X221202Y151685D01*
X221219Y151712D01*
X22123Y151739D01*
D02*
G37*
G36*
X2411Y152861D02*
X241047Y152808D01*
X2411Y152798D01*
X241153Y152808D01*
X2411Y152861D01*
D02*
G37*
G36*
X24065Y152841D02*
X240597Y152788D01*
X24065Y152778D01*
X240703Y152788D01*
X24065Y152841D01*
D02*
G37*
G36*
X22123Y14977D02*
X221052D01*
X221147Y149675D01*
X22116Y14968D01*
X221183Y149695D01*
X221202Y149716D01*
X221219Y149743D01*
X22123Y14977D01*
D02*
G37*
G36*
X221658Y151636D02*
X221154D01*
X221406Y151384D01*
X221658Y151636D01*
D02*
G37*
G36*
X2219Y1516D02*
X221476Y151176D01*
X221406Y151245D01*
X221337Y151176D01*
X220912Y1516D01*
Y150694D01*
X221337Y151118D01*
X221406Y151048D01*
X221476Y151118D01*
X2219Y150694D01*
Y1516D01*
D02*
G37*
G36*
X221761Y14977D02*
X221583D01*
X221594Y149743D01*
X22161Y149716D01*
X22163Y149695D01*
X221652Y14968D01*
X221666Y149675D01*
X221761Y14977D01*
D02*
G37*
G36*
X24155Y152861D02*
X241497Y152808D01*
X24155Y152798D01*
X241603Y152808D01*
X24155Y152861D01*
D02*
G37*
G36*
X24065Y153182D02*
X240597Y153172D01*
X24065Y153119D01*
X240703Y153172D01*
X24065Y153182D01*
D02*
G37*
G36*
X25132Y153121D02*
X251267Y153068D01*
X25132Y153058D01*
X251373Y153068D01*
X25132Y153121D01*
D02*
G37*
G36*
X24155Y153202D02*
X241497Y153192D01*
X24155Y153139D01*
X241603Y153192D01*
X24155Y153202D01*
D02*
G37*
G36*
X2411D02*
X241047Y153192D01*
X2411Y153139D01*
X241153Y153192D01*
X2411Y153202D01*
D02*
G37*
G36*
X241742Y153053D02*
X241689Y153D01*
X241742Y152947D01*
X241752Y153D01*
X241742Y153053D01*
D02*
G37*
G36*
X240458Y153033D02*
X240448Y15298D01*
X240458Y152927D01*
X240511Y15298D01*
X240458Y153033D01*
D02*
G37*
G36*
X241358Y153053D02*
X241355Y153034D01*
X24135Y153014D01*
X2413D01*
X241296Y153034D01*
X241292Y153053D01*
X241239Y153D01*
X241292Y152947D01*
X241296Y152966D01*
X2413Y152986D01*
X24135D01*
X241355Y152966D01*
X241358Y152947D01*
X241411Y153D01*
X241358Y153053D01*
D02*
G37*
G36*
X240908Y153053D02*
X240898Y153D01*
X240849Y152994D01*
X240842Y153033D01*
X240789Y15298D01*
X240842Y152927D01*
X240852Y15298D01*
X240901Y152986D01*
X240908Y152947D01*
X240961Y153D01*
X240908Y153053D01*
D02*
G37*
G36*
X23411Y157342D02*
X234057Y157332D01*
X23411Y157279D01*
X234163Y157332D01*
X23411Y157342D01*
D02*
G37*
G36*
X25003Y174241D02*
X249977Y174188D01*
X25003Y174135D01*
X25004Y174188D01*
X25003Y174241D01*
D02*
G37*
G36*
X235482Y175949D02*
X235356Y175937D01*
X235235Y1759D01*
X235123Y17584D01*
X235025Y17576D01*
X234945Y175662D01*
X234885Y17555D01*
X234848Y175428D01*
X234836Y175302D01*
X234848Y175176D01*
X234885Y175055D01*
X234945Y174943D01*
X235025Y174845D01*
X235123Y174764D01*
X235235Y174705D01*
X235356Y174668D01*
X235482Y174655D01*
X235609Y174668D01*
X23573Y174705D01*
X235842Y174764D01*
X23594Y174845D01*
X23602Y174943D01*
X23608Y175055D01*
X236117Y175176D01*
X236129Y175302D01*
X236117Y175428D01*
X23608Y17555D01*
X23602Y175662D01*
X23594Y17576D01*
X235842Y17584D01*
X23573Y1759D01*
X235609Y175937D01*
X235482Y175949D01*
D02*
G37*
G36*
X248061Y18379D02*
X248052Y183786D01*
X247982Y183733D01*
X247928Y183662D01*
X247925Y183654D01*
X248061Y18379D01*
D02*
G37*
G36*
X226811Y172868D02*
X225728D01*
X225187Y172327D01*
Y171244D01*
X225728Y170703D01*
X226811D01*
X227353Y171244D01*
Y172327D01*
X226811Y172868D01*
D02*
G37*
G36*
X242886Y176583D02*
X242876Y17653D01*
X242886Y176477D01*
X242939Y17653D01*
X242886Y176583D01*
D02*
G37*
G36*
X238413Y181834D02*
X238105Y181526D01*
X238216Y181323D01*
X238169Y181334D01*
X238121Y181339D01*
X238073Y181336D01*
X238025Y181328D01*
X237989Y181316D01*
X238114Y18125D01*
X238261Y181205D01*
X238413Y18119D01*
X238566Y181205D01*
X238713Y18125D01*
X238848Y181322D01*
X238891Y181357D01*
X238413Y181834D01*
D02*
G37*
G36*
X23903Y18245D02*
X238553Y181973D01*
X23903Y181496D01*
X239064Y181538D01*
X239137Y181673D01*
X239181Y18182D01*
X239196Y181973D01*
X239181Y182126D01*
X239137Y182273D01*
X239064Y182408D01*
X23903Y18245D01*
D02*
G37*
G36*
X243078Y176732D02*
X243025Y176722D01*
X243078Y176669D01*
X243131Y176722D01*
X243078Y176732D01*
D02*
G37*
G36*
X243998Y181422D02*
X243896Y181301D01*
X243854Y181241D01*
X243853Y181239D01*
X243886Y18125D01*
X244022Y181322D01*
X244064Y181357D01*
X243998Y181422D01*
D02*
G37*
G36*
X226229Y164514D02*
X226204Y164483D01*
X226201Y164477D01*
X226248Y164495D01*
X226229Y164514D01*
D02*
G37*
G36*
X247785Y184142D02*
X247792Y184135D01*
X247767Y184076D01*
X247825Y184134D01*
X247785Y184142D01*
D02*
G37*
G36*
X22979Y164222D02*
X229737Y164212D01*
X22979Y164159D01*
X229843Y164212D01*
X22979Y164222D01*
D02*
G37*
G36*
X2221Y164232D02*
X222047Y164222D01*
X2221Y164169D01*
X222153Y164222D01*
X2221Y164232D01*
D02*
G37*
G36*
X247964Y183995D02*
X247912Y183942D01*
X247964Y18389D01*
X247975Y183942D01*
X247964Y183995D01*
D02*
G37*
G36*
X20517Y169086D02*
X205042Y169069D01*
X204922Y16902D01*
X204819Y168941D01*
X20474Y168838D01*
X204691Y168718D01*
X204674Y16859D01*
X204691Y168462D01*
X20474Y168342D01*
X204819Y168239D01*
X204922Y16816D01*
X205042Y168111D01*
X20517Y168094D01*
X205298Y168111D01*
X205351Y168132D01*
X205661D01*
X205693Y168095D01*
X205684Y16802D01*
X205701Y167892D01*
X20575Y167772D01*
X205829Y167669D01*
X205932Y16759D01*
X206052Y167541D01*
X20618Y167524D01*
X206308Y167541D01*
X206313Y167542D01*
X206613D01*
X206624Y16753D01*
X206641Y167402D01*
X20669Y167282D01*
X206769Y167179D01*
X206872Y1671D01*
X206992Y167051D01*
X20712Y167034D01*
X207248Y167051D01*
X207277Y167062D01*
X207397D01*
X20743Y167025D01*
X207426Y166994D01*
X207443Y166865D01*
X207493Y166745D01*
X207572Y166642D01*
X207675Y166563D01*
X207795Y166513D01*
X207924Y166496D01*
X210563D01*
X210581Y166489D01*
X21071Y166472D01*
X210839Y166489D01*
X210959Y166539D01*
X211062Y166618D01*
X211141Y166721D01*
X211191Y166841D01*
X211208Y16697D01*
X211191Y167099D01*
X211141Y167219D01*
X211114Y167254D01*
X21112Y167262D01*
X211169Y167382D01*
X211186Y16751D01*
X211215Y167542D01*
X211294D01*
X211372Y167511D01*
X2115Y167494D01*
X211628Y167511D01*
X211748Y16756D01*
X211851Y167639D01*
X21193Y167742D01*
X211979Y167862D01*
X211996Y16799D01*
X211984Y168082D01*
X212025Y168132D01*
X212134D01*
X212212Y168101D01*
X21234Y168084D01*
X212468Y168101D01*
X212588Y16815D01*
X212691Y168229D01*
X21277Y168332D01*
X212819Y168452D01*
X212836Y16858D01*
X212819Y168708D01*
X21277Y168828D01*
X212691Y168931D01*
X212588Y16901D01*
X212468Y169059D01*
X21234Y169076D01*
X212212Y169059D01*
X212134Y169028D01*
X2054D01*
X205298Y169069D01*
X20517Y169086D01*
D02*
G37*
G36*
X237797Y184686D02*
X237762Y184644D01*
X23769Y184509D01*
X237646Y184362D01*
X23763Y184209D01*
X237646Y184056D01*
X23769Y18391D01*
X237762Y183774D01*
X237797Y183732D01*
X238274Y184209D01*
X237797Y184686D01*
D02*
G37*
G36*
X247772Y183803D02*
X24772Y183751D01*
X247772Y18374D01*
X247825Y183751D01*
X247772Y183803D01*
D02*
G37*
G36*
X23903Y184686D02*
X238553Y184209D01*
X23903Y183732D01*
X239064Y183774D01*
X239137Y18391D01*
X239181Y184056D01*
X239196Y184209D01*
X239181Y184362D01*
X239137Y184509D01*
X239064Y184644D01*
X23903Y184686D01*
D02*
G37*
G36*
X23731Y183081D02*
X237257Y183028D01*
X23731Y183018D01*
X237363Y183028D01*
X23731Y183081D01*
D02*
G37*
G36*
X239429Y183196D02*
X239401Y18306D01*
X239483Y183142D01*
X239429Y183196D01*
D02*
G37*
G36*
X239465Y182846D02*
X23943Y182811D01*
X239431Y182811D01*
X239469Y182795D01*
X239465Y182846D01*
D02*
G37*
G36*
X239252Y183047D02*
X239252Y183043D01*
X239291Y182951D01*
X239291Y18295D01*
X239359Y183018D01*
X239353Y183022D01*
X239337Y183029D01*
X239319Y183036D01*
X239298Y183041D01*
X239275Y183045D01*
X239252Y183047D01*
D02*
G37*
G36*
X237118Y183273D02*
X237108Y18322D01*
X237118Y183167D01*
X237171Y18322D01*
X237118Y183273D01*
D02*
G37*
G36*
X238413Y18407D02*
X237936Y183593D01*
X237978Y183558D01*
X238114Y183486D01*
X238261Y183441D01*
X238413Y183426D01*
X238566Y183441D01*
X238713Y183486D01*
X238848Y183558D01*
X238891Y183593D01*
X238413Y18407D01*
D02*
G37*
G36*
X243998Y183658D02*
X243896Y183538D01*
X243854Y183478D01*
X243853Y183476D01*
X243886Y183486D01*
X244022Y183558D01*
X244064Y183593D01*
X243998Y183658D01*
D02*
G37*
G36*
X237502Y183273D02*
X237449Y18322D01*
X237502Y183167D01*
X237512Y18322D01*
X237502Y183273D01*
D02*
G37*
G36*
X23731Y183422D02*
X237257Y183412D01*
X23731Y183359D01*
X237363Y183412D01*
X23731Y183422D01*
D02*
G37*
G36*
X238483Y182182D02*
X238344D01*
X238413Y182112D01*
X238483Y182182D01*
D02*
G37*
G36*
X238255Y182458D02*
X238068D01*
X238238Y182287D01*
X238242Y182312D01*
X238254Y182439D01*
X238255Y182458D01*
D02*
G37*
G36*
X237797Y18245D02*
X237762Y182408D01*
X23769Y182273D01*
X237646Y182126D01*
X23763Y181973D01*
X237636Y181915D01*
X237652Y181937D01*
X237707Y182028D01*
X237728Y182072D01*
X237746Y182115D01*
X23776Y182158D01*
X238007Y181706D01*
X238274Y181973D01*
X237797Y18245D01*
D02*
G37*
G36*
X239291Y182303D02*
X239291Y182302D01*
X239252Y18221D01*
X239239Y182111D01*
X239252Y182012D01*
X239291Y181919D01*
X239291Y181919D01*
X239483Y182111D01*
X239291Y182303D01*
D02*
G37*
G36*
X238759Y182458D02*
X23858D01*
X238591Y182289D01*
X238759Y182458D01*
D02*
G37*
G36*
X243853Y182706D02*
X243854Y182705D01*
X243896Y182645D01*
X243945Y182583D01*
X243998Y182524D01*
X244064Y182589D01*
X244022Y182624D01*
X243886Y182696D01*
X243853Y182706D01*
D02*
G37*
G36*
X238147D02*
X238114Y182696D01*
X237978Y182624D01*
X237936Y182589D01*
X238002Y182524D01*
X238104Y182645D01*
X238146Y182705D01*
X238147Y182706D01*
D02*
G37*
G36*
X23947Y182459D02*
X239431Y182442D01*
X23943Y182442D01*
X239465Y182407D01*
X239468Y182429D01*
X23947Y182459D01*
D02*
G37*
G36*
X238679Y182706D02*
X238681Y182705D01*
X238723Y182645D01*
X238772Y182583D01*
X238825Y182524D01*
X238891Y182589D01*
X238848Y182624D01*
X238713Y182696D01*
X238679Y182706D01*
D02*
G37*
G36*
X238413Y184992D02*
X238261Y184977D01*
X238114Y184932D01*
X237978Y18486D01*
X237936Y184826D01*
X238413Y184348D01*
X238891Y184826D01*
X238848Y18486D01*
X238713Y184932D01*
X238566Y184977D01*
X238413Y184992D01*
D02*
G37*
G36*
X217597Y161823D02*
X217545Y161771D01*
X217597Y16176D01*
X21765Y161771D01*
X217597Y161823D01*
D02*
G37*
G36*
X23044Y158252D02*
X230387Y158242D01*
X23044Y158189D01*
X230493Y158242D01*
X23044Y158252D01*
D02*
G37*
G36*
X23063Y162126D02*
X230502Y162109D01*
X230382Y16206D01*
X230279Y161981D01*
X2302Y161878D01*
X230151Y161758D01*
X230134Y16163D01*
X230151Y161502D01*
X2302Y161382D01*
X230272Y161288D01*
Y15904D01*
X230288Y158924D01*
X230332Y158816D01*
X230404Y158724D01*
X230694Y158434D01*
X230786Y158362D01*
X230894Y158318D01*
X23101Y158302D01*
X231729D01*
X231782Y158281D01*
X23191Y158264D01*
X232038Y158281D01*
X232158Y15833D01*
X232261Y158409D01*
X23234Y158512D01*
X232389Y158632D01*
X232406Y15876D01*
X232389Y158888D01*
X23234Y159008D01*
X232261Y159111D01*
X232158Y15919D01*
X232038Y159239D01*
X23191Y159256D01*
X231782Y159239D01*
X23168Y159198D01*
X231195D01*
X231168Y159225D01*
Y16154D01*
X231152Y161656D01*
X231108Y161764D01*
X231107Y161765D01*
X23106Y161878D01*
X230981Y161981D01*
X230878Y16206D01*
X230758Y162109D01*
X23063Y162126D01*
D02*
G37*
G36*
X20713Y161831D02*
X207077Y161778D01*
X20713Y161768D01*
X207183Y161778D01*
X20713Y161831D01*
D02*
G37*
G36*
X237538Y162353D02*
X237528Y1623D01*
X237538Y162247D01*
X237591Y1623D01*
X237538Y162353D01*
D02*
G37*
G36*
X237922D02*
X237869Y1623D01*
X237922Y162247D01*
X237932Y1623D01*
X237922Y162353D01*
D02*
G37*
G36*
X22182Y161831D02*
X221767Y161778D01*
X22182Y161768D01*
X221873Y161778D01*
X22182Y161831D01*
D02*
G37*
G36*
X23773Y162161D02*
X237677Y162108D01*
X23773Y162098D01*
X237783Y162108D01*
X23773Y162161D01*
D02*
G37*
G36*
X21268Y160876D02*
X212552Y160859D01*
X212432Y16081D01*
X212329Y160731D01*
X21225Y160628D01*
X212201Y160508D01*
X212184Y16038D01*
X212201Y160252D01*
X212203Y160244D01*
Y15869D01*
X21222Y158567D01*
X212267Y158452D01*
X212343Y158353D01*
X212893Y157803D01*
X212992Y157727D01*
X213107Y15768D01*
X21323Y157663D01*
X218414D01*
X218422Y157661D01*
X21855Y157644D01*
X218678Y157661D01*
X218798Y15771D01*
X218901Y157789D01*
X21898Y157892D01*
X219029Y158012D01*
X219046Y15814D01*
X219044Y158155D01*
X219089Y158177D01*
X219289Y157977D01*
X21932Y157902D01*
X219399Y157799D01*
X219502Y15772D01*
X219622Y157671D01*
X21975Y157654D01*
X219878Y157671D01*
X219998Y15772D01*
X220101Y157799D01*
X22018Y157902D01*
X220229Y158022D01*
X220246Y15815D01*
X220229Y158278D01*
X22018Y158398D01*
X22017Y158412D01*
X220163Y158428D01*
X220087Y158527D01*
X217917Y160697D01*
X217818Y160773D01*
X217703Y16082D01*
X21758Y160837D01*
X216196D01*
X216188Y160839D01*
X21606Y160856D01*
X215932Y160839D01*
X215812Y16079D01*
X215709Y160711D01*
X21563Y160608D01*
X215581Y160488D01*
X215564Y16036D01*
X215581Y160232D01*
X21563Y160112D01*
X215709Y160009D01*
X215812Y15993D01*
X215932Y159881D01*
X21606Y159864D01*
X216188Y159881D01*
X216196Y159883D01*
X217383D01*
X218587Y158679D01*
X218565Y158634D01*
X21855Y158636D01*
X218422Y158619D01*
X218414Y158617D01*
X213427D01*
X213157Y158887D01*
Y160244D01*
X213159Y160252D01*
X213176Y16038D01*
X213159Y160508D01*
X21311Y160628D01*
X213031Y160731D01*
X212928Y16081D01*
X212808Y160859D01*
X21268Y160876D01*
D02*
G37*
G36*
X251068Y157803D02*
X251058Y15775D01*
X251068Y157697D01*
X251121Y15775D01*
X251068Y157803D01*
D02*
G37*
G36*
X22955Y157362D02*
X229497Y157352D01*
X22955Y157299D01*
X229603Y157352D01*
X22955Y157362D01*
D02*
G37*
G36*
X25126Y157611D02*
X251207Y157558D01*
X25126Y157548D01*
X251313Y157558D01*
X25126Y157611D01*
D02*
G37*
G36*
X251452Y157803D02*
X251399Y15775D01*
X251452Y157697D01*
X251462Y15775D01*
X251452Y157803D01*
D02*
G37*
G36*
X230248Y158103D02*
X230238Y15805D01*
X230248Y157997D01*
X230301Y15805D01*
X230248Y158103D01*
D02*
G37*
G36*
X230632D02*
X230579Y15805D01*
X230632Y157997D01*
X230642Y15805D01*
X230632Y158103D01*
D02*
G37*
G36*
X23044Y157911D02*
X230387Y157858D01*
X23044Y157848D01*
X230493Y157858D01*
X23044Y157911D01*
D02*
G37*
G36*
X25126Y157952D02*
X251207Y157942D01*
X25126Y157889D01*
X251313Y157942D01*
X25126Y157952D01*
D02*
G37*
G36*
X226516Y164226D02*
Y163959D01*
X22665Y164093D01*
X226516Y164226D01*
D02*
G37*
G36*
X229598Y164073D02*
X229588Y16402D01*
X229598Y163967D01*
X229651Y16402D01*
X229598Y164073D01*
D02*
G37*
G36*
X22536Y164295D02*
X225307Y164284D01*
X22543Y164162D01*
X22536Y164093D01*
X22543Y164023D01*
X225307Y163901D01*
X22536Y16389D01*
X225437Y163906D01*
X225503Y16395D01*
X225559Y163944D01*
X225577Y163917D01*
X225643Y163873D01*
X225677Y163866D01*
Y163964D01*
X22565Y16399D01*
X225677Y164017D01*
Y164103D01*
X22565Y16413D01*
X225677Y164156D01*
Y164254D01*
X225643Y164247D01*
X225577Y164203D01*
X225521Y164209D01*
X225503Y164236D01*
X225437Y16428D01*
X22536Y164295D01*
D02*
G37*
G36*
X230612Y164063D02*
X230559Y16401D01*
X230612Y163957D01*
X230622Y16401D01*
X230612Y164063D01*
D02*
G37*
G36*
X229982Y164073D02*
X229929Y16402D01*
X229982Y163967D01*
X229992Y16402D01*
X229982Y164073D01*
D02*
G37*
G36*
X225168Y164145D02*
X225158Y164093D01*
X225168Y16404D01*
X225221Y164093D01*
X225168Y164145D01*
D02*
G37*
G36*
X23042Y164212D02*
X230367Y164202D01*
X23042Y164149D01*
X230473Y164202D01*
X23042Y164212D01*
D02*
G37*
G36*
X221908Y164083D02*
X221898Y16403D01*
X221908Y163977D01*
X221961Y16403D01*
X221908Y164083D01*
D02*
G37*
G36*
X222292D02*
X222239Y16403D01*
X222292Y163977D01*
X222302Y16403D01*
X222292Y164083D01*
D02*
G37*
G36*
X237538Y163003D02*
X237528Y16295D01*
X237538Y162897D01*
X237591Y16295D01*
X237538Y163003D01*
D02*
G37*
G36*
X237922D02*
X237869Y16295D01*
X237922Y162897D01*
X237932Y16295D01*
X237922Y163003D01*
D02*
G37*
G36*
X23773Y162502D02*
X237677Y162492D01*
X23773Y162439D01*
X237783Y162492D01*
X23773Y162502D01*
D02*
G37*
G36*
Y162811D02*
X237677Y162758D01*
X23773Y162748D01*
X237783Y162758D01*
X23773Y162811D01*
D02*
G37*
G36*
Y163152D02*
X237677Y163142D01*
X23773Y163089D01*
X237783Y163142D01*
X23773Y163152D01*
D02*
G37*
G36*
X22979Y163881D02*
X229737Y163828D01*
X22979Y163818D01*
X229843Y163828D01*
X22979Y163881D01*
D02*
G37*
G36*
X2221Y163891D02*
X222047Y163838D01*
X2221Y163828D01*
X222153Y163838D01*
X2221Y163891D01*
D02*
G37*
G36*
X226201Y163708D02*
X226204Y163702D01*
X226229Y163672D01*
X226248Y163691D01*
X226201Y163708D01*
D02*
G37*
G36*
X23042Y163871D02*
X23039Y163841D01*
Y16383D01*
X230379Y16383D01*
X230367Y163818D01*
X23042Y163808D01*
X230473Y163818D01*
X23042Y163871D01*
D02*
G37*
%LPD*%
G36*
X207206Y167579D02*
X20721Y167575D01*
X207215Y167571D01*
X207221Y167568D01*
X207228Y167566D01*
X207235Y167564D01*
X207243Y167562D01*
X207252Y167561D01*
X207262Y16756D01*
X207273Y16756D01*
X207248Y16746D01*
X207237Y16746D01*
X20721Y167458D01*
X207202Y167457D01*
X207189Y167454D01*
X207183Y167452D01*
X207179Y16745D01*
X207175Y167448D01*
X207203Y167583D01*
X207206Y167579D01*
D02*
G37*
G36*
X21062Y167441D02*
X210616Y167445D01*
X210611Y167448D01*
X210605Y167451D01*
X210599Y167453D01*
X210592Y167455D01*
X210584Y167457D01*
X210576Y167458D01*
X210567Y167459D01*
X210546Y16746D01*
Y16756D01*
X210557Y16756D01*
X210576Y167562D01*
X210584Y167563D01*
X210592Y167565D01*
X210599Y167567D01*
X210605Y167569D01*
X210611Y167572D01*
X210616Y167575D01*
X21062Y167579D01*
Y167441D01*
D02*
G37*
G36*
X231847Y158684D02*
X231843Y158687D01*
X231838Y15869D01*
X231832Y158692D01*
X231826Y158694D01*
X231819Y158696D01*
X231811Y158697D01*
X231794Y158699D01*
X231784Y1587D01*
X231773Y1587D01*
X231761Y1588D01*
X231772Y1588D01*
X231791Y158802D01*
X231799Y158803D01*
X231807Y158805D01*
X231813Y158808D01*
X231819Y15881D01*
X231825Y158814D01*
X231829Y158817D01*
X231833Y158821D01*
X231847Y158684D01*
D02*
G37*
G36*
X21143Y167921D02*
X211426Y167925D01*
X211421Y167928D01*
X211415Y167931D01*
X211409Y167933D01*
X211402Y167935D01*
X211394Y167937D01*
X211386Y167938D01*
X211377Y167939D01*
X211356Y16794D01*
Y16804D01*
X211367Y16804D01*
X211386Y168042D01*
X211394Y168043D01*
X211402Y168045D01*
X211409Y168047D01*
X211415Y168049D01*
X211421Y168052D01*
X211426Y168055D01*
X21143Y168059D01*
Y167921D01*
D02*
G37*
G36*
X205251Y168647D02*
X205255Y168644D01*
X205261Y16864D01*
X205267Y168638D01*
X205273Y168635D01*
X205281Y168633D01*
X205289Y168632D01*
X205299Y168631D01*
X205319Y16863D01*
X205307Y16853D01*
X205296Y16853D01*
X205269Y168527D01*
X205261Y168526D01*
X205254Y168524D01*
X205248Y168522D01*
X205242Y16852D01*
X205237Y168517D01*
X205233Y168514D01*
X205247Y168651D01*
X205251Y168647D01*
D02*
G37*
G36*
X21227Y168511D02*
X212266Y168515D01*
X212261Y168518D01*
X212255Y168521D01*
X212249Y168523D01*
X212242Y168525D01*
X212234Y168527D01*
X212226Y168528D01*
X212217Y168529D01*
X212196Y16853D01*
Y16863D01*
X212207Y16863D01*
X212226Y168632D01*
X212234Y168633D01*
X212242Y168635D01*
X212249Y168637D01*
X212255Y168639D01*
X212261Y168642D01*
X212266Y168645D01*
X21227Y168649D01*
Y168511D01*
D02*
G37*
G36*
X206271Y16806D02*
X206275Y168055D01*
X206279Y168052D01*
X206285Y168049D01*
X206291Y168046D01*
X206298Y168044D01*
X206306Y168042D01*
X206315Y168041D01*
X206325Y16804D01*
X206335Y16804D01*
X206296Y16794D01*
X206285Y16794D01*
X206244Y167937D01*
X206238Y167937D01*
X206233Y167935D01*
X206229Y167934D01*
X206226Y167933D01*
X206268Y168064D01*
X206271Y16806D01*
D02*
G37*
D39*
X251583Y17302D02*
X251842Y173278D01*
X2499Y17302D02*
X251583D01*
X25263Y17481D02*
Y17762D01*
X25265Y17764D01*
X252187Y17328D02*
Y182044D01*
X25279Y17226D02*
X25458D01*
X2546Y17224D01*
X25463Y17227D01*
X25263Y17766D02*
X25265Y17764D01*
X245596Y17813D02*
X245926Y1778D01*
X2467D01*
X245596Y17813D02*
Y184406D01*
X24672Y17884D02*
Y18067D01*
X24752Y17554D02*
Y18101D01*
X25044Y17729D02*
Y18159D01*
X24672Y18067D02*
X24675Y1807D01*
X250387Y181642D02*
X25044Y18159D01*
X249838Y173082D02*
Y174188D01*
X2514Y17482D02*
X25166Y17508D01*
X25117Y17482D02*
X2514D01*
X25166Y17508D02*
Y17943D01*
X24433Y1559D02*
X24473Y1563D01*
X24254Y1559D02*
X24433D01*
X24212Y15548D02*
X24254Y1559D01*
X24473Y1563D02*
Y15964D01*
X24555Y16046D02*
X24848D01*
X24473Y15964D02*
X24555Y16046D01*
X24846Y16876D02*
Y17019D01*
X24803Y16377D02*
X25078D01*
X25079Y16376D01*
X2508Y16377D01*
X247948Y16475D02*
X24802D01*
X247944Y164754D02*
X247948Y16475D01*
X247944Y164754D02*
X250774D01*
X2513Y16528D01*
X24346Y15772D02*
Y15976D01*
X24169Y15595D02*
X24346Y15772D01*
X22944Y15595D02*
X24169D01*
X24209Y15458D02*
X24212Y15461D01*
Y15548D01*
X25363Y1804D02*
X25367Y18044D01*
X24626Y15915D02*
X24629Y15918D01*
X24626Y15741D02*
Y15915D01*
Y15741D02*
X24719Y15648D01*
X25029D01*
X24577Y15853D02*
X24578Y15852D01*
Y15731D02*
Y15852D01*
Y15731D02*
X24761Y15548D01*
X25029D01*
X249206Y17278D02*
Y182233D01*
X249196Y181366D02*
X2492Y18137D01*
X249196Y173044D02*
Y181366D01*
X24752Y18101D02*
X24753Y18102D01*
X24514Y17703D02*
Y18459D01*
X244738Y177368D02*
Y185318D01*
X241878Y175756D02*
Y181498D01*
X24191Y18153D01*
X240606Y170696D02*
Y182111D01*
X2414Y17052D02*
Y18152D01*
X240139Y175021D02*
Y181501D01*
X24011Y18153D02*
X240139Y181501D01*
X24011Y17121D02*
Y174992D01*
X24002Y17112D02*
X24011Y17121D01*
Y174992D02*
X240139Y175021D01*
X2437Y17633D02*
X244738Y177368D01*
X2437Y176269D02*
Y17633D01*
X24345Y176019D02*
X2437Y176269D01*
X24345Y16478D02*
Y176019D01*
X24038Y17047D02*
X240606Y170696D01*
X241878Y170088D02*
X24191Y17012D01*
X241878Y168922D02*
Y170088D01*
Y168922D02*
X24188Y16892D01*
Y16608D02*
Y16892D01*
X241878Y175756D02*
X24191Y175724D01*
Y17012D02*
Y175724D01*
X24427Y17616D02*
X24514Y17703D01*
X24399Y17616D02*
X24427D01*
X24647Y16712D02*
X24941D01*
X24957Y16728D01*
X2503D01*
X24227Y16423D02*
X2423Y16426D01*
X24227Y15847D02*
Y16423D01*
X2482Y15851D02*
X24953D01*
X2503Y15928D01*
X24282Y15915D02*
X24287Y1592D01*
Y16377D01*
X24466Y16228D02*
X2503D01*
X24399Y16295D02*
X24466Y16228D01*
X24399Y16295D02*
X244Y16296D01*
Y16326D01*
X24702Y1683D02*
X24704Y16828D01*
X2503D01*
X24702Y16748D02*
Y1683D01*
X24814Y16605D02*
X24837Y16628D01*
X2503D01*
X24643Y16605D02*
X24647Y16601D01*
Y16551D02*
Y16601D01*
X24773Y16528D02*
X2503D01*
X24736Y16491D02*
X24773Y16528D01*
X2508Y16377D02*
X2513Y16427D01*
Y16428D01*
Y16606D02*
Y16628D01*
X250994Y165754D02*
X2513Y16606D01*
X248904Y165754D02*
X250994D01*
X24888Y16573D02*
X248904Y165754D01*
X2513Y16812D02*
Y16828D01*
X250986Y167806D02*
X2513Y16812D01*
X249494Y167806D02*
X250986D01*
X24948Y16782D02*
X249494Y167806D01*
X21268Y15869D02*
Y16038D01*
Y15869D02*
X21323Y15814D01*
X21855D01*
X24128Y15691D02*
Y15832D01*
X24091Y15654D02*
X24128Y15691D01*
X21758Y16036D02*
X21975Y15819D01*
Y15815D02*
Y15819D01*
X21606Y16036D02*
X21758D01*
X2482Y15949D02*
X24879D01*
X24958Y16028D01*
X2503D01*
X24647Y17526D02*
X24724D01*
X24752Y17554D01*
X24882Y17527D02*
Y181635D01*
X248813Y181642D02*
X24882Y181635D01*
X249196Y182223D02*
X249206Y182233D01*
X2496Y1753D02*
Y18165D01*
X24957Y17527D02*
X2496Y1753D01*
X251175Y175275D02*
Y181642D01*
X25115Y17525D02*
X251175Y175275D01*
X249838Y173082D02*
X2499Y17302D01*
X248218Y182902D02*
X24875Y183434D01*
X248182Y182902D02*
X248218D01*
X24875Y183434D02*
Y18429D01*
X248257Y185473D02*
X249206Y184524D01*
Y183493D02*
Y184524D01*
X2496Y183686D02*
Y18481D01*
X24926Y18614D02*
X249994Y185406D01*
Y183493D02*
Y185406D01*
X245Y18643D02*
X24974D01*
X25047Y1857D01*
Y18344D02*
Y1857D01*
X24855Y18586D02*
X2496Y18481D01*
X24795Y18509D02*
X24875Y18429D01*
X245596Y184406D02*
X24628Y18509D01*
X24795D01*
X24514Y18459D02*
X246023Y185473D01*
X248257D01*
X24551Y1855D02*
X24587Y18586D01*
X24855D01*
X244738Y185318D02*
X24556Y18614D01*
X24926D01*
X23347Y15885D02*
Y15975D01*
Y15885D02*
X23377Y15855D01*
X24022D01*
X24114Y15947D01*
X24253Y16795D02*
X24266Y16808D01*
X24301D01*
X24245Y16853D02*
X243D01*
X2384Y15926D02*
X2405Y16136D01*
X23392Y15926D02*
X2384D01*
X24185Y16226D02*
Y1643D01*
X243Y16545D01*
Y16751D01*
X24114Y15947D02*
Y16414D01*
X24253Y16553D01*
Y16795D01*
X24699Y16751D02*
Y17462D01*
X24764Y16676D02*
X25078D01*
X2513Y16728D01*
X24647Y16649D02*
Y16712D01*
Y17526D01*
X24599Y16625D02*
Y17528D01*
Y16625D02*
X24619Y16605D01*
X24643D01*
X24814D01*
X24549Y16515D02*
Y17526D01*
Y16515D02*
X24562Y16502D01*
X24686D01*
X24697Y16491D01*
X24736D01*
X24499Y16453D02*
Y17525D01*
Y16453D02*
X24524Y16428D01*
X24764Y16427D02*
X25029D01*
X2503Y16428D01*
X24524D02*
X24764D01*
X24448Y16355D02*
Y17525D01*
Y16355D02*
X24475Y16328D01*
X2503D01*
X24343Y16214D02*
Y16478D01*
X24429Y16128D02*
X2503D01*
X24343Y16214D02*
X24429Y16128D01*
X24219Y16827D02*
X24245Y16853D01*
X24011Y182646D02*
X240606Y183142D01*
X24011Y18153D02*
Y182646D01*
X241394Y18304D02*
Y183142D01*
Y18304D02*
X241904Y18253D01*
Y181536D02*
Y18253D01*
Y181536D02*
X24191Y18153D01*
X2405Y16136D02*
Y16403D01*
X24219Y16572D01*
Y16827D01*
X241394Y182111D02*
X2414Y182104D01*
Y18152D02*
Y182104D01*
X24052Y16964D02*
X2414Y17052D01*
X23322Y17112D02*
X24002D01*
X234107Y169267D02*
X23448Y16964D01*
X24052D01*
X23396Y17047D02*
X24038D01*
X23352Y17003D02*
X23396Y17047D01*
X23288Y17078D02*
X23322Y17112D01*
X23522Y16375D02*
X23955D01*
X24188Y16608D01*
X22951Y15656D02*
X24089D01*
X23378Y16274D02*
X234107Y163067D01*
Y169267D01*
X23231Y16351D02*
X23356Y16226D01*
X23288Y16417D02*
Y17078D01*
X23352Y16333D02*
X23357Y16328D01*
X23352Y16333D02*
Y17003D01*
X23231Y16351D02*
Y17118D01*
X23303Y1719D01*
X23879D01*
D40*
X24399Y16295D02*
Y16326D01*
X24828Y16377D02*
X2508D01*
X23072Y15904D02*
Y16154D01*
X2319Y15875D02*
X23191Y15876D01*
X23101Y15875D02*
X2319D01*
X23072Y15904D02*
X23101Y15875D01*
X23063Y16163D02*
X23072Y16154D01*
X25207Y181927D02*
X252187Y182044D01*
X249984Y175366D02*
Y182233D01*
X25088Y17418D02*
Y17447D01*
X249984Y175366D02*
X25088Y17447D01*
X24957Y17527D02*
Y177452D01*
X22388Y16824D02*
Y16879D01*
X22351Y16916D02*
X22388Y16879D01*
X21423Y16916D02*
X22351D01*
X20518Y16858D02*
X21234D01*
X20517Y16859D02*
X20518Y16858D01*
X2062Y16799D02*
X2115D01*
X213478Y168408D02*
X21423Y16916D01*
X213478Y166002D02*
Y168408D01*
X21405Y16829D02*
X22288D01*
X213734Y167974D02*
X21405Y16829D01*
X213734Y166466D02*
Y167974D01*
X21434Y1678D02*
X22189D01*
X21399Y16745D02*
X21434Y1678D01*
X21399Y166D02*
Y16745D01*
X241394Y181526D02*
X2414Y18152D01*
X241394Y181526D02*
Y182111D01*
X2482Y15949D02*
X24821Y1595D01*
X248803Y175287D02*
Y177472D01*
Y175287D02*
X24882Y17527D01*
X248025Y182902D02*
X248182D01*
X24873Y1825D02*
X248813Y182583D01*
Y182902D01*
X250387Y182583D02*
X25048Y18249D01*
X250387Y182583D02*
Y182902D01*
X24801Y17527D02*
X248015Y175275D01*
Y181642D01*
X24958Y181622D02*
X2496Y181642D01*
X24399Y16336D02*
Y17616D01*
X20709Y16751D02*
X21069D01*
X20709D02*
X20711Y16753D01*
X20712D01*
X2496Y182902D02*
Y183686D01*
X251008Y182902D02*
X251175D01*
X25047Y18344D02*
X251008Y182902D01*
X24764Y16428D02*
X2503D01*
D41*
X2556Y17153D02*
Y182793D01*
X251285Y187107D02*
X2556Y182793D01*
X250978Y187107D02*
X251285D01*
X232319Y187129D02*
X251D01*
X25363Y17459D02*
Y17641D01*
Y17392D02*
Y17459D01*
X25469Y15355D02*
Y16159D01*
X25303Y15189D02*
X25469Y15355D01*
X24908Y15189D02*
X25303D01*
X25534Y17127D02*
X2556Y17153D01*
X25463Y17127D02*
X25534D01*
X25203D02*
Y17256D01*
Y17127D02*
X25463D01*
X25469Y16159D02*
Y17121D01*
X25463Y17127D02*
X25469Y17121D01*
X25363Y17641D02*
X25363Y17641D01*
X20675Y1647D02*
X22114D01*
X19662Y17483D02*
X20675Y1647D01*
X19662Y17483D02*
Y17747D01*
X20342Y16285D02*
X22411D01*
X19562Y17065D02*
X20342Y16285D01*
X19562Y17065D02*
Y17744D01*
X24078Y15298D02*
X24146D01*
X24111Y15331D02*
Y15458D01*
X24638D02*
X24642Y15454D01*
X2431Y15458D02*
X24638D01*
X25363Y1804D02*
Y1829D01*
Y17641D02*
Y1804D01*
X238143Y181973D02*
X238413D01*
X23731Y18114D02*
X238143Y181973D01*
X23731Y18104D02*
Y18114D01*
X23065Y17922D02*
Y18286D01*
Y17883D02*
Y17922D01*
X23071Y17916D01*
X25126Y15775D02*
Y15924D01*
X2513Y15928D01*
X25238Y15647D02*
Y16012D01*
Y15299D02*
Y15647D01*
X25237Y15648D02*
X25238Y15647D01*
X25129Y15648D02*
X25237D01*
X232309Y187119D02*
X232319Y187129D01*
X232309Y184539D02*
Y187119D01*
Y184539D02*
X232319Y184529D01*
X2513Y15326D02*
Y15548D01*
Y15326D02*
X25132D01*
X2276Y15581D02*
Y161873D01*
X226662Y154872D02*
X2276Y15581D01*
X226662Y149678D02*
Y154872D01*
X25417Y15106D02*
X25442Y15131D01*
X252801Y15106D02*
X25417D01*
X250491Y14875D02*
X252801Y15106D01*
X250978Y187107D02*
X251Y187129D01*
X23065Y18286D02*
X232319Y184529D01*
X197304Y179604D02*
Y186432D01*
X197384Y186512D01*
X195335Y179755D02*
Y186432D01*
X195415Y186512D01*
X195056Y151797D02*
X195706Y151147D01*
X196526D01*
X23409Y15716D02*
X23411Y15714D01*
X23056Y15716D02*
X23409D01*
X24855Y15419D02*
X24895D01*
X2513Y16328D02*
X25381D01*
X195335Y179755D02*
X19562Y17947D01*
X19732Y17946D02*
Y179588D01*
X19662Y17946D02*
X19732D01*
X197304Y179604D02*
X19732Y179588D01*
X196526Y149178D02*
Y151147D01*
X195453Y162967D02*
X196427D01*
X196526Y149178D02*
X196526Y149178D01*
X195056Y15173D02*
Y162656D01*
X19541Y16301D01*
X195453Y162967D01*
X19852Y151147D02*
Y16493D01*
X196427Y166116D02*
X197334D01*
X19852Y16493D01*
X198495Y151147D02*
X198708Y15136D01*
X198495Y151147D02*
X198495Y151147D01*
X198495Y149178D02*
Y151147D01*
X19562Y17747D02*
X19562Y17747D01*
Y17847D01*
X19662Y17747D02*
Y17847D01*
X19662Y17847D02*
X19662Y17847D01*
X25442Y15131D02*
Y15157D01*
X22771Y14875D02*
X250491D01*
X22558D02*
X22771D01*
X22508Y14925D02*
X22558Y14875D01*
X24704Y15268D02*
X24855Y15419D01*
X22767Y15165D02*
X22845Y15087D01*
X24091D01*
X24272Y15268D01*
X24704D01*
X25341Y15398D02*
Y15994D01*
X2513Y16228D02*
X2533D01*
X25341Y16217D01*
X2513Y16128D02*
X25438D01*
X22989Y16398D02*
X22996Y16391D01*
X23044Y15728D02*
X23056Y15716D01*
X23044Y15728D02*
Y15805D01*
X22996Y15853D02*
X23044Y15805D01*
X22996Y15853D02*
Y16391D01*
X25222Y16028D02*
X25238Y16012D01*
X2513Y16028D02*
X25222D01*
X23065Y17861D02*
Y17865D01*
X24684Y15189D02*
X24908D01*
X24539D02*
X24684D01*
X24449Y14982D02*
Y15099D01*
X24539Y15189D01*
X24448Y14981D02*
X24449Y14982D01*
X24448Y14946D02*
Y14981D01*
X25334Y18319D02*
X25363Y1829D01*
X251895Y18301D02*
X252075Y18319D01*
X25334D01*
X242378Y182111D02*
Y18702D01*
X25438Y16128D02*
X25469Y16159D01*
X226693Y16278D02*
X226939Y162534D01*
X22411Y16285D02*
X22508Y16188D01*
Y14925D02*
Y16188D01*
X226662Y149678D02*
X23377D01*
X226939Y162534D02*
X2276Y161873D01*
X22767Y15165D02*
Y15264D01*
Y15165D02*
X22853Y15251D01*
X226939Y165652D02*
X227868D01*
X22853Y16499D01*
Y15251D02*
Y16499D01*
X2221Y164093D02*
X22696D01*
X221099Y167219D02*
X226939D01*
X22114Y1647D02*
X22225Y16581D01*
X226939D01*
X22081Y1669D02*
Y16693D01*
X22051Y1666D02*
X22081Y1669D01*
Y16693D02*
X221099Y167219D01*
X22051Y16598D02*
Y1666D01*
X22048Y16595D02*
X22051Y16598D01*
X250978Y183493D02*
Y187107D01*
D43*
X22919Y15814D02*
X22926Y15807D01*
Y1581D01*
X22919Y15814D02*
Y16291D01*
X209682Y151147D02*
Y153718D01*
X207713Y153713D02*
X20775Y15375D01*
X203776Y151147D02*
X203776Y151147D01*
Y149178D02*
Y151147D01*
X205745D02*
X205745Y151147D01*
X205745Y149178D02*
Y151147D01*
X207713Y151147D02*
X207713Y151147D01*
Y149178D02*
Y151147D01*
X209682D02*
X209682Y151147D01*
X209682Y149178D02*
Y151147D01*
X217556Y151147D02*
X217556Y151147D01*
Y149178D02*
Y151147D01*
X210686Y166994D02*
X21071Y16697D01*
X207924Y166994D02*
X210686D01*
X214246Y165504D02*
X214289Y165546D01*
Y166895D01*
X214614Y16722D01*
X214634Y1672D01*
X21953D01*
X20965Y15375D02*
X209682Y153718D01*
X209682Y153718D01*
X213619Y149178D02*
Y15102D01*
X21556Y15376D02*
X215587Y153733D01*
Y149178D02*
Y15106D01*
D44*
X23355Y17461D02*
Y18603D01*
X23124Y1723D02*
X23355Y17461D01*
X23124Y16862D02*
Y1723D01*
X2295Y16866D02*
X22954Y16862D01*
X23427Y15987D02*
X23565D01*
X23124Y1629D02*
Y16862D01*
Y1629D02*
X23427Y15987D01*
X22954Y16862D02*
X23124D01*
D45*
X23731Y17347D02*
Y18104D01*
X243587Y177101D02*
Y181973D01*
X23731Y1832D02*
X238413D01*
X23731D02*
Y18322D01*
X23619D02*
X23731D01*
X242532Y176047D02*
X243587Y177101D01*
X242532Y169212D02*
Y176047D01*
X243587Y181973D02*
Y184209D01*
X235031Y185695D02*
X23528D01*
Y18603D01*
X235031Y184379D02*
Y185695D01*
Y184379D02*
X23619Y18322D01*
X2425Y16918D02*
X242532Y169212D01*
X19732Y17946D02*
X19998D01*
X25135Y16233D02*
X25136Y16232D01*
X20007Y17955D02*
X22762D01*
X19998Y17946D02*
X20007Y17955D01*
X22955Y15716D02*
X23056D01*
X223375Y149178D02*
Y151147D01*
X23039Y16398D02*
X23042Y16401D01*
X22989Y16398D02*
X23039D01*
X200066Y180564D02*
Y186492D01*
X211877Y180588D02*
Y186492D01*
X215814Y18059D02*
Y186492D01*
X223688Y180593D02*
Y186492D01*
X227625Y180595D02*
Y186492D01*
X23765Y17313D02*
X23969D01*
X23731Y17347D02*
X23765Y17313D01*
X25136Y16232D02*
X25326D01*
X25327Y16231D01*
X22742Y14904D02*
X22771Y14875D01*
X2513Y16228D02*
X25135Y16233D01*
X247013Y182044D02*
Y18428D01*
X247772Y183942D02*
X248222Y183493D01*
X247435Y18428D02*
X247772Y183942D01*
X252187Y18428D02*
X25229Y184384D01*
X238413Y181973D02*
Y1832D01*
X239564D01*
X239622Y183142D01*
X247013Y182044D02*
X247202Y182233D01*
X248222D01*
X247013Y18428D02*
X247435D01*
X239622Y182111D02*
Y183142D01*
X19662Y17747D02*
X19662Y17747D01*
X19662Y17747D02*
Y17847D01*
X22762Y17955D02*
X22764Y17957D01*
X22455Y18058D02*
X22475Y18078D01*
X223701Y18058D02*
X22455D01*
X22063D02*
X22093Y18088D01*
X21665Y18058D02*
X21694Y18087D01*
Y18088D01*
X201Y18056D02*
X20129Y18085D01*
X20484Y18058D02*
X2051Y18084D01*
X20513D01*
X20875Y18058D02*
X20902Y18085D01*
X21276Y18058D02*
X21301Y18083D01*
X219763Y18058D02*
X22063D01*
X2285D02*
X22868Y18076D01*
X22764Y18058D02*
X2285D01*
X215824D02*
X21665D01*
X211886D02*
X21276D01*
X207947D02*
X20875D01*
X204009D02*
X20484D01*
X20007Y18056D02*
X201D01*
X202035Y180765D02*
Y186492D01*
X205972Y184523D02*
Y186492D01*
Y180772D02*
Y184523D01*
X209909Y180791D02*
Y186492D01*
Y180791D02*
X20993Y18077D01*
X213846Y180844D02*
Y186492D01*
Y180844D02*
X21385Y18084D01*
X217783Y184523D02*
Y186492D01*
Y180863D02*
Y184523D01*
X22172D02*
Y186492D01*
Y18079D02*
Y1846D01*
X225657Y180843D02*
Y186492D01*
Y180843D02*
X22566Y18084D01*
X22957Y18075D02*
Y18457D01*
Y184499D02*
X229594Y184523D01*
Y186492D01*
X219751Y184523D02*
Y186492D01*
Y180592D02*
Y184523D01*
X20794Y184523D02*
Y186492D01*
Y180587D02*
Y184523D01*
X204003D02*
Y186492D01*
Y180585D02*
Y184523D01*
X223375Y161785D02*
X2234Y16181D01*
X223375Y151147D02*
Y161785D01*
X221406Y149178D02*
Y161556D01*
X23262Y1623D02*
X23368Y16124D01*
X23765D01*
X23773Y16132D01*
Y1623D01*
Y16295D01*
X221406Y161556D02*
X22182Y16197D01*
D46*
X25186Y17326D02*
X25463D01*
X251842Y173278D02*
X25186Y17326D01*
X239773Y17519D02*
X239803Y17516D01*
X2381Y17519D02*
X239773D01*
X250978Y182233D02*
X251204D01*
X251903Y182931D01*
Y183003D01*
X203776Y151147D02*
Y153734D01*
X20376Y15375D02*
X203776Y153734D01*
X205745Y151147D02*
Y153745D01*
X20575Y15375D01*
X207713Y151147D02*
Y153713D01*
X207713Y153713D02*
X207713Y153713D01*
X209682Y151147D02*
Y153718D01*
Y153792D01*
X21165Y149178D02*
Y151147D01*
Y15375D01*
X21361Y15375D02*
X213619Y153741D01*
Y15102D02*
Y151147D01*
Y153741D01*
X215587Y153737D02*
X2156Y15375D01*
X215587Y15106D02*
Y151147D01*
Y153733D01*
Y153737D01*
X217556Y153726D02*
X21758Y15375D01*
X217556Y151147D02*
Y153726D01*
X20713Y16197D02*
X22182D01*
D47*
X192797Y186075D02*
D03*
X192707Y149735D02*
D03*
X254482Y149705D02*
D03*
Y186055D02*
D03*
D48*
X25463Y17326D02*
D03*
Y17225D02*
D03*
Y17127D02*
D03*
X20007Y18056D02*
D03*
Y17955D02*
D03*
X204009Y18058D02*
D03*
Y17957D02*
D03*
X207947Y18058D02*
D03*
Y17957D02*
D03*
X211886Y18058D02*
D03*
Y17957D02*
D03*
X215824Y18058D02*
D03*
Y17957D02*
D03*
X219763Y18058D02*
D03*
Y17957D02*
D03*
X223701Y18058D02*
D03*
Y17957D02*
D03*
X22764Y18058D02*
D03*
Y17957D02*
D03*
D49*
X2431Y15458D02*
D03*
X24209D02*
D03*
X24111D02*
D03*
D50*
X25129Y15648D02*
D03*
Y15548D02*
D03*
X25029Y15648D02*
D03*
D51*
Y15548D02*
D03*
D52*
X196427Y166116D02*
D03*
Y162967D02*
D03*
D53*
X226939Y165652D02*
D03*
Y164093D02*
D03*
Y162534D02*
D03*
Y167219D02*
D03*
D54*
X197333Y171786D02*
D03*
X197333Y158006D02*
D03*
X22627D02*
D03*
Y171786D02*
D03*
D55*
X221406Y149178D02*
D03*
Y151147D02*
D03*
X223375D02*
D03*
Y149178D02*
D03*
X197384Y186512D02*
D03*
X197384Y184543D02*
D03*
X195415D02*
D03*
X195415Y186512D02*
D03*
X196526Y149178D02*
D03*
X196526Y151147D02*
D03*
X198495D02*
D03*
X198495Y149178D02*
D03*
X209909Y184523D02*
D03*
X209909Y186492D02*
D03*
X211877D02*
D03*
X211877Y184523D02*
D03*
X213846D02*
D03*
X213846Y186492D02*
D03*
X20794D02*
D03*
Y184523D02*
D03*
X225657Y184523D02*
D03*
X225657Y186492D02*
D03*
X227625D02*
D03*
X227625Y184523D02*
D03*
X229594D02*
D03*
X229594Y186492D02*
D03*
X223688D02*
D03*
X223688Y184523D02*
D03*
X215814D02*
D03*
X215814Y186492D02*
D03*
X22172D02*
D03*
Y184523D02*
D03*
X219751Y184523D02*
D03*
Y186492D02*
D03*
X217783Y186492D02*
D03*
Y184523D02*
D03*
X200066Y184523D02*
D03*
X200066Y186492D02*
D03*
X205972Y186492D02*
D03*
Y184523D02*
D03*
X204003Y184523D02*
D03*
Y186492D02*
D03*
X202035D02*
D03*
X202035Y184523D02*
D03*
X215587Y151147D02*
D03*
Y149178D02*
D03*
X213619Y149178D02*
D03*
Y151147D02*
D03*
X21165Y151147D02*
D03*
Y149178D02*
D03*
X217556D02*
D03*
X217556Y151147D02*
D03*
X209682D02*
D03*
X209682Y149178D02*
D03*
X203776D02*
D03*
X203776Y151147D02*
D03*
X205745D02*
D03*
X205745Y149178D02*
D03*
X207713D02*
D03*
X207713Y151147D02*
D03*
D56*
X2503Y15928D02*
D03*
Y16028D02*
D03*
Y16128D02*
D03*
Y16228D02*
D03*
Y16328D02*
D03*
Y16428D02*
D03*
Y16528D02*
D03*
Y16628D02*
D03*
Y16728D02*
D03*
X2513Y16828D02*
D03*
Y16728D02*
D03*
Y16628D02*
D03*
Y16528D02*
D03*
Y16428D02*
D03*
Y16328D02*
D03*
Y16228D02*
D03*
Y16128D02*
D03*
Y16028D02*
D03*
Y15928D02*
D03*
D57*
X2503Y16828D02*
D03*
D58*
X19662Y17747D02*
D03*
X19662Y17847D02*
D03*
X19662Y17946D02*
D03*
X19562Y17747D02*
D03*
Y17947D02*
D03*
X19562Y17847D02*
D03*
D59*
X23355Y18603D02*
D03*
X23528D02*
D03*
D60*
X233Y185D02*
D03*
X23587D02*
D03*
D61*
X250387Y181642D02*
D03*
X2496Y181642D02*
D03*
X248813Y181642D02*
D03*
X251175D02*
D03*
X248025D02*
D03*
X249206Y182233D02*
D03*
X249994D02*
D03*
X248222D02*
D03*
X250978D02*
D03*
X250387Y182902D02*
D03*
X2496D02*
D03*
X248813D02*
D03*
X251175D02*
D03*
X248025D02*
D03*
X249206Y183493D02*
D03*
X249994D02*
D03*
X248222D02*
D03*
X250978D02*
D03*
D62*
X252374Y18428D02*
D03*
X246826D02*
D03*
Y182044D02*
D03*
X252374D02*
D03*
D63*
X243587Y184209D02*
D03*
X238413D02*
D03*
Y181973D02*
D03*
X243587D02*
D03*
D64*
X242378Y183142D02*
D03*
X242378Y182111D02*
D03*
D65*
X239622Y183142D02*
D03*
X241394D02*
D03*
X240606D02*
D03*
X241394Y182111D02*
D03*
X240606D02*
D03*
X239622D02*
D03*
D66*
X251969Y185039D02*
D03*
Y181102D02*
D03*
X25Y15748D02*
D03*
X247047Y183071D02*
D03*
X244095Y185039D02*
D03*
Y181102D02*
D03*
X245079Y155512D02*
D03*
X244095Y153543D02*
D03*
X24311Y179134D02*
D03*
X242126Y153543D02*
D03*
X24311Y151575D02*
D03*
X240157Y185039D02*
D03*
Y165354D02*
D03*
Y153543D02*
D03*
X238189Y185039D02*
D03*
X239173Y183071D02*
D03*
X238189Y181102D02*
D03*
X239173Y179134D02*
D03*
X238189Y177165D02*
D03*
Y173228D02*
D03*
Y165354D02*
D03*
Y161417D02*
D03*
Y153543D02*
D03*
X23622Y181102D02*
D03*
X237205Y179134D02*
D03*
X23622Y177165D02*
D03*
Y165354D02*
D03*
Y161417D02*
D03*
Y153543D02*
D03*
X234252Y185039D02*
D03*
X235236Y183071D02*
D03*
X234252Y181102D02*
D03*
X235236Y179134D02*
D03*
X234252Y177165D02*
D03*
Y173228D02*
D03*
Y15748D02*
D03*
Y153543D02*
D03*
X232283Y181102D02*
D03*
Y177165D02*
D03*
Y153543D02*
D03*
X230315Y165354D02*
D03*
Y153543D02*
D03*
X229331Y175197D02*
D03*
X228346Y173228D02*
D03*
X229331Y17126D02*
D03*
Y167323D02*
D03*
X227362Y175197D02*
D03*
X225394D02*
D03*
Y163386D02*
D03*
X222441Y15748D02*
D03*
Y153543D02*
D03*
Y149606D02*
D03*
X221457Y175197D02*
D03*
X220472Y153543D02*
D03*
Y149606D02*
D03*
X219488Y17126D02*
D03*
Y155512D02*
D03*
X218504Y153543D02*
D03*
X219488Y151575D02*
D03*
X218504Y149606D02*
D03*
X21752Y175197D02*
D03*
Y17126D02*
D03*
X216535Y161417D02*
D03*
Y15748D02*
D03*
Y153543D02*
D03*
Y149606D02*
D03*
X215551Y175197D02*
D03*
Y17126D02*
D03*
X214567Y149606D02*
D03*
X213583Y175197D02*
D03*
Y17126D02*
D03*
Y155512D02*
D03*
X212598Y153543D02*
D03*
Y149606D02*
D03*
X211614Y175197D02*
D03*
X21063Y161417D02*
D03*
Y153543D02*
D03*
Y149606D02*
D03*
X209646Y175197D02*
D03*
X208661Y173228D02*
D03*
Y161417D02*
D03*
Y153543D02*
D03*
Y149606D02*
D03*
X206693Y161417D02*
D03*
Y153543D02*
D03*
Y149606D02*
D03*
X205709Y175197D02*
D03*
X204724Y169291D02*
D03*
Y165354D02*
D03*
Y161417D02*
D03*
Y153543D02*
D03*
Y149606D02*
D03*
X20374Y175197D02*
D03*
X202756Y173228D02*
D03*
Y165354D02*
D03*
Y161417D02*
D03*
X20374Y159449D02*
D03*
X202756Y15748D02*
D03*
Y153543D02*
D03*
Y149606D02*
D03*
X201772Y175197D02*
D03*
X200787Y169291D02*
D03*
X201772Y167323D02*
D03*
Y159449D02*
D03*
Y155512D02*
D03*
Y151575D02*
D03*
X198819Y185039D02*
D03*
X199803Y175197D02*
D03*
X198819Y169291D02*
D03*
X197835Y175197D02*
D03*
X19685Y173228D02*
D03*
X194882Y169291D02*
D03*
X193898Y183071D02*
D03*
X192913Y181102D02*
D03*
X193898Y179134D02*
D03*
X192913Y177165D02*
D03*
X193898Y175197D02*
D03*
X192913Y173228D02*
D03*
X193898Y17126D02*
D03*
X192913Y169291D02*
D03*
X25263Y17481D02*
D03*
X24882Y17527D02*
D03*
X25279Y17226D02*
D03*
X25218Y17678D02*
D03*
X25263Y17766D02*
D03*
X24753Y17975D02*
D03*
X2467Y1778D02*
D03*
Y17932D02*
D03*
X25044Y17729D02*
D03*
X24675Y1807D02*
D03*
X24672Y17884D02*
D03*
X25363Y17459D02*
D03*
Y17392D02*
D03*
X249838Y174188D02*
D03*
X25117Y17482D02*
D03*
X24846Y17019D02*
D03*
X24849Y16864D02*
D03*
X24803Y16377D02*
D03*
X24802Y16475D02*
D03*
X24848Y16046D02*
D03*
X24065Y15298D02*
D03*
X24155Y153D02*
D03*
X24643Y15189D02*
D03*
X24642Y15454D02*
D03*
X2411Y153D02*
D03*
X25202Y17264D02*
D03*
X25126Y15775D02*
D03*
X24629Y15918D02*
D03*
X24577Y15853D02*
D03*
X24062Y1815D02*
D03*
X24351Y1761D02*
D03*
X243078Y17653D02*
D03*
X217597Y161963D02*
D03*
X25341Y1596D02*
D03*
X25342Y15437D02*
D03*
X24901Y15419D02*
D03*
X22766Y15248D02*
D03*
X22741Y14865D02*
D03*
X25442Y15114D02*
D03*
X2534Y16324D02*
D03*
X25381D02*
D03*
X24855Y15419D02*
D03*
X25341Y16217D02*
D03*
X25243Y15299D02*
D03*
X25242Y15337D02*
D03*
X23065Y17861D02*
D03*
X2307Y17929D02*
D03*
X24448Y14946D02*
D03*
X23347Y15975D02*
D03*
X23392Y15926D02*
D03*
X23191Y15876D02*
D03*
X23063Y16163D02*
D03*
X22955Y15716D02*
D03*
X23411Y15714D02*
D03*
X22926Y1581D02*
D03*
X22919Y16291D02*
D03*
X25442Y15157D02*
D03*
X21975Y15815D02*
D03*
X2156Y15375D02*
D03*
X21758D02*
D03*
X21268Y16038D02*
D03*
X21855Y15814D02*
D03*
X21606Y16036D02*
D03*
X20376Y15375D02*
D03*
X20575D02*
D03*
X20775D02*
D03*
X20965D02*
D03*
X21166D02*
D03*
X21361D02*
D03*
X20713Y16197D02*
D03*
X24128Y15832D02*
D03*
X22765Y15276D02*
D03*
X23042Y16401D02*
D03*
X2295Y16866D02*
D03*
X23044Y15805D02*
D03*
X22182Y16197D02*
D03*
X2285Y18058D02*
D03*
X21071Y16697D02*
D03*
X207924Y166994D02*
D03*
X2425Y16918D02*
D03*
X23969Y17313D02*
D03*
X249196Y173044D02*
D03*
X25088Y17418D02*
D03*
X25115Y17525D02*
D03*
X24957Y17527D02*
D03*
X25341Y15994D02*
D03*
X25327Y16231D02*
D03*
X25246Y16004D02*
D03*
X25341Y15398D02*
D03*
X22742Y14904D02*
D03*
X25132Y15326D02*
D03*
X24684Y15189D02*
D03*
X24908D02*
D03*
X247772Y183942D02*
D03*
X23731Y18322D02*
D03*
X22455Y18058D02*
D03*
X22093Y18088D02*
D03*
X21694D02*
D03*
X20129Y18085D02*
D03*
X201Y18056D02*
D03*
X20513Y18084D02*
D03*
X20484Y18058D02*
D03*
X20902Y18085D02*
D03*
X20875Y18058D02*
D03*
X21301Y18083D02*
D03*
X21276Y18058D02*
D03*
X21665D02*
D03*
X22063D02*
D03*
X22475Y18078D02*
D03*
X22868Y18076D02*
D03*
X202035Y180765D02*
D03*
X205972Y180772D02*
D03*
X20993Y18077D02*
D03*
X21385Y18084D02*
D03*
X217783Y180863D02*
D03*
X22172Y18079D02*
D03*
X22566Y18084D02*
D03*
X22957Y18075D02*
D03*
Y184499D02*
D03*
X21234Y16858D02*
D03*
X2115Y16799D02*
D03*
X21069Y16751D02*
D03*
X22388Y16824D02*
D03*
X213478Y166002D02*
D03*
X22288Y16829D02*
D03*
X213734Y166466D02*
D03*
X22189Y1678D02*
D03*
X21399Y166D02*
D03*
X214246Y165504D02*
D03*
X20618Y16802D02*
D03*
X20517Y16859D02*
D03*
X23879Y1719D02*
D03*
X24699Y16327D02*
D03*
X24764Y16427D02*
D03*
X24697Y16491D02*
D03*
X24888Y16573D02*
D03*
X24764Y16676D02*
D03*
X24948Y16782D02*
D03*
X23356Y16226D02*
D03*
X23565Y15987D02*
D03*
X2381Y17519D02*
D03*
X23982Y17516D02*
D03*
X24346Y15976D02*
D03*
X24185Y16226D02*
D03*
X23522Y16375D02*
D03*
X24702Y16748D02*
D03*
X2482Y15851D02*
D03*
Y15949D02*
D03*
X2414Y18152D02*
D03*
X24011Y18153D02*
D03*
X24191D02*
D03*
X24399Y17616D02*
D03*
X24647Y17526D02*
D03*
X24753Y18102D02*
D03*
X24873Y1825D02*
D03*
X25048Y18249D02*
D03*
X24801Y17527D02*
D03*
X24699Y17462D02*
D03*
X24599Y17528D02*
D03*
X24549Y17526D02*
D03*
X24499Y17525D02*
D03*
X24448D02*
D03*
X244Y16326D02*
D03*
X24343Y16478D02*
D03*
X24282Y15915D02*
D03*
X24287Y16377D02*
D03*
X2423Y16426D02*
D03*
X24227Y15847D02*
D03*
X24647Y16649D02*
D03*
Y16551D02*
D03*
X20712Y16753D02*
D03*
X2234Y16181D02*
D03*
X245Y18643D02*
D03*
X24551Y1855D02*
D03*
X243Y16853D02*
D03*
X24301Y16808D02*
D03*
X243Y16751D02*
D03*
X23378Y16274D02*
D03*
X23262Y1623D02*
D03*
X23773D02*
D03*
Y16295D02*
D03*
X2221Y16403D02*
D03*
X23353Y149678D02*
D03*
X22951Y15656D02*
D03*
Y15591D02*
D03*
X23377Y14966D02*
D03*
X23325Y14965D02*
D03*
X22536Y164093D02*
D03*
X22572Y16406D02*
D03*
X22979Y16402D02*
D03*
X21953Y1672D02*
D03*
X22051Y1666D02*
D03*
X22124Y16286D02*
D03*
X22055Y16283D02*
D03*
X22092Y16284D02*
D03*
X22051Y16598D02*
D03*
X2329Y16417D02*
D03*
X23357Y16328D02*
D03*
D67*
X235482Y175302D02*
D03*
X233255Y173075D02*
D03*
D68*
X241394Y183142D02*
X241488D01*
M02*
