G04 Layer_Color=255*
%FSTAX24Y24*%
%MOIN*%
G70*
G01*
G75*
%ADD47P,0.1492X8X22.5*%
%ADD48O,0.0750X0.0650*%
%ADD49O,0.0650X0.0750*%
%ADD50C,0.0630*%
%ADD51R,0.0630X0.0630*%
%ADD52O,0.1200X0.1500*%
%ADD53O,0.1500X0.1200*%
%ADD54P,0.1492X8X22.5*%
%ADD55R,0.0787X0.0984*%
%ADD56O,0.0787X0.0591*%
%ADD57R,0.0787X0.0591*%
%ADD58O,0.0860X0.0600*%
%ADD59C,0.0750*%
%ADD60O,0.0591X0.0787*%
%ADD61C,0.0472*%
%ADD62O,0.1516X0.1142*%
%ADD63C,0.1358*%
%ADD64R,0.0559X0.0559*%
%ADD65C,0.0559*%
D47*
X192797Y186075D02*
D03*
X192707Y149735D02*
D03*
X254482Y149705D02*
D03*
Y186055D02*
D03*
D48*
X25463Y17326D02*
D03*
Y17225D02*
D03*
Y17127D02*
D03*
X20007Y18056D02*
D03*
Y17955D02*
D03*
X204009Y18058D02*
D03*
Y17957D02*
D03*
X207947Y18058D02*
D03*
Y17957D02*
D03*
X211886Y18058D02*
D03*
Y17957D02*
D03*
X215824Y18058D02*
D03*
Y17957D02*
D03*
X219763Y18058D02*
D03*
Y17957D02*
D03*
X223701Y18058D02*
D03*
Y17957D02*
D03*
X22764Y18058D02*
D03*
Y17957D02*
D03*
D49*
X2431Y15458D02*
D03*
X24209D02*
D03*
X24111D02*
D03*
D50*
X25129Y15648D02*
D03*
Y15548D02*
D03*
X25029Y15648D02*
D03*
D51*
Y15548D02*
D03*
D52*
X196427Y166116D02*
D03*
Y162967D02*
D03*
D53*
X226939Y165652D02*
D03*
Y164093D02*
D03*
Y162534D02*
D03*
Y167219D02*
D03*
D54*
X197333Y171786D02*
D03*
X197333Y158006D02*
D03*
X22627D02*
D03*
Y171786D02*
D03*
D55*
X221406Y149178D02*
D03*
Y151147D02*
D03*
X223375D02*
D03*
Y149178D02*
D03*
X197384Y186512D02*
D03*
X197384Y184543D02*
D03*
X195415D02*
D03*
X195415Y186512D02*
D03*
X196526Y149178D02*
D03*
X196526Y151147D02*
D03*
X198495D02*
D03*
X198495Y149178D02*
D03*
X209909Y184523D02*
D03*
X209909Y186492D02*
D03*
X211877D02*
D03*
X211877Y184523D02*
D03*
X213846D02*
D03*
X213846Y186492D02*
D03*
X20794D02*
D03*
Y184523D02*
D03*
X225657Y184523D02*
D03*
X225657Y186492D02*
D03*
X227625D02*
D03*
X227625Y184523D02*
D03*
X229594D02*
D03*
X229594Y186492D02*
D03*
X223688D02*
D03*
X223688Y184523D02*
D03*
X215814D02*
D03*
X215814Y186492D02*
D03*
X22172D02*
D03*
Y184523D02*
D03*
X219751Y184523D02*
D03*
Y186492D02*
D03*
X217783Y186492D02*
D03*
Y184523D02*
D03*
X200066Y184523D02*
D03*
X200066Y186492D02*
D03*
X205972Y186492D02*
D03*
Y184523D02*
D03*
X204003Y184523D02*
D03*
Y186492D02*
D03*
X202035D02*
D03*
X202035Y184523D02*
D03*
X215587Y151147D02*
D03*
Y149178D02*
D03*
X213619Y149178D02*
D03*
Y151147D02*
D03*
X21165Y151147D02*
D03*
Y149178D02*
D03*
X217556D02*
D03*
X217556Y151147D02*
D03*
X209682D02*
D03*
X209682Y149178D02*
D03*
X203776D02*
D03*
X203776Y151147D02*
D03*
X205745D02*
D03*
X205745Y149178D02*
D03*
X207713D02*
D03*
X207713Y151147D02*
D03*
D56*
X2503Y15928D02*
D03*
Y16028D02*
D03*
Y16128D02*
D03*
Y16228D02*
D03*
Y16328D02*
D03*
Y16428D02*
D03*
Y16528D02*
D03*
Y16628D02*
D03*
Y16728D02*
D03*
X2513Y16828D02*
D03*
Y16728D02*
D03*
Y16628D02*
D03*
Y16528D02*
D03*
Y16428D02*
D03*
Y16328D02*
D03*
Y16228D02*
D03*
Y16128D02*
D03*
Y16028D02*
D03*
Y15928D02*
D03*
D57*
X2503Y16828D02*
D03*
D58*
X19662Y17747D02*
D03*
X19662Y17847D02*
D03*
X19662Y17946D02*
D03*
X19562Y17747D02*
D03*
Y17947D02*
D03*
X19562Y17847D02*
D03*
D59*
X23355Y18603D02*
D03*
X23528D02*
D03*
D60*
X233Y185D02*
D03*
X23587D02*
D03*
D61*
X250387Y181642D02*
D03*
X2496Y181642D02*
D03*
X248813Y181642D02*
D03*
X251175D02*
D03*
X248025D02*
D03*
X249206Y182233D02*
D03*
X249994D02*
D03*
X248222D02*
D03*
X250978D02*
D03*
X250387Y182902D02*
D03*
X2496D02*
D03*
X248813D02*
D03*
X251175D02*
D03*
X248025D02*
D03*
X249206Y183493D02*
D03*
X249994D02*
D03*
X248222D02*
D03*
X250978D02*
D03*
D62*
X252374Y18428D02*
D03*
X246826D02*
D03*
Y182044D02*
D03*
X252374D02*
D03*
D63*
X243587Y184209D02*
D03*
X238413D02*
D03*
Y181973D02*
D03*
X243587D02*
D03*
D64*
X242378Y183142D02*
D03*
X242378Y182111D02*
D03*
D65*
X239622Y183142D02*
D03*
X241394D02*
D03*
X240606D02*
D03*
X241394Y182111D02*
D03*
X240606D02*
D03*
X239622D02*
D03*
M02*
