G04 Layer_Color=8421504*
%FSTAX24Y24*%
%MOIN*%
G70*
G01*
G75*
%ADD10R,0.0591X0.0315*%
%ADD11R,0.0748X0.0551*%
%ADD12R,0.0551X0.0709*%
%ADD13R,0.0236X0.0787*%
%ADD14R,0.0550X0.0500*%
%ADD15R,0.0500X0.0500*%
%ADD16R,0.0500X0.0500*%
%ADD17R,0.0630X0.1378*%
%ADD18R,0.0500X0.0550*%
%ADD19R,0.0906X0.0906*%
G04:AMPARAMS|DCode=20|XSize=37.4mil|YSize=19.7mil|CornerRadius=2.5mil|HoleSize=0mil|Usage=FLASHONLY|Rotation=90.000|XOffset=0mil|YOffset=0mil|HoleType=Round|Shape=RoundedRectangle|*
%AMROUNDEDRECTD20*
21,1,0.0374,0.0148,0,0,90.0*
21,1,0.0325,0.0197,0,0,90.0*
1,1,0.0049,0.0074,0.0162*
1,1,0.0049,0.0074,-0.0162*
1,1,0.0049,-0.0074,-0.0162*
1,1,0.0049,-0.0074,0.0162*
%
%ADD20ROUNDEDRECTD20*%
%ADD21R,0.0600X0.0394*%
%ADD22R,0.0600X0.0394*%
%ADD23R,0.0650X0.0600*%
G04:AMPARAMS|DCode=24|XSize=118.1mil|YSize=196.9mil|CornerRadius=0mil|HoleSize=0mil|Usage=FLASHONLY|Rotation=315.000|XOffset=0mil|YOffset=0mil|HoleType=Round|Shape=Rectangle|*
%AMROTATEDRECTD24*
4,1,4,-0.1114,-0.0278,0.0278,0.1114,0.1114,0.0278,-0.0278,-0.1114,-0.1114,-0.0278,0.0*
%
%ADD24ROTATEDRECTD24*%

%ADD25R,0.0748X0.1654*%
G04:AMPARAMS|DCode=26|XSize=70.9mil|YSize=47.2mil|CornerRadius=5.9mil|HoleSize=0mil|Usage=FLASHONLY|Rotation=0.000|XOffset=0mil|YOffset=0mil|HoleType=Round|Shape=RoundedRectangle|*
%AMROUNDEDRECTD26*
21,1,0.0709,0.0354,0,0,0.0*
21,1,0.0591,0.0472,0,0,0.0*
1,1,0.0118,0.0295,-0.0177*
1,1,0.0118,-0.0295,-0.0177*
1,1,0.0118,-0.0295,0.0177*
1,1,0.0118,0.0295,0.0177*
%
%ADD26ROUNDEDRECTD26*%
%ADD27R,0.1580X0.1580*%
G04:AMPARAMS|DCode=28|XSize=67mil|YSize=36mil|CornerRadius=4mil|HoleSize=0mil|Usage=FLASHONLY|Rotation=0.000|XOffset=0mil|YOffset=0mil|HoleType=Round|Shape=RoundedRectangle|*
%AMROUNDEDRECTD28*
21,1,0.0670,0.0281,0,0,0.0*
21,1,0.0591,0.0360,0,0,0.0*
1,1,0.0079,0.0295,-0.0140*
1,1,0.0079,-0.0295,-0.0140*
1,1,0.0079,-0.0295,0.0140*
1,1,0.0079,0.0295,0.0140*
%
%ADD28ROUNDEDRECTD28*%
G04:AMPARAMS|DCode=29|XSize=67mil|YSize=36mil|CornerRadius=4mil|HoleSize=0mil|Usage=FLASHONLY|Rotation=90.000|XOffset=0mil|YOffset=0mil|HoleType=Round|Shape=RoundedRectangle|*
%AMROUNDEDRECTD29*
21,1,0.0670,0.0281,0,0,90.0*
21,1,0.0591,0.0360,0,0,90.0*
1,1,0.0079,0.0140,0.0295*
1,1,0.0079,0.0140,-0.0295*
1,1,0.0079,-0.0140,-0.0295*
1,1,0.0079,-0.0140,0.0295*
%
%ADD29ROUNDEDRECTD29*%
%ADD30R,0.0945X0.0394*%
%ADD31R,0.0945X0.1299*%
%ADD32R,0.0315X0.0472*%
G04:AMPARAMS|DCode=33|XSize=30mil|YSize=80mil|CornerRadius=7.5mil|HoleSize=0mil|Usage=FLASHONLY|Rotation=180.000|XOffset=0mil|YOffset=0mil|HoleType=Round|Shape=RoundedRectangle|*
%AMROUNDEDRECTD33*
21,1,0.0300,0.0650,0,0,180.0*
21,1,0.0150,0.0800,0,0,180.0*
1,1,0.0150,-0.0075,0.0325*
1,1,0.0150,0.0075,0.0325*
1,1,0.0150,0.0075,-0.0325*
1,1,0.0150,-0.0075,-0.0325*
%
%ADD33ROUNDEDRECTD33*%
%ADD34R,0.0300X0.0800*%
%ADD35R,0.0299X0.0500*%
%ADD36O,0.0177X0.0551*%
%ADD37O,0.0180X0.0770*%
%ADD38R,0.0180X0.0770*%
D10*
X25407Y178944D02*
D03*
X253912Y178511D02*
D03*
X25407Y178078D02*
D03*
X254148Y177645D02*
D03*
X25407Y177212D02*
D03*
X254148Y176779D02*
D03*
X25407Y176345D02*
D03*
Y175912D02*
D03*
D11*
X255585Y180779D02*
D03*
X255133Y175601D02*
D03*
D12*
X250015Y178471D02*
D03*
Y176231D02*
D03*
D13*
X20517Y16829D02*
D03*
X20567D02*
D03*
X20617D02*
D03*
X20667D02*
D03*
X20717D02*
D03*
X20767D02*
D03*
X20817D02*
D03*
X20867D02*
D03*
X20517Y17073D02*
D03*
X20567D02*
D03*
X20617D02*
D03*
X20667D02*
D03*
X20717D02*
D03*
X20767D02*
D03*
X20817D02*
D03*
X20867D02*
D03*
X22086Y16851D02*
D03*
X22136D02*
D03*
X22186D02*
D03*
X22236D02*
D03*
X22286D02*
D03*
X22336D02*
D03*
X22386D02*
D03*
X22436D02*
D03*
X22086Y17095D02*
D03*
X22136D02*
D03*
X22186D02*
D03*
X22236D02*
D03*
X22286D02*
D03*
X22336D02*
D03*
X22386D02*
D03*
X22436D02*
D03*
D14*
X23044Y15805D02*
D03*
Y15715D02*
D03*
X23042Y16954D02*
D03*
Y16864D02*
D03*
X24138Y17653D02*
D03*
Y17743D02*
D03*
X24058Y17744D02*
D03*
Y17654D02*
D03*
X24217Y17653D02*
D03*
Y17743D02*
D03*
X23979Y17744D02*
D03*
Y17654D02*
D03*
X2295Y16956D02*
D03*
Y16866D02*
D03*
X23304Y16527D02*
D03*
Y16617D02*
D03*
X22955Y15715D02*
D03*
Y15805D02*
D03*
D15*
X2304Y16198D02*
D03*
Y16288D02*
D03*
D16*
X24907Y15183D02*
D03*
X24997Y15183D02*
D03*
X225189Y17789D02*
D03*
X224289D02*
D03*
X221237D02*
D03*
X220337D02*
D03*
X217286D02*
D03*
X216386D02*
D03*
X213334D02*
D03*
X212434D02*
D03*
X209383D02*
D03*
X208483D02*
D03*
X205431D02*
D03*
X204531D02*
D03*
X20148D02*
D03*
X20058D02*
D03*
X22914D02*
D03*
X22824D02*
D03*
D17*
X23421Y151882D02*
D03*
Y149678D02*
D03*
X24449Y151842D02*
D03*
Y149638D02*
D03*
D18*
X23737Y15191D02*
D03*
X23647D02*
D03*
X23003Y15194D02*
D03*
X23093D02*
D03*
X24685Y15184D02*
D03*
X24775Y15184D02*
D03*
X24807Y1585D02*
D03*
X24717D02*
D03*
X24807Y15948D02*
D03*
X24717D02*
D03*
X24906Y14971D02*
D03*
X24996D02*
D03*
D19*
X236464Y14974D02*
D03*
X238236D02*
D03*
X230044Y14974D02*
D03*
X231816D02*
D03*
D20*
X206198Y166286D02*
D03*
X206513D02*
D03*
X206827D02*
D03*
X207142D02*
D03*
Y166994D02*
D03*
X206827D02*
D03*
X206513D02*
D03*
X206198D02*
D03*
X221858Y166506D02*
D03*
X222173D02*
D03*
X222487D02*
D03*
X222802D02*
D03*
Y167214D02*
D03*
X222487D02*
D03*
X222173D02*
D03*
X221858D02*
D03*
X237622Y171124D02*
D03*
X237307Y171124D02*
D03*
X236993D02*
D03*
X236678D02*
D03*
Y170416D02*
D03*
X236993D02*
D03*
X237307D02*
D03*
X237622D02*
D03*
D21*
X224721Y18072D02*
D03*
X220783D02*
D03*
X216844D02*
D03*
X212906D02*
D03*
X208967D02*
D03*
X205029D02*
D03*
X20109D02*
D03*
X22866D02*
D03*
D22*
X224721Y17946D02*
D03*
X220783D02*
D03*
X216844D02*
D03*
X212906D02*
D03*
X208967D02*
D03*
X205029D02*
D03*
X20109D02*
D03*
X22866D02*
D03*
D23*
X225609Y17947D02*
D03*
Y18077D02*
D03*
X221677Y17947D02*
D03*
Y18077D02*
D03*
X217746Y17947D02*
D03*
Y18077D02*
D03*
X213814Y17947D02*
D03*
Y18077D02*
D03*
X209883Y17947D02*
D03*
Y18077D02*
D03*
X205951Y17947D02*
D03*
Y18077D02*
D03*
X20202Y17947D02*
D03*
Y18077D02*
D03*
X22954Y17947D02*
D03*
Y18077D02*
D03*
D24*
X236958Y176722D02*
D03*
X23217Y171934D02*
D03*
D25*
X22747Y149432D02*
D03*
X22747Y152188D02*
D03*
D26*
X247882Y14969D02*
D03*
X246858D02*
D03*
D27*
X237724Y16285D02*
D03*
D28*
X234457Y16576D02*
D03*
X234457Y16526D02*
D03*
Y16476D02*
D03*
Y16426D02*
D03*
Y16376D02*
D03*
X234457Y16326D02*
D03*
X234457Y16276D02*
D03*
Y16226D02*
D03*
X234457Y16176D02*
D03*
X234457Y16126D02*
D03*
Y16076D02*
D03*
Y16026D02*
D03*
Y15976D02*
D03*
X234457Y15926D02*
D03*
X24155D02*
D03*
Y15976D02*
D03*
Y16026D02*
D03*
Y16076D02*
D03*
X24155Y16126D02*
D03*
X24155Y16176D02*
D03*
Y16226D02*
D03*
Y16276D02*
D03*
Y16326D02*
D03*
X24155Y16376D02*
D03*
X24155Y16426D02*
D03*
Y16476D02*
D03*
Y16526D02*
D03*
Y16576D02*
D03*
D29*
X23575Y158669D02*
D03*
X23625D02*
D03*
X23675D02*
D03*
X23725D02*
D03*
X23775D02*
D03*
X23825D02*
D03*
X23875D02*
D03*
X23925D02*
D03*
X23975D02*
D03*
X24025D02*
D03*
D30*
X239758Y151696D02*
D03*
X239758Y15079D02*
D03*
Y149884D02*
D03*
D31*
X242042Y15079D02*
D03*
D32*
X23039Y164112D02*
D03*
Y166868D02*
D03*
D33*
X24232Y17425D02*
D03*
X24182D02*
D03*
X24132D02*
D03*
X24082D02*
D03*
X24032Y17425D02*
D03*
X23982Y17425D02*
D03*
X23932D02*
D03*
X23882D02*
D03*
X24232Y17053D02*
D03*
X24182D02*
D03*
X24132D02*
D03*
X24082D02*
D03*
X24032Y17053D02*
D03*
X23982Y17053D02*
D03*
X23932D02*
D03*
D34*
X23882D02*
D03*
D35*
X24499Y17398D02*
D03*
X24549D02*
D03*
X24599D02*
D03*
X24649D02*
D03*
X24699D02*
D03*
X24449D02*
D03*
X24349D02*
D03*
X24399D02*
D03*
X24499Y17098D02*
D03*
X24449D02*
D03*
X24349D02*
D03*
X24399D02*
D03*
X24549D02*
D03*
X24599D02*
D03*
X24649D02*
D03*
X24699D02*
D03*
D36*
X248558Y171389D02*
D03*
X248814D02*
D03*
X24907D02*
D03*
X249326D02*
D03*
X249582D02*
D03*
X249838D02*
D03*
X250094D02*
D03*
X25035D02*
D03*
X250606D02*
D03*
X250862D02*
D03*
X248558Y173711D02*
D03*
X248814D02*
D03*
X24907D02*
D03*
X249326D02*
D03*
X249582D02*
D03*
X249838D02*
D03*
X250094D02*
D03*
X25035D02*
D03*
X250606D02*
D03*
X250862D02*
D03*
D37*
X216037Y164797D02*
D03*
X215782Y164797D02*
D03*
X215526Y164797D02*
D03*
X21527Y164797D02*
D03*
X215014Y164797D02*
D03*
X214758D02*
D03*
X214502D02*
D03*
X214246D02*
D03*
X21399D02*
D03*
X213734D02*
D03*
X213478D02*
D03*
X213223D02*
D03*
X216037Y161963D02*
D03*
X215782D02*
D03*
X215526D02*
D03*
X21527D02*
D03*
X215014D02*
D03*
X214758D02*
D03*
X214502D02*
D03*
X214246D02*
D03*
X21399D02*
D03*
X213734D02*
D03*
X213478D02*
D03*
D38*
X213223D02*
D03*
M02*
